<svg width="26" height="14" viewBox="0 0 26 14" fill="none" xmlns="http://www.w3.org/2000/svg">
<path fill-rule="evenodd" clip-rule="evenodd" d="M0 2C0 0.89543 0.895431 0 2 0H24C25.1046 0 26 0.895431 26 2V12C26 13.1046 25.1046 14 24 14H2C0.89543 14 0 13.1046 0 12V2ZM2 2H12V4H2V2ZM12 6H2V8H12V6ZM2 10H9V12H2V10ZM22.8889 2C23.5 2 24 2.5 24 3.11111V10.8889C24 11.5 23.5 12 22.8889 12H15.1111C14.5 12 14 11.5 14 10.8889V3.11111C14 2.5 14.5 2 15.1111 2H22.8889ZM18.4444 9.50556L17.0556 7.83333L15.1111 10.3333H22.8889L20.3889 7L18.4444 9.50556Z" fill="white"/>
</svg>
