<svg width="26" height="14" viewBox="0 0 26 14" fill="none" xmlns="http://www.w3.org/2000/svg">
<path fill-rule="evenodd" clip-rule="evenodd" d="M0 2C0 0.89543 0.895431 0 2 0H24C25.1046 0 26 0.895431 26 2V12C26 13.1046 25.1046 14 24 14H23.3333H18.6667H18H16H15.3333H10.6667H10H8H7.33333H2.66667H2C0.89543 14 0 13.1046 0 12V2ZM8 2.66667C8 2.3 7.7 2 7.33333 2H2.66667C2.3 2 2 2.3 2 2.66667V7.33333C2 7.7 2.3 8 2.66667 8H7.33333C7.7 8 8 7.7 8 7.33333V2.66667ZM3.83333 5.5L4.66667 6.50333L5.83333 5L7.33333 7H2.66667L3.83333 5.5ZM8 9.66667V12H5.83333H2V9.66667C2 9.3 2.3 9 2.66667 9H7.33333C7.7 9 8 9.3 8 9.66667ZM24 2.66667C24 2.3 23.7 2 23.3333 2H18.6667C18.3 2 18 2.3 18 2.66667V7.33333C18 7.7 18.3 8 18.6667 8H23.3333C23.7 8 24 7.7 24 7.33333V2.66667ZM19.8333 5.5L20.6667 6.50333L21.8333 5L23.3333 7H18.6667L19.8333 5.5ZM24 9.66667V12H21.8333H18V9.66667C18 9.3 18.3 9 18.6667 9H23.3333C23.7 9 24 9.3 24 9.66667ZM16 7.33333V2.66667C16 2.3 15.7 2 15.3333 2H10.6667C10.3 2 10 2.3 10 2.66667V7.33333C10 7.7 10.3 8 10.6667 8H15.3333C15.7 8 16 7.7 16 7.33333ZM11.8333 5.5L12.6667 6.50333L13.8333 5L15.3333 7H10.6667L11.8333 5.5ZM16 9.66667V12H13.8333H10V9.66667C10 9.3 10.3 9 10.6667 9H15.3333C15.7 9 16 9.3 16 9.66667Z" fill="white"/>
</svg>
