<svg width="26" height="14" viewBox="0 0 26 14" fill="none" xmlns="http://www.w3.org/2000/svg">
<path fill-rule="evenodd" clip-rule="evenodd" d="M0 2C0 0.89543 0.895431 0 2 0H24C25.1046 0 26 0.895431 26 2V12C26 13.1046 25.1046 14 24 14H2C0.89543 14 0 13.1046 0 12V2ZM14 2H24V4H14V2ZM24 6H14V8H24V6ZM14 10H21V12H14V10ZM10.8889 2C11.5 2 12 2.5 12 3.11111V10.8889C12 11.5 11.5 12 10.8889 12H3.11111C2.5 12 2 11.5 2 10.8889V3.11111C2 2.5 2.5 2 3.11111 2H10.8889ZM6.44444 9.50556L5.05556 7.83333L3.11111 10.3333H10.8889L8.38889 7L6.44444 9.50556Z" fill="white"/>
</svg>
