<svg width="20" height="20" viewBox="0 0 20 20" fill="none" xmlns="http://www.w3.org/2000/svg">
<path d="M12.4827 6.01346C13.5416 6.01346 14.5237 6.04967 15.4984 5.99926C16.0435 5.97106 16.1127 5.99246 16.1034 6.5421C16.0988 7.01137 16.1258 7.48041 16.1843 7.94604C16.2513 8.50864 16.1141 8.72197 15.592 8.96749C15.4522 9.03322 15.3563 9.30287 15.3438 9.48944C15.2683 10.6114 15.1948 11.7349 15.1743 12.8607C15.1457 14.4343 15.1442 16.0092 15.1696 17.5855C15.1824 18.4514 14.8282 18.8195 13.9627 18.8324C12.8267 18.8493 11.6943 18.9731 10.5586 18.9544C9.07255 18.9299 7.58456 18.8182 6.09819 18.72C6.01943 18.7007 5.94641 18.6628 5.88517 18.6096C5.82394 18.5564 5.77624 18.4894 5.74603 18.4142C5.61874 17.9292 5.53605 17.4336 5.49898 16.9336C5.40578 14.9307 5.36052 12.9273 5.2642 10.9245C5.23274 10.2703 5.09987 9.6174 5.0095 8.93465C4.87863 8.94229 4.7741 8.94 4.67303 8.95579C4.27988 9.01719 3.9845 8.8245 3.94658 8.43528C3.88293 7.78138 3.8424 7.12586 3.80194 6.47076C3.78561 6.20624 3.87171 6.11619 4.18954 6.13162C5.10465 6.17602 6.02076 6.14729 7.03631 6.14729C6.68065 5.43559 6.39177 4.88092 6.12425 4.31673C5.72866 3.48246 6.18736 2.72386 7.10368 2.68933C7.44405 2.6765 7.78612 2.68725 8.13806 2.68725C8.53716 1.35285 9.38054 0.801895 10.5406 1.14162C11.3152 1.36848 11.7352 2.02982 11.5445 2.80572C12.1582 2.54431 12.7529 2.43806 13.3939 2.68432C14.0256 2.92702 14.3479 3.62831 13.9747 4.17534C13.6127 4.70588 13.1711 5.1808 12.7639 5.67966C12.687 5.77386 12.6073 5.86576 12.4827 6.01346ZM13.7277 18.2811C13.5905 18.0536 13.4907 17.888 13.3909 17.7225C13.5845 17.6691 13.7819 17.6301 13.9813 17.6058C14.1327 17.6158 14.2823 17.6445 14.4267 17.6913C14.4281 17.291 14.4233 17.2998 13.8545 16.9765C13.7419 16.9125 13.6816 16.7526 13.5972 16.6368C13.7327 16.5631 13.8796 16.5128 14.0319 16.4879C14.1764 16.5144 14.315 16.5664 14.4412 16.6415C14.8242 15.7715 13.8727 15.8389 13.625 15.4454C13.8346 14.9569 14.1707 15.31 14.4458 15.3084C14.6817 14.9427 14.5518 14.6923 14.192 14.5098C14.1362 14.4814 14.0572 14.4849 14.016 14.4454C13.9053 14.3392 13.8092 14.2178 13.7073 14.1024C13.8571 14.0592 14.0097 14.0263 14.1639 14.004C14.2649 14.0093 14.3645 14.0292 14.4598 14.063C14.6717 13.5021 14.63 13.3979 14.1397 13.1699C14.0349 13.1331 13.9397 13.0732 13.8613 12.9945C13.7962 12.9101 13.7336 12.7576 13.7683 12.6835C13.8003 12.6152 13.965 12.5773 14.0673 12.5875C14.2166 12.6158 14.3626 12.6592 14.503 12.717C14.7333 12.153 14.6983 12.0594 14.2078 11.8551C14.1018 11.8251 13.9995 11.7834 13.9028 11.7307C13.837 11.683 13.7531 11.552 13.7742 11.5135C13.7996 11.4719 13.8335 11.4361 13.8738 11.4087C13.914 11.3812 13.9596 11.3625 14.0076 11.354C14.1077 11.3432 14.2314 11.4472 14.3205 11.4226C14.4534 11.3859 14.6403 11.3007 14.6648 11.1983C14.69 11.0926 14.575 10.9124 14.4723 10.819C14.375 10.7305 14.1961 10.7368 14.0874 10.655C14.0065 10.5941 13.9804 10.459 13.93 10.357C14.0147 10.3041 14.1084 10.2672 14.2065 10.248C14.3578 10.2586 14.5079 10.2823 14.6551 10.3189L14.7098 10.2207L14.0873 9.69982L14.1156 9.57469C14.3089 9.55332 14.5021 9.53195 14.6955 9.51192C14.7608 8.75076 14.7623 8.76405 14.0653 8.81943C13.3958 8.87263 12.7235 8.90573 12.051 8.92669C11.3726 8.94783 11.2827 9.02817 11.2821 9.72381C11.2807 11.5241 11.2792 13.3243 11.2776 15.1246C11.2768 15.6091 11.2556 16.0931 11.2628 16.5778C11.2715 17.158 11.3006 17.7386 11.3196 18.2811L13.7277 18.2811ZM6.2028 17.2384C6.3497 17.1702 6.50407 17.1194 6.66276 17.087C6.77877 17.1024 6.89073 17.1399 6.99253 17.1976C6.93948 17.2971 6.9096 17.4261 6.82788 17.4891C6.70928 17.5805 6.54188 17.6083 6.4177 17.6946C6.38111 17.7225 6.35165 17.7586 6.33173 17.8001C6.3118 17.8415 6.30198 17.8871 6.30308 17.9331C6.31678 17.9798 6.34143 18.0226 6.37498 18.0579C6.40852 18.0932 6.45001 18.1201 6.49598 18.1361C7.3861 18.211 8.27698 18.2769 9.16798 18.3181C9.23141 18.3039 9.28992 18.273 9.33747 18.2287C9.38503 18.1843 9.41994 18.1282 9.4386 18.0659C9.43583 17.1202 9.42998 16.173 9.37579 15.2273C9.2719 13.4143 9.14049 11.6018 9.01119 9.78945C8.96324 9.1173 8.95131 9.11793 8.26477 9.10341C8.20187 9.10343 8.13903 9.09949 8.07662 9.09163C7.41839 8.99415 6.79781 8.89656 6.23576 9.43252C5.82676 9.82253 5.71869 9.87236 5.91313 10.4925C6.06472 10.3625 6.23287 10.2532 6.41318 10.1675C6.58967 10.1391 6.76954 10.139 6.94608 10.167C6.85154 10.301 6.74532 10.4265 6.62868 10.5418C6.47039 10.6634 6.30357 10.7735 6.12951 10.8712C5.73003 11.1193 5.74556 11.4819 5.85933 11.9377C6.05065 11.8177 6.2522 11.7149 6.46163 11.6305C6.66619 11.5869 6.87442 11.5626 7.08353 11.5581C6.94558 11.7067 6.81135 11.8591 6.66734 12.0016C6.61624 12.0366 6.55976 12.063 6.50014 12.0798C5.677 12.4548 5.80798 12.4809 5.978 13.3805C6.23302 13.2768 6.49426 13.1891 6.76021 13.118C6.91373 13.1147 7.06665 13.1382 7.21211 13.1873C7.10728 13.3006 7.02361 13.4538 6.89348 13.5193C6.56682 13.6837 6.21914 13.8084 5.85694 13.9586C5.88362 14.2587 5.90869 14.5408 5.93499 14.8365L6.94613 14.419L7.03462 14.5791C6.8695 15.0415 6.34432 15.0677 5.98017 15.3481C6.01414 15.5687 6.05095 15.8077 6.09954 16.1232C6.23264 16.0055 6.38147 15.907 6.54174 15.8303C6.70624 15.8054 6.87326 15.802 7.03865 15.82C6.96614 15.9541 6.92502 16.1278 6.81445 16.214C6.58729 16.3717 6.34993 16.5142 6.10393 16.6405C6.13565 16.8323 6.16575 17.0143 6.2028 17.2384ZM10.0102 18.3079C10.7367 18.3868 10.7936 18.3358 10.7975 17.6856C10.8072 16.0605 10.8055 14.435 10.8209 12.8103C10.8317 11.6682 10.8705 10.5274 10.8744 9.38517C10.8748 9.26348 10.7337 9.04052 10.6428 9.02883C10.3473 8.98975 10.0474 8.99887 9.75489 9.05586C9.68472 9.08609 9.6236 9.13402 9.57753 9.19497C9.53145 9.25591 9.50199 9.32778 9.49203 9.40353C9.52739 10.3381 9.59563 11.2726 9.65663 12.207C9.70976 13.0211 9.77397 13.835 9.82028 14.6493C9.88938 15.8644 9.94705 17.0798 10.0102 18.3079ZM8.88301 6.80366C8.82589 6.77797 8.76592 6.75915 8.70436 6.74761C7.50381 6.75368 6.30236 6.74811 5.10422 6.78978C4.96011 6.7948 4.78317 7.03664 4.71448 7.20853C4.65124 7.36683 4.72781 7.58009 4.71713 7.76678C4.69665 8.12455 4.88088 8.21926 5.20631 8.24403C6.00234 8.30461 6.79641 8.41281 7.59246 8.47204C8.03411 8.5049 8.47813 8.47793 8.94148 8.47793L8.88301 6.80366ZM15.2712 6.68332C14.054 6.68332 12.8265 6.67771 11.6001 6.69547C11.515 6.69671 11.3717 6.86779 11.3694 6.96657C11.3587 7.41217 11.3892 7.86017 11.4064 8.35432C12.6181 8.27976 13.7679 8.21503 14.915 8.12695C15.0064 8.11993 15.1347 7.96215 15.1517 7.85612C15.2127 7.47758 15.2331 7.09115 15.2712 6.68332ZM9.38894 5.94163C9.53718 5.0966 9.1397 4.3908 8.61188 3.80883C8.32488 3.49236 7.8114 3.30288 7.37415 3.2183C6.86406 3.11965 6.48239 3.49255 6.52122 3.88159C6.55069 4.21548 6.65185 4.53908 6.81779 4.8303C6.98374 5.12152 7.21057 5.37351 7.48279 5.56907C7.75502 5.76462 8.06623 5.89914 8.39519 5.96343C8.72415 6.02773 9.06311 6.02029 9.38894 5.94163ZM10.5486 6.06666C10.9294 6.00811 11.3182 6.04272 11.5971 5.88774C12.433 5.44764 13.1115 4.75854 13.5386 3.91583C13.7218 3.54243 13.5203 3.18847 13.1086 3.08919C12.8601 3.02688 12.6006 3.02284 12.3503 3.07738C12.0999 3.13192 11.8656 3.24357 11.6655 3.40362C10.7945 4.05245 10.683 5.03772 10.5486 6.06666ZM10.0474 5.34248C10.0948 5.14993 10.153 4.96018 10.2216 4.77411C10.3852 4.31374 10.5864 3.8676 10.8232 3.44018C10.963 3.24472 11.0467 3.01476 11.0652 2.77516C11.0837 2.53556 11.0364 2.29546 10.9283 2.08083C10.7466 1.70993 10.145 1.53966 9.6196 1.64044C8.86595 1.78499 8.56925 2.62293 8.97135 3.27865C9.3781 3.94193 9.69532 4.65803 10.0474 5.34248ZM10.8129 6.72811C10.3725 6.72811 10.0151 6.7134 9.66192 6.7386C9.60805 6.75207 9.55866 6.77947 9.51872 6.81805C9.47878 6.85663 9.44968 6.90503 9.43435 6.9584C9.43062 7.46863 9.45904 7.98022 9.47821 8.52929C9.91669 8.49235 10.3043 8.47388 10.6844 8.41548C10.7586 8.40408 10.8531 8.23987 10.8539 8.14255C10.8573 7.69399 10.8309 7.24415 10.8129 6.72811Z" fill="#1C1E1C"/>
</svg>
