<svg width="124" height="39" viewBox="0 0 124 39" fill="none" xmlns="http://www.w3.org/2000/svg">
<path d="M109.68 27.498V31.3543" stroke="#5284C6" stroke-width="2.24" stroke-miterlimit="10" stroke-linecap="round"/>
<path d="M109.428 26.9375L112.694 30.2022" stroke="#5284C6" stroke-width="2.24" stroke-miterlimit="10" stroke-linecap="round"/>
<path d="M109.893 26.9375L106.627 30.2022" stroke="#5284C6" stroke-width="2.24" stroke-miterlimit="10" stroke-linecap="round"/>
<path d="M115.834 27.1719H103.559" stroke="#5284C6" stroke-width="2.24" stroke-miterlimit="10" stroke-linecap="round"/>
<path d="M63.1615 10.9727L64.9734 24.6138H63.0239L61.7395 14.3061L58.0332 21.3766L54.2534 14.2878L52.969 24.6138H51.0195L52.8498 10.9727H54.4277L58.0148 17.7359L61.5652 10.9727H63.1615Z" fill="#263238"/>
<path d="M103.459 17.5804C104.026 17.3843 104.513 17.0105 104.85 16.5147C105.186 16.0189 105.353 15.4277 105.326 14.8293C105.34 14.0644 105.087 13.3185 104.611 12.72C104.193 12.1601 103.595 11.7603 102.918 11.5875C101.932 11.4027 100.93 11.3243 99.9272 11.3536H93.8906V13.5912H95.519V22.3537H93.8906V24.5913H99.9318C101.032 24.6248 102.132 24.5107 103.202 24.252C103.957 24.0411 104.624 23.5944 105.106 22.9773C105.604 22.3341 105.865 21.5389 105.845 20.7259C105.841 19.2189 105.046 18.1704 103.459 17.5804ZM98.9593 13.6142H99.8125C100.371 13.5667 100.931 13.6796 101.427 13.9397C101.59 14.0723 101.716 14.243 101.797 14.4367C101.877 14.6304 101.907 14.8409 101.886 15.0494C101.913 15.2731 101.885 15.5001 101.805 15.7108C101.725 15.9216 101.596 16.11 101.427 16.2599C100.978 16.5231 100.46 16.6431 99.941 16.6038H98.9731L98.9593 13.6142ZM101.776 21.996C101.214 22.2978 100.577 22.43 99.941 22.3766H98.9731V18.8368H99.941C100.57 18.7909 101.199 18.9313 101.748 19.2403C101.95 19.412 102.107 19.6304 102.206 19.8765C102.304 20.1226 102.341 20.389 102.312 20.6525C102.339 20.9032 102.304 21.1565 102.21 21.3905C102.117 21.6245 101.968 21.8324 101.776 21.996V21.996Z" fill="#263238"/>
<path d="M110.862 26.131C111.012 26.2792 111.13 26.4566 111.209 26.6521C111.288 26.8477 111.326 27.0573 111.321 27.2681C111.325 27.4788 111.286 27.6881 111.208 27.8835C111.129 28.079 111.011 28.2564 110.862 28.4053C110.712 28.5572 110.534 28.6779 110.337 28.7603C110.14 28.8426 109.929 28.885 109.715 28.885C109.502 28.885 109.291 28.8426 109.094 28.7603C108.897 28.6779 108.718 28.5572 108.568 28.4053C108.419 28.2564 108.302 28.079 108.223 27.8835C108.144 27.6881 108.106 27.4788 108.11 27.2681C108.105 27.0581 108.143 26.8492 108.222 26.6545C108.301 26.4597 108.419 26.2831 108.568 26.1356C108.717 25.9875 108.894 25.8706 109.089 25.7918C109.283 25.7131 109.492 25.6741 109.701 25.6771C109.916 25.6684 110.13 25.7042 110.329 25.7823C110.529 25.8605 110.711 25.9792 110.862 26.131V26.131Z" fill="#263238"/>
<path d="M106.797 15.416H112.508V17.539H111.141V24.6278H106.797V22.5048H108.201V17.539H106.797V15.416Z" fill="#263238"/>
<path d="M122.89 16.5151C122.548 16.0837 122.109 15.7378 121.61 15.5046C121.111 15.2714 120.565 15.1574 120.014 15.1716C119.51 15.1748 119.013 15.291 118.559 15.5116C118.106 15.7322 117.708 16.0516 117.395 16.4463V11.375H112.854V13.498H114.454V22.4897H112.854V24.6127H117.395V23.5489C117.736 23.9235 118.152 24.2233 118.616 24.4293C119.079 24.6353 119.58 24.743 120.087 24.7456C120.621 24.7572 121.15 24.6482 121.635 24.4266C122.12 24.2051 122.549 23.8769 122.89 23.4663C123.612 22.4512 124 21.2364 124 19.9907C124 18.745 123.612 17.5303 122.89 16.5151V16.5151ZM120.468 21.8386C120.313 22.0342 120.117 22.1923 119.892 22.3009C119.668 22.4096 119.422 22.4661 119.172 22.4661C118.923 22.4661 118.677 22.4096 118.452 22.3009C118.228 22.1923 118.031 22.0342 117.876 21.8386C117.54 21.2844 117.366 20.6478 117.371 19.9999C117.377 19.352 117.563 18.7185 117.908 18.1704C118.07 17.9836 118.27 17.8341 118.495 17.732C118.72 17.6298 118.964 17.5776 119.211 17.5789C119.457 17.5697 119.701 17.6185 119.924 17.7212C120.147 17.824 120.343 17.9779 120.496 18.1704C120.858 18.6898 121.029 19.3182 120.982 19.9494C121.031 20.6193 120.85 21.2857 120.468 21.8386V21.8386Z" fill="#263238"/>
<path d="M83.4547 23.1872C83.2877 23.024 83.1809 22.809 83.152 22.5774C83.098 22.1854 83.075 21.7899 83.0831 21.3944V19.4502C83.1143 18.5286 82.9998 17.6079 82.7437 16.722C82.5706 16.1323 82.1892 15.6256 81.6703 15.296C81.0661 14.9846 80.3907 14.8375 79.7117 14.8695C79.1035 14.8678 78.4987 14.959 77.9181 15.1401C77.3927 15.2997 76.8991 15.5495 76.4594 15.8783L76.7163 17.2997C77.1133 17.0095 77.5527 16.7822 78.019 16.6257C78.4113 16.5047 78.8195 16.4429 79.23 16.4423C79.7977 16.3927 80.3634 16.5562 80.8171 16.9008C81.1474 17.2034 81.3125 17.7858 81.3125 18.6432C79.9385 18.6391 78.5783 18.9185 77.3172 19.464C76.7957 19.6616 76.3495 20.018 76.0416 20.4828C75.7338 20.9477 75.5799 21.4976 75.6016 22.0546C75.5899 22.424 75.6562 22.7917 75.7961 23.1338C75.936 23.4759 76.1464 23.7846 76.4135 24.0401C76.699 24.3057 77.0349 24.5116 77.4012 24.6454C77.7675 24.7793 78.157 24.8385 78.5465 24.8196C79.1079 24.8212 79.6624 24.6959 80.1684 24.4529C80.6745 24.2099 81.1189 23.8556 81.4685 23.4165C81.5834 23.7025 81.7378 23.9711 81.9272 24.2143C82.1153 24.4322 82.3621 24.5913 82.6382 24.6728C83.0571 24.7915 83.492 24.8441 83.9272 24.8287H84.0648L84.3354 23.4256H84.1611C83.904 23.4383 83.6515 23.3531 83.4547 23.1872ZM81.3263 22.1188C81.0397 22.5009 80.6714 22.8142 80.2483 23.0359C79.8266 23.2668 79.3531 23.3868 78.8722 23.3844C78.4792 23.4055 78.0927 23.2778 77.7897 23.0267C77.6486 22.8823 77.54 22.7094 77.4711 22.5196C77.4023 22.3298 77.3748 22.1275 77.3906 21.9263C77.3734 21.6062 77.4513 21.2883 77.6146 21.0125C77.7778 20.7367 78.0191 20.5154 78.308 20.3764C78.9135 20.0555 79.9135 19.8721 81.3171 19.8216L81.3263 22.1188Z" fill="#263238"/>
<path d="M89.2793 19.5053L93.1783 24.6132H91.0361L87.4261 19.762V24.6132H85.6738V10H87.4261V19.3723L90.9352 15.0621H93.0819L89.2793 19.5053Z" fill="#263238"/>
<path d="M74.0977 23.1874C73.9307 23.0242 73.8239 22.8092 73.795 22.5775C73.7341 22.1816 73.7049 21.7814 73.7078 21.3808V19.4366C73.739 18.515 73.6244 17.5943 73.3683 16.7084C73.1952 16.1188 72.8138 15.612 72.295 15.2824C71.6909 14.9706 71.0153 14.8235 70.3363 14.856C69.7281 14.8542 69.1233 14.9454 68.5428 15.1265C68.0246 15.2835 67.5373 15.5285 67.1024 15.851L67.3547 17.2724C67.7542 16.9869 68.1951 16.7642 68.662 16.6121C69.0526 16.4905 69.4593 16.4287 69.8684 16.4287C70.4361 16.3792 71.0018 16.5426 71.4555 16.8872C71.7904 17.1899 71.9555 17.7722 71.9555 18.6296C70.5813 18.6245 69.221 18.9039 67.9602 19.4504C67.5348 19.6293 67.1598 19.9097 66.8678 20.2669C66.5758 20.6242 66.3758 21.0475 66.2853 21.4999C66.1948 21.9523 66.2165 22.4199 66.3486 22.8619C66.4806 23.304 66.719 23.707 67.0428 24.0357C67.3286 24.3009 67.6644 24.5065 68.0307 24.6403C68.3969 24.7741 68.7862 24.8336 69.1758 24.8152C69.7378 24.8169 70.293 24.6915 70.7998 24.4486C71.3065 24.2056 71.7518 23.8513 72.1023 23.4121C72.2136 23.6998 72.3683 23.9689 72.561 24.2099C72.7482 24.4288 72.9954 24.5882 73.272 24.6684C73.6894 24.7871 74.1228 24.8397 74.5564 24.8243H74.694L74.9647 23.4212H74.7903C74.5385 23.4317 74.2917 23.3484 74.0977 23.1874ZM71.9739 22.119C71.686 22.5016 71.3161 22.8149 70.8913 23.0361C70.4699 23.2678 69.9962 23.3877 69.5152 23.3846C69.1221 23.4066 68.7352 23.2788 68.4327 23.0269C68.2916 22.8825 68.183 22.7096 68.1141 22.5198C68.0453 22.33 68.0178 22.1277 68.0336 21.9264C68.0158 21.6063 68.0934 21.2881 68.2568 21.0122C68.4201 20.7363 68.6617 20.5151 68.951 20.3766C69.5626 20.0709 70.5672 19.886 71.9647 19.8218L71.9739 22.119Z" fill="#263238"/>
<path d="M37.1953 25.1471L39.7525 24.8105" stroke="#263238" stroke-width="2.2405" stroke-miterlimit="10" stroke-linecap="round"/>
<path d="M35.6055 13.0807L38.1649 12.7441" stroke="#263238" stroke-width="2.2405" stroke-miterlimit="10" stroke-linecap="round"/>
<path d="M35.209 10.065L37.7661 9.72852" stroke="#263238" stroke-width="2.2405" stroke-miterlimit="10" stroke-linecap="round"/>
<path d="M36.4004 19.1139L38.9575 18.7773" stroke="#263238" stroke-width="2.2405" stroke-miterlimit="10" stroke-linecap="round"/>
<path d="M36.7969 22.1314L39.354 21.7949" stroke="#263238" stroke-width="2.2405" stroke-miterlimit="10" stroke-linecap="round"/>
<path d="M36.0039 16.0986L38.5611 15.7598" stroke="#263238" stroke-width="2.2405" stroke-miterlimit="10" stroke-linecap="round"/>
<path d="M4.55715 14.0996L2 14.4361" stroke="#263238" stroke-width="2.2405" stroke-miterlimit="10" stroke-linecap="round"/>
<path d="M6.14504 26.166L3.58789 26.5025" stroke="#263238" stroke-width="2.2405" stroke-miterlimit="10" stroke-linecap="round"/>
<path d="M6.54383 29.1816L3.98438 29.5182" stroke="#263238" stroke-width="2.2405" stroke-miterlimit="10" stroke-linecap="round"/>
<path d="M5.35207 20.1328L2.79492 20.4693" stroke="#263238" stroke-width="2.2405" stroke-miterlimit="10" stroke-linecap="round"/>
<path d="M4.95363 17.1152L2.39648 17.4518" stroke="#263238" stroke-width="2.2405" stroke-miterlimit="10" stroke-linecap="round"/>
<path d="M5.74856 23.1484L3.19141 23.485" stroke="#263238" stroke-width="2.2405" stroke-miterlimit="10" stroke-linecap="round"/>
<path d="M10.4766 34.4336L10.8131 36.9897" stroke="#263238" stroke-width="2.2405" stroke-miterlimit="10" stroke-linecap="round"/>
<path d="M22.5449 32.8438L22.8814 35.3999" stroke="#263238" stroke-width="2.2405" stroke-miterlimit="10" stroke-linecap="round"/>
<path d="M25.5645 32.4453L25.901 35.0038" stroke="#263238" stroke-width="2.2405" stroke-miterlimit="10" stroke-linecap="round"/>
<path d="M16.5117 33.6387L16.8482 36.1971" stroke="#263238" stroke-width="2.2405" stroke-miterlimit="10" stroke-linecap="round"/>
<path d="M13.4922 34.0352L13.8287 36.5913" stroke="#263238" stroke-width="2.2405" stroke-miterlimit="10" stroke-linecap="round"/>
<path d="M19.5293 33.2422L19.8658 35.7983" stroke="#263238" stroke-width="2.2405" stroke-miterlimit="10" stroke-linecap="round"/>
<path d="M30.4459 4.6577L30.1094 2.10156" stroke="#263238" stroke-width="2.2405" stroke-miterlimit="10" stroke-linecap="round"/>
<path d="M18.3736 6.24559L18.0371 3.68945" stroke="#263238" stroke-width="2.2405" stroke-miterlimit="10" stroke-linecap="round"/>
<path d="M15.356 6.64208L15.0195 4.08594" stroke="#263238" stroke-width="2.2405" stroke-miterlimit="10" stroke-linecap="round"/>
<path d="M24.4068 5.45263L24.0703 2.89648" stroke="#263238" stroke-width="2.2405" stroke-miterlimit="10" stroke-linecap="round"/>
<path d="M27.4264 5.05419L27.0898 2.49805" stroke="#263238" stroke-width="2.2405" stroke-miterlimit="10" stroke-linecap="round"/>
<path d="M21.3893 5.84751L21.0527 3.28906" stroke="#263238" stroke-width="2.2405" stroke-miterlimit="10" stroke-linecap="round"/>
<path d="M3.79944 7.64472C3.79944 7.64472 3.92626 7.5456 4.00697 7.47646L10.7515 2L11.3325 6.34936L33.1755 3.47514C34.2639 3.33224 35.2508 3.98683 35.373 4.94106L35.9171 9.07606L37.718 22.8433L38.6403 29.7856C38.7671 30.7376 37.9486 31.2977 37.4367 31.6987L30.2771 37L29.703 32.7106L8.53097 35.4995C7.44263 35.6424 6.45574 34.9855 6.33353 34.0336L3.06158 9.19361C3.03428 8.89302 3.08838 8.59061 3.2182 8.3181C3.34802 8.04559 3.54878 7.813 3.79944 7.64472Z" fill="#5284C6"/>
<path d="M27.4412 11.5434C27.4349 11.5197 27.4248 11.4971 27.4113 11.4766C27.4191 11.5169 27.4179 11.5584 27.408 11.5982C27.398 11.638 27.3795 11.6752 27.3536 11.7071L26.8281 12.3709L27.6049 12.1657L27.4412 11.5434Z" fill="white"/>
<path d="M31.1067 25.4579L30.3389 22.5192L28.9554 22.8857C28.935 22.8912 28.9136 22.8927 28.8927 22.8899C28.8717 22.8871 28.8514 22.8802 28.8332 22.8695C28.7966 22.8474 28.7701 22.8118 28.7594 22.7704C28.7538 22.7503 28.7524 22.7292 28.7551 22.7085C28.7578 22.6878 28.7646 22.6679 28.7751 22.6498C28.7857 22.6318 28.7997 22.616 28.8164 22.6035C28.8331 22.591 28.8521 22.5819 28.8724 22.5768L30.2559 22.2103L30.1337 21.7493L29.3105 21.9637C29.2692 21.9747 29.2253 21.9689 29.1883 21.9476C29.1523 21.9258 29.1259 21.8912 29.1145 21.8507C29.1046 21.8095 29.111 21.7661 29.1326 21.7295C29.1541 21.693 29.1889 21.6662 29.2298 21.6548L30.0529 21.4382L29.9307 20.9772L29.1076 21.1938C29.0871 21.1994 29.0658 21.2009 29.0448 21.1981C29.0239 21.1953 29.0036 21.1884 28.9854 21.1777C28.9494 21.156 28.923 21.1214 28.9116 21.0809C28.906 21.0605 28.9046 21.0391 28.9075 21.0182C28.9103 20.9972 28.9173 20.977 28.928 20.9587C28.9388 20.9405 28.953 20.9246 28.97 20.9119C28.987 20.8992 29.0063 20.8901 29.0269 20.885L29.8477 20.6683L29.7255 20.2074L28.9024 20.424C28.8822 20.4292 28.8611 20.4302 28.8405 20.427C28.8199 20.4239 28.8002 20.4166 28.7824 20.4056C28.7641 20.3954 28.7481 20.3815 28.7354 20.3649C28.7228 20.3482 28.7136 20.3291 28.7087 20.3088C28.7031 20.2885 28.7016 20.2673 28.7043 20.2464C28.707 20.2256 28.7137 20.2055 28.7242 20.1872C28.7348 20.169 28.7488 20.1531 28.7655 20.1403C28.7822 20.1275 28.8013 20.1182 28.8216 20.1128L29.6448 19.8985L29.5226 19.4375L28.6994 19.6542C28.6794 19.6597 28.6584 19.6611 28.6378 19.6583C28.6172 19.6556 28.5974 19.6487 28.5795 19.638C28.5611 19.628 28.5451 19.6141 28.5324 19.5975C28.5197 19.5808 28.5106 19.5616 28.5057 19.5412C28.5002 19.5209 28.4987 19.4998 28.5014 19.4789C28.504 19.458 28.5108 19.4379 28.5213 19.4197C28.5318 19.4015 28.5459 19.3855 28.5626 19.3728C28.5793 19.36 28.5984 19.3507 28.6187 19.3453L29.4419 19.1287L29.3197 18.6677L27.9362 19.0318C27.9162 19.0374 27.8952 19.0388 27.8746 19.036C27.854 19.0332 27.8342 19.0263 27.8163 19.0157C27.7976 19.006 27.7813 18.9923 27.7686 18.9756C27.7558 18.9588 27.7469 18.9395 27.7425 18.9189C27.737 18.8988 27.7355 18.8777 27.7382 18.857C27.7409 18.8363 27.7477 18.8164 27.7583 18.7983C27.7688 18.7803 27.7828 18.7645 27.7995 18.752C27.8162 18.7395 27.8352 18.7304 27.8555 18.7253L29.239 18.3588L29.1168 17.8978L28.2936 18.1145C28.2732 18.1201 28.2519 18.1215 28.2309 18.1187C28.2099 18.116 28.1897 18.109 28.1714 18.0984C28.1354 18.0766 28.1091 18.042 28.0976 18.0016C28.0921 17.9811 28.0907 17.9598 28.0935 17.9388C28.0963 17.9178 28.1033 17.8976 28.1141 17.8794C28.1248 17.8611 28.1391 17.8452 28.156 17.8325C28.173 17.8199 28.1924 17.8107 28.2129 17.8056L29.0338 17.589L28.9116 17.128L28.0884 17.3447C28.0684 17.3502 28.0474 17.3516 28.0268 17.3488C28.0062 17.346 27.9864 17.3391 27.9685 17.3285C27.9319 17.3064 27.9054 17.2708 27.8947 17.2294C27.8892 17.2093 27.8877 17.1882 27.8904 17.1675C27.8931 17.1468 27.8999 17.1269 27.9104 17.1088C27.921 17.0908 27.935 17.075 27.9517 17.0625C27.9684 17.05 27.9874 17.0409 28.0077 17.0358L28.8309 16.8191L28.7087 16.3582L27.8855 16.5748C27.8654 16.5803 27.8445 16.5817 27.8239 16.579C27.8033 16.5762 27.7835 16.5693 27.7656 16.5587C27.7472 16.5486 27.7311 16.5348 27.7184 16.5181C27.7057 16.5014 27.6966 16.4823 27.6918 16.4619C27.6862 16.4416 27.6847 16.4204 27.6874 16.3996C27.6901 16.3787 27.6969 16.3586 27.7074 16.3403C27.7179 16.3221 27.7319 16.3062 27.7486 16.2934C27.7653 16.2806 27.7844 16.2713 27.8048 16.266L28.628 16.0493L28.5057 15.5883L27.6826 15.805C27.6413 15.816 27.5974 15.8102 27.5604 15.7888C27.5238 15.7667 27.4973 15.7311 27.4866 15.6897C27.4767 15.6488 27.4833 15.6057 27.5048 15.5695C27.5264 15.5333 27.5612 15.507 27.6019 15.4961L28.425 15.2795L28.3028 14.8185L26.9193 15.1827C26.8781 15.1936 26.8341 15.1878 26.7971 15.1665C26.7612 15.1448 26.7348 15.1102 26.7234 15.0697C26.7134 15.0285 26.7199 14.985 26.7414 14.9485C26.7629 14.9119 26.7978 14.8852 26.8386 14.8738L28.2221 14.5073L28.1022 14.0463L27.2791 14.263C27.2586 14.2686 27.2373 14.27 27.2163 14.2672C27.1953 14.2645 27.1751 14.2575 27.1568 14.2469C27.1209 14.2251 27.0945 14.1905 27.0831 14.1501C27.0775 14.1298 27.076 14.1086 27.0787 14.0877C27.0814 14.0669 27.0881 14.0467 27.0986 14.0285C27.1092 14.0103 27.1232 13.9943 27.1399 13.9816C27.1566 13.9688 27.1757 13.9595 27.196 13.9541L28.0192 13.7375L27.897 13.2765L27.0738 13.4909C27.0538 13.4964 27.0328 13.4978 27.0122 13.495C26.9916 13.4922 26.9718 13.4853 26.9539 13.4747C26.9353 13.465 26.919 13.4513 26.9062 13.4346C26.8935 13.4178 26.8846 13.3985 26.8801 13.3779C26.8746 13.3576 26.8731 13.3364 26.8758 13.3156C26.8784 13.2947 26.8852 13.2746 26.8957 13.2564C26.9062 13.2382 26.9203 13.2222 26.937 13.2094C26.9537 13.1967 26.9728 13.1873 26.9931 13.182L27.8163 12.9653L27.6941 12.5044L26.8709 12.721C26.8509 12.7265 26.8299 12.7279 26.8093 12.7252C26.7887 12.7224 26.7689 12.7155 26.751 12.7049C26.7139 12.6839 26.6865 12.6491 26.6749 12.6081V12.6081C26.6663 12.5675 26.6735 12.5252 26.6949 12.4897C26.7163 12.4542 26.7503 12.4281 26.7902 12.4168L26.8363 12.4052L27.3621 11.7414C27.3879 11.7095 27.4065 11.6724 27.4164 11.6326C27.4264 11.5927 27.4275 11.5512 27.4197 11.5109C27.4072 11.4402 27.3696 11.3763 27.3136 11.3312L25.7918 10.1257C25.7314 10.0787 25.6549 10.0574 25.5789 10.0665C25.503 10.0756 25.4336 10.1142 25.386 10.1741L20.3132 16.5633L14.0345 11.5524C13.9732 11.5045 13.8954 11.4826 13.8181 11.4917C13.7408 11.5008 13.6702 11.54 13.6217 11.6008L12.4227 13.1152C12.3906 13.1546 12.3697 13.202 12.3624 13.2523C12.3551 13.3027 12.3616 13.354 12.3812 13.401C12.3981 13.4511 12.4293 13.4952 12.4711 13.5277L13.2943 14.18C13.3164 14.1941 13.3345 14.2135 13.347 14.2365C13.3595 14.2595 13.366 14.2852 13.3658 14.3114C13.3664 14.3326 13.3627 14.3536 13.355 14.3733C13.3472 14.393 13.3356 14.411 13.3207 14.4261C13.3058 14.4411 13.2881 14.453 13.2685 14.4611C13.2489 14.4691 13.2278 14.4731 13.2067 14.4727H12.3558V14.9522H13.2067C13.2385 14.9515 13.2697 14.9604 13.2964 14.9777C13.3232 14.995 13.3441 15.0198 13.3565 15.0491C13.3689 15.0784 13.3722 15.1107 13.3661 15.1419C13.3599 15.1731 13.3446 15.2018 13.322 15.2241C13.3073 15.2393 13.2897 15.2514 13.2703 15.2597C13.2509 15.268 13.2301 15.2724 13.209 15.2725H12.3581V15.752H13.209C13.2512 15.752 13.2916 15.7687 13.3215 15.7985C13.3513 15.8284 13.3681 15.8688 13.3681 15.911C13.3686 15.932 13.3648 15.9529 13.3568 15.9723C13.3489 15.9917 13.337 16.0093 13.322 16.0239C13.3074 16.0393 13.2899 16.0515 13.2705 16.0599C13.2511 16.0682 13.2301 16.0724 13.209 16.0723H12.3581V16.5518H13.797C13.818 16.5515 13.839 16.5553 13.8586 16.5632C13.8781 16.5711 13.8959 16.5827 13.911 16.5975C13.926 16.6123 13.9379 16.63 13.946 16.6494C13.9542 16.6689 13.9584 16.6897 13.9584 16.7108C13.9579 16.7529 13.9414 16.7933 13.9122 16.8237C13.882 16.8535 13.8417 16.8708 13.7993 16.8721H12.3604V17.3539H13.2113C13.2535 17.3539 13.2939 17.3706 13.3238 17.4005C13.3536 17.4303 13.3704 17.4707 13.3704 17.5129C13.3712 17.5339 13.3675 17.5549 13.3595 17.5744C13.3516 17.5939 13.3396 17.6114 13.3243 17.6259C13.3098 17.6413 13.2923 17.6536 13.2729 17.662C13.2534 17.6703 13.2324 17.6745 13.2113 17.6743H12.3535V18.1537H13.2044C13.2254 18.1534 13.2464 18.1573 13.266 18.1651C13.2855 18.173 13.3033 18.1846 13.3184 18.1994C13.3334 18.2142 13.3453 18.2319 13.3534 18.2513C13.3616 18.2708 13.3658 18.2916 13.3658 18.3127C13.3653 18.3549 13.3488 18.3952 13.3197 18.4257C13.3049 18.4405 13.2872 18.4522 13.2678 18.4601C13.2484 18.4681 13.2276 18.472 13.2067 18.4718H12.3558V18.9512H13.2067C13.2278 18.9509 13.2487 18.9548 13.2683 18.9626C13.2878 18.9705 13.3056 18.9821 13.3207 18.9969C13.3357 19.0117 13.3476 19.0294 13.3557 19.0488C13.3639 19.0683 13.3681 19.0891 13.3681 19.1102C13.3684 19.1312 13.3645 19.152 13.3566 19.1714C13.3487 19.1909 13.337 19.2085 13.3222 19.2234C13.3073 19.2382 13.2897 19.2499 13.2702 19.2578C13.2508 19.2657 13.23 19.2696 13.209 19.2693H12.3581V19.7487H13.209C13.2406 19.7485 13.2715 19.7577 13.2979 19.7752C13.3242 19.7926 13.3448 19.8175 13.3569 19.8467C13.369 19.8759 13.3722 19.908 13.3659 19.939C13.3597 19.97 13.3444 19.9984 13.322 20.0207C13.2918 20.0502 13.2512 20.0668 13.209 20.0668H12.3581V20.5462H13.797C13.818 20.5459 13.839 20.5498 13.8586 20.5576C13.8781 20.5655 13.8959 20.5771 13.911 20.5919C13.926 20.6067 13.9379 20.6244 13.946 20.6438C13.9542 20.6633 13.9584 20.6841 13.9584 20.7052C13.9584 20.7474 13.9418 20.788 13.9122 20.8181C13.8976 20.8333 13.88 20.8454 13.8606 20.8537C13.8412 20.862 13.8204 20.8664 13.7993 20.8666H12.3604V21.346H13.2113C13.2535 21.346 13.2939 21.3627 13.3238 21.3926C13.3536 21.4224 13.3704 21.4628 13.3704 21.505C13.3709 21.526 13.3671 21.5469 13.3591 21.5663C13.3512 21.5857 13.3393 21.6033 13.3243 21.618C13.3097 21.6333 13.2922 21.6455 13.2728 21.6539C13.2534 21.6622 13.2324 21.6664 13.2113 21.6664H12.3604V22.1458H13.2113C13.2324 22.1455 13.2533 22.1494 13.2729 22.1572C13.2924 22.1651 13.3103 22.1767 13.3253 22.1915C13.3403 22.2063 13.3522 22.224 13.3604 22.2434C13.3685 22.2629 13.3727 22.2837 13.3727 22.3048C13.3727 22.347 13.3561 22.3876 13.3266 22.4178C13.3119 22.4329 13.2943 22.445 13.2749 22.4533C13.2555 22.4616 13.2347 22.466 13.2136 22.4662H12.3627V22.9479H13.2136C13.2558 22.9485 13.2962 22.9653 13.3263 22.995C13.3564 23.0246 13.3738 23.0647 13.375 23.1069C13.3748 23.128 13.3704 23.1489 13.3621 23.1683C13.3538 23.1876 13.3417 23.2052 13.3266 23.2199C13.3121 23.2353 13.2946 23.2476 13.2752 23.256C13.2557 23.2643 13.2348 23.2685 13.2136 23.2683H12.3627V23.7477H13.2136C13.2347 23.7474 13.2556 23.7513 13.2752 23.7591C13.2947 23.767 13.3126 23.7786 13.3276 23.7934C13.3426 23.8082 13.3545 23.8259 13.3627 23.8453C13.3708 23.8648 13.375 23.8856 13.375 23.9067C13.3752 23.9277 13.3713 23.9485 13.3634 23.9679C13.3555 23.9873 13.3437 24.0049 13.3289 24.0197C13.3142 24.0347 13.2967 24.0466 13.2772 24.0545C13.2578 24.0625 13.2369 24.0663 13.2159 24.0658H12.365V24.5452H13.8039C13.825 24.5449 13.8459 24.5488 13.8655 24.5566C13.885 24.5645 13.9028 24.5761 13.9179 24.5909C13.9329 24.6057 13.9448 24.6234 13.953 24.6428C13.9611 24.6623 13.9653 24.6831 13.9653 24.7042C13.9659 24.7254 13.9622 24.7465 13.9545 24.7662C13.9467 24.7859 13.9351 24.8038 13.9202 24.8189C13.9053 24.834 13.8876 24.8459 13.868 24.8539C13.8484 24.8619 13.8274 24.8659 13.8062 24.8656H12.3673V27.9034C12.369 27.9666 12.3945 28.0267 12.4388 28.0717C12.4608 28.0947 12.4873 28.113 12.5167 28.1253C12.546 28.1376 12.5776 28.1437 12.6095 28.1431L15.0098 28.1316C15.071 28.1316 15.1296 28.1073 15.1729 28.0641C15.2161 28.0209 15.2404 27.9623 15.2404 27.9011L15.1851 15.7128L20.4492 19.8801C20.5105 19.928 20.5883 19.9498 20.6656 19.9408C20.7429 19.9317 20.8135 19.8925 20.862 19.8316L21.1779 19.4329L22.061 18.3173L25.1692 14.399L28.2729 26.1909C28.2802 26.2218 28.2938 26.2508 28.3128 26.2762C28.3318 26.3016 28.3559 26.3228 28.3835 26.3384C28.4107 26.3545 28.4409 26.3649 28.4722 26.3688C28.5036 26.3728 28.5354 26.3703 28.5657 26.3615L30.8853 25.753C30.947 25.7365 30.9999 25.6969 31.0329 25.6423C31.0582 25.619 31.0779 25.5904 31.0907 25.5585C31.1035 25.5266 31.1089 25.4922 31.1067 25.4579ZM13.8431 26.7533C13.7556 26.7535 13.6701 26.7278 13.5972 26.6795C13.5244 26.6312 13.4674 26.5624 13.4336 26.4817C13.3999 26.4011 13.3907 26.3123 13.4074 26.2265C13.424 26.1407 13.4657 26.0617 13.5272 25.9996C13.5784 25.9478 13.6416 25.9094 13.7113 25.8879C13.7809 25.8664 13.8547 25.8624 13.9262 25.8763C13.9978 25.8902 14.0648 25.9215 14.1213 25.9674C14.1778 26.0134 14.2221 26.0726 14.2503 26.1397C14.2785 26.2069 14.2896 26.28 14.2827 26.3525C14.2758 26.425 14.2512 26.4947 14.2109 26.5554C14.1706 26.6161 14.1159 26.6659 14.0518 26.7004C13.9876 26.7349 13.9159 26.7531 13.8431 26.7533ZM29.6886 24.4991C29.6598 24.5496 29.621 24.5939 29.5746 24.6291C29.5283 24.6644 29.4753 24.6899 29.4189 24.7042C29.3057 24.729 29.1873 24.7102 29.0874 24.6517C28.9874 24.5932 28.9131 24.4992 28.8793 24.3885C28.8644 24.3325 28.8608 24.2741 28.8687 24.2167C28.8766 24.1593 28.8959 24.1041 28.9254 24.0542C28.954 24.0034 28.9926 23.959 29.039 23.9237C29.0854 23.8885 29.1386 23.8631 29.1952 23.8491C29.2512 23.8342 29.3096 23.8306 29.367 23.8385C29.4244 23.8464 29.4797 23.8657 29.5295 23.8952C29.5804 23.9237 29.6248 23.9624 29.6601 24.0088C29.6954 24.0552 29.7208 24.1083 29.7347 24.1649C29.7497 24.2208 29.7533 24.2792 29.7454 24.3366C29.7375 24.394 29.7182 24.4492 29.6886 24.4991V24.4991Z" fill="white"/>
</svg>
