<svg width="48" height="48" viewBox="0 0 48 48" fill="none" xmlns="http://www.w3.org/2000/svg">
<path fill-rule="evenodd" clip-rule="evenodd" d="M24 4C12.96 4 4 12.96 4 24C4 35.04 12.96 44 24 44C35.04 44 44 35.04 44 24C44 12.96 35.04 4 24 4ZM33.08 31.7L31.7 33.08C30.92 33.86 29.66 33.86 28.88 33.08L22.78 26.98C20.34 27.84 17.5 27.32 15.54 25.36C13.32 23.14 12.94 19.78 14.36 17.16L19.06 21.86L21.88 19.04L17.16 14.34C19.8 12.92 23.14 13.3 25.36 15.52C27.32 17.48 27.84 20.32 26.98 22.76L33.08 28.86C33.86 29.64 33.86 30.92 33.08 31.7Z" fill="white"/>
</svg>
