<svg width="44" height="44" viewBox="0 0 44 44" fill="none" xmlns="http://www.w3.org/2000/svg">
<path d="M39.6 8.8H30.8V4.4C30.8 1.98 28.82 0 26.4 0H17.6C15.18 0 13.2 1.98 13.2 4.4V8.8H4.4C1.98 8.8 0 10.78 0 13.2V39.6C0 42.02 1.98 44 4.4 44H39.6C42.02 44 44 42.02 44 39.6V13.2C44 10.78 42.02 8.8 39.6 8.8ZM17.6 4.4H26.4V8.8H17.6V4.4ZM28.6 28.6H24.2V33C24.2 34.21 23.21 35.2 22 35.2C20.79 35.2 19.8 34.21 19.8 33V28.6H15.4C14.19 28.6 13.2 27.61 13.2 26.4C13.2 25.19 14.19 24.2 15.4 24.2H19.8V19.8C19.8 18.59 20.79 17.6 22 17.6C23.21 17.6 24.2 18.59 24.2 19.8V24.2H28.6C29.81 24.2 30.8 25.19 30.8 26.4C30.8 27.61 29.81 28.6 28.6 28.6Z" fill="white"/>
</svg>
