<svg width="38" height="44" viewBox="0 0 38 44" fill="none" xmlns="http://www.w3.org/2000/svg">
<path d="M9.82541 28.5984L9.05749 28.1112L9.05753 29.0206L9.05776 34.0379C9.05779 34.847 9.44934 35.606 10.1086 36.0749L17.0377 41.0041C17.9052 41.6213 19.0684 41.6213 19.936 41.0041L26.8652 36.075C27.5245 35.606 27.916 34.8469 27.916 34.0378V29.0192L27.916 28.1029L27.1455 28.5988L19.3527 33.6134C18.8612 33.9296 18.2308 33.9316 17.7373 33.6185L9.82541 28.5984Z" fill="white" stroke="white"/>
<path d="M33.4975 15.6889L32.7461 15.2517V16.1211V32.5575C32.7461 33.7907 33.7458 34.7905 34.9791 34.7905C36.2157 34.7905 37.2168 33.7855 37.212 32.5489L37.156 18.103L37.1549 17.8167L36.9075 17.6728L33.4975 15.6889Z" fill="white" stroke="white"/>
<path d="M35.6634 17.5997L36.2519 17.1895L35.6634 16.7793L19.6182 5.5965C18.7592 4.99785 17.6182 4.99785 16.7593 5.5965L1.89124 15.9588C1.0348 16.5557 1.0348 17.8232 1.89124 18.4201L16.7593 28.7824C17.6182 29.3811 18.7592 29.3811 19.6182 28.7824L35.6634 17.5997Z" fill="white" stroke="white"/>
</svg>
