<svg width="25" height="25" viewBox="0 0 25 25" fill="none" xmlns="http://www.w3.org/2000/svg">
<path fill-rule="evenodd" clip-rule="evenodd" d="M12.1681 0.428781C12.4687 0.151344 12.932 0.151344 13.2326 0.428781L15.6175 2.63004C15.7894 2.78864 16.023 2.86234 16.2547 2.83107L19.54 2.38773C19.9551 2.33171 20.341 2.61156 20.4167 3.0235L20.9776 6.07406C21.0219 6.3151 21.1763 6.5216 21.3949 6.63229L24.2632 8.08424C24.6512 8.28066 24.8055 8.75516 24.6072 9.1422L23.2018 11.8852C23.0867 12.1098 23.0867 12.3761 23.2018 12.6008L24.6072 15.3438C24.8055 15.7308 24.6512 16.2053 24.2632 16.4017L21.3949 17.8537C21.1763 17.9644 21.0219 18.1709 20.9776 18.4119L20.4167 21.4625C20.341 21.8744 19.9551 22.1542 19.54 22.0982L16.2547 21.6549C16.023 21.6236 15.7894 21.6973 15.6175 21.8559L13.2326 24.0572C12.932 24.3346 12.4687 24.3346 12.1681 24.0572L9.78318 21.8559C9.61135 21.6973 9.37774 21.6236 9.14601 21.6549L5.86075 22.0982C5.44567 22.1542 5.05976 21.8744 4.98402 21.4625L4.42316 18.4119C4.37884 18.1709 4.22445 17.9644 4.00578 17.8537L1.13751 16.4017C0.749505 16.2053 0.595229 15.7308 0.793532 15.3438L2.1989 12.6008C2.31401 12.3761 2.31401 12.1098 2.1989 11.8852L0.793532 9.1422C0.595229 8.75516 0.749505 8.28066 1.13751 8.08424L4.00578 6.63229C4.22445 6.5216 4.37884 6.3151 4.42316 6.07406L4.98402 3.0235C5.05976 2.61156 5.44567 2.33171 5.86075 2.38773L9.146 2.83107C9.37774 2.86234 9.61135 2.78864 9.78318 2.63004L12.1681 0.428781ZM18.6194 15.1421L18.8663 17.0234C18.8648 17.0448 18.8583 17.0657 18.8473 17.0844C18.8363 17.1031 18.8211 17.1192 18.8027 17.1315C18.7766 17.1626 18.7389 17.1829 18.6976 17.188L17.1414 17.3757C17.121 17.3787 17.1002 17.3776 17.0802 17.3726C17.0602 17.3676 17.0415 17.3587 17.0253 17.3466C17.0087 17.3346 16.9949 17.3196 16.9847 17.3023C16.9745 17.285 16.9682 17.266 16.9661 17.2463L15.9606 9.69531L13.6105 11.8673L12.9426 12.4858L12.7037 12.7068C12.667 12.7405 12.6179 12.7591 12.567 12.7584C12.5161 12.7577 12.4675 12.7378 12.4319 12.7032L9.37427 9.69524L8.36924 17.2433C8.36402 17.2811 8.34326 17.3154 8.31153 17.3386C8.27979 17.3619 8.23969 17.3721 8.20003 17.3671L6.64256 17.1788C6.62187 17.1765 6.6019 17.1701 6.58391 17.1601C6.56592 17.1501 6.55029 17.1367 6.53802 17.1206C6.51313 17.0892 6.50169 17.0499 6.50603 17.0107L6.76548 15.1305L7.69848 15.2477C7.71218 15.2496 7.72615 15.2489 7.73955 15.2455C7.75294 15.2421 7.76548 15.2362 7.77641 15.2281C7.78734 15.22 7.79643 15.2098 7.80314 15.1983C7.80984 15.1867 7.81402 15.1739 7.81542 15.1608C7.81723 15.1478 7.81629 15.1345 7.81267 15.1218C7.80906 15.1091 7.80283 15.0972 7.79435 15.0868C7.78588 15.0764 7.77532 15.0678 7.76331 15.0613C7.75129 15.0549 7.73804 15.0507 7.72434 15.0492L6.79134 14.932L6.83229 14.6353L7.38401 14.7046C7.39758 14.7066 7.41145 14.706 7.42473 14.7027C7.43802 14.6993 7.45044 14.6934 7.46121 14.6853C7.47211 14.6773 7.48122 14.6674 7.48801 14.656C7.4948 14.6447 7.49914 14.6321 7.50076 14.6191C7.50256 14.6061 7.50163 14.5928 7.49801 14.5801C7.49439 14.5674 7.48817 14.5555 7.47969 14.5452C7.47122 14.5348 7.46066 14.5261 7.44865 14.5197C7.43663 14.5132 7.42338 14.5091 7.40968 14.5076L6.85796 14.4383L6.8989 14.1415L7.45063 14.2108C7.46433 14.2127 7.47829 14.2118 7.49162 14.2083C7.50495 14.2047 7.51734 14.1985 7.52802 14.1901C7.53911 14.1822 7.54845 14.1724 7.55549 14.161C7.56254 14.1497 7.56715 14.1372 7.56907 14.1241C7.5719 14.0979 7.56401 14.0717 7.54704 14.0509C7.53006 14.0301 7.50532 14.0164 7.47799 14.0126L6.92626 13.9433L6.9674 13.6451L7.51913 13.7144C7.53283 13.716 7.54672 13.715 7.56001 13.7115C7.5733 13.7079 7.58571 13.7018 7.59653 13.6937C7.61827 13.6774 7.63247 13.6536 7.63607 13.6275C7.63788 13.6145 7.63694 13.6012 7.63332 13.5885C7.62971 13.5758 7.62348 13.5639 7.615 13.5535C7.60653 13.5432 7.59598 13.5345 7.58396 13.528C7.57194 13.5216 7.55869 13.5175 7.54499 13.5159L6.99327 13.4466L7.03421 13.1499L7.58594 13.2192C7.59964 13.221 7.61358 13.2201 7.62689 13.2165C7.64021 13.2129 7.65261 13.2068 7.66334 13.1985C7.67435 13.1906 7.68356 13.1807 7.69036 13.1693C7.69717 13.1579 7.70143 13.1453 7.70289 13.1323C7.70649 13.1062 7.69907 13.0798 7.68227 13.0589C7.66547 13.038 7.64066 13.0244 7.6133 13.0209L7.06157 12.9516L7.10252 12.6549L8.03552 12.7721C8.04922 12.7737 8.06311 12.7727 8.0764 12.7691C8.08969 12.7656 8.1021 12.7595 8.11291 12.7513C8.13466 12.7351 8.14886 12.7113 8.15246 12.6852C8.15427 12.6722 8.15333 12.6589 8.14971 12.6462C8.1461 12.6335 8.13987 12.6216 8.13139 12.6112C8.12292 12.6008 8.11237 12.5922 8.10035 12.5857C8.08833 12.5793 8.07508 12.5751 8.06138 12.5736L7.12838 12.4564L7.16933 12.1597L7.72105 12.229C7.74845 12.2325 7.77616 12.2255 7.79825 12.2097C7.81471 12.1977 7.82707 12.1814 7.83374 12.1627C7.84042 12.1441 7.84112 12.1239 7.83575 12.1049C7.83039 12.0858 7.81919 12.0687 7.8036 12.0558C7.78801 12.0428 7.76873 12.0346 7.74822 12.0321L7.19649 11.9628L7.23744 11.6661L7.78916 11.7354C7.80274 11.7373 7.81658 11.7366 7.82986 11.7333C7.84314 11.73 7.85559 11.7242 7.86648 11.7162C7.87737 11.7083 7.88647 11.6983 7.89324 11.6869C7.90001 11.6755 7.90432 11.663 7.90591 11.65C7.90771 11.6369 7.90678 11.6237 7.90316 11.611C7.89955 11.5983 7.89332 11.5864 7.88484 11.576C7.87637 11.5656 7.86581 11.5569 7.85379 11.5505C7.84178 11.544 7.82853 11.5399 7.81483 11.5384L7.26311 11.4691L7.30405 11.1724L7.85578 11.2417C7.86934 11.2435 7.88317 11.2428 7.89643 11.2395C7.90969 11.2361 7.92212 11.2303 7.93298 11.2223C7.95448 11.2059 7.96862 11.1822 7.97253 11.1562C7.97433 11.1431 7.97339 11.1299 7.96978 11.1172C7.96616 11.1045 7.95993 11.0926 7.95146 11.0822C7.94298 11.0718 7.93243 11.0632 7.92041 11.0567C7.90839 11.0503 7.89514 11.0461 7.88145 11.0446L7.32972 10.9753L7.37066 10.6786L7.92687 10.7485C7.94058 10.7503 7.95454 10.7494 7.96787 10.7459C7.98119 10.7423 7.99359 10.7361 8.00427 10.7277C8.01543 10.72 8.02473 10.7101 8.03155 10.6987C8.03837 10.6873 8.04256 10.6746 8.04382 10.6616C8.04742 10.6355 8.04001 10.609 8.02321 10.5882C8.00641 10.5673 7.9816 10.5536 7.95424 10.5502L7.40251 10.4809L7.44365 10.1827L8.37665 10.2999C8.40427 10.3025 8.43191 10.2951 8.45405 10.2792C8.47555 10.2627 8.48969 10.2391 8.4936 10.213C8.4954 10.2 8.49446 10.1867 8.49085 10.174C8.48723 10.1613 8.481 10.1494 8.47253 10.139C8.46405 10.1287 8.4535 10.12 8.44148 10.1135C8.42946 10.1071 8.41621 10.103 8.40252 10.1014L7.46952 9.98424L7.51046 9.68752L8.06219 9.75683C8.07589 9.7586 8.08983 9.75768 8.10314 9.75411C8.11646 9.75054 8.12886 9.7444 8.13958 9.73607C8.1506 9.72825 8.15981 9.71833 8.16661 9.70695C8.17342 9.69556 8.17768 9.68296 8.17913 9.66993C8.18274 9.64382 8.17532 9.61742 8.15852 9.59653C8.14172 9.57564 8.11691 9.56197 8.08955 9.55854L7.53782 9.48924L7.57877 9.19252L8.13049 9.26182C8.14419 9.26343 8.15809 9.26242 8.17138 9.25886C8.18466 9.2553 8.19708 9.24925 8.20789 9.24106C8.22445 9.22905 8.23687 9.21258 8.24352 9.19377C8.25017 9.17496 8.25076 9.15468 8.24522 9.13555C8.23967 9.11642 8.22824 9.09931 8.2124 9.08644C8.19656 9.07357 8.17704 9.06552 8.15636 9.06334L7.60463 8.99404L7.64558 8.69732L8.1973 8.76662C8.21101 8.76855 8.22498 8.7678 8.23837 8.76443C8.25177 8.76106 8.26431 8.75514 8.27524 8.74701C8.28617 8.73889 8.29526 8.72875 8.30196 8.71718C8.30867 8.70561 8.31285 8.69287 8.31425 8.67972C8.31661 8.66355 8.31462 8.64707 8.30848 8.63183C8.30233 8.61659 8.29223 8.60309 8.27912 8.59259L7.80104 8.12183C7.77674 8.0983 7.76022 8.06847 7.75356 8.03605C7.74487 8.0054 7.74505 7.97308 7.75409 7.94253C7.76313 7.91197 7.78068 7.88433 7.80488 7.86254L8.71171 7.02297C8.74836 6.98926 8.79748 6.97074 8.84838 6.97143C8.89928 6.97211 8.94784 6.99195 8.98348 7.02663L12.6269 10.6393L16.462 7.09813C16.498 7.06496 16.5463 7.04668 16.5963 7.04726C16.6464 7.04784 16.6942 7.06723 16.7293 7.10123L17.6132 7.97126C17.6456 8.00376 17.6646 8.04635 17.6666 8.09117C17.6682 8.11674 17.6639 8.14235 17.6541 8.16618C17.6442 8.19001 17.629 8.2115 17.6095 8.22913L17.2119 8.59715L17.1811 8.60052C17.1542 8.60431 17.1299 8.61766 17.113 8.6379C17.0961 8.65813 17.0878 8.68374 17.09 8.70954C17.0939 8.73589 17.1087 8.75966 17.131 8.77565C17.1417 8.78367 17.154 8.78956 17.1671 8.79295C17.1802 8.79635 17.1939 8.79718 17.2074 8.7954L17.7597 8.72835L17.7996 9.02361L17.2473 9.09066C17.2336 9.09231 17.2204 9.09653 17.2085 9.10307C17.1966 9.10961 17.1861 9.11834 17.1778 9.12877C17.1694 9.13919 17.1633 9.15109 17.1598 9.16378C17.1562 9.17648 17.1554 9.18971 17.1573 9.20271C17.1584 9.2158 17.1625 9.2285 17.1693 9.2399C17.1762 9.25129 17.1856 9.26111 17.1969 9.26864C17.2075 9.27666 17.2198 9.28255 17.2329 9.28594C17.2461 9.28934 17.2598 9.29017 17.2732 9.28839L17.8253 9.22277L17.8652 9.51803L17.3129 9.58508C17.2993 9.58673 17.2861 9.59094 17.2742 9.59749C17.2622 9.60403 17.2518 9.61276 17.2434 9.62318C17.235 9.6336 17.2289 9.6455 17.2254 9.6582C17.2219 9.67089 17.221 9.68412 17.2229 9.69713C17.2269 9.72309 17.241 9.74665 17.2625 9.76305C17.2734 9.77115 17.2859 9.77709 17.2993 9.78051C17.3127 9.78393 17.3266 9.78478 17.3404 9.78299L17.8926 9.71595L17.931 10.011L17.0026 10.1252C16.9751 10.1289 16.9503 10.1426 16.9332 10.1635C16.9161 10.1843 16.9082 10.2107 16.9111 10.237C16.9151 10.263 16.9292 10.2865 16.9507 10.3029C16.9729 10.3192 17.0009 10.3263 17.0286 10.3229L17.9568 10.2102L17.9967 10.5054L17.4444 10.5725C17.4171 10.5759 17.3922 10.5893 17.3752 10.61C17.3581 10.6306 17.3502 10.6568 17.3531 10.6829C17.3565 10.7094 17.3706 10.7336 17.3925 10.7503C17.4146 10.7665 17.4426 10.7737 17.4703 10.7702L18.0226 10.7032L18.0625 10.9984L17.5102 11.0655C17.4965 11.0671 17.4834 11.0713 17.4714 11.0779C17.4595 11.0844 17.4491 11.0932 17.4407 11.1036C17.4323 11.114 17.4262 11.1259 17.4227 11.1386C17.4192 11.1513 17.4183 11.1645 17.4202 11.1775C17.4216 11.1905 17.4258 11.2031 17.4327 11.2145C17.4395 11.2258 17.4487 11.2357 17.4598 11.2434C17.4705 11.2515 17.4827 11.2574 17.4959 11.2608C17.509 11.2641 17.5227 11.265 17.5362 11.2632L18.0884 11.1962L18.1283 11.4914L17.576 11.5585C17.5625 11.56 17.5493 11.564 17.5374 11.5704C17.5255 11.5768 17.5151 11.5854 17.5067 11.5957C17.4984 11.6061 17.4922 11.6178 17.4887 11.6304C17.4852 11.643 17.4844 11.6562 17.4862 11.6691C17.4896 11.6956 17.5038 11.7198 17.5256 11.7364C17.5363 11.7445 17.5486 11.7503 17.5617 11.7537C17.5748 11.7571 17.5885 11.758 17.602 11.7562L18.1543 11.6891L18.1941 11.9844L17.6434 12.0516C17.6296 12.0531 17.6163 12.0572 17.6042 12.0637C17.5921 12.0701 17.5815 12.0788 17.573 12.0892C17.5644 12.0996 17.5582 12.1116 17.5546 12.1243C17.5509 12.1371 17.55 12.1504 17.5519 12.1635C17.5558 12.1895 17.57 12.213 17.5914 12.2294C17.6024 12.2375 17.6149 12.2435 17.6283 12.2469C17.6416 12.2503 17.6556 12.2512 17.6693 12.2494L18.2216 12.1823L18.2615 12.4776L17.3331 12.5917C17.3195 12.5932 17.3064 12.5973 17.2945 12.6037C17.2826 12.6101 17.2721 12.6187 17.2638 12.629C17.2554 12.6393 17.2493 12.6511 17.2458 12.6637C17.2422 12.6763 17.2414 12.6894 17.2433 12.7023C17.2444 12.7154 17.2485 12.7281 17.2553 12.7395C17.2622 12.7509 17.2716 12.7607 17.2828 12.7683C17.2935 12.7763 17.3058 12.7822 17.3189 12.7856C17.332 12.789 17.3457 12.7898 17.3592 12.788L18.2874 12.6753L18.3273 12.9706L17.775 13.0376C17.7614 13.0393 17.7482 13.0435 17.7363 13.05C17.7243 13.0566 17.7139 13.0653 17.7055 13.0757C17.6971 13.0861 17.691 13.098 17.6875 13.1107C17.684 13.1234 17.6831 13.1367 17.685 13.1497C17.6864 13.1627 17.6907 13.1753 17.6975 13.1866C17.7043 13.198 17.7135 13.2079 17.7246 13.2156C17.7353 13.2236 17.7476 13.2295 17.7607 13.2329C17.7738 13.2363 17.7875 13.2371 17.801 13.2353L18.3533 13.1683L18.3931 13.4636L17.841 13.5292C17.8274 13.5308 17.8142 13.535 17.8023 13.5416C17.7904 13.5481 17.7799 13.5569 17.7715 13.5673C17.7632 13.5777 17.757 13.5896 17.7535 13.6023C17.75 13.615 17.7492 13.6282 17.751 13.6412C17.7525 13.6542 17.7568 13.6668 17.7636 13.6781C17.7704 13.6895 17.7796 13.6994 17.7906 13.7072C17.8012 13.7154 17.8134 13.7215 17.8264 13.7252C17.8395 13.7288 17.8533 13.7299 17.8668 13.7283L18.4191 13.6613L18.459 13.9565L17.9082 14.0238C17.8944 14.0253 17.8811 14.0293 17.869 14.0358C17.8569 14.0423 17.8463 14.0509 17.8378 14.0614C17.8293 14.0718 17.823 14.0837 17.8194 14.0965C17.8158 14.1092 17.8148 14.1225 17.8167 14.1356C17.8206 14.1616 17.8348 14.1852 17.8563 14.2016C17.8672 14.2097 17.8797 14.2156 17.8931 14.219C17.9065 14.2225 17.9204 14.2233 17.9341 14.2215L18.4864 14.1545L18.5263 14.4497L17.974 14.5168C17.9465 14.5205 17.9216 14.5342 17.9046 14.5551C17.8875 14.5759 17.8796 14.6023 17.8825 14.6286C17.8865 14.6546 17.9006 14.6782 17.9221 14.6946C17.9443 14.7108 17.9723 14.7179 18 14.7145L18.552 14.6489L18.5919 14.9441L17.6635 15.0583C17.6499 15.0598 17.6368 15.0638 17.6249 15.0702C17.613 15.0766 17.6026 15.0853 17.5942 15.0956C17.5858 15.1059 17.5797 15.1177 17.5762 15.1303C17.5727 15.1429 17.5718 15.156 17.5737 15.1689C17.5771 15.1954 17.5912 15.2196 17.6131 15.2363C17.624 15.2444 17.6366 15.2503 17.6499 15.2537C17.6633 15.2571 17.6772 15.258 17.691 15.2562L18.6194 15.1421ZM7.40806 16.3533C7.45118 16.3892 7.50446 16.412 7.56118 16.419C7.60845 16.4249 7.65648 16.4195 7.70104 16.4033C7.74559 16.3872 7.78528 16.3608 7.81658 16.3265C7.84789 16.2922 7.86984 16.2511 7.88049 16.2068C7.89114 16.1625 7.89017 16.1163 7.87765 16.0725C7.86513 16.0286 7.84145 15.9884 7.80872 15.9553C7.77599 15.9223 7.73521 15.8974 7.69001 15.883C7.64481 15.8686 7.59659 15.8651 7.54961 15.8727C7.50263 15.8804 7.45835 15.8989 7.42071 15.9268C7.37553 15.9603 7.34175 16.0058 7.32363 16.0575C7.30551 16.1093 7.30386 16.165 7.31888 16.2176C7.33391 16.2703 7.36494 16.3175 7.40806 16.3533ZM17.9436 16.3857C17.9767 16.3676 18.0056 16.3434 18.0286 16.3145C18.052 16.286 18.0693 16.2534 18.0793 16.2186C18.0893 16.1837 18.092 16.1473 18.0871 16.1114C18.0829 16.0752 18.0709 16.0403 18.052 16.0087C18.0331 15.9771 18.0076 15.9496 17.977 15.9278C17.9472 15.9054 17.913 15.889 17.8765 15.8794C17.8399 15.8699 17.8018 15.8673 17.7642 15.872C17.7263 15.876 17.6897 15.8874 17.6566 15.9055C17.6235 15.9235 17.5946 15.9479 17.5717 15.977C17.5483 16.0054 17.5311 16.0381 17.5211 16.0729C17.511 16.1078 17.5084 16.1442 17.5133 16.1801C17.5257 16.2514 17.5659 16.3156 17.6257 16.36C17.6855 16.4043 17.7607 16.4256 17.8362 16.4195C17.874 16.4152 17.9105 16.4037 17.9436 16.3857Z" fill="#263238"/>
</svg>
