<svg xmlns="http://www.w3.org/2000/svg" viewBox="0 0 307.4 209.41"><defs><style>.cls-1{fill:#40719c;}.cls-2,.cls-8{fill:#164e5e;}.cls-2{opacity:0.29;}.cls-3{fill:#f6af97;}.cls-4{fill:#5284c4;}.cls-5{fill:#629bd3;}.cls-30,.cls-40,.cls-6{fill:#fff;}.cls-7{fill:#34607f;}.cls-8{opacity:0.6;}.cls-9{fill:#3b3734;}.cls-10{fill:#42739e;}.cls-11{fill:#fab400;}.cls-12{fill:#ea6613;}.cls-13{fill:#fab513;}.cls-14{fill:#80ceef;}.cls-15{fill:#020303;}.cls-16{fill:#95c6ec;}.cls-17{fill:#ce231f;}.cls-18{fill:#1a4e5d;opacity:0.6;}.cls-18,.cls-30,.cls-40{isolation:isolate;}.cls-19{fill:#5483c3;}.cls-20,.cls-32{fill:none;stroke-miterlimit:10;}.cls-20{stroke:#5483c3;}.cls-21{fill:#639ad3;}.cls-22{fill:#3a3634;}.cls-23{fill:#386282;}.cls-24{fill:#afafaf;}.cls-25{fill:#e95655;}.cls-26{fill:#ec6463;}.cls-27{fill:#fecd5d;}.cls-28{fill:#fbbb4d;}.cls-29{fill:#ffdb71;}.cls-30{opacity:0.2;}.cls-31{fill:#ed9b24;}.cls-32{stroke:#13505f;stroke-width:0.41px;}.cls-33{fill:#010202;}.cls-34{fill:#1b1b1b;}.cls-35{fill:#fcc016;}.cls-36{fill:#c42c28;}.cls-37{fill:#ee7148;}.cls-38{fill:#ffd551;}.cls-39{fill:#343434;}.cls-40{opacity:0.5;}</style></defs><g id="Laag_2" data-name="Laag 2"><g id="Laag_1-2" data-name="Laag 1"><path class="cls-1" d="M113.74,89.35S88.14,77.62,81,71.48a.8.8,0,0,0-1.32.75c1.88,9.84,10.34,31.94,17.77,38.91,8.2,7.7,15.8,7.51,15.8,7.51L118,90.34Z"/><path class="cls-1" d="M190,91S215.6,79.24,222.76,73.1a.8.8,0,0,1,1.32.75c-1.88,9.84-10.33,31.94-17.77,38.91-8.2,7.7-15.79,7.51-15.79,7.51L185.77,92Z"/><ellipse class="cls-2" cx="151.87" cy="162.32" rx="48.53" ry="7.04"/><path class="cls-3" d="M104,119v.09l-2,0Z"/><path class="cls-3" d="M102,119.07l-2,0V119Z"/><path class="cls-4" d="M111.88,60.94s-.45,61.73,1.56,68.44,11.59,30,39.32,29.75,35.17-16.1,39-29.3.9-68.89.9-68.89"/><path class="cls-4" d="M193.92,63.74a21.51,21.51,0,0,1-.81,6.25C190.25,79.83,190.6,92,151.27,92c-32.76,0-38-12.67-38-12.67S104.48,58,115,45.56c0,0-1-13.4,4.24-21.67.68-1.05,1.51-3.19,4.39-.78s9,9.89,9.53,10.94c0,0,19.1-7.28,39.78,0,0,0,8.28-7.49,10.42-9,.35-.17,2.38-1.71,3.05.51,0,0,5.79,14.78,4,23a39.88,39.88,0,0,1,3.55,15.19"/><path class="cls-5" d="M151.56,57c-6.56-7.4-19.07-18.64-27.65-13.62S110.8,59,112.4,68.75c.73,4.47,2.77,8.92,6.46,11.63,3.23,2.38,7.4,3.2,11.42,3.16a30.71,30.71,0,0,0,21.39-9.09c5.28,3.87,11.15,8,17.68,8.73S183,81.73,187,76.57a19.76,19.76,0,0,0,3.6-12.9c-.35-8.71-5.22-17.36-13.07-21.39S157.43,50.5,151.56,57Z"/><path d="M147.27,64a14.89,14.89,0,0,1-9.05,13.62,14.3,14.3,0,0,1-16.5-4.3,14.87,14.87,0,0,1-1.33-16.5,14.51,14.51,0,0,1,15.1-7.18A14.74,14.74,0,0,1,147.27,64c0,.52,1.25.61,1.24.11a15.6,15.6,0,0,0-10.3-14.52A15.9,15.9,0,0,0,121,54.05a15.4,15.4,0,0,0-1.56,17.83,15.92,15.92,0,0,0,16.16,7.37,15.55,15.55,0,0,0,12.95-15.12C148.52,63.61,147.27,63.51,147.27,64Z"/><path d="M184.89,64a14.8,14.8,0,0,1-9.32,13.58A14.35,14.35,0,0,1,158,56.77a14.78,14.78,0,0,1,15-7A14.43,14.43,0,0,1,184.89,64c0,.6,1.08,1,1.07.24a15.93,15.93,0,0,0-10.15-14.67,15.44,15.44,0,0,0-18.76,22.39,15.83,15.83,0,0,0,16.27,7.49A15.56,15.56,0,0,0,186,64.19C186,63.59,184.9,63.17,184.89,64Z"/><circle class="cls-6" cx="170.41" cy="64.51" r="15.02"/><path class="cls-4" d="M155.8,30.65a11,11,0,0,1,2.48-6c-1.92.47-3.51,2.19-4.76,4.13-1.86-3.32-6.2-5.12-6.2-5.12a15.51,15.51,0,0,1,2.08,6.17c-1.71-2-5.11-2.78-5.11-2.78s4,3.53,3,8.33a1.54,1.54,0,0,0,1.07.51c.82.77,2.8.73,3.76.67a7.31,7.31,0,0,0,2.27,0C157,36.22,155.59,34.11,155.8,30.65Z"/><path class="cls-5" d="M185.72,102c-1,8.38-1,28.07-12.31,37.8-7.51,6.43-12.7,8.06-19.52,8.41-.66,0-1.32,0-2,.07s-1.36,0-2-.07c-6.81-.35-12-2-19.52-8.41C119,130,119,110.35,118,102s13.06-10.78,18-6.42,15.39,3.54,15.85,3.54h0c.51,0,12.29,0,17.14-4.32S186.73,93.57,185.72,102Z"/><circle class="cls-6" cx="132.87" cy="64.51" r="15.02"/><path class="cls-7" d="M139.08,109.86l9.88.22a1,1,0,0,1,1,1.19c-.23,1.64-1.16,4.4-4.8,4.25-4.4-.18-6.74-2.2-7.15-4.48A1,1,0,0,1,139.08,109.86Z"/><path class="cls-7" d="M154.76,109.86l9.89.22a1,1,0,0,1,1,1.19c-.23,1.64-1.16,4.4-4.8,4.25-4.4-.18-6.74-2.2-7.15-4.48A1,1,0,0,1,154.76,109.86Z"/><path class="cls-7" d="M146.37,120.37l9.89.23a1,1,0,0,1,1,1.18c-.22,1.64-1.15,4.41-4.8,4.25-4.4-.18-6.74-2.2-7.15-4.48A1,1,0,0,1,146.37,120.37Z"/><path class="cls-8" d="M112.46,112.69v5.93a25.3,25.3,0,0,1-13.65-6.25c-6.3-5.7-13-18.78-16.25-29.46S79.75,71.7,79.75,71.7,95.07,112.69,112.46,112.69Z"/><path class="cls-8" d="M193.26,114.12v5.93a22.25,22.25,0,0,0,12.54-6.25c5.79-5.7,11.91-18.78,14.94-29.46s2.58-11.21,2.58-11.21S209.25,114.12,193.26,114.12Z"/><ellipse class="cls-6" cx="166.63" cy="63.54" rx="1.43" ry="0.68" transform="translate(-11.4 73.93) rotate(-24.21)"/><ellipse class="cls-6" cx="129.29" cy="63.66" rx="1.43" ry="0.68" transform="translate(-14.73 58.63) rotate(-24.21)"/><path class="cls-9" d="M138.81,61.28a7,7,0,0,0-5.56-3.37,7.12,7.12,0,0,0-7.08,7.79,6.82,6.82,0,1,0,12.64-4.42Z"/><path class="cls-6" d="M136.7,59.9a3.25,3.25,0,0,0-2.11-.7c-1.09.13-1.26,1.43-.33,2.52s2.69,1.67,3.42,1.12S137.9,60.78,136.7,59.9Z"/><path class="cls-9" d="M176.34,61.28a6.94,6.94,0,0,0-5.55-3.37,7.13,7.13,0,0,0-7.09,7.79,6.82,6.82,0,1,0,12.64-4.42Z"/><path class="cls-6" d="M174.23,59.9a3.25,3.25,0,0,0-2.11-.7c-1.08.13-1.25,1.43-.33,2.52s2.69,1.67,3.43,1.12S175.44,60.78,174.23,59.9Z"/><path class="cls-10" d="M205.45,119.82s.68-4.78,4.44-3.86c3,.74,5,7.83,5,7.83l-9.66.92"/><path class="cls-8" d="M147,77c0,.14-2.12,8.94,3.33,10.51S157.86,84,157.86,84s1.57-2.85,0-7.66S147,77,147,77Z"/><path class="cls-11" d="M159.67,79.73c-1-3.69-5.5-9.82-6.55-9.82s-6.7,5.82-7.87,9.63c2,2,4.76,3.63,7.4,3.63S157.87,81.52,159.67,79.73Z"/><path class="cls-11" d="M145.86,81.28a.13.13,0,0,1,.19-.18,11.56,11.56,0,0,0,6.41,2.5c3,.05,4.83-1.46,6.42-2.42a.13.13,0,0,1,.16.2l-2.11,2.25s-2.26,2.67-4.29,3-5.84-4.19-5.84-4.19Z"/><path class="cls-6" d="M153.15,70.64s5,5.81,5.7,8.78A7.09,7.09,0,0,1,153.54,82,62.36,62.36,0,0,0,153.15,70.64Z"/><ellipse class="cls-2" cx="49.39" cy="197.38" rx="44.15" ry="12.03"/><path class="cls-12" d="M87.82,82.18s10.24,1,11.55-.68-10.65-3-10.65-3A6.3,6.3,0,0,1,87.82,82.18Z"/><path class="cls-13" d="M88.13,79.61c8.77,1,12.5-.35,13.74-1a.73.73,0,0,0,.36-.92c-1.43-3.93-9.64-6.84-12.7-7.79a.78.78,0,0,0-1,.76,59.8,59.8,0,0,1-.37,9"/><path class="cls-13" d="M86.64,86.67c11.58,1,12.8-4.23,12.83-5.19a.16.16,0,0,0-.21-.15c-3.4.75-11.12-1.74-11.12-1.74-.27,1.68-1.83,6.62-1.83,6.62S86.13,86.54,86.64,86.67Z"/><path class="cls-6" d="M92.87,72.54s5.39.73,8.44,5"/><path class="cls-14" d="M92.33,46.21c-.45.12,4.37,4.09,6.8,2.78S97.42,44.86,92.33,46.21Z"/><path class="cls-15" d="M92.35,46.24a0,0,0,0,0,0,0,.24.24,0,0,0,.06.11,2.33,2.33,0,0,0,.39.39,10.08,10.08,0,0,0,1.66,1.06c.36.19.74.4,1.16.61a11.56,11.56,0,0,0,1.33.57,3.13,3.13,0,0,0,1.52.16,1.85,1.85,0,0,0,.72-.27,1.22,1.22,0,0,0,.51-.55.72.72,0,0,0-.09-.65,1.68,1.68,0,0,0-.51-.52,4.07,4.07,0,0,0-1.36-.65,10.47,10.47,0,0,0-2.67-.46A8.3,8.3,0,0,0,94,46c-.33,0-.62,0-.85.07s-.42.08-.55.1Zm0,0h0l.74-.19a11.89,11.89,0,0,1,2-.33,7.53,7.53,0,0,1,2.83.39,5.24,5.24,0,0,1,1.45.78,2.2,2.2,0,0,1,.56.68,1,1,0,0,1,0,.91,1.64,1.64,0,0,1-.64.59,2.27,2.27,0,0,1-.79.28,4.81,4.81,0,0,1-1.61-.07,7,7,0,0,1-2.6-1.12,12.52,12.52,0,0,1-1.53-1.28,5.29,5.29,0,0,1-.38-.42.29.29,0,0,1-.07-.15.12.12,0,0,1,.06-.07Z"/><path class="cls-16" d="M98,49.25a2.35,2.35,0,0,0,1.1-.26c2.44-1.32-1.71-4.13-6.8-2.78,0,0,0,0,0,.06C95.82,46,98.36,48.25,98,49.25Z"/><path class="cls-17" d="M19.57,56.67S51.5,39.32,66.39,35.92l2.5,3.56L45.47,54.67,20.2,59.77Z"/><path class="cls-10" d="M48.06,99c28.39-10.15,47.41-3.24,54.23.91a2.73,2.73,0,0,1,.7,4.16c-23.31,29.78-49.54,34.33-63,33.68-13.77-.66-15.36-16.14-15.36-16.14S21,108.67,48.06,99Z"/><path class="cls-18" d="M44.7,100.46s12.72-6.24,24.72-6.4S90,93.16,102,99.74c0,0,.54-.06,1.49,1.58S87.65,92,44.7,100.46Z"/><path class="cls-13" d="M50.05,184.15s-3.27,1.8-4.13,4.52,1.52,4.35,4.13,4.16,11.26.73,12.55.84-1.58-1.63,2.76,2,6.75,2.64,8.86.57c0,0,5.49,0,5-7.4,0,0,1.91-5-5.72-8Z"/><ellipse class="cls-6" cx="76.92" cy="184.32" rx="0.71" ry="1.42" transform="translate(-119.5 148.15) rotate(-56.92)"/><ellipse class="cls-6" cx="73.14" cy="189.48" rx="0.71" ry="1.89" transform="translate(-125.25 145.97) rotate(-56.52)"/><ellipse class="cls-6" cx="76.28" cy="187.4" rx="0.71" ry="2.24" transform="translate(-122.02 147.26) rotate(-56.41)"/><path class="cls-13" d="M24.77,186.73s-3.72.44-5.54,2.63S19,194,21.47,194.78s6.22,1.62,7.36,2.22,3.09,1.2,5.74,6.23,5.25,5,8,3.9c0,0,5.09,2.08,7.43-4.94,0,0,3.67-3.92-2.28-9.53Z"/><ellipse class="cls-6" cx="43.95" cy="200.01" rx="0.71" ry="1.89" transform="translate(-104.94 59.42) rotate(-34.25)"/><ellipse class="cls-6" cx="49.39" cy="196.67" rx="0.71" ry="1.42" transform="translate(-103.04 62.94) rotate(-34.64)"/><ellipse class="cls-6" cx="47.63" cy="199.27" rx="0.71" ry="2.24" transform="translate(-103.61 61.05) rotate(-34.13)"/><path class="cls-19" d="M65.4,105.36C82.56,105.73,88.26,88.47,91,79c0,0,8.34-25-14.85-37.68C69.86,37.89,60.18,36,60.18,36a12.51,12.51,0,0,1-8.65-5.76,86,86,0,0,0-7.1-10.16c-3.2-3.5-4.7-1-5.78.12-5.94,6.43-8.36,16.6-9.25,22a11.69,11.69,0,0,1-2.85,6c-10.89,11.85-8,31.68-6.87,37.32a11.1,11.1,0,0,0,1.69,4.12S33.3,106.22,65.4,105.36Z"/><path class="cls-20" d="M37.32,39.46a10.89,10.89,0,0,1-1.16-8.55,11.42,11.42,0,0,1,5.54-6.8"/><path class="cls-19" d="M21.36,182.27c-2.85,4.72-8.23,7.53-13.88,6.07-2.49-.65-2.85-1.49-.46-2.69,2.67-1.35,5.62-2.2,6.2-5.48a12.68,12.68,0,0,1-7.81,2.46c-1-.06-4.52-.57-4.77-1.84-.31-1.65,4.15-1.91,5.27-2.24a9.25,9.25,0,0,0,6-5.23"/><path class="cls-19" d="M24.28,85.3c6-8-49.47,69.07,3.18,103.79a43.41,43.41,0,0,0,19.95,5.55c28.14,1,35.7-16.83,39.56-30.6s-2.76-68.68-2.76-68.68"/><path class="cls-21" d="M92.13,73c-4.49,6.81-13,11.52-24.88,7-5.62-2.16-8.67-5.08-10-10.92a21.93,21.93,0,0,1,1.24-13.25c2.5-6.42,8.08-8.27,15.24-7.9s10.78,1.94,15.62,7C89.33,54.93,93.27,61,92.13,73Z"/><path class="cls-19" d="M61.34,37s3.8-5.45,6.9-7.15-5.63-.51-8.81,2.87c-1.23,1.3-.23-2.18.65-3.7.09-.14-.1-.3-.27-.24a5.75,5.75,0,0,0-3,3.41c-.44,2-1.13-3-.15-5.73.06-.17-.21-.31-.34-.17-1.06,1.14-3.08,5-4.08,9.61"/><ellipse class="cls-6" cx="73.37" cy="64.23" rx="11.65" ry="12.95"/><ellipse class="cls-22" cx="78.67" cy="66.67" rx="4.54" ry="5.04"/><ellipse class="cls-6" cx="77.42" cy="63.71" rx="1.89" ry="0.91" transform="translate(-19.32 37.36) rotate(-24.22)"/><path class="cls-21" d="M83.91,172.42c-.83,1.81-2,3-5.71,1.66-6.73-2.34-6.44-36.68,1.69-45.75s7.67,3.49,7.67,3.49.87,15.49.65,20.19S88.24,162.82,83.91,172.42Z"/><path class="cls-15" d="M84.64,64.27c0,5-2.71,10-7.48,11.87a10.76,10.76,0,0,1-12.61-4,13.87,13.87,0,0,1-.88-14.43c2.31-4.29,7.08-7,12-5.87,5.67,1.3,8.95,6.91,9,12.42,0,.4.73.33.73-.07-.08-5.35-3-10.67-8.23-12.57a11.48,11.48,0,0,0-13,4.1,14.44,14.44,0,0,0-1,15.55,11.74,11.74,0,0,0,12.55,5.94c6-1.33,9.55-7.17,9.63-13C85.38,63.79,84.66,63.86,84.64,64.27Z"/><path class="cls-10" d="M60.89,101c29.12,7.87,40.78,24.4,44,31.7a2.74,2.74,0,0,1-1.81,3.82c-36.12,11.16-60.28-.09-70.91-8.27-10.93-8.4-3.4-22-3.4-22S33.14,93.51,60.89,101Z"/><path class="cls-18" d="M57.31,100.31s14,2.12,24,8.84,17.43,11,23.53,23.27c0,0,.48.25.34,2.14S97.41,117.85,57.31,100.31Z"/><path class="cls-23" d="M85.64,142.88l-5,.3c-.75,0-1.32.59-1.11,1.11.53,1.49,2.48,2.71,5.84,3,1,.09,1.92-.53,1.86-1.28a11,11,0,0,1,.06-1.9C87.37,143.41,86.61,142.82,85.64,142.88Z"/><path class="cls-23" d="M87.69,152.62l-3.35-.39c-.51-.06-1,.49-.93,1.14a5,5,0,0,0,3.37,4.38c.67.26,1.36-.35,1.45-1.23a18.17,18.17,0,0,1,.36-2.21A1.31,1.31,0,0,0,87.69,152.62Z"/><path class="cls-17" d="M74.22,40.24c1.24,4-9.11,12.44-24.2,19.22s-29.36,9.28-30.63,5.31c-1.57-4.91.18-8.12.18-8.12,1.72,3.83,13.84,1.72,27.29-4.34S68.14,39.78,66.4,36C66.41,36,72.76,35.62,74.22,40.24Z"/><path class="cls-6" d="M18.71,60.87A6.37,6.37,0,0,0,18.94,63c.35,1.46,9.76,3.87,31.05-6.09s23.8-17.68,23.8-17.68a2.8,2.8,0,0,0-2.07-2.09s-5.55,9.55-22.54,17.37S24.25,62.49,18.71,60.87Z"/><path class="cls-14" d="M83.23,39.49c-.6-.34,7.33-7.51,9.54-3.89C94.36,38.18,89.56,43.09,83.23,39.49Z"/><path class="cls-15" d="M83.21,39.51s0,0,0-.08a.48.48,0,0,1,.07-.2,4.23,4.23,0,0,1,.49-.63,18.25,18.25,0,0,1,2-2,10.85,10.85,0,0,1,3.55-1.89,4.25,4.25,0,0,1,2.27-.13,2,2,0,0,1,1,.62,2.24,2.24,0,0,1,.55,1.07,3,3,0,0,1-.58,2.32,5.22,5.22,0,0,1-1.72,1.56,6,6,0,0,1-2,.7,6.66,6.66,0,0,1-1.94,0,7.32,7.32,0,0,1-1.57-.41A9.24,9.24,0,0,1,84.14,40c-.31-.14-.55-.27-.71-.36a1.22,1.22,0,0,0-.22-.14Zm0,0,.25.13a5.81,5.81,0,0,0,.7.34,3.42,3.42,0,0,0,.54.18,4.44,4.44,0,0,0,.64.19,7.79,7.79,0,0,0,1.54.23,6.68,6.68,0,0,0,1.82-.1,6.36,6.36,0,0,0,1.91-.65,4.84,4.84,0,0,0,1.64-1.39,3,3,0,0,0,.65-2,2.18,2.18,0,0,0-.44-1,1.85,1.85,0,0,0-.92-.61,3.48,3.48,0,0,0-2.16.23,12.8,12.8,0,0,0-1.85.94c-.56.34-1.08.68-1.56,1a16.7,16.7,0,0,0-2.21,1.74,3.32,3.32,0,0,0-.51.61.5.5,0,0,0-.07.17s0,.06,0,0Z"/><path class="cls-16" d="M83.93,39.85c3.63-2.34,7.28-2.41,8.37-1.15a2.74,2.74,0,0,0,.48-3.11c-2.21-3.61-10.15,3.56-9.54,3.89A6.56,6.56,0,0,0,83.93,39.85Z"/><path class="cls-14" d="M80.31,33.58c.34.13,2.12-3.83,0-3.83C78.88,29.75,79.79,33.39,80.31,33.58Z"/><path class="cls-15" d="M80.31,33.55a.11.11,0,0,0,.07,0,.68.68,0,0,0,.16-.23,5.75,5.75,0,0,0,.32-1l.17-.65A5.06,5.06,0,0,0,81.2,31a1.28,1.28,0,0,0-.1-.77.7.7,0,0,0-.65-.33.56.56,0,0,0-.55.3,1.69,1.69,0,0,0-.13.71,10.92,10.92,0,0,0,.12,1.39,3.57,3.57,0,0,0,.2,1,.65.65,0,0,0,.14.23c0,.07.08.07.08.07Zm0,0a.19.19,0,0,1-.08-.05,1.22,1.22,0,0,1-.19-.23,5.65,5.65,0,0,1-.49-.94,4.47,4.47,0,0,1-.18-.7,3.52,3.52,0,0,1,0-.81,2.08,2.08,0,0,1,.24-.88.84.84,0,0,1,.41-.33.63.63,0,0,1,.26,0,.8.8,0,0,1,.23,0,1.07,1.07,0,0,1,.74.5,2.44,2.44,0,0,1,.23.84,2.85,2.85,0,0,1-.26,1.48,5.28,5.28,0,0,1-.58.89,1.58,1.58,0,0,1-.2.22.1.1,0,0,1-.09,0Z"/><path class="cls-16" d="M80.31,33.58s.13,0,.21-.16a3.69,3.69,0,0,1,.18-3.61,1.44,1.44,0,0,0-.38-.06C78.88,29.75,79.79,33.39,80.31,33.58Z"/><path class="cls-15" d="M37.66,39.51a11,11,0,0,1-1-8.85A11.31,11.31,0,0,1,42,24.26c.26-.15-.39-.39-.58-.29A11.64,11.64,0,0,0,36,30.28a11.09,11.09,0,0,0,1,9.15c.13.19.8.24.7.08Z"/><path class="cls-15" d="M92.69,46.23a13,13,0,0,1,3.36-.52,5.37,5.37,0,0,1,2.38.62c.58.32,1.41.94,1.23,1.71s-1,1-1.6,1.07a4.6,4.6,0,0,1-2.5-.5,8.4,8.4,0,0,1-1.71-1.12c-.11-.09-1.3-1.19-1.16-1.26s-.2-.15-.21-.16A.77.77,0,0,0,92,46c-.25.11.69.94.81,1a9.29,9.29,0,0,0,1.63,1.23,7.4,7.4,0,0,0,4,1.07,2.31,2.31,0,0,0,1.66-.72c.48-.59.1-1.27-.37-1.72A6.62,6.62,0,0,0,96,45.49a8.12,8.12,0,0,0-2.31.12A8.6,8.6,0,0,0,92,46c-.09,0,.2.14.22.16A.82.82,0,0,0,92.69,46.23Z"/><path class="cls-10" d="M259.82,96.3c-28.39-10.15-47.41-3.24-54.23.91a2.74,2.74,0,0,0-.7,4.17c23.3,29.77,49.54,34.33,63,33.68,13.77-.67,15.36-16.15,15.36-16.15S286.9,106,259.82,96.3Z"/><ellipse class="cls-2" cx="256.78" cy="195.7" rx="44.15" ry="12.03"/><path class="cls-18" d="M263.18,97.78s-12.72-6.25-24.72-6.41-20.6-.89-32.61,5.68c0,0-.54,0-1.49,1.58S220.23,89.31,263.18,97.78Z"/><path class="cls-24" d="M200.4,103.6l.64,0a0,0,0,0,0,0,0,.53.53,0,0,1,.14-.43c.07-.07.21-.15.25,0l.15.5.87.06c0-.08-.05-.16-.08-.23a.32.32,0,0,1,.16-.41c.13-.07.37,0,.43.11s.13.38.2.56l.94.06s0-.1,0-.15l-.12-.41c0-.12.23-.07.27-.05s.3.11.34.24.08.27.11.4l.81.05-.09-.3a.42.42,0,0,1,.18-.43.21.21,0,0,1,.32.13c.06.21.11.42.17.63l.36,0,.86.05a1,1,0,0,1,.33.07h0c.13,0,.24.09.24.15l0,1.93h-.05l-1.18-.07.12.4a.43.43,0,0,1-.18.43.21.21,0,0,1-.32-.13c-.07-.25-.14-.5-.2-.74l-.77,0a1.55,1.55,0,0,1,.07.23l.12.4c0,.13-.22.07-.27.06s-.3-.11-.34-.24-.09-.33-.14-.49l-.81,0,.14.38a.33.33,0,0,1-.17.41c-.13.06-.36,0-.42-.12l-.25-.72-1-.06c0,.11.06.22.1.33a.54.54,0,0,1-.14.43c-.07.07-.21.15-.25,0l-.24-.81h0l-.87,0c-.09,0-.57-.11-.57-.23,0-.62.08-1.25.11-1.87A.06.06,0,0,1,200.4,103.6Zm6.61,2.32h.27c-.05,0,0-.25,0-.29,0-.21,0-.42,0-.64s0-.53,0-.8h0l-.64,0-.46,0h0l.48,1.74.39,0h0Zm-1.4-.1.38,0h0l-.48-1.74h0l-.4,0-.38,0h0c.17.58.34,1.15.5,1.73ZM204.17,104h0l-.91,0h0c.21.57.41,1.15.62,1.73l.81.05h0C204.5,105.19,204.33,104.61,204.17,104Zm-1,1.63h0c-.2-.57-.41-1.15-.61-1.73h0l-.48,0-.39,0c.17.57.35,1.14.51,1.71Zm-1.51-.09h0c-.15-.53-.31-1.06-.47-1.58,0,0,0-.1,0-.15H201c.05,0,0,.25,0,.29l0,.61-.05.78Zm5.29,10.94.19-.07,3.49-1.16h0l.4-.13h0l0,.11-.2.07-.21.07-3.43,1.22-.13,0-.3.11,0-.07-.06-.12h0Zm-11.26-12.63.09.16-.19-.16-.05-.33C195.54,103.66,195.6,103.77,195.65,103.88Z"/><path class="cls-24" d="M196.12,94.9c.66-1.33,1.79-2.86,3.4-3h.18c.11,0,.6,0,.6.24v0l-.06,7.64c0,.26,0,.52,0,.77v.12l.23,0,4.35.41.91.08a.49.49,0,0,1,0-.12l.51-7.12c0-.37,0-.73.08-1.1,0-.18.34-.83.57-.77,3.76.87,4.4,5.19,4.13,8.45,0,.34-.06.69-.12,1v0s0,0,0,.08l.31,0a1.42,1.42,0,0,1,.43.13l0,0a.06.06,0,0,1,0,.06l-.06.16a19.24,19.24,0,0,0-.51,12.27,6.75,6.75,0,0,0,.24.72l-.18.06-.15.05-.4.13h0l-3.49,1.16-.19.07-.24.08-.26.08a.31.31,0,0,1-.21-.13q-.67-1.44-1.38-2.85a12.5,12.5,0,0,0-1.87-3.07,42.44,42.44,0,0,0-5.28-4.56c-.31-.24-.65-.46-.94-.72a4.67,4.67,0,0,1-1-1.3l-.09-.16c-.05-.11-.11-.22-.15-.33C194.28,100.84,194.86,97.49,196.12,94.9Zm4.12,10.59c0,.12.48.22.57.23l.87,0h0l.24.81c0,.14.18.06.25,0a.54.54,0,0,0,.14-.43c0-.11-.07-.22-.1-.33l1,.06.25.72c.06.16.29.18.42.12a.33.33,0,0,0,.17-.41l-.14-.38.81,0c.05.16.1.33.14.49s.23.2.34.24.31.07.27-.06l-.12-.4a1.55,1.55,0,0,0-.07-.23l.77,0c.06.24.13.49.2.74a.21.21,0,0,0,.32.13.43.43,0,0,0,.18-.43l-.12-.4,1.18.07h.05l0-1.93c0-.06-.11-.11-.24-.15h0a1,1,0,0,0-.33-.07l-.86-.05-.36,0c-.06-.21-.11-.42-.17-.63a.21.21,0,0,0-.32-.13.42.42,0,0,0-.18.43l.09.3-.81-.05c0-.13-.07-.27-.11-.4s-.23-.21-.34-.24-.31-.07-.27.05l.12.41s0,.1,0,.15l-.94-.06c-.07-.18-.13-.37-.2-.56s-.3-.18-.43-.11a.32.32,0,0,0-.16.41c0,.07,0,.15.08.23l-.87-.06-.15-.5c0-.14-.18-.06-.25,0a.53.53,0,0,0-.14.43,0,0,0,0,1,0,0l-.64,0a.06.06,0,0,0-.05,0C200.32,104.24,200.28,104.87,200.24,105.49Z"/><path d="M206.67,116.59l.24-.08.19-.07.05.11s0,.09-.09.12a.81.81,0,0,1-.33,0,1.08,1.08,0,0,1-.32,0Zm4.33-1.44.15-.05.18-.06s0,.08,0,.12-.26.2-.54.17l-.23,0Z"/><path d="M206.36,116.69l0,0,.26-.08.24-.08.19-.07,3.49-1.16h0l.4-.13.15-.05.18-.06.06,0h0c.14-.07.29-.07.33.06.4,1,.79,2,1.18,3l2.67,6.88c.94,2.42,1.87,4.85,2.81,7.27.55,1.43,1.11,2.86,1.64,4.3a4.48,4.48,0,0,1,.21,2.61,4.23,4.23,0,0,1-3.47,2.92c-1.73.21-3-1.3-3.51-2.81-.41-1.26-.81-2.53-1.21-3.79q-1.12-3.51-2.24-7l-2.28-7.13-1.32-4.13-.06-.2C206.1,116.88,206.25,116.75,206.36,116.69Zm9.19,21.64a3.33,3.33,0,0,0,.61,1.49.65.65,0,0,0,.74.24,1.8,1.8,0,0,0,1-1.17,2.17,2.17,0,0,0-.34-1.83h0c-.34-.42-1.18-1.39-1.71-.75A2.3,2.3,0,0,0,215.55,138.33Z"/><path d="M200.4,103.6l.64,0a0,0,0,0,0,0,0,.53.53,0,0,1,.14-.43c.07-.07.21-.15.25,0l.15.5.87.06c0-.08-.05-.16-.08-.23a.32.32,0,0,1,.16-.41c.13-.07.37,0,.43.11s.13.38.2.56l.94.06s0-.1,0-.15l-.12-.41c0-.12.23-.07.27-.05s.3.11.34.24.08.27.11.4l.81.05-.09-.3a.42.42,0,0,1,.18-.43.21.21,0,0,1,.32.13c.06.21.11.42.17.63l.36,0,.86.05a1,1,0,0,1,.33.07h0c.13,0,.24.09.24.15l0,1.93h-.05l-1.18-.07.12.4a.43.43,0,0,1-.18.43.21.21,0,0,1-.32-.13c-.07-.25-.14-.5-.2-.74l-.77,0a1.55,1.55,0,0,1,.07.23l.12.4c0,.13-.22.07-.27.06s-.3-.11-.34-.24-.09-.33-.14-.49l-.81,0,.14.38a.33.33,0,0,1-.17.41c-.13.06-.36,0-.42-.12l-.25-.72-1-.06c0,.11.06.22.1.33a.54.54,0,0,1-.14.43c-.07.07-.21.15-.25,0l-.24-.81h0l-.87,0c-.09,0-.57-.11-.57-.23,0-.62.08-1.25.11-1.87A.06.06,0,0,1,200.4,103.6Zm6.18,2.29.39,0h.3c-.05,0,0-.25,0-.28,0-.22,0-.43,0-.65s0-.53,0-.8l-.64,0-.46,0h0Zm-1.36-.09h0l.38,0,.38,0h0l-.48-1.74-.4,0-.38,0h0C204.89,104.64,205.06,105.22,205.22,105.8Zm-1.38-.09.82.05h0l-.51-1.73-.91,0h0Zm-1.68-.11h0l1,.06c-.2-.57-.41-1.15-.61-1.73l-.48,0-.39,0h0C201.81,104.46,202,105,202.16,105.6ZM201,104.13l0,.61c0,.26,0,.52,0,.78h0l.74,0c-.15-.53-.31-1.06-.47-1.59,0,0,0-.09-.05-.14H201S201,104.09,201,104.13Z"/><path class="cls-12" d="M220.06,79.49s-10.24,1-11.55-.68,10.65-3,10.65-3A6.27,6.27,0,0,0,220.06,79.49Z"/><path class="cls-13" d="M219.75,76.92c-8.77,1-12.5-.35-13.74-1a.76.76,0,0,1-.37-.93c1.44-3.93,9.65-6.84,12.71-7.79a.79.79,0,0,1,1,.77,59.72,59.72,0,0,0,.37,9"/><path class="cls-13" d="M221.24,84c-11.58,1-12.81-4.24-12.83-5.19a.16.16,0,0,1,.21-.16c3.4.75,11.12-1.74,11.12-1.74.27,1.68,1.83,6.62,1.83,6.62S221.75,83.86,221.24,84Z"/><path class="cls-6" d="M215,69.85s-5.39.74-8.44,5"/><path class="cls-13" d="M257.83,181.46s3.26,1.8,4.13,4.52-1.52,4.35-4.13,4.17-6.36-.86-7.65-.74-3.32-.06-7.66,3.6-6.75,2.64-8.86.58c0,0-5.49,0-5-7.41,0,0-1.91-5,5.72-8Z"/><ellipse class="cls-6" cx="230.96" cy="181.63" rx="1.42" ry="0.71" transform="translate(-61.7 155.52) rotate(-33.08)"/><ellipse class="cls-6" cx="234.74" cy="186.79" rx="1.89" ry="0.71" transform="translate(-64.09 160.47) rotate(-33.48)"/><ellipse class="cls-6" cx="231.6" cy="184.71" rx="2.24" ry="0.71" transform="translate(-63.52 158.99) rotate(-33.59)"/><path class="cls-13" d="M283.11,184.05s3.72.43,5.54,2.63.24,4.61-2.24,5.42-6.22,1.62-7.36,2.21-3.1,1.2-5.74,6.23-5.25,5-8,3.9c0,0-5.09,2.08-7.43-4.94,0,0-3.67-3.92,2.28-9.53Z"/><ellipse class="cls-6" cx="263.93" cy="197.32" rx="1.89" ry="0.71" transform="translate(-47.71 304.43) rotate(-55.75)"/><ellipse class="cls-6" cx="258.49" cy="193.98" rx="1.42" ry="0.71" transform="translate(-48.04 296.39) rotate(-55.36)"/><ellipse class="cls-6" cx="260.25" cy="196.59" rx="2.24" ry="0.71" transform="translate(-48.5 301.7) rotate(-55.87)"/><path class="cls-19" d="M242.48,102.68c-17.16.36-22.86-16.9-25.55-26.38,0,0-8.34-25,14.85-37.69,6.24-3.41,15.92-5.33,15.92-5.33a12.47,12.47,0,0,0,8.65-5.76,86.81,86.81,0,0,1,7.1-10.16c3.2-3.5,4.7-1,5.78.12,5.94,6.43,8.36,16.61,9.25,22a11.69,11.69,0,0,0,2.85,6c10.89,11.85,8,31.68,6.87,37.32a11.1,11.1,0,0,1-1.69,4.12S274.58,103.53,242.48,102.68Z"/><path class="cls-20" d="M270.56,36.78a10.91,10.91,0,0,0,1.16-8.56,11.42,11.42,0,0,0-5.54-6.8"/><path class="cls-19" d="M286.52,179.58c2.85,4.73,8.23,7.53,13.88,6.07,2.48-.65,2.85-1.49.46-2.69-2.67-1.34-5.62-2.2-6.2-5.48a12.68,12.68,0,0,0,7.81,2.46c1-.06,4.52-.56,4.77-1.84.31-1.64-4.15-1.9-5.27-2.24a9.25,9.25,0,0,1-6-5.23"/><path class="cls-19" d="M283.6,82.61c-6-8,49.47,69.07-3.18,103.79A43.41,43.41,0,0,1,260.47,192c-28.14,1-35.7-16.82-39.56-30.6s2.76-68.68,2.76-68.68"/><path class="cls-21" d="M215.75,70.34c4.49,6.81,13,11.52,24.88,7,5.62-2.16,8.67-5.08,10-10.92a21.93,21.93,0,0,0-1.24-13.25c-2.5-6.42-8.08-8.27-15.24-7.89s-10.78,1.93-15.62,7C218.55,52.24,214.61,58.31,215.75,70.34Z"/><path class="cls-19" d="M246.54,34.28s-3.8-5.45-6.9-7.16,5.63-.51,8.81,2.88c1.23,1.3.23-2.19-.65-3.7-.09-.15.1-.31.27-.25a5.78,5.78,0,0,1,3,3.41c.44,2,1.13-3.05.15-5.72-.06-.18.21-.32.34-.18,1.06,1.15,3.08,5,4.08,9.62"/><ellipse class="cls-6" cx="234.51" cy="61.54" rx="11.65" ry="12.95"/><ellipse class="cls-22" cx="229.21" cy="63.98" rx="4.54" ry="5.04"/><ellipse class="cls-6" cx="230.46" cy="61.02" rx="0.91" ry="1.89" transform="translate(80.28 246.17) rotate(-65.78)"/><path class="cls-21" d="M224,169.73c.83,1.81,2,3,5.71,1.67,6.73-2.34,6.44-36.69-1.69-45.75s-7.67,3.48-7.67,3.48-.87,15.5-.65,20.19S219.64,160.14,224,169.73Z"/><path class="cls-15" d="M223.24,61.58c0,5,2.71,10,7.48,11.87a10.75,10.75,0,0,0,12.61-4A13.87,13.87,0,0,0,244.21,55c-2.31-4.29-7.08-7-12-5.87-5.67,1.3-8.95,6.91-9,12.42,0,.41-.73.33-.73-.07.08-5.35,3-10.67,8.23-12.56a11.48,11.48,0,0,1,13,4.09,14.44,14.44,0,0,1,1,15.55,11.72,11.72,0,0,1-12.55,5.94c-6-1.33-9.55-7.17-9.63-13C222.5,61.1,223.22,61.18,223.24,61.58Z"/><path class="cls-10" d="M247,97.92c-14.25,3.85-24.9,8.24-34.63,18.79-5.2,5.65-6.61-.39-7,3.82s0,11.31,3.44,12.25c36.48,9.94,56.26.57,66.89-7.61,10.93-8.4,3.4-22,3.4-22S274.74,90.41,247,97.92Z"/><path class="cls-23" d="M222.24,140.19l5,.3c.75,0,1.32.59,1.11,1.11-.53,1.49-2.48,2.71-5.84,3-1,.08-1.92-.54-1.86-1.29a10.89,10.89,0,0,0-.06-1.89C220.5,140.72,221.27,140.13,222.24,140.19Z"/><path class="cls-23" d="M220.19,149.93l3.35-.39c.51-.06,1,.49.93,1.14a5,5,0,0,1-3.37,4.38c-.67.26-1.36-.34-1.45-1.23a18.83,18.83,0,0,0-.36-2.21A1.31,1.31,0,0,1,220.19,149.93Z"/><path class="cls-15" d="M270.22,36.82a11,11,0,0,0,1-8.85,11.38,11.38,0,0,0-5.38-6.4c-.26-.15.39-.39.58-.29a11.62,11.62,0,0,1,5.44,6.32,11.1,11.1,0,0,1-1,9.15c-.13.18-.81.23-.7.07Z"/><polygon class="cls-25" points="171.39 102.12 165.3 113.59 170.83 113.08 173.5 117.95 179.59 106.48 171.39 102.12"/><path class="cls-26" d="M172.09,114.61a.78.78,0,0,0-.37-1l-.35-.19a.74.74,0,0,1-.29-1,.75.75,0,0,1,1-.31l1,.53a.63.63,0,0,0,.85-.27l0,0a.6.6,0,0,0-.22-.84l-3-1.57a.78.78,0,0,1-.37-1,.76.76,0,0,1,1-.35l2.74,1.46a.64.64,0,0,0,.85-.26l0,0h0a.66.66,0,0,0-.27-.9l-1.54-.81a.77.77,0,0,1-.36-1,.75.75,0,0,1,1-.35l1.7.9a.63.63,0,0,0,.86-.29h0a.63.63,0,0,0-.24-.87l-1.84-1a.78.78,0,0,1-.36-1,.75.75,0,0,1,1-.35l4.53,2.41L173.5,118l-1.67-3A.91.91,0,0,0,172.09,114.61Z"/><polygon class="cls-26" points="182.78 102.12 188.86 113.59 183.34 113.08 180.66 117.95 174.57 106.48 182.78 102.12"/><path class="cls-25" d="M182.08,114.61a.79.79,0,0,1,.36-1l.35-.19a.75.75,0,0,0,.3-1,.77.77,0,0,0-1-.31l-1,.53a.62.62,0,0,1-.84-.27l0,0a.6.6,0,0,1,.23-.84l3-1.57a.78.78,0,0,0,.37-1,.75.75,0,0,0-1-.34L180,110a.64.64,0,0,1-.85-.26v0h0a.67.67,0,0,1,.27-.9l1.54-.81a.79.79,0,0,0,.37-1,.75.75,0,0,0-1-.34l-1.71.9a.63.63,0,0,1-.86-.29h0a.63.63,0,0,1,.24-.87l1.84-1a.78.78,0,0,0,.37-1,.76.76,0,0,0-1-.35l-4.53,2.41L180.66,118l1.68-3A.8.8,0,0,1,182.08,114.61Z"/><circle class="cls-27" cx="177.08" cy="100.24" r="10.17"/><path class="cls-28" d="M178.46,99.08H172a.92.92,0,0,1-.92-.92V98.1h0a1,1,0,0,1,.95-1h4.47a1.13,1.13,0,0,0,1.15-1A1.08,1.08,0,0,0,176.6,95h-4.74a.92.92,0,0,1-.9-1h0v0a.92.92,0,0,1,.9-1h4.95A1.14,1.14,0,0,0,178,92a1.09,1.09,0,0,0-1.09-1.15h-3.63a10.18,10.18,0,0,0,0,18.82h4.61a1.13,1.13,0,0,0,1.14-1,1.08,1.08,0,0,0-1.08-1.14h-5.24a1.09,1.09,0,0,1-1.09-1.14,1.14,1.14,0,0,1,1.15-1h2a1.09,1.09,0,0,0,0-2.17h-3.08a.91.91,0,0,1-.91-.91v-.08a.87.87,0,0,1,.86-.91h6.8a1.14,1.14,0,0,0,1.15-1A1.09,1.09,0,0,0,178.46,99.08Z"/><path class="cls-29" d="M177.08,107.5a7.26,7.26,0,1,1,7.26-7.26A7.27,7.27,0,0,1,177.08,107.5Z"/><path class="cls-30" d="M184.34,100.24A7.26,7.26,0,0,0,177.5,93h-.68a.87.87,0,0,0-.87.78.84.84,0,0,0,.83.88h4a.82.82,0,0,1,.82.87.86.86,0,0,1-.87.78h-1.55a.83.83,0,0,0-.81.83.84.84,0,0,0,.83.83h2.35a.69.69,0,0,1,.69.69v.06a.65.65,0,0,1-.65.69H176.4a.86.86,0,0,0-.87.78.83.83,0,0,0,.82.88h4.92a.7.7,0,0,1,.7.69v0h0a.72.72,0,0,1-.73.73h-3.41a.86.86,0,0,0-.87.79.83.83,0,0,0,.83.87h3.61a.71.71,0,0,1,.69.73h0a.72.72,0,0,1-.69.74h-3.78a.85.85,0,0,0-.87.78.83.83,0,0,0,.83.87h1A7.27,7.27,0,0,0,184.34,100.24Z"/><path class="cls-31" d="M182.15,98.63h-3.53l-1.09-3.35a.47.47,0,0,0-.89,0l-1.1,3.35H172a.47.47,0,0,0-.27.85l2.85,2.08-1.09,3.36a.47.47,0,0,0,.73.52l2.85-2.07,2.86,2.07a.47.47,0,0,0,.72-.52l-1.09-3.36,2.86-2.08A.47.47,0,0,0,182.15,98.63Z"/><path class="cls-32" d="M147.21,28.21A11.49,11.49,0,0,0,145,24.4c-1.42-1.42,4.68,2.29,4.86,3.43s.38-1.29.38-1.29-.58-4.93-1.72-5.72,3.88,2,5.36,5.15"/><path class="cls-33" d="M200.86,14.25l0,2.29-21.51-6.39V7.86Z"/><path class="cls-34" d="M200.83,16.51l-21.51,6.4V10.15Z"/><path class="cls-35" d="M180,33.49V52.32a1.79,1.79,0,0,1-.8.34V33.09c0-1.19-1-1.26-2-1.26l-.05,0a2.52,2.52,0,0,1,.42-.91h1.81A4.21,4.21,0,0,1,180,33.49Z"/><path class="cls-36" d="M179.75,29.24a1.1,1.1,0,0,1,0,1.18l-.33.47H177.6l-.38-.5a1.1,1.1,0,0,1,0-1.18l.38-.57h1.72Z"/><path class="cls-37" d="M179.32,22.91v5.72h-1.71V23.41Z"/><path class="cls-37" d="M179.32,10.15V22.91l-1.71.51V9.64Z"/><path class="cls-37" d="M179.32,7.86v2.29l-1.71-.51V7.34Z"/><path class="cls-37" d="M179.32,7.76v.1l-1.71-.5-1.53-.46h0C176.07,4.15,179.32,3.94,179.32,7.76Z"/><path class="cls-38" d="M179.2,52.65h0A2.64,2.64,0,0,1,177,52.3V33.49a6.17,6.17,0,0,1,.17-1.71l0,0c1,0,2,.07,2,1.25Z"/><polygon class="cls-33" points="177.59 7.34 177.58 7.39 177.58 9.64 152.86 2.35 152.86 0 176.07 6.89 177.59 7.34"/><path class="cls-34" d="M177.58,9.64V23.43L175,24.2V22.73h0A2.5,2.5,0,0,0,177.15,20a2.4,2.4,0,0,0-.4-1.09c-.66-.93-8.93-8.67-23.77-8.67S132.76,15.64,130.92,17s-2.52,4-.23,5.14h0v2.06h0l-25.86-7.71,48-14.16Z"/><path class="cls-33" d="M137.78,15.05a19.47,19.47,0,0,0-7,4.87v2.24h0c-2.28-1.14-1.6-3.78.23-5.14s7.25-6.83,22.08-6.83,23.07,7.73,23.76,8.66a2.5,2.5,0,0,1-.71,3.47,2.36,2.36,0,0,1-1.09.4h0v-2.8c-7.19-7.2-22.3-9.32-33.5-6.16A30.14,30.14,0,0,0,137.78,15.05Z"/><polygon class="cls-39" points="152.86 0 152.86 2.35 104.87 16.51 104.88 14.25 152.86 0"/><path class="cls-34" d="M175,34.5V19.93a19.49,19.49,0,0,0-2.06-1.78c-.19-.13-.37-.27-.57-.4a24.54,24.54,0,0,0-3.09-1.82l-.67-.32c-1.16-.52-2.34-1-3.54-1.37l-.76-.23c-.49-.15-1-.28-1.51-.41s-1-.25-1.55-.36c-.79-.17-1.57-.3-2.38-.43h0a44.32,44.32,0,0,0-13.26,0,1.22,1.22,0,0,0-.38.07,36.51,36.51,0,0,0-3.73.83c-.32.1-.65.18-1,.29s-.62.19-.93.31h-.06l-.86.29h0l-.47.19-.42.18h0q-.72.32-1.41.66h-.06l-.17.09h0c-.26.13-.5.27-.74.4a18.19,18.19,0,0,0-3.92,2.94c-.25.24-.48.5-.7.75V34.59a1.23,1.23,0,0,0,1.42,1.21c3.24-.5,11.48-1.14,19.22,3.55a1.57,1.57,0,0,0,1.58,0c2.86-1.59,12.86-6.74,21-4.14A.78.78,0,0,0,175,34.5Z"/><path class="cls-40" d="M139.77,14.3V34c-.68,0-1.34,0-2,.09s-1.15.11-1.69.19l0-18.44h0l.17-.08h.06c.51-.22,1-.47,1.56-.71a2.52,2.52,0,0,1,.29-.12l.47-.2h0l.86-.3h.06Z"/><path class="cls-8" d="M215.47,113.57c-1,1.2-5,6.23-8.8,5.48-1-.2-.72,0-.89,0a5.74,5.74,0,0,0,4.26,2.74c5,.6,5.43-8.19,5.43-8.19"/><path d="M193.19,120.89c4.4-.38,8.78-2.8,12-5.69l-.64-.34a6.49,6.49,0,0,1,1,2.74,6.67,6.67,0,0,1-.5,1.45,10.93,10.93,0,0,0-.48,3.69c-.07,3.08,0,7.09,2.09,9.6a4,4,0,0,0,1.34,1.08,6.09,6.09,0,0,0,.94.31,6.47,6.47,0,0,1,1.73.45c.66.53.87,2.23,1.13,3s.55,1.93.92,2.85a4.53,4.53,0,0,0,2.8,2.79c1.7.46,3.42-.65,4.36-2l-.75-.5c-.22,7.33-.66,15.24,1.4,22.36,2,6.86,4.75,13.59,9.5,19a.42.42,0,0,0,.5.11l0,0-.5-.11c5.62,6.51,13.74,9.89,22.18,10.81a47.72,47.72,0,0,0,26.17-4.25,40,40,0,0,0,9-6.53l-.58-.22c3.36,4.22,9.1,6.69,14.38,4.65,2.11-.81,1.23-2.26-.35-3.12-2.43-1.31-5.48-2.08-6.12-5.16l-.53.35c3.37,2.25,7.54,3.32,11.44,1.85.91-.34,2-1,1.58-2.17s-2.08-1.45-3.13-1.67a13.24,13.24,0,0,1-4.93-1.6,8.39,8.39,0,0,1-2.5-2.5c-.36-.56-.52-.76-.24-1.34s.69-1.2,1-1.8a48.61,48.61,0,0,0,4.54-12.24c3.78-16.69-.36-34.34-6.56-49.93a161,161,0,0,0-9.26-19.34l0,.55c1.65-2,2.1-4.59,2.49-7.08a67.54,67.54,0,0,0,.73-7.38,47.18,47.18,0,0,0-2.76-19.21,29.19,29.19,0,0,0-5.32-8.71,11.77,11.77,0,0,1-2.83-6c-.24-1.42-.52-2.82-.85-4.22-1.62-6.81-4.31-13.44-9.14-18.61a3.55,3.55,0,0,0-2.61-1.4c-1.7.06-3,1.68-4,2.89-1.39,1.72-2.64,3.56-3.86,5.41a39.69,39.69,0,0,1-4.09,5.92l.72.27a20.22,20.22,0,0,0-2.95-6c-.24-.3-.68-.81-1.1-.45s.12,1.51.19,2a13,13,0,0,1,.11,2.92,6.51,6.51,0,0,0-.16,1.19c0,.05-.1.21-.08.24.74,1.18.33-.38.35-.31a5.68,5.68,0,0,0-1.33-2.12c-.45-.48-1.37-1.46-2.08-1.48-.48,0-.67.3-.59.73.16.84.8,1.69,1,2.54,0,.12.31,1,.18,1,.28-.18-.47-.7-.58-.8a11.44,11.44,0,0,0-2.14-1.37A19.05,19.05,0,0,0,241,26.5c-.55-.11-2.1-.57-2.57,0-.71.85,1.52,1.82,1.89,2.1a28.23,28.23,0,0,1,5.18,5.62l.13-.65c-5.19,1.23-10.47,2.76-15.12,5.44a31.57,31.57,0,0,0-11.4,10.83,30.28,30.28,0,0,0-4,11.72,36.47,36.47,0,0,0-.28,5.53,4.12,4.12,0,0,1,.05,1.1c-.12.22-1.21.48-1.46.58a31.73,31.73,0,0,0-3.84,1.88,14.55,14.55,0,0,0-3.26,2.46c-.61.64-1.59,1.77-1.32,2.75.21.78,1.07,1.08,1.75,1.32A17.91,17.91,0,0,0,211,78l-.26-.92c-1,.26-2.85.56-3,1.82A4.77,4.77,0,0,0,209.07,82l0-.73c-5.24,2.81-10.58,5.46-16,8l.69.58q-.12-5.91-.3-11.83l-.18-5a15.17,15.17,0,0,1-.08-2.23c.11-.83.44-1.66.58-2.5,1-6.08-.42-12.55-2.74-18.2a6,6,0,0,1-.54-1.25c0,.28.12-.22.14-.29a7.36,7.36,0,0,0,.12-.82c.07-.66.11-1.34.12-2a38,38,0,0,0-.84-7.66,76.35,76.35,0,0,0-3.35-11.68c-.47-1.26-1.13-2.47-2.7-2a7.07,7.07,0,0,0-2.29,1.45c-.74.6-1.47,1.22-2.19,1.85-.46.4-.84.55-.84,1.16,0,.46.82.92.82.31,0-.45,1.23-1.2,1.57-1.5s1-.8,1.45-1.19a5.27,5.27,0,0,1,2-1.22c1.12-.25,1.46,1.41,1.75,2.24a72.1,72.1,0,0,1,3.23,12.09,29.86,29.86,0,0,1,.48,7,10.11,10.11,0,0,0-.25,2.42,8.29,8.29,0,0,0,.55,1.26c2.2,5.37,3.57,11.48,2.72,17.28-.14,1-.47,1.88-.63,2.82a10,10,0,0,0,.05,2c.06,1.63.12,3.27.17,4.91q.19,6.12.32,12.26c0,.33.32.74.68.57,5.38-2.55,10.71-5.19,16-8,.28-.15.08-.56,0-.72-.36-.45-1.16-1.49-.94-2.18s1.77-1,2.49-1.2c.49-.13.11-.88-.26-.92a16.13,16.13,0,0,1-4.24-.85c-.69-.27-.86-.49-.48-1.24a6.15,6.15,0,0,1,1.42-1.67,25.31,25.31,0,0,1,8-4.31.31.31,0,0,0,.23-.3,32.52,32.52,0,0,1,2.74-15.6,31.06,31.06,0,0,1,15.78-14.86A67.34,67.34,0,0,1,246,34.47c.29-.07.27-.47.12-.66a40.46,40.46,0,0,0-3.43-4.08,19,19,0,0,0-2.11-1.9c-.34-.26-.7-.48-1.07-.71a1.22,1.22,0,0,0-.28-.17.71.71,0,0,1-.14-.1c-.13-.13-.14,0,0,.4a7.67,7.67,0,0,0,1.08,0,12.42,12.42,0,0,1,2.08.44,15.26,15.26,0,0,1,4.54,2c.43.29,1.77,2,2.31,1.18s-.43-2.67-.72-3.34a5.93,5.93,0,0,1-.41-.85c-.12.24,1.23,1.18,1.29,1.24a4.52,4.52,0,0,1,1.1,1.63,3.78,3.78,0,0,0,.28.82c.56.84,1,.07,1.11-.57.26-1.4.45-3.78-.19-5.1-.05-.1,0-.33-.11-.4-.31-.31.1.51.1.52a10.22,10.22,0,0,1,.77,1.27,28.27,28.27,0,0,1,1.74,4c.1.29.47.53.71.27a30.29,30.29,0,0,0,3.3-4.7c1.06-1.64,2.15-3.27,3.3-4.85a16.46,16.46,0,0,1,3.34-3.81,2.29,2.29,0,0,1,3.38.38c4.75,5,7.34,11.55,8.89,18.14.68,2.9.86,6,2.4,8.58a48,48,0,0,0,3.18,4.08,27.88,27.88,0,0,1,2.65,4.46c2.72,5.77,3.6,12.27,3.53,18.6a66,66,0,0,1-.62,8.31c-.37,2.68-.74,5.61-2.52,7.77-.13.16,0,.4,0,.55,6.64,11.84,12.07,24.57,15,37.86a75.1,75.1,0,0,1,1.62,24.91,50.94,50.94,0,0,1-3.06,12.52,45.3,45.3,0,0,1-2.8,5.94c-.3.53-1,1.3-1,1.93s1,1.83,1.38,2.33a9.91,9.91,0,0,0,5,3.3c1.35.37,3.29.22,4.43,1.09,1.47,1.11-2.93,1.95-3.65,2a12.22,12.22,0,0,1-8-2.33.32.32,0,0,0-.52.34,6.16,6.16,0,0,0,2.84,4.06,20.79,20.79,0,0,0,2.38,1.25c.55.26,1.12.5,1.64.81s1.18.73.39,1.17c-2.11,1.18-5.23,1-7.47.37a12.75,12.75,0,0,1-6.28-4.35c-.1-.13-.38-.39-.58-.22a41.33,41.33,0,0,1-8,6,41.82,41.82,0,0,1-8.78,3.41c-9.64,2.6-21,2.33-30.12-2a28.75,28.75,0,0,1-9.47-7.22.43.43,0,0,0-.5-.12l0,0,.5.12c-4.66-5.32-7.32-12-9.25-18.7a42.66,42.66,0,0,1-1.32-10.37c-.12-3.8-.08-7.6,0-11.4,0-.3-.48-.91-.76-.51-1.27,1.82-3.85,2.71-5.3.56-.93-1.38-1.25-3.36-1.75-4.93a7.12,7.12,0,0,0-.76-2.19c-.37-.42-1.44-.49-2-.63a4.1,4.1,0,0,1-3.19-3,19.61,19.61,0,0,1-.64-9.59c.16-.81.73-1.55.84-2.36.15-1.16-.69-2.37-1.16-3.34-.09-.17-.41-.55-.65-.34-3.19,2.86-7.46,5.24-11.81,5.62-.51,0-.1,1,.36.91Z"/><path d="M111.8,118.85c.2,4.72.28,9.38,2,13.83a47.29,47.29,0,0,0,7.87,13.37,38.64,38.64,0,0,0,4,4.12,13.45,13.45,0,0,0,2,1.69,1.19,1.19,0,0,0,.47.2c.32.08.69,0,1,.05a3.08,3.08,0,0,1,1.17.49.35.35,0,0,0,.47,0,4.53,4.53,0,0,1,6.94-.32.43.43,0,0,0,.5.11,3.3,3.3,0,0,1,3.77.72,4.49,4.49,0,0,1,1,1.52c.3.78.33.7-.15,1.11s-1.08.93-.75,1.69c.72,1.68,4.17,1.78,5.64,1.94a43.23,43.23,0,0,0,6.73.21,29.36,29.36,0,0,0,7.81-1c.61-.2,1.49-.52,1.51-1.29,0-.95-1.18-1.51-1.88-1.85l.37.69c.65-2.48,3.05-4.58,5.61-3a.35.35,0,0,0,.47,0,4.53,4.53,0,0,1,6.94-.32.43.43,0,0,0,.5.11,5.21,5.21,0,0,1,2.28-.19.61.61,0,0,0,.3,0,8.21,8.21,0,0,0,2.07-1.7,31.49,31.49,0,0,0,3.46-3.66,38,38,0,0,0,4.9-8.13,60.62,60.62,0,0,0,3.11-8.68,51.33,51.33,0,0,0,1.42-10c0-.47-.78-.93-.82-.31a50.19,50.19,0,0,1-1.43,9.91,61.21,61.21,0,0,1-3.06,8.51,36.87,36.87,0,0,1-5.06,8.24,28.89,28.89,0,0,1-3.84,3.9,5.46,5.46,0,0,1-1,.78c-.56.26-.27.06-.81.07a5.27,5.27,0,0,0-2.11.39l.5.12a5.25,5.25,0,0,0-8.08.23l.47,0c-2.92-1.81-5.85.22-6.64,3.24a.63.63,0,0,0,.36.7c.7.34,1.53.64.6,1.14a9,9,0,0,1-2.86.72,51.77,51.77,0,0,1-7,.54,39.6,39.6,0,0,1-6-.38,11.82,11.82,0,0,1-3.21-.75c-1.05-.48-.12-1,.59-1.36a.36.36,0,0,0,.13-.38c-.57-3-3.19-5.67-6.4-4.29l.5.12a5.26,5.26,0,0,0-8.08.23l.47,0a5.68,5.68,0,0,0-2.25-.73c-1-.19-1.91-1.24-2.68-1.95a40.93,40.93,0,0,1-4.15-4.48A46,46,0,0,1,116,136a34.93,34.93,0,0,1-2.49-6.31c-.88-3.34-.78-7.09-.93-10.51,0-.46-.85-.92-.82-.31Z"/><path d="M176.24,7.44h0c0-.25-.2-.62-.49-.62.2,0-.19-.06-.28-.09l-1.05-.31-3.63-1.07-10.08-3L153.23.12a2.69,2.69,0,0,0-1.89.13L116.49,10.6l-12,3.58a.3.3,0,0,0-.23.3v2.26a.62.62,0,0,0,.38.59l22.6,6.75,3.26,1-.38-.59c0,2.24,0,4.49,0,6.73l.63-.15a70,70,0,0,0-6.67-7.41c-1.54-1.4-3.55-2.58-5-.48-3.13,4.55-4.3,10.24-4.71,15.66a49.37,49.37,0,0,0-.13,6c0,.25.16.88,0,1.12,0-.06-.37.26-.41.29a6.44,6.44,0,0,0-.65.9,19.76,19.76,0,0,0-1.3,2.17c-2.74,5.27-3.14,11.43-2.51,17.24A78.81,78.81,0,0,0,111.05,75c.43,2,.12,4.27.13,6.28,0,2.49,0,5,0,7.46l.43-.28c-4.46-2.09-8.84-4.35-13.28-6.49l.25.85c.66-.28,1.29-.76.88-1.53-.5-.93-2.07-1.23-3-1.47l.16.89a13.71,13.71,0,0,0,4.93-1.14c1.31-.69.68-2,0-2.91-2.18-3-6.18-4.57-9.51-5.83l.39.59C93,62,90,52.77,83,46.31a35.66,35.66,0,0,0-9-6l.38.47a9.25,9.25,0,0,0-.73-1.85,3.56,3.56,0,0,0-2.18-1.82.31.31,0,0,0-.37.08h0l.47,0a11.35,11.35,0,0,0-5.51-1.29l.45.38,0,0c-.1-.2-.3-.43-.55-.37-.7.16-1.39.37-2.09.53a4.42,4.42,0,0,1-2.28-.12l.32.78A34.16,34.16,0,0,1,66.37,32c.68-.6,1.44-1,2.17-1.55.24-.17.49-.35.5-.68.07-2-5.53.17-6.18.43a16.33,16.33,0,0,0-2.1,1c-.54.32-1.66.89-1.93,1.5l-.2.17c.27.33.4.38.39.16a3.27,3.27,0,0,0,.11-.63,9.59,9.59,0,0,1,.32-1c.2-.59.94-1.54.77-2.17-.46-1.68-2.88.92-3.27,1.44a5,5,0,0,0-.66,1.15c-.06.16-.23.47-.19.64s-.4,1,.41.2c0,0-.16-1-.17-1.05a14.37,14.37,0,0,1,0-1.61,12.33,12.33,0,0,1,.18-1.82,5.17,5.17,0,0,0,.3-1.31.72.72,0,0,0-1-.63c-.63.3-1.22,1.76-1.51,2.32a28.61,28.61,0,0,0-1.69,4l.61,0c-1.79-1.9-3-4.35-4.46-6.51a59.88,59.88,0,0,0-4-5.41c-1-1.12-2.41-2.59-4.06-2.33-1.15.19-1.92,1.19-2.66,2a35,35,0,0,0-6.74,12,59,59,0,0,0-1.76,6.14c-.41,1.76-.6,3.6-1.09,5.33-.86,3-3.12,5-4.83,7.49-.8,1.17-1.42,2.42-2.1,3.65A5.37,5.37,0,0,1,19,56.63l.65.34v0c-.09-.18-.53-.62-.72-.27a8.77,8.77,0,0,0-.84,3.14c-.14,1.39-.35,3.48.84,4.45l-.28-.54a30.36,30.36,0,0,1-.52,3.38c-.17,1.5-.27,3-.32,4.54a65.35,65.35,0,0,0,.27,7.79c.35,3.7.62,8.14,3,11.16l0-.55c-7,12.54-12.76,26.1-15.55,40.26a72.35,72.35,0,0,0-.81,25.91,50.14,50.14,0,0,0,3.8,12.57c.43.94.89,1.86,1.38,2.77.27.5.54,1,.83,1.47a3.75,3.75,0,0,1,.38.65c0,.26-.38.81-.51,1a9.06,9.06,0,0,1-5.34,3.84c-1.47.35-3.16.33-4.49,1.15a1.46,1.46,0,0,0,.06,2.6,9.27,9.27,0,0,0,4.83,1.2A13.22,13.22,0,0,0,13.24,181l-.66-.68c-.62,2.94-3.21,3.92-5.64,5.11-.71.35-2,.85-2.18,1.79-.11.7.49,1.19,1,1.48a11.31,11.31,0,0,0,8,.4,13.59,13.59,0,0,0,6.72-4.7l-.57,0a44.55,44.55,0,0,0,7.9,6,41.29,41.29,0,0,0,8.85,3.53c9.85,2.74,21.43,2.51,30.78-1.86a30.24,30.24,0,0,0,6.17-3.85,28.89,28.89,0,0,0,2.19-1.94c.3-.3.59-.61.88-.92a5,5,0,0,0,.37-.43c.3-.45.32-.09,0-.26a.3.3,0,0,0,.37-.09,44.4,44.4,0,0,0,8.32-15.38,43.13,43.13,0,0,0,2-7.66,72,72,0,0,0,.56-8.93c.06-3.34,0-6.69-.11-10a6.55,6.55,0,0,1,0-1.17c.1-.5.08-.35.6-.53a14.94,14.94,0,0,1,2.14-.37c1.61-.31,3.22-.65,4.83-1s3.33-.83,5-1.31c1.23-.35,2.78-.57,3.73-1.51,1.58-1.59.63-3.54-.24-5.19a47.5,47.5,0,0,0-12.63-14.92l.22.73c1.87-1.86,3.82-3.63,5.56-5.62l-.57,0a26.66,26.66,0,0,0,8,5.79,18.72,18.72,0,0,0,7.47,2.17c.57,0,.3-.93-.16-.93a17.83,17.83,0,0,1-6.94-2,25.37,25.37,0,0,1-8-5.68.38.38,0,0,0-.57-.05c-1.74,2-3.69,3.76-5.56,5.62-.21.22.05.61.22.74A45.26,45.26,0,0,1,104,132.47c.67,1.35.8,2.85-.7,3.73a13.3,13.3,0,0,1-2.92,1c-.91.26-1.82.51-2.74.75q-5,1.29-10.06,2.1a.29.29,0,0,0-.23.3c.16,4.1.25,8.21.18,12.32a49.26,49.26,0,0,1-1.08,11.24,63.89,63.89,0,0,1-3.46,10A44,44,0,0,1,80.3,179c-.52.84-1.07,1.67-1.66,2.47-.23.31-1.74,2.16-1.56,2.25a.31.31,0,0,0-.37.08c-5.78,6.58-14,9.86-22.59,10.64s-17.76-.53-25.55-4.61a41.82,41.82,0,0,1-8.18-6.07c-.16-.14-.41-.25-.57-.05-3.11,3.92-8.27,6.06-13.17,4.44-.64-.21-1.31-.41-.62-1.06a6.16,6.16,0,0,1,1.46-.82c.88-.43,1.78-.81,2.64-1.29a6.09,6.09,0,0,0,3.23-4.13c.06-.31-.28-.94-.67-.68a12.45,12.45,0,0,1-7.4,2.43,12.43,12.43,0,0,1-1.93-.25c-.57-.11-2.22-.36-2.5-1-.51-1.14,3.07-1.58,3.69-1.69A10.21,10.21,0,0,0,9,177.86,9.25,9.25,0,0,0,10.88,176c.38-.49,1.2-1.47,1.14-2.14s-.91-1.6-1.24-2.18c-.57-1-1.11-2.11-1.6-3.2A49.61,49.61,0,0,1,5.52,156.3c-2.7-16.1,1.53-32.79,7.6-47.65a160.25,160.25,0,0,1,8.65-17.9.48.48,0,0,0,0-.55c-1.61-2-2-4.61-2.38-7.12a64.14,64.14,0,0,1-.71-9.29c0-1.8.07-3.61.24-5.4.09-.9.19-1.8.33-2.69A8.49,8.49,0,0,0,19.5,64c-.05-.4-.35-.61-.47-1a8,8,0,0,1-.09-2.92,8.7,8.7,0,0,1,.71-2.75l-.71-.27v0c.11.23.37.5.64.34.61-.34,1.24-.64,1.84-1,1-.55,1.28-2,1.84-3,1.27-2.2,3.09-3.93,4.46-6,2.06-3.16,2.17-7.23,3.13-10.8a43.4,43.4,0,0,1,5-12.09,29.46,29.46,0,0,1,3.43-4.37,3.29,3.29,0,0,1,1.53-1.07c1.23-.31,2.33.76,3.08,1.58a47.11,47.11,0,0,1,4.38,5.94,46.85,46.85,0,0,0,4.39,6.38c.18.18.52.24.62-.05.17-.48,2.43-6.19,3-5.91L56,26.62a10.33,10.33,0,0,1-.4,2.1,15,15,0,0,0,0,2.42c0,.54,0,2,.73,2.27.28.09.39,0,.56-.22a1.84,1.84,0,0,0,.17-.55,4.7,4.7,0,0,1,.9-1.58A6.11,6.11,0,0,1,59.09,30a5.23,5.23,0,0,0,.51-.31c0-.12-.26-.37-.26-.37-.29,0-.76,1.81-.85,2.11-.17.58-.66,2,.11,2.35.3.15.48,0,.74-.14.61-.41,1.09-1,1.73-1.4a16,16,0,0,1,4.21-1.79A16.34,16.34,0,0,1,67,30a7.33,7.33,0,0,0,1.38-.1c.11-.1.27.53,0-.25-.21-.56,0-.14-.24-.13a3.53,3.53,0,0,0-.92.57,14.51,14.51,0,0,0-2.09,1.74,37.83,37.83,0,0,0-3.88,4.51.58.58,0,0,0,.32.79,7.31,7.31,0,0,0,1.81.42,17.61,17.61,0,0,0,3-.79l-.55-.38,0,0c.08.17.24.39.45.39A10.47,10.47,0,0,1,71.33,38a.35.35,0,0,0,.47,0c-.18.19.66.6.8.73a2.79,2.79,0,0,1,.47.75c.15.34.31.93.53,1.32s.45.51.94.75c1,.47,1.89,1,2.8,1.55A31.74,31.74,0,0,1,85,49.4a28.46,28.46,0,0,1,6.43,14.44,36.52,36.52,0,0,1,.29,7.24.63.63,0,0,0,.38.59c2.83,1.08,5.87,2.33,8.09,4.43a4.28,4.28,0,0,1,1.27,1.6c.24.85-.24,1-.88,1.22a17.22,17.22,0,0,1-4.2.85c-.47,0-.14.81.15.89a12.89,12.89,0,0,1,1.63.52c.81.35.69.46,0,.77-.39.17,0,.76.25.86,4.44,2.15,8.82,4.4,13.28,6.49A.31.31,0,0,0,112,89c0-3.91,0-7.81,0-11.72a12.86,12.86,0,0,0-.45-3.45c-.3-1.18-.56-2.36-.78-3.56-1-5.52-1.25-11.39.42-16.81A21.5,21.5,0,0,1,113,49.32a20.47,20.47,0,0,1,1.17-1.84c.34-.48.88-.92,1-1.49a23.06,23.06,0,0,0-.07-3,40.55,40.55,0,0,1,2.58-15.12A23.08,23.08,0,0,1,119.65,24c1-1.6,2.3-1.21,3.65-.06a59.17,59.17,0,0,1,7,7.69c.19.22.65.21.64-.15,0-2.24,0-4.49,0-6.73a.62.62,0,0,0-.39-.59l-22.6-6.75-3.26-1,.39.59a7.44,7.44,0,0,0,0-2c-.13-.37.14-.09-.21,0l.13,0c.32.07,1.06-.31,1.36-.4l6.3-1.87,20.11-6L150,1.66l2.08-.61c.16-.05,1-.19.51-.23a9,9,0,0,1,1.66.5l4,1.18,11.46,3.4,4.41,1.31a7.08,7.08,0,0,0,1.79.53l-.49-.62h0c0,.46.82.92.82.31Z"/><path d="M179.48,28.9V24.36a2.57,2.57,0,0,0,0-.62c-.12-.42.14-.07-.23,0,1.13-.29,2.24-.67,3.35-1L197,18.48c1.23-.37,2.56-.65,3.76-1.13a.32.32,0,0,0,.23-.3l0-2.26a.63.63,0,0,0-.39-.59L181.77,8.61l-2.68-.79.39.59c0-1.3-.35-3.15-1.83-3.56s-2.19,1.06-2.23,2.27c0,.47.79.93.82.31s.36-1.81,1.29-1.71,1.13,1.61,1.13,2.38a.62.62,0,0,0,.38.59l18.85,5.59,2.68.79-.38-.59,0,1.13a5,5,0,0,0,0,.77c.09.46-.13.2.17.08-.23.09-.48.14-.72.21L195,18.06,182.06,21.9l-3.17,1a.3.3,0,0,0-.23.3v5.44c0,.46.82.92.82.31Z"/><path d="M217.21,139c-.12.37-.4.94-.83,1-.19,0-.24-.09-.34-.25a2.44,2.44,0,0,1-.25-.64,3.55,3.55,0,0,1-.18-1.51,1.17,1.17,0,0,1,.3-.61l.06,0,0,0h.16a.75.75,0,0,1,.21.12,1.06,1.06,0,0,1,.21.18,4.06,4.06,0,0,1,.44.49l-.18-.46a.65.65,0,0,0,.1.36,1.06,1.06,0,0,0,.09.11c0-.06,0-.05,0,0a1.77,1.77,0,0,1,.18.42,1.5,1.5,0,0,1,0,.84.6.6,0,0,0,.26.65c.18.11.45.11.52-.13a2.52,2.52,0,0,0,0-1.25,2.56,2.56,0,0,0-.55-1.15l.19.46c0-.34-.31-.63-.53-.86a2.73,2.73,0,0,0-.77-.59,1,1,0,0,0-.82-.08,1.31,1.31,0,0,0-.64.78A3.6,3.6,0,0,0,215,139c.18.71.52,1.7,1.31,1.94s1.5-.67,1.72-1.38a.61.61,0,0,0-.27-.64A.32.32,0,0,0,217.21,139Z"/><path class="cls-11" d="M132.87,156.38c0,1.54-1.22,3.78-2.36,5.53a2.13,2.13,0,0,1-3.75,0c-1.14-1.75-2.36-4-2.36-5.53,0-2.88,1.9-5.2,4.24-5.2S132.87,153.5,132.87,156.38Z"/><path class="cls-11" d="M139.92,156.21c0,1.89-1.55,4.63-3,6.77a2.75,2.75,0,0,1-4.75,0c-1.44-2.14-3-4.88-3-6.77,0-3.51,2.39-6.35,5.35-6.35S139.92,152.7,139.92,156.21Z"/><path class="cls-11" d="M144,156.38c0,1.54-1.22,3.78-2.36,5.53a2.14,2.14,0,0,1-3.76,0c-1.13-1.75-2.35-4-2.35-5.53,0-2.88,1.89-5.2,4.23-5.2S144,153.5,144,156.38Z"/><ellipse class="cls-6" cx="141.56" cy="154.27" rx="0.97" ry="1.99" transform="translate(-54.03 79.56) rotate(-26.55)"/><ellipse class="cls-6" cx="136.47" cy="153.03" rx="1.23" ry="2.53" transform="translate(-63.9 109.51) rotate(-36.02)"/><ellipse class="cls-6" cx="130.17" cy="153.86" rx="1" ry="2.07" transform="translate(-55.05 74.42) rotate(-26.55)"/><path class="cls-11" d="M170.41,156.87c0,1.54-1.23,3.79-2.36,5.53a2.14,2.14,0,0,1-3.76,0c-1.13-1.74-2.35-4-2.35-5.53,0-2.87,1.89-5.2,4.23-5.2S170.41,154,170.41,156.87Z"/><path class="cls-11" d="M177.46,156.71c0,1.88-1.55,4.63-3,6.76a2.75,2.75,0,0,1-4.76,0c-1.43-2.13-3-4.88-3-6.76,0-3.51,2.4-6.36,5.36-6.36S177.46,153.2,177.46,156.71Z"/><path class="cls-11" d="M181.53,156.87c0,1.54-1.23,3.79-2.36,5.53a2.14,2.14,0,0,1-3.76,0c-1.13-1.74-2.36-4-2.36-5.53,0-2.87,1.9-5.2,4.24-5.2S181.53,154,181.53,156.87Z"/><ellipse class="cls-6" cx="179.21" cy="154.86" rx="0.97" ry="1.99" transform="translate(-50.32 96.45) rotate(-26.55)"/><ellipse class="cls-6" cx="174.01" cy="153.55" rx="1.23" ry="2.53" transform="translate(-57.03 131.68) rotate(-36.02)"/><ellipse class="cls-6" cx="167.52" cy="154.51" rx="1" ry="2.07" transform="translate(-51.4 91.19) rotate(-26.55)"/><path d="M181.28,156.5a10.11,10.11,0,0,1-1.67,4.46c-.42.73-.84,1.64-1.67,2-1,.43-1.88-.25-2.43-1.08a.28.28,0,0,0-.45,0c-.78,1.24-1.7,2.87-3.45,2.48-1.43-.32-2.16-2-2.83-3.12a.29.29,0,0,0-.46,0c-.5.84-1.09,1.9-2.24,1.82-.93-.06-1.45-.84-1.89-1.56a12.53,12.53,0,0,1-1.94-4.41c-.49-3.17,2.49-7.21,5.85-5a.29.29,0,0,0,.34,0,4.53,4.53,0,0,1,7.11-.28.3.3,0,0,0,.3.05c3.18-1.46,5.36,1.91,5.43,4.7,0,.25.5.29.5,0-.07-2.77-2-6.07-5.25-5.4-.56.12-.68.24-1.14-.16a5.5,5.5,0,0,0-1-.7,4.86,4.86,0,0,0-2.24-.56A5.28,5.28,0,0,0,168,151.8l.34,0c-3.73-2.41-7.35,2-6.56,5.68a12.22,12.22,0,0,0,1.35,3.23,6.2,6.2,0,0,0,1.81,2.44c1.7,1,3-.34,3.83-1.71h-.46c.83,1.44,1.74,3.3,3.64,3.39s2.7-1.42,3.55-2.78h-.46c.86,1.32,2.47,2,3.79.82a9.36,9.36,0,0,0,1.86-2.93,8.51,8.51,0,0,0,1.06-3.38C181.78,156.29,181.29,156.25,181.28,156.5Z"/><path d="M143.74,156.21a10,10,0,0,1-1.68,4.47,4.1,4.1,0,0,1-1.69,2,2,2,0,0,1-2.44-1.08.29.29,0,0,0-.46,0c-.79,1.25-1.71,2.88-3.48,2.49-1.44-.31-2.18-2-2.85-3.12a.28.28,0,0,0-.46,0c-.51.84-1.11,1.9-2.26,1.82-.94-.06-1.47-.84-1.92-1.57a12.78,12.78,0,0,1-2-4.42c-.5-3.2,2.53-7.23,5.9-5.06a.3.3,0,0,0,.35,0,4.59,4.59,0,0,1,7.17-.28.29.29,0,0,0,.3.05c3.19-1.46,5.41,1.9,5.47,4.72,0,.25.5.28.5,0-.06-2.79-2.07-6.09-5.28-5.42-.57.12-.7.24-1.16-.16a5.5,5.5,0,0,0-1-.7,5.12,5.12,0,0,0-2.27-.57,5.37,5.37,0,0,0-4.12,2.1l.35,0c-3.75-2.42-7.42,2-6.62,5.69a12,12,0,0,0,1.36,3.24,6.12,6.12,0,0,0,1.83,2.45c1.71,1,3-.34,3.85-1.72h-.46c.85,1.45,1.76,3.31,3.67,3.4s2.72-1.42,3.58-2.78h-.46c.87,1.32,2.5,2,3.82.82a9.65,9.65,0,0,0,1.88-2.94,8.51,8.51,0,0,0,1.06-3.39C144.25,156,143.75,156,143.74,156.21Z"/><ellipse class="cls-6" cx="77.1" cy="184.83" rx="0.69" ry="1.38" transform="translate(-120.04 149.63) rotate(-57.23)"/><path class="cls-15" d="M78.89,189.11c1.1,3-1,7-4.46,7.07.11.13.24.25.35.38a5.84,5.84,0,0,0,1.46-5.62,4.89,4.89,0,0,0-3.45-3.37c-.42-.11-.52.33-.11.45a4.22,4.22,0,0,1,3,3.23,5.52,5.52,0,0,1-1.49,5c-.19.18.22.38.35.38a5.7,5.7,0,0,0,5-7.64c-.09-.28-.76-.28-.64.09Z"/><path class="cls-15" d="M77.13,183.55a5.09,5.09,0,0,1,1.73,5.51l.69,0a5.89,5.89,0,0,0-3.74-3.25.85.85,0,0,0-.5,0c-.11,0-.14.12,0,.17a5.63,5.63,0,0,1,3.57,3.13c.05.15.65.14.69,0a5.24,5.24,0,0,0-1.83-5.64.72.72,0,0,0-.48,0c-.07,0-.26.1-.13.19Z"/><path class="cls-15" d="M62.58,193.83c2.59,1.25,4.2,3.86,7.11,4.56,3.47.84,6.23-2.25,6.61-5.48a4.84,4.84,0,0,0-2.69-5.13c-.39-.21-.35.37-.06.5h0c4,1.8,2.13,7.72-1.12,9.27a4.51,4.51,0,0,1-3.75-.07A12.57,12.57,0,0,1,65.16,195,10.81,10.81,0,0,0,62,193"/><path class="cls-15" d="M49.42,201.8c-.13,3.26-3.46,6.31-6.74,5a.64.64,0,0,0-.49,0c-.07,0-.26.14-.1.22a6.1,6.1,0,0,0,8-5.37c0-.17-.71-.13-.72.1Z"/><path class="cls-15" d="M48.92,194.75c2.22,1.68,2.13,4.83.51,6.9l.69.15a6.3,6.3,0,0,0-3.44-5.44.44.44,0,0,0-.5,0,.23.23,0,0,0,.09.37,5.82,5.82,0,0,1,3.15,5c0,.35.52.37.69.16,1.73-2.23,1.72-5.63-.64-7.42a.46.46,0,0,0-.5-.06.2.2,0,0,0,0,.35Z"/><path class="cls-15" d="M23.17,186.73c-2.53.23-6,2.86-4.66,5.74,1.61,3.39,7,3.29,10,4.49,4.16,1.68,5,6,7.87,9,2.55,2.63,6.19,2.22,8.45-.62s1.75-6.68-1.68-8.16c-.43-.18-.25.39,0,.52,4.64,2,1.86,8.06-1.87,9.3-4.64,1.53-6.5-4.54-8.68-7.36-2.42-3.12-5.81-3.63-9.39-4.64-2.09-.59-5.26-1.91-4.13-4.62a5.36,5.36,0,0,1,4.42-3.07c.37,0-.05-.61-.31-.59Z"/><path class="cls-15" d="M229,186.32c-1.1,3,1,7,4.46,7.08l-.35.37a5.86,5.86,0,0,1-1.47-5.62,4.92,4.92,0,0,1,3.46-3.37c.42-.11.52.34.11.45a4.25,4.25,0,0,0-3,3.23,5.51,5.51,0,0,0,1.49,5c.19.19-.22.38-.35.38a5.7,5.7,0,0,1-5-7.63c.09-.28.76-.28.64.08Z"/><path class="cls-15" d="M230.77,180.77a5.08,5.08,0,0,0-1.73,5.51c-.23,0-.47,0-.7,0a5.91,5.91,0,0,1,3.75-3.24.91.91,0,0,1,.49,0c.12,0,.15.13,0,.17a5.66,5.66,0,0,0-3.56,3.13c-.06.16-.65.14-.69,0a5.24,5.24,0,0,1,1.83-5.64.78.78,0,0,1,.48-.06c.07.05.25.1.13.2Z"/><path class="cls-15" d="M245.32,191.05c-2.59,1.24-4.2,3.86-7.12,4.56-3.46.83-6.22-2.26-6.6-5.49a4.83,4.83,0,0,1,2.69-5.13c.39-.21.35.38.06.51h0c-3.95,1.8-2.13,7.71,1.12,9.27a4.55,4.55,0,0,0,3.75-.07,13,13,0,0,0,3.52-2.53,10.6,10.6,0,0,1,3.14-1.93"/><path class="cls-15" d="M258.48,199c.13,3.25,3.46,6.3,6.74,5a.64.64,0,0,1,.49,0c.07,0,.26.15.1.22a6.1,6.1,0,0,1-8.05-5.36c0-.17.71-.13.72.1Z"/><path class="cls-15" d="M259,192c-2.21,1.67-2.12,4.82-.5,6.89l-.7.16a6.36,6.36,0,0,1,3.44-5.45.47.47,0,0,1,.51,0,.22.22,0,0,1-.09.36,5.83,5.83,0,0,0-3.15,5c0,.35-.52.38-.69.16a5.25,5.25,0,0,1,.63-7.41.48.48,0,0,1,.51-.06.2.2,0,0,1,0,.35Z"/><path class="cls-15" d="M284.73,183.94c2.53.23,6,2.87,4.66,5.74-1.61,3.4-7,3.3-9.95,4.5-4.16,1.67-5,6-7.88,9-2.54,2.63-6.18,2.23-8.44-.62s-1.75-6.68,1.68-8.15c.43-.19.25.39,0,.52-4.64,2-1.86,8,1.87,9.29,4.64,1.54,6.5-4.54,8.68-7.35,2.42-3.13,5.81-3.63,9.38-4.64,2.1-.6,5.27-1.91,4.14-4.63a5.35,5.35,0,0,0-4.42-3.06c-.37,0,.05-.61.31-.6Z"/></g></g></svg>