<svg xmlns="http://www.w3.org/2000/svg" viewBox="0 0 136.28 136.74"><defs><style>.cls-1{fill:#afafaf;}.cls-2{fill:#40719c;}.cls-3{fill:#fff;}</style></defs><g id="Laag_2" data-name="Laag 2"><g id="Laag_1-2" data-name="Laag 1"><rect class="cls-1" x="0.37" y="14.34" width="114.28" height="102.04" rx="12.85"/><path class="cls-2" d="M12.76,14.27H101.9A12.75,12.75,0,0,1,114.66,27V51.14H.37V26.66A12.39,12.39,0,0,1,12.76,14.27Z"/><circle class="cls-2" cx="107.46" cy="108.21" r="28.47"/><path class="cls-1" d="M26.28,32.7a9.55,9.55,0,0,1-9.55-9.55V12.29S16.71.68,26.28.11s9.55,12.18,9.55,12.18V23.15a9.55,9.55,0,0,1-9.55,9.55Z"/><path class="cls-1" d="M89.83,32.7a9.54,9.54,0,0,1-9.55-9.55V12.29S80.26.68,89.83.11s9.55,12.18,9.55,12.18V23.15a9.55,9.55,0,0,1-9.55,9.55Z"/><path class="cls-3" d="M119.71,112.37H107.46a2.12,2.12,0,0,1-2.12-2.12V98a2.13,2.13,0,0,1,4.25,0v10.17h10.12a2.13,2.13,0,0,1,0,4.25Z"/><rect class="cls-3" x="20.78" y="61.27" width="12.24" height="8.16" rx="1.7"/><rect class="cls-3" x="41.19" y="61.27" width="12.24" height="8.16" rx="1.7"/><rect class="cls-3" x="61.6" y="61.27" width="12.24" height="8.16" rx="1.7"/><rect class="cls-3" x="20.78" y="77.6" width="12.24" height="8.16" rx="1.7"/><rect class="cls-3" x="41.19" y="77.6" width="12.24" height="8.16" rx="1.7"/><rect class="cls-3" x="20.78" y="93.93" width="12.24" height="8.16" rx="1.7"/><rect class="cls-3" x="41.19" y="93.93" width="12.24" height="8.16" rx="1.7"/><rect class="cls-3" x="61.6" y="77.6" width="12.24" height="8.16" rx="1.7"/><rect class="cls-3" x="82.01" y="61.27" width="12.24" height="8.16" rx="1.7"/><path d="M16.4,14.38v.07l.47-.38c-2.49,0-5-.16-7.4.57A13.25,13.25,0,0,0,0,27.3l.66-.22A12.31,12.31,0,0,1,7,15.94c3-1.61,6.26-1.4,9.55-1.4.3,0,.7-.54.28-.54-2.48,0-5.05-.2-7.46.47a13,13,0,0,0-8.21,7A13.64,13.64,0,0,0,0,27.3c0,.34.66.09.66-.22a12.63,12.63,0,0,1,6.53-11c3-1.6,6.12-1.48,9.36-1.48.22,0,.47-.14.47-.38v-.07C17.06,13.82,16.4,14.07,16.4,14.38Z"/><path d="M80,14.07c0,.09.16,0,0,0H35.64l.47.45s-.16,0,0,0a.89.89,0,0,0,.23,0H80.46c.27,0-.18-.51-.36-.51H35.64s-.1,0-.1.06v.07a.6.6,0,0,0,.47.45H80.46s.1,0,.1-.05v-.07C80.56,14.26,80,13.91,80,14.07Z"/><path d="M115,26.67A13.49,13.49,0,0,0,102.4,14.22c-1.11-.08-2.22,0-3.33,0l.63.29a19.4,19.4,0,0,1,2.94-.05,11.69,11.69,0,0,1,6.26,2,12.8,12.8,0,0,1,5.42,9.93c0,.17.64.28.65.29a13.38,13.38,0,0,0-12.59-12.53c-1.1-.07-2.21,0-3.31,0h0v.07c0,.14.52.3.63.3,1.08,0,2.17,0,3.25,0a11.73,11.73,0,0,1,6,2.09,12.89,12.89,0,0,1,5.37,9.77C114.33,26.55,115,26.65,115,26.67Z"/><path d="M114.37,26.82V27l.58.4c0-.14,0-.28,0-.41l-.58-.41c0,.09,0,.17,0,.25s0,.07.06.09a1.56,1.56,0,0,0,.2.16l.21.13s.11,0,.11,0a1.93,1.93,0,0,0,0-.24s0,0,0,0l-.05-.06-.2-.15-.21-.13s-.11-.05-.11,0,0,.28,0,.42,0,.07.06.09a1.56,1.56,0,0,0,.2.16l.21.13s.11,0,.11,0v-.17s0-.07-.07-.09a1,1,0,0,0-.19-.15,1,1,0,0,0-.22-.13S114.37,26.8,114.37,26.82Z"/><path d="M135.58,108.26a28.72,28.72,0,0,1-14.49,24.8,28,28,0,0,1-30.91-2.55,28.7,28.7,0,0,1-9.63-14.18l-.06,0H13.75A13,13,0,0,1,3.15,111a13.59,13.59,0,0,1-2.43-8.14V29.29c0-1,0-2.09,0-3.13A12.81,12.81,0,0,1,11.57,14.49a39.35,39.35,0,0,1,4.86-.09c.07,0,.65,0,.65-.11,0-4.3.54-9,4-12.06a8.19,8.19,0,0,1,10.51-.3c2.07,1.79,3.07,4.55,3.56,7.17a29.27,29.27,0,0,1,.34,5.29,0,0,0,0,0,.05,0H80c.07,0,.65,0,.65-.11,0-4.3.54-9,4-12.06,2.89-2.52,7.54-2.87,10.5-.3C97.2,3.72,98.2,6.48,98.68,9.1A28.4,28.4,0,0,1,99,14.39a0,0,0,0,0,0,0,31.45,31.45,0,0,1,4.12.11,12.85,12.85,0,0,1,11.11,12.75c0,2.8,0,5.6,0,8.4V79.48a3.62,3.62,0,0,0,0,1.09.66.66,0,0,1,0,.14h0a28.44,28.44,0,0,1,21.26,27.54s.7,0,.7-.1A28.51,28.51,0,0,0,116,80.86c-.65-.19-.94,0-.94-.62V34.65c0-2.49,0-5,0-7.48a13,13,0,0,0-3.9-9.25,13.38,13.38,0,0,0-9.56-3.64h-1c-.14,0-.71.08-.81,0a6.11,6.11,0,0,1,0-1.43c0-.42,0-.83,0-1.25a18.71,18.71,0,0,0-1.19-5.73,8.78,8.78,0,0,0-5-5.37,10.46,10.46,0,0,0-8.14.77c-3.78,2.09-5.4,6.86-5.49,11,0,.72,0,1.44,0,2.15l.65-.11H37.66a4.59,4.59,0,0,1-1.48,0,5.69,5.69,0,0,1,0-1.1c0-.36,0-.71,0-1.07a17.72,17.72,0,0,0-1.62-7.2,8.82,8.82,0,0,0-3.28-3.82A8.57,8.57,0,0,0,26,.09,9.71,9.71,0,0,0,17.7,6.15a16.54,16.54,0,0,0-1.32,6.24c0,.67,0,1.33,0,2l.65-.11A36.3,36.3,0,0,0,11,14.5a13.24,13.24,0,0,0-7.79,4.33A13,13,0,0,0,0,27.26v73.15a35.93,35.93,0,0,0,.12,4.87A13,13,0,0,0,13,116.44c5.29,0,10.59,0,15.89,0H78.9a3.22,3.22,0,0,1,.76,0c.4.11.21.1.41.7a28.49,28.49,0,0,0,23,19.3A29.81,29.81,0,0,0,121.77,133a28.44,28.44,0,0,0,14.51-24.82S135.58,108.17,135.58,108.26Z"/></g></g></svg>