<svg xmlns="http://www.w3.org/2000/svg" viewBox="0 0 125.48 187.13"><defs><style>.cls-1{fill:#40719c;}.cls-2,.cls-3{fill:#164e5e;}.cls-2{opacity:0.6;}.cls-3{opacity:0.29;}.cls-4{fill:#f6af97;}.cls-5{fill:#5284c4;}.cls-6{fill:#629bd3;}.cls-16,.cls-26,.cls-7{fill:#fff;}.cls-8{fill:#34607f;}.cls-9{fill:#3b3734;}.cls-10{fill:#fab400;}.cls-11{fill:#e95655;}.cls-12{fill:#ec6463;}.cls-13{fill:#fecd5d;}.cls-14{fill:#fbbb4d;}.cls-15{fill:#ffdb71;}.cls-16{opacity:0.2;}.cls-16,.cls-26{isolation:isolate;}.cls-17{fill:#ed9b24;}.cls-18{fill:none;stroke:#13505f;stroke-miterlimit:10;stroke-width:0.41px;}.cls-19{fill:#010202;}.cls-20{fill:#1b1b1b;}.cls-21{fill:#fcc016;}.cls-22{fill:#c42c28;}.cls-23{fill:#ee7148;}.cls-24{fill:#ffd551;}.cls-25{fill:#343434;}.cls-26{opacity:0.5;}</style></defs><g id="Laag_2" data-name="Laag 2"><g id="Laag_1-2" data-name="Laag 1"><path class="cls-1" d="M107.53,84.59s14.76,17.67,16.11,21.92,2.68,10.52-1.35,16.56-16.1,19.46-16.1,19.46Z"/><path class="cls-2" d="M109.28,96.91s1.41,13,1.66,18.49-2.37,12.33-2.37,12.33S109.34,100.91,109.28,96.91Z"/><path class="cls-1" d="M17.94,85S3.18,102.69,1.84,106.94-.85,117.46,3.18,123.5,19.29,143,19.29,143Z"/><path class="cls-2" d="M16.19,97.34s-1.41,13-1.66,18.49,2.37,12.33,2.37,12.33S16.13,101.34,16.19,97.34Z"/><ellipse class="cls-3" cx="61.72" cy="179.09" rx="55.4" ry="8.03"/><path class="cls-4" d="M7.07,129.64v.1l-2.3,0C5.56,129.7,6.32,129.68,7.07,129.64Z"/><path class="cls-4" d="M4.77,129.72l-2.31,0v-.1C3.21,129.68,4,129.7,4.77,129.72Z"/><path class="cls-5" d="M16.07,63.37s-.51,70.46,1.79,78.12,13.22,34.22,44.88,34,40.14-18.38,44.48-33.45,1-78.63,1-78.63"/><path class="cls-5" d="M109.72,66.57a25.17,25.17,0,0,1-.93,7.13C105.53,84.93,105.93,98.87,61,98.87c-37.41,0-43.38-14.46-43.38-14.46S7.62,60,19.57,45.82c0,0-1.19-15.3,4.84-24.74.78-1.19,1.73-3.64,5-.89S39.65,31.48,40.3,32.67c0,0,21.81-8.3,45.41,0,0,0,9.46-8.54,11.9-10.28.4-.2,2.71-1.95,3.48.58,0,0,6.61,16.87,4.58,26.25a45.76,45.76,0,0,1,4,17.35"/><path class="cls-6" d="M61.37,58.9C53.87,50.45,39.6,37.62,29.8,43.35s-15,17.85-13.14,28.93c.84,5.11,3.17,10.19,7.38,13.28,3.68,2.71,8.44,3.65,13,3.61A35,35,0,0,0,61.49,78.79c6,4.42,12.72,9.15,20.18,10s15.59-1.64,20.12-7.54c3.19-4.14,4.33-9.53,4.12-14.72-.41-9.95-6-19.82-14.93-24.42S68.07,51.45,61.37,58.9Z"/><path class="cls-2" d="M55.11,82.38c0,.16-2.43,10.2,3.8,12s8.62-4,8.62-4,1.79-3.26,0-8.75S55.11,82.38,55.11,82.38Z"/><path d="M56.61,67.21c-.07,7.13-4.67,14.17-11.76,16.05A17.12,17.12,0,0,1,25.7,58.2a16.13,16.13,0,0,1,8.1-7.12,16.91,16.91,0,0,1,10.41-.35,17.34,17.34,0,0,1,12.4,16.48s1.13-.25,1.13-.53A17.32,17.32,0,0,0,45.29,50.19a18.66,18.66,0,0,0-18.71,5.7A17.17,17.17,0,0,0,44.21,83.72a18,18,0,0,0,13.53-17S56.61,66.93,56.61,67.21Z"/><path d="M99.54,66.58A17.24,17.24,0,0,1,89.22,82.25a16.7,16.7,0,0,1-19-4.06,16.93,16.93,0,0,1-1.8-19.33,17.18,17.18,0,0,1,16.82-8.48,16.3,16.3,0,0,1,14.27,16.2c0,.36,1,1,1,.73A18.36,18.36,0,0,0,89.56,50.83,17.29,17.29,0,0,0,67.81,75.69,18.25,18.25,0,0,0,85.52,84.4a17.43,17.43,0,0,0,15-17.09C100.51,67,99.54,66.33,99.54,66.58Z"/><circle class="cls-7" cx="82.88" cy="67.44" r="17.14"/><path class="cls-5" d="M66.21,28.79A12.55,12.55,0,0,1,69,21.93c-2.18.55-4,2.5-5.43,4.72-2.12-3.79-7.07-5.85-7.07-5.85a17.65,17.65,0,0,1,2.36,7c-1.94-2.24-5.82-3.17-5.82-3.17s4.52,4,3.39,9.51a1.74,1.74,0,0,0,1.21.59c.94.87,3.2.83,4.3.76a7.85,7.85,0,0,0,2.59,0C67.58,35.15,66,32.75,66.21,28.79Z"/><path class="cls-6" d="M100.35,110.2c-1.15,9.57-1.09,32-14,43.15-8.57,7.34-14.5,9.2-22.28,9.6-.75,0-1.51.06-2.3.08s-1.56,0-2.31-.08c-7.78-.4-13.7-2.26-22.28-9.6-13-11.11-12.9-33.58-14.05-43.15S38,97.9,43.62,102.88s17.57,4,18.09,4h0c.58,0,14,0,19.56-4.94S101.5,100.62,100.35,110.2Z"/><circle class="cls-7" cx="40.03" cy="67.44" r="17.14"/><path class="cls-8" d="M47.12,119.21l11.28.25a1.19,1.19,0,0,1,1.15,1.36c-.26,1.87-1.32,5-5.48,4.85-5-.21-7.7-2.51-8.17-5.12A1.18,1.18,0,0,1,47.12,119.21Z"/><path class="cls-8" d="M65,119.21l11.28.25a1.19,1.19,0,0,1,1.15,1.36c-.26,1.87-1.32,5-5.48,4.85-5-.21-7.7-2.51-8.17-5.12A1.19,1.19,0,0,1,65,119.21Z"/><path class="cls-8" d="M55.44,131.21l11.29.25a1.19,1.19,0,0,1,1.15,1.36c-.27,1.87-1.32,5-5.48,4.85-5-.21-7.7-2.51-8.17-5.12A1.18,1.18,0,0,1,55.44,131.21Z"/><ellipse class="cls-7" cx="78.57" cy="66.34" rx="1.63" ry="0.77" transform="translate(-20.3 38.06) rotate(-24.21)"/><ellipse class="cls-7" cx="35.95" cy="66.47" rx="1.63" ry="0.77" transform="translate(-24.1 20.59) rotate(-24.21)"/><path class="cls-9" d="M50.44,60.75a7.91,7.91,0,0,0-6.34-3.84A8.13,8.13,0,0,0,36,65.8,8.13,8.13,0,0,0,46.29,72,8.14,8.14,0,0,0,50.44,60.75Z"/><path class="cls-7" d="M48,59.17a3.67,3.67,0,0,0-2.41-.78c-1.24.14-1.43,1.63-.37,2.87s3.07,1.9,3.91,1.28S49.41,60.18,48,59.17Z"/><path class="cls-9" d="M92.77,60.75a7.92,7.92,0,0,0-6.34-3.84,8.14,8.14,0,0,0-8.09,8.89,7.79,7.79,0,1,0,14.43-5Z"/><path class="cls-7" d="M90.36,59.17A3.67,3.67,0,0,0,88,58.39c-1.24.14-1.43,1.63-.37,2.87s3.07,1.9,3.9,1.28S91.74,60.18,90.36,59.17Z"/><path class="cls-10" d="M69.59,85.54c-1.15-4.21-6.28-11.2-7.47-11.2s-7.65,6.64-9,11c2.3,2.3,5.44,4.15,8.46,4.15S67.54,87.58,69.59,85.54Z"/><path class="cls-10" d="M53.84,87.31a.15.15,0,0,1,.21-.2A13.08,13.08,0,0,0,61.36,90c3.49.06,5.52-1.67,7.33-2.76a.15.15,0,0,1,.19.22L66.47,90s-2.58,3.05-4.9,3.47-6.67-4.79-6.67-4.79Z"/><path class="cls-7" d="M62.15,75.17s5.74,6.63,6.51,10A8.14,8.14,0,0,1,62.6,88.1,70.39,70.39,0,0,0,62.15,75.17Z"/><polygon class="cls-11" points="79.94 114.07 71.88 129.26 79.2 128.59 82.74 135.03 90.81 119.84 79.94 114.07"/><path class="cls-12" d="M80.86,130.61a1,1,0,0,0-.48-1.32l-.46-.25a1,1,0,0,1-.39-1.32,1,1,0,0,1,1.34-.42l1.31.7a.82.82,0,0,0,1.12-.35l0-.06a.8.8,0,0,0-.3-1.11l-3.93-2.08a1,1,0,0,1-.49-1.32,1,1,0,0,1,1.37-.45l3.64,1.93a.84.84,0,0,0,1.13-.35l0,0h0a.87.87,0,0,0-.36-1.19l-2-1.08a1,1,0,0,1-.48-1.33,1,1,0,0,1,1.36-.46l2.26,1.2a.83.83,0,0,0,1.14-.39h0a.83.83,0,0,0-.32-1.16l-2.43-1.29a1,1,0,0,1-.48-1.32,1,1,0,0,1,1.36-.46l6,3.19L82.74,135l-2.22-4A.84.84,0,0,0,80.86,130.61Z"/><polygon class="cls-12" points="95.03 114.07 103.09 129.26 95.77 128.59 92.22 135.03 84.16 119.84 95.03 114.07"/><path class="cls-11" d="M94.1,130.61a1,1,0,0,1,.49-1.32l.46-.25a1,1,0,0,0-1-1.74l-1.32.7a.83.83,0,0,1-1.12-.35l0-.06a.79.79,0,0,1,.3-1.11l3.92-2.08a1,1,0,0,0,.49-1.32,1,1,0,0,0-1.36-.46l-3.64,1.94a.84.84,0,0,1-1.13-.35l0,0h0a.88.88,0,0,1,.36-1.19l2-1.08a1,1,0,0,0,.49-1.33,1,1,0,0,0-1.37-.46l-2.25,1.2a.84.84,0,0,1-1.15-.38v0h0a.84.84,0,0,1,.32-1.16L91,118.43a1,1,0,0,0,.49-1.32,1,1,0,0,0-1.37-.46l-6,3.19L92.22,135l2.23-4A.86.86,0,0,1,94.1,130.61Z"/><circle class="cls-13" cx="87.48" cy="111.58" r="13.48"/><path class="cls-14" d="M89.31,110H80.77a1.21,1.21,0,0,1-1.21-1.21v-.1a1.26,1.26,0,0,1,1.27-1.27h5.91a1.5,1.5,0,0,0,1.53-1.37,1.45,1.45,0,0,0-1.44-1.51H80.57a1.22,1.22,0,0,1-1.2-1.27v0a1.22,1.22,0,0,1,1.2-1.27h6.56a1.49,1.49,0,0,0,1.51-1.36,1.44,1.44,0,0,0-1.44-1.51H82.4a13.47,13.47,0,0,0,0,24.92h6.1A1.49,1.49,0,0,0,90,122.68a1.44,1.44,0,0,0-1.44-1.51H81.63a1.43,1.43,0,0,1-1.43-1.51,1.49,1.49,0,0,1,1.51-1.36H84.4a1.44,1.44,0,0,0,0-2.88H80.28a1.19,1.19,0,0,1-1.19-1.21v-.1a1.14,1.14,0,0,1,1.13-1.21h9a1.5,1.5,0,0,0,1.52-1.35A1.45,1.45,0,0,0,89.31,110Z"/><path class="cls-15" d="M87.48,121.2a9.62,9.62,0,1,1,9.62-9.62A9.64,9.64,0,0,1,87.48,121.2Z"/><path class="cls-16" d="M97.1,111.58A9.62,9.62,0,0,0,88,102h-.89A1.15,1.15,0,0,0,86,103a1.11,1.11,0,0,0,1.1,1.16h5.29a1.1,1.1,0,0,1,1.1,1.15,1.13,1.13,0,0,1-1.16,1h-2a1.1,1.1,0,0,0,0,2.19H93.4a.92.92,0,0,1,.92.92v.08a.87.87,0,0,1-.87.92H86.58a1.14,1.14,0,0,0-1.16,1,1.1,1.1,0,0,0,1.1,1.15H93a.92.92,0,0,1,.92.92v.07h0a1,1,0,0,1-1,1H88.47a1.15,1.15,0,0,0-1.17,1,1.12,1.12,0,0,0,1.1,1.16h4.78a.93.93,0,0,1,.92,1h0v0a.94.94,0,0,1-.92,1h-5a1.13,1.13,0,0,0-1.15,1A1.1,1.1,0,0,0,88.12,121h1.32A9.64,9.64,0,0,0,97.1,111.58Z"/><path class="cls-17" d="M94.2,109.45H89.52L88.07,105a.62.62,0,0,0-1.18,0l-1.44,4.45H80.77a.62.62,0,0,0-.37,1.12l3.79,2.75-1.45,4.45a.63.63,0,0,0,1,.7l3.78-2.75,3.79,2.75a.62.62,0,0,0,1-.7l-1.44-4.45,3.78-2.75A.62.62,0,0,0,94.2,109.45Z"/><path class="cls-18" d="M56.74,30.19a11.84,11.84,0,0,0-2.36-4c-1.49-1.51,5,2.42,5.17,3.64s.39-1.38.39-1.38-.61-5.22-1.82-6.06,4.12,2.09,5.68,5.46"/><path class="cls-19" d="M113.62,15.38l0,2.43L90.79,11V8.61Z"/><path class="cls-20" d="M113.59,17.78l-22.8,6.79V11Z"/><path class="cls-21" d="M91.52,35.79v20a2,2,0,0,1-.85.37V35.36c0-1.26-1.06-1.34-2.08-1.34l0,0A2.67,2.67,0,0,1,89,33H90.9A4.5,4.5,0,0,1,91.52,35.79Z"/><path class="cls-22" d="M91.24,31.28a1.18,1.18,0,0,1,0,1.25L90.9,33H89l-.4-.52a1.14,1.14,0,0,1,0-1.25l.4-.61h1.82Z"/><path class="cls-23" d="M90.79,24.57v6.06H89V25.1Z"/><path class="cls-23" d="M90.79,11V24.56L89,25.11V10.5Z"/><path class="cls-23" d="M90.79,8.61V11L89,10.49V8.06Z"/><path class="cls-23" d="M90.79,8.5v.11L89,8.07l-1.62-.48h0C87.34,4.68,90.79,4.45,90.79,8.5Z"/><path class="cls-24" d="M90.66,56.1h0a2.81,2.81,0,0,1-2.31-.37V35.79A6.58,6.58,0,0,1,88.53,34l0,0c1,0,2.08.08,2.08,1.33Z"/><polygon class="cls-19" points="88.96 8.06 88.95 8.12 88.95 10.5 62.73 2.77 62.73 0.28 87.34 7.58 88.96 8.06"/><path class="cls-20" d="M89,10.5V25.12l-2.79.82V24.38h0a2.66,2.66,0,0,0,2.33-2.95,2.62,2.62,0,0,0-.42-1.15c-.71-1-9.48-9.2-25.21-9.2s-21.43,5.78-23.39,7.24-2.68,4.24-.24,5.46h0V26h0L11.85,17.78l50.89-15Z"/><path class="cls-19" d="M46.74,16.24A20.57,20.57,0,0,0,39.3,21.4v2.38h0c-2.43-1.22-1.7-4,.24-5.46s7.69-7.24,23.41-7.24,24.47,8.2,25.19,9.18A2.67,2.67,0,0,1,87.36,24a2.71,2.71,0,0,1-1.16.42h0v-3c-7.63-7.64-23.65-9.89-35.53-6.53A30.47,30.47,0,0,0,46.74,16.24Z"/><polygon class="cls-25" points="62.73 0.28 62.73 2.77 11.85 17.78 11.86 15.38 62.73 0.28"/><path class="cls-20" d="M86.16,36.86V21.4A22.84,22.84,0,0,0,84,19.52l-.61-.43a27.63,27.63,0,0,0-3.28-1.93l-.71-.33a36.45,36.45,0,0,0-3.76-1.45l-.8-.25-1.6-.44c-.55-.14-1.09-.25-1.65-.38-.83-.17-1.66-.32-2.51-.45h0A47.06,47.06,0,0,0,55,13.91a1.1,1.1,0,0,0-.4.08,35.39,35.39,0,0,0-4,.88l-1,.3-1,.33h-.06l-.91.31h0l-.5.2-.44.19h0c-.51.23-1,.46-1.51.7h-.06L45,17h0c-.27.13-.52.28-.78.42A19.18,19.18,0,0,0,40,20.54c-.26.26-.51.52-.74.79V37a1.29,1.29,0,0,0,1.5,1.28C44.24,37.7,53,37,61.18,42a1.66,1.66,0,0,0,1.68.06c3-1.7,13.63-7.16,22.25-4.4A.81.81,0,0,0,86.16,36.86Z"/><path class="cls-26" d="M48.85,15.44V36.36c-.72,0-1.42,0-2.13.1s-1.21.11-1.79.19L45,17.1h0l.18-.08h.07c.54-.23,1.08-.5,1.64-.76a2.88,2.88,0,0,0,.31-.13c.11,0,.34-.14.5-.2h0l.92-.32h.06Z"/><path d="M87.83,7.66h0c0-.29-.38-.44-.62-.44.48,0,0,0-.17-.08-.39-.13-.78-.23-1.17-.35L82,5.65,71.51,2.52l-8-2.38a3,3,0,0,0-2.12.12l-36.86,11L11.6,15a.3.3,0,0,0-.24.28v2.39c0,.18.21.35.37.4l12.33,3.68-.3-.58C20.33,26.93,19.25,33.83,19,40.4c0,1.14,0,2.28,0,3.42a8.65,8.65,0,0,1,.07,1.76c-.06.3-.28.42-.51.72A21.37,21.37,0,0,0,17,48.62a24.73,24.73,0,0,0-2.22,4.92C12.66,60,12.93,67.09,14.17,73.7q.39,2,.9,4a10.08,10.08,0,0,1,.45,2.1c.06,1.2,0,2.41,0,3.61a24.67,24.67,0,0,1,0,3.33,4,4,0,0,1-1.15,1.81q-1.44,1.77-2.86,3.56c-2.07,2.61-4.11,5.25-6.06,8a33.74,33.74,0,0,0-3.91,6.18A21.32,21.32,0,0,0,0,115.63c.25,3.81,1.92,7,4.16,10,3.93,5.29,8.31,10.27,12.68,15.2a8,8,0,0,1,1.19,2.76c.42,1.17.89,2.33,1.39,3.47A56.44,56.44,0,0,0,24,155.32a45.84,45.84,0,0,0,17.85,16c8,3.92,16.94,4.95,25.79,4.34q3.09-.22,6.15-.72a.29.29,0,0,0,.23-.28c0,.4,5.3-1,5.85-1.12a43.9,43.9,0,0,0,5.41-2,36,36,0,0,0,9.29-6c5.19-4.64,8.71-10.76,11.12-17.23q.87-2.31,1.57-4.67a9.93,9.93,0,0,1,.83-2.5,10.58,10.58,0,0,1,1-1.18q2.9-3.28,5.72-6.63c2-2.4,4-4.83,5.94-7.34s3.7-5.19,4.35-8.4A20.09,20.09,0,0,0,122,102.73c-3.15-4.79-6.78-9.28-10.38-13.73-.66-.83-1.86-1.86-2-2.9a23.58,23.58,0,0,1-.09-3.15c0-1.15-.07-2.3-.11-3.45-.07-2-.44-4.16,0-6.07a29.36,29.36,0,0,0,.81-5.67,39.21,39.21,0,0,0-1.5-11.4c-.64-2.33-1.62-4.5-2.39-6.78a4.57,4.57,0,0,1,.12-2,25.25,25.25,0,0,0,0-4.17,52.18,52.18,0,0,0-1.35-8.69,92,92,0,0,0-3.52-11.58,2.87,2.87,0,0,0-1.14-1.62v.62l13.32-4c.59-.18-.07-.83-.5-.7l-13.32,4c-.37.11-.23.46,0,.62.8.51,1.21,2.53,1.49,3.34q1.11,3.21,2,6.5c1.5,5.6,2.42,11.16,1.77,16.93a1.84,1.84,0,0,0,.28,1.17c.4.92.76,1.85,1.09,2.78A45.13,45.13,0,0,1,109,62.94a31.77,31.77,0,0,1,.12,6,23.72,23.72,0,0,1-.48,3.26,9.24,9.24,0,0,0-.42,2.53l.21,5.74.09,3a11.26,11.26,0,0,0,.1,3,12.26,12.26,0,0,0,2,2.47c.8,1,1.6,2,2.39,3,1.84,2.33,3.66,4.67,5.42,7.06a57.66,57.66,0,0,1,4,5.94,18.56,18.56,0,0,1,2,7.19,16.32,16.32,0,0,1-2.72,10.93c-1.53,2.26-3.27,4.39-5,6.5q-2.94,3.58-6,7.07l-2.52,2.88c-.32.36-.68.71-1,1.09a6.27,6.27,0,0,0-.72,2c-1.9,6.39-4.46,12.67-8.61,17.94a36.6,36.6,0,0,1-18.75,12.29,53.56,53.56,0,0,1-5.87,1.33.29.29,0,0,0-.24.28c0-.3-2.64.13-3,.17-1.19.13-2.39.23-3.59.3a62.64,62.64,0,0,1-7.12.05A45.79,45.79,0,0,1,46,172.34a43.34,43.34,0,0,1-19.64-15,52.49,52.49,0,0,1-7.86-15.21,6.52,6.52,0,0,0-1.63-2.42q-1.5-1.71-3-3.44c-2.26-2.61-4.49-5.25-6.64-8s-4.41-5.38-5.49-8.65A19.27,19.27,0,0,1,2,108.29a20.33,20.33,0,0,1,3.16-6c1.79-2.6,3.71-5.11,5.64-7.6,1.78-2.28,3.62-4.5,5.41-6.77.49-.61.34-1.19.34-2V82.23a19.53,19.53,0,0,0,0-2.76A15.21,15.21,0,0,0,16,77.71c-1.6-6.27-2.4-12.95-1.35-19.37a26,26,0,0,1,3.7-10c.48-.74,1.56-1.68,1.7-2.53A9.93,9.93,0,0,0,20,44.14,49.93,49.93,0,0,1,22.3,26.71a26.94,26.94,0,0,1,2.3-5c.15-.25-.05-.5-.3-.58L12,17.45l.36.4a6.68,6.68,0,0,0,0-2.14c-.15-.32.19-.14-.21,0l.13,0a9.72,9.72,0,0,0,1.46-.43l6.75-2L41.83,6.91,60.11,1.48,62.29.83A1.77,1.77,0,0,0,62.8.68c.23-.15.29.09-.16-.07,2,.71,4.08,1.21,6.11,1.82L81,6.06l4.66,1.38A7.48,7.48,0,0,0,87.49,8l-.63-.44h0c0,.44,1,.65,1,.14Z"/><path d="M114.07,17.85l0-2.39c0-.18-.21-.35-.36-.4l-20-5.93-2.83-.84.36.4c0-1.4-.43-3.27-2-3.59s-2.31,1.09-2.36,2.41c0,.44,1,.65,1,.14,0-.7.43-2.14,1.44-1.81s1,1.93,1,2.71c0,.18.21.35.37.4l20,5.93,2.83.84-.37-.4,0,2.39c0,.44,1,.65,1,.14Z"/><path class="cls-10" d="M40,172.3c0,1.77-1.4,4.33-2.69,6.32a2.44,2.44,0,0,1-4.29,0c-1.29-2-2.69-4.55-2.69-6.32,0-3.27,2.17-5.93,4.84-5.93S40,169,40,172.3Z"/><path class="cls-10" d="M48.08,172.12c0,2.15-1.77,5.29-3.4,7.72a3.14,3.14,0,0,1-5.43,0c-1.63-2.43-3.4-5.57-3.4-7.72,0-4,2.74-7.26,6.11-7.26S48.08,168.11,48.08,172.12Z"/><path class="cls-10" d="M52.72,172.3c0,1.77-1.39,4.33-2.69,6.32a2.44,2.44,0,0,1-4.29,0c-1.29-2-2.69-4.55-2.69-6.32,0-3.27,2.17-5.93,4.84-5.93S52.72,169,52.72,172.3Z"/><path d="M52.53,172.32a11.3,11.3,0,0,1-1.9,5,4.77,4.77,0,0,1-1.93,2.25c-1.19.49-2.18-.27-2.82-1.22a.29.29,0,0,0-.46,0c-.91,1.43-2,3.25-4,2.81-1.64-.36-2.48-2.21-3.26-3.52a.28.28,0,0,0-.46,0c-.59,1-1.27,2.14-2.59,2.06-1.07-.07-1.68-.94-2.2-1.78a14.1,14.1,0,0,1-2.21-5c-.58-3.66,2.92-8.12,6.73-5.69a.3.3,0,0,0,.35,0A5.26,5.26,0,0,1,46,167a.3.3,0,0,0,.3.06c3.61-1.64,6.18,2.09,6.25,5.31,0,.25.51.28.5,0-.07-3.12-2.32-6.75-5.9-6-.59.11-.74.27-1.26-.07s-.72-.59-1.14-.82a5.7,5.7,0,0,0-2.52-.7A6.07,6.07,0,0,0,37.39,167l.35,0c-4.19-2.67-8.36,2.18-7.44,6.36A13.34,13.34,0,0,0,31.83,177a7,7,0,0,0,2.06,2.74c1.92,1.15,3.37-.38,4.32-1.92h-.46c1,1.63,2,3.7,4.13,3.8s3-1.58,4-3.11h-.46c1,1.48,2.78,2.2,4.27.92a10.74,10.74,0,0,0,2.12-3.29,9.3,9.3,0,0,0,1.2-3.8C53,172.1,52.54,172.07,52.53,172.32Z"/><ellipse class="cls-7" cx="49.87" cy="170.35" rx="1.1" ry="2.27" transform="translate(-70.9 40.26) rotate(-26.55)"/><ellipse class="cls-7" cx="44.07" cy="168.93" rx="1.4" ry="2.89" transform="translate(-90.92 58.21) rotate(-36.02)"/><ellipse class="cls-7" cx="36.86" cy="169.89" rx="1.15" ry="2.36" transform="translate(-72.06 34.4) rotate(-26.55)"/><path class="cls-10" d="M82.88,172.87c0,1.76-1.4,4.32-2.69,6.31a2.44,2.44,0,0,1-4.29,0c-1.3-2-2.69-4.55-2.69-6.31,0-3.28,2.16-5.93,4.83-5.93S82.88,169.59,82.88,172.87Z"/><path class="cls-10" d="M90.93,172.68c0,2.16-1.77,5.29-3.41,7.73a3.13,3.13,0,0,1-5.42,0c-1.64-2.44-3.41-5.57-3.41-7.73,0-4,2.74-7.25,6.12-7.25S90.93,168.68,90.93,172.68Z"/><path class="cls-10" d="M95.57,172.87c0,1.76-1.4,4.32-2.69,6.31a2.44,2.44,0,0,1-4.29,0c-1.29-2-2.69-4.55-2.69-6.31,0-3.28,2.16-5.93,4.83-5.93S95.57,169.59,95.57,172.87Z"/><path d="M95.32,172.85a11.37,11.37,0,0,1-1.9,5c-.5.83-1,1.86-1.93,2.25-1.2.49-2.18-.27-2.82-1.22a.29.29,0,0,0-.46,0c-.91,1.43-2,3.25-4,2.81-1.64-.36-2.48-2.21-3.25-3.52a.29.29,0,0,0-.46,0c-.59,1-1.28,2.15-2.59,2.06-1.08-.07-1.68-.94-2.2-1.77a14,14,0,0,1-2.21-5c-.58-3.67,2.92-8.13,6.73-5.7a.3.3,0,0,0,.35,0,5.26,5.26,0,0,1,8.17-.31.3.3,0,0,0,.3,0c3.61-1.64,6.17,2.09,6.25,5.31,0,.25.5.28.5,0-.07-3.13-2.33-6.76-5.91-6.06-.58.12-.74.27-1.25-.07s-.72-.58-1.15-.82a5.69,5.69,0,0,0-2.52-.69,6,6,0,0,0-4.81,2.33l.34,0c-4.18-2.67-8.35,2.17-7.43,6.36a13,13,0,0,0,1.53,3.62,6.93,6.93,0,0,0,2.06,2.74c1.91,1.15,3.37-.38,4.31-1.91h-.46c1,1.62,2,3.7,4.13,3.79s3-1.58,4-3.1h-.46c1,1.47,2.79,2.19,4.28.92a10.91,10.91,0,0,0,2.12-3.3,9.31,9.31,0,0,0,1.2-3.79C95.83,172.64,95.33,172.6,95.32,172.85Z"/><ellipse class="cls-7" cx="92.85" cy="171.02" rx="1.1" ry="2.27" transform="translate(-66.66 59.55) rotate(-26.55)"/><ellipse class="cls-7" cx="86.91" cy="169.53" rx="1.4" ry="2.89" transform="translate(-83.07 83.52) rotate(-36.02)"/><ellipse class="cls-7" cx="79.5" cy="170.63" rx="1.15" ry="2.36" transform="translate(-67.89 53.54) rotate(-26.55)"/></g></g></svg>