<svg xmlns="http://www.w3.org/2000/svg" viewBox="0 0 129.91 124.27"><defs><style>.cls-1{fill:#afafaf;}.cls-2{fill:#629bd3;}.cls-3{fill:#fff;}.cls-4{fill:#40719c;}</style></defs><g id="Laag_2" data-name="Laag 2"><g id="Laag_1-2" data-name="Laag 1"><ellipse class="cls-1" cx="64.96" cy="62.14" rx="63.55" ry="61.87"/><path class="cls-2" d="M52.53,69.24c6.47,5.77,10.58,0,10.58,0s22.21-32,18.77-31.47S52.53,60.51,52.53,60.51,49.49,66.53,52.53,69.24Z"/><path class="cls-3" d="M18.34,66.09H1.4a1.41,1.41,0,0,1,0-2.81H18.34a1.41,1.41,0,0,1,0,2.81Z"/><path class="cls-3" d="M24.74,43.27a1.35,1.35,0,0,1-.72-.2L9.15,34.16a1.4,1.4,0,0,1,1.44-2.41l14.87,8.91a1.4,1.4,0,0,1-.72,2.61Z"/><path class="cls-3" d="M42,26.3a1.41,1.41,0,0,1-1.23-.74l-8.1-14.85a1.4,1.4,0,1,1,2.46-1.35L43.2,24.22A1.42,1.42,0,0,1,42,26.3Z"/><path class="cls-3" d="M65.12,20.07a1.41,1.41,0,0,1-1.41-1.4V2.11a1.41,1.41,0,0,1,2.81,0V18.67A1.4,1.4,0,0,1,65.12,20.07Z"/><path class="cls-3" d="M88.71,26.3a1.45,1.45,0,0,1-.67-.17,1.41,1.41,0,0,1-.57-1.91l7.82-14.5a1.41,1.41,0,0,1,1.9-.57,1.39,1.39,0,0,1,.57,1.9L90,25.56A1.42,1.42,0,0,1,88.71,26.3Z"/><path class="cls-3" d="M105.93,43.27a1.4,1.4,0,0,1-.69-2.62l14.32-8.21a1.41,1.41,0,0,1,1.4,2.44l-14.33,8.21A1.46,1.46,0,0,1,105.93,43.27Z"/><path class="cls-3" d="M128.51,66.09H111.86a1.41,1.41,0,0,1,0-2.81h16.65a1.41,1.41,0,0,1,0,2.81Z"/><path class="cls-4" d="M124.71,83.24C115.86,107,92.46,124,65,124S14.08,107,5.2,83.24Z"/><path d="M128.08,61.89A61.13,61.13,0,0,1,116.8,97.08a63.74,63.74,0,0,1-29.23,22.48,65.36,65.36,0,0,1-38.95,2.21A62.63,62.63,0,0,1,16.19,101.5a60.51,60.51,0,0,1-5.51-70.63A63.48,63.48,0,0,1,38,6.53,65.37,65.37,0,0,1,76.33,1.45,62.87,62.87,0,0,1,110.48,19.2a60.73,60.73,0,0,1,17.6,42.69c0,.27.86.5.86.49a61.21,61.21,0,0,0-11.78-35.94A65,65,0,0,0,87.65,4.18,65.92,65.92,0,0,0,48.48,2,64.08,64.08,0,0,0,16.1,21.82,60.63,60.63,0,0,0,10.19,94,64.62,64.62,0,0,0,38,118.31a66,66,0,0,0,38.58,5,64.35,64.35,0,0,0,34-17.41,61.51,61.51,0,0,0,17.6-33.79,62.21,62.21,0,0,0,.78-9.74C128.94,62.11,128.08,61.87,128.08,61.89Z"/></g></g></svg>