<svg xmlns="http://www.w3.org/2000/svg" viewBox="0 0 125.22 197.4"><defs><style>.cls-1{fill:#40719c;}.cls-2,.cls-3{fill:#164e5e;}.cls-2{opacity:0.6;}.cls-3{opacity:0.29;}.cls-4{fill:#f6af97;}.cls-5{fill:#5284c4;}.cls-6{fill:#629bd3;}.cls-14,.cls-21,.cls-7{fill:#fff;}.cls-8{fill:#34607f;}.cls-9{fill:#3b3734;}.cls-10{fill:#fab400;}.cls-11,.cls-12,.cls-16{fill:none;stroke-miterlimit:10;}.cls-11,.cls-16{stroke:#13505f;}.cls-11,.cls-12{stroke-linecap:round;stroke-width:0.42px;}.cls-11{opacity:0.8;}.cls-11,.cls-13,.cls-14,.cls-18,.cls-19,.cls-20,.cls-21{isolation:isolate;}.cls-12{stroke:#5ca9c6;}.cls-13{fill:#343333;}.cls-13,.cls-14,.cls-18{opacity:0.2;}.cls-15{fill:#13505f;}.cls-16{stroke-width:0.41px;}.cls-17{fill:#f7b232;}.cls-18,.cls-20{fill:#18162f;}.cls-19{fill:#181730;opacity:0.42;}.cls-20,.cls-21{opacity:0.3;}</style></defs><g id="Laag_2" data-name="Laag 2"><g id="Laag_1-2" data-name="Laag 1"><path class="cls-1" d="M107.56,96.52s14.77,17.67,16.11,21.92S126.36,129,122.33,135s-16.11,19.46-16.11,19.46Z"/><path class="cls-2" d="M109.31,108.84s1.41,13,1.67,18.49-2.38,12.32-2.38,12.32S109.37,112.84,109.31,108.84Z"/><path class="cls-1" d="M18,97S3.21,114.62,1.87,118.87s-2.68,10.52,1.34,16.56,16.11,19.46,16.11,19.46Z"/><path class="cls-2" d="M16.23,109.27s-1.41,13-1.67,18.49,2.38,12.32,2.38,12.32S16.17,113.27,16.23,109.27Z"/><ellipse class="cls-3" cx="62.01" cy="189.37" rx="55.4" ry="8.03"/><path class="cls-4" d="M7.36,139.92v.1l-2.3,0C5.85,140,6.61,140,7.36,139.92Z"/><path class="cls-4" d="M5.06,140l-2.31,0v-.1C3.5,140,4.27,140,5.06,140Z"/><path class="cls-5" d="M16.36,73.64s-.51,70.47,1.79,78.13S31.37,186,63,185.73s40.14-18.38,44.48-33.45,1-78.64,1-78.64"/><path class="cls-5" d="M110,76.85a25.17,25.17,0,0,1-.93,7.13c-3.26,11.23-2.86,25.17-47.75,25.17C23.92,109.15,18,94.69,18,94.69s-10-24.38,1.91-38.6c0,0-1.19-15.29,4.84-24.73.78-1.2,1.73-3.65,5-.9S39.94,41.76,40.59,43c0,0,21.81-8.3,45.41,0,0,0,9.46-8.54,11.9-10.28.4-.2,2.71-2,3.48.58,0,0,6.61,16.87,4.58,26.25A45.76,45.76,0,0,1,110,76.85"/><path class="cls-6" d="M64.66,69.93c-7.5-8.45-24.77-22-34.56-16.3S15.13,71.48,17,82.56c.84,5.11,3.17,10.19,7.38,13.28,3.68,2.71,8.44,3.65,13,3.61A35.07,35.07,0,0,0,61.78,89.07c6,4.42,14.84,6.63,22.31,7.45s15.32-2.21,19.86-8.1c3.18-4.14,2.27-5.12,2.25-11.66,0-6.74-2.3-13-12.64-16.68C84.07,56.7,71.36,62.49,64.66,69.93Z"/><path class="cls-2" d="M55.4,92.66c0,.15-2.42,10.2,3.8,12s8.62-4,8.62-4,1.79-3.26,0-8.75S55.4,92.66,55.4,92.66Z"/><path d="M56.9,77.49c-.07,7.13-4.66,14.17-11.76,16.05A17.12,17.12,0,0,1,26,68.48a16.2,16.2,0,0,1,8.1-7.13A16.91,16.91,0,0,1,44.5,61,17.34,17.34,0,0,1,56.9,77.49S58,77.24,58,77a17.34,17.34,0,0,0-12.45-16.5,18.7,18.7,0,0,0-18.71,5.7A17.17,17.17,0,0,0,44.5,94,18,18,0,0,0,58,77C58,77,56.9,77.2,56.9,77.49Z"/><circle class="cls-6" cx="83.17" cy="77.72" r="17.14"/><path class="cls-5" d="M66.5,39.07a12.55,12.55,0,0,1,2.82-6.86c-2.18.55-4,2.5-5.43,4.72-2.12-3.8-7.07-5.85-7.07-5.85a17.65,17.65,0,0,1,2.36,7C57.24,35.88,53.36,35,53.36,35s4.52,4,3.39,9.51a1.74,1.74,0,0,0,1.21.59c.94.87,3.2.83,4.3.76a8.13,8.13,0,0,0,2.59,0C67.87,45.43,66.25,43,66.5,39.07Z"/><path class="cls-6" d="M100.64,120.48c-1.15,9.57-1.09,32-14,43.15-8.57,7.34-14.5,9.2-22.28,9.6-.75,0-1.51.06-2.3.08s-1.56,0-2.31-.08c-7.78-.4-13.7-2.26-22.28-9.6-13-11.11-12.9-33.58-14-43.15s14.91-12.31,20.54-7.33,17.57,4,18.09,4h0c.58,0,14,0,19.56-4.94S101.79,110.9,100.64,120.48Z"/><circle class="cls-7" cx="40.32" cy="77.72" r="17.14"/><path class="cls-8" d="M47.41,129.49l11.28.25a1.19,1.19,0,0,1,1.15,1.36c-.26,1.87-1.32,5-5.48,4.85-5-.21-7.7-2.51-8.17-5.12A1.19,1.19,0,0,1,47.41,129.49Z"/><path class="cls-8" d="M65.31,129.49l11.28.25a1.19,1.19,0,0,1,1.15,1.36c-.26,1.87-1.32,5-5.48,4.85-5-.21-7.7-2.51-8.17-5.12A1.19,1.19,0,0,1,65.31,129.49Z"/><path class="cls-8" d="M55.73,141.49l11.29.25a1.19,1.19,0,0,1,1.15,1.36c-.27,1.87-1.32,5-5.48,4.85-5-.21-7.7-2.51-8.17-5.12A1.18,1.18,0,0,1,55.73,141.49Z"/><ellipse class="cls-7" cx="36.24" cy="76.75" rx="1.63" ry="0.77" transform="translate(-28.29 21.61) rotate(-24.21)"/><path class="cls-9" d="M45.94,73a7.92,7.92,0,0,0-6.34-3.84,8.14,8.14,0,0,0-8.09,8.89A8.14,8.14,0,0,0,41.79,84.3,8.14,8.14,0,0,0,45.94,73Z"/><path class="cls-7" d="M43.53,71.45a3.63,3.63,0,0,0-2.41-.79c-1.24.14-1.43,1.63-.38,2.87s3.08,1.91,3.91,1.28S44.91,72.45,43.53,71.45Z"/><path class="cls-10" d="M69.88,95.82c-1.15-4.21-6.28-11.21-7.47-11.21s-7.65,6.65-9,11c2.3,2.3,5.44,4.15,8.46,4.15S67.83,97.86,69.88,95.82Z"/><path class="cls-10" d="M54.13,97.59a.15.15,0,0,1,.21-.2,13.14,13.14,0,0,0,7.31,2.84c3.49.07,5.52-1.66,7.33-2.76a.15.15,0,0,1,.19.23l-2.41,2.57s-2.58,3-4.89,3.47S55.19,99,55.19,99Z"/><path class="cls-7" d="M62.44,85.44s5.74,6.63,6.51,10a8.14,8.14,0,0,1-6.06,2.91A70.51,70.51,0,0,0,62.44,85.44Z"/><path class="cls-11" d="M25.36,27.18s2.77.05,5.34,3.5,5.1,5.06,8.81,10.45"/><path class="cls-12" d="M86.17,41.27s10.69-9.68,12.2-10.46,2.33-1,2.84-.57"/><path class="cls-13" d="M25.33,29.46a.65.65,0,0,1,.52-.65,2.94,2.94,0,0,1,2.49,1c1.5,1.38,7.06,8.3,9.23,11a.67.67,0,0,1,0,1,.72.72,0,0,1-.44.18c-2.17.11-6.23,2.05-8.18,3.36C24.14,48.55,25.27,32.6,25.33,29.46Z"/><path class="cls-14" d="M25.28,30.53s-.46,7.62.24,11.51,1.67,4,3,3.77c0,0-.06,0-.08.07a72.07,72.07,0,0,0-6.92,5.76.93.93,0,0,1-1.32.07,1,1,0,0,1-.31-.72c.37-12.1,2.89-17.7,4.38-20.64,1.59-3.14,1,.1,1,.1l0,.08"/><path class="cls-13" d="M100,32.56a.67.67,0,0,0-.49-.67,2.83,2.83,0,0,0-2.53.9c-1.55,1.3-7.42,8-9.71,10.61a.68.68,0,0,0,0,1,.73.73,0,0,0,.4.18c2.16.21,6.16,2.32,8,3.71C100.37,51.68,99.94,35.7,100,32.56Z"/><path class="cls-15" d="M29.27,52.75a2.78,2.78,0,0,0-1.05-1,.64.64,0,0,0-.88.24.63.63,0,0,0,.1.76,2.76,2.76,0,0,0,1.24.78.53.53,0,0,0,.64-.38A.51.51,0,0,0,29.27,52.75Z"/><path class="cls-15" d="M27.48,54.39A10.29,10.29,0,0,0,26.1,53a.4.4,0,0,0-.57,0,.42.42,0,0,0,0,.57A10.3,10.3,0,0,0,26.9,55C27.24,55.21,27.69,54.72,27.48,54.39Z"/><path class="cls-15" d="M30.87,53a11.44,11.44,0,0,1,0-2.34.55.55,0,0,0-1-.21,3.18,3.18,0,0,0,.28,2.8.42.42,0,0,0,.75-.25Z"/><path class="cls-15" d="M33.38,50.93a1.62,1.62,0,0,1,0-1c.21-.61-.8-.94-1.06-.37a1.7,1.7,0,0,0,.18,1.8C32.84,51.75,33.57,51.49,33.38,50.93Z"/><path class="cls-15" d="M35.9,50.31a2.1,2.1,0,0,1,0-.79c.07-.33.25-.54.13-.9a.49.49,0,0,0-.61-.31c-.85.18-.8,1.57-.61,2.2S36,50.93,35.9,50.31Z"/><path class="cls-15" d="M53.48,52.31a2.83,2.83,0,0,0,.27-1.44.64.64,0,0,0-1.27-.09,2.93,2.93,0,0,0,0,1.47.52.52,0,0,0,1,.06Z"/><path class="cls-15" d="M37.75,50.48c.49.29,1-.34.69-.77a.93.93,0,0,1,0-.83c.31-.78-.81-1.37-1.18-.57A1.62,1.62,0,0,0,37.75,50.48Z"/><path class="cls-15" d="M57.18,54.52c.49.28,1-.35.69-.78a.87.87,0,0,1,0-.83c.3-.77-.82-1.36-1.18-.56A1.63,1.63,0,0,0,57.18,54.52Z"/><path class="cls-15" d="M42.54,50.21a5.09,5.09,0,0,0,.79-1.47c.26-.7-.76-1.25-1.07-.53A5.28,5.28,0,0,0,41.8,50a.42.42,0,0,0,.46.39A.45.45,0,0,0,42.54,50.21Z"/><path class="cls-15" d="M59.05,55.65a4.5,4.5,0,0,0,.79-1.46c.26-.7-.76-1.25-1.07-.53a5,5,0,0,0-.46,1.73.43.43,0,0,0,.46.4A.42.42,0,0,0,59.05,55.65Z"/><path class="cls-15" d="M51.12,51.72a10,10,0,0,0,.43-1.93.39.39,0,1,0-.77-.16,9.08,9.08,0,0,0-.45,1.92.42.42,0,0,0,.45.39A.44.44,0,0,0,51.12,51.72Z"/><path class="cls-15" d="M49.21,50.81c.15-.37.28-.74.4-1.14.2-.65-.84-1-1.14-.38-.14.31-.27.62-.39.94C47.79,51,48.9,51.57,49.21,50.81Z"/><path class="cls-15" d="M55.63,53.13A11.51,11.51,0,0,0,56,52c.2-.65-.84-1-1.13-.38-.15.31-.28.62-.41.94C54.23,53.33,55.34,53.89,55.63,53.13Z"/><path class="cls-15" d="M46.3,50.6l.13,0a.49.49,0,0,0,.56-.27c.13-.32.25-.64.37-1,.23-.61-.68-1.07-.91-.46-.12.33-.25.64-.37,1A.52.52,0,0,0,46.3,50.6Z"/><path class="cls-15" d="M44.68,50.29c.5-.13.56-.66.7-1.09s-.68-.8-.93-.32-.5.77-.24,1.24A.43.43,0,0,0,44.68,50.29Z"/><path class="cls-15" d="M41.05,49.53a14.87,14.87,0,0,0-.7-1.58.48.48,0,1,0-.89.38,13.07,13.07,0,0,0,.65,1.6.51.51,0,0,0,.56.31.71.71,0,0,0,.25-.11A.5.5,0,0,0,41.05,49.53Z"/><path class="cls-15" d="M92.59,52.89a2.74,2.74,0,0,1,1.06-1,.64.64,0,0,1,.87.23.65.65,0,0,1-.1.77,2.94,2.94,0,0,1-1.24.78.52.52,0,0,1-.64-.38A.46.46,0,0,1,92.59,52.89Z"/><path class="cls-15" d="M94.39,54.52a10.22,10.22,0,0,1,1.37-1.42.4.4,0,0,1,.57.57A9.14,9.14,0,0,1,95,55.09C94.63,55.34,94.16,54.86,94.39,54.52Z"/><path class="cls-15" d="M91,53.11a11.34,11.34,0,0,0,0-2.33c0-.57.84-.7,1-.21a3.2,3.2,0,0,1-.29,2.79.41.41,0,0,1-.58.08A.4.4,0,0,1,91,53.11Z"/><path class="cls-15" d="M88.47,51.06a1.46,1.46,0,0,0,0-1c-.21-.61.81-.95,1.06-.37a1.68,1.68,0,0,1-.17,1.8C89,51.89,88.29,51.63,88.47,51.06Z"/><path class="cls-15" d="M86,50.44a2.1,2.1,0,0,0,0-.79c-.06-.33-.24-.57-.13-.89a.51.51,0,0,1,.62-.32c.85.19.79,1.57.61,2.2S85.86,51.07,86,50.44Z"/><path class="cls-15" d="M68.38,52.45A2.85,2.85,0,0,1,68.11,51a.65.65,0,0,1,1.27-.1,2.93,2.93,0,0,1,0,1.47.53.53,0,0,1-.68.32A.51.51,0,0,1,68.38,52.45Z"/><path class="cls-15" d="M84.11,50.62c-.48.28-1-.35-.69-.78a.93.93,0,0,0,0-.83c-.3-.77.81-1.36,1.18-.57A1.63,1.63,0,0,1,84.11,50.62Z"/><path class="cls-15" d="M64.68,54.66c-.49.29-1-.34-.69-.77a.87.87,0,0,0,0-.83c-.3-.78.81-1.36,1.18-.57A1.62,1.62,0,0,1,64.68,54.66Z"/><path class="cls-15" d="M79.33,50.34a4.63,4.63,0,0,1-.8-1.46c-.26-.71.76-1.25,1.07-.53a4.93,4.93,0,0,1,.46,1.73.42.42,0,0,1-.45.39A.41.41,0,0,1,79.33,50.34Z"/><path class="cls-15" d="M62.8,55.77A4.91,4.91,0,0,1,62,54.31c-.26-.7.77-1.25,1.07-.53a5.28,5.28,0,0,1,.46,1.74.43.43,0,0,1-.46.39A.47.47,0,0,1,62.8,55.77Z"/><path class="cls-15" d="M70.73,51.85a10.54,10.54,0,0,1-.42-1.93.38.38,0,0,1,.3-.46.39.39,0,0,1,.47.3,10.81,10.81,0,0,1,.45,1.93.42.42,0,0,1-.45.39A.43.43,0,0,1,70.73,51.85Z"/><path class="cls-15" d="M72.66,50.94c-.14-.37-.27-.73-.39-1.13-.21-.66.84-1,1.13-.39.14.32.27.63.4.95C74.07,51.12,73,51.68,72.66,50.94Z"/><path class="cls-15" d="M66.2,53.27c-.14-.37-.27-.74-.39-1.13-.21-.65.84-1,1.13-.39.15.31.28.63.41,1C67.64,53.46,66.52,54,66.2,53.27Z"/><path class="cls-15" d="M75.56,50.73l-.13.05a.5.5,0,0,1-.56-.27c-.12-.33-.25-.64-.36-1-.23-.61.68-1.07.91-.45l.36,1A.51.51,0,0,1,75.56,50.73Z"/><path class="cls-15" d="M77.2,50.42c-.5-.13-.57-.66-.7-1.09s.67-.79.93-.32.5.77.24,1.25A.43.43,0,0,1,77.2,50.42Z"/><path class="cls-15" d="M80.81,49.66a13.09,13.09,0,0,1,.7-1.58.49.49,0,0,1,.9.38,17.27,17.27,0,0,1-.65,1.6.53.53,0,0,1-.57.32.8.8,0,0,1-.25-.11A.52.52,0,0,1,80.81,49.66Z"/><path class="cls-16" d="M56.32,37.81a11.23,11.23,0,0,0-2.2-3.8c-1.41-1.41,4.66,2.27,4.84,3.43s.37-1.28.37-1.28-.57-4.91-1.7-5.71,3.86,2,5.33,5.15"/><path class="cls-17" d="M106.71,52.31a2.13,2.13,0,0,0,0-4.25c-39.87,16.67-89.46,1.13-89.46,1.13a2.14,2.14,0,0,0,0,4.25S64.45,70,106.71,52.31Z"/><path class="cls-17" d="M59.73,58.19c32.49.48,47-6.7,47-6.7-.86-30-22.66-40.13-44.52-40.13H62c-21.85,0-42,4.09-44.67,41.35C17.35,52.72,35,57.82,59.73,58.19Z"/><path class="cls-17" d="M78.19,45.08s1.35-23.3.49-33a3.32,3.32,0,0,0-2.93-3.66l-.26,0c-3.55-.37-14.83-.61-14.83-.61h-.23s-11.28.24-14.83.61a3.32,3.32,0,0,0-3.21,3.42c0,.09,0,.17,0,.26-.85,9.68.5,33,.5,33S55,40.54,78.19,45.08Z"/><path class="cls-17" d="M73.32,50.6S68.9,34.05,69.52,26c.35-4.6.94-12.21-.43-17.91C68.05,3.74,65.9.53,61.67.59h-.38C51.48.46,52.83,17.87,53.44,26s-3.8,24.64-3.8,24.64A37.47,37.47,0,0,1,73.32,50.6Z"/><path class="cls-18" d="M76.31,44.07a.5.5,0,0,0,.4.56h1.17a.49.49,0,0,0,.48-.44c1.18-16.18.34-28.35.44-30.62C79,9.35,76.7,8.7,76.7,8.7s-.35-.28-4.73-.48c0,0,.06,2,.15,4.44a5.6,5.6,0,0,1,2.49.49,1.2,1.2,0,0,1,.65.93C75.57,17.34,77.31,35.89,76.31,44.07Z"/><path class="cls-19" d="M17.25,49.2s41.06,14.73,89.46-1.13C106.71,48.06,59.77,60.18,17.25,49.2Z"/><path class="cls-20" d="M82.32,14.74s-3-1.13-3.56-1.21a274.38,274.38,0,0,1-.45,30.62S80.65,24.55,82.32,14.74Z"/><path class="cls-20" d="M38.65,14.87a26.18,26.18,0,0,1,3.6-1.38,261.19,261.19,0,0,0,.32,31S40.33,24.66,38.65,14.87Z"/><path class="cls-20" d="M73.3,49.92S68.93,33.59,69.54,25.5c.35-4.6.92-11.75-.45-17.45l2.83.13s.64,13.4-.75,18.88C69.91,32,73.26,47.35,73.3,49.92Z"/><path class="cls-20" d="M49.54,50.12S54,33.57,53.34,25.48c-.35-4.6-.91-11.76.45-17.45l-2.88.15S50.17,21,51.71,27C53,32,49.58,47.55,49.54,50.12Z"/><path class="cls-21" d="M20.4,49.92a49,49,0,0,0,7.48,1.59s-.06-21.92,11.7-29.93l-.67-4.53S24.81,22.46,20.4,49.92Z"/><path class="cls-21" d="M49.05,9.86a.49.49,0,0,0,.05-.7A.48.48,0,0,0,48.68,9l-3.27.34a2.24,2.24,0,0,0-2.27,2.18v.08c-.12,2.21-.27,27.34.21,31.16a.48.48,0,0,0,.48.42h1.06a.49.49,0,0,0,.51-.48l.44-30.42s-.37-.43,1-.92A8.4,8.4,0,0,0,49.05,9.86Z"/><path class="cls-21" d="M61.49,1.47s-4.82.17-6.37,6.05-.69,15.62-.66,16h0c0,.43.28,16.12-2.86,23.93l1.31-.06a.56.56,0,0,0,.5-.41c.57-2.44,3.47-15.62,2.36-23.31-1.22-8.5.33-14.95,1.13-15.61s3.19-2.78,5-2.94S63.7,1.72,61.49,1.47Z"/><path class="cls-18" d="M82.24,14.83s22.37,6.23,24.39,33.31c0,0,1.53-.16-10.89,2.21,0,0-3.84-20.27-15-25.76Z"/><path class="cls-21" d="M18.65,50.14a1.18,1.18,0,0,0-1.64.22,1.2,1.2,0,0,0-.13.21c-.7,1.21.88,1.63.88,1.63s27,11.86,77.65,3C95.41,55.17,53.92,63.83,18.65,50.14Z"/><path class="cls-5" d="M103.29,77S82,70.87,70.09,80.64c0,0-1.64-8.77,4.76-14.08,0,0,22.75-11.83,28.44,10.4"/><path d="M73.25,67.57c-4.24,2.74-4.39,9.11-3.56,13.59.06.3.74.4.94.23A23.65,23.65,0,0,1,76,78.19a33.59,33.59,0,0,1,14.81-3,38.93,38.93,0,0,1,12.52,2.52c.43.16,1-.14.37-.38-10.42-3.84-22.4-3.73-32,2.34a17.73,17.73,0,0,0-2,1.38l.94.24C69.86,77,70,70.65,74,68c.37-.24-.52-.61-.77-.45Z"/><path class="cls-5" d="M71.82,83.08c5.2-2.62,9.57-5,16-5.36s14.3,2.07,15.13,1.82.39-.86.39-.86c-20.55-7.09-32.43,3.83-32.43,3.83S70.68,83.66,71.82,83.08Z"/><path d="M121.82,134.48a119.39,119.39,0,0,1-8.17,10.35c-1.46,1.73-3,3.45-4.44,5.16-.94,1.06-2.33,2.18-2.74,3.54-1.94,6.3-4.58,12.46-8.79,17.59a37.4,37.4,0,0,1-20.09,12.3c-10,2.53-21.25,2.67-31.05-.74A42.61,42.61,0,0,1,27.07,168.5a51.63,51.63,0,0,1-5.27-8.26c-.61-1.18-1.18-2.39-1.7-3.62a8.6,8.6,0,0,0-1.28-2.55A215.28,215.28,0,0,1,4.11,136.44a16.9,16.9,0,0,1-3.24-7.76,20.87,20.87,0,0,1,.69-7.86c.91-3.47,3-6.27,5.13-9.13,2.63-3.59,5.39-7.08,8.19-10.54a12.52,12.52,0,0,0,1.5-1.85,3.49,3.49,0,0,0,.16-1.65c0-.94,0-1.88,0-2.83,0-1.48.08-3,0-4.46A14.23,14.23,0,0,0,16,87.73c-2.24-9-3-19.41,1.62-27.81a22,22,0,0,1,2-3.05c.68-.86.44-1.36.42-2.48a.93.93,0,0,0-.62-.68c-.83-.25-1.71-.47-2.52-.8-1-.42-1.55-1.14-1.14-2.2.14-.36,1-1.6,1.55-1.33l-.46-.71h0c-.27,0,.35.67.46.71l.48.17c.05,0,.14,0,.14-.06A32.7,32.7,0,0,1,18.63,44c.33-1.88.73-3.75,1.22-5.6a45.3,45.3,0,0,1,3.68-9.57A29.81,29.81,0,0,1,34.21,17.27a38.62,38.62,0,0,1,8.25-3.55.08.08,0,0,0,.07-.07c.07-1.15-.07-2.48.56-3.49A3.56,3.56,0,0,1,46,8.61c2.67-.23,5.36-.31,8-.4a.08.08,0,0,0,.07-.07c.86-3.45,2.71-7,6.66-7.32A6.69,6.69,0,0,1,65.66,2a7.55,7.55,0,0,1,1.89,2.62,8.44,8.44,0,0,1,1,2.93.85.85,0,0,0,.68.69c2,0,3.93.14,5.87.31a4,4,0,0,1,2,.49,3.37,3.37,0,0,1,1.07,2.17c0,.27-.06,1.75.13,1.75,0,0-.07,0-.07.06,0,.34,0,.69,0,1s.75.81.75.62a5.15,5.15,0,0,1,0-.88,5.17,5.17,0,0,1,1.14.35q1.09.35,2.16.75l-.53-.65,0,.1c-.06.27.39.61.61.68a26.29,26.29,0,0,1,3.7,1.5c.44.22.87.47,1.31.68.26.13-.4-.22.08,0s1,.56,1.5.86a34.46,34.46,0,0,1,8,6.65,33.8,33.8,0,0,1,6.12,10,42,42,0,0,1,1.9,6.31,31.43,31.43,0,0,1,1,6.6c0,.23.42.77.68.69l.18-.06c.18-.06,0-.34-.09-.41a.75.75,0,0,0-.58-.35l.69.68a.76.76,0,0,1,.76.52.93.93,0,0,1,.53,1.1,2.15,2.15,0,0,1-.49,1.16c-.48.58-1.24.65-1.91.91-.07,0-.07.06-.06.13a26.21,26.21,0,0,1-.07,5.94,2.27,2.27,0,0,0,0,1.57,45.84,45.84,0,0,1,2.19,6.11,40.08,40.08,0,0,1,1.64,10.65,26.83,26.83,0,0,1-.55,5.59,10.21,10.21,0,0,0-.45,2.42c0,.85.07,1.71.1,2.56.07,1.82.13,3.63.19,5.44,0,.94,0,1.88.08,2.81a13.28,13.28,0,0,0,.09,3.16,7.18,7.18,0,0,0,1.54,2c.76,1,1.53,1.9,2.29,2.86A125.5,125.5,0,0,1,122,115.79a18.19,18.19,0,0,1-.17,18.69c-.16.25.59.88.71.7a16.73,16.73,0,0,0,2.62-10.74,19.36,19.36,0,0,0-2-7.42c-2.66-4.92-6.43-9.35-9.9-13.71l-2.72-3.39a3.27,3.27,0,0,1-.91-1.45,28.91,28.91,0,0,1-.1-3.61q-.09-3.24-.21-6.47c0-1-.07-1.89-.11-2.83a11.6,11.6,0,0,1,.43-3c1.51-7.09-.14-14.73-2.79-21.35a6,6,0,0,1-.69-1.85c0-1.14.35-2.33.36-3.5,0-.61,0-1.22,0-1.83,0-.36-.21-1.12.09-1.43s.68-.16,1-.28a2.16,2.16,0,0,0,1-.84,2.27,2.27,0,0,0,.18-2.06c-.29-.77-1.59-2.26-2.57-1.89a.06.06,0,0,0-.06.06v0a.85.85,0,0,0,.68.69h0l-.53-.34h0l-.08-.4-.18.06.68.68a36.45,36.45,0,0,0-2.07-10.72,37.13,37.13,0,0,0-4.2-9A36.58,36.58,0,0,0,88.13,17.14l-.81-.46-.09-.05c-.69-.38-1.4-.74-2.12-1.07a23.18,23.18,0,0,0-3.21-1.25l.62.68,0-.1c0-.24-.35-.58-.54-.65-1.18-.46-2.38-.84-3.6-1.19,0,0-.13,0-.13.06,0,.33,0,.65,0,1l.75.62c0-.1,0-.95-.09-.95a.08.08,0,0,0,.07-.07c-.13-2.18-.38-4.61-2.72-5.53a12.66,12.66,0,0,0-3.88-.46c-1.25-.07-2.52-.16-3.77-.16l.68.68A9.6,9.6,0,0,0,68,4.55a9.44,9.44,0,0,0-2.2-2.86A7.73,7.73,0,0,0,58.93.27c-2.68.7-4.24,3.1-5.1,5.58A8.67,8.67,0,0,1,53.48,7c-.3.54-.85.47-1.43.49l-3.32.15c-1.47.07-3.34-.07-4.73.48a3.42,3.42,0,0,0-2.14,3.07c0,.37,0,.74,0,1.11,0,.66-.07.68-.7.87s-1.38.45-2.06.7a32.14,32.14,0,0,0-6,2.94A29.8,29.8,0,0,0,23,27.74a44.84,44.84,0,0,0-3.74,9.36c-.52,1.88-.95,3.79-1.31,5.71-.19,1.07-.37,2.15-.52,3.24-.08.56-.15,1.13-.22,1.7a3.61,3.61,0,0,1-.08.65c-.2.68.15.44-.23.3l.47.72h0c.29,0-.39-.68-.47-.72-.73-.37-1.75.76-2,1.32a2.43,2.43,0,0,0,.32,2.3c1,1.39,3.06,1.67,4.57,2.13l-.61-.68a9.15,9.15,0,0,1,.07,1.73c-.08.35-.44.64-.67,1a23.05,23.05,0,0,0-2.13,3.4,27,27,0,0,0-2.4,7.1,42.64,42.64,0,0,0-.1,14.3,63.58,63.58,0,0,0,1.25,6.26,12,12,0,0,1,.51,3.1v5.24a7.45,7.45,0,0,1-.1,2.75,5.23,5.23,0,0,1-.71.86l-1.84,2.28q-2.18,2.72-4.31,5.47a71.76,71.76,0,0,0-6.91,9.91,17.61,17.61,0,0,0-1.54,5.07A18.6,18.6,0,0,0,.46,130c1.06,4.38,4.19,7.94,7,11.36s5.59,6.69,8.46,10c.86,1,1.89,1.93,2.65,3a19.36,19.36,0,0,1,1.31,3A54.87,54.87,0,0,0,24.06,165a47,47,0,0,0,16.06,15.34c8.76,4.94,18.76,6.21,28.67,5.39,9-.74,18-3.35,25-9.21,5.39-4.5,9.09-10.56,11.62-17q.9-2.31,1.63-4.67a4.7,4.7,0,0,1,1-1.9c.59-.66,1.16-1.32,1.74-2,3.16-3.61,6.3-7.25,9.28-11,1.22-1.53,2.42-3.08,3.52-4.71C122.69,134.94,121.94,134.3,121.82,134.48Z"/><path class="cls-10" d="M40.32,182.58c0,1.76-1.4,4.33-2.69,6.32a2.44,2.44,0,0,1-4.29,0c-1.29-2-2.69-4.56-2.69-6.32,0-3.27,2.17-5.93,4.84-5.93S40.32,179.31,40.32,182.58Z"/><path class="cls-10" d="M48.37,182.4c0,2.15-1.77,5.28-3.4,7.72a3.14,3.14,0,0,1-5.43,0c-1.63-2.44-3.4-5.57-3.4-7.72,0-4,2.74-7.26,6.11-7.26S48.37,178.39,48.37,182.4Z"/><path class="cls-10" d="M53,182.58c0,1.76-1.39,4.33-2.69,6.32a2.44,2.44,0,0,1-4.29,0c-1.29-2-2.69-4.56-2.69-6.32,0-3.27,2.17-5.93,4.84-5.93S53,179.31,53,182.58Z"/><path d="M52.82,182.59a11.21,11.21,0,0,1-1.9,5A4.68,4.68,0,0,1,49,189.86c-1.19.5-2.18-.26-2.82-1.22a.29.29,0,0,0-.46,0c-.91,1.43-2,3.25-4,2.8-1.64-.36-2.48-2.2-3.26-3.52a.29.29,0,0,0-.46,0c-.59,1-1.27,2.14-2.59,2.06-1.07-.07-1.68-.94-2.2-1.78a14.1,14.1,0,0,1-2.21-5c-.58-3.66,2.93-8.12,6.73-5.69a.3.3,0,0,0,.35-.05,5.26,5.26,0,0,1,8.17-.31.3.3,0,0,0,.3.05c3.61-1.63,6.18,2.1,6.25,5.31,0,.26.51.29.5,0-.07-3.12-2.32-6.76-5.9-6-.59.11-.74.27-1.26-.07a13.16,13.16,0,0,0-1.14-.82,5.57,5.57,0,0,0-2.52-.7,6.07,6.07,0,0,0-4.82,2.33l.35,0c-4.19-2.67-8.35,2.17-7.44,6.36a13.47,13.47,0,0,0,1.53,3.63A6.92,6.92,0,0,0,34.18,190c1.92,1.16,3.37-.37,4.32-1.91H38c1,1.63,2,3.7,4.13,3.8s3-1.58,4-3.11h-.46c1,1.47,2.78,2.2,4.27.92a10.86,10.86,0,0,0,2.12-3.29,9.4,9.4,0,0,0,1.2-3.8C53.33,182.38,52.83,182.34,52.82,182.59Z"/><ellipse class="cls-7" cx="50.16" cy="180.63" rx="1.1" ry="2.27" transform="translate(-75.46 41.48) rotate(-26.55)"/><ellipse class="cls-7" cx="44.36" cy="179.21" rx="1.4" ry="2.89" transform="translate(-96.9 60.34) rotate(-36.02)"/><ellipse class="cls-7" cx="37.16" cy="180.16" rx="1.15" ry="2.36" transform="translate(-76.62 35.62) rotate(-26.55)"/><path class="cls-10" d="M83.17,183.15c0,1.76-1.4,4.32-2.69,6.31a2.44,2.44,0,0,1-4.29,0c-1.3-2-2.69-4.55-2.69-6.31,0-3.28,2.16-5.94,4.83-5.94S83.17,179.87,83.17,183.15Z"/><path class="cls-10" d="M91.22,183c0,2.16-1.77,5.29-3.41,7.72a3.13,3.13,0,0,1-5.42,0C80.75,188.25,79,185.12,79,183c0-4,2.74-7.25,6.12-7.25S91.22,179,91.22,183Z"/><path class="cls-10" d="M95.86,183.15c0,1.76-1.4,4.32-2.69,6.31a2.44,2.44,0,0,1-4.29,0c-1.29-2-2.69-4.55-2.69-6.31,0-3.28,2.16-5.94,4.83-5.94S95.86,179.87,95.86,183.15Z"/><path d="M95.61,183.13a11.3,11.3,0,0,1-1.9,5,4.77,4.77,0,0,1-1.93,2.25c-1.2.49-2.18-.27-2.82-1.22a.29.29,0,0,0-.46,0c-.91,1.43-2,3.25-4,2.81-1.64-.36-2.48-2.21-3.25-3.52a.29.29,0,0,0-.46,0c-.59,1-1.28,2.15-2.59,2.06-1.08-.07-1.68-.94-2.2-1.77a14.15,14.15,0,0,1-2.21-5c-.58-3.66,2.92-8.12,6.73-5.69a.3.3,0,0,0,.35,0,5.26,5.26,0,0,1,8.17-.31.33.33,0,0,0,.3,0c3.61-1.64,6.17,2.09,6.25,5.31,0,.25.5.28.5,0-.07-3.13-2.33-6.76-5.91-6.06-.58.11-.74.27-1.25-.07s-.72-.58-1.14-.82a5.92,5.92,0,0,0-2.53-.7,6,6,0,0,0-4.81,2.34l.35-.05c-4.19-2.66-8.36,2.18-7.44,6.36a13.34,13.34,0,0,0,1.53,3.63A6.93,6.93,0,0,0,77,190.54c1.91,1.15,3.37-.38,4.31-1.92l-.46,0c1,1.62,2,3.69,4.13,3.79s3-1.58,4-3.11l-.46,0c1,1.47,2.79,2.19,4.28.92a10.91,10.91,0,0,0,2.12-3.3,9.31,9.31,0,0,0,1.2-3.79C96.12,182.91,95.62,182.88,95.61,183.13Z"/><ellipse class="cls-7" cx="93.14" cy="181.3" rx="1.1" ry="2.27" transform="translate(-71.22 60.76) rotate(-26.55)"/><ellipse class="cls-7" cx="87.2" cy="179.8" rx="1.4" ry="2.89" transform="translate(-89.06 85.65) rotate(-36.02)"/><ellipse class="cls-7" cx="79.79" cy="180.91" rx="1.15" ry="2.36" transform="translate(-72.46 54.76) rotate(-26.55)"/></g></g></svg>