<svg xmlns="http://www.w3.org/2000/svg" viewBox="0 0 195.84 224.71"><defs><style>.cls-1{fill:#40719c;}.cls-2{fill:#fff5df;}.cls-3{fill:#ffe8ae;}.cls-10,.cls-4{fill:#164e5e;}.cls-4{opacity:0.29;}.cls-5{fill:#f6af97;}.cls-6{fill:#5284c4;}.cls-7{fill:#629bd3;}.cls-8{fill:#fff;}.cls-9{fill:#34607f;}.cls-10{opacity:0.6;}.cls-11{fill:#3b3734;}.cls-12{fill:#ea6613;}.cls-13{fill:#fab400;}.cls-14{fill:#b88568;}.cls-15{fill:#1d1d1b;}</style></defs><g id="Laag_2" data-name="Laag 2"><g id="Laag_1-2" data-name="Laag 1"><path class="cls-1" d="M1.58,116.59c-.25-1-.44-1.86-.6-2.69a.84.84,0,0,1,.08-.57A10.59,10.59,0,0,0,1.58,116.59Z"/><path class="cls-2" d="M172.55,8.26l-2.76.16,1.63-.19A3.87,3.87,0,0,1,172.55,8.26Z"/><path class="cls-3" d="M41,5.6a1.85,1.85,0,0,0-.58,1.15l-1.07,9.92,1-9.88A1.69,1.69,0,0,1,41,5.6Z"/><path class="cls-3" d="M169.79,8.42l-.94.12V8.48Z"/><path class="cls-1" d="M39.45,133.38S10.24,120,2.06,113a.91.91,0,0,0-1.5.85c2.14,11.24,11.8,36.46,20.28,44.42,9.36,8.78,18,8.57,18,8.57l5.42-32.31Z"/><path class="cls-1" d="M126.51,135.23s29.22-13.38,37.39-20.39a.92.92,0,0,1,1.51.85c-2.15,11.24-11.8,36.46-20.28,44.42-9.37,8.78-18,8.57-18,8.57l-5.41-32.31Z"/><ellipse class="cls-4" cx="82.98" cy="216.68" rx="55.4" ry="8.03"/><path class="cls-5" d="M28.33,167.23v.1l-2.3,0C26.82,167.29,27.58,167.27,28.33,167.23Z"/><path class="cls-5" d="M26,167.31l-2.31,0v-.1C24.47,167.27,25.24,167.29,26,167.31Z"/><path class="cls-6" d="M37.33,101s-.51,70.47,1.79,78.13S52.34,213.3,84,213s40.14-18.38,44.48-33.45,1-78.64,1-78.64Z"/><path class="cls-6" d="M131,104.16a24.82,24.82,0,0,1-.93,7.13c-3.26,11.23-2.86,25.17-47.75,25.17C44.9,136.46,38.92,122,38.92,122s-10-24.38,1.91-38.6c0,0-1.19-15.29,4.84-24.73.78-1.2,1.74-3.65,5-.9S60.91,69.06,61.57,70.26c0,0,21.8-8.31,45.4,0,0,0,9.46-8.54,11.9-10.28.4-.2,2.71-1.95,3.48.58,0,0,6.61,16.87,4.58,26.25a45.76,45.76,0,0,1,4,17.35Z"/><path class="cls-7" d="M82.63,96.49C75.14,88,60.86,75.2,51.07,80.93s-15,17.86-13.15,28.94c.84,5.11,3.17,10.19,7.38,13.28,3.68,2.71,8.44,3.65,13,3.61a35.07,35.07,0,0,0,24.41-10.38c6,4.42,12.72,9.15,20.18,10s15.59-1.65,20.13-7.54c3.18-4.14,4.32-9.54,4.11-14.73-.41-9.94-6-19.81-14.92-24.41S89.33,89,82.63,96.49Z"/><path d="M77.81,104.48a17,17,0,0,1-10.49,15.64,16.45,16.45,0,0,1-18.79-4.93,17,17,0,0,1-1.53-19,16.68,16.68,0,0,1,17.51-8.11,16.87,16.87,0,0,1,13.3,16.41c0,.52,1.25.61,1.25.11A17.75,17.75,0,0,0,67.31,88.06a18,18,0,0,0-19.65,5.19A17.55,17.55,0,0,0,46.1,113.6a18.08,18.08,0,0,0,18.39,8.18,17.7,17.7,0,0,0,14.57-17.19C79.06,104.07,77.82,104,77.81,104.48Z"/><path d="M120.75,104.41A17,17,0,0,1,110,120,16.47,16.47,0,0,1,89.91,96.12a16.9,16.9,0,0,1,17.35-7.91,16.58,16.58,0,0,1,13.49,16.2c0,.6,1.08,1,1.07.24A18.1,18.1,0,0,0,110.22,88a17.57,17.57,0,0,0-21.16,25.67,18,18,0,0,0,18.5,8.3,17.71,17.71,0,0,0,14.26-17.28C121.82,104.05,120.75,103.63,120.75,104.41Z"/><circle class="cls-8" cx="104.14" cy="105.03" r="17.14"/><path class="cls-6" d="M87.47,66.38a12.55,12.55,0,0,1,2.82-6.86c-2.18.54-4,2.5-5.42,4.72-2.13-3.8-7.08-5.85-7.08-5.85a17.76,17.76,0,0,1,2.37,7c-2-2.24-5.83-3.17-5.83-3.17s4.52,4,3.39,9.51a1.73,1.73,0,0,0,1.21.58c.95.88,3.21.84,4.3.77a8.43,8.43,0,0,0,2.59,0C88.84,72.74,87.22,70.34,87.47,66.38Z"/><path class="cls-7" d="M121.62,147.79c-1.15,9.57-1.09,32-14.05,43.15-8.57,7.34-14.5,9.2-22.28,9.6-.75,0-1.51.06-2.3.08s-1.56,0-2.31-.08c-7.78-.4-13.7-2.26-22.28-9.6-12.95-11.11-12.9-33.58-14-43.15s14.9-12.31,20.53-7.33,17.58,4,18.1,4h0c.58,0,14,0,19.55-4.94S122.77,138.21,121.62,147.79Z"/><circle class="cls-8" cx="61.29" cy="105.03" r="17.14"/><path class="cls-9" d="M68.38,156.8l11.28.25a1.19,1.19,0,0,1,1.15,1.36c-.26,1.87-1.32,5-5.48,4.85-5-.21-7.69-2.51-8.16-5.12A1.17,1.17,0,0,1,68.38,156.8Z"/><path class="cls-9" d="M86.28,156.8l11.28.25a1.19,1.19,0,0,1,1.15,1.36c-.26,1.87-1.32,5-5.48,4.85-5-.21-7.69-2.51-8.16-5.12A1.17,1.17,0,0,1,86.28,156.8Z"/><path class="cls-9" d="M76.71,168.8l11.28.25a1.19,1.19,0,0,1,1.15,1.36c-.26,1.87-1.32,5-5.48,4.85-5-.21-7.7-2.51-8.17-5.12A1.18,1.18,0,0,1,76.71,168.8Z"/><path class="cls-10" d="M38,160v6.76a28.77,28.77,0,0,1-15.58-7.13C15.23,153.16,7.63,138.22,3.86,126S.66,113.24.66,113.24,18.14,160,38,160Z"/><path class="cls-10" d="M130.23,161.66v6.77a25.39,25.39,0,0,0,14.31-7.14c6.61-6.5,13.59-21.43,17.05-33.62s2.95-12.8,2.95-12.8S148.47,161.66,130.23,161.66Z"/><ellipse class="cls-8" cx="99.83" cy="103.93" rx="1.63" ry="0.77" transform="translate(-33.84 50.09) rotate(-24.21)"/><ellipse class="cls-8" cx="57.21" cy="104.06" rx="1.63" ry="0.77" transform="translate(-37.65 32.62) rotate(-24.21)"/><path class="cls-11" d="M68.07,101.34a7.92,7.92,0,0,0-6.34-3.84,7.78,7.78,0,1,0,2.19,15.12A8.14,8.14,0,0,0,68.07,101.34Z"/><path class="cls-8" d="M65.66,99.77A3.63,3.63,0,0,0,63.25,99c-1.24.14-1.43,1.63-.37,2.87s3.07,1.91,3.9,1.28S67,100.77,65.66,99.77Z"/><path class="cls-11" d="M110.92,101.34a7.94,7.94,0,0,0-6.34-3.84,7.78,7.78,0,1,0,6.34,3.84Z"/><path class="cls-8" d="M108.51,99.77A3.67,3.67,0,0,0,106.1,99c-1.24.14-1.44,1.63-.38,2.87s3.07,1.91,3.91,1.28S109.88,100.77,108.51,99.77Z"/><ellipse class="cls-8" cx="114.19" cy="208.16" rx="1.1" ry="2.27" transform="translate(-81.01 73.01) rotate(-26.55)"/><path class="cls-10" d="M9.85,133s4.62,8.23,4.48,7.59c-.11-.49-1.94-23.2-1.94-23.2Z"/><path class="cls-10" d="M77.4,119.24c0,.16-2.43,10.2,3.79,12s8.63-4,8.63-4,1.79-3.27,0-8.75S77.4,119.24,77.4,119.24Z"/><polygon class="cls-12" points="75.42 122.19 76.93 125.39 83.47 131.25 90.53 125.71 91.88 122.4 83.35 120.43 75.42 122.19"/><path class="cls-13" d="M91.88,122.4c-1.15-4.21-6.28-11.2-7.47-11.2s-7.65,6.64-9,11c2.3,2.3,5.43,4.14,8.45,4.14S89.83,124.45,91.88,122.4Z"/><path class="cls-13" d="M76.6,125.63a27.21,27.21,0,0,1-1.14-3.41c1.58,1.34,1.85,6,8.19,6.32,3.48.17,5.83-1.31,8.23-6.14.05-.11-.5,1.5-.88,2.52a6.61,6.61,0,0,1-.69,1.35L89,128.19a6.33,6.33,0,0,1-.68.85c-.83.87-2.73,2.69-4.48,3s-4.33-2.26-5.74-3.75a6.43,6.43,0,0,1-1.36-2.22Z"/><path class="cls-8" d="M84.44,112s5.74,6.63,6.51,10A8.17,8.17,0,0,1,84.88,125,70.93,70.93,0,0,0,84.44,112Z"/><path class="cls-14" d="M157,143.78l3.39-.23c.93-.06,1.61-1.22,1.52-2.6l-6.23-92.69-4.06-9.73-2.71,10.18,6.23,92.7C155.21,142.78,156.05,143.84,157,143.78Z"/><path class="cls-14" d="M5.3,139.91l3.37.36c.93.1,1.8-.87,1.94-2.17l9.21-87.56-2.38-9.75-4.37,9L3.86,137.39C3.72,138.69,4.37,139.82,5.3,139.91Z"/><path class="cls-2" d="M155.31,50.63a1.8,1.8,0,0,1-1.54,1.86c-8.39,1.22-47.81,6.59-75.68,4.23-27.17-2.29-56.2-6.33-63.44-7.36a1.8,1.8,0,0,1-1.53-2L18,1.9A1.79,1.79,0,0,1,20.09.32c9.27,1.6,50.25,8.57,64.69,9.46,24.54,1.52,34.76-3,64.2-6.4A3.83,3.83,0,0,1,153.26,7Z"/><path class="cls-3" d="M17.94,1.94l-4.77,47.3,6.75.68L24.87.87,19.81.36A1.73,1.73,0,0,0,17.94,1.94Z"/><path class="cls-3" d="M151.49,3.32l-5.08.31,2.92,49.21,6.77-.4L153.29,5A1.74,1.74,0,0,0,151.49,3.32Z"/><path class="cls-15" d="M34.61,19.51l.44-2,1.78.4,1.72-7.8-1.78-.39.43-2L43.86,9.2l-.44,2-1.8-.39L39.9,18.59l1.8.4-.44,2Z"/><path class="cls-15" d="M49.88,19.69l2,1a4.51,4.51,0,0,1-4.34,1.46,4.86,4.86,0,0,1-3.27-1.65,4.06,4.06,0,0,1-.8-3.22,4.47,4.47,0,0,1,1.73-3,4.38,4.38,0,0,1,3.42-.83A4.2,4.2,0,0,1,51,14.45a3.83,3.83,0,0,1,1.19,2,6.65,6.65,0,0,1,.06,2.45L46,18a2,2,0,0,0,.49,1.71,2.33,2.33,0,0,0,1.32.67A2.8,2.8,0,0,0,49.88,19.69Zm-.14-2.64a2.13,2.13,0,0,0-.37-1.27,1.65,1.65,0,0,0-1.17-.66c-1-.14-1.62.34-1.93,1.43Z"/><path class="cls-15" d="M63.46,21.76l-.2,1.92-4-.4.09-1a3.35,3.35,0,0,1-2.52.88,3.24,3.24,0,0,1-2.46-1.53,4.74,4.74,0,0,1-.72-3.17,4.61,4.61,0,0,1,1.36-3,3.23,3.23,0,0,1,2.69-1A3,3,0,0,1,60,15.86l.26-2.66-1.3-.13.19-1.92,4,.39-1,10.08Zm-3.79-2.67a2.35,2.35,0,0,0-.34-1.76,1.63,1.63,0,0,0-1.12-.63,1.39,1.39,0,0,0-1.27.49,2.76,2.76,0,0,0-.59,1.56,2.83,2.83,0,0,0,.26,1.62,1.4,1.4,0,0,0,1.16.77A1.61,1.61,0,0,0,59,20.73,2.39,2.39,0,0,0,59.67,19.09Z"/><path class="cls-15" d="M71.07,21.72l2,.83a4.52,4.52,0,0,1-4.24,1.74,4.83,4.83,0,0,1-3.36-1.43,4,4,0,0,1-1-3.16,4.41,4.41,0,0,1,4.88-4.19,4.28,4.28,0,0,1,2.42.91,3.89,3.89,0,0,1,1.32,1.92,6.67,6.67,0,0,1,.22,2.44l-6.23-.47A2,2,0,0,0,67.7,22a2.32,2.32,0,0,0,1.36.58A2.78,2.78,0,0,0,71.07,21.72Zm-.31-2.63a2.13,2.13,0,0,0-.46-1.23,1.63,1.63,0,0,0-1.21-.59c-1-.07-1.59.45-1.84,1.56Z"/><path class="cls-15" d="M80.13,22.9,80,24.83l-5.89-.36.11-1.93,1.55.1.27-4.52L74.6,18l.11-1.93,3.91.23-.13,2.13a3,3,0,0,1,1.12-1.52,2.84,2.84,0,0,1,1.93-.56l.43,0-.15,2.53a4.9,4.9,0,0,0-1.66.13A2,2,0,0,0,79,20a3.65,3.65,0,0,0-.52,1.78l-.06,1Z"/><path class="cls-15" d="M89,22.75l2,.76a4.48,4.48,0,0,1-4.18,1.86A4.86,4.86,0,0,1,83.49,24,4,4,0,0,1,82.4,20.9a4.4,4.4,0,0,1,4.76-4.32,4.25,4.25,0,0,1,2.45.85A3.81,3.81,0,0,1,91,19.31a6.77,6.77,0,0,1,.29,2.43L85,21.44a2,2,0,0,0,.64,1.66,2.35,2.35,0,0,0,1.38.54A2.84,2.84,0,0,0,89,22.75Zm-.39-2.63a2.13,2.13,0,0,0-.49-1.22,1.62,1.62,0,0,0-1.22-.55c-1-.05-1.58.49-1.8,1.61Z"/><path class="cls-15" d="M99.18,23.15l2,.74a4.51,4.51,0,0,1-4.16,1.91,4.89,4.89,0,0,1-3.42-1.3,4,4,0,0,1-1.13-3.12A4.42,4.42,0,0,1,97.24,17a4.34,4.34,0,0,1,2.46.82,3.8,3.8,0,0,1,1.38,1.87,6.54,6.54,0,0,1,.32,2.43l-6.25-.23a2,2,0,0,0,.67,1.65,2.4,2.4,0,0,0,1.38.53A2.85,2.85,0,0,0,99.18,23.15Zm-.42-2.62a2.09,2.09,0,0,0-.5-1.21A1.55,1.55,0,0,0,97,18.78c-1,0-1.57.5-1.78,1.62Z"/><path class="cls-15" d="M102.65,19.34l0-1.93,4,.11,0,.78a4,4,0,0,1,2.49-.84c1.69,0,2.51,1.15,2.45,3.31l-.1,3.34,1.27,0,0,1.93-4-.11.14-5.08a1.61,1.61,0,0,0-.16-.94.72.72,0,0,0-.6-.27,2.69,2.69,0,0,0-1.54.51L106.48,24l1.29,0,0,1.93-5.25-.14,0-1.93,1.29,0,.12-4.52Z"/><path class="cls-15" d="M121.86,19.73l-.07-1.93,3.95-.15L126,24.1l1.24-.05.08,1.94-5.2.2L122,24.25l1.27-.05-.17-4.52Zm1-4.38a1.47,1.47,0,0,1,2.47-1.14,1.43,1.43,0,0,1,.46,1,1.35,1.35,0,0,1-.39,1,1.45,1.45,0,0,1-2.06.08A1.43,1.43,0,0,1,122.87,15.35Z"/><path class="cls-15" d="M129.27,25.84,128.94,23l1.94-.23a1.16,1.16,0,0,0,.65.87,2.26,2.26,0,0,0,1.32.21,1.92,1.92,0,0,0,1-.35.66.66,0,0,0,.3-.62.54.54,0,0,0-.39-.47,4.92,4.92,0,0,0-1.36-.2,6.77,6.77,0,0,1-3-.66,2.09,2.09,0,0,1-1.1-1.66A2.19,2.19,0,0,1,128.9,18a3.4,3.4,0,0,1,2.16-1,5.38,5.38,0,0,1,2.16.17l0-.28,1.91-.22.28,2.42-1.91.22q-.36-.84-1.92-.66c-.77.08-1.13.34-1.09.77a.4.4,0,0,0,.28.33A5.3,5.3,0,0,0,132,20a15.62,15.62,0,0,1,2.37.27,2.62,2.62,0,0,1,1.33.74,2.48,2.48,0,0,1,.63,1.43,2.57,2.57,0,0,1-.65,2.1,3.64,3.64,0,0,1-2.38,1.07,2.73,2.73,0,0,1-2.12-.38l.05.42Z"/><path class="cls-15" d="M30.51,45.77,31,42.35l2.61.33,1.7-13.39L32.64,29l.44-3.41,10.15,1.28,2.93,12.42,6-11.29,10.34,1.31L62,32.68l-2.62-.33L57.73,45.74l2.61.34-.43,3.41L49.73,48.2l.43-3.41,2.45.31L54.3,31.7l-.48-.06-8.4,16-2.18-.28L39,29.76l-.48-.06-1.7,13.4,2.65.33-.43,3.42Z"/><path class="cls-15" d="M78.82,47.26l-.2,3.27-6.81-.43L71.88,49a6.55,6.55,0,0,1-3.94,1.08,5.75,5.75,0,0,1-3.56-1.43,3.91,3.91,0,0,1-1.33-3.32A4.34,4.34,0,0,1,64.88,42a6.15,6.15,0,0,1,4.24-1.11,9.3,9.3,0,0,1,3.22.92l0-.86a2.32,2.32,0,0,0-.62-1.82,2.69,2.69,0,0,0-1.91-.82,3.51,3.51,0,0,0-2.68.94l-3.6-.89c1.19-2.16,3.55-3.14,7.08-2.91a10.6,10.6,0,0,1,3.36.67A4.81,4.81,0,0,1,76,37.44a4.37,4.37,0,0,1,.83,1.67A10.77,10.77,0,0,1,76.87,42l-.33,5.17Zm-6.68-2.4a5.39,5.39,0,0,0-2.55-1.19,2.35,2.35,0,0,0-1.44.36,1.54,1.54,0,0,0-.72,1.28,1.9,1.9,0,0,0,.43,1.36,1.69,1.69,0,0,0,1.28.64A4.46,4.46,0,0,0,72.07,46Z"/><path class="cls-15" d="M80.66,50.62l.06-3.27,2.28,0,.26-13.85-2.29,0L81,30.22l6.81.13L87.6,43.23l4.94-3.88-3-.05,0-2.71,8.57.16,0,2.87-1.42,0-4.22,3.47,3.7,4.57,2,0-.06,3.27-4.36-.08L87.6,43.23l-.08,4.4,1.71,0-.06,3.1Z"/><path class="cls-15" d="M111.07,46.36l3.54,1q-2.13,3.53-6.84,3.63a8.18,8.18,0,0,1-5.9-1.84,6.8,6.8,0,0,1-2.22-5.15,7.46,7.46,0,0,1,7.51-7.86,7.16,7.16,0,0,1,4.24,1.13,6.46,6.46,0,0,1,2.53,3,11.62,11.62,0,0,1,.79,4.08l-10.57.25a3.4,3.4,0,0,0,1.29,2.71,4,4,0,0,0,2.38.75A4.76,4.76,0,0,0,111.07,46.36Zm-1-4.38a3.64,3.64,0,0,0-1-2A2.7,2.7,0,0,0,107,39.2c-1.67,0-2.61,1-2.84,2.92Z"/><path class="cls-15" d="M127,46.55l.2,3.26-10,.61-.2-3.26,2.62-.16-.47-7.64-2.46.15-.2-3.26,6.6-.41.22,3.6a5,5,0,0,1,1.57-2.79A4.87,4.87,0,0,1,128,35.32l.73,0,.26,4.28a8.57,8.57,0,0,0-2.77.55,3.32,3.32,0,0,0-1.68,1.77A6.27,6.27,0,0,0,124,45l.11,1.74Z"/><path class="cls-15" d="M133.74,42.14l-2-7.56L131.28,29l4.51-.41.51,5.56-.45,7.77Zm-.71,7.2-.44-4.89,4.87-.45.45,4.9Z"/><path class="cls-10" d="M154.84,137.2s-4.87,8.58-4.64,8,3.58-23.71,3.58-23.71Z"/><path class="cls-1" d="M1.08,116.59c-.25-1-.44-1.86-.6-2.69a.84.84,0,0,1,.08-.57A10.59,10.59,0,0,0,1.08,116.59Z"/><path class="cls-1" d="M22.2,159.59c-.48-.4-1-.83-1.44-1.28-2.52-2.36-5.14-6.25-7.63-10.83A52.74,52.74,0,0,0,22.2,159.59Z"/><path class="cls-1" d="M37.1,166.75a22.81,22.81,0,0,1-4.84-1.22A27.79,27.79,0,0,0,37.1,166.75Z"/><path class="cls-5" d="M28.26,167.29v.1l-2.3,0C26.75,167.35,27.51,167.33,28.26,167.29Z"/><path class="cls-5" d="M26,167.37l-2.31,0v-.1C24.4,167.33,25.17,167.35,26,167.37Z"/><path class="cls-10" d="M4.73,128.43l0,.4c-.32-.92-.62-1.84-.9-2.74-.64-2.06-1.15-3.78-1.56-5.23C2.94,123.22,3.78,125.78,4.73,128.43Z"/><path class="cls-10" d="M12.73,146.75c-1.2-2.1-2.34-4.31-3.4-6.57a.39.39,0,0,0,.14-.08C10.52,142.4,11.61,144.64,12.73,146.75Z"/><path class="cls-10" d="M30.84,165a28.36,28.36,0,0,1-8.41-5.2A32.7,32.7,0,0,0,30.84,165Z"/><path class="cls-10" d="M155.76,143.31c-3.36,7.42-7.39,14.2-11.29,18a25.38,25.38,0,0,1-14.32,7.13v-.11a31.38,31.38,0,0,0,14.9-8.2c3.57-3.36,7.34-9.76,10.68-16.89"/><path class="cls-10" d="M12.52,119.89l-.07,0,0-.3C12.5,119.67,12.5,119.78,12.52,119.89Z"/><path class="cls-1" d="M195.84,116.59c-.25-1-.44-1.86-.6-2.69a.84.84,0,0,1,.08-.57A10.59,10.59,0,0,0,195.84,116.59Z"/><path d="M155.28,143.64c.9.83,1.95.58,3.06.5s2.2,0,3-.61c1.61-1.25,1-3.89.87-5.65l-.49-7.21a2.54,2.54,0,0,1,0-.55,9.49,9.49,0,0,1,.63-1.76c.26-.76.51-1.51.76-2.26.76-2.31,1.46-4.64,2.06-7,.28-1.14,1.6-4.13.05-4.74a1.84,1.84,0,0,0-1.76.38c-1.16.86-2.28,1.76-3.48,2.56l.88.09-1.48-22-2.35-35-.54-8-.76.56h.16c.24,0,.78-.25.76-.56L154.47,15.6,154,7.29c-.08-1.41.18-3.65-1.5-4.21-1.23-.41-3.18,0-4.45.12-3.28.23-6.56.79-9.82,1.26-6.16.88-12.3,1.93-18.45,2.92A155.92,155.92,0,0,1,85,9.44c-9.49-.6-19-2.14-28.36-3.56C46.5,4.34,36.34,2.68,26.19,1L22.13.28A9.08,9.08,0,0,0,19.54,0C18,.23,17.45,1.49,17.3,2.85,17,5.9,16.63,9,16.32,12,15.1,23.77,14,35.54,12.76,47.31l-.12,1.2c-.05.5,1.13.15,1.18-.31l3.51-34.9c.14-1.39.29-2.78.44-4.17l.62-5.78c.05-.46.06-1,.15-1.42.27-1.3,1.21-1.1,2.22-1,4.51.59,9,1.52,13.48,2.26Q42,4.51,49.85,5.73C59.9,7.3,70,8.87,80.11,9.89a137.54,137.54,0,0,0,31.48-.55c5.44-.71,10.85-1.66,16.27-2.54,6.47-1,13-2.24,19.54-2.78.78-.07,1.57-.1,2.35-.15s1.69-.26,2.3.19.61,1.19.65,1.87l.38,6.41,2.33,39.37.06.95.76-.56h-.16c-.24,0-.78.24-.76.56l1.48,22,2.35,35,.54,8c0,.42.67.22.87.09.75-.5,1.49-1,2.21-1.55a11.57,11.57,0,0,1,1-.75c.6-.33,1.07-.2,1,.57a28,28,0,0,1-1.23,5.07c-.53,1.93-1.13,3.84-1.76,5.74a15.41,15.41,0,0,0-1.21,3.72,43.17,43.17,0,0,0,.34,5.07c.12,1.75.26,3.5.35,5.24a4.61,4.61,0,0,1,0,1.05c-.17,1-.67,1.25-1.51,1.3-1.05.08-2.57.5-3.41-.27-.33-.31-1.41.29-1,.65Z"/><path d="M12.45,50.05,10.09,72.47,6.35,108l-.86,8.14,1.1-.48c-1-.65-2-1.31-2.9-2-.63-.48-1.26-1.27-2.12-1.23A1.55,1.55,0,0,0,0,113.87a19,19,0,0,0,1,4.69c.62,2.33,1.32,4.62,2.09,6.9.44,1.31,1.15,2.61,1,4-.12,1.08-.23,2.16-.34,3.23l-.39,3.71a6.46,6.46,0,0,0,0,2.4c.41,1.53,1.65,1.58,3,1.72s2.41.45,3.51-.17H8.93c3.11,6.79,6.77,13.68,12.15,19a28.78,28.78,0,0,0,16.57,7.95l-.28-.25c.2,4.63.12,9.55,1.65,14a53.59,53.59,0,0,0,3.62,8.12A47.44,47.44,0,0,0,60.2,207.64c10.53,6.09,23.19,7,35,4.87,9.88-1.76,19-6.36,25.2-14.43a45.65,45.65,0,0,0,6-10.79,54.11,54.11,0,0,0,3.65-13.18c.25-2,.42-3.9.57-5.86l-.61.53c5.66-1.06,10.93-4.28,15.13-8.12,5.06-4.64,8.31-11.31,11.19-17.43.25-.53-.94-.29-1.13.11-2.74,5.82-5.79,12.19-10.52,16.68-4,3.81-9.13,7-14.64,8-.23,0-.58.26-.6.53a63.34,63.34,0,0,1-1.36,10.36c-.46,1.9-1.09,3.77-1.73,5.61a52.17,52.17,0,0,1-5,10.69,36.6,36.6,0,0,1-22.69,15.83c-11.55,2.82-24.59,2.44-35.35-3A45.84,45.84,0,0,1,44.81,190.4a55.16,55.16,0,0,1-4.06-8.32c-.38-1-.74-2-1-3a31.47,31.47,0,0,1-.86-6.78c-.13-1.87-.22-3.73-.3-5.6,0-.16-.14-.23-.29-.25a28,28,0,0,1-16.4-8c-5.19-5.23-8.74-11.92-11.78-18.56-.14-.31-.67-.1-.86,0-.58.34-2-.12-2.67-.18a6.13,6.13,0,0,1-1-.11c-1-.27-1.23-1.36-1.18-2.28.07-1.51.32-3,.48-4.55a30.41,30.41,0,0,0,.46-4.36,9.64,9.64,0,0,0-.74-2.28c-.36-1-.71-2.09-1-3.14q-.82-2.58-1.52-5.21c-.24-.92-.48-1.85-.66-2.79-.06-.29-.38-1.24-.22-1.57s0-.18.34,0a7.31,7.31,0,0,1,1.15.93c.94.71,1.92,1.37,2.9,2a.83.83,0,0,0,1.11-.48L9,93.43l3.74-35.55.86-8.14c0-.5-1.13-.15-1.18.31Z"/><path d="M131.14,133.23q-.13-7.68-.4-15.37c0-1.06-.08-2.13-.11-3.2a16.52,16.52,0,0,1,0-3.37,38.2,38.2,0,0,0,1-7.23,42.26,42.26,0,0,0-2.32-12.93c-.42-1.26-.88-2.5-1.4-3.71a3.16,3.16,0,0,1-.33-.73,10.41,10.41,0,0,1,.27-1.87c.64-6.61-1.28-13.56-3.27-19.8-.49-1.55-1-3.1-1.6-4.61-.89-2.26-3-1.57-4.61-.42a89.16,89.16,0,0,0-6.83,5.78Q109,68,106.53,70.17l.83-.22a68.42,68.42,0,0,0-19.64-3.67l.29.25a11.5,11.5,0,0,1,2.75-6.9c.32-.36-.22-.5-.49-.42-2.64.75-4.49,2.81-6,5.05l1.08-.21a15.09,15.09,0,0,0-7.22-6c-.27-.11-1.23.22-1,.62a16.9,16.9,0,0,1,2.35,6.94l1.1-.48A11.91,11.91,0,0,0,74.72,62c-.27-.07-1.37.31-.94.7a11.51,11.51,0,0,1,3,4.59l.75-.65A64.1,64.1,0,0,0,61.39,70l.71.07a41.79,41.79,0,0,0-4.41-5.62,54.29,54.29,0,0,0-6.53-6.94c-1.09-.91-2.49-1.72-3.92-1.11a4.9,4.9,0,0,0-2.06,2.21,32,32,0,0,0-3.94,10.22,55.86,55.86,0,0,0-1.11,10c0,1.14,0,2.28,0,3.41a5,5,0,0,1,.07,1.39,8.92,8.92,0,0,1-.84,1c-.29.39-.56.8-.82,1.21a23.91,23.91,0,0,0-1.38,2.47,27.49,27.49,0,0,0-1.87,5.29,38.25,38.25,0,0,0-.84,11.54A59.23,59.23,0,0,0,36.28,116c.63,2.4.37,5,.37,7.46,0,3.05,0,6.09.05,9.14l1-.53q-7.56-3.54-15-7.33c-3.12-1.61-6.23-3.25-9.29-5-.67-.38-.28-.06-.31-.44,0-.14,0-.29.05-.43L14.53,106l4.69-44.61.85-8.07a10.38,10.38,0,0,0,.16-3.42l-.88.66c17.7,2.44,35.46,4.59,53.26,6.21s35.82,1,53.73-.62q11.34-1,22.64-2.52l-.42-.25,1.55,23.12,2.47,36.82.57,8.39.3-.4c-7.5,4.26-15.25,8.09-23,11.78-.68.33-.41,1,.28.64,7.89-3.74,15.73-7.62,23.33-11.93.12-.07.32-.24.31-.4l-1.56-23.12L150.3,61.43,149.74,53c0-.21-.24-.27-.42-.25-15.08,2-30.27,3.47-45.47,4A223.42,223.42,0,0,1,77,56.26c-10.35-.89-20.69-2-31-3.21q-13-1.53-26-3.33c-.32,0-1,.25-.88.65A6.13,6.13,0,0,1,19,52.46l-.52,4.94L16.74,74l-3.93,37.37c-.3,2.87-.53,5.76-.91,8.63,0,.11.08.19.16.22,2.33,1,4.53,2.5,6.78,3.68s4.72,2.44,7.11,3.63q5.41,2.7,10.91,5.27c.3.14,1-.15,1-.53q-.06-7.33-.05-14.67a18.32,18.32,0,0,0-.84-3.91q-.54-2.34-.9-4.71c-1.05-7.11-.88-14.8,2.45-21.32a22.43,22.43,0,0,1,1.52-2.54c.37-.54,1.17-1.21,1.33-1.83a5.21,5.21,0,0,0-.06-1.11,60.07,60.07,0,0,1,.15-7,45.31,45.31,0,0,1,1.93-10.45,28.17,28.17,0,0,1,2.09-4.93c.5-.88,1.37-3,2.6-2.83,1.57.22,3.07,2,4.13,3.14,1.25,1.28,2.44,2.63,3.61,4A44.31,44.31,0,0,1,61,70.57c.15.25.51.15.72.07A61.6,61.6,0,0,1,77.15,67.4c.26,0,.87-.29.74-.66A12.06,12.06,0,0,0,74.81,62l-.94.7a11.51,11.51,0,0,1,5.73,3.12c.26.28,1.14-.11,1.11-.48a17.42,17.42,0,0,0-2.38-7.13l-1,.63a14.53,14.53,0,0,1,6.92,5.71c.21.36.91.07,1.08-.2,1.2-1.84,2.7-3.77,4.91-4.39l-.49-.42a12.22,12.22,0,0,0-2.92,7.3c0,.16.14.24.28.25a67.48,67.48,0,0,1,19.4,3.61.9.9,0,0,0,.84-.23c3.3-3,6.62-6,10.05-8.83a14.38,14.38,0,0,1,2.07-1.56c1.15-.65,1.82-.33,2.3.9.62,1.57,1.15,3.17,1.65,4.77,1.92,6.06,3.72,12.7,3.19,19.1a6.41,6.41,0,0,0-.14,2.6c.34,1,.81,1.93,1.16,2.91a43.73,43.73,0,0,1,2.65,12,27.42,27.42,0,0,1-.51,7.83,9.63,9.63,0,0,0-.43,2c0,.49,0,1,.06,1.46l.12,3.5q.28,8.19.44,16.39C130,134.07,131.14,133.68,131.14,133.23Z"/><path class="cls-10" d="M155.8,143.31c-3.36,7.42-7.39,14.2-11.29,18a25.38,25.38,0,0,1-14.32,7.13v-.11a31.38,31.38,0,0,0,14.9-8.2c3.57-3.36,7.34-9.76,10.68-16.89"/><path class="cls-13" d="M104.14,210.46c0,1.76-1.4,4.32-2.69,6.31a2.44,2.44,0,0,1-4.29,0c-1.29-2-2.69-4.55-2.69-6.31,0-3.28,2.16-5.94,4.83-5.94S104.14,207.18,104.14,210.46Z"/><path class="cls-13" d="M112.19,210.27c0,2.16-1.77,5.29-3.4,7.72a3.14,3.14,0,0,1-5.43,0c-1.64-2.43-3.4-5.56-3.4-7.72,0-4,2.73-7.25,6.11-7.25S112.19,206.26,112.19,210.27Z"/><path class="cls-13" d="M116.83,210.46c0,1.76-1.4,4.32-2.69,6.31a2.44,2.44,0,0,1-4.29,0c-1.29-2-2.69-4.55-2.69-6.31,0-3.28,2.17-5.94,4.84-5.94S116.83,207.18,116.83,210.46Z"/><ellipse class="cls-8" cx="108.25" cy="206.66" rx="1.4" ry="2.89" transform="translate(-100.83 103.16) rotate(-36.02)"/><ellipse class="cls-8" cx="100.84" cy="207.77" rx="1.15" ry="2.36" transform="translate(-82.24 67) rotate(-26.55)"/><ellipse class="cls-8" cx="114.11" cy="208.21" rx="1.1" ry="2.27" transform="translate(-81.04 72.98) rotate(-26.55)"/><path d="M116.62,210.44a11.31,11.31,0,0,1-1.91,5,4.75,4.75,0,0,1-1.92,2.25c-1.2.49-2.19-.27-2.82-1.22a.29.29,0,0,0-.46,0c-.91,1.43-2,3.25-4,2.81-1.64-.36-2.48-2.21-3.25-3.52a.28.28,0,0,0-.46,0c-.59,1-1.28,2.14-2.59,2.06-1.08-.07-1.68-.94-2.2-1.78a14.12,14.12,0,0,1-2.22-5c-.58-3.66,2.93-8.12,6.74-5.69a.29.29,0,0,0,.34,0,5.28,5.28,0,0,1,8.18-.32.32.32,0,0,0,.3.06c3.61-1.64,6.17,2.09,6.25,5.31,0,.25.5.28.49,0-.07-3.12-2.32-6.75-5.9-6.05-.58.11-.74.27-1.25-.07a13.31,13.31,0,0,0-1.15-.82,5.7,5.7,0,0,0-2.52-.7,6,6,0,0,0-4.81,2.33l.34,0c-4.18-2.67-8.35,2.18-7.44,6.36a13.36,13.36,0,0,0,1.54,3.63A6.84,6.84,0,0,0,98,217.85c1.91,1.15,3.37-.38,4.31-1.92h-.46c1,1.63,2,3.7,4.13,3.8s3.05-1.58,4-3.11h-.46c1,1.48,2.79,2.2,4.28.92a10.74,10.74,0,0,0,2.12-3.29,9.29,9.29,0,0,0,1.19-3.8C117.12,210.22,116.63,210.19,116.62,210.44Z"/><path class="cls-13" d="M61.29,209.89c0,1.76-1.39,4.32-2.69,6.32a2.44,2.44,0,0,1-4.29,0c-1.29-2-2.69-4.56-2.69-6.32,0-3.27,2.17-5.93,4.84-5.93S61.29,206.62,61.29,209.89Z"/><path class="cls-13" d="M69.34,209.71c0,2.15-1.76,5.28-3.4,7.72a3.14,3.14,0,0,1-5.43,0c-1.63-2.44-3.4-5.57-3.4-7.72,0-4,2.74-7.26,6.12-7.26S69.34,205.7,69.34,209.71Z"/><path class="cls-13" d="M74,209.89c0,1.76-1.4,4.32-2.69,6.32a2.45,2.45,0,0,1-4.3,0c-1.29-2-2.68-4.56-2.68-6.32,0-3.27,2.16-5.93,4.83-5.93S74,206.62,74,209.89Z"/><ellipse class="cls-8" cx="71.21" cy="207.49" rx="1.1" ry="2.27" transform="translate(-85.25 53.72) rotate(-26.55)"/><ellipse class="cls-8" cx="65.41" cy="206.07" rx="1.4" ry="2.89" transform="translate(-108.67 77.86) rotate(-36.02)"/><ellipse class="cls-8" cx="58.21" cy="207.02" rx="1.15" ry="2.36" transform="translate(-86.41 47.86) rotate(-26.55)"/><path d="M73.77,209.88a11.3,11.3,0,0,1-1.9,5,4.77,4.77,0,0,1-1.93,2.25c-1.2.49-2.18-.27-2.82-1.22a.29.29,0,0,0-.46,0c-.91,1.43-2,3.25-4,2.81-1.64-.36-2.47-2.21-3.25-3.52a.29.29,0,0,0-.46,0c-.59,1-1.28,2.14-2.59,2.06-1.08-.07-1.68-.94-2.2-1.78a14.1,14.1,0,0,1-2.21-5c-.58-3.66,2.92-8.12,6.73-5.69a.3.3,0,0,0,.35,0,5.26,5.26,0,0,1,8.17-.31.33.33,0,0,0,.3,0c3.61-1.64,6.18,2.09,6.25,5.31,0,.25.5.28.5,0-.07-3.12-2.33-6.75-5.91-6-.58.11-.74.27-1.25-.07s-.72-.59-1.14-.82a5.78,5.78,0,0,0-2.53-.7,6,6,0,0,0-4.81,2.33l.35,0c-4.19-2.67-8.36,2.18-7.44,6.36a13.34,13.34,0,0,0,1.53,3.63,6.93,6.93,0,0,0,2.06,2.74c1.91,1.15,3.37-.38,4.31-1.92H59c.95,1.63,2,3.7,4.12,3.8s3.06-1.58,4-3.11h-.45c1,1.48,2.78,2.2,4.27.92a10.74,10.74,0,0,0,2.12-3.29,9.3,9.3,0,0,0,1.2-3.8C74.28,209.66,73.78,209.63,73.77,209.88Z"/></g></g></svg>