<svg xmlns="http://www.w3.org/2000/svg" viewBox="0 0 160.12 95.35"><defs><style>.cls-1{fill:#629bd3;}.cls-2{fill:none;stroke:#010101;stroke-linecap:round;stroke-linejoin:round;stroke-width:2px;}.cls-3{fill:#fff;}.cls-4{fill:#11110e;}.cls-5{fill:#00040c;}</style></defs><g id="Laag_2" data-name="Laag 2"><g id="Laag_1-2" data-name="Laag 1"><path class="cls-1" d="M69.8,4.83l21,22.62,1.81,1.95a8.17,8.17,0,0,1,2.15,5.52V90.18a5.05,5.05,0,0,1-5.06,5.06H39.26C12.85,91.89.26,64.83.26,51.18,0,7.17,40.49,1.85,40.49,1.85H63a9.36,9.36,0,0,1,6.85,3v0"/><path d="M47.71,15.81A33.19,33.19,0,1,0,80.9,49,33.19,33.19,0,0,0,47.71,15.81Zm0,57.68A24.49,24.49,0,1,1,72.19,49,24.49,24.49,0,0,1,47.71,73.49Z"/><path d="M90.56,27.55l5.88-4.91a4,4,0,0,0,.46-5.72L84.83,3.12a8.36,8.36,0,0,0-11.78-.8l-3,2.58Z"/><path d="M143.92,62.64v18.5a1,1,0,0,0,1,1h9.22a1,1,0,0,1,1,1v6.73a1,1,0,0,0,1,1h2.54a1,1,0,0,0,1-1V62.64a1,1,0,0,0-1-1H144.91A1,1,0,0,0,143.92,62.64Z"/><line class="cls-2" x1="132.49" y1="62.35" x2="132.49" y2="69.68"/><line class="cls-2" x1="108.61" y1="62.35" x2="108.61" y2="69.68"/><line class="cls-2" x1="120.74" y1="62.27" x2="120.74" y2="74.2"/><path d="M159.19,61.85V91.06l.73-.41H156.3a3.86,3.86,0,0,1-.76,0c-.26-.05.07.21.05,0,0-.4,0-.84,0-1.24V82.05c0-.11-.1-.12-.19-.12H95.21c-.17,0-.73.17-.73.41V87c0,1.77.29,3.91-.58,5.51-1.44,2.62-4.08,2.3-6.57,2.3H42.88a28.48,28.48,0,0,1-6-.47,40.56,40.56,0,0,1-15.84-7A51.28,51.28,0,0,1,3.3,62.91,37.19,37.19,0,0,1,1,51.22,57.57,57.57,0,0,1,3.07,34.35,43.92,43.92,0,0,1,17.7,12.18,50.78,50.78,0,0,1,34.5,3.36a45.7,45.7,0,0,1,5-1.27,9.26,9.26,0,0,1,2.25-.16c7,0,13.93,0,20.89,0,2.3,0,5.52.87,6.9,2.94.17.24.7-.09.84-.21,1-.84,1.91-1.71,2.91-2.51a7.9,7.9,0,0,1,8.19-.84C83.77,2.37,85.34,4.6,87,6.44l6.74,7.66c1.47,1.67,4,3.72,3.71,6.18-.23,1.94-2,3-3.33,4.13l-3.39,2.8c-.09.08-.22.18-.12.3,2.09,2.26,3.9,4.3,3.92,7.59,0,1.66,0,3.31,0,5V61.85c0,.11.1.13.2.13h64.71c.25,0,1.05-.54.53-.54h-62c-.73,0-1.48,0-2.21,0a1.13,1.13,0,0,1-.41,0c.27.11.07.13.16-.17a5.71,5.71,0,0,0,0-1.37V38.35c0-3.43.25-6.67-2.28-9.45C92.56,28.27,92,27.65,91.4,27l-.12.29,3.29-2.72a14.67,14.67,0,0,0,3.1-2.83c2-3.05-.79-5.49-2.65-7.6L87.59,5.72C85.68,3.55,84,1.18,81,.34a9.4,9.4,0,0,0-7.65,1.22,39.63,39.63,0,0,0-3.74,3.12l.84-.21c-1.43-2.14-4.71-3-7.11-3.07-1,0-2,0-3,0H47.48c-2.19,0-4.47-.2-6.65,0a23.74,23.74,0,0,0-3.21.66,54.16,54.16,0,0,0-15.8,6.65A45.18,45.18,0,0,0,5.05,27.05,50.15,50.15,0,0,0,.55,42.34,45.41,45.41,0,0,0,.64,57,52,52,0,0,0,14.5,82.88a43,43,0,0,0,14.06,9.63c3.5,1.46,7.55,2.82,11.37,2.82H84.54c1.68,0,3.37,0,5,0a6,6,0,0,0,5.27-3.14c.81-1.62.56-3.62.56-5.37V82.05l-.73.42h58.24a12.2,12.2,0,0,0,1.6,0,.81.81,0,0,1,.31,0c-.27-.13-.1-.06-.16.29a28.49,28.49,0,0,0,0,4.8v3.5c0,.12.1.13.19.13h4.53c.18,0,.73-.17.73-.41V61.56C160.12,61.26,159.19,61.57,159.19,61.85Z"/><path d="M94.44,61.72V82.2c0,.27,1,.27,1,0V61.7c0-.27-1-.26-1,0Z"/><ellipse class="cls-3" cx="47.74" cy="49.22" rx="24.46" ry="24.98"/><path class="cls-4" d="M60.2,53.64a.34.34,0,0,1-.35-.3.35.35,0,0,1,.3-.4l2-.26a.35.35,0,0,1,.39.31.34.34,0,0,1-.3.39l-2,.26Z"/><path class="cls-4" d="M59,44.41a.36.36,0,0,1-.35-.31.36.36,0,0,1,.31-.4l2-.25a.36.36,0,0,1,.4.3.36.36,0,0,1-.31.4L59,44.4Z"/><path class="cls-4" d="M59.3,42a.36.36,0,0,1-.35-.31.36.36,0,0,1,.31-.4l1.33-.17a.36.36,0,0,1,.4.3.37.37,0,0,1-.31.4L59.35,42Z"/><path class="cls-4" d="M58.68,42.1a.35.35,0,0,1-.35-.31.34.34,0,0,1,.3-.39l.63-.09a.35.35,0,0,1,.39.31.34.34,0,0,1-.3.39l-.63.09Z"/><path class="cls-4" d="M59.59,49a.35.35,0,0,1-.35-.31.36.36,0,0,1,.3-.4l2-.25a.36.36,0,0,1,.4.3.36.36,0,0,1-.31.4l-2,.25Z"/><path class="cls-4" d="M59.89,51.34a.36.36,0,0,1,0-.71l1.95-.26a.36.36,0,0,1,.4.31.34.34,0,0,1-.3.39l-2,.26Z"/><path class="cls-4" d="M59.28,46.72a.35.35,0,0,1-.34-.31.36.36,0,0,1,.3-.4l2-.25a.34.34,0,0,1,.39.3.36.36,0,0,1-.3.4l-2,.25Z"/><path class="cls-4" d="M33.26,45.44a.36.36,0,0,1-.35-.3.37.37,0,0,1,.31-.4l2-.26a.35.35,0,0,1,.39.31.34.34,0,0,1-.3.39l-2,.26Z"/><path class="cls-4" d="M34.48,54.68a.36.36,0,0,1-.35-.31.35.35,0,0,1,.3-.39l2-.26a.35.35,0,1,1,.09.7l-1.95.26Z"/><path class="cls-4" d="M34.78,57a.36.36,0,0,1-.35-.31.36.36,0,0,1,.31-.39l2-.26a.34.34,0,0,1,.39.3.35.35,0,0,1-.3.4l-2,.26Z"/><path class="cls-4" d="M33.87,50.06a.36.36,0,0,1-.35-.3.35.35,0,0,1,.31-.4l2-.26a.36.36,0,0,1,.4.31.34.34,0,0,1-.3.39l-2,.26Z"/><path class="cls-4" d="M33.57,47.75a.35.35,0,0,1-.35-.3.35.35,0,0,1,.3-.4l2-.26a.36.36,0,0,1,.4.31.35.35,0,0,1-.31.39l-2,.26Z"/><path class="cls-4" d="M34.18,52.37a.35.35,0,0,1-.35-.31.34.34,0,0,1,.3-.39l2-.26a.35.35,0,0,1,.09.7l-2,.26Z"/><path class="cls-4" d="M40,62.71a.35.35,0,0,1-.35-.31l-.26-1.95a.35.35,0,1,1,.7-.1l.26,2a.36.36,0,0,1-.31.4Z"/><path class="cls-4" d="M49.24,61.49a.34.34,0,0,1-.34-.3l-.26-2a.36.36,0,0,1,.3-.4.36.36,0,0,1,.4.31l.25,2a.35.35,0,0,1-.3.4Z"/><path class="cls-4" d="M51.55,61.19a.36.36,0,0,1-.35-.31l-.25-2a.35.35,0,0,1,.3-.4.36.36,0,0,1,.4.3l.25,2a.36.36,0,0,1-.3.4Z"/><path class="cls-4" d="M44.63,62.1a.35.35,0,0,1-.35-.31L44,59.84a.35.35,0,0,1,.3-.4.36.36,0,0,1,.4.31l.26,2a.36.36,0,0,1-.31.4Z"/><path class="cls-4" d="M42.32,62.41A.35.35,0,0,1,42,62.1l-.26-2a.34.34,0,0,1,.3-.39.35.35,0,0,1,.4.3l.26,2a.35.35,0,0,1-.31.39Z"/><path class="cls-4" d="M46.94,61.8a.35.35,0,0,1-.35-.31l-.26-2a.34.34,0,0,1,.3-.39.36.36,0,0,1,.4.3l.26,2a.35.35,0,0,1-.31.39Z"/><path class="cls-4" d="M55,38a.36.36,0,0,1-.35-.31l-.26-2a.35.35,0,0,1,.31-.39.34.34,0,0,1,.39.3l.26,2a.34.34,0,0,1-.3.39Z"/><path class="cls-4" d="M45.79,39.17a.36.36,0,0,1-.35-.3l-.25-2a.36.36,0,0,1,.3-.4.36.36,0,0,1,.4.31l.25,2a.35.35,0,0,1-.3.4Z"/><path class="cls-4" d="M43.48,39.48a.35.35,0,0,1-.34-.31l-.26-2a.34.34,0,0,1,.3-.39.36.36,0,0,1,.4.3l.25,2a.34.34,0,0,1-.3.39Z"/><path class="cls-4" d="M50.41,38.57a.36.36,0,0,1-.35-.31l-.25-2a.35.35,0,0,1,.69-.09l.26,2a.34.34,0,0,1-.3.39Z"/><path class="cls-4" d="M52.72,38.26a.36.36,0,0,1-.35-.31l-.26-2a.36.36,0,0,1,.31-.4.35.35,0,0,1,.39.31l.26,2a.35.35,0,0,1-.3.4Z"/><path class="cls-4" d="M48.1,38.87a.36.36,0,0,1-.35-.31l-.25-2a.35.35,0,0,1,.3-.4.36.36,0,0,1,.4.3l.25,2a.36.36,0,0,1-.3.4Z"/><path class="cls-5" d="M60.39,58.31l-5.48,4.06-.44-3.28-3.09.4-2.31.31-2.31.3-2.31.3-2.31.31-2.31.3-1.57.21a1.44,1.44,0,0,1-1.68-1.12l-.48-3.64-.3-2.3-.31-2.31-.3-2.31-.3-2.31-.31-2.31-.5-3.84a1.3,1.3,0,0,1,.56-1.19,1.47,1.47,0,0,0,.16-.13L40,35.57l.45,3.33,3-.39,2.31-.31L48,37.9l2.31-.31,2.31-.3L55,37l2.17-.29a1.43,1.43,0,0,1,1.68,1.12L59.22,41h0l.09.67h0L59.61,44l.3,2.31.31,2.31.3,2.31.08.63h0l.22,1.68.48,3.63C61.4,57.57,60.78,58,60.39,58.31Z"/><path class="cls-3" d="M41.91,44.9l-.63-.5a.17.17,0,0,1-.07-.1.17.17,0,0,0,0,.1v.49h.65a.13.13,0,0,1,.09,0h0Z"/><path class="cls-3" d="M52.74,42.88l0-.06a.23.23,0,0,1,0,.18l-.4.51.59-.16Z"/><path class="cls-3" d="M55.54,53.53,55,51.28l-1.07.28a.14.14,0,0,1-.09,0,.12.12,0,0,1-.06-.08.12.12,0,0,1,.09-.15L54.88,51l-.09-.35-.63.16a.1.1,0,0,1-.09,0,.11.11,0,0,1-.06-.07.11.11,0,0,1,.09-.15l.63-.17-.09-.35-.63.16a.11.11,0,0,1-.1,0s0,0,0-.07a.12.12,0,0,1,.08-.15l.63-.17-.09-.35-.63.16a.13.13,0,0,1-.09,0,.12.12,0,0,1-.06-.08.12.12,0,0,1,.09-.15l.63-.16-.1-.36-.63.17a.14.14,0,0,1-.09,0,.16.16,0,0,1-.06-.08.14.14,0,0,1,.09-.15l.63-.16-.09-.36-1.07.28a.14.14,0,0,1-.09,0,.12.12,0,0,1,0-.22l1.06-.28L54,47.73l-.63.16a.1.1,0,0,1-.09,0,.11.11,0,0,1-.06-.07.13.13,0,0,1,.09-.15l.63-.17-.09-.35-.63.16a.11.11,0,0,1-.1,0,.09.09,0,0,1-.05-.07.12.12,0,0,1,.08-.15l.63-.17-.09-.36-.63.17a.14.14,0,0,1-.09,0,.12.12,0,0,1-.06-.08.12.12,0,0,1,.09-.15l.63-.16L53.55,46l-.63.17a.16.16,0,0,1-.1,0s0,0,0-.08a.12.12,0,0,1,.08-.15l.63-.16-.09-.36-1.07.28a.14.14,0,0,1-.09,0,.12.12,0,0,1-.06-.08.14.14,0,0,1,.09-.15l1.07-.28-.1-.35-.63.17a.15.15,0,0,1-.09,0,.11.11,0,0,1-.06-.07.13.13,0,0,1,.09-.15l.63-.17-.09-.35-.63.16a.12.12,0,0,1-.1,0,.18.18,0,0,1-.05-.07.11.11,0,0,1,.09-.15l.63-.17-.1-.35-.63.16a.14.14,0,0,1-.09,0,.12.12,0,0,1-.06-.08h0a.14.14,0,0,1,.09-.15h0l.4-.51a.23.23,0,0,0,0-.18.18.18,0,0,0-.08-.13l-1.16-.93a.23.23,0,0,0-.31,0l-3.88,4.89-4.81-3.81a.22.22,0,0,0-.31,0l-.92,1.16a.22.22,0,0,0,0,.22.17.17,0,0,0,.07.1l.63.5h0A.12.12,0,0,1,42,45a.13.13,0,0,1,0,.09.12.12,0,0,1-.08,0h-.66v.37h.65a.13.13,0,0,1,.12.13.14.14,0,0,1-.12.12h-.65v.37h.65a.12.12,0,0,1,.12.12.11.11,0,0,1-.12.12h-.65v.36h1.1a.12.12,0,0,1,.13.12.18.18,0,0,1,0,.09.12.12,0,0,1-.09,0h-1.1v.37h.66a.13.13,0,0,1,.12.12.1.1,0,0,1,0,.09.12.12,0,0,1-.08,0H41.2V48h.65a.12.12,0,0,1,.12.13.11.11,0,0,1,0,.08.12.12,0,0,1-.09,0H41.2v.37h.65a.11.11,0,0,1,.12.12.08.08,0,0,1,0,.08.1.1,0,0,1-.09,0H41.2v.37h.65a.12.12,0,0,1,.13.12.18.18,0,0,1,0,.09.11.11,0,0,1-.08,0H41.2v.36h1.1a.12.12,0,0,1,.12.12.16.16,0,0,1,0,.09l-.09,0h-1.1v.36h.65a.13.13,0,0,1,.09.21.15.15,0,0,1-.09,0h-.65V51h.65a.13.13,0,0,1,.13.13.12.12,0,0,1,0,.08.13.13,0,0,1-.09,0h-.65v.37h.66a.12.12,0,0,1,.12.12.14.14,0,0,1-.12.12h-.66v.37h.65a.12.12,0,0,1,.12.12.11.11,0,0,1-.12.12h-.65v.36h1.1a.12.12,0,0,1,.12.12.16.16,0,0,1,0,.09.12.12,0,0,1-.09,0h-1.1v2.32a.21.21,0,0,0,.19.19h1.83a.16.16,0,0,0,.13-.06.19.19,0,0,0,0-.13l0-9.33,4,3.19a.23.23,0,0,0,.32,0l.24-.3.67-.85,2.38-3,2.38,9a.15.15,0,0,0,.08.11.17.17,0,0,0,.14,0l1.78-.47a.21.21,0,0,0,.11-.08A.22.22,0,0,0,55.54,53.53Zm-13.21,1a.34.34,0,0,1-.24-.09.33.33,0,0,1-.1-.24.31.31,0,0,1,.1-.24.34.34,0,0,1,.24-.11.33.33,0,0,1,.23.1.34.34,0,0,1,.11.24A.35.35,0,0,1,42.33,54.52ZM54.45,52.8a.28.28,0,0,1-.2.15.34.34,0,0,1-.42-.24.35.35,0,0,1,.24-.41.39.39,0,0,1,.26,0,.34.34,0,0,1,.12.47Z"/><path class="cls-3" d="M52.27,43.51l-.13.15a.14.14,0,0,1,.09-.15Z"/></g></g></svg>