<svg xmlns="http://www.w3.org/2000/svg" viewBox="0 0 136.71 171.48"><defs><style>.cls-1{fill:#40719c;}.cls-2,.cls-3{fill:#164e5e;}.cls-2{opacity:0.6;}.cls-3{opacity:0.29;}.cls-4{fill:#5284c4;}.cls-5{fill:#629bd3;}.cls-6{fill:#fff;}.cls-7{fill:#34607f;}.cls-8{fill:#3b3734;}.cls-9{fill:#afafaf;}.cls-10{fill:#fab400;}.cls-11{fill:#ea6613;}</style></defs><g id="Laag_2" data-name="Laag 2"><g id="Laag_1-2" data-name="Laag 1"><path class="cls-1" d="M96.83,65.77s11.35-15.91,24.92-26c.69-.52,5.89,7.27,5.85,8.14C127,59.41,128,73.67,122.67,84c-5.91,11.39-14.18,13.14-14.18,13.14L92.65,68.45Z"/><path class="cls-2" d="M106.86,91,108,97.43s8.12-1.62,14.48-13.06c4.5-8.1,5.7-24.73,4.92-37.38s-1.89-1.67-1.89-1.67S124.07,84.9,106.86,91Z"/><path class="cls-1" d="M14.16,75.22S1.73,94.61.93,99s-1.34,10.77,3.41,16.25,18.43,17.29,18.43,17.29Z"/><path class="cls-2" d="M14,87.67s.23,13,.67,18.55,3.9,11.93,3.9,11.93S14.41,91.65,14,87.67Z"/><ellipse class="cls-3" cx="71.51" cy="163.45" rx="55.4" ry="8.03"/><path class="cls-4" d="M9.62,52.31s8.35,70,11.59,77.28S38.62,161.88,70,157.65s37.51-23.28,39.93-38.77-8.87-78.14-8.87-78.14"/><path class="cls-4" d="M102.94,43.73a25.11,25.11,0,0,1,0,7.19c-1.83,11.55.32,25.33-44.22,31C21.59,86.58,13.84,73,13.84,73S.83,50.07,10.9,34.46c0,0-3.11-15,1.69-25.15.62-1.28,1.26-3.83,4.87-1.52s11.55,9.92,12.35,11c0,0,20.59-11,45.05-5.71,0,0,8.31-9.66,10.52-11.69.37-.25,2.44-2.27,3.52.14,0,0,8.67,15.91,7.84,25.47a45.83,45.83,0,0,1,6.2,16.7"/><path class="cls-5" d="M54,42.19c-8.49-7.44-24.26-18.38-33.26-11.47s-12.6,19.6-9.41,30.36c1.48,5,4.43,9.71,9,12.25,4,2.23,8.83,2.56,13.38,1.94A35,35,0,0,0,56.62,61.91c6.53,3.63,13.77,7.48,21.28,7.35s15.25-3.59,19-10c2.64-4.51,3.09-10,2.23-15.13-1.65-9.81-8.4-18.91-17.87-22.34S59.72,34,54,42.19Z"/><path class="cls-2" d="M50.74,66.27c0,.16-1.12,10.43,5.28,11.43s8-5.07,8-5.07,1.37-3.46-1.14-8.68S50.74,66.27,50.74,66.27Z"/><path d="M50.29,51c.8,6.88-2.61,14-8.91,17.2s-14.45,1.35-19.31-3.67A17.28,17.28,0,0,1,18.55,46.1,16.08,16.08,0,0,1,36,36.19,17.32,17.32,0,0,1,50.29,51s1.16-.29,1.13-.52a17.35,17.35,0,0,0-14.37-14.8,18.78,18.78,0,0,0-17.89,7.74A17.19,17.19,0,0,0,39.84,69,17.75,17.75,0,0,0,51.42,50.44S50.26,50.72,50.29,51Z"/><path d="M92.88,45a17.29,17.29,0,0,1-8.09,16.76,16.9,16.9,0,0,1-19.55-1.48,16.82,16.82,0,0,1-4.16-19.16A17.24,17.24,0,0,1,76.53,30.78,16.3,16.3,0,0,1,92.89,45c0,.31,1,1,.94.57A18.44,18.44,0,0,0,81,30.61,17.29,17.29,0,0,0,62.46,57.93,18.07,18.07,0,0,0,81.14,64.5a17.41,17.41,0,0,0,12.7-18.81C93.8,45.32,92.86,44.75,92.88,45Z"/><circle class="cls-6" cx="76.42" cy="47.97" r="17.14"/><path class="cls-4" d="M55,11.71A12.58,12.58,0,0,1,57,4.55c-2.1.82-3.66,3-4.8,5.37C49.59,6.42,44.42,5,44.42,5a17.74,17.74,0,0,1,3.23,6.69c-2.21-2-6.17-2.42-6.17-2.42s5,3.44,4.55,9a1.76,1.76,0,0,0,1.28.42c1,.75,3.28.43,4.35.22a8.22,8.22,0,0,0,2.58-.29C57.19,17.85,55.28,15.67,55,11.71Z"/><path class="cls-5" d="M99.12,88.19c.06,9.64,2.94,31.92-8.52,44.57-7.58,8.36-13.23,11-20.9,12.32-.74.14-1.49.25-2.27.37s-1.55.16-2.3.21c-7.77.58-13.87-.52-23.31-6.72-14.24-9.4-17-31.7-19.36-41s13.25-14.08,19.46-9.84,17.94,1.79,18.46,1.74h0C61,89.7,74.29,88,79.17,82.43S99.06,78.54,99.12,88.19Z"/><circle class="cls-6" cx="33.91" cy="53.35" r="17.14"/><path class="cls-7" d="M47.44,103.81l11.23-1.16a1.18,1.18,0,0,1,1.3,1.2c0,1.89-.67,5.15-4.82,5.5-5,.43-7.95-1.52-8.75-4A1.19,1.19,0,0,1,47.44,103.81Z"/><path class="cls-7" d="M65.2,101.56l11.22-1.16a1.19,1.19,0,0,1,1.31,1.2c0,1.89-.68,5.15-4.83,5.5-5,.43-7.94-1.52-8.74-4A1.19,1.19,0,0,1,65.2,101.56Z"/><path class="cls-7" d="M57.21,114.67l11.22-1.16a1.18,1.18,0,0,1,1.31,1.2c0,1.89-.68,5.15-4.83,5.5-5,.42-7.94-1.53-8.74-4A1.19,1.19,0,0,1,57.21,114.67Z"/><ellipse class="cls-6" cx="72" cy="47.41" rx="1.63" ry="0.77" transform="translate(-14.16 44.5) rotate(-31.43)"/><ellipse class="cls-6" cx="29.74" cy="52.9" rx="1.63" ry="0.77" transform="translate(-23.22 23.26) rotate(-31.43)"/><path class="cls-8" d="M43.4,45.4a7.94,7.94,0,0,0-6.77-3,8.14,8.14,0,0,0-6.91,9.84,8.14,8.14,0,0,0,11,4.89A8.14,8.14,0,0,0,43.4,45.4Z"/><path class="cls-6" d="M40.81,44.14a3.67,3.67,0,0,0-2.49-.48c-1.21.3-1.22,1.8,0,2.9s3.29,1.5,4,.77S42.3,45,40.81,44.14Z"/><path class="cls-8" d="M85.39,40.08a8,8,0,0,0-6.77-3,8.15,8.15,0,0,0-6.91,9.84,7.79,7.79,0,1,0,13.68-6.82Z"/><path class="cls-6" d="M82.8,38.82a3.72,3.72,0,0,0-2.49-.48c-1.21.3-1.21,1.8,0,2.9s3.29,1.5,4,.78S84.3,39.65,82.8,38.82Z"/><path class="cls-5" d="M57.33,44.78s28.17-13.42,30.89-14-15.45-3.77-15.45-3.77L60.86,34.88Z"/><path class="cls-9" d="M115.06,27.23l-.36.53,0,0a.52.52,0,0,0-.43-.15c-.1,0-.24.07-.16.19l.31.43-.49.72a2.39,2.39,0,0,1-.13-.21.32.32,0,0,0-.42-.12c-.14.07-.27.26-.17.41s.21.33.32.5l-.54.78-.09-.13-.25-.34c-.07-.1-.19.14-.2.18s-.1.31,0,.41l.25.35-.46.66c-.06-.08-.12-.17-.19-.25a.4.4,0,0,0-.45-.12.2.2,0,0,0-.08.33l.39.52-.2.3-.49.71a1.09,1.09,0,0,0-.14.31h0c-.05.12-.07.24,0,.28l1.51,1.2s0,0,0,0l.66-1,.25.34a.4.4,0,0,0,.45.12.21.21,0,0,0,.09-.33l-.46-.61.43-.64a2.43,2.43,0,0,0,.14.2l.24.34c.08.1.19-.14.21-.18a.46.46,0,0,0,0-.41l-.3-.41.46-.68.21.34a.31.31,0,0,0,.42.12c.13-.06.27-.26.17-.4s-.27-.43-.41-.64l.55-.83c.07.1.14.19.2.29a.52.52,0,0,0,.43.15c.1,0,.25-.07.16-.19l-.49-.69h0l.48-.72c0-.08.27-.52.17-.59L115.1,27.2S115.07,27.21,115.06,27.23Zm-2.21,6.65h0v0a.25.25,0,0,0,0,.07.05.05,0,0,0,0,0l0,0,0,0h0c0-.05-.18-.18-.21-.2l-.5-.4-.62-.51h0c.12-.18.24-.36.37-.53s.17-.26.26-.39h0l1.08,1.44c-.07.1-.14.22-.22.32v0A0,0,0,0,0,112.85,33.88Zm.78-1.17-.21.31h0l-1.08-1.44h0l.22-.33.22-.32h0c.36.48.71,1,1.06,1.46Zm-.53-2.24h0l.52-.75h0l1,1.54-.46.68h0Zm1.92.18h0l-1-1.54h0l.27-.4.22-.32,1,1.46Zm.85-1.25h0l-1-1.34-.09-.12,0,0,0-.07,0,0c0,.05.19.16.22.19l.51.34.64.44Zm5.42,10.87-.17.11-3.05,2h0l-.35.23h0l.07.09.18-.12.18-.12,3.07-2,.12-.08.26-.17,0-.06-.06-.13h0Zm-3.11-16.63c0,.05,0,.11.08.16v-.24l-.23-.24A3.18,3.18,0,0,1,118.18,23.64Z"/><path class="cls-9" d="M110.8,18.52c-1.46-.29-3.36-.33-4.48.84l-.11.13c-.07.09-.35.5-.19.62l0,0,6.08,4.62.62.46.09.08-.12.19q-1.17,1.85-2.35,3.69l-.48.77-.1-.06-6-4-.91-.61c-.15-.1-.87-.23-1,0-1.61,3.5,1.42,6.65,4.16,8.43a10,10,0,0,0,.89.54h0l.07,0-.16.27a1,1,0,0,0-.16.41v.06l0,0,.17,0a19.24,19.24,0,0,1,10,7.1,6.9,6.9,0,0,1,.42.63l.16-.1.13-.1.35-.23h0l3.05-2,.17-.11.21-.14.22-.16a.27.27,0,0,0,0-.24c-.49-.94-1-1.89-1.41-2.84a12.28,12.28,0,0,1-1.28-3.35,41.66,41.66,0,0,1-.38-7c0-.39,0-.79,0-1.18a4.93,4.93,0,0,0-.42-1.59c0-.05-.05-.11-.08-.16a3.18,3.18,0,0,0-.16-.32C116.62,20.69,113.62,19.1,110.8,18.52Zm5.85,9.74c.1.07-.12.51-.17.59l-.48.72h0l.49.69c.09.12-.06.18-.16.19a.52.52,0,0,1-.43-.15c-.06-.1-.13-.19-.2-.29l-.55.83c.14.21.28.42.41.64s0,.34-.17.4a.31.31,0,0,1-.42-.12l-.21-.34-.46.68.3.41a.46.46,0,0,1,0,.41s-.13.28-.21.18l-.24-.34a2.43,2.43,0,0,1-.14-.2l-.43.64.46.61a.21.21,0,0,1-.09.33.4.4,0,0,1-.45-.12l-.25-.34-.66,1s0,0,0,0L111,33.49s0-.16,0-.28h0a1.09,1.09,0,0,1,.14-.31l.49-.71.2-.3-.39-.52a.2.2,0,0,1,.08-.33.4.4,0,0,1,.45.12c.07.08.13.17.19.25l.46-.66-.25-.35c-.08-.1,0-.3,0-.41s.13-.28.2-.18l.25.34.09.13.54-.78c-.11-.17-.22-.33-.32-.5s0-.34.17-.41a.32.32,0,0,1,.42.12,2.39,2.39,0,0,0,.13.21l.49-.72-.31-.43c-.08-.12.06-.18.16-.19a.52.52,0,0,1,.43.15l0,0,.36-.53s0,0,0,0Z"/><path d="M121.5,40.13l-.21.14-.17.11,0,.11s.09,0,.16,0a1.24,1.24,0,0,0,.23-.23.92.92,0,0,0,.16-.29Zm-3.79,2.54-.13.1-.16.1a.41.41,0,0,1,.07.11c.08.13.32-.09.47-.33a1.31,1.31,0,0,0,.1-.21Z"/><path d="M121.77,40l0,0-.22.16-.21.14-.17.11-3.05,2h0l-.35.23-.13.1-.16.1,0,0h0c-.13.06-.22.18-.15.3L118.89,46l3.81,6.32c1.34,2.23,2.69,4.45,4,6.67.8,1.31,1.58,2.63,2.4,3.93a4.43,4.43,0,0,0,1.94,1.77,4.25,4.25,0,0,0,4.43-1c1.22-1.24.82-3.19-.08-4.5-.75-1.09-1.51-2.18-2.26-3.28L129,49.88c-1.41-2.06-2.83-4.11-4.25-6.17l-2.46-3.57a1,1,0,0,0-.12-.17C122.08,39.86,121.88,39.9,121.77,40Zm11.49,20.51a3.32,3.32,0,0,1,.81,1.39.66.66,0,0,1-.26.74,1.8,1.8,0,0,1-1.52,0,2.16,2.16,0,0,1-1.24-1.38h0c-.12-.53-.37-1.78.46-1.81A2.28,2.28,0,0,1,133.26,60.46Z"/><path d="M115.06,27.23l-.36.53,0,0a.52.52,0,0,0-.43-.15c-.1,0-.24.07-.16.19l.31.43-.49.72a2.39,2.39,0,0,1-.13-.21.32.32,0,0,0-.42-.12c-.14.07-.27.26-.17.41s.21.33.32.5l-.54.78-.09-.13-.25-.34c-.07-.1-.19.14-.2.18s-.1.31,0,.41l.25.35-.46.66c-.06-.08-.12-.17-.19-.25a.4.4,0,0,0-.45-.12.2.2,0,0,0-.08.33l.39.52-.2.3-.49.71a1.09,1.09,0,0,0-.14.31h0c-.05.12-.07.24,0,.28l1.51,1.2s0,0,0,0l.66-1,.25.34a.4.4,0,0,0,.45.12.21.21,0,0,0,.09-.33l-.46-.61.43-.64a2.43,2.43,0,0,0,.14.2l.24.34c.08.1.19-.14.21-.18a.46.46,0,0,0,0-.41l-.3-.41.46-.68.21.34a.31.31,0,0,0,.42.12c.13-.06.27-.26.17-.4s-.27-.43-.41-.64l.55-.83c.07.1.14.19.2.29a.52.52,0,0,0,.43.15c.1,0,.25-.07.16-.19l-.49-.69h0l.48-.72c0-.08.27-.52.17-.59L115.1,27.2S115.07,27.21,115.06,27.23Zm-2,6.28-.22.32s0,0,0,0a0,0,0,0,0,0,0h0v0a.25.25,0,0,0,0,.07.05.05,0,0,0,0,0l0,0,0,0c0-.05-.18-.18-.21-.2l-.5-.4-.63-.5c.12-.18.24-.36.37-.53s.17-.25.26-.38h0Zm.76-1.12h0l-.21.31-.21.31h0l-1.08-1.44.22-.33.22-.31h0Zm.78-1.16-.47.69h0l-1.06-1.46.52-.75h0C114,30.21,114.3,30.72,114.63,31.23Zm.94-1.39h0l-.54.8-1-1.54.27-.4.22-.32h0C114.87,28.87,115.22,29.35,115.57,29.84ZM115.14,28l.5.34.65.44h0l-.41.62q-.5-.67-1-1.35l-.09-.12,0,0,0-.07,0,0C114.9,27.85,115.11,28,115.14,28Z"/><path class="cls-1" d="M121.75,39.73a17.26,17.26,0,0,0,0,6c.58,3,5.88,2.18,5.88,2.18s1.15-6.39-1.78-8.27S121.75,39.73,121.75,39.73Z"/><path d="M109.54,97.23c6.09-2.11,10.82-7.59,13.65-13.2,3.62-7.15,4.38-15.75,4.75-23.63l-.86-.2c.91,1.52,1.78,3.44,3.33,4.42a4.41,4.41,0,0,0,4,.3,3.27,3.27,0,0,0,2.25-3.36c-.16-1.84-1.56-3.37-2.56-4.82-1.42-2.05-2.83-4.11-4.25-6.17l-1-1.41A6.7,6.7,0,0,1,128,48a3.48,3.48,0,0,1,.12-.84c.24-2.21.28-5-1.11-6.83-1.12-1.51-4.44-3-5.73-.9l.83.27c-1.06-2.07-2.37-4.23-2.72-6.55a43,43,0,0,1-.3-6.81c0-3.26-2.35-5.7-5.14-7.08-2.07-1-6.5-2.49-8.21-.06-.73,1,.84,1.7,1.52,2.22,1.76,1.33,3.53,2.65,5.27,4l-.16-.43c-1,1.57-2,3.11-3,4.66l.69.09c-2-1.53-4.22-2.81-6.3-4.2a2.91,2.91,0,0,0-1.79-.76c-.73.08-.84,1-.94,1.59-.53,3.46,3,7,5.94,8.22l-.38-.57c-.31.47-.53.89,0,1.28a6.43,6.43,0,0,0,1.58.55,19.49,19.49,0,0,1,2.18,1,18.26,18.26,0,0,1,6.65,6.06v-.4c.09-.07-.19.31-.3.47a.39.39,0,0,0,0,.18l-.24.12a8.8,8.8,0,0,1-1.4,1.24c-1.39,1.25-2.75,2.55-4.08,3.87-2.68,2.67-5.23,5.45-7.69,8.33l.87.37c-.21-1.3-.42-2.59-.64-3.88a16.71,16.71,0,0,1,0-4.06,28.94,28.94,0,0,0-.59-7.71,45.11,45.11,0,0,0-4.22-11.57,23.2,23.2,0,0,1-1.49-2.65c-.31-.85,0-2.21-.12-3.19a42.55,42.55,0,0,0-2.58-10.6A91.75,91.75,0,0,0,90.9,4.69c-.6-1.24-1.21-3-2.2-4.05C87.08-1,85.12.9,84,2.12c-2.06,2.14-4,4.39-6,6.63C77,9.82,76.1,10.89,75.18,12c-.17.19-.42.65-.66.76s0-.1-.22-.09a11.83,11.83,0,0,1-2.39-.45,68.12,68.12,0,0,0-17.06-.62l.64.47a11.62,11.62,0,0,1,1.9-7.24c.24-.37-.53-.7-.79-.59-2.35,1-3.78,3.21-4.85,5.42l.77.18a15.62,15.62,0,0,0-8.18-5.17c-.32-.09-.46.18-.27.43a16.12,16.12,0,0,1,3.14,6.5l.71-.07a12.59,12.59,0,0,0-6.64-2.61c-.47-.06-.14.49,0,.61a11.12,11.12,0,0,1,3.34,4l.13-.34a62.15,62.15,0,0,0-15.34,5.32l.71.24a30.31,30.31,0,0,0-3.37-3.43C24.91,13.49,23,11.74,21,10.09c-1.61-1.34-3.61-3.27-5.75-3.59-2-.29-2.64,1.5-3.3,3C9.56,14.88,9.22,21,9.56,26.85a60,60,0,0,0,.63,6,5.46,5.46,0,0,1,.23,1.37c0,.23-.22.39-.37.63A18.46,18.46,0,0,0,8.8,37.25C6.27,43,6.2,49.44,7.28,55.52a55.85,55.85,0,0,0,2.23,8.42c.37,1.06.76,2.11,1.19,3.16a20.26,20.26,0,0,1,1,5c.12,1,.25,2,.38,3a4.08,4.08,0,0,1,0,2.52c-.5,1-1.17,1.89-1.75,2.83C8.81,82.82,7.39,85.18,6,87.56s-2.59,4.52-3.76,6.85A17.59,17.59,0,0,0,.41,99.19c-1,5.94-.24,11.79,3.87,16.43a133.59,133.59,0,0,0,10.94,10.61q2.52,2.28,5.07,4.52c.53.46,1,1,1.61,1.4a1.51,1.51,0,0,0,.23.21c.31.12-.12-.29,0-.13s.3.58.45.86a56.15,56.15,0,0,0,5.83,8.53A46.08,46.08,0,0,0,51.57,157a47.38,47.38,0,0,0,18.1,1.1,60.58,60.58,0,0,0,18.07-4.91,37,37,0,0,0,18.56-18.93,55.24,55.24,0,0,0,3.35-11.12,58.84,58.84,0,0,0,.93-14.7c-.18-3.77-.49-7.53-.86-11.28,0-.37-.94-.72-.89-.21.65,6.66,1.43,13.55.82,20.25A57.69,57.69,0,0,1,107.48,128c-2.31,8-6.62,15.24-13.34,20.29a44.13,44.13,0,0,1-14,6.83,59.72,59.72,0,0,1-19.19,2.61,42.72,42.72,0,0,1-27.7-11.82A52.42,52.42,0,0,1,25.79,137c-.87-1.29-1.69-2.63-2.45-4a8.78,8.78,0,0,0-2.15-2.3c-3.51-3.07-7-6.19-10.37-9.4-4-3.75-8.4-7.55-9.58-13.13a22.71,22.71,0,0,1,0-8.5,17.56,17.56,0,0,1,1.88-4.88c2.3-4.57,5-9,7.63-13.32.56-.92,1.13-1.83,1.69-2.74a5.56,5.56,0,0,0,.71-1.12,8.2,8.2,0,0,0-.29-2.54c-.21-1.67-.43-3.34-.64-5a9.89,9.89,0,0,0-.35-2c-.21-.57-.47-1.13-.69-1.7A49.77,49.77,0,0,1,7.53,49.45a29.25,29.25,0,0,1,1.1-8.88A22.68,22.68,0,0,1,10.51,36c.33-.61.8-1.08.78-1.75,0-1.35-.44-2.77-.59-4.12a58.35,58.35,0,0,1-.33-7.48,39.28,39.28,0,0,1,1.12-8.84A25.29,25.29,0,0,1,13,9.55a4.42,4.42,0,0,1,1.33-2.11c1.81-1.16,4.92,2,6.24,3.08,1.95,1.63,3.83,3.34,5.67,5.09a28,28,0,0,1,3.2,3.25.64.64,0,0,0,.72.24,61.78,61.78,0,0,1,15.18-5.25c.17,0,.19-.21.12-.35A12.6,12.6,0,0,0,41.63,9l0,.62a11,11,0,0,1,5.73,2.22c.15.13.8.37.71-.06A17.05,17.05,0,0,0,44.77,4.9l-.27.43A14,14,0,0,1,51.82,10c.12.15.64.48.78.19C53.65,8,55,5.82,57.33,4.84l-.79-.58a12.11,12.11,0,0,0-1.94,7.56c0,.24.41.48.63.47a67.23,67.23,0,0,1,19.71,1.14.35.35,0,0,0,.35-.08c2.51-2.92,5-5.83,7.63-8.68C84.06,3.41,85.27,1.72,86.83,1c1-.48,1.42.12,1.84.91.29.54.57,1.09.84,1.64a76.17,76.17,0,0,1,5.81,15,34.75,34.75,0,0,1,.84,4.3,20.74,20.74,0,0,1,.17,2.1,11.59,11.59,0,0,0,0,1.95,4.16,4.16,0,0,0,.57,1c.55.93,1,1.88,1.53,2.84A43.19,43.19,0,0,1,102.3,42.3a26.22,26.22,0,0,1,.23,7.91c-.28,2.13.49,4.55.84,6.67,0,.3.63.65.87.37a127.94,127.94,0,0,1,13.41-13.64.22.22,0,0,0,0-.31c-.11-.19-.1,0,.1-.15s.06-.27,0-.4a19.51,19.51,0,0,0-5-5.17,21.08,21.08,0,0,0-3-1.74q-.89-.42-1.8-.75l-.67-.22c-.66-.25,0,.12.24-.32.15-.23-.23-.51-.39-.58-2.36-1-5-3.7-5.16-6.37,0-.74,0-2.21,1.25-1.77a11.38,11.38,0,0,1,2,1.37c1.43.95,3,1.82,4.35,2.88.14.11.53.34.69.1,1-1.55,2-3.09,3-4.66.08-.15-.05-.35-.16-.44-1.24-1-2.5-1.9-3.75-2.85a22.91,22.91,0,0,0-3.29-2.46l.41.42c-.23-1.12,2.2-1.51,2.84-1.51a9.85,9.85,0,0,1,3.39.68c2.35.87,4.9,2.67,5.44,5.28a22.69,22.69,0,0,1,.1,4,34.46,34.46,0,0,0,.24,3.8c.32,2.6,1.67,4.9,2.85,7.2.11.2.65.58.84.28a2.11,2.11,0,0,1,2.69-.58c1.64.67,2.2,2.22,2.41,3.85a14.92,14.92,0,0,1,0,3.47c-.08.77-.21.94.25,1.61l3.9,5.66c1.25,1.82,2.67,3.59,3.78,5.5s.55,4.18-1.74,4.89c-3,.94-4.29-2-5.56-4.14-.09-.16-.84-.66-.86-.2-.36,7.67-1.07,16.09-4.5,23.09-2.76,5.65-7.45,11.29-13.57,13.41-.49.16.22.83.57.71Z"/><path d="M133.45,62.23a1.23,1.23,0,0,1-.73.14,1.9,1.9,0,0,1-.35-.08c-.05,0,0,0,0,0l-.09,0-.08,0,0,0-.08,0c-.07,0,0,0,0,0l-.16-.15s-.06-.07-.07-.09a.76.76,0,0,0-.1-.12c-.07-.12-.12-.25-.18-.37l0,0v0a.64.64,0,0,0-.19-.29l.18.36a2.17,2.17,0,0,0-.08-.43l0-.22a.49.49,0,0,1,0-.12s0-.12,0-.08a1.94,1.94,0,0,1,0-.48s0,0,0,0,0,0,0,0a.36.36,0,0,1,0-.09.35.35,0,0,1,.05-.08l0,0s0,0,0,0l.08,0c-.06,0,0,0,0,0h0c-.07,0,0,0,0,0h.14l.17,0c.08,0,0,0,0,0l.07,0,.08,0s-.06,0,0,0l.16.1c.07,0-.06-.05,0,0l.06,0,.12.11.13.12c-.05,0,0,0,0,0l.07.07a7.26,7.26,0,0,1,.49.61c.23.32.64,1,.2,1.3s.42.87.73.64c.59-.43.33-1.21,0-1.73a5.77,5.77,0,0,0-1.27-1.51,3.06,3.06,0,0,0-1-.53,1.68,1.68,0,0,0-.89-.06.89.89,0,0,0-.6.93,3.35,3.35,0,0,0,0,.71l.06.29a.09.09,0,0,1,0,.05c0,.1,0-.09,0,0a1.39,1.39,0,0,0,.06.19l.13.14L130.6,61a1.24,1.24,0,0,0,.18.52,2.41,2.41,0,0,0,.3.48,2.63,2.63,0,0,0,.9.76,2.32,2.32,0,0,0,2.2.1C134.55,62.65,133.78,62,133.45,62.23Z"/><path class="cls-10" d="M89.48,155.15c.1,1.76-1.15,4.4-2.32,6.46a2.45,2.45,0,0,1-4.29.24c-1.4-1.92-2.94-4.39-3-6.15-.19-3.27,1.82-6,4.49-6.2S89.3,151.88,89.48,155.15Z"/><path class="cls-10" d="M97.51,154.51c.12,2.15-1.47,5.38-3,7.9a3.14,3.14,0,0,1-5.42.31c-1.77-2.34-3.71-5.37-3.83-7.52-.23-4,2.32-7.4,5.69-7.59S97.28,150.51,97.51,154.51Z"/><path class="cls-10" d="M102.16,154.43c.09,1.76-1.16,4.4-2.33,6.46a2.45,2.45,0,0,1-4.29.24c-1.4-1.91-2.94-4.39-3-6.15-.18-3.27,1.83-6,4.49-6.2S102,151.16,102.16,154.43Z"/><path d="M101.9,154.41a11,11,0,0,1-1.61,5.12,5.19,5.19,0,0,1-1.61,2.26c-1.19.73-2.33.05-3.07-.93a.28.28,0,0,0-.46,0c-.8,1.43-1.67,3.22-3.6,3.06-1.78-.13-2.77-2-3.65-3.34a.29.29,0,0,0-.46,0c-.51,1-1.07,2.1-2.28,2.21s-1.88-.76-2.49-1.62a14.07,14.07,0,0,1-2.49-4.83c-.79-3.61,2.45-8.29,6.39-6.09a.27.27,0,0,0,.34,0,5.28,5.28,0,0,1,8.15-.8.3.3,0,0,0,.35,0c3.49-1.82,6.24,1.79,6.49,4.95,0,.25.52.28.5,0-.25-3.17-2.83-6.78-6.43-5.67-.54.17-.58.28-1,0a10,10,0,0,0-1.19-.76,5.72,5.72,0,0,0-2.73-.55A6,6,0,0,0,86.5,150l.34,0c-4.33-2.43-8.23,2.6-7.08,6.75a13.65,13.65,0,0,0,1.74,3.53,7,7,0,0,0,2.21,2.62c2,1.06,3.34-.54,4.2-2.13h-.46c1,1.57,2.19,3.58,4.33,3.57s3-1.74,3.85-3.32h-.46c1.06,1.41,2.89,2.06,4.32.71a10.75,10.75,0,0,0,1.93-3.41,9.34,9.34,0,0,0,1-3.86C102.4,154.2,101.9,154.17,101.9,154.41Z"/><ellipse class="cls-6" cx="99.19" cy="152.79" rx="1.1" ry="2.27" transform="translate(-57.84 60.46) rotate(-26.55)"/><ellipse class="cls-6" cx="93.25" cy="151.29" rx="1.4" ry="2.89" transform="translate(-71.14 83.76) rotate(-36.02)"/><ellipse class="cls-6" cx="85.85" cy="152.4" rx="1.15" ry="2.36" transform="translate(-59.07 54.45) rotate(-26.55)"/><path class="cls-10" d="M49.38,155.66c-.15,1.76-1.77,4.19-3.23,6.06a2.43,2.43,0,0,1-4.27-.38c-1.12-2.09-2.29-4.77-2.13-6.52.28-3.27,2.67-5.72,5.33-5.49S49.67,152.4,49.38,155.66Z"/><path class="cls-10" d="M57.42,156.18c-.19,2.15-2.23,5.11-4.07,7.4a3.14,3.14,0,0,1-5.41-.48c-1.41-2.57-2.9-5.84-2.71-8,.35-4,3.36-7,6.73-6.69S57.77,152.19,57.42,156.18Z"/><path class="cls-10" d="M62,156.77c-.15,1.75-1.76,4.18-3.23,6a2.43,2.43,0,0,1-4.27-.37c-1.11-2.1-2.28-4.77-2.13-6.52.29-3.27,2.68-5.73,5.34-5.49S62.31,153.51,62,156.77Z"/><path d="M61.83,156.79a11.75,11.75,0,0,1-2.53,5.09,4.15,4.15,0,0,1-1.93,1.8c-1.25.38-2.15-.49-2.69-1.49a.31.31,0,0,0-.44,0c-1,1.32-2.16,3-4.09,2.51-1.7-.44-2.4-2.43-3.07-3.85a.31.31,0,0,0-.44,0c-.63.86-1.32,1.91-2.55,1.87A2.58,2.58,0,0,1,42,161a15.11,15.11,0,0,1-1.92-5.29c-.37-3.69,3.52-8,7.15-5.26a.3.3,0,0,0,.4,0,5.25,5.25,0,0,1,8.13.4.31.31,0,0,0,.34.09c3.74-1.32,5.95,2.68,5.74,5.87,0,.25.48.28.5,0,.23-3.61-2.44-7.66-6.47-6.24l.34.09a5.85,5.85,0,0,0-9-.46h.39c-3.88-3-8.44,1.26-8,5.51a13,13,0,0,0,1.22,3.88,7.23,7.23,0,0,0,1.79,2.91c1.78,1.34,3.41,0,4.48-1.49l-.43,0c.8,1.67,1.61,3.77,3.67,4.11s3.25-1.25,4.36-2.71l-.43,0c.9,1.64,2.8,2.44,4.37,1.11a12.63,12.63,0,0,0,2.21-3,9.38,9.38,0,0,0,1.52-3.68C62.36,156.58,61.86,156.54,61.83,156.79Z"/><ellipse class="cls-6" cx="59.65" cy="154.71" rx="1.1" ry="2.27" transform="translate(-62.87 42.99) rotate(-26.55)"/><ellipse class="cls-6" cx="53.85" cy="153.29" rx="1.4" ry="2.89" transform="translate(-79.85 60.97) rotate(-36.02)"/><ellipse class="cls-6" cx="46.65" cy="154.24" rx="1.15" ry="2.36" transform="translate(-64.03 37.13) rotate(-26.55)"/><polygon class="cls-11" points="49.15 69.45 50.1 71.33 57.06 74.73 59.94 74.22 65.06 69.32 65.51 67.59 49.15 69.45"/><path class="cls-10" d="M65.51,67.58c-1.67-4-7.64-10.32-8.82-10.17s-6.76,7.55-7.54,12c2.57,2,5.91,3.43,8.91,3S63.73,69.87,65.51,67.58Z"/><path class="cls-10" d="M50.1,71.32a.15.15,0,0,1,.18-.23A13.09,13.09,0,0,0,57.9,73c3.47-.37,5.27-2.35,6.93-3.66a.14.14,0,0,1,.2.2L63,72.4s-2.18,3.35-4.42,4-7.22-3.91-7.22-3.91Z"/><path class="cls-6" d="M56.83,58.23s6.52,5.86,7.71,9.13A8.16,8.16,0,0,1,58.89,71,70.64,70.64,0,0,0,56.83,58.23Z"/></g></g></svg>