<svg xmlns="http://www.w3.org/2000/svg" viewBox="0 0 552.1 262.29"><defs><style>.cls-1{fill:#020303;}.cls-2{fill:#9bbdc7;}.cls-3{fill:#90b0b2;}.cls-4{fill:#728d8f;}.cls-16,.cls-5{fill:none;stroke-miterlimit:10;}.cls-5{stroke:#020303;stroke-width:0.5px;}.cls-14,.cls-6{fill:#1a4e5d;isolation:isolate;}.cls-6{opacity:0.29;}.cls-7{fill:#ea6613;}.cls-8{fill:#fab513;}.cls-9{fill:#fff;}.cls-10{fill:#80ceef;}.cls-11{fill:#95c6ec;}.cls-12{fill:#ce231f;}.cls-13{fill:#42739e;}.cls-14,.cls-20{opacity:0.6;}.cls-15{fill:#5483c3;}.cls-16{stroke:#5483c3;}.cls-17{fill:#639ad3;}.cls-18{fill:#3a3634;}.cls-19{fill:#386282;}</style></defs><g id="Laag_2" data-name="Laag 2"><g id="Laag_1-2" data-name="Laag 1"><path class="cls-1" d="M19.81,225.8H63.1a2,2,0,0,0,.6,0s0,0,.07,0,0-.17-.07-.17H20.4a2.33,2.33,0,0,0-.59,0h-.08c-.06,0,0,.17.08.17Z"/><polyline class="cls-2" points="538.66 261.76 538.66 36.68 420.8 36.68 420.8 91.48 298.31 91.48 298.31 147.92 180.17 147.92 180.17 204.94 63.54 204.94 63.54 261.76"/><path class="cls-3" d="M63.54,204.94l25.95-32.23a11.12,11.12,0,0,1,8.66-4.15h82v36.37H63.54Z"/><path class="cls-3" d="M180.17,147.92l25.37-31.53a13,13,0,0,1,10.13-4.86h82.52V147.9h-118Z"/><path class="cls-3" d="M298.21,91.54l25.66-31.87a12.09,12.09,0,0,1,9.41-4.51h87.55V91.53H298.21Z"/><path class="cls-3" d="M420.83,36.68,446.5,4.8A12,12,0,0,1,455.87.31h95.71L538.66,36.68Z"/><polygon class="cls-4" points="538.66 36.68 551.58 0.31 551.58 225.4 538.66 261.76 538.66 36.68"/><path class="cls-1" d="M551.84,225.15c-.32-.13.14.51.07-.23-.63-6.3,0-13,0-19.34V22.34c0-7,.42-14.1,0-21.07,0-.33,0-.67,0-1s-.16-.21-.3-.21H461.88c-3.57,0-7.74-.5-11.07,1-3.6,1.61-5.81,5.14-8.19,8.11l-13.81,17.1q-2.94,3.63-5.88,7.3c-.68.83-2,2-2.43,3-.61,1.59-.06,4.35-.06,6,0,3.55,0,7.1,0,10.64,0,.57-.34,2.16.39,1.67a2.42,2.42,0,0,1-.76,0,42.08,42.08,0,0,0-4.35,0h-80c-5.33,0-9.66,1.34-12.92,5.58-7.22,9.35-14.83,18.41-22.24,27.62-.75.92-2.24,2.18-2.65,3.31-.53,1.36-.08,3.69-.08,5.13v11c0,1.13,0,2.26,0,3.38,0,.88.45.22.16.34-.92.34-2.72,0-3.68,0H222.36c-5,0-10.45-.47-14.71,2.66-2.71,2-4.66,5.3-6.72,7.86l-14.16,17.48-5.33,6.59a7.71,7.71,0,0,0-1.62,2.14c-.66,2.14,0,5.56,0,7.77v10.64a6.62,6.62,0,0,1,0,2.13c.2-.42.52-.21-.26-.23-1.47-.05-3,0-4.44,0H133.41c-11.58,0-23.16-.15-34.73,0-4.8,0-8,2.41-10.79,5.92Q82,181.66,76,189T64.15,203.74c-1.46,1.82-1,3.69-1,6v52c0,.35.7.24.7,0h0V223.27c0-5.8-.33-11.69,0-17.49.06-1.1.15-1,1-2.05,1.89-2.36,3.79-4.7,5.68-7.06l15.22-18.9c3.57-4.44,6.4-8.88,12.88-9,13.59-.17,27.18,0,40.76,0h40.69c.12,0,.39-.1.39-.26V152.89c0-1.23-.36-4.09,0-4.92a13.56,13.56,0,0,1,2.29-2.81q11.27-13.9,22.53-27.82c3.11-3.84,6.59-5.52,11.9-5.56,3.65,0,7.33,0,11,0h70c.12,0,.39-.1.39-.26v-16c0-1.1-.23-3.31.06-4,.52-1.27,2.08-2.58,2.93-3.64,7.19-8.93,14.57-17.74,21.59-26.8,3.23-4.19,7.25-5.64,12.53-5.64h85.12c.12,0,.39-.1.39-.26,0-3.18,0-6.36,0-9.55,0-2,0-4,0-5.93a24.69,24.69,0,0,1-.06-2.9c.53-1.54,2.72-3.39,3.71-4.62l7.59-9.41q7-8.73,14.08-17.46A11.56,11.56,0,0,1,455.13.55c1.36-.08,2.75,0,4.11,0q45.27,0,90.53,0a5.88,5.88,0,0,1,1.39,0c.61.17,0-.2,0-.14.18.33,0,1.21,0,1.56v198.6c0,7.9-.24,15.87,0,23.78,0,.36,0,.72,0,1.08,0,.17.16.2.31.2"/><line class="cls-5" x1="538.66" y1="261.76" x2="551.73" y2="225.16"/><path class="cls-1" d="M63.47,205.22H180.1a.41.41,0,0,0,.41-.38V152c0-1,.38-2.82,0-3.74-.21-.54-.49-.09-.21-.07.94.08,1.94,0,2.89,0H288c3.1,0,6.65.49,9.7,0a2.26,2.26,0,0,1,.45,0,.42.42,0,0,0,.42-.38V99c0-2.18.22-4.5,0-6.66-.1-1,.28-.61-.4-.54a2.62,2.62,0,0,1,.56,0,17,17,0,0,0,3.57,0H410.54c3.11,0,6.71.51,9.79,0a2.36,2.36,0,0,1,.46,0,.41.41,0,0,0,.42-.37q0-18.27,0-36.53,0-8.68,0-17.33c0-.28.17-1.23-.2-.81s-.05.08.27.18a12.65,12.65,0,0,0,3.31,0H528.8c3,0,6.45.51,9.39,0a2.26,2.26,0,0,1,.45,0,.44.44,0,0,0,.41-.3Q545.5,18.45,552,.27c.13-.38-.56-.29-.68,0q-5.73,16.11-11.45,32.23c-.42,1.18-.72,3.13-1.47,4.14.36-.48.55-.23.08-.29a9,9,0,0,0-1,0H420.9a.41.41,0,0,0-.41.38q0,18.95,0,37.9V88.85a8.62,8.62,0,0,0,0,2.27c.26.75-.3.18.35.13a3.76,3.76,0,0,1-.75,0c-1.28-.11-2.64,0-3.92,0H302.11a19.53,19.53,0,0,0-3.42,0,2.15,2.15,0,0,1-.44,0,.42.42,0,0,0-.42.38v54.85c0,.47,0,1,0,1.42,0-.16.68-.17.15-.27a15.72,15.72,0,0,0-3,0H190.34c-3.09,0-6.63-.49-9.69,0a2.26,2.26,0,0,1-.45,0,.41.41,0,0,0-.42.37v54.09a9.69,9.69,0,0,0,0,2.58c.17.53.39,0,.26,0-.88-.08-1.82,0-2.71,0H73.65c-3.07,0-6.61-.49-9.64,0a2.26,2.26,0,0,1-.45,0c-.31,0-.55.57-.09.57Z"/><path class="cls-1" d="M538.05,261.74H22c-7,0-14-.31-20.92,0H.11c-.24,0,0,.41.14.41H516.36c6.95,0,14,.31,20.92,0h.91c.26,0,0-.41-.14-.41Z"/><path class="cls-1" d="M538.31,36.78V258.47a11,11,0,0,0,0,3,1.53,1.53,0,0,1,0,.37c0,.08.69,0,.69-.21V40a11.05,11.05,0,0,0,0-3,1.45,1.45,0,0,1,0-.36c0-.08-.69,0-.69.2Z"/><ellipse class="cls-6" cx="132.28" cy="186.76" rx="44.98" ry="13.63"/><path class="cls-7" d="M176.18,71.85s10.23,1,11.55-.68-10.66-3-10.66-3A6.23,6.23,0,0,1,176.18,71.85Z"/><path class="cls-8" d="M176.48,69.28c8.78,1,12.51-.35,13.75-1a.75.75,0,0,0,.36-.93c-1.43-3.93-9.64-6.83-12.71-7.79a.78.78,0,0,0-1,.77,59.89,59.89,0,0,1-.38,9"/><path class="cls-8" d="M175,76.35c11.58,1,12.81-4.24,12.84-5.19a.16.16,0,0,0-.22-.16c-3.39.75-11.11-1.73-11.11-1.73-.28,1.67-1.84,6.62-1.84,6.62S174.49,76.22,175,76.35Z"/><path class="cls-9" d="M181.22,62.21s5.39.74,8.44,5"/><path class="cls-10" d="M180.69,35.89c-.45.11,4.36,4.09,6.79,2.77S185.78,34.53,180.69,35.89Z"/><path class="cls-1" d="M180.7,35.92h0a.18.18,0,0,0,.06.12,2.33,2.33,0,0,0,.39.39,10.87,10.87,0,0,0,1.66,1.05c.36.19.74.41,1.16.61a10.86,10.86,0,0,0,1.33.58,3.2,3.2,0,0,0,1.51.16,1.91,1.91,0,0,0,.73-.28A1.15,1.15,0,0,0,188,38a.69.69,0,0,0-.09-.65,1.76,1.76,0,0,0-.5-.52,4.61,4.61,0,0,0-1.36-.65,11.6,11.6,0,0,0-2.67-.46,10.49,10.49,0,0,0-1.1,0,6.32,6.32,0,0,0-.86.08,5.43,5.43,0,0,0-.54.1A1,1,0,0,0,180.7,35.92Zm0-.05h0l.74-.18a10.75,10.75,0,0,1,2-.34,7.74,7.74,0,0,1,2.83.39,5.39,5.39,0,0,1,1.45.78,2.68,2.68,0,0,1,.56.68,1,1,0,0,1,0,.91,1.51,1.51,0,0,1-.63.6,2.3,2.3,0,0,1-.8.27,4.51,4.51,0,0,1-1.6-.07,7,7,0,0,1-2.6-1.11,13.66,13.66,0,0,1-1.54-1.29,2.45,2.45,0,0,1-.37-.42.23.23,0,0,1-.07-.14c0-.08.07-.08,0-.08Z"/><path class="cls-11" d="M186.38,38.92a2.21,2.21,0,0,0,1.1-.26c2.45-1.31-1.7-4.13-6.79-2.77,0,0,0,0,0,.06C184.17,35.67,186.72,37.93,186.38,38.92Z"/><path class="cls-12" d="M107.92,46.34S139.85,29,154.74,25.6l2.5,3.55L133.82,44.34l-25.26,5.11Z"/><path class="cls-13" d="M136.41,88.66c28.39-10.14,47.42-3.23,54.24.91a2.75,2.75,0,0,1,.69,4.17c-23.3,29.78-49.54,34.33-63,33.68-13.78-.67-15.37-16.15-15.37-16.15S109.34,98.35,136.41,88.66Z"/><path class="cls-14" d="M133.06,90.14s12.72-6.25,24.72-6.41,20.6-.89,32.61,5.69c0,0,.53-.06,1.49,1.57S176,81.67,133.06,90.14Z"/><path class="cls-8" d="M138.41,173.82s-3.27,1.81-4.14,4.52,1.52,4.36,4.14,4.17,6.36-.86,7.64-.74,3.33-.06,7.66,3.6,6.76,2.64,8.87.58c0,0,5.49,0,5-7.4,0,0,1.91-5-5.73-8Z"/><ellipse class="cls-9" cx="165.28" cy="173.99" rx="0.71" ry="1.42" transform="matrix(0.55, -0.84, 0.84, 0.55, -70.72, 217.49)"/><path class="cls-1" d="M167.11,178.42c1.13,3.13-1,7.25-4.58,7.31.12.13.25.26.36.39a6.08,6.08,0,0,0,1.51-5.81,5,5,0,0,0-3.54-3.48c-.44-.12-.54.34-.12.46a4.38,4.38,0,0,1,3,3.34,5.75,5.75,0,0,1-1.54,5.2c-.18.19.23.39.36.39,3.94-.07,6.47-4.31,5.17-7.89-.09-.29-.79-.29-.66.09Z"/><path class="cls-1" d="M165.31,172.68a5.27,5.27,0,0,1,1.78,5.69c.23,0,.47,0,.7,0A6.07,6.07,0,0,0,164,175a.89.89,0,0,0-.51,0c-.11,0-.14.13,0,.17a5.81,5.81,0,0,1,3.66,3.24c.06.16.67.14.71,0a5.42,5.42,0,0,0-1.88-5.83.75.75,0,0,0-.49-.05c-.07,0-.26.1-.13.2Z"/><path class="cls-1" d="M161.64,177.56c4,1.87,2.18,8-1.16,9.59a4.62,4.62,0,0,1-3.85-.07,13.15,13.15,0,0,1-3.61-2.62,11.08,11.08,0,0,0-3.22-2,11.91,11.91,0,0,0-4.76-1c-.39,0-.07.63.22.63a11.24,11.24,0,0,1,5.12,1.17c2.66,1.29,4.3,4,7.3,4.71,3.55.87,6.38-2.32,6.78-5.66a5,5,0,0,0-2.77-5.31c-.4-.21-.36.39-.05.52Z"/><ellipse class="cls-9" cx="161.49" cy="179.15" rx="0.71" ry="1.89" transform="matrix(0.55, -0.83, 0.83, 0.55, -77.02, 215.03)"/><ellipse class="cls-9" cx="164.64" cy="177.07" rx="0.71" ry="2.24" transform="translate(-73.95 216.24) rotate(-56.41)"/><path class="cls-8" d="M113.12,176.41s-3.71.43-5.53,2.63-.25,4.61,2.24,5.42,6.21,1.62,7.36,2.21,3.09,1.2,5.74,6.23,5.24,5,8,3.9c0,0,5.09,2.08,7.43-4.94,0,0,3.68-3.92-2.28-9.53Z"/><path class="cls-1" d="M137.84,191.63c-.13,3.25-3.45,6.3-6.73,5a.69.69,0,0,0-.49,0c-.08,0-.26.15-.11.22a6.1,6.1,0,0,0,8.06-5.36c0-.18-.71-.13-.73.1Z"/><path class="cls-1" d="M137.35,184.57c2.21,1.68,2.13,4.83.51,6.9l.69.16a6.36,6.36,0,0,0-3.44-5.45.46.46,0,0,0-.5,0,.22.22,0,0,0,.08.36,5.79,5.79,0,0,1,3.15,5c0,.35.52.38.7.16a5.25,5.25,0,0,0-.64-7.41.46.46,0,0,0-.51-.06.19.19,0,0,0,0,.34Z"/><path class="cls-1" d="M111.59,176.55c-2.53.23-6,2.86-4.65,5.74,1.6,3.4,7,3.3,9.94,4.5,4.17,1.67,5,6,7.88,9,2.55,2.63,6.19,2.23,8.44-.62s1.75-6.68-1.67-8.15c-.44-.19-.25.39,0,.52,4.64,2,1.86,8.05-1.87,9.29-4.64,1.53-6.5-4.54-8.69-7.36-2.41-3.12-5.81-3.62-9.38-4.64-2.09-.59-5.26-1.9-4.13-4.62a5.36,5.36,0,0,1,4.42-3.07c.36,0-.06-.6-.32-.59Z"/><ellipse class="cls-9" cx="132.31" cy="189.68" rx="0.71" ry="1.89" transform="translate(-83.81 107.35) rotate(-34.25)"/><ellipse class="cls-9" cx="137.74" cy="186.35" rx="0.71" ry="1.42" transform="translate(-81.51 111.33) rotate(-34.64)"/><ellipse class="cls-9" cx="135.98" cy="188.95" rx="0.71" ry="2.24" transform="translate(-82.6 108.85) rotate(-34.13)"/><path class="cls-15" d="M153.76,95c17.16.36,22.85-16.9,25.54-26.38,0,0,8.34-25-14.84-37.69-6.25-3.41-15.92-5.33-15.92-5.33a12.48,12.48,0,0,1-8.66-5.75,84.67,84.67,0,0,0-7.1-10.17c-3.19-3.49-4.69-1-5.78.12-5.94,6.43-8.35,16.61-9.25,22a11.53,11.53,0,0,1-2.85,6c-10.88,11.85-8,31.69-6.86,37.32a10.94,10.94,0,0,0,1.69,4.12S121.65,95.89,153.76,95Z"/><path class="cls-16" d="M125.67,29.14a11,11,0,0,1-1.15-8.56,11.36,11.36,0,0,1,5.53-6.79"/><path class="cls-15" d="M109.71,171.94c-2.84,4.73-8.22,7.53-13.87,6.07-2.49-.65-2.85-1.49-.47-2.69,2.68-1.34,5.63-2.19,6.21-5.48a12.65,12.65,0,0,1-7.81,2.46c-1-.06-4.53-.56-4.77-1.83-.32-1.65,4.15-1.91,5.26-2.24a9.27,9.27,0,0,0,6-5.24"/><path class="cls-15" d="M112.63,75c6-8-49.46,69.06,3.18,103.78a43.46,43.46,0,0,0,19.95,5.55c28.15,1,35.71-16.82,39.57-30.6S172.56,85,172.56,85"/><path class="cls-17" d="M180.49,62.7c-4.5,6.81-13,11.52-24.88,7-5.62-2.15-8.67-5.07-10.05-10.91a22,22,0,0,1,1.25-13.26c2.5-6.42,8.08-8.27,15.23-7.89s10.78,1.94,15.63,7C177.68,44.6,181.63,50.68,180.49,62.7Z"/><path class="cls-15" d="M149.7,26.64s3.8-5.45,6.89-7.16-5.62-.5-8.8,2.88c-1.23,1.3-.23-2.18.65-3.7.09-.15-.1-.31-.28-.25a5.84,5.84,0,0,0-3,3.41c-.43,2-1.12-3.05-.14-5.72.06-.17-.22-.32-.35-.17-1.05,1.14-3.08,5-4.07,9.61"/><ellipse class="cls-9" cx="161.72" cy="53.9" rx="11.65" ry="12.95"/><ellipse class="cls-18" cx="167.03" cy="56.34" rx="4.54" ry="5.04"/><ellipse class="cls-9" cx="165.77" cy="53.38" rx="1.89" ry="0.91" transform="translate(-7.31 72.7) rotate(-24.22)"/><path class="cls-17" d="M172.26,162.1c-.82,1.8-2,3-5.71,1.66-6.72-2.34-6.43-36.69,1.69-45.75s7.68,3.48,7.68,3.48.87,15.5.65,20.2S176.6,152.5,172.26,162.1Z"/><path class="cls-1" d="M173,53.94c-.06,5-2.72,10-7.49,11.87a10.74,10.74,0,0,1-12.6-4A13.87,13.87,0,0,1,152,47.39c2.32-4.29,7.09-7,12-5.86,5.66,1.3,9,6.91,9,12.41,0,.41.72.34.72-.07-.07-5.35-3-10.67-8.22-12.56a11.47,11.47,0,0,0-13,4.09,14.42,14.42,0,0,0-1,15.55,11.7,11.7,0,0,0,12.54,5.94c6-1.33,9.56-7.17,9.63-13C173.74,53.47,173,53.54,173,53.94Z"/><path class="cls-13" d="M149.25,90.69c29.11,7.86,40.78,24.4,44,31.7a2.73,2.73,0,0,1-1.8,3.81c-36.13,11.16-60.28-.08-70.92-8.26-10.93-8.4-3.4-22-3.4-22S121.49,83.19,149.25,90.69Z"/><path class="cls-14" d="M145.66,90s14,2.12,24,8.85,17.43,11,23.53,23.27c0,0,.48.24.33,2.14S185.76,107.53,145.66,90Z"/><path class="cls-19" d="M174,132.55l-5,.3c-.75.05-1.31.6-1.11,1.12.54,1.49,2.49,2.7,5.84,3,1,.09,1.92-.54,1.87-1.29a10,10,0,0,1,0-1.89C175.73,133.08,175,132.49,174,132.55Z"/><path class="cls-19" d="M176.05,142.29l-3.36-.39c-.5-.06-1,.49-.92,1.14a4.93,4.93,0,0,0,3.37,4.38c.66.26,1.36-.34,1.44-1.22s.21-1.49.36-2.22A1.31,1.31,0,0,0,176.05,142.29Z"/><path class="cls-12" d="M162.58,29.92c1.24,4-9.11,12.43-24.2,19.21S109,58.41,107.75,54.45c-1.58-4.92.17-8.13.17-8.13,1.72,3.84,13.85,1.73,27.29-4.33s21.28-12.53,19.55-16.35C154.77,25.65,161.12,25.29,162.58,29.92Z"/><path class="cls-9" d="M107.07,50.55a6,6,0,0,0,.23,2.15c.35,1.46,9.76,3.87,31.05-6.09s23.79-17.67,23.79-17.67a2.79,2.79,0,0,0-2.06-2.1s-5.56,9.55-22.54,17.37S112.6,52.16,107.07,50.55Z"/><path class="cls-10" d="M171.58,29.17c-.59-.35,7.33-7.52,9.54-3.89C182.71,27.85,177.91,32.77,171.58,29.17Z"/><path class="cls-1" d="M171.57,29.18s0,0,0-.07a.37.37,0,0,1,.08-.2,3.63,3.63,0,0,1,.49-.64,18.32,18.32,0,0,1,2-1.95,10.61,10.61,0,0,1,3.54-1.89A4.25,4.25,0,0,1,180,24.3a2,2,0,0,1,1,.62A2.33,2.33,0,0,1,181.5,26a3.06,3.06,0,0,1-.58,2.31,5.32,5.32,0,0,1-1.72,1.56,5.77,5.77,0,0,1-2,.71,6.65,6.65,0,0,1-1.94,0,7.6,7.6,0,0,1-1.58-.4c-.44-.16-.82-.35-1.14-.49l-.71-.36a1.21,1.21,0,0,0-.21-.15Zm0,0,.24.13c.16.08.41.21.71.33a4.61,4.61,0,0,0,.53.19c.19.07.41.13.64.19a8.59,8.59,0,0,0,1.55.23,7.63,7.63,0,0,0,1.82-.1,6.65,6.65,0,0,0,1.91-.65,4.94,4.94,0,0,0,1.63-1.39,3,3,0,0,0,.65-2.05,2.1,2.1,0,0,0-.43-1,1.9,1.9,0,0,0-.93-.6,3.38,3.38,0,0,0-2.15.23,11.44,11.44,0,0,0-1.85.94c-.57.33-1.09.68-1.56,1a16.77,16.77,0,0,0-2.21,1.73,3.24,3.24,0,0,0-.51.61.59.59,0,0,0-.07.17s0,.06,0,.05Z"/><path class="cls-11" d="M172.29,29.53c3.63-2.34,7.27-2.42,8.37-1.16a2.76,2.76,0,0,0,.48-3.11c-2.22-3.61-10.15,3.56-9.54,3.89A5.76,5.76,0,0,0,172.29,29.53Z"/><path class="cls-10" d="M168.66,23.25c.35.13,2.13-3.83,0-3.83C167.23,19.42,168.14,23.07,168.66,23.25Z"/><path class="cls-1" d="M168.66,23.23a.11.11,0,0,0,.07,0,.62.62,0,0,0,.16-.23,4.56,4.56,0,0,0,.32-1c.06-.21.12-.42.17-.65a5.19,5.19,0,0,0,.18-.73,1.25,1.25,0,0,0-.1-.76.68.68,0,0,0-.65-.33.55.55,0,0,0-.55.3,1.64,1.64,0,0,0-.13.71,13.33,13.33,0,0,0,.11,1.38,4,4,0,0,0,.2,1,.69.69,0,0,0,.15.23c0,.08.07.08.07.08Zm0,0a.3.3,0,0,1-.09-.06,1,1,0,0,1-.19-.23,6.53,6.53,0,0,1-.49-.94,4.35,4.35,0,0,1-.17-.69,3.53,3.53,0,0,1-.05-.81,2.05,2.05,0,0,1,.25-.88.79.79,0,0,1,.4-.34.65.65,0,0,1,.26,0,1.75,1.75,0,0,1,.24,0,1.06,1.06,0,0,1,.73.51,2.24,2.24,0,0,1,.23.84,2.64,2.64,0,0,1-.26,1.47,5.5,5.5,0,0,1-.57.9,1.35,1.35,0,0,1-.21.21.1.1,0,0,1-.08,0Z"/><path class="cls-11" d="M168.66,23.25s.13,0,.22-.15a3.71,3.71,0,0,1,.17-3.62,1.36,1.36,0,0,0-.37-.06C167.23,19.42,168.14,23.07,168.66,23.25Z"/><path class="cls-1" d="M126,29.18A11,11,0,0,1,125,20.33a11.42,11.42,0,0,1,5.38-6.4c.26-.14-.39-.39-.58-.29A11.64,11.64,0,0,0,124.33,20a11.13,11.13,0,0,0,1,9.15c.13.19.81.23.71.07Z"/><path class="cls-1" d="M181.05,35.9a10,10,0,0,1,1.2-.29,8.24,8.24,0,0,1,2.15-.23,5.69,5.69,0,0,1,2.39.62c.58.32,1.4.94,1.23,1.71s-1,1-1.61,1.07a4.72,4.72,0,0,1-2.5-.49,8.38,8.38,0,0,1-1.7-1.13c-.12-.09-1.3-1.18-1.16-1.26s-.2-.14-.22-.16a.86.86,0,0,0-.45-.07c-.24.12.7.94.81,1.06A10.33,10.33,0,0,0,182.83,38a7.55,7.55,0,0,0,4,1.07,2.36,2.36,0,0,0,1.66-.73c.48-.59.1-1.27-.38-1.72a6.51,6.51,0,0,0-3.78-1.41,8.19,8.19,0,0,0-2.32.11,9.86,9.86,0,0,0-1.65.39c-.08,0,.21.15.22.16A.78.78,0,0,0,181.05,35.9Z"/><path class="cls-1" d="M172.93,83.79h-.19l.61.16a.08.08,0,0,0,.07,0h-.07s-.09,0,0,0h-.1l-.07,0s-.06,0,0,0h0l.28,0a.23.23,0,0,0,.11,0h.13s0,0,0,0l0,0-.13,0a1.91,1.91,0,0,0-.36-.07,1.53,1.53,0,0,0-.3,0h-.06a0,0,0,0,1,0,0h0s0,0,0,0,0,0,.06,0a.24.24,0,0,0,.1,0,1.81,1.81,0,0,0,.27.06l.22,0h.23s0,0,0,0,0,0-.06,0a.24.24,0,0,0-.1,0,1.81,1.81,0,0,0-.27-.06A.56.56,0,0,0,172.93,83.79Z"/><g class="cls-20"><path class="cls-1" d="M186.09,87a52.35,52.35,0,0,0-12.25-3.18c-.12.08-.23.17-.34.26a42.57,42.57,0,0,1,12,3.12c.16.06.8-.12.59-.2a43.74,43.74,0,0,0-12.25-3.18c-.21,0-.8.19-.34.26a52.35,52.35,0,0,1,12,3.12C185.66,87.25,186.3,87.07,186.09,87Z"/></g><g class="cls-20"><path class="cls-1" d="M192.21,91.19a2.17,2.17,0,0,0-.07-.24l-.57-.22.09.13,0-.06a.19.19,0,0,1,0,.08s0,0,0-.06,0,0,0,.06v0s0,0,0,0,0,0,0,0,0,0,0,.05a.32.32,0,0,0,0,.09.61.61,0,0,0,.07.1.94.94,0,0,0,.1.1l.08.06a.46.46,0,0,0,.14.07l.06,0a.11.11,0,0,0,.09,0h0v0s0,0,0,0v-.1a.31.31,0,0,0-.06-.13l-.08-.13s0,0,0,.05h0a.3.3,0,0,0-.07-.1.94.94,0,0,0-.1-.1.62.62,0,0,0-.19-.12h-.07a.08.08,0,0,0-.09,0s0,0,0,0a.11.11,0,0,0,0,.08,1.17,1.17,0,0,1,.07.25l.05.08s0,.08.08.11l.12.08a.26.26,0,0,0,.11.07l.08,0a.11.11,0,0,0,.11,0s0,0,0,0S192.22,91.22,192.21,91.19Z"/></g><path class="cls-1" d="M193.32,123.7c-.49,1.81-2.06,2.14-3.66,2.62-1.82.53-3.64,1-5.49,1.46s-3.51.79-5.29,1.11a8.57,8.57,0,0,0-2.41.42c-.52.33-.32.38-.29,1.27.11,3.26.29,6.51.23,9.76,0,2,.66,4.38-.28,6.27l.42.55c0-.1,0-.18,0-.28s-.42-.61-.42-.55c-1,10.13-4.67,20.94-12,28.26-9.9,9.81-26,11.31-38.92,7.73A39.31,39.31,0,0,1,108.73,173s-.09-.09-.12-.06c-3.15,4-8.19,6.12-13.19,4.64-.74-.21-1.61-.3-1.1-1.17.23-.37.94-.65,1.29-.84.89-.47,1.83-.83,2.73-1.33a6.15,6.15,0,0,0,3.48-4.17c0-.1-.29-.67-.4-.58A13.15,13.15,0,0,1,94.23,172c-1.07,0-3.9-.1-4.64-1-1.21-1.51,2.42-2,3.21-2.15a11.11,11.11,0,0,0,4.5-1.63,9.4,9.4,0,0,0,2.15-2.07c.26-.35,1.08-1.33,1-1.82s-.47-.83-.65-1.14c-.71-1.22-1.38-2.46-2-3.75a49.68,49.68,0,0,1-3.93-12.89c-2.63-16,1.55-32.57,7.53-47.37A163.19,163.19,0,0,1,110.22,80c.06-.12-.12-.35-.17-.44-2-2.44-2.26-6.21-2.59-9.26a61.54,61.54,0,0,1-.32-10.77c.12-1.78.72-3.76.64-5.51,0-1.18-.47-2.31-.47-3.54a7.24,7.24,0,0,1,.68-3.61c.48-.7,1.61-1.06,2.34-1.45,0,0,0,0,0,0a5.78,5.78,0,0,1,.79-1.67A24.89,24.89,0,0,1,112.72,41c.82-1.21,1.79-2.25,2.72-3.39A13.89,13.89,0,0,0,118.11,31a54,54,0,0,1,4.21-13.54,30.19,30.19,0,0,1,4.51-7c1-1.2,2.2-2.8,4-2.12,1.53.57,2.63,2.22,3.59,3.49s1.93,2.71,2.84,4.1a44.11,44.11,0,0,0,4.33,6.23s.14.17.17.08a29.54,29.54,0,0,1,1.63-3.86c.31-.58,1-2.15,1.7-2.27l-.37-.4c.19.39-.36,1.88-.39,2.34a18.5,18.5,0,0,0,0,2c0,.57,0,1.63.42,2.11.22.24.22.39.51.26.12-.06.14-.49.19-.6a6.42,6.42,0,0,1,.82-1.47c.44-.53,1.53-1.79,2.33-1.65-.13-.17-.26-.36-.38-.53.18.86-2.27,3.84-.82,4.59.55.29,1-.56,1.46-.91a13.89,13.89,0,0,1,3.74-1.95A17.62,17.62,0,0,1,156,19a9.42,9.42,0,0,0,1.2,0c.09,0-.11-.26-.26-.22s-.26.22-.4.28c-2.69,1.26-4.8,4.25-6.52,6.56-.1.13.25.58.38.61a7.89,7.89,0,0,0,1.63.39,17.54,17.54,0,0,0,3-.8l-.36-.4s0,0,0,.06.2.42.33.42a10.78,10.78,0,0,1,5.26,1.2c.05,0,.06,0,.08,0,.46-.92,2.16,2.94,2.32,3.08a9.62,9.62,0,0,0,2,1.06,31.34,31.34,0,0,1,2.79,1.69,29.56,29.56,0,0,1,9.23,9.52,31.59,31.59,0,0,1,3.88,17.75.76.76,0,0,0,.4.58,25.63,25.63,0,0,1,7.7,4.11c.72.6,2.47,2.22,1.29,3.15a4.72,4.72,0,0,1-1,.42,17.78,17.78,0,0,1-3.89.72c-.08,0,.24.58.37.61,1,.27,2.49.42,2.23,1.67a4.47,4.47,0,0,1-1.17,2c-2.42,2.56-6.54,2.74-9.79,2.64,0,0,0,0,0,0-.51,1.27-1,2.55-1.65,3.78a14.75,14.75,0,0,1-2,3.68c-.1.1.24.59.37.61a43.67,43.67,0,0,1,9,1.89c2.73.84,6.11,1.84,8.39,3.57,2.46,1.87.64,3.7-.67,5.32-1.12,1.38-2.26,2.72-3.45,4-2.09,2.34-4.33,4.51-6.56,6.72-.11.11.25.52.33.59a49.35,49.35,0,0,1,8.68,8.89,42.39,42.39,0,0,1,3.19,5c.73,1.38,1.23,2,1.2,3.54,0,.21.42.58.42.55a4.53,4.53,0,0,0-.63-2.45,48.85,48.85,0,0,0-3.36-5.76,51.36,51.36,0,0,0-9.78-10.3c.11.2.21.39.33.59,2.92-2.92,5.82-5.8,8.5-9,1.6-1.9,4.64-4.44,2.83-7.06a5.79,5.79,0,0,0-2.27-1.75,45,45,0,0,0-16.49-5c.13.2.24.4.37.6,1.1-1.09,1.85-3.2,2.5-4.61.54-1.15.74-2.6,2.14-2.86.73-.13,1.55,0,2.29-.09,2.34-.21,4.93-.81,6.6-2.58a4.22,4.22,0,0,0,1.3-2.61c0-1.57-1.87-2-3.07-2.31.13.2.24.41.37.61,1.39-.13,4-.22,5.12-1.23.81-.71.1-1.71-.39-2.41-2.13-3.07-6.17-4.67-9.53-6l.39.58a33,33,0,0,0-3.08-16.42,32.22,32.22,0,0,0-15.39-14.62l.38.54a4.92,4.92,0,0,0-2.9-3.76s0,0,0,0c.13-.26-3.08-1.06-3.37-1.1a3.91,3.91,0,0,0-1.36-.12c-.55.15-.59-.31-.24.37-.05-.09-.22-.45-.36-.41-.77.19-1.56.49-2.35.61a5.29,5.29,0,0,1-2.19-.2c.13.2.24.4.37.6a40.16,40.16,0,0,1,3.07-3.68c1.1-1.16,2.41-1.91,3.57-2.94.66-.58.37-1.11-.48-1.24-2-.3-4.88,1-6.59,1.94a9.33,9.33,0,0,0-1.79,1.2c-.19.16-.35.33-.54.5s-.14.54-.11.12c.05-1.1,1.31-2.49,1.12-3.47,0-.15-.2-.51-.37-.54-.85-.14-1.91,1.07-2.39,1.67a4.89,4.89,0,0,0-.78,1.3c-.07.21-.13.45-.18.66s0,.16-.05-.16c-.49-.55-.09-2.89,0-3.6s.52-1.38.23-2c0-.1-.22-.43-.36-.4-.93.14-1.84,2.5-2.2,3.28-.17.37-.84,2.61-1.36,2.58-.68,0-2-2.83-2.43-3.55a56.49,56.49,0,0,0-6-8.43c-.81-.85-1.94-1.94-3.22-1.85a3.92,3.92,0,0,0-2.5,1.74,32.79,32.79,0,0,0-5.83,9.38A55.05,55.05,0,0,0,118.1,29c-.29,1.41-.45,2.85-.87,4.23-.8,2.57-2.52,4.17-4.08,6.25-1.14,1.52-1.86,3.23-2.86,4.8-.58.9-1.37.91-2.15,1.56-.29.25-.26.18-.46.48-.76,1.14-.74,3.12-.67,4.44,0,.59.14,1.16.22,1.73a17.67,17.67,0,0,1-.22,4.11,61.39,61.39,0,0,0,.23,14.21c.41,3.12.81,6.49,2.86,9l-.17-.43C102.77,92.13,97,106,94.26,120.41c-1.63,8.76-2.07,17.88-.29,26.65a49.17,49.17,0,0,0,4.11,12.07c.42.84.85,1.65,1.31,2.46s.74,1.19.18,2.27a7.69,7.69,0,0,1-1.06,1.4,9.44,9.44,0,0,1-5,2.78c-1.37.27-6.5,1-3.84,3.28,1.11.94,3,1.17,4.42,1.26a13,13,0,0,0,7.84-2.48l-.41-.57c-.56,2.56-2.5,3.68-4.7,4.74-1,.46-3.61,1.21-2.94,2.67.52,1.16,2.38,1.4,3.42,1.58a12,12,0,0,0,7.13-1.07,12.68,12.68,0,0,0,2.86-1.92,15.42,15.42,0,0,1,1.33-1.35c.88-.61,1.34.16,2,.74a47.35,47.35,0,0,0,5.54,4.12,33.85,33.85,0,0,0,6.92,3.11,47.24,47.24,0,0,0,29.8.26,31.55,31.55,0,0,0,16.66-13.52,51.35,51.35,0,0,0,7.13-22l-.42-.55c0,.1,0,.19,0,.29s.36.68.42.55a7.65,7.65,0,0,0,.63-3.62,10,10,0,0,1-.37-2c.1-3.37-.09-6.75-.21-10.12a3.69,3.69,0,0,1,0-1.19c.19-.42.33-.35.88-.43.91-.15,1.82-.32,2.73-.49,1.78-.35,3.56-.74,5.32-1.17s3.7-1,5.52-1.52a3.44,3.44,0,0,0,2.71-2.37C193.78,124.08,193.34,123.63,193.32,123.7Z"/><path class="cls-1" d="M129.78,13.56a3,3,0,0,0-.52.3A2.72,2.72,0,0,0,129,14l-.13.08a.73.73,0,0,0-.09.08l0,0h0s0,.05,0,.06l.19.1a2,2,0,0,0,.26.09.32.32,0,0,0,.17,0s0,0,.06,0l.11-.07h0c.27-.17.55-.35.82-.49,0,0,0,0,0-.06l-.19-.1a2.67,2.67,0,0,0-.26-.09h-.17Z"/><path class="cls-1" d="M127.13,15.65a11.21,11.21,0,0,0-1.75,13.56c.15.26.8-.06.67-.3a10.8,10.8,0,0,1,1.57-13.07c.34-.33-.27-.41-.49-.19Z"/><path class="cls-1" d="M176.71,132.22c0-.8-.05-1.58-.08-2.37a.13.13,0,0,0,0,.08h0l-.5-.46c0,.79,0,1.59.07,2.38a.59.59,0,0,0,.27.42c.09.06.26.12.26,0,0-.8,0-1.59-.07-2.39a.59.59,0,0,0-.2-.36c-.06-.06-.22-.17-.29-.1s0,.16,0,.25,0,.21,0,.31,0,.42,0,.63c0,.43,0,.85,0,1.28a.61.61,0,0,0,.28.42C176.53,132.32,176.71,132.38,176.71,132.22Z"/><path class="cls-1" d="M176.16,146.34c0,.1,0,.2,0,.3s0,0,0-.07l0,0,.39.55v-.06s0-.06,0-.09,0-.11,0-.17a.87.87,0,0,0-.05-.22l-.08-.13-.08-.12-.06,0a.21.21,0,0,0-.1-.06h-.05a.33.33,0,0,0,0,.1.91.91,0,0,1,0,.17s0,.06,0,.09v.06a1,1,0,0,0,0,.17.51.51,0,0,0,.12.2.63.63,0,0,0,.1.12.08.08,0,0,0,.07,0s.05,0,.06,0h0s-.08.09,0,0,0,0,0,0v0h0V147c0-.07,0-.13,0-.2a.6.6,0,0,0-.06-.22.42.42,0,0,0-.07-.13.44.44,0,0,0-.09-.11l-.06-.06a.14.14,0,0,0-.1-.06h0C176.16,146.28,176.15,146.31,176.16,146.34Z"/><path class="cls-1" d="M182.7,108c-.81-.73-1.64-1.4-2.49-2.07l.17.36.06-.06-.39-.07c.8.64,1.55,1.3,2.29,2,.1.09.29.23.43.17s0-.27-.07-.34q-1.17-1.11-2.43-2.13c-.09-.07-.29-.19-.39-.07l-.06.06c-.1.1.12.32.17.36.8.62,1.59,1.27,2.35,2,.1.09.29.25.43.17S182.77,108,182.7,108Z"/><path class="cls-1" d="M193.47,121.91q-1-2.09-2.26-4.08l-.58.24a31.69,31.69,0,0,1,2.26,4.07.31.31,0,1,0,.58-.23,31.81,31.81,0,0,0-2.26-4.08.4.4,0,0,0-.45-.2.32.32,0,0,0-.13.44c.81,1.33,1.56,2.68,2.26,4.07C193.09,122.53,193.68,122.33,193.47,121.91Z"/><path class="cls-1" d="M193.86,123.88c0-.31,0-.61,0-.91l-.67.24a1.07,1.07,0,0,1,0,.25v0a3,3,0,0,1,0,.67c0,.14.23.07.31.06a1.12,1.12,0,0,0,.24-.13s.12-.08.12-.13a3.43,3.43,0,0,0,0-1s-.12,0-.13,0a1.12,1.12,0,0,0-.21,0l-.2.1s0,0-.06,0l0,.08c0,.31,0,.61,0,.91,0,.15.23.09.3.06a.85.85,0,0,0,.25-.13S193.86,123.93,193.86,123.88Z"/><g class="cls-20"><path class="cls-1" d="M190.86,117.18a51.17,51.17,0,0,0-8-9.3l-.65.31a43,43,0,0,1,8,9.31c.09.15.73-.2.65-.32a42.66,42.66,0,0,0-8-9.3c-.14-.14-.71.26-.65.31a52,52,0,0,1,8,9.31C190.3,117.65,190.94,117.29,190.86,117.18Z"/></g><g class="cls-20"><path class="cls-1" d="M193.7,123.07a1.77,1.77,0,0,0-.15-.51c0-.1-.07-.19-.11-.27a1.47,1.47,0,0,0-.1-.22c0,.09,0,.19-.05.27s0,0,0,0h0l0,0s0,0,0,0,.05.05,0-.06h0s0,0,0,0h0l0-.08a.13.13,0,0,0,0,.05s0,.07,0-.06,0,0,0,0a0,0,0,0,1,0,0c0-.07,0-.08,0-.06v.05s0,0,0,.06h0s0,0,0,0,0,0,0,0a.77.77,0,0,1,0,.15s0,.08,0,.11v0s0,0,0,0a.81.81,0,0,0,.2.45.3.3,0,0,0,.15.12s.05,0,.05-.07a2.64,2.64,0,0,0-.21-.87,1.74,1.74,0,0,0-.39-.54c-.05,0-.09,0-.1,0a.36.36,0,0,0,.05.23c0,.08.06.13.09.21l0,.1s0,0,0,0,0,.09,0,0,0,0,0,0,0,0,0,0a.38.38,0,0,1,0,.1c0,.06,0,0,0,0s0,0,0,.06a.37.37,0,0,1,0,.11.71.71,0,0,0,.11.25.5.5,0,0,0,.15.2s.09.07.13.06S193.7,123.11,193.7,123.07Z"/></g><g class="cls-20"><path class="cls-1" d="M193.19,123.92a.34.34,0,0,1,0,.1v.12a.28.28,0,0,1,0-.09.06.06,0,0,1,0,0,.21.21,0,0,1,0-.07s0,0,0,0,0,0,.06-.06v0l.07-.05h0l.41.48c0-.1.05-.22.08-.32a.15.15,0,0,0,0-.13.2.2,0,0,0,0-.13.38.38,0,0,0-.09-.12.26.26,0,0,0-.11-.07.32.32,0,0,1-.09,0,.27.27,0,0,0-.16,0l-.07,0a.51.51,0,0,0-.09.13c0,.1-.06.22-.08.32a.4.4,0,0,0,.08.33.88.88,0,0,0,.15.12.47.47,0,0,0,.17,0h.12a.28.28,0,0,0,.14-.12.21.21,0,0,0,0-.1s0,0,0,0,0-.09,0-.14v0s0-.08,0-.12a.61.61,0,0,0,0-.13l-.07-.13a.34.34,0,0,0-.12-.09.25.25,0,0,0-.13,0,.26.26,0,0,0-.23.06s0,0-.06.06A.86.86,0,0,0,193.19,123.92Z"/></g><path class="cls-1" d="M176,146.72c0,.1,0,.2,0,.3l.61-.29h0l.06,0c0-.11,0-.21,0-.31s-.12,0-.12,0l-.11,0-.13,0-.23.12s-.08.06-.08.09a1.53,1.53,0,0,1,0,.3h.13l.12,0,.22-.09.14-.07.06,0a.06.06,0,0,0,0,0c0-.11,0-.21,0-.31s-.12,0-.12,0l-.11,0-.13,0a1.67,1.67,0,0,0-.23.12S176,146.69,176,146.72Z"/><path class="cls-1" d="M107.56,52.84a7.75,7.75,0,0,1-.25-1.59,2.29,2.29,0,0,1,0-.52l0,0h0s0,0-.08-.06v0c-.11-.17-.22-.35-.33-.51a13.43,13.43,0,0,0,.22,2.19,1.17,1.17,0,0,0,.26.42s.2.17.17,0a11.5,11.5,0,0,1-.17-1.33q0-.3,0-.6a.52.52,0,0,0-.08-.34.9.9,0,0,0-.24-.31.24.24,0,0,0-.13-.1s0,0,0,0a3.27,3.27,0,0,0,0,.54,8.34,8.34,0,0,0,.26,1.65,1,1,0,0,0,.26.42S107.59,53,107.56,52.84Z"/><path class="cls-1" d="M171.86,28.86a.41.41,0,0,1,.08.13c.06.06-.05,0,0,0s0,0,.07-.11a3.09,3.09,0,0,1,.36-.45,12.84,12.84,0,0,1,1.39-1.27,13.9,13.9,0,0,1,4-2.4c1.13-.41,2.59-.55,3.18.75s-.55,2.9-1.66,3.63c-2.28,1.49-5.14,1-7.41-.28-.32-.17-.87.23-.48.45A8.35,8.35,0,0,0,179,30c1.48-.71,3.1-2.33,2.77-4.13-.3-1.65-2-2.17-3.42-1.87a12,12,0,0,0-4.8,2.55c-.32.24-3,2.24-2.19,2.77C171.68,29.51,172.23,29.12,171.86,28.86Z"/><path class="cls-1" d="M171.94,29.07c-.36-.32,2.5-2.77,2.76-2.95A10.33,10.33,0,0,1,176.6,25a5.39,5.39,0,0,1,2.79-.73,2.13,2.13,0,0,1,1.78,1.55,3,3,0,0,1-.44,2.31,5.32,5.32,0,0,1-4,2.37,6.5,6.5,0,0,1-2.89-.47,8.4,8.4,0,0,1-1.91-.91c-.16-.12-.72,0-.69.07A10.12,10.12,0,0,0,176,30.66a6.44,6.44,0,0,0,5-2,3.42,3.42,0,0,0,1-2.62,2.36,2.36,0,0,0-1.49-1.87c-1.71-.6-3.82.24-5.28,1.1a14.34,14.34,0,0,0-2.54,2c-.22.2-1.71,1.56-1.38,1.85C171.39,29.25,172,29.09,171.94,29.07Z"/><path class="cls-1" d="M168.78,23s0,0,0,0-.09-.11-.12-.17-.13-.2-.19-.32a3.36,3.36,0,0,1-.33-.81,3,3,0,0,1,.07-1.88.59.59,0,0,1,.58-.37.55.55,0,0,1,.49.3,2.41,2.41,0,0,1,.08,1.77,3.81,3.81,0,0,1-.44.85l-.23.33a.79.79,0,0,1-.14.17s-.06.05-.06.06,0,0,0,0h0c-.13,0-.29,0-.25.18a.5.5,0,0,0,.41.29c.33,0,.49-.24.66-.47a4,4,0,0,0,.55-.93,2.73,2.73,0,0,0-.07-2.27,1.57,1.57,0,0,0-2-.66c-.68.39-.67,1.49-.55,2.14a4.08,4.08,0,0,0,.46,1.28,1.9,1.9,0,0,0,.71.87c.1.06.35.12.42,0S168.86,23.07,168.78,23Z"/><path class="cls-1" d="M129.91,13.47l-.54.3c-.08.06-.17.1-.26.16L129,14a.24.24,0,0,0-.08.06.23.23,0,0,0-.11.11.43.43,0,0,0,0,.12.19.19,0,0,1,0-.08h0a.15.15,0,0,0,0-.07h0c.07,0,.14-.1.22-.14h0a.35.35,0,0,0-.22.14.26.26,0,0,0,0,.23.37.37,0,0,0,.44.19.38.38,0,0,0,.22-.14.32.32,0,0,0,0-.16l-.17.26c.32-.2.64-.41,1-.58a.26.26,0,0,0,.11-.4.36.36,0,0,0-.47-.09Z"/><path class="cls-1" d="M127.15,15.46a11.19,11.19,0,0,0-1.62,13.61c.16.27.59.39.34,0a10.83,10.83,0,0,1,1.74-13c.16-.14-.32-.68-.46-.55Z"/></g></g></svg>