<svg width="261" height="261" viewBox="0 0 261 261" fill="none" xmlns="http://www.w3.org/2000/svg">
<path d="M141.705 235.293C132.726 234.612 123.371 233.625 113.971 233.279C106.347 232.997 99.3942 230.271 92.077 228.921C91.2174 228.65 90.3996 228.261 89.6471 227.765C80.3786 223.056 72.3704 216.517 63.9538 210.563C60.8795 208.389 56.5341 207.318 54.5627 204.466C52.6892 202.042 50.6919 199.715 48.5788 197.496C42.9834 190.913 37.1282 184.49 32.2176 177.402C28.9703 172.26 26.2828 166.785 24.201 161.071C16.1459 141.447 16.5454 121.202 23.8817 101.118C30.4107 83.8109 40.8527 68.2479 54.3919 55.6447C57.3147 52.8435 59.8236 49.6121 62.6415 46.6933C63.7318 45.5148 65.0232 44.5399 66.4554 43.8143C78.6123 37.6301 91.3895 32.7496 104.573 29.2543C115.59 26.4106 126.983 25.3035 138.342 25.9729C143.515 26.3956 148.688 26.9762 153.789 27.8403C160.447 28.8211 167.046 30.1632 173.557 31.8606C184.058 34.6225 193.684 40.0091 201.531 47.5142C205.264 51.1736 209.753 54.0526 213.555 57.6486C224.932 68.4064 234.895 80.2332 238.019 96.3399C239.627 104.635 240.205 113.163 241.77 121.47C244.172 134.224 241.712 146.816 238.282 158.956C234.29 173.082 228.624 186.858 218.118 198.013C212.733 203.731 207.714 209.839 201.97 215.162C194.926 221.223 186.712 225.773 177.837 228.527C173.498 230.047 169.041 231.206 164.511 231.992C157.132 233.291 149.692 234.161 141.705 235.293ZM77.4112 207.237C76.12 205.843 74.8287 204.45 73.5687 203.09L71.0354 209.039C73.6793 208.276 75.565 207.731 77.4507 207.187L75.3438 212.832L79.994 211.602L79.5903 215.744C80.709 216.207 82.292 216.344 82.6969 217.124C84.0717 219.773 85.3129 219.729 87.5052 217.771C88.2688 217.089 90.0617 217.573 91.2771 217.528L88.9467 221.845L93.6957 219.92L93.9697 224.521L112.449 228.201C111.63 226.835 111.45 226.129 110.997 225.841C107.094 223.36 103.223 220.816 99.1772 218.577C96.6947 216.863 93.8744 215.7 90.9056 215.166C84.7916 214.812 80.0247 213.001 77.4112 207.237ZM78.5889 87.8493C78.7183 87.9734 78.8469 88.0982 78.9748 88.2238C79.4395 89.6828 80.3744 90.9467 81.6336 91.818C82.8927 92.6892 84.4051 93.1187 85.9342 93.0392C89.2879 92.2843 89.1892 89.6654 88.8964 87.0928C88.765 85.9394 88.4918 84.807 88.2851 83.667C88.1716 81.162 87.6621 78.6908 86.7755 76.3452C83.755 71.1481 80.1144 66.3294 76.818 61.2942C76.4711 60.437 76.2779 59.5253 76.2474 58.6011C81.9946 62.1114 82.3574 69.9613 88.76 72.9819C89.9602 70.7416 90.544 68.2228 90.4519 65.6829C90.3598 63.143 89.5951 60.6731 88.2358 58.5256L87.2713 61.2684L69.5496 50.1211L68.7313 50.9806C70.0596 53.7182 71.1706 56.5947 72.7563 59.1676C77.8195 67.3823 83.0588 75.4843 88.2301 83.6298C87.1312 83.6758 85.5811 84.2014 85.0208 83.6747C83.5605 82.2159 82.3087 80.5626 81.3007 78.7614C75.9878 69.8392 70.7553 60.8672 64.537 50.2827C61.9232 53.7967 59.4136 57.0893 57.0133 60.4583C56.4505 61.2483 55.7247 62.5126 55.9786 63.1928C58.4956 69.4406 62.1696 75.1571 66.8075 80.0419C66.8057 79.1451 66.5516 78.2669 66.0743 77.5078C63.7498 73.3335 61.3486 69.2026 59.1036 64.9843C58.2256 63.3343 57.6821 61.4941 60.4536 61.1707C62.9409 65.6246 65.1939 69.978 67.7438 74.1426C70.8028 79.1391 72.7475 85.0829 78.5889 87.8493V87.8493ZM232.748 110.959C234.079 113.863 235.411 116.767 236.742 119.67C236.109 116.399 237.728 111.966 232.723 110.989C230.827 108.101 228.855 105.26 227.075 102.3C226.405 101.184 225.481 99.5175 225.877 98.572C227.223 95.3516 225.301 95.6692 223.324 95.6344C219.544 95.568 215.767 95.4455 211.993 95.2901C208.633 95.1518 205.281 94.7572 201.92 94.8119C201.318 94.757 200.712 94.8607 200.162 95.1127C199.612 95.3647 199.138 95.7562 198.786 96.2483C198.435 96.7404 198.218 97.3159 198.158 97.9176C198.098 98.5193 198.196 99.1263 198.444 99.6782C201.842 106.198 205.212 112.746 208.951 119.062C212.503 125.062 216.471 130.809 220.334 136.613C221.493 138.334 222.787 139.961 224.203 141.477C225.502 142.882 227.018 144.084 228.439 145.375C224.302 139.259 221.255 132.63 217.49 126.457C213.527 119.959 208.616 114.062 204.676 107.551C203.363 105.382 203.769 102.131 203.389 99.3742L204.926 99.0028C210.274 105.894 215.621 112.786 220.969 119.677C219.919 116.921 218.62 114.267 217.088 111.747C214.374 107.499 211.358 103.45 208.623 99.2147C208.229 98.6057 208.692 97.4246 208.759 96.5084C209.513 96.9828 210.526 97.2792 210.981 97.9601C214.452 103.152 217.815 108.42 221.211 113.664C220.745 110.692 219.894 107.793 218.679 105.041C217.664 102.642 214.608 101.023 215.305 97.9944L216.552 97.4103C219.385 101.818 222.218 106.226 225.025 110.593L227.946 109.135C226.848 107.434 225.674 105.616 224.5 103.797L225.728 102.822C228.068 105.534 230.408 108.247 232.748 110.959V110.959ZM178.245 223.588C175.608 221.953 173.576 219.503 172.456 216.61C171.336 213.717 171.19 210.538 172.039 207.554C174.183 200.456 176.975 193.57 180.378 186.983C182.88 182.241 187.86 186.827 191.614 185.372C192.318 185.1 193.625 186.511 194.644 187.16C194.736 187.219 194.767 187.381 194.811 187.501C195.491 190.244 195.483 193.112 194.789 195.851C194.095 198.59 192.737 201.116 190.834 203.205C190.327 203.709 189.938 204.318 189.693 204.989C189.449 205.661 189.355 206.378 189.419 207.089C190.946 210.967 189.086 213.953 187.221 217.042C186.615 218.048 185.968 219.031 185.34 220.024C189.558 218.418 193.56 216.294 197.254 213.7C206.594 206.925 213.237 197.522 219.728 188.32C224.728 181.231 228.011 172.924 231.771 165.03C233.223 161.918 234.258 158.629 234.851 155.246C235.372 152.357 232.649 149.621 230.35 150.408C227.107 151.518 223.648 151.916 221.086 155.065C219.57 157.269 217.539 159.071 215.169 160.314C212.799 161.557 210.162 162.203 207.486 162.196C203.611 162.049 200.661 160.05 200.858 156.227C201.301 147.648 202.542 139.081 202.933 130.503C203.235 125.996 202.803 121.47 201.655 117.101C199.892 111.981 197.716 107.013 195.147 102.246C191.789 95.263 195.472 89.4715 203.306 89.6748C209.643 89.8392 215.976 90.0732 222.309 90.3113C225.324 90.4246 228.333 90.6192 231.345 90.7769L232.302 89.7795C227.554 83.0574 222.978 76.1998 217.978 69.6751C215.549 66.8652 212.857 64.2934 209.939 61.9944C208.253 60.503 206.195 59.4175 204.577 57.864C197.877 51.428 191.356 44.9853 182.549 41.0442C177.561 38.8126 173.681 37.5959 169.184 41.8372C167.609 43.3217 164.953 43.7574 163.603 45.3535C159.775 49.8797 155.527 51.69 150.14 49.9478C147.832 49.2013 145.828 47.6272 143.56 46.7268C141.361 45.8541 139.012 43.7338 137.513 48.3379C135.836 53.4854 128.14 54.8589 124.457 51.1063C120.729 46.8421 116.682 42.8669 112.352 39.2151C109.394 37.0053 104.73 34.634 101.608 35.505C92.6595 38.4064 83.8718 41.7808 75.2815 45.6141L75.0165 46.8115C78.5315 48.7492 81.8317 51.6459 85.6183 52.3706C89.9057 53.1912 93.2999 54.4112 94.3159 58.6536C95.2155 62.4098 96.5386 66.9104 95.2564 70.2123C93.3592 75.5981 92.8289 81.3707 93.7129 87.0121C93.7426 90.4006 92.5368 93.6838 90.3212 96.2477C89.2958 97.0992 88.0786 97.6885 86.7747 97.9646C85.4707 98.2408 84.1192 98.1956 82.8366 97.8329C77.6092 95.5635 72.1328 96.5626 66.8214 95.9002C64.259 95.7965 61.6925 95.8715 59.1406 96.1246C60.439 101.456 61.211 106.061 62.7016 110.396C64.726 116.283 68.4543 121.323 67.4689 128.459C67.2425 130.944 66.5043 133.356 65.3008 135.542C64.0972 137.728 62.4544 139.641 60.4755 141.161C58.7153 142.364 56.5727 142.872 54.46 142.59C48.4851 141.614 46.0792 136.602 43.7404 131.827C41.3519 126.952 36.1975 124.031 32.2175 125.434C29.5508 126.375 26.7855 127.007 23.9041 127.822C22.1532 153.948 34.482 180.747 57.9702 199.045C58.6486 198.281 59.4422 197.628 60.3222 197.109C62.3473 196.309 64.7509 194.873 66.5156 195.339C72.7693 196.688 78.2663 200.386 81.8713 205.671C82.8484 206.988 84.1127 208.064 85.5682 208.819C87.0236 209.574 88.6319 209.987 90.271 210.027C95.9086 209.452 99.3952 211.91 103.007 215.196C104.798 217.182 107.019 218.733 109.499 219.732C114.649 221.093 118.064 223.675 118.673 229.147C138.926 231.034 158.653 230.616 178.245 223.588ZM49.7191 102.603L49.0301 103.069C52.8971 109.447 56.8262 115.787 60.5737 122.238C61.0758 123.572 61.3648 124.978 61.4301 126.402L60.2116 126.773C59.6071 126.145 59.0521 125.471 58.5517 124.758C52.5045 114.644 46.4608 104.529 40.5067 94.3584C39.956 93.4175 39.4461 91.6784 39.919 91.0444C41.151 89.7231 42.5453 88.5631 44.0686 87.5919C44.7989 88.7216 45.5713 89.8257 46.2524 90.9855C49.1252 95.8771 51.9831 100.778 54.8261 105.688L56.5162 104.682C55.4934 102.913 54.4861 101.135 53.4449 99.378C50.4163 94.2664 47.3097 89.2009 44.4027 84.0182C43.9347 83.1839 44.3336 81.8414 44.3317 80.7339L45.3849 80.4214C48.305 85.3838 51.225 90.3462 54.1451 95.3086L55.364 94.788C55.2386 93.7035 54.9666 92.641 54.5553 91.6296C52.3509 87.8093 49.847 84.1622 47.7833 80.2678C47.1983 78.5883 46.866 76.8312 46.7973 75.0541L48.3607 74.4858C49.7249 77.5318 51.258 80.4993 52.953 83.3743C54.7125 86.0531 55.8857 89.4428 59.4188 90.5858C59.4641 89.8276 59.244 89.0774 58.7963 88.4638C56.0251 84.4398 53.1483 80.4868 50.5223 76.3677C50.0711 75.6599 50.6568 74.2675 50.7635 73.1914C51.6355 73.7219 52.7758 74.0517 53.334 74.817C56.0712 78.5693 58.6012 82.4761 61.317 86.2451C62.5673 87.792 63.8966 89.2734 65.2995 90.6833L75.1804 91.2274L71.4013 86.6459C70.4449 90.0577 68.7095 89.5088 67.1264 87.7484C65.7873 86.1724 64.5929 84.4789 63.5576 82.6885C59.9149 76.763 56.3381 70.7954 52.5832 64.5915C52.0045 65.0878 51.4646 65.6276 50.9682 66.2063C46.2391 72.9615 41.5852 79.7686 36.8107 86.4921C31.3489 94.1838 31.9181 94.1446 36.511 102.139C43.4833 114.275 50.4869 126.403 57.5219 138.523C59.5175 136.047 59.5173 135.722 57.7077 132.772C50.4799 120.989 43.2238 109.224 36.0812 97.3886C35.4437 95.9385 34.9942 94.4128 34.7437 92.8486L36.4146 91.9821C45.0572 105.318 52.5526 119.412 60.9004 133.762C63.4369 128.575 63.9092 123.972 61.6165 120.05C58.0676 113.98 53.7251 108.394 49.7191 102.603ZM181.837 216.405C188.564 210.067 182.788 204.519 181.082 198.715L182.087 198.284C183.249 199.338 184.412 200.392 185.694 201.555C187.115 200.815 188.313 199.71 189.165 198.353C190.018 196.997 190.494 195.438 190.545 193.837C190.526 192.524 190.157 190.216 189.618 190.134C187.99 189.946 186.342 190.251 184.888 191.009C181.213 192.93 179.967 196.694 178.43 200.205C177.631 201.566 177.311 203.156 177.521 204.72C177.732 206.284 178.461 207.733 179.592 208.834C181.706 210.888 184.12 212.742 181.837 216.406L181.837 216.405ZM114.53 32.267L113.702 33.7766C116.231 35.9478 118.886 37.9906 121.252 40.3263C123.626 42.6689 125.628 45.3855 127.957 47.7779C129.222 49.0781 132.637 47.4601 133.187 45.4125C133.688 43.5472 134.135 41.669 134.732 39.2915C129.949 38.7358 128.058 32.4523 122.263 32.6588C124.715 35.7835 127.444 38.6809 130.416 41.3156C131.15 42.1957 131.783 43.1549 132.304 44.1754C131.047 44.0589 129.393 44.4101 128.604 43.744C125.353 40.9969 122.446 37.8475 119.239 35.0435C117.762 33.9694 116.185 33.0396 114.53 32.267V32.267ZM52.9428 138.303L54.2997 137.655L34.1902 103.029C33.1876 103.962 32.9862 104.436 33.1354 104.712C35.4016 108.904 37.5491 113.177 40.0637 117.212C42.3675 120.908 45.2654 124.221 47.5558 127.925C49.5974 131.227 51.1657 134.832 52.9428 138.304V138.303ZM207.863 134.7C204.856 139.934 207.53 145.49 214.804 150.448L213.388 152.172C210.689 149.828 207.991 147.483 205.43 145.258C205.34 147.611 209.552 154.283 212.424 154.575C214.189 154.754 216.247 152.764 218.005 151.837C214.163 146.049 207.135 143.251 207.863 134.7V134.7ZM211.316 135.035C216.043 132.028 214.785 139.368 218.355 138.879L207.483 122.347C208.141 126.965 205.996 132.472 211.316 135.035V135.035ZM37.749 119.446C37.6023 118.538 37.3488 117.65 36.9935 116.802C35.0216 113.935 33.2262 110.95 31.6172 107.865C31.138 105.774 30.9832 103.621 31.1581 101.482C30.9691 100.473 30.706 99.4796 30.3709 98.5093C27.1324 106.076 31.0292 116.4 37.749 119.446ZM237.524 138.561C237.819 135.922 237.347 133.254 236.166 130.876C234.984 128.498 233.143 126.51 230.862 125.151C231.547 126.661 233.101 128.377 232.761 129.646C231.483 134.418 235.18 135.66 237.524 138.561ZM165.03 36.0084L152.518 33.4881L159.049 41.1697L165.03 36.0084ZM155.742 45.3558L157.124 44.1937C156.549 43.4384 155.958 42.6957 155.403 41.9256C153.838 39.754 151.479 37.7792 150.936 35.3413C150.239 32.211 148.674 32.6895 145.609 32.8085L155.742 45.3558ZM149.821 44.8142C148.645 39.6017 142.211 32.2967 138.79 31.6095C142.712 36.3043 146.267 40.5594 149.821 44.8142ZM131.423 31.6042L130.667 32.7477L141.057 40.4559L141.958 39.2171C138.244 36.9473 137.18 31.1724 131.423 31.6042ZM205.665 152.217C204.941 157.821 205.458 158.337 210.181 156.876C208.672 155.32 207.298 153.901 205.665 152.217ZM66.1568 205.909L67.6737 207.199L71.073 202.904L69.7762 201.877L66.1568 205.909Z" fill="#41B37E" fill-opacity="0.5"/>
<path d="M127.922 187.414C128.236 182.443 128.193 178.857 128.738 175.342C129.968 167.396 125.023 162.886 119.577 159.494C111.133 154.235 104.562 147.82 101.696 138.039C100.862 135.193 99.9787 132.364 99.1828 129.507C97.2885 122.706 100.089 116.648 102.873 110.597C103.225 110.03 103.529 109.436 103.784 108.819C105.704 101.593 111.477 99.7768 117.646 99.1903C122.926 98.4853 128.276 98.4815 133.557 99.179C138.972 100.13 143.999 102.846 149.301 104.475C154.179 106.396 159.289 107.664 164.499 108.246C167.605 108.231 170.67 108.954 173.443 110.354C176.215 111.754 178.616 113.793 180.447 116.301C182.278 118.81 183.488 121.718 183.976 124.785C184.465 127.853 184.218 130.992 183.257 133.946C181.852 138.601 181.759 143.769 179.641 148.031C177.15 153.045 175.912 158.745 170.634 162.566C159.923 170.32 152.041 186.24 156.425 200C158.209 205.599 155.559 211.752 152.418 216.796C150.116 220.492 143.581 219.184 141.044 215.125C138.794 211.227 136.342 207.449 133.699 203.808C130.217 199.022 128.209 193.324 127.922 187.414V187.414ZM109.827 123.362C113.558 127.73 117.212 132.167 121.039 136.449C125.874 141.858 130.849 147.141 135.763 152.478L136.761 151.508C127.769 142.141 118.776 132.774 109.783 123.407L106.997 117.689L108.101 117.044C110.211 119.908 112.515 122.624 114.997 125.172C125.517 134.687 133.962 145.968 142.684 157.055C145.57 160.724 147.631 165.629 153.347 166.508C154.323 166.659 154.866 169.127 155.609 170.525L154.482 171.679C151.807 170.517 148.476 170.003 146.578 168.073C140.414 161.806 134.788 155.009 128.928 148.44C125.875 145.017 122.765 141.645 119.68 138.251C123.384 143.877 127.406 149.288 131.727 154.456C138.723 162.567 142.996 173.534 153.526 176.987C157.37 171.987 160.812 167.658 164.025 163.169C164.209 162.666 164.266 162.126 164.192 161.597C164.117 161.067 163.913 160.564 163.596 160.132C161.611 157.914 159.165 156.11 157.203 153.873C145.866 140.945 134.553 127.993 123.39 114.911C121.903 113.5 120.716 111.801 119.903 109.918C119.09 108.035 118.667 106.007 118.66 103.956C120.91 107.206 122.392 109.749 124.255 111.968C132.894 122.259 141.6 132.492 150.374 142.668C154.763 147.727 159.397 152.577 164.033 157.413C166.426 159.909 169.069 159.833 170.695 156.472C172.809 152.102 174.593 147.565 176.269 143.015C177.153 139.565 178.211 136.161 179.438 132.816C182.12 127.343 177.258 115.463 171.782 114.341C166.181 113.194 160.517 112.321 154.904 111.221C152.708 111.009 150.57 110.395 148.597 109.409C143.533 105.76 137.564 103.571 131.342 103.083C125.869 103.026 120.397 103.294 114.956 103.885C114.116 103.951 113.319 105.044 112.393 105.745C119.064 112.853 125.704 119.569 131.918 126.664C136.561 131.965 140.655 137.754 144.994 143.326C144.807 143.501 144.62 143.676 144.433 143.85C140.148 138.854 136.071 133.658 131.529 128.909C125.196 122.29 118.566 115.953 111.91 109.655C111.226 109.009 108.709 108.968 108.391 109.472C104.889 114.6 103.082 120.695 103.223 126.902C103.363 130.543 106.015 131.272 107.782 133.097C114.182 139.713 120.648 146.266 127.089 152.842L128.218 151.726C120.747 144.115 113.229 136.549 105.852 128.848C104.752 127.383 103.833 125.789 103.117 124.103L104.344 123.251C105.307 124.619 106.27 125.987 107.233 127.355C106.883 123.438 106.883 123.438 109.827 123.362ZM150.199 198.355L136.696 186.442L135.771 187.53C140.846 193.08 145.921 198.631 151.236 204.443L151.219 194.421L150.546 194.443L150.199 198.355ZM125.286 156.692C119.33 151.162 113.375 145.631 107.091 139.796C110.213 148.729 117.667 152.737 125.286 156.692ZM147.232 190.327L133.192 174.832C133.336 179.994 141.658 189.138 147.232 190.327ZM151.06 209.546L150.158 210.276C145.746 205.94 141.334 201.604 136.922 197.267L136.454 197.727C140.789 202.534 145.123 207.34 149.664 212.376L151.06 209.546ZM137.233 192.301L136.367 193.104C140.541 197.596 144.716 202.087 148.89 206.579L149.573 205.937L137.233 192.301ZM147.167 176.915C148.882 180.412 150.301 183.306 152.058 186.888C152.421 184.031 152.702 181.821 152.96 179.79L147.167 176.915ZM127.845 158.933L127.193 159.482C130.558 163.826 133.922 168.17 137.287 172.515L138.029 171.917L127.845 158.933Z" fill="#41B37E" fill-opacity="0.5"/>
<path d="M78.5889 87.8492C74.2536 80.2347 69.9204 72.6189 65.5894 65.0019C64.9501 64.0303 64.4373 62.9812 64.0634 61.8798C63.9646 60.944 64.0077 59.9986 64.1913 59.0757C65.1365 59.5478 66.4768 59.7663 66.9539 60.5385C68.5069 63.0521 69.6171 65.8467 71.1285 68.3903C74.6049 74.241 78.2384 79.9944 81.7424 85.8283C82.0187 86.6599 82.1631 87.5296 82.1705 88.4058L78.9749 88.2237C78.847 88.0981 78.7183 87.9733 78.5889 87.8492Z" fill="#41B37E" fill-opacity="0.5"/>
<path d="M178.502 201.971C180.805 204.749 182.487 206.778 184.412 209.099C180.501 209.863 178.14 207.226 178.502 201.971Z" fill="#41B37E" fill-opacity="0.5"/>
<path d="M156.268 117.847C162.658 124.97 169.047 132.093 175.855 139.682L172.174 139.817C171.155 142.642 170.144 142.843 167.941 140.319C163.772 135.547 159.69 130.699 155.504 125.942C152.601 122.642 149.536 119.487 146.647 116.175C145.741 114.975 144.927 113.708 144.213 112.385L145.647 111.275L166.892 135.291C164.851 128.456 157.674 125.307 154.857 119.016L156.268 117.847Z" fill="#41B37E" fill-opacity="0.5"/>
<path d="M154.931 165.013C152.496 162.43 149.927 159.96 147.65 157.243C139.925 148.027 132.447 138.599 124.58 129.511C120.965 125.335 116.623 121.802 112.713 117.876C112.119 117.008 111.678 116.045 111.409 115.028C112.534 115.212 114.097 114.983 114.715 115.644C120.993 122.359 127.215 129.134 133.26 136.062C140.31 144.142 147.181 152.381 154.089 160.585C154.913 161.686 155.667 162.837 156.349 164.031L154.931 165.013Z" fill="#41B37E" fill-opacity="0.5"/>
<path d="M124.429 108.777C125.46 109.024 126.805 108.937 127.472 109.567C134.401 116.115 141.54 122.481 147.984 129.489C155.317 137.464 162.006 146.037 168.949 154.372C169.226 154.704 169.242 155.257 168.694 156.51C167.416 155.762 166.23 154.868 165.159 153.845C158.452 145.799 151.894 137.627 145.192 129.577C139.974 122.642 133.534 116.717 126.189 112.096C125.29 111.587 124.466 110.95 123.607 110.372L124.429 108.777Z" fill="#41B37E" fill-opacity="0.5"/>
<path d="M135.568 109.214L172.356 151.695L171.964 152.673C170.765 152.27 169.644 151.664 168.649 150.882C162.929 144.37 157.435 137.657 151.675 131.182C146.873 125.783 141.753 120.672 136.896 115.321C135.729 113.803 134.696 112.187 133.809 110.49L135.568 109.214Z" fill="#41B37E" fill-opacity="0.5"/>
<path d="M177.914 128.863C176.092 128.761 174.583 128.707 173.084 128.576C172.572 128.582 172.072 128.421 171.658 128.118C168.346 124.619 165.086 121.07 161.559 117.261C167.498 116.807 178.026 124.904 177.914 128.863Z" fill="#41B37E" fill-opacity="0.5"/>
<path d="M144.994 143.326C147.722 146.595 150.367 149.939 153.204 153.109C155.695 155.89 158.417 158.461 161.002 161.158C161.313 161.462 161.553 161.831 161.706 162.238C161.858 162.645 161.92 163.08 161.887 163.514C154.863 158.138 148.938 151.462 144.434 143.85C144.621 143.675 144.807 143.501 144.994 143.326Z" fill="#41B37E" fill-opacity="0.5"/>
</svg>
