<svg width="100" height="100" viewBox="0 0 100 100" fill="none" xmlns="http://www.w3.org/2000/svg">
<path d="M76.3703 23.5428C75.8887 20.4799 74.6343 17.5902 72.7258 15.1466C70.8328 12.7129 68.0574 10.9063 65.5238 9.02902C59.5609 4.62478 52.1314 2.68494 44.7765 3.6119C44.7285 3.61673 44.6785 3.61941 44.6303 3.6239C43.5441 3.74774 42.4614 3.89251 41.3949 4.11261C39.5059 4.5025 37.7304 5.25354 35.8867 5.80273C32.7015 7.82446 29.8111 10.2768 27.2974 13.09C22.8756 18.1722 22.4622 24.8746 22.9044 31.224C23.4855 39.5674 26.7379 46.9848 34.1862 51.8784C35.0747 52.3903 35.8195 53.118 36.3519 53.9943C36.8843 54.8706 37.1869 55.8671 37.2317 56.8914C37.5739 63.9545 37.7925 71.0232 38.2656 78.0796C38.3988 80.4989 38.9114 82.8823 39.7849 85.1424C40.7226 87.2744 41.3021 89.5464 41.4999 91.8671C41.7226 95.2578 42.4651 95.9896 45.7921 96.364C48.2815 96.5746 50.7814 96.6322 53.2779 96.5364C55.4928 96.5118 56.4608 95.3677 56.1901 93.0852C55.819 89.9557 56.1278 87.0508 58.3209 84.4724C59.2175 83.2302 59.7219 81.7482 59.7693 80.217C60.2192 73.4745 61.0408 66.6878 60.5965 59.9722C60.3002 55.4942 61.839 53.2211 65.1688 50.8771C71.2462 46.5988 75.8315 41.3571 76.553 34.0444C76.7039 33.5289 76.82 33.0038 76.9004 32.4728C77.4521 29.4973 77.2702 26.4321 76.3703 23.5428ZM51.6605 93.1954C49.9875 93.4219 48.2896 93.3883 46.6269 93.0957C45.993 92.9912 46.3272 90.8189 47.0457 90.5581C47.3139 90.5329 47.5823 90.6045 47.8024 90.76C48.7991 90.5164 49.8159 90.3646 50.8403 90.3065C51.5475 90.3223 52.199 93.1142 51.6605 93.1954ZM47.2877 87.5617C44.72 87.0337 44.086 86.1035 43.5871 82.0262H56.0735C53.934 86.1805 50.506 88.2235 47.2877 87.5617ZM54.6687 78.5782C51.0662 78.8136 47.4507 78.7585 43.8571 78.4135C41.9386 78.2394 41.7245 77.5512 41.9192 75.1264C47.0084 76.4909 51.948 76.9655 56.7863 75.1357C58.0685 77.8227 55.843 78.4947 54.6687 78.5782ZM46.6333 42.3325C47.0452 42.2948 47.9064 42.216 49.3609 42.0831C48.9843 52.3676 48.6158 62.4308 48.2473 72.4941C47.8848 72.4883 46.8115 52.536 46.6333 42.3325ZM70.1568 41.8562C66.8003 45.8524 62.6745 49.1329 58.0248 51.5027C57.6923 51.7526 57.4191 52.0727 57.2245 52.4403C57.03 52.8079 56.9188 53.2138 56.899 53.6292C56.7235 59.2697 56.8535 64.9332 56.415 70.5444C56.345 71.4408 53.9248 72.1424 52.5259 72.7991C51.9804 72.308 51.5949 71.6646 51.419 70.952C51.6772 61.5523 52.0147 52.1564 52.4317 42.7645C52.464 42.0473 53.2526 41.3442 53.7671 40.6963C55.1921 38.9021 56.7664 37.2174 58.0751 35.3433C58.5645 34.6189 58.7534 33.7327 58.6019 32.8717C58.4504 32.0107 57.9704 31.2421 57.2631 30.7283C55.9174 29.6526 53.7711 28.556 52.3597 28.9097C51.1645 29.2091 50.1904 31.4621 49.7159 33.0397C49.3263 34.9274 49.1255 36.8491 49.1164 38.7766C45.5282 39.7468 45.2937 39.5328 44.3537 35.9322C43.6742 33.3298 42.8547 30.7437 40.0907 29.3992C37.4483 28.1139 35.6173 29.2225 35.6754 32.1038C35.6156 34.0302 36.1329 35.9306 37.1607 37.561C38.1885 39.1914 39.68 40.4776 41.4439 41.2544C41.9839 41.6144 42.4405 42.086 42.7829 42.6373C43.1253 43.1887 43.3456 43.807 43.4289 44.4506C43.9919 51.5689 44.3313 58.7015 44.7032 65.8308C44.8125 67.924 44.7876 70.022 44.822 71.9877C41.8088 73.2221 41.2984 71.3443 41.149 69.5452C40.6705 65.4324 40.4786 61.2913 40.5748 57.1519C40.7589 53.927 30.7203 46.0121 30.327 43.093C31.0856 43.3602 31.8848 43.4938 32.6891 43.4878C33.3207 43.3395 34.2179 42.7518 34.2837 42.2505C34.2595 41.8897 34.1465 41.5405 33.9547 41.2338C33.7629 40.9272 33.4984 40.6728 33.1845 40.4931C32.2586 40.1751 31.273 40.0693 30.3006 40.1836C28.316 40.3224 27.4014 39.5261 27.5738 37.3286C28.6141 37.4545 29.667 37.4324 30.7012 37.263C31.5926 36.8314 32.4113 36.2634 33.1276 35.5794C32.3628 35.0452 31.5392 34.6005 30.673 34.2542C29.8694 34.1297 29.0506 34.1422 28.2512 34.291C26.3501 34.4377 25.8455 33.3158 25.837 31.7102C25.8267 29.7727 27.2302 30.097 28.4258 30.1437C28.9078 30.1626 29.4874 30.5213 29.8462 30.3553C30.536 29.9591 31.1828 29.4922 31.7762 28.9623C31.1382 28.4077 30.5722 27.5592 29.8447 27.3686C28.698 27.206 27.5358 27.1824 26.3834 27.2986C26.2859 26.3779 26.2035 25.7586 26.1579 25.1371C26.0442 23.5909 26.4999 22.7829 28.2712 23.3519C29.032 23.6439 29.8607 23.7107 30.6584 23.5443C31.4187 23.1604 32.11 22.6532 32.7042 22.0431C32.0453 21.5631 31.4419 20.8412 30.7141 20.6628C29.6385 20.521 28.5502 20.501 27.4701 20.6034C27.5376 18.6243 28.0988 17.6674 29.9156 17.8222C30.8826 17.9582 31.8642 17.9543 32.8302 17.8105C33.5681 17.5325 34.2586 17.1422 34.8773 16.6533C34.2966 16.0028 33.6452 15.4189 32.9353 14.9124C32.3259 14.715 31.6842 14.6368 31.0451 14.682L30.7591 14.0587C30.7712 14.0531 30.797 14.0381 30.8109 14.0311C30.7857 13.9279 30.7858 13.8201 30.8114 13.717C30.8369 13.6139 30.887 13.5185 30.9575 13.439C33.7632 10.2147 37.6877 8.17486 41.9388 7.73129C42.3442 7.54755 42.7703 7.41342 43.2078 7.33181C54.3489 5.90866 63.6026 9.24142 70.7563 18.4303C74.5664 23.3241 74.813 36.3622 70.1568 41.8562ZM52.1884 37.6558C52.5663 35.3496 52.8749 33.4666 53.1835 31.5836L54.1275 31.3863C54.6137 32.1527 55.4302 32.8879 55.5201 33.6918C55.7347 35.6113 54.6632 36.8587 52.1884 37.6558ZM42.1505 37.3462C39.3299 36.6909 38.7883 35.6442 39.1182 32.1933C39.387 32.0965 39.6558 31.9997 39.9247 31.9028C40.6353 33.6407 41.3459 35.3786 42.1505 37.3462Z" fill="#2E564B"/>
<path d="M64.6504 15.9573C63.9084 15.473 62.2578 17.5671 62.9086 18.1768C66.275 21.3301 68.5892 24.7297 67.0404 29.5712C66.9797 29.833 66.9814 30.1054 67.0451 30.3665C67.1088 30.6276 67.2328 30.8702 67.4072 31.0747C67.6319 31.1985 67.8848 31.2623 68.1414 31.2599C68.398 31.2575 68.6496 31.189 68.872 31.061C69.3474 30.3799 69.7749 29.6667 70.1515 28.9264C70.3582 27.7898 70.4282 26.6325 70.36 25.4792C69.5694 21.558 68.1484 18.24 64.6504 15.9573Z" fill="#2E564B"/>
<path d="M66.0679 36.3396C65.1372 37.6062 64.2901 38.9323 63.5322 40.3093C63.1989 40.9604 65.0467 42.895 65.3492 42.5288C66.827 40.7838 68.1393 38.9052 69.2692 36.9171C69.5278 36.4477 66.5042 35.7076 66.0679 36.3396Z" fill="#2E564B"/>
</svg>
