<svg width="100" height="100" viewBox="0 0 100 100" fill="none" xmlns="http://www.w3.org/2000/svg">
<path d="M47.0336 92.404C47.2642 88.902 47.2506 85.9073 45.503 83.0958C43.8486 80.4341 42.5303 77.566 40.9848 74.8335C39.1955 71.4842 38.3809 67.7005 38.6334 63.9117C38.7504 59.64 37.5388 17.1265 36.7999 13.2597C36.33 10.8004 36.6177 9.36722 38.8223 8.19516C39.7907 7.59056 40.6443 6.81927 41.3438 5.917C43.3223 3.6532 46.0191 4.22448 48.5042 4.03373C49.9314 3.92417 51.3795 4.12053 52.8149 4.07499C55.2101 3.99899 56.6087 5.84699 58.3767 6.93016C60.1173 8.03578 61.762 9.28563 63.2933 10.6665C63.7527 11.068 62.4783 43.9667 62.4026 51.5894C62.3679 55.0829 61.746 63.9434 61.938 64.8467C62.6175 68.0438 61.2543 70.63 59.7305 73.2684C57.5371 77.0661 55.5505 80.9826 53.4386 84.828C52.045 87.3655 52.0932 90.1705 51.8172 92.9203C51.7965 93.1273 51.777 93.3344 51.7622 93.5419C51.6876 94.5928 51.6711 95.7193 50.3282 95.9724C49.6543 95.9994 48.9902 95.8041 48.438 95.4167C47.8859 95.0294 47.4763 94.4713 47.2722 93.8284C47.1678 93.3581 47.0881 92.8827 47.0336 92.404ZM52.5057 72.2136C52.6979 71.2497 52.8038 70.2706 52.8219 69.2879C52.5639 64.5012 52.2261 43.9946 52.289 42.7153C52.3997 40.4661 52.6568 27.9721 52.5676 23.9701C52.5423 22.8337 52.4496 21.6988 52.419 20.5624C52.4285 20.3539 52.3952 20.1457 52.3211 19.9506C52.247 19.7555 52.1336 19.5776 51.988 19.4281C51.8425 19.2785 51.6678 19.1604 51.4747 19.0811C51.2817 19.0017 51.0744 18.9628 50.8658 18.9667C49.5892 18.8071 48.3134 18.6339 47.0326 18.5178C46.0993 18.4332 45.608 18.8579 45.5981 19.8575C45.5616 23.5688 45.4451 27.2798 45.4471 30.9908C45.4492 34.9014 45.5519 38.8119 45.6116 42.7224C45.6698 46.5348 45.7291 50.3471 45.7894 54.1594C45.8827 59.6302 46.0032 65.1007 46.0654 70.5718C46.0779 71.6706 46.4312 72.2083 47.5887 72.1838C49.1342 72.1512 50.6814 72.1984 52.5057 72.2137V72.2136ZM59.8677 15.3744C56.3994 16.1507 54.4217 19.1617 54.793 22.8388C54.8556 23.3452 54.8861 23.855 54.8843 24.3652C54.7089 31.0352 54.5167 37.7047 54.3425 44.3747C54.316 45.3916 54.3489 46.4105 54.3721 47.428C54.4401 50.4221 54.5212 53.416 54.5896 56.41C54.6764 60.2128 54.7441 64.0161 54.8469 67.8185C54.8707 68.7017 55.0027 69.5821 55.1032 70.6598C56.6142 69.643 57.8526 68.8722 59.0073 67.9918C59.3341 67.6616 59.5275 67.2224 59.5505 66.7584C59.6532 65.612 59.6775 64.4552 59.6702 63.3029C59.6408 58.6272 59.5564 53.9518 59.5531 49.2762C59.5503 45.4472 59.6388 41.6182 59.6774 37.789C59.7175 33.8168 59.7517 29.8445 59.7799 25.8722C59.809 22.4183 59.8377 18.9644 59.8677 15.3745V15.3744ZM43.9192 69.4204C43.9867 69.2462 44.0346 69.0649 44.0619 68.8801C44.0079 64.542 43.9173 60.2042 43.8945 55.866C43.8725 51.7058 43.9836 47.5443 43.9172 43.3853C43.8597 39.7867 43.5897 36.1919 43.4957 32.5933C43.3745 27.953 43.3543 23.3101 43.2493 18.6693C43.2148 17.1466 41.0818 14.6611 39.3441 14.0779C39.3413 14.413 39.32 14.7102 39.3392 15.0048C39.5961 18.9499 39.958 22.8911 40.0954 26.8402C40.2808 32.1699 40.2686 37.5061 40.3881 42.8385C40.562 50.5954 40.7765 58.3515 40.9761 66.1078C41.0374 68.4851 41.3492 68.8441 43.9192 69.4205V69.4204ZM53.8462 16.741C54.0833 16.6851 54.3027 16.5707 54.4842 16.4081C56.1073 14.9247 57.6887 13.3958 59.3046 11.9043C59.9382 11.3193 60.035 10.8497 59.2462 10.3056C58.4813 9.77807 57.8023 9.1263 57.0382 8.59759C55.9375 7.836 54.8702 6.73352 53.6512 6.50294C51.6924 6.25873 49.7134 6.22119 47.7468 6.39094C45.4208 6.45227 43.2163 6.84116 41.7022 8.93402C41.1137 9.74753 40.366 10.3495 41.3474 11.4421C42.4798 12.7028 43.4157 14.1381 44.4937 15.451C44.7779 15.742 45.1558 15.9229 45.5606 15.9618C48.1655 16.2359 50.7758 16.4591 53.8462 16.741ZM42.1284 71.6365L41.8703 71.8104C42.5046 72.903 43.1772 73.9754 43.7657 75.0922C45.2369 77.8842 46.6845 80.6885 48.1085 83.5052C48.3029 83.9029 48.6348 84.2165 49.0429 84.388C49.4509 84.5595 49.9073 84.5772 50.3274 84.4377C50.62 84.3711 50.8963 84.2466 51.1401 84.0716C51.3838 83.8966 51.5902 83.6747 51.7469 83.4188C53.4444 79.9633 55.0486 76.462 56.8403 72.6376C56.3027 72.8907 55.7919 73.1972 55.3156 73.5526C54.8424 74.0664 54.2471 74.4524 53.5849 74.6748C52.9227 74.8972 52.2151 74.9488 51.5277 74.8248C50.2898 74.7082 49.0418 74.7638 47.8193 74.99C47.0872 75.176 46.3161 75.1376 45.6062 74.8798C44.8962 74.622 44.2801 74.1567 43.838 73.5443C43.3047 72.8765 42.734 72.2395 42.1284 71.6365Z" fill="#2E564B"/>
<path d="M49.0196 8.22754C50.8539 8.17003 52.627 8.09803 53.5454 10.2674C54.4991 12.5199 54.0394 12.7914 52.2004 13.2068C50.1729 13.5601 48.0934 13.477 46.1006 12.963C45.3189 12.7912 44.1306 11.0275 44.351 10.4917C44.7464 9.53071 46.0012 8.83108 47.0294 8.26107C47.5414 7.97715 48.3469 8.22192 49.0196 8.22754Z" fill="#2E564B"/>
</svg>
