<svg width="35" height="36" viewBox="0 0 35 36" fill="none" xmlns="http://www.w3.org/2000/svg">
<path fill-rule="evenodd" clip-rule="evenodd" d="M31.9811 9.87252C30.2406 7.51055 27.8163 5.72367 25.2469 3.95732C22.6568 2.19098 19.901 0.424637 16.9379 0.0754758C13.9749 -0.294224 10.7839 0.73272 7.86229 2.31421C4.91996 3.87517 2.24699 5.97014 1.00375 8.70181C-0.0653131 11.0906 -0.0252047 13.9663 0.0155645 16.8893C0.0214164 17.3089 0.027282 17.7295 0.0298829 18.1497C0.0298829 18.5359 0.0271261 18.922 0.0243789 19.3068C0.00330939 22.2581 -0.0171909 25.1297 1.21096 27.31C2.59924 29.7747 5.5623 31.3562 8.48391 32.8966C11.4055 34.437 14.265 35.9364 17.1866 35.998C20.0875 36.0596 23.0298 34.704 25.7857 33.0404C28.5208 31.3973 31.0487 29.4872 32.6856 26.9609C34.3226 24.4141 35.0685 21.2921 34.9235 18.2318C34.7577 15.1921 33.701 12.2345 31.9811 9.87252ZM5.19961 17.9999L11.4996 24.2999L27.3996 8.39989L29.4996 10.4999L11.4996 28.4999L3.09961 20.0999L5.19961 17.9999Z" fill="#2E564B"/>
</svg>
