<svg width="100" height="100" viewBox="0 0 100 100" fill="none" xmlns="http://www.w3.org/2000/svg">
<path d="M90.7622 26.5305C88.3769 25.9789 86.0528 25.1901 83.8244 24.176C79.1009 21.9137 63.7291 13.8841 60.678 12.3177C59.6589 11.7945 52.6002 8.95218 50.3466 7.6226C48.5672 6.57285 47.5284 5.04966 45.1884 7.0906C42.79 9.18244 39.7179 10.5081 36.9207 12.135C32.8853 14.482 28.84 16.812 24.7848 19.125C20.6261 21.5012 16.4353 23.8218 12.2986 26.2355C10.9214 27.0391 9.66832 28.0554 8.00879 29.2199C13.9454 33.2474 19.468 36.9939 24.7914 40.6053C24.6632 41.4286 24.579 42.2582 24.5391 43.0906C24.5667 46.3167 24.7807 49.548 24.6513 52.7664C24.5682 54.8349 25.3333 56.8749 27.3148 57.4945C30.5138 58.495 33.7604 59.383 37.0378 60.0787C39.4369 60.5984 41.8802 60.8881 44.3344 60.9438C46.6296 60.984 58.4518 61.9233 62.1458 61.6111C64.957 61.3146 67.7414 60.804 70.4749 60.0838C72.7398 59.6275 74.937 58.8829 77.0126 57.8681C77.6028 57.4882 78.1043 56.9857 78.483 56.3948C78.8617 55.8039 79.1088 55.1383 79.2074 54.4434C79.3991 51.3415 79.0275 48.2057 78.9179 45.0823C78.9154 45.0091 78.3256 39.5347 78.2986 39.3647L79.0252 39.2347C79.0497 39.3488 80.1802 45.7303 80.1909 47.0358C80.1922 47.1913 80.8147 54.6352 80.7366 57.3677C80.6505 60.3783 81.8789 63.6617 79.3246 66.3068C79.2202 66.4151 79.2334 66.6601 79.2323 66.8417C79.3114 68.5214 79.2971 70.2043 79.1895 71.8825C78.5636 77.1831 77.7347 82.4602 77.1405 87.7639C76.9759 89.4507 77.0609 91.1526 77.3928 92.8146C77.8183 95.0612 84.1502 93.1056 85.8628 93.5258C86.0025 93.5601 86.5758 92.6557 86.6009 92.1696C86.6722 90.7833 86.5777 89.3873 86.5238 87.996C86.4623 86.4101 86.2966 84.8244 86.3139 83.2402C86.3464 80.2838 86.4404 77.3914 85.3407 74.4988C84.6583 72.2156 84.1637 69.8803 83.862 67.5164C83.8028 67.2203 83.8663 66.7997 83.69 66.6429C82.3892 65.487 82.6626 63.9519 82.6238 62.4966C82.5415 59.4143 82.5402 56.3287 82.3968 53.2496C82.2278 49.6202 81.9918 45.9942 81.6888 42.3716C81.5279 40.4702 81.151 38.587 80.7841 36.1027C83.717 34.1068 86.838 31.9911 89.9478 29.8588C90.5288 29.5304 91.0504 29.1066 91.4908 28.6052C92.1496 27.6851 92.3809 26.936 90.7622 26.5305ZM79.9123 84.9453C79.8244 86.616 79.6894 88.2841 79.5751 89.9534L79.0039 89.9171C79.143 88.2175 79.2585 86.5155 79.4277 84.8188C79.5975 83.1163 79.8208 81.4191 80.1153 79.727C80.0495 81.4665 80.0037 83.2071 79.9123 84.9453ZM83.6753 77.4013L84.1119 77.3916L84.3868 90.0734L83.951 90.1168L83.6753 77.4013ZM16.1101 31.6603L14.2876 31.4202C14.292 31.227 14.2964 31.0339 14.3008 30.8407C14.7624 30.4898 15.2239 30.139 15.6854 29.7881C15.8719 29.8254 16.0584 29.8628 16.2449 29.9002L16.1101 31.6603ZM17.1365 28.8079C18.2458 27.6045 19.0733 27.9428 19.8133 29.2501C18.6844 30.3064 17.7667 30.5164 17.1365 28.8079ZM28.0872 55.401C25.8078 55.0588 27.8044 53.0654 26.7242 52.2605C28.2939 52.8604 28.7876 53.8896 28.0872 55.401ZM75.7779 54.4198C75.8946 52.6577 76.0115 50.8955 76.1386 48.9763C74.0542 48.6063 74.4896 50.5423 74.0555 51.5256C73.8062 52.0905 74.1338 52.8845 74.0016 53.5348C73.8132 54.0412 73.5466 54.515 73.2116 54.939C73.0168 54.8592 72.822 54.7795 72.6272 54.6997C72.7487 53.2365 72.8701 51.7733 72.9935 50.2864C70.9976 50.5757 70.8673 50.852 70.5757 55.1121C69.9577 55.326 69.3231 55.5456 68.5196 55.8237C68.5025 55.4308 68.4086 55.0449 68.2432 54.6881C67.9834 54.3793 67.617 54.1796 67.2167 54.1283C67.0554 54.1133 66.6999 54.6437 66.6795 54.9433C66.7154 55.8671 66.7001 56.7922 66.6339 57.7143C66.5415 58.2167 65.792 59.0655 65.6167 59.0011C64.9968 58.6882 64.433 58.2747 63.9483 57.7775C63.8849 57.7244 63.964 57.5274 63.9218 57.4184C63.6761 56.7842 63.4141 56.1564 63.1576 55.5264C62.7278 56.0077 62.298 56.4889 61.6288 57.2382C60.9925 57.1188 60.3481 57.0483 59.701 57.0271C58.9245 57.0818 58.1524 57.1876 57.3898 57.3438C56.25 55.8726 55.0888 56.1598 55.3762 57.9099C55.5344 58.5834 55.7378 59.2456 55.9849 59.8919C53.2716 60.4804 54.3427 56.9779 52.4067 57.3518C51.0577 57.3016 49.7066 57.2829 48.3602 57.1931C46.7405 56.9746 45.1078 56.866 43.4734 56.8681C42.9739 56.9035 42.5548 58.0757 42.0581 58.7856C41.6836 58.0443 41.2451 57.1764 40.5203 55.7418C40.0039 57.0031 39.706 57.7306 39.3582 58.5803C38.8829 57.3667 38.4047 56.1457 37.9803 55.0621C37.0872 55.4261 36.4462 55.9328 35.9865 55.802C35.572 55.684 35.3563 54.868 34.8408 54.0046C36.5313 54.2274 37.7087 54.3827 38.886 54.5379L39.1067 53.6645C38.4639 53.3265 37.7946 53.0416 37.1054 52.8127C35.399 52.3211 33.6582 51.9575 31.8976 51.7251C30.488 51.5905 30.2982 50.8694 30.3485 49.7675C30.4154 49.4043 30.4136 49.0318 30.3431 48.6693C30.1336 48.2401 29.8779 47.835 29.5805 47.4614C29.2653 47.8138 28.7659 48.1254 28.677 48.5278C28.599 49.2098 28.5999 49.8986 28.6796 50.5804C26.9015 49.9024 27.0003 49.907 27.0877 48.0201C27.1744 46.1488 27.0341 44.2671 26.9859 42.0433C30.2644 43.8841 33.464 45.5846 36.5652 47.4486C39.8163 49.4026 42.9731 51.5136 46.1712 53.5559C46.2844 53.6055 46.3888 53.6734 46.48 53.7569C49.2059 57.3815 51.613 54.8169 53.9956 53.3115C57.4937 51.1013 60.9216 48.7803 64.3854 46.5155C68.3222 43.9415 72.2655 41.3776 75.9751 38.9597C77.7971 44.0698 77.0062 49.2547 75.7779 54.4198ZM82.1843 84.8226L82.3037 90.3333L82.0893 90.3687C81.9382 88.7451 81.7772 87.1223 81.6474 85.497C81.6298 85.2762 81.7682 85.043 82.1842 84.8226H82.1843ZM78.4486 35.742C78.2171 35.8565 77.9643 35.9218 77.7063 35.9337C77.4482 35.9457 77.1905 35.904 76.9494 35.8114C73.3229 34.4543 69.7553 32.9327 66.0997 31.6631C63.2892 30.6648 60.4143 29.8581 57.4948 29.2486C55.5913 28.866 55.002 27.4196 54.4123 26.1174C53.5561 24.227 52.3854 23.0842 50.681 23.2742C47.6623 23.6108 46.5167 24.6082 46.3509 26.8405C46.1052 30.1447 47.4546 31.2434 49.4999 31.6348C50.6305 31.8511 51.9423 31.101 53.1766 30.8037C53.7008 30.5831 54.2671 30.4803 54.8354 30.5026C60.4675 31.9624 66.1029 33.4194 71.4023 35.9119C72.6095 36.4797 73.8892 36.8931 75.3981 37.4796C70.7243 40.3886 66.3468 43.0938 61.9899 45.8314C58.7272 47.8814 55.3857 49.8287 52.2763 52.0925C49.8207 53.8803 49.8505 53.1638 48.1047 51.3196C49.6653 50.3766 51.1856 49.4579 52.7058 48.5392C52.581 48.2918 52.4562 48.0444 52.3314 47.797C50.3343 48.5951 48.3373 49.3933 46.3404 50.1914L46.2219 49.801C46.6738 49.2163 47.1257 48.6316 47.5776 48.047L47.2768 47.5363L43.928 48.7907L43.7497 48.3531C44.2169 48.1516 44.6485 47.8762 45.0282 47.5377C45.2629 47.1136 45.4215 46.6518 45.4967 46.173C45.0761 46.1658 44.6566 46.2203 44.2518 46.3346C43.2506 46.785 42.3149 47.3879 41.2988 47.7941C40.9761 47.923 40.4819 47.6228 40.0663 47.519L40.184 47.0441L41.8285 47.1397C41.7325 47.0006 41.6366 46.8615 41.5407 46.7222C42.0618 46.1639 42.61 45.6279 43.0941 45.0392C43.3794 44.6446 43.6368 44.2305 43.8645 43.8C43.406 43.7389 42.9405 43.7543 42.4871 43.8456C41.5453 44.2124 40.6553 44.7118 39.6856 45.1862C39.7273 43.256 39.7273 43.256 37.5926 43.5721C37.2584 42.8699 37.0814 41.8481 36.6392 41.7163C35.9228 41.503 35.0323 41.8739 33.7452 42.0697C33.9951 41.8582 34.2325 41.6324 34.4562 41.3934C34.8361 40.8545 35.2032 40.3065 35.5748 39.7618C34.9258 39.7356 34.2763 39.7992 33.6447 39.9508C32.5677 40.3696 31.5832 41.0228 30.5135 41.4663C30.2092 41.5924 29.7442 41.331 29.2725 41.23C30.2898 40.444 31.2022 39.7392 32.1144 39.0343C32.0031 38.8239 31.8918 38.6135 31.7805 38.4031L28.4587 38.4751C29.225 37.6032 29.653 37.1161 30.081 36.6291L29.9576 36.13C29.3793 36.0454 28.7904 36.0695 28.2209 36.201C26.6497 36.9275 25.8562 36.5241 25.8238 34.8837L22.8524 34.0009C23.209 33.326 23.4402 32.8883 23.7067 32.3839C22.2805 32.1814 21.0619 32.0085 19.8433 31.8356L19.8325 31.0439L22.8498 30.5847C21.9398 29.514 21.0515 28.4687 20.1334 27.3883C21.138 24.8827 22.9954 28.895 24.0809 26.9416C22.3554 24.195 22.3548 24.1939 19.5478 25.7102C17.3444 26.9002 15.1548 28.117 12.9278 29.261C12.4963 29.3666 12.048 29.3846 11.6095 29.314L11.4181 28.7016L47.1026 8.29225C61.0444 14.9734 74.7283 21.5311 88.6214 28.1889C85.119 30.8056 81.8097 33.3094 78.4486 35.742Z" fill="#2E564B"/>
</svg>
