<svg width="281" height="281" viewBox="0 0 281 281" fill="none" xmlns="http://www.w3.org/2000/svg">
<path d="M184.143 143.233C184.564 145.302 184.539 147.437 184.07 149.495C183.601 151.554 182.698 153.489 181.422 155.171C179.259 157.702 176.376 159.513 173.158 160.365C169.633 161.446 165.972 162.016 162.285 162.057C159.566 161.93 156.864 161.548 154.216 160.919C153.723 160.844 153.227 160.789 152.658 160.716C152.86 164.88 153.216 168.915 153.214 172.944C153.211 178.777 154.477 220.055 154.538 226.873C154.554 228.635 155.024 229.333 156.631 229.804C161.756 231.309 166.826 233.011 171.958 234.49C175.005 235.39 178.102 236.111 181.233 236.648C183.33 236.993 184.291 235.5 183.212 233.635C182.327 232.153 181.221 230.815 179.933 229.666C178.057 228.178 176.512 226.316 175.396 224.198C174.28 222.08 173.618 219.753 173.451 217.365C173.358 215.007 174.483 214.116 176.386 215.542C178.693 217.484 180.843 219.604 182.816 221.883C183.541 222.762 184.217 223.681 184.841 224.634L186.096 217.166C185.177 217.219 184.857 217.22 184.542 217.258C180.488 217.743 178.276 215.47 179.427 211.574C179.789 210.734 179.864 209.798 179.641 208.911C179.418 208.024 178.91 207.235 178.195 206.665C175.577 204.125 175.868 202.385 178.855 200.528C179.559 200.195 180.163 199.681 180.605 199.039C181.047 198.397 181.311 197.65 181.37 196.873C181.885 192.403 186.005 191.393 189.706 194.509C190.32 195.113 191.148 195.45 192.01 195.445C192.931 195.178 193.911 195.2 194.819 195.508C195.726 195.815 196.518 196.393 197.087 197.165C197.714 197.823 198.117 198.662 198.24 199.562C198.363 200.463 198.2 201.379 197.773 202.181C197.445 202.965 197.021 203.708 196.563 204.624C196.908 204.863 197.284 205.053 197.681 205.189C199.497 205.508 201.19 206.115 201.45 208.19C201.427 209.48 201.021 210.735 200.286 211.795C199.55 212.856 198.517 213.675 197.316 214.149C196.487 214.372 195.761 214.874 195.259 215.571C193.154 219.175 193.203 219.204 188.731 218.241L188.179 222.181C189.911 221.062 191.707 220.044 193.558 219.135C194.674 218.852 195.827 218.741 196.976 218.805C197.159 219.721 197.166 220.664 196.998 221.583C196.313 223.786 195.177 225.823 193.663 227.564C192.149 229.305 190.29 230.712 188.203 231.696C187.08 232.159 186.683 234.602 186.303 236.222C187.112 236.954 188.111 237.443 189.186 237.633C193.384 238.173 197.604 238.521 201.819 238.892C203.435 239.104 205.026 239.47 206.572 239.986C204.603 240.933 202.468 241.489 200.287 241.621C195.989 241.202 191.7 240.545 187.398 240.343C179.228 239.809 171.209 237.882 163.688 234.647C160.895 233.776 158.037 233.13 155.141 232.714C156.728 238.03 152.9 238.424 149.835 239.705C145.214 241.411 140.163 241.569 135.444 240.156C134.438 239.921 133.538 239.36 132.882 238.562C132.327 237.721 131.497 237.1 130.535 236.804C129.572 236.507 128.536 236.554 127.605 236.936C123.175 238.175 119.043 240.346 114.166 240.118C108.908 239.892 103.643 239.934 98.3894 240.245C95.4189 240.41 87.725 241.542 86.8085 241.395C89.8574 239.546 93.2019 238.236 96.6955 237.522C100.593 236.995 101.396 236.299 101.366 232.303C101.35 230.197 101.588 228.159 98.8996 226.657C96.4433 224.993 94.3127 222.892 92.613 220.46C91.0709 218.367 90.0245 215.952 89.5527 213.395C89.0809 210.839 89.196 208.208 89.8895 205.703C90.2095 203.986 91.5959 204.414 92.6591 205.376C95.4772 207.927 98.281 210.494 101.2 213.155C102.677 210.39 104.193 207.453 105.817 204.579C106.218 203.87 107.116 202.78 107.534 202.889C108.006 203.022 108.445 203.25 108.824 203.56C109.203 203.87 109.514 204.255 109.737 204.691C111.281 208.579 111.271 212.912 109.71 216.794C108.703 219.43 107.316 221.904 105.593 224.138C102.791 227.568 104.66 231.253 104.564 234.826C104.634 235.51 104.792 236.182 105.034 236.825C114.35 238.672 122.821 235.168 131.791 232.792C131.998 228.716 132.327 224.209 132.43 219.693C132.539 214.875 132.641 210.041 132.372 205.229C132.009 198.745 131.104 192.28 130.772 185.795C130.42 178.896 130.588 171.981 130.307 165.077C129.991 157.33 129.426 149.589 128.954 141.583C126.536 142.254 124.006 142.425 121.52 142.085C122.054 141.484 122.649 140.941 123.296 140.465C126.589 138.523 130.549 137.478 132.339 134.073L130.033 130.299L130.601 129.582C132.843 130.259 135.071 130.986 137.329 131.597C139.707 132.454 142.312 132.441 144.682 131.561C146.434 130.863 149.448 129.391 151.748 132.525C153.122 134.396 155.814 135.274 157.801 136.752C158.667 137.53 159.451 138.396 160.139 139.335C158.61 141.398 153.474 138.726 152.42 138.231L151.672 138.69C152.265 144.222 152.464 149.789 152.267 155.35C152.218 156.092 152.442 156.827 152.896 157.416C153.35 158.005 154.004 158.409 154.734 158.55C157.975 159.775 161.501 160.036 164.887 159.301C167.753 158.814 170.589 158.159 173.379 157.339C175.207 156.85 176.855 155.841 178.121 154.434C179.387 153.027 180.217 151.282 180.51 149.412C180.634 148.589 180.858 144.176 180.86 143.076C180.864 140.444 182.455 139.855 184.655 140.31C192.641 141.96 197.709 138.179 201.704 131.834C203.949 128.307 205.286 124.28 205.595 120.111C205.905 115.942 205.178 111.761 203.48 107.942C202.99 106.662 203.192 105.135 202.742 103.832C201.309 100.536 198.776 97.8389 195.576 96.2016C192.016 93.9242 190.247 91.1217 191.028 87.9351C191.476 86.3784 192.275 84.9453 193.364 83.7465C197.335 79.1724 197.457 73.7879 196.574 68.2014C196.356 65.6314 195.749 63.1093 194.773 60.7217C193.343 57.7851 191.3 55.1889 188.783 53.1076C186.265 51.0263 183.331 49.5082 180.178 48.6553C178.486 48.2655 176.902 47.5016 175.544 46.4196C174.186 45.3377 173.087 43.9653 172.328 42.4031C171.441 39.8057 171.061 37.0618 171.21 34.321C170.908 25.6621 165.29 20.7096 158.762 16.4147C157.258 15.2465 155.482 14.4807 153.6 14.1898C151.719 13.8989 149.794 14.0924 148.008 14.752C143.191 16.5674 139.041 19.807 136.11 24.0395C134.639 26.3298 132.843 28.394 130.779 30.1674C128.257 32.2015 125.093 31.045 122.356 30.2602C118.757 29.0121 114.833 29.079 111.28 30.4488C108.356 31.6749 105.84 33.7062 104.025 36.3062C102.211 38.9062 101.172 41.9682 101.029 45.1357C101.051 48.7541 101.46 52.3762 101.507 55.9957C101.542 58.4005 100.797 60.7521 99.3833 62.6977C97.9696 64.6434 95.9631 66.0783 93.665 66.7874C91.4791 67.1939 89.3897 68.0099 87.5069 69.1923C85.478 70.9624 83.9045 73.1943 82.9191 75.7C81.1095 80.486 83.2862 85.0843 84.6009 89.7435C85.5269 93.0254 88.3471 96.1482 86.8278 99.7008C85.6813 101.503 84.2308 103.092 82.5408 104.398C81.9566 105.026 81.3051 105.588 80.598 106.073C75.897 109.12 75.4299 113.964 75.0185 118.971C74.7283 121.041 74.8503 123.149 75.3773 125.172C75.9043 127.195 76.826 129.094 78.0894 130.76C80.0676 132.762 82.2758 134.522 84.668 136.005C86.6182 137.464 88.6551 138.806 90.6058 140.265C91.3138 140.902 92.1711 141.35 93.0983 141.568C94.0255 141.786 94.9927 141.767 95.9103 141.511C97.6514 141.016 98.7487 141.592 98.8738 143.858C99.2047 149.848 105.658 156.473 111.62 157.823C116.025 158.588 120.556 158.072 124.677 156.337C125.386 156.097 126.346 156.569 127.191 156.711C126.821 157.478 126.636 158.686 126.045 158.925C124.524 159.428 122.958 159.784 121.369 159.989C111.341 161.935 103.496 158.727 98.4424 150.657C96.6118 147.199 93.6347 144.486 90.0222 142.985C85.948 141.031 82.1877 138.481 78.8652 135.418C76.2697 133.285 74.2838 130.503 73.1085 127.355C71.9331 124.208 71.6101 120.805 72.1719 117.493C72.367 115.792 72.6331 114.095 72.9762 112.42C73.4884 110.349 74.4141 108.402 75.6976 106.698C76.9812 104.993 78.5962 103.566 80.4455 102.501C81.771 101.648 82.7564 100.358 83.2307 98.855C83.705 97.3517 83.6385 95.7299 83.0426 94.2705C81.6879 90.0266 80.7778 85.6375 79.8468 81.2775C78.6384 75.6178 81.334 71.125 84.7104 67.202C86.3582 65.7208 88.4127 64.7684 90.608 64.4679C96.2887 63.256 99.0548 59.1847 98.4861 52.4154C97.6147 42.0437 99.3397 34.1716 108.667 28.413C110.842 27.1927 113.253 26.4543 115.739 26.2478C118.224 26.0414 120.724 26.3716 123.07 27.2162C128.488 28.8603 129.498 28.155 132.892 23.5334C137.657 17.0436 143.417 11.6373 152.049 11.2478C154.793 11.3467 157.467 12.1423 159.819 13.5596C165.601 16.5051 170.155 21.4003 172.676 27.3794C173.71 30.3888 174.245 33.5473 174.258 36.7295C174.544 41.9327 175.694 43.8191 180.728 45.4828C187.183 47.556 192.713 51.817 196.363 57.531C198.479 61.2861 199.669 65.4918 199.833 69.799C199.845 73.74 199.235 77.6582 198.027 81.4095C197.253 83.1971 196.235 84.869 195.002 86.3774C194.598 86.8871 194.309 87.4786 194.156 88.1108C194.003 88.7431 193.989 89.4011 194.115 90.0393C194.242 90.6775 194.505 91.2807 194.887 91.807C195.27 92.3333 195.762 92.7703 196.33 93.0877C199.113 95.1266 201.627 97.5083 203.814 100.176C206.012 103.238 207.564 106.715 208.375 110.395C209.185 114.076 209.237 117.883 208.527 121.585C207.608 127.429 205.118 132.914 201.325 137.454C199.512 139.86 197.04 141.69 194.208 142.721C191.377 143.751 188.308 143.94 185.372 143.263C184.963 143.224 184.552 143.214 184.143 143.233ZM133.458 186.951L134.196 186.947C134.473 184.001 134.645 181.036 135.098 178.119C135.219 177.344 136.201 176.716 136.787 176.021C137.079 176.884 137.281 177.775 137.391 178.679C137.117 182.322 137.188 185.982 137.601 189.612C138.527 193.82 138.833 198.141 138.508 202.438C138.45 203.221 137.699 203.94 137.269 204.689C136.734 203.946 136.335 203.114 136.09 202.232C135.929 200.166 136.161 198.078 136.039 196.007C135.874 194.573 135.62 193.15 135.278 191.748C134.824 194.864 134.66 198.016 134.788 201.163C134.932 206.085 135.201 211.005 135.397 215.926C135.655 222.392 135.818 228.863 136.231 235.322C136.361 235.852 136.618 236.343 136.98 236.752C137.342 237.16 137.798 237.475 138.309 237.668C142.483 238.284 146.745 237.814 150.685 236.304C151.109 236.168 151.476 235.262 151.515 234.683C151.777 230.822 152.126 226.954 152.1 223.085C152.05 215.316 151.832 207.544 151.567 199.776C151.476 197.117 151.038 194.463 150.698 191.236L148.763 194.067C148.567 192.955 148.407 192.317 148.349 191.671C148.052 188.413 147.703 185.154 147.556 181.89C147.698 180.993 148.005 180.131 148.463 179.346C148.921 180.074 149.663 180.763 149.783 181.538C150.128 183.759 150.22 186.015 150.467 188.917C151.645 185.047 150.664 164.311 149.294 161.96C149.145 162.85 148.935 163.728 148.665 164.588C148.26 165.493 147.807 166.375 147.307 167.231C146.776 166.281 146.405 165.249 146.209 164.179C146.185 158.089 146.295 152.001 146.434 145.915C146.547 144.86 146.754 143.816 147.053 142.797L149.638 144.005C149.374 142.231 149.217 140.443 149.168 138.65C149.23 136.245 147.996 135.365 145.869 135.279C143.29 135.176 140.71 135.114 138.131 135.074C137.713 135.062 137.302 135.173 136.948 135.394C135.846 136.328 134.674 137.177 133.443 137.933C132.755 138.186 132.178 138.673 131.813 139.31C131.449 139.946 131.32 140.69 131.45 141.412C131.67 143.645 131.908 145.879 132.051 148.117C132.375 153.151 132.645 158.188 132.937 163.223C133.923 161.28 134.465 159.143 134.524 156.965C134.507 154.114 133.973 151.258 133.709 148.4C133.671 147.543 133.677 146.684 133.727 145.827C134.592 146.336 136.025 146.693 136.219 147.381C137 149.838 137.449 152.388 137.556 154.964C137.58 159.265 134.386 163.501 137.61 167.924C137.814 168.203 136.922 169.272 136.54 169.974C135.95 169.633 135.404 169.221 134.914 168.747C134.373 167.95 133.895 167.111 133.486 166.239L133.458 186.951ZM92.2811 209.951C90.6266 214.882 95.5158 222.332 100.286 223.363C100.771 218.497 95.9326 210.392 92.2811 209.951ZM107.65 208.284C105.862 209.906 104.562 211.994 103.894 214.314C103.227 216.634 103.22 219.094 103.873 221.418C105.614 219.763 106.882 217.673 107.546 215.364C108.21 213.055 108.246 210.611 107.65 208.284ZM190.228 200.838L192.797 204.038C193.755 202.987 194.536 201.787 195.11 200.486C195.286 199.844 194.017 198.782 193.403 197.91C192.479 198.761 191.556 199.613 190.228 200.838H190.228ZM186.513 201.84L187.333 201.711C187.709 200.43 187.886 199.099 187.856 197.764C187.702 196.847 186.574 196.079 185.88 195.244C185.365 196.201 184.301 197.253 184.461 198.093C184.941 199.443 185.633 200.708 186.513 201.84H186.513ZM182.658 227.115C181.073 224.644 179.488 222.173 177.903 219.702C177.644 221.307 177.986 222.95 178.863 224.318C179.741 225.686 181.092 226.682 182.658 227.115H182.658ZM182.92 214.739C184.781 213.759 186.321 212.873 185.611 210.735C185.452 210.255 183.937 209.642 183.593 209.877C181.925 211.021 182.068 212.684 182.92 214.739H182.92ZM198.259 208.708C196.332 207.582 194.701 207.283 193.261 209.079C195.382 211.994 196.815 211.898 198.259 208.708H198.259ZM190.667 216.191C191.44 215.256 192.186 214.588 192.089 214.431C191.541 213.653 190.927 212.924 190.253 212.252C189.871 212.693 189.107 213.212 189.184 213.557C189.56 214.497 190.059 215.382 190.667 216.191H190.667ZM187.754 226.659C190.392 227.244 191.525 226.346 192.047 223.509L187.754 226.659ZM182.952 205.901L183.596 204.386L180.197 203.038C180.077 203.493 179.759 204.285 179.868 204.349C180.853 204.939 181.914 205.402 182.952 205.901L182.952 205.901Z" fill="#41B37E" fill-opacity="0.5"/>
<path d="M188.18 124.756C188.304 126.834 187.862 128.907 186.901 130.754C185.94 132.6 184.495 134.151 182.722 135.241C182.134 135.67 180.944 135.281 180.032 135.27C180.272 134.371 180.266 132.877 180.79 132.669C182.498 132.034 183.909 130.788 184.753 129.172C185.596 127.557 185.81 125.686 185.354 123.921C185.054 120.321 183.343 116.984 180.595 114.638C180.104 114.237 180.049 113.297 179.793 112.606C180.641 112.615 181.823 112.261 182.283 112.689C185.734 115.895 188.632 119.452 188.18 124.756Z" fill="#41B37E" fill-opacity="0.5"/>
<path d="M122.667 53.0905C123.455 47.6528 124.865 43.1399 128.818 39.906C130.559 38.8841 132.526 38.3081 134.543 38.2291C136.561 38.1501 138.566 38.5706 140.382 39.4533C140.888 39.8013 141.335 41.2553 141.115 41.4613C140.474 42.0458 139.638 42.3711 138.77 42.374C137.797 42.3234 136.86 41.5542 135.876 41.4499C130.378 40.8672 127.496 43.3398 125.989 49.8157C125.853 50.8293 125.651 51.8329 125.382 52.8197C124.994 53.5512 124.512 54.229 123.949 54.8357L122.667 53.0905Z" fill="#41B37E" fill-opacity="0.5"/>
<path d="M92.4904 122.344C92.2948 116.691 95.421 114.082 98.6101 111.64C99.1712 111.21 100.537 111.822 101.53 111.953C101.026 112.919 100.773 114.335 99.9735 114.775C99.0303 115.158 98.1732 115.726 97.4523 116.445C96.7315 117.164 96.1614 118.02 95.7756 118.962C95.3897 119.904 95.1958 120.914 95.2053 121.932C95.2147 122.95 95.4274 123.956 95.8306 124.891C96.309 126.146 98.024 126.933 99.1344 127.975C99.7677 128.569 100.325 129.245 100.917 129.884C100.094 130.202 99.1833 130.936 98.4632 130.771C96.6303 130.302 95.0235 129.198 93.9295 127.654C92.8355 126.111 92.3254 124.229 92.4904 122.344Z" fill="#41B37E" fill-opacity="0.5"/>
<path d="M105.554 83.64C105.909 81.9527 106.601 80.3545 107.589 78.9415C108.577 77.5284 109.84 76.3296 111.303 75.4172C112.224 74.656 113.27 74.06 114.395 73.6555C115.467 73.6954 116.52 73.9504 117.491 74.4053C116.913 75.1355 116.428 76.397 115.741 76.5057C114.275 76.795 112.906 77.4495 111.76 78.4086C110.614 79.3678 109.729 80.6005 109.186 81.9926C108.37 83.4636 108.072 85.1668 108.342 86.8276C108.612 88.4883 109.433 90.0098 110.673 91.1466C111.756 92.087 112.487 93.0526 111.365 94.0746C111.016 94.3928 109.303 93.7936 108.703 93.1558C106.471 90.5053 105.344 87.0984 105.554 83.64Z" fill="#41B37E" fill-opacity="0.5"/>
<path d="M170.124 76.7857C170.101 77.7943 169.921 78.7932 169.589 79.7458C168.974 80.6203 168.226 81.3933 167.372 82.0368C167.113 80.9197 166.33 79.5733 166.689 78.7266C167.389 77.3691 167.646 75.8266 167.426 74.3151C167.206 72.8036 166.519 71.3989 165.461 70.2974C163.24 68.4037 160.877 66.6839 158.392 65.1533C157.634 64.463 156.947 63.6986 156.342 62.8716C157.49 62.7942 158.891 62.2534 159.74 62.7261C162.322 64.142 164.763 65.8007 167.029 67.6798C169.708 69.934 169.932 73.2331 170.124 76.7857Z" fill="#41B37E" fill-opacity="0.5"/>
<path d="M139.046 75.3242C143.139 76.4354 146.277 82.5867 144.574 85.9655C143.069 88.6201 141.245 91.0809 139.143 93.2932C138.3 93.8477 137.272 94.0457 136.283 93.844C135.728 93.7852 135.243 92.9231 134.727 92.4224C135.205 92.032 135.624 91.4395 136.173 91.2827C141.27 89.8277 144.997 83.3292 139.75 78.3366C139.182 77.7962 139.303 76.5291 139.046 75.3242Z" fill="#41B37E" fill-opacity="0.5"/>
<path d="M154.342 106.53C154.544 107.471 155.109 108.514 154.89 109.337C154.057 111.742 154.007 114.348 154.746 116.784C155.485 119.219 156.975 121.359 159.004 122.896C159.55 123.367 159.492 124.541 159.715 125.39C158.787 125.401 157.273 125.766 157.027 125.366C155.244 122.565 153.671 119.636 152.321 116.603C151.747 115.311 151.441 113.915 151.42 112.501C151.399 111.086 151.664 109.682 152.199 108.373C152.552 107.686 152.966 107.033 153.438 106.422L154.342 106.53Z" fill="#41B37E" fill-opacity="0.5"/>
<path d="M131.039 114.407C131.085 116.29 130.531 118.14 129.456 119.687C128.382 121.235 126.843 122.401 125.062 123.017C124.292 123.273 123.646 124.068 122.891 124.138C121.948 124.089 121.017 123.899 120.13 123.575C120.432 122.8 120.867 122.084 121.416 121.46C122.167 121.064 122.973 120.783 123.808 120.628C124.743 120.383 125.607 119.92 126.327 119.275C127.047 118.63 127.603 117.822 127.948 116.919C128.294 116.016 128.419 115.044 128.313 114.083C128.207 113.122 127.873 112.2 127.339 111.394C127.009 110.719 127.172 109.087 127.549 108.93C127.809 108.767 128.107 108.676 128.414 108.667C128.721 108.659 129.024 108.733 129.292 108.881C129.56 109.03 129.784 109.248 129.939 109.512C130.094 109.776 130.176 110.078 130.175 110.384C130.412 111.911 130.821 113.414 131.039 114.407Z" fill="#41B37E" fill-opacity="0.5"/>
<path d="M106.286 251.685C108.609 252.38 110.556 253.024 112.536 253.528C113.599 253.799 114.744 253.73 115.808 254.001C116.454 254.264 117.062 254.616 117.612 255.046C117.106 255.556 116.595 256.509 116.095 256.495C114.349 256.602 112.6 256.335 110.965 255.712C109.515 255.028 107.92 254.706 106.318 254.774C104.715 254.842 103.153 255.297 101.766 256.101C101.135 256.561 100.05 256.406 99.1729 256.534C99.5072 255.628 99.5866 254.231 100.224 253.908C102.193 253.034 104.219 252.291 106.286 251.685Z" fill="#41B37E" fill-opacity="0.5"/>
<path d="M146.373 249.348C149.711 249.767 152.681 250.082 155.624 250.574C155.941 250.668 156.215 250.873 156.394 251.151C156.574 251.43 156.648 251.763 156.603 252.091C156.558 252.419 156.397 252.721 156.148 252.94C155.9 253.16 155.582 253.283 155.251 253.288C153.787 253.362 152.323 253.147 150.944 252.653C148.238 251.767 145.322 251.758 142.612 252.628C141.755 252.766 140.101 252.288 139.939 251.762C139.417 250.07 140.815 249.931 142.119 249.84C143.666 249.731 145.202 249.489 146.373 249.348Z" fill="#41B37E" fill-opacity="0.5"/>
<path d="M185.069 254.626C183.78 254.202 182.444 253.935 181.091 253.83C179.179 253.895 177.299 254.492 175.384 254.673C174.541 254.621 173.709 254.442 172.919 254.142C173.392 253.466 173.721 252.41 174.361 252.178C175.761 251.435 177.305 251.006 178.887 250.921C180.469 250.837 182.051 251.098 183.522 251.686C184.215 252.036 185.206 251.718 186.015 251.91C186.86 252.173 187.683 252.502 188.476 252.893C187.81 253.451 187.115 253.971 186.392 254.452C185.966 254.591 185.517 254.65 185.069 254.626Z" fill="#41B37E" fill-opacity="0.5"/>
<path d="M149.785 269.317C148.851 269.443 147.521 270.026 147.051 269.616C146.177 268.903 145.139 268.418 144.032 268.202C142.924 267.987 141.78 268.048 140.702 268.382C140.151 268.482 139.454 267.841 138.824 267.541C139.193 266.971 139.559 265.905 139.931 265.909C142.649 265.917 145.362 266.098 148.056 266.452C148.741 266.548 149.303 267.647 149.921 268.285L149.785 269.317Z" fill="#41B37E" fill-opacity="0.5"/>
<path d="M145.459 232.628C144.404 230.986 143.686 229.149 143.347 227.227C143.008 225.304 143.054 223.333 143.484 221.429C144.683 215.786 144.945 209.983 144.259 204.255C143.983 202.636 143.497 201.061 142.813 199.568C142.35 198.344 141.898 197.049 143.474 196.624C143.873 196.517 145.117 197.968 145.336 198.851C147.165 205.876 147.389 213.222 145.992 220.346C145.752 223.391 145.886 226.454 146.391 229.466C146.449 230.481 146.513 231.496 146.575 232.511L145.459 232.628Z" fill="#41B37E" fill-opacity="0.5"/>
<path d="M146.176 187.795C145.387 188.076 144.294 188.827 143.868 188.546C142.841 187.872 141.437 186.719 141.414 185.751C141.338 182.663 141.588 179.575 142.16 176.539C142.878 172.767 143.576 169.131 141.404 165.522C141.19 165.167 141.771 164.342 141.983 163.736C142.781 164.262 144.091 164.65 144.288 165.339C145.317 168.359 145.514 171.6 144.86 174.723C144.245 177.393 143.781 180.096 143.471 182.819C143.081 185.765 143.256 185.956 145.854 186.936L146.176 187.795Z" fill="#41B37E" fill-opacity="0.5"/>
<path d="M136.412 229.802C136.866 226.465 137.297 223.572 137.639 220.666C137.84 218.962 137.795 217.22 138.07 215.532C138.338 214.773 138.733 214.064 139.239 213.438C139.722 214.198 140.659 214.999 140.608 215.713C140.372 219.061 139.79 222.378 139.48 225.722C139.172 226.852 139.097 228.034 139.261 229.194C139.425 230.354 139.824 231.468 140.433 232.469C140.808 232.957 140.042 234.314 139.801 235.27C139.062 234.72 138.028 234.319 137.65 233.587C137.118 232.367 136.704 231.1 136.412 229.802Z" fill="#41B37E" fill-opacity="0.5"/>
<path d="M140.685 152.314C140.745 151.465 140.849 150.62 140.996 149.781C141.493 148.368 141.69 146.867 141.574 145.374C141.458 143.881 141.031 142.429 140.321 141.11C140.086 140.724 140.492 139.953 140.602 139.361C141.191 139.537 141.746 139.811 142.245 140.169C143.278 141.141 143.99 142.404 144.288 143.791C144.585 145.178 144.453 146.622 143.91 147.932C143.459 148.954 143.225 150.058 143.221 151.174C143.217 152.291 143.444 153.397 143.888 154.421C144.109 154.902 143.653 155.686 143.508 156.331C142.808 156.007 141.76 155.859 141.483 155.323C141.087 154.359 140.818 153.347 140.685 152.314Z" fill="#41B37E" fill-opacity="0.5"/>
<path d="M149.464 218.019C148.88 213.763 148.379 210.108 147.857 206.306C151.14 207.217 152.236 214.38 149.464 218.019Z" fill="#41B37E" fill-opacity="0.5"/>
</svg>
