<svg width="81" height="37" viewBox="0 0 81 37" fill="none" xmlns="http://www.w3.org/2000/svg">
<path d="M49.0302 7.66413C56.6317 8.16689 70.2595 4.07775 76.5081 4.31237C82.8212 4.58051 80.6954 9.10538 80.5021 13.5967C80.3089 18.0881 81.9838 34.2436 76.8946 35.5172C71.8055 36.7909 59.888 34.9139 52.4798 36.6904C45.136 38.4333 42.3015 32.132 36.5682 34.7463C30.8349 37.3607 22.1383 37.2266 15.5676 35.2156C9.06122 33.2045 3.94587 37.188 1.56236 33.3C-0.885568 29.3784 -0.528881 10.5131 3.14301 7.66413C6.75049 4.81514 6.2928 6.12232 11.0598 4.31237C15.8268 2.53594 25.6814 4.7481 28.5802 2.8376C31.4791 0.960615 35.4731 -0.983405 37.7278 0.558404C39.9824 2.10021 41.4932 7.16137 49.0302 7.66413Z" fill="white"/>
<path d="M24.6582 15.5938L25.5605 15.7715C25.7155 15.7715 25.9798 15.9036 26.3535 16.168H26.4082C26.4173 15.8125 26.4492 15.6348 26.5039 15.6348C26.7773 15.735 26.9414 15.7852 26.9961 15.7852H27.2695L27.4883 15.7715L27.5156 15.8125L27.502 15.8945V17.6445C27.502 17.7448 27.4701 17.8268 27.4062 17.8906C27.4792 17.9635 27.5156 18.0319 27.5156 18.0957C27.5156 18.1595 27.4883 18.237 27.4336 18.3281L27.4746 18.5605C27.4746 18.6699 27.4473 18.7246 27.3926 18.7246L27.0371 18.6699H27.0234L26.832 18.7246H26.8047C26.7682 18.7246 26.709 18.5286 26.627 18.1367C26.627 18.0091 26.5723 17.8952 26.4629 17.7949C26.3444 17.6217 26.2852 17.5033 26.2852 17.4395L26.3672 17.4121V17.3984C26.2305 17.2891 26.1484 17.166 26.1211 17.0293C25.7474 16.6556 25.4284 16.4688 25.1641 16.4688H25.0684C24.9681 16.4688 24.5124 16.5645 23.7012 16.7559C23.6283 16.8105 23.5098 16.9837 23.3457 17.2754C23.1725 17.5033 23.0859 17.722 23.0859 17.9316C23.1406 18.515 23.2135 18.8066 23.3047 18.8066C23.4232 19.1165 23.5645 19.3034 23.7285 19.3672C23.7559 19.4128 23.8652 19.4583 24.0566 19.5039C24.1842 19.6224 24.4531 19.7682 24.8633 19.9414C24.8633 19.9779 24.9089 20.0007 25 20.0098L25.1641 19.9551C25.237 19.9733 25.2734 19.9915 25.2734 20.0098V20.0234L25.2188 20.0781V20.1191C25.3464 20.2741 25.5013 20.3516 25.6836 20.3516V20.3379L25.4238 20.1191V20.1055C25.5059 20.1055 25.7975 20.265 26.2988 20.584C27.0553 21.2858 27.4336 21.7324 27.4336 21.9238C27.5612 22.4798 27.625 22.8262 27.625 22.9629C27.543 23.6556 27.4655 24.002 27.3926 24.002L27.0645 24.5762C26.4355 24.959 26.0664 25.1504 25.957 25.1504C24.9089 24.9225 24.2116 24.7402 23.8652 24.6035C23.1543 23.9382 22.7988 23.5462 22.7988 23.4277L22.7441 23.3867L22.7168 23.4004V23.4688V24.2344C22.7168 24.2982 22.5527 24.3301 22.2246 24.3301H21.9785L21.7734 24.3984C21.7096 24.3984 21.6276 24.3483 21.5273 24.248V24.2344L21.5957 24.125C21.6595 22.5938 21.737 21.8281 21.8281 21.8281H21.8555L22.1016 21.8691C22.1471 21.8691 22.1927 21.8555 22.2383 21.8281L22.416 21.8691L22.5117 21.8418H22.5664C22.6029 21.86 22.6849 21.9922 22.8125 22.2383C23.1589 22.6758 23.4688 23.0951 23.7422 23.4961C23.7786 23.4961 23.8926 23.6191 24.084 23.8652L24.9316 24.2344H25.1777V24.2891H25.2051L25.2734 24.248H25.3008C25.3737 24.3027 25.4421 24.3301 25.5059 24.3301H25.5879C25.834 24.321 25.957 24.2891 25.957 24.2344V24.207H25.6836L25.5195 24.1934C25.5286 24.1569 25.8522 24.0885 26.4902 23.9883C26.6361 23.9883 26.7773 23.7331 26.9141 23.2227C26.9141 23.0586 26.9551 22.9401 27.0371 22.8672V22.8125C26.8822 22.3294 26.709 22.015 26.5176 21.8691C26.4082 21.6777 25.9935 21.4544 25.2734 21.1992C24.7995 21.0169 24.4167 20.8027 24.125 20.5566C23.6966 20.429 23.4505 20.2878 23.3867 20.1328C23.332 20.0143 23.1224 19.8184 22.7578 19.5449C22.5938 19.0436 22.416 18.6562 22.2246 18.3828C22.1243 17.9818 22.0742 17.5579 22.0742 17.1113C22.1471 16.8105 22.4753 16.3958 23.0586 15.8672C23.3958 15.6849 23.929 15.5938 24.6582 15.5938ZM23.0586 16.0723H23.2227C23.2956 16.0723 23.6328 15.9948 24.2344 15.8398C24.4531 15.8034 24.5625 15.7669 24.5625 15.7305L24.5078 15.7168C23.5417 15.7988 23.0586 15.9173 23.0586 16.0723ZM26.668 15.8945L26.6543 15.9492V15.9902C26.6543 16.0449 26.6908 16.0723 26.7637 16.0723H26.9961V16.0586C26.9049 15.9492 26.7956 15.8945 26.668 15.8945ZM23.4688 16.5781H23.4961C23.5872 16.5781 23.8014 16.4961 24.1387 16.332L24.5078 16.1953V16.209L24.4668 16.291H24.5762L24.6582 16.2637V16.209L24.6309 16.168V16.0859H24.6035C24.2389 16.1953 23.9382 16.3092 23.7012 16.4277C23.5462 16.4551 23.4688 16.5052 23.4688 16.5781ZM25.7793 16.1953H25.5469C25.5469 16.2135 25.6836 16.2591 25.957 16.332H26.0254L26.0527 16.3184V16.291C26.0254 16.2272 25.9342 16.1953 25.7793 16.1953ZM26.7227 16.209L26.6953 16.2637V16.291L26.709 16.373H26.75L26.791 16.332V16.2637L26.75 16.209H26.7227ZM23.127 16.4004V16.4141C23.127 16.4414 23.1452 16.4551 23.1816 16.4551C23.2272 16.4368 23.2591 16.4049 23.2773 16.3594V16.332C23.1953 16.332 23.1452 16.3548 23.127 16.4004ZM26.2305 16.4688L26.2988 16.5371H26.3672L26.4082 16.4961V16.4551C26.4082 16.4277 26.3717 16.4004 26.2988 16.373C26.2533 16.3913 26.2305 16.4232 26.2305 16.4688ZM26.9277 16.6602L26.9688 16.6875V16.7012L26.9141 16.7695V16.8105C26.9141 16.8288 26.9505 16.8516 27.0234 16.8789C27.0417 16.9518 27.069 16.9928 27.1055 17.002H27.1465V16.9473L27.1328 16.9062V16.8516H27.1738L27.2422 16.9062H27.2695L27.2832 16.8242V16.7969C27.2194 16.5417 27.1738 16.4141 27.1465 16.4141H27.0645C26.9733 16.4505 26.9277 16.5326 26.9277 16.6602ZM23.0449 17.002L23.127 17.084H23.1543C23.2637 17.0658 23.3639 17.0065 23.4551 16.9062L23.4141 16.8789H23.2637C23.1634 16.8789 23.0905 16.9199 23.0449 17.002ZM22.4434 16.8926L22.4023 16.9336V16.9473H22.4707V16.8926H22.4434ZM22.8125 17.5352V17.5488H22.8398C23.0039 17.3939 23.0859 17.2572 23.0859 17.1387L23.0449 17.0977C22.9355 17.0977 22.8581 17.2435 22.8125 17.5352ZM27.2695 17.1387H27.2012V17.166C27.2285 17.2207 27.2559 17.248 27.2832 17.248V17.1934L27.2695 17.1387ZM27.1328 17.2344L27.0918 17.2754H27.1328V17.2344ZM26.9141 17.3027L26.8594 17.3438V17.3574L26.9141 17.4121H26.9688L27.0234 17.3574V17.3438L26.9688 17.3027H26.9141ZM27.2285 17.4395L27.1738 17.4805V17.5762L27.1875 17.6719H27.2285L27.2695 17.4395H27.2285ZM26.9414 17.6719H26.9141V17.6992L26.9414 17.7402H26.9961V17.6992L26.9414 17.6719ZM26.9004 18.041V18.2598L26.9277 18.2871H26.9414C27.0143 18.2871 27.0553 18.2552 27.0645 18.1914C27.0189 18.082 26.9961 17.9909 26.9961 17.918H26.9688C26.9232 17.9362 26.9004 17.9772 26.9004 18.041ZM26.9688 18.4785L26.9277 18.5195L26.9961 18.5605H27.0371L27.0508 18.5195L26.9961 18.4785H26.9688ZM22.7578 19.0664V19.1621L22.8125 19.2168H22.9219V19.1621C22.8581 19.0983 22.8034 19.0664 22.7578 19.0664ZM23.0176 19.4355H23.0039V19.5039C23.1953 19.6406 23.3229 19.709 23.3867 19.709H23.4414V19.6543C23.3138 19.5632 23.1725 19.4902 23.0176 19.4355ZM24.7266 19.9004H24.6035C24.6126 19.9368 24.6491 19.9551 24.7129 19.9551H24.7676V19.9414L24.7266 19.9004ZM24.8633 20.1055L24.8223 20.1328C24.8587 20.1875 25.0091 20.2741 25.2734 20.3926V20.3379C25.1458 20.2194 25.0091 20.1419 24.8633 20.1055ZM25.1777 20.9258H25.1094V20.9941C25.2279 21.0488 25.3737 21.0807 25.5469 21.0898C25.5469 21.1263 25.5788 21.1445 25.6426 21.1445H25.752V21.1309C25.752 21.0488 25.5605 20.9805 25.1777 20.9258ZM26.0938 21.2949H26.0527V21.3359L26.0938 21.377H26.1211V21.3359L26.0938 21.2949ZM21.9785 22.7031H21.9238C21.8783 22.8398 21.8555 23.013 21.8555 23.2227L21.8828 23.4004H21.8965C21.9785 23.4004 22.0195 23.3639 22.0195 23.291C21.9922 23.0814 21.9785 22.8854 21.9785 22.7031ZM22.2656 23.0996C22.2201 23.2546 22.1699 23.3548 22.1152 23.4004L22.1699 23.5508V23.9062V23.9883C22.1699 24.0521 22.1882 24.084 22.2246 24.084H22.3066L22.3477 24.043V23.9883C22.3477 23.3958 22.3203 23.0996 22.2656 23.0996ZM23.0176 23.4414H23.0039V23.4688C23.0404 23.6146 23.1087 23.6875 23.209 23.6875V23.6602C23.1452 23.5143 23.0814 23.4414 23.0176 23.4414ZM21.8965 23.7422L21.9238 23.7695H21.9375C21.9648 23.7695 21.9876 23.6784 22.0059 23.4961L21.9785 23.4688C21.9421 23.4688 21.9147 23.5599 21.8965 23.7422ZM23.4961 23.5645H23.4688V23.5781C23.5417 23.7148 23.6146 23.7832 23.6875 23.7832V23.7422C23.6146 23.6602 23.5508 23.6009 23.4961 23.5645ZM27.0371 23.7969L26.9688 23.8652L27.0234 23.9199H27.0918L27.1465 23.8652V23.8379L27.1055 23.7969H27.0371ZM24.3027 24.1113V24.125C24.321 24.1706 24.3529 24.1934 24.3984 24.1934C24.3802 24.1387 24.3483 24.1113 24.3027 24.1113ZM23.6465 24.1387L23.5508 24.125V24.1387C23.6419 24.3392 23.8698 24.4941 24.2344 24.6035C24.5352 24.7129 24.959 24.8268 25.5059 24.9453C25.6152 25.0182 25.7109 25.0592 25.793 25.0684H25.916C26.1439 25.0046 26.2578 24.9225 26.2578 24.8223L25.0273 24.7266C24.3073 24.4987 23.847 24.3027 23.6465 24.1387ZM26.0527 24.5352V24.5625L26.0938 24.5898H26.1621C26.4902 24.5898 26.6725 24.5443 26.709 24.4531L26.6543 24.4258H26.5723C26.472 24.4258 26.2988 24.4622 26.0527 24.5352ZM25.6426 24.877V24.8223H25.6699C25.7337 24.8223 25.7656 24.8405 25.7656 24.877H25.7246H25.6426ZM28.8418 18.0273H28.8555C29.1654 18.0273 29.4115 18.0911 29.5938 18.2188C29.7487 18.237 29.8262 18.2643 29.8262 18.3008V18.3281C29.6895 18.3281 29.6211 18.36 29.6211 18.4238C29.6484 18.4694 29.735 18.4967 29.8809 18.5059C29.8991 18.5514 29.9629 18.5879 30.0723 18.6152L30.4277 18.5879L30.5645 18.6289L31.6172 18.4102H31.6719C32.3555 18.5924 32.9707 18.8932 33.5176 19.3125C34.0918 19.8867 34.4245 20.3288 34.5156 20.6387C34.6068 20.9486 34.6523 21.1628 34.6523 21.2812C34.5247 22.3659 34.4154 22.9082 34.3242 22.9082C33.987 23.4551 33.7819 23.765 33.709 23.8379L33.5859 23.9473L33.627 23.9883V24.002C33.4629 24.2025 33.2943 24.3301 33.1211 24.3848C33.0299 24.4395 32.9798 24.5215 32.9707 24.6309C32.8431 24.7585 32.6289 24.8223 32.3281 24.8223C31.6719 25.0501 31.2207 25.1641 30.9746 25.1641C30.8743 25.1641 30.6784 25.0866 30.3867 24.9316C30.1315 24.8861 29.9128 24.8633 29.7305 24.8633L29.6484 24.918C29.7031 25.0182 29.7305 25.2598 29.7305 25.6426V25.8203L29.8262 26.4492L29.8398 27.4062V27.543C29.8398 27.7708 29.9219 27.8848 30.0859 27.8848L30.1816 27.9668V27.9805C30.1178 27.9805 30.0859 28.0124 30.0859 28.0762C30.2227 28.1947 30.291 28.3633 30.291 28.582L30.3594 28.8418C30.2044 28.8874 30.0404 28.9102 29.8672 28.9102L28.9102 28.8418C28.737 28.9694 28.6413 29.0332 28.623 29.0332C28.4225 28.9785 28.2266 28.7552 28.0352 28.3633L28.0215 28.3496L28.0352 28.2812C28.0898 28.263 28.1172 28.2493 28.1172 28.2402V28.2266C28.0534 28.1354 28.0215 28.0671 28.0215 28.0215L28.0352 27.9668H28.0762C28.0944 27.9668 28.1035 27.985 28.1035 28.0215H28.1172H28.1992L28.2266 28.0078V27.8438C28.2904 27.7526 28.3861 27.707 28.5137 27.707C28.5501 27.6706 28.5684 27.4473 28.5684 27.0371V26.0664C28.5684 25.8477 28.541 25.4329 28.4863 24.8223V19.6543L28.4727 19.2305H28.1172L28.0762 19.1758L28.0625 18.4238C28.0625 18.196 28.1764 18.082 28.4043 18.082C28.4499 18.0638 28.5957 18.0456 28.8418 18.0273ZM28.2266 18.2871C28.2266 18.3418 28.2493 18.3828 28.2949 18.4102H28.3633C28.4271 18.4102 28.4681 18.3828 28.4863 18.3281V18.2871C28.4681 18.2415 28.4271 18.2188 28.3633 18.2188H28.3359C28.263 18.2188 28.2266 18.2415 28.2266 18.2871ZM29.7031 18.5879L29.6758 18.6289V18.6699L29.7031 18.7109H29.7305L29.7578 18.6699V18.6289L29.7305 18.5879H29.7031ZM31.8223 18.5879H31.7949V18.6426C31.9043 18.6882 31.9954 18.7109 32.0684 18.7109H32.1504V18.6973C32.1504 18.6517 32.041 18.6152 31.8223 18.5879ZM28.4043 18.6152L28.3633 18.6426V18.7109C28.3633 18.7839 28.3997 18.8431 28.4727 18.8887H28.5L28.5137 18.793V18.752C28.5137 18.6699 28.5 18.6243 28.4727 18.6152H28.4043ZM30.0859 18.7793L30.127 18.793H30.1953L30.2363 18.752L30.209 18.7109H30.1953C30.1224 18.7292 30.0859 18.752 30.0859 18.7793ZM32.2871 18.7793V18.793C32.3783 18.9023 32.5013 18.9798 32.6562 19.0254H32.6973C32.6973 18.9069 32.5605 18.8249 32.2871 18.7793ZM30.9199 18.916C30.9199 18.9525 31.1068 18.9935 31.4805 19.0391C31.4805 19.0573 31.5215 19.0664 31.6035 19.0664H31.8086L31.8633 19.0254L31.8223 18.9844H31.7812L31.6172 19.0117L31.5488 18.9844V18.9707L31.6035 18.916V18.8477L31.4805 18.834H31.2617C31.0521 18.8431 30.9382 18.8704 30.9199 18.916ZM28.7598 19.5996C28.7598 19.7363 28.7871 19.8411 28.8418 19.9141V19.9414L28.7461 20.2012L28.8418 20.4199C28.7598 21.1582 28.7188 21.7233 28.7188 22.1152V23.0996C28.7188 23.3822 28.737 23.6191 28.7734 23.8105L28.7188 24.2207V24.3574L28.7461 25.5332L28.7598 25.5605H28.7734C28.8646 25.5241 28.9102 25.4694 28.9102 25.3965V25.3691L28.8418 25.2461C28.8783 25.2461 28.9102 24.8587 28.9375 24.084L28.9102 23.1406C28.9557 21.5273 28.9785 20.4609 28.9785 19.9414V19.9141C28.9785 19.3854 28.9375 19.1211 28.8555 19.1211C28.7917 19.1211 28.7598 19.2806 28.7598 19.5996ZM32.9707 19.1895H32.9297V19.2168C32.9388 19.2533 32.9753 19.2852 33.0391 19.3125L33.0938 19.2988V19.2715C33.0664 19.2168 33.0254 19.1895 32.9707 19.1895ZM31.0703 19.7363C31.0703 19.7637 31.1296 19.7773 31.248 19.7773L31.3438 19.7637V19.7363L31.3027 19.6543L32.0547 19.5586L32.123 19.5176L32.0684 19.4355H31.959C31.3665 19.5085 31.0703 19.6087 31.0703 19.7363ZM33.5312 19.4902L33.5176 19.5176C33.5996 19.627 33.6725 19.7044 33.7363 19.75H33.7637C33.7637 19.6589 33.6862 19.5723 33.5312 19.4902ZM32.5195 19.5586H32.4648V19.5723L32.5195 19.627H32.5469V19.5996L32.5195 19.5586ZM29.9492 19.6543L29.8672 19.7363V19.7637H29.9219L29.9902 19.6953V19.6543H29.9492ZM32.1641 19.6953H32.0547V19.709C32.0911 19.7728 32.1914 19.8047 32.3555 19.8047H32.4512L32.4922 19.7773C32.4648 19.7409 32.3555 19.7135 32.1641 19.6953ZM29.2246 19.8594V19.9414C29.2611 19.9414 29.2884 19.8639 29.3066 19.709H29.2793C29.2428 19.7181 29.2246 19.7682 29.2246 19.8594ZM30.6602 19.7773H30.6328C30.6328 19.832 30.5371 19.9095 30.3457 20.0098V20.0371H30.4277L30.4414 20.0234L30.4688 20.0371V20.0508C30.0768 20.2422 29.8398 20.4108 29.7578 20.5566C29.7305 20.5566 29.694 21.4043 29.6484 23.0996L29.6211 23.3047C29.6211 23.332 29.8216 23.4961 30.2227 23.7969L30.7969 24.0566C30.806 24.1113 30.8288 24.1387 30.8652 24.1387H30.9199C31.1934 24.1387 31.5033 24.0384 31.8496 23.8379C31.959 23.7285 32.1595 23.6237 32.4512 23.5234C32.916 23.1589 33.1484 22.8034 33.1484 22.457V22.2383L33.1211 22.0605V22.0332L33.2305 21.8965V21.8555C33.1484 21.819 33.1074 21.7096 33.1074 21.5273C33.1074 21.2083 33.0163 20.9486 32.834 20.748C32.7337 20.502 32.5742 20.3014 32.3555 20.1465C32.2826 20.028 32.0456 19.9232 31.6445 19.832H31.5215L30.8789 19.8867H30.8379C30.765 19.8867 30.7057 19.8503 30.6602 19.7773ZM33.873 19.832H33.832V19.873L33.873 19.9004H33.8867V19.873L33.873 19.832ZM32.752 19.8594L32.6973 19.9004V19.9141C32.6973 20.0234 32.793 20.1191 32.9844 20.2012H33.0254V20.1738C33.0254 20.0371 32.9342 19.9323 32.752 19.8594ZM29.252 20.4199L29.2109 20.4473L29.1836 21.3906L29.1973 21.4727H29.2246L29.252 21.4316V20.4199ZM34.0098 20.502L33.9688 20.5156L34.0781 20.707H34.1328V20.6797C34.1328 20.6159 34.0918 20.5566 34.0098 20.502ZM33.1758 20.5156H33.1074V20.5977C33.1074 20.6706 33.1758 20.821 33.3125 21.0488H33.3398V20.9941C33.3398 20.7663 33.2852 20.6068 33.1758 20.5156ZM33.3945 21.2539H33.3262V21.3359L33.3945 21.3496L33.4082 21.3223L33.3945 21.2539ZM33.8457 22.8809H33.873C34.0462 22.5983 34.1328 22.2793 34.1328 21.9238V21.7324H34.1055C34.0234 21.7324 33.9368 22.1152 33.8457 22.8809ZM33.4902 21.7461H33.4629V21.9375L33.5176 21.9922H33.5312L33.5723 21.9512C33.5723 21.8691 33.5449 21.8008 33.4902 21.7461ZM33.3262 22.4844V22.498H33.3398C33.4492 22.4889 33.5039 22.4434 33.5039 22.3613V22.2383L33.4629 22.2246H33.4492C33.3672 22.2884 33.3262 22.375 33.3262 22.4844ZM32.8477 23.4824L32.8613 23.4961H32.8887C32.998 23.4323 33.0573 23.3776 33.0664 23.332L33.0391 23.3184C32.9206 23.373 32.8568 23.4277 32.8477 23.4824ZM29.7031 23.5371H29.6484C29.6576 23.6465 29.7122 23.7012 29.8125 23.7012V23.6602L29.7031 23.5371ZM32.8613 23.9473V24.002H32.8887C33.0072 23.9655 33.0664 23.9108 33.0664 23.8379H33.0391C32.9479 23.8379 32.8887 23.8743 32.8613 23.9473ZM31.248 24.4395V24.4531H31.3027C31.8132 24.3438 32.0684 24.2526 32.0684 24.1797V24.1523C32.0684 24.1341 32.0501 24.125 32.0137 24.125C31.5033 24.2617 31.248 24.3665 31.248 24.4395ZM32.5059 24.3848H32.5195C32.7018 24.3118 32.8066 24.2572 32.834 24.2207V24.207L32.793 24.1797H32.7793C32.597 24.2526 32.5059 24.321 32.5059 24.3848ZM29.7441 24.3164L29.7305 24.3301V24.3574C29.7305 24.4486 29.9993 24.5215 30.5371 24.5762L30.8105 24.4395V24.4258L30.7695 24.3574H30.6875L30.3184 24.4395C30.0723 24.3574 29.8809 24.3164 29.7441 24.3164ZM28.7734 25.957V26.1758C28.7734 26.3307 28.7962 26.4082 28.8418 26.4082C28.9238 26.2533 28.9648 26.0755 28.9648 25.875V25.8066C28.9648 25.7793 28.9375 25.7656 28.8828 25.7656C28.8099 25.793 28.7734 25.8568 28.7734 25.957ZM28.9648 26.75H28.9102L28.8555 26.8047V26.9824C28.8555 27.0645 28.8737 27.1465 28.9102 27.2285H28.9785L29.0059 27.1465V26.9688C29.0059 26.8229 28.9922 26.75 28.9648 26.75ZM29.252 28.1035L29.2109 28.1445V28.1719L29.252 28.2266H29.3066L29.334 28.1855V28.1445L29.2793 28.1035H29.252ZM28.6777 28.1445H28.5957V28.1719C28.6048 28.2083 28.6413 28.2266 28.7051 28.2266L28.7188 28.1855L28.6777 28.1445ZM29.5938 28.1445L29.5527 28.1855V28.2129L29.5938 28.2676H29.6621L29.7031 28.2266V28.1855L29.6621 28.1445H29.5938ZM28.377 28.4453L28.3496 28.4863V28.5C28.3496 28.5182 28.4134 28.5365 28.541 28.5547C28.6868 28.5456 28.7598 28.5273 28.7598 28.5V28.4727L28.6367 28.4453H28.377ZM36.7441 17.5898L38.4395 17.5488C38.5853 17.5488 38.8906 17.6126 39.3555 17.7402C39.8841 18.2415 40.1986 18.6335 40.2988 18.916C40.4993 19.1257 40.6589 19.5404 40.7773 20.1602C40.9232 20.306 40.9961 20.6296 40.9961 21.1309L41.0098 21.4727L40.9551 22.8262C40.9551 23.0996 41.1237 23.4368 41.4609 23.8379C41.7708 24.1387 41.9714 24.2891 42.0625 24.2891V24.3164C42.0625 24.4258 41.903 24.599 41.584 24.8359C41.347 25.0729 41.1966 25.1914 41.1328 25.1914H41.1191C40.9733 25.1732 40.6042 24.9043 40.0117 24.3848C38.9362 24.804 38.3939 25.0182 38.3848 25.0273C38.0293 25.1367 37.6328 25.1914 37.1953 25.1914H37.127C36.6348 25.1094 36.2155 24.918 35.8691 24.6172C35.8053 24.5625 35.6732 24.3346 35.4727 23.9336C35.3086 23.7331 35.2266 23.487 35.2266 23.1953V22.7988C35.2266 22.5436 35.2949 22.3066 35.4316 22.0879C35.5501 21.7142 35.7552 21.3587 36.0469 21.0215C36.1927 20.8483 36.3385 20.7389 36.4844 20.6934C36.9583 20.4382 37.4277 20.3105 37.8926 20.3105L38.5078 20.2969H38.5898C38.9362 20.2969 39.1823 20.347 39.3281 20.4473H39.4102C39.4557 20.4473 39.4785 20.429 39.4785 20.3926C39.3783 19.9642 39.2142 19.554 38.9863 19.1621C38.7858 18.8249 38.4121 18.6562 37.8652 18.6562L37.3047 18.5742C36.8216 18.6745 36.5801 18.7747 36.5801 18.875C36.3887 19.1211 36.2747 19.4264 36.2383 19.791C36.2201 19.8366 36.056 19.8594 35.7461 19.8594L35.6641 19.8867C35.6276 19.8867 35.582 19.9642 35.5273 20.1191C35.2721 20.0827 35.1445 20.028 35.1445 19.9551C35.1628 19.9004 35.1947 19.5723 35.2402 18.9707C35.3861 18.5514 35.7324 18.1641 36.2793 17.8086C36.5345 17.6628 36.6895 17.5898 36.7441 17.5898ZM38.2754 17.8223L38.248 17.8633L38.2891 17.918H38.3711L38.3848 17.8906L38.3438 17.8223H38.2754ZM39.3145 17.9316H39.2871V17.959C39.36 18.0319 39.4238 18.0684 39.4785 18.0684H39.4922V18.041C39.4193 17.9681 39.36 17.9316 39.3145 17.9316ZM37.127 18V18.041C37.1361 18.0684 37.1816 18.082 37.2637 18.082C37.3457 18.082 37.4596 18.0547 37.6055 18V17.9453H37.5508C37.3503 17.9453 37.209 17.9635 37.127 18ZM35.8965 18.4375V18.4648H35.9102C35.9922 18.4648 36.1152 18.3783 36.2793 18.2051V18.1641H36.2656C36.1745 18.1641 36.0514 18.2552 35.8965 18.4375ZM37.7969 18.3418L37.7285 18.3965L37.7695 18.4648H37.9473L37.9883 18.4238L37.9062 18.3418H37.7969ZM35.7871 19.4492L35.7461 19.4766V19.6816H35.7598C35.7962 19.6725 35.8145 19.6406 35.8145 19.5859V19.4766L35.7871 19.4492ZM40.75 20.543H40.7363V20.5703C40.7546 20.6432 40.7728 20.6797 40.791 20.6797L40.8047 20.6113C40.7865 20.5658 40.7682 20.543 40.75 20.543ZM40.4355 21.0215L40.3945 21.0488V21.0898C40.431 21.2266 40.4674 21.2949 40.5039 21.2949H40.5312C40.5312 21.1764 40.5039 21.0853 40.4492 21.0215H40.4355ZM36.4297 21.1035L36.2793 21.1719V21.2402H36.3066C36.3704 21.2402 36.416 21.2038 36.4434 21.1309V21.1035H36.4297ZM36.2793 22.4023C36.3431 22.9492 36.4206 23.2227 36.5117 23.2227L36.6484 23.4004V23.4141L36.5254 23.4004V23.4414C36.6986 23.6784 37.054 23.8971 37.5918 24.0977C37.6556 24.1341 37.7467 24.1615 37.8652 24.1797C38.0293 24.1797 38.6582 23.9108 39.752 23.373C39.8249 23.3275 39.8613 23.2773 39.8613 23.2227V23.1543C39.7793 22.7806 39.7109 22.3431 39.6562 21.8418L39.6289 21.8281C39.6289 21.7279 39.5286 21.6458 39.3281 21.582C38.6536 21.3906 38.1934 21.2949 37.9473 21.2949C37.2546 21.4499 36.7806 21.6823 36.5254 21.9922C36.3613 22.1562 36.2793 22.293 36.2793 22.4023ZM40.3945 21.5137L40.3535 21.4863V21.5273H40.3945V21.5137ZM40.4492 21.7734H40.3672V21.8281L40.4082 21.8691L40.4492 21.8281V21.7734ZM40.0117 22.1152L39.9707 22.1562L40.0117 22.2109L40.0664 22.1973V22.1562L40.0254 22.1152H40.0117ZM40.5039 22.1562H40.4629V22.1699C40.4811 22.5163 40.5176 22.6895 40.5723 22.6895L40.5996 22.6621V22.6348C40.5996 22.4434 40.5677 22.2839 40.5039 22.1562ZM39.9707 22.5938L39.957 22.6074V22.6895L39.998 22.7441H40.0117L40.0664 22.6895V22.6074L40.0254 22.5938H39.9707ZM41.1328 23.8789H41.0918V23.9609C41.1283 24.0794 41.1693 24.1387 41.2148 24.1387H41.2559V24.0977C41.2194 23.9518 41.1784 23.8789 41.1328 23.8789ZM36.1016 23.9199L36.0742 23.9473V23.9609L36.1016 23.9883H36.1699V23.9609L36.1289 23.9199H36.1016ZM40.709 24.0977L40.668 24.1387C40.6953 24.2025 40.7318 24.2435 40.7773 24.2617H40.791L40.8457 24.207V24.1797L40.7773 24.0977H40.709ZM38.7266 24.2891V24.3164H38.7812C38.9089 24.3164 39.0775 24.2617 39.2871 24.1523V24.1387H39.2324C38.9225 24.1751 38.7539 24.2253 38.7266 24.2891ZM41.0098 24.3301L40.9824 24.3848V24.4121L41.0371 24.4668H41.0918L41.1328 24.4395V24.4121L41.0645 24.3301H41.0098ZM37.6328 24.4395L37.5918 24.4805C37.61 24.526 37.6465 24.5488 37.7012 24.5488C37.8014 24.5306 37.8516 24.5078 37.8516 24.4805V24.4668L37.8105 24.4395H37.6328ZM36.1426 24.6309L36.1016 24.6855C36.138 24.7676 36.3659 24.8724 36.7852 25C36.9219 25.0638 37.1042 25.0957 37.332 25.0957V25.082C37.332 25.0547 37.1589 25.0046 36.8125 24.9316C36.612 24.877 36.4023 24.7767 36.1836 24.6309H36.1426ZM47.4902 18.6289C47.8457 18.6289 48.1465 18.8796 48.3926 19.3809C48.4382 19.3809 48.502 19.4401 48.584 19.5586L48.7617 20.5703C48.6979 20.6797 48.4564 20.7344 48.0371 20.7344H47.9004C47.5632 20.6797 47.3945 20.5658 47.3945 20.3926C47.3945 20.265 47.2897 20.0872 47.0801 19.8594C47.0527 19.8138 46.8568 19.791 46.4922 19.791C46.1458 19.791 45.7266 19.8822 45.2344 20.0645C44.888 20.429 44.6602 20.7116 44.5508 20.9121C44.6146 22.4707 44.6374 23.446 44.6191 23.8379C44.6191 23.9199 44.6738 23.9609 44.7832 23.9609H45.1113C45.2572 23.9701 45.3301 23.9974 45.3301 24.043V24.0566L45.3848 24.2344L45.3574 25L45.2754 25.1094L44.6328 25.1777H44.5781L44.3047 25.2598C43.2565 25.2233 42.7324 25.1823 42.7324 25.1367C42.5501 25.1367 42.459 25.0547 42.459 24.8906C42.4408 24.7266 42.4316 24.5579 42.4316 24.3848C42.4316 24.2116 42.6094 24.0977 42.9648 24.043C42.9648 23.9701 43.0879 23.9336 43.334 23.9336L43.375 23.9199V23.8926L43.293 20.1465C43.293 19.9186 43.2337 19.8047 43.1152 19.8047H43.0332C42.9238 19.8047 42.7415 19.8548 42.4863 19.9551L42.459 19.9277V19.9004C42.459 19.8822 42.4954 19.8594 42.5684 19.832V19.8047C42.4772 19.8047 42.4316 19.5495 42.4316 19.0391C42.4134 19.0391 42.3997 18.957 42.3906 18.793C42.7552 18.5104 43.138 18.3691 43.5391 18.3691H43.8809C44.0176 18.3691 44.25 18.4147 44.5781 18.5059V18.5469C44.4961 18.6745 44.4551 18.7656 44.4551 18.8203V18.916C45.1934 18.5879 46.2051 18.4922 47.4902 18.6289ZM43.9082 20.6934V20.7617C43.9538 20.8529 43.9766 20.9486 43.9766 21.0488C43.9674 21.0853 43.9538 21.2721 43.9355 21.6094L43.9629 22.1562H43.9766C44.0039 22.1562 44.0404 21.7324 44.0859 20.8848C44.1042 20.8848 44.1133 20.7936 44.1133 20.6113C44.1042 20.5293 44.0814 20.4883 44.0449 20.4883H44.0176C43.9447 20.5339 43.9082 20.6022 43.9082 20.6934ZM43.0879 24.8223L42.9102 24.8359V24.8633C42.9102 24.9089 43.0423 24.9316 43.3066 24.9316H43.7168L43.8125 24.918C43.8125 24.8724 43.571 24.8405 43.0879 24.8223ZM45.4531 19.2168V19.2441C45.5352 19.2441 45.6445 19.112 45.7812 18.8477V18.7793H45.7676C45.5306 18.8522 45.4258 18.998 45.4531 19.2168ZM47.2168 19.6543H47.2852C47.3307 19.6452 47.4173 19.5358 47.5449 19.3262V19.3125C47.5449 19.2943 47.5267 19.2852 47.4902 19.2852C47.3353 19.3581 47.2578 19.4538 47.2578 19.5723C47.2487 19.5723 47.235 19.5996 47.2168 19.6543ZM44.0723 19.9688H44.0176L43.9492 20.2559C43.9492 20.3014 43.9766 20.347 44.0312 20.3926H44.0449C44.0723 20.3926 44.0951 20.3288 44.1133 20.2012L44.0723 19.9688ZM45.9727 18.916L46.041 19.1895H46.1504V18.9023L46.1094 18.8613H46.0684C46.0046 18.8704 45.9727 18.8887 45.9727 18.916ZM42.9922 24.6035L42.9648 24.6309L42.9785 24.6582H43.7305V24.6172L43.2656 24.6035H42.9922ZM42.7461 18.9023C42.819 18.9753 42.8965 19.0117 42.9785 19.0117L42.9922 18.9844V18.8887L42.9375 18.8203C42.8099 18.8385 42.7461 18.8659 42.7461 18.9023ZM44.127 24.6992L44.168 24.7402H44.373L44.4277 24.6855C44.4277 24.6673 44.4049 24.6491 44.3594 24.6309C44.2044 24.6491 44.127 24.6719 44.127 24.6992ZM48.0645 19.2715H48.0234V19.2988C48.0964 19.3717 48.1602 19.4082 48.2148 19.4082H48.2559V19.3809C48.1829 19.3079 48.1191 19.2715 48.0645 19.2715ZM43.375 18.6289H43.334V18.6836L43.416 18.7793H43.5391V18.752L43.375 18.6289ZM42.9648 19.4355V19.4629H43.0059C43.1061 19.4629 43.1608 19.4447 43.1699 19.4082L43.1426 19.3672H43.1152C43.0332 19.3672 42.9831 19.39 42.9648 19.4355ZM46.4648 18.793L46.3008 18.8066V18.8203L46.3281 18.8613H46.4648C46.5286 18.8613 46.5651 18.8431 46.5742 18.8066L46.5469 18.793H46.4648ZM44.3047 23.1953L44.25 23.2363V23.3457H44.3047L44.3594 23.3047V23.2227L44.332 23.1953H44.3047ZM42.6641 24.6855L42.6094 24.6309L42.582 24.6855V24.7402L42.6094 24.7812H42.6641V24.6855ZM44.5781 19.5176L44.5234 19.5312V19.5723L44.5781 19.6133H44.6191L44.6602 19.5723V19.5312L44.5781 19.5176ZM46.7383 18.7793V18.8066H46.834L46.8887 18.7656L46.8477 18.7246C46.7747 18.7428 46.7383 18.7611 46.7383 18.7793ZM47.6406 18.7793L47.6133 18.8066V18.8203L47.6406 18.8613H47.6953L47.7227 18.8203V18.8066L47.6953 18.7793H47.6406ZM44.3184 18.6426L44.25 18.6699V18.7246H44.3184L44.3594 18.6699L44.3184 18.6426ZM44.2773 18.8887L44.2227 18.9297V18.957L44.25 18.9844L44.3184 18.9297V18.8887H44.2773ZM47.5996 20.0234V20.0508H47.627L47.6816 20.0098V19.9688H47.668C47.6224 19.9961 47.5996 20.0143 47.5996 20.0234ZM47.1348 18.8203L47.0801 18.8613V18.875H47.1484L47.1758 18.8477V18.8203H47.1348ZM44.3047 23.4961H44.2773V23.5508H44.3047V23.4961ZM49.0762 14.6914L49.1582 14.6777H49.2676C50.0697 14.7689 50.5436 14.8828 50.6895 15.0195C50.7533 15.0195 50.8125 15.1973 50.8672 15.5527L50.7988 15.6758V15.7168C50.8991 15.8353 50.9674 16.4095 51.0039 17.4395C51.0039 19.2533 51.054 20.4245 51.1543 20.9531H51.209C51.7012 20.5521 52.4622 20.0007 53.4922 19.2988C53.5742 19.2988 53.6426 18.8932 53.6973 18.082C53.6973 17.8906 53.7884 17.7949 53.9707 17.7949L54.5176 17.7539C55.3379 17.7539 55.8301 17.8405 55.9941 18.0137V18.041L55.9531 18.082C55.7891 18.0182 55.6615 17.9863 55.5703 17.9863L55.5293 18.041V18.0547C55.5293 18.1094 55.6615 18.1504 55.9258 18.1777C55.9987 18.1777 56.0352 18.3919 56.0352 18.8203C56.0352 18.9935 55.9668 19.0801 55.8301 19.0801C55.7936 19.0801 55.7253 19.1439 55.625 19.2715L55.584 19.2852L55.3105 19.2715H55.2559C55.2559 19.3717 55.151 19.472 54.9414 19.5723C54.9049 19.5723 54.8867 19.5951 54.8867 19.6406L54.9414 19.7363L53.6289 20.6387L53.6152 20.6797C53.6243 20.7344 54.0755 21.6595 54.9688 23.4551C55.0964 23.7194 55.1784 23.929 55.2148 24.084H55.1328L55.0508 24.002H55.0098C55.0098 24.1113 55.1829 24.166 55.5293 24.166C56.14 24.166 56.4453 24.2207 56.4453 24.3301L56.3359 24.4668C56.4544 24.6673 56.5137 24.9635 56.5137 25.3555C56.5137 25.4831 56.4499 25.5469 56.3223 25.5469L56.1992 25.5605C55.9805 25.5241 55.4473 25.5059 54.5996 25.5059H54.5176C54.4082 25.5059 54.3262 25.3646 54.2715 25.082C54.2168 24.6081 54.1257 24.1751 53.998 23.7832C53.7884 23.3092 53.4831 22.6758 53.082 21.8828C52.9271 21.4271 52.8086 21.1992 52.7266 21.1992C52.5716 21.2174 52.3255 21.3587 51.9883 21.623C51.8698 21.7233 51.7832 21.7734 51.7285 21.7734C51.6738 21.7552 51.6465 21.737 51.6465 21.7188V21.7051L51.6875 21.6367V21.623H51.6055C51.5508 21.623 51.4915 21.7461 51.4277 21.9922L51.4414 22.0742C51.3685 22.1198 51.332 22.1973 51.332 22.3066L51.3594 23.7695C51.3594 23.888 51.5553 23.9655 51.9473 24.002C52.0111 24.0566 52.1523 24.1204 52.3711 24.1934L52.4258 24.3301L52.4121 24.5352V24.6855L52.4531 24.877V24.9043C52.4167 24.9772 52.3483 25.0365 52.248 25.082L52.2344 25.0684H52.1523V25.123C52.1523 25.1868 52.2161 25.2415 52.3438 25.2871V25.3145C52.3438 25.3418 52.2891 25.3646 52.1797 25.3828L51.5371 25.2188C50.653 25.1732 50.0788 25.123 49.8145 25.0684L49.623 25.1094C49.5046 25.0547 49.4453 24.9089 49.4453 24.6719V24.5898L49.4316 24.5762C49.4316 24.4212 49.5 24.2936 49.6367 24.1934H49.6914V24.3984L49.7461 24.4531H49.9238L49.8691 24.3848V24.3438L49.9785 24.3301H50.1152L49.9512 24.166L50.1426 24.125V24.084C50.1335 24.0566 50.0879 24.043 50.0059 24.043H49.9512L49.6641 24.084V24.0566C49.6641 23.9928 49.8691 23.929 50.2793 23.8652C50.3796 23.8379 50.5345 23.8105 50.7441 23.7832L50.7852 23.7285V23.7148C50.7852 23.6966 50.7214 23.6875 50.5938 23.6875C50.5208 23.6875 50.4844 23.2956 50.4844 22.5117C50.4297 21.5638 50.3431 20.9121 50.2246 20.5566C50.1699 18.2871 50.097 16.9336 50.0059 16.4961C50.0059 16.4688 49.8464 16.4414 49.5273 16.4141L49.1309 16.5098C49.0306 16.4095 48.9759 16.3275 48.9668 16.2637L48.9395 15.416L48.9258 15.3613C48.944 15.2246 48.9622 15.1563 48.9805 15.1563L49.1309 15.1836V15.1563C49.1309 15.1198 49.0944 15.0514 49.0215 14.9512V14.8828C49.0944 14.8828 49.1309 14.8691 49.1309 14.8418L49.0762 14.7461V14.6914ZM50.3477 15.4707V15.498C50.3841 15.5892 50.4388 15.6348 50.5117 15.6348C50.5755 15.5618 50.6074 15.4798 50.6074 15.3887L50.5527 15.375C50.4525 15.375 50.3841 15.4069 50.3477 15.4707ZM49.4863 15.6895V15.7168C49.4863 15.7533 49.5547 15.7852 49.6914 15.8125V15.8398C49.5182 15.849 49.4316 15.8763 49.4316 15.9219V15.9766L49.4727 16.0176H49.6094C49.7461 16.0176 49.8464 15.9355 49.9102 15.7715L49.9648 15.7168C49.9648 15.6621 49.8555 15.6348 49.6367 15.6348H49.582C49.5182 15.6439 49.4863 15.6621 49.4863 15.6895ZM50.5664 16.8926L50.5391 16.9473V17.2207C50.5391 17.4395 50.5618 17.5488 50.6074 17.5488H50.6211L50.6621 17.5078V17.3164C50.653 17.0339 50.6211 16.8926 50.5664 16.8926ZM54.1758 17.8223L54.0938 17.8359V17.877L54.1074 17.918H54.1758L54.2031 17.877V17.8496L54.1758 17.8223ZM53.8477 18.6152C53.8568 18.7337 53.875 18.793 53.9023 18.793H53.998C54.0254 18.793 54.0391 18.7747 54.0391 18.7383L53.9707 18.5742L54.0391 18.3281V18.2871H54.0117C53.9023 18.3418 53.8477 18.4512 53.8477 18.6152ZM55.0918 18.7246C55.0918 18.752 55.2376 18.7747 55.5293 18.793C55.6296 18.7747 55.6797 18.752 55.6797 18.7246V18.6699H55.584H55.3105C55.1647 18.6699 55.0918 18.6882 55.0918 18.7246ZM50.5664 18.875H50.5391V18.9434L50.5664 18.9707L50.6211 18.916L50.5664 18.875ZM53.793 18.916L53.8477 18.9707H53.8613C53.9342 18.9707 53.9753 18.9525 53.9844 18.916V18.875H53.9297C53.8568 18.875 53.8112 18.8887 53.793 18.916ZM53.6562 19.5449V19.5586H53.6699C53.7064 19.5586 53.8477 19.4766 54.0938 19.3125C54.1849 19.3034 54.2305 19.276 54.2305 19.2305V19.1758H54.1484C54.0391 19.1758 53.875 19.2988 53.6562 19.5449ZM53.6289 20.1465V20.1875H53.6562C53.9935 20.0964 54.4219 19.832 54.9414 19.3945L54.9688 19.3398H54.9414C54.4857 19.5039 54.0482 19.7728 53.6289 20.1465ZM51.2773 21.1445V21.1855H51.332C51.4505 21.1855 51.5508 21.1309 51.6328 21.0215V20.9805C51.5052 20.9805 51.3867 21.0352 51.2773 21.1445ZM52.9316 21.1172C52.9954 21.2904 53.0638 21.377 53.1367 21.377H53.1504V21.3633C53.1413 21.1628 53.082 21.0625 52.9727 21.0625C52.9453 21.0625 52.9316 21.0807 52.9316 21.1172ZM50.9082 21.1582L50.8672 21.2266V21.2402H50.9082L50.9355 21.1992V21.1582H50.9082ZM51.8379 21.459V21.4863H51.8652C52.0475 21.4134 52.207 21.3132 52.3438 21.1855V21.1582C52.0065 21.304 51.8379 21.4043 51.8379 21.459ZM50.8809 21.8555V21.9785L50.9082 22.0059H50.9492C50.9948 21.9876 51.0176 21.9375 51.0176 21.8555V21.8281C51.0176 21.7279 50.9993 21.6276 50.9629 21.5273H50.9492C50.9036 21.5273 50.8809 21.6367 50.8809 21.8555ZM53.4512 21.8418H53.4102V21.8555C53.5013 22.2018 53.6654 22.5846 53.9023 23.0039H53.9707V22.9629C53.9707 22.7715 53.7975 22.3978 53.4512 21.8418ZM50.8672 22.3887V22.5801L50.9082 22.6074C50.9811 22.6074 51.0176 22.5618 51.0176 22.4707V22.252L50.9902 22.2246H50.9492C50.8945 22.2337 50.8672 22.2884 50.8672 22.3887ZM54.1758 22.334H54.1348V22.3613L54.1895 22.416H54.2031V22.3613L54.1758 22.334ZM51.0176 22.9082H50.9629L50.9492 22.9902V23.127H50.9629C50.9993 23.1178 51.0176 23.0723 51.0176 22.9902V22.9082ZM54.0391 23.1543H54.0117V23.1816C54.0846 23.4095 54.1621 23.5508 54.2441 23.6055H54.2988C54.2988 23.5326 54.2168 23.3822 54.0527 23.1543H54.0391ZM50.8809 23.7285L50.9492 23.7969H50.9629C51.0085 23.7786 51.0312 23.7422 51.0312 23.6875C51.0312 23.6237 51.0176 23.5918 50.9902 23.5918C50.9173 23.6374 50.8809 23.6829 50.8809 23.7285ZM54.5723 24.0566V24.084L54.6133 24.1387H54.7227L54.7773 24.084C54.75 24.0293 54.709 24.002 54.6543 24.002C54.5996 24.0111 54.5723 24.0293 54.5723 24.0566ZM52.248 24.3027H52.207V24.3301L52.2617 24.3711H52.2754V24.3301L52.248 24.3027ZM51.7422 24.4668C51.806 24.5853 51.9017 24.6445 52.0293 24.6445H52.043L52.084 24.6035C52.0475 24.4941 52.002 24.4212 51.9473 24.3848H51.8926C51.8197 24.3848 51.7695 24.4121 51.7422 24.4668ZM56.2539 24.4395H56.2129V24.5078L56.2539 24.5352H56.2949V24.4668L56.2539 24.4395ZM50.8535 24.4668H50.8262V24.5078H50.8809L50.8535 24.4668ZM51.3047 24.4668L51.2773 24.5078H51.3457L51.3047 24.4668ZM49.8281 24.6309V24.6445L49.8418 24.6719V24.6855L50.4844 24.6992H50.5664C50.8581 24.6992 51.0039 24.6764 51.0039 24.6309V24.6035C51.0039 24.5853 50.9036 24.5716 50.7031 24.5625C50.1927 24.5807 49.901 24.6035 49.8281 24.6309ZM55.3926 24.6035L55.3516 24.6445L55.4199 24.6992H55.4746L55.5293 24.6445L55.4883 24.6035H55.3926ZM55.7617 24.6719H55.625V24.6855L55.6934 24.7266H55.7617V24.6719ZM56.2539 24.877V25.1094H56.2676C56.304 25.1094 56.3223 25.0137 56.3223 24.8223V24.7266C56.2767 24.7448 56.2539 24.7949 56.2539 24.877ZM51.4277 24.7402L51.3867 24.7676V24.8086L51.5918 24.8223H51.6738V24.8086C51.6738 24.763 51.5918 24.7402 51.4277 24.7402ZM50.2656 24.8496L50.2246 24.877L51.7012 25.082V25.041C51.7012 24.9134 51.4232 24.8496 50.8672 24.8496H50.2656ZM51.8926 25.0273L51.8379 25.041V25.0684L51.8652 25.1094H51.9746L52.002 25.0684C51.9928 25.041 51.9564 25.0273 51.8926 25.0273ZM55.2832 25.3145V25.3281H55.3379L55.625 25.3555L55.9531 25.3281H55.9941L56.0352 25.3008V25.2871L55.9531 25.2734H55.4199C55.3288 25.2734 55.2832 25.2871 55.2832 25.3145Z" fill="#2E564B"/>
</svg>
