<svg width="100" height="100" viewBox="0 0 100 100" fill="none" xmlns="http://www.w3.org/2000/svg">
<path d="M83.6362 40.2711C81.0102 43.3129 78.5911 46.1064 76.1816 48.9081C74.0994 51.3294 71.3857 51.6898 68.4193 51.406C68.1381 51.4017 67.8589 51.453 67.5977 51.5571C67.3364 51.6612 67.0984 51.8159 66.8972 52.0124C64.9832 54.0154 63.2239 56.17 61.2613 58.1216C58.8194 60.5496 56.2223 62.8209 53.7117 65.1806C53.0283 66.0106 52.2602 66.7671 51.4198 67.4376C50.6305 67.865 49.7162 68.0015 48.8365 67.8234C46.5819 67.3019 44.4026 66.452 42.1462 65.9415C41.7747 65.9251 41.404 65.9896 41.0598 66.1304C40.7156 66.2713 40.4061 66.4852 40.1526 66.7573C36.1031 71.1928 32.2373 75.8008 28.0872 80.1379C25.8896 82.3751 23.4724 84.3855 20.8721 86.1386C19.1228 87.5116 17.0737 88.4515 14.8918 88.8816C9.65196 89.462 7.90899 83.1645 9.65548 79.5496C13.0383 72.5479 18.6074 67.6989 24.7896 63.3165C26.9374 61.6959 28.9079 59.8529 30.6683 57.8182C31.0659 57.384 30.7529 56.0343 30.4233 55.2507C29.5241 53.1122 28.306 51.1008 27.5052 48.9316C27.3896 48.4695 27.3774 47.9877 27.4694 47.5203C27.5614 47.053 27.7554 46.6117 28.0375 46.2279C32.9278 40.4792 37.8856 34.7878 42.9107 29.154C46.0285 25.6377 49.2735 22.2342 52.3878 18.7151C52.9384 18.0904 53.2579 17.2958 53.293 16.4638C53.2307 15.6807 53.3528 14.8939 53.6495 14.1664C53.9461 13.439 54.4091 12.7912 55.0012 12.2749C55.5934 11.7586 56.2983 11.3883 57.0594 11.1936C57.8205 10.9988 58.6166 10.9851 59.3839 11.1535C64.3268 11.8796 68.0862 14.5714 71.8146 17.6478C74.8707 20.1695 78.5044 21.9831 81.6217 24.4408C85.0731 27.1619 89.4215 29.1995 90.7197 33.925C91.8648 38.0936 89.4056 40.8706 85.0983 40.5568C84.6051 40.4944 84.1166 40.3989 83.6362 40.2711ZM52.4702 49.4769C54.8903 51.5182 57.3102 53.5594 59.6995 55.5746C60.2889 55.1882 60.8484 54.7579 61.373 54.2872C63.2915 52.4085 65.9871 50.7841 66.8383 48.4888C67.8765 45.6074 69.4324 42.9399 71.4295 40.6178C72.0287 39.8292 72.5783 39.0041 73.075 38.1472C67.9546 36.8515 67.4385 34.9486 70.7163 30.6406C69.5947 31.3717 68.6124 32.2755 67.573 33.1079C66.4732 34.1681 65.2366 35.0764 63.896 35.8088C63.3423 36.0845 62.7259 36.2098 62.1085 36.172C61.4911 36.1342 60.8945 35.9347 60.3786 35.5935C59.8626 35.2524 59.4455 34.7815 59.169 34.2282C58.8925 33.675 58.7664 33.0587 58.8033 32.4412C58.8817 31.1507 59.9032 29.815 60.7582 28.6997C61.8774 27.2399 63.2547 25.9781 64.5209 24.6311L64.1548 24.1194C63.6974 24.2343 63.2414 24.3553 62.7823 24.4629C61.4656 24.7714 60.1381 25.0387 58.8341 25.3935C58.032 25.5138 57.267 25.8122 56.5954 26.267C53.4829 29.1472 50.3964 32.0622 47.4342 35.0955C45.5755 36.9988 43.9505 39.1304 42.2208 41.1596C42.3482 41.4718 44.6448 42.2188 45.1191 41.7394C48.4777 38.3466 51.6781 34.798 54.9611 31.3294C55.5623 30.7704 56.2012 30.2533 56.8734 29.7819L57.4034 30.2147C57.2707 30.6795 57.2708 31.2591 56.9839 31.5904C55.0699 33.8009 53.0465 35.9175 51.1534 38.1452C49.4131 40.1932 46.6561 41.4832 46.2244 44.0306C46.9305 44.6728 47.3811 45.0096 47.742 45.4246C49.1467 46.9634 50.7345 48.3243 52.4702 49.4769H52.4702ZM37.6831 61.212C41.1716 62.4749 44.257 63.6357 47.3775 64.6931C48.2774 64.9119 49.1958 65.0458 50.1207 65.0931C50.0444 63.8608 50.7671 62.6688 49.3804 61.4703C43.7812 56.6315 38.3418 51.608 32.8205 46.6785C32.1309 46.2196 31.4009 45.8245 30.6396 45.4982C30.4264 47.0844 29.9006 48.4376 30.1844 49.5915C30.4787 50.7874 31.7375 51.7121 32.2518 52.8955C33.1097 54.6897 33.7081 56.5967 34.0292 58.5593C34.0912 59.0651 28.8968 63.382 28.3834 63.7819C24.6544 66.6861 20.7354 69.3604 17.1451 72.4224C15.3781 73.9294 12.844 79.8809 12.2892 80.5194C11.9813 80.8737 11.9599 84.598 12.8201 85.671C14.2175 87.4142 18.1577 85.0035 18.524 84.7427C23.8131 80.9758 28.9296 77.0383 32.5856 71.5119C33.7048 69.8202 37.314 63.1296 37.6831 61.212ZM61.9702 30.3615C61.5606 31.3999 61.3233 32.4983 61.2676 33.6132C62.3394 33.5533 63.6588 33.8673 64.431 33.3555C65.9685 32.1951 67.4031 30.9044 68.7189 29.4976C70.2751 28.0198 72.1112 27.7462 73.1937 28.9948C74.7092 30.7428 73.0524 31.6879 72.1496 32.8728C71.7481 33.5573 71.4342 34.2896 71.2152 35.0523C71.9911 34.9969 72.7666 34.9367 73.5429 34.8875C74.1716 34.7425 74.824 34.733 75.4566 34.8597C75.7454 34.9852 75.9331 35.9813 75.7581 36.4228C75.1368 38.0538 74.3922 39.6351 73.5309 41.153C72.3339 43.1951 70.8664 45.0801 69.6971 47.1362C69.1448 48.1073 69.3597 49.3557 70.7959 49.2822C72.0293 49.3097 73.2344 48.911 74.2081 48.1534C76.7043 45.5402 78.9825 42.7271 81.0197 39.7422C82.1972 37.958 83.0643 37.123 85.2318 38.0012C87.0242 38.7274 88.9593 37.7141 88.8249 36.3224C88.7042 35.0725 88.5193 33.5184 87.7349 32.702C85.4966 30.3773 83.081 28.23 80.51 26.2795C76.8618 23.5088 73.0295 20.98 69.2713 18.3543C67.9397 17.3393 66.5519 16.4003 65.1145 15.5416C63.7212 14.8223 62.2607 14.241 60.7541 13.8062C59.6733 13.3592 58.4993 13.1841 57.3351 13.296C56.4929 13.4859 55.8593 14.6014 55.1332 15.3062C55.8644 15.9394 56.7039 16.4353 57.6114 16.77C59.5979 17.088 60.2334 18.08 59.9151 19.9591C59.7393 20.9971 59.684 22.0556 59.5154 23.6699C60.6797 23.0299 61.8908 22.4791 63.1385 22.0223C64.0276 21.6839 65.0105 21.6861 65.8982 22.0283C66.5045 22.4322 66.5898 23.6687 66.8224 24.56C66.9307 24.9753 62.6653 29.2031 61.9702 30.3615ZM57.3585 57.3741C54.0472 54.6679 40.5371 42.814 38.2093 41.0771C36.4562 39.7691 35.2378 41.4283 34.3142 42.4629C34.1122 42.9102 34.0295 43.4023 34.0743 43.8911C34.1191 44.3799 34.2898 44.8488 34.5698 45.2519C41.1652 50.6343 47.8814 55.8683 54.7841 61.3125C55.658 59.9758 56.471 58.7318 57.3585 57.3741ZM40.9868 39.5417C41.1802 39.4767 41.3639 39.3859 41.5331 39.2717C46.1477 34.4113 50.6373 29.4234 55.4277 24.7435C57.1526 23.0585 57.5795 21.3691 57.0819 18.6286C56.202 19.0002 55.4261 19.5811 54.8219 20.3209C53.2115 22.037 51.6174 23.7683 50.011 25.4881C48.7112 26.8796 47.4225 28.2823 46.094 29.6459C44.2004 31.5896 42.2189 33.4506 40.3812 35.4448C39.0485 36.891 39.077 38.3404 40.9868 39.5417Z" fill="#2E564B"/>
<path d="M55.4558 44.7172C57.148 42.9753 59.0279 41.4263 61.0612 40.0984C59.0392 43.9978 55.919 46.8848 52.4705 49.477C51.9438 49.3706 53.9262 46.1893 55.4558 44.7172Z" fill="#2E564B"/>
<path d="M67.67 37.8421C67.2842 38.6682 66.812 39.451 66.2613 40.1776C63.2153 43.4453 60.1422 46.6912 56.9634 49.8279C56.4735 50.3113 55.0015 50.6012 54.6444 50.2694C53.4873 49.1941 54.8793 48.8894 55.5088 48.2922C58.8108 45.1592 62.0572 41.9676 65.334 38.8079C65.8766 38.2847 66.4742 37.8186 67.0465 37.3262C67.2543 37.4981 67.4621 37.6701 67.67 37.8421Z" fill="#2E564B"/>
<path d="M58.0439 36.1222C57.8609 37.11 57.9286 37.7687 57.6348 38.1456C56.5953 39.4786 55.4336 40.7163 54.3158 41.988C53.2054 43.2515 52.15 44.5719 50.948 45.7413C50.5429 46.1355 49.7624 46.1441 49.1536 46.3289C49.0576 45.7149 48.6526 44.8045 48.9133 44.5327C51.4528 41.8852 54.0998 39.3405 56.7308 36.7818C57.1452 36.5182 57.5851 36.2972 58.0439 36.1222Z" fill="#2E564B"/>
<path d="M64.5307 47.1966C64.1587 47.8409 63.7431 48.459 63.2867 49.0465C62.3916 50.0769 61.4391 51.0561 60.4339 51.9795C59.9354 52.3201 59.3922 52.5902 58.8197 52.782C58.7495 52.1502 58.3788 51.213 58.659 50.9372C60.2585 49.3629 62.0129 47.9459 63.7148 46.4756L64.5307 47.1966Z" fill="#2E564B"/>
</svg>
