<svg width="200" height="190" viewBox="0 0 200 190" fill="none" xmlns="http://www.w3.org/2000/svg">
<path d="M182.039 71.3198C175.635 78.7403 169.734 85.5553 163.858 92.3904C158.779 98.2972 152.16 99.1765 144.925 98.484C144.239 98.4735 143.558 98.5988 142.921 98.8527C142.284 99.1066 141.703 99.484 141.213 99.9633C136.544 104.85 132.253 110.106 127.467 114.867C121.511 120.79 115.176 126.332 109.053 132.088C107.386 134.113 105.513 135.959 103.463 137.594C101.538 138.637 99.3077 138.97 97.1621 138.535C91.6631 137.263 86.3479 135.19 80.8445 133.944C79.9383 133.904 79.0342 134.062 78.1947 134.405C77.3551 134.749 76.6002 135.271 75.982 135.935C66.105 146.755 56.6764 157.997 46.5542 168.578C41.1942 174.035 35.2985 178.94 28.9564 183.217C24.6899 186.566 19.6918 188.859 14.3703 189.909C1.59014 191.324 -2.66101 175.961 1.59873 167.142C9.84963 150.061 23.4326 138.232 38.5113 127.541C43.7498 123.587 48.5559 119.091 52.8496 114.127C53.8192 113.068 53.0558 109.775 52.2521 107.864C50.0588 102.646 47.0878 97.7394 45.1346 92.4476C44.8527 91.3204 44.8229 90.1448 45.0473 89.0047C45.2717 87.8646 45.7448 86.7881 46.4329 85.8518C58.3605 71.8272 70.4526 57.9429 82.709 44.1987C90.3133 35.6205 98.228 27.3174 105.824 18.7322C107.167 17.2083 107.946 15.2696 108.032 13.2401C107.88 11.3296 108.178 9.41006 108.901 7.6354C109.625 5.86074 110.754 4.28032 112.198 3.02085C113.642 1.76139 115.362 0.857904 117.218 0.382844C119.074 -0.0922158 121.016 -0.12564 122.888 0.285252C134.944 2.05655 144.113 8.62325 153.206 16.1284C160.66 22.2802 169.523 26.7048 177.126 32.7004C185.544 39.3388 196.15 44.3097 199.316 55.8379C202.109 66.0074 196.111 72.7821 185.606 72.0167C184.403 71.8644 183.211 71.6316 182.039 71.3198ZM106.025 93.7779C111.927 98.7578 117.83 103.737 123.657 108.654C125.095 107.711 126.459 106.661 127.739 105.513C132.418 100.93 138.993 96.967 141.069 91.3674C143.601 84.3379 147.396 77.8304 152.267 72.1655C153.729 70.2417 155.069 68.2287 156.28 66.1383C143.792 62.9773 142.533 58.3351 150.528 47.8254C147.792 49.609 145.396 51.8138 142.861 53.8446C140.178 56.4309 137.162 58.6469 133.893 60.4336C132.542 61.1062 131.039 61.4117 129.533 61.3195C128.027 61.2274 126.572 60.7407 125.314 59.9084C124.055 59.0761 123.038 57.9275 122.363 56.5777C121.689 55.2279 121.381 53.7244 121.471 52.2182C121.663 49.0697 124.154 45.8112 126.239 43.0903C128.969 39.5292 132.329 36.4508 135.417 33.1647L134.524 31.9165C133.408 32.1967 132.296 32.4919 131.176 32.7544C127.965 33.5071 124.727 34.159 121.547 35.0248C119.59 35.3181 117.724 36.0461 116.086 37.1555C108.495 44.1822 100.967 51.2934 93.7418 58.6933C89.2085 63.3366 85.2452 68.5368 81.0262 73.4872C81.3372 74.2488 86.9384 76.0712 88.0955 74.9017C96.287 66.6248 104.093 57.9677 112.1 49.5058C113.566 48.1419 115.125 46.8806 116.764 45.7306L118.057 46.7863C117.734 47.9202 117.734 49.3343 117.034 50.1425C112.366 55.5352 107.43 60.6988 102.813 66.1333C98.5685 71.1296 91.8441 74.2767 90.7913 80.4912C92.5134 82.0578 93.6123 82.8795 94.4928 83.8919C97.9187 87.646 101.792 90.966 106.025 93.7779H106.025ZM69.9587 122.407C78.4673 125.488 85.9927 128.319 93.6037 130.899C95.7986 131.433 98.0386 131.759 100.294 131.875C100.108 128.868 101.871 125.96 98.4887 123.037C84.8322 111.232 71.5654 98.9768 58.0988 86.951C56.4169 85.8314 54.6364 84.8676 52.7795 84.0716C52.2596 87.9413 50.9771 91.2424 51.6692 94.0575C52.3871 96.975 55.4573 99.2308 56.7118 102.118C58.8041 106.495 60.2637 111.147 61.0469 115.935C61.1981 117.169 48.5289 127.7 47.2765 128.676C38.1814 135.761 28.6229 142.285 19.866 149.755C15.5562 153.432 9.3756 167.951 8.02243 169.508C7.27153 170.373 7.21916 179.458 9.31731 182.076C12.7256 186.329 22.3359 180.448 23.2293 179.811C36.1296 170.622 48.6087 161.016 57.5259 147.534C60.2556 143.407 69.0585 127.085 69.9587 122.407ZM129.196 47.1444C128.197 49.6778 127.618 52.3573 127.482 55.0771C130.096 54.9312 133.314 55.6971 135.198 54.4486C138.948 51.6177 142.447 48.4688 145.656 45.0369C149.451 41.4316 153.93 40.7643 156.57 43.8103C160.266 48.0746 156.225 50.3803 154.023 53.2709C153.044 54.9409 152.278 56.7273 151.744 58.5881C153.637 58.4529 155.528 58.3061 157.422 58.1859C158.955 57.8322 160.546 57.8092 162.089 58.1182C162.794 58.4242 163.251 60.8543 162.825 61.9315C161.309 65.9103 159.493 69.768 157.392 73.4711C154.473 78.453 150.894 83.0516 148.042 88.0675C146.695 90.4367 147.219 93.4821 150.722 93.3028C153.73 93.37 156.669 92.3974 159.044 90.5491C165.132 84.1741 170.689 77.3113 175.658 70.0294C178.53 65.6767 180.645 63.6397 185.931 65.7822C190.303 67.5538 195.023 65.0817 194.695 61.6865C194.401 58.6373 193.95 54.8459 192.036 52.8542C186.577 47.183 180.685 41.9446 174.415 37.1862C165.517 30.4267 156.169 24.2576 147.003 17.8521C143.755 15.3759 140.371 13.085 136.865 10.9903C133.466 9.2354 129.904 7.81737 126.229 6.75656C123.593 5.66617 120.73 5.23882 117.89 5.51194C115.836 5.97517 114.291 8.69659 112.52 10.4159C114.303 11.9608 116.351 13.1705 118.564 13.987C123.409 14.7628 124.959 17.1828 124.183 21.767C123.754 24.2993 123.62 26.8815 123.208 30.8199C126.048 29.2584 129.002 27.9147 132.045 26.8004C134.214 25.9749 136.611 25.9801 138.776 26.815C140.255 27.8004 140.463 30.8168 141.03 32.9914C141.294 34.0044 130.891 44.3184 129.196 47.1444ZM117.947 113.044C109.871 106.442 76.9198 77.5232 71.2422 73.286C66.9664 70.095 63.9946 74.1427 61.742 76.6668C61.2492 77.7581 61.0476 78.9585 61.1569 80.151C61.2661 81.3434 61.6825 82.4872 62.3655 83.4707C78.4516 96.6015 94.8326 109.37 111.668 122.652C113.8 119.391 115.783 116.356 117.947 113.044ZM78.0166 69.5401C78.4883 69.3816 78.9365 69.1601 79.349 68.8817C90.6041 57.0242 101.554 44.8559 113.238 33.4389C117.445 29.3282 118.487 25.2068 117.273 18.5213C115.127 19.4277 113.234 20.8449 111.761 22.6497C107.833 26.8362 103.945 31.0598 100.027 35.2555C96.8567 38.6502 93.7135 42.0721 90.4731 45.3987C85.8545 50.1404 81.0218 54.6805 76.5396 59.5457C73.2891 63.0736 73.3585 66.6095 78.0166 69.5401Z" fill="#41B37E" fill-opacity="0.5"/>
</svg>
