<svg width="100" height="100" viewBox="0 0 100 100" fill="none" xmlns="http://www.w3.org/2000/svg">
<path d="M60.3375 53.3757C60.3077 58.5874 60.319 63.4384 60.1987 68.293C60.1195 68.6349 59.9734 68.9579 59.7688 69.2432C59.5643 69.5285 59.3053 69.7705 59.0069 69.9553C55.5215 72.0917 51.5682 73.3472 47.4888 73.6132C40.2963 74.3715 33.0683 74.7437 25.8359 74.7284C19.7467 74.5462 13.7251 73.3971 7.99672 71.324C5.52662 70.4955 5.17833 70.0448 5.20007 67.3757C5.23699 62.8444 5.16436 58.3169 5.04721 53.7949C4.9233 51.9307 5.00165 50.0586 5.28089 48.2113C5.44034 47.112 5.43394 45.9951 5.26189 44.8977C5.22689 43.2427 5.26468 41.5791 5.14949 39.9339C5.02315 38.1299 6.19643 37.2393 7.56149 36.6504C10.9917 35.0652 14.7452 34.304 18.522 34.4277C21.5991 34.5855 24.7369 34.1485 27.8167 34.2909C35.1045 34.6277 42.3728 35.1618 49.6517 35.5911C50.827 35.6604 52.0166 35.6008 53.4129 35.6008C53.6244 35.1803 53.9536 34.4954 54.3092 33.8234C56.5552 29.579 60.034 26.5046 64.5796 25.6287C67.1537 25.1306 69.802 25.1585 72.3651 25.7107C74.9281 26.2628 77.3529 27.3278 79.4936 28.8416C86.359 33.4906 93.6928 49.7423 94.0602 50.6993C94.5787 51.9491 94.8923 53.2744 94.9887 54.6241C95.1637 58.9986 93.2479 62.8044 90.3649 66.0039C89.3309 67.2694 87.97 68.2276 86.4299 68.7744C84.8899 69.3213 83.2295 69.4359 81.6289 69.1059C74.6041 67.8616 68.3385 63.9342 64.1568 58.1541C63.0268 56.5933 61.7539 55.1391 60.3375 53.3757ZM65.5943 27.792C65.7002 27.7702 65.5136 27.8412 65.3304 27.8418C60.041 27.8586 56.8121 32.0583 58.3363 36.8856C60.0499 42.313 63.1065 46.959 66.2576 51.5538C70.2856 57.4274 75.5779 61.5074 82.9671 62.3583C85.5514 62.6558 88.2421 62.6291 90.3897 60.4405C92.7948 57.9894 92.2906 55.1341 91.6652 52.438C90.4176 46.8487 88.0824 41.5595 84.7926 36.8718C81.5833 32.3488 77.4775 29.0182 71.9062 27.8554C69.9948 27.4565 67.8932 27.792 65.5943 27.792ZM52.13 37.8415C45.3742 36.549 38.3527 37.0649 31.5333 36.03C28.5548 35.7071 25.5556 35.6176 22.5631 35.7626C18.3168 35.7952 14.0389 35.7866 10.0057 37.7657C9.22144 38.1734 8.50151 38.6943 7.86902 39.3116C7.81329 39.4957 7.79715 39.6896 7.82168 39.8804C7.84621 40.0712 7.91085 40.2546 8.01134 40.4186C11.0328 40.896 17.3245 42.1826 17.4836 42.2283C18.6479 42.5627 32.6609 43.0763 38.4993 42.8089C42.9319 42.6059 47.369 42.1135 51.7985 41.6457C52.6663 41.554 53.0856 38.0243 52.13 37.8415ZM25.4277 61.5836L25.6123 60.8141C27.1183 61.0376 28.7863 60.9588 30.0701 61.5964C30.8549 61.9862 30.8125 63.7594 31.5801 64.3874C32.2545 64.9392 33.538 64.8707 34.5552 64.8289C34.8063 64.8185 35.3645 63.7519 35.2514 63.3419C35.104 62.8071 34.4284 62.4426 34.0054 62.0296C36.172 60.9961 36.5281 61.159 37.0903 63.4362C37.1713 63.7646 37.3853 64.2476 37.6331 64.3012C39.0977 64.6182 40.5905 64.8293 42.2412 65.104L42.3833 62.3915L42.7256 61.8878C44.1963 64.9106 46.4876 65.5418 49.1322 64.5613C49.1309 63.59 49.1298 62.755 49.1287 61.92C49.6768 62.4161 50.2711 62.8588 50.9035 63.242C51.5172 63.5817 52.2141 63.7423 52.9146 63.7053C53.3328 63.652 53.7906 63.0009 54.0702 62.5287C54.3732 61.925 54.6273 61.298 54.8299 60.6537L55.3071 60.6857C55.6035 61.3816 55.8994 62.0761 56.1946 62.7692C58.2309 61.885 59.0851 58.1462 58.0308 55.9697C55.6461 56.5283 53.3542 57.1443 51.038 57.5872C48.3355 58.2086 45.5915 58.6337 42.8276 58.8592C37.7055 59.0784 32.5792 59.0603 27.4689 58.9488C23.9024 58.871 20.3493 58.5428 16.8095 58.1974C13.7372 57.8976 10.692 57.4166 7.39652 56.9844C7.72979 58.2489 6.58122 59.7984 8.66837 60.3054C8.75941 59.8064 8.89157 59.3159 9.0635 58.8388C9.29811 58.417 9.56443 58.0137 9.86017 57.6323C10.2321 58.0268 10.5782 58.4448 10.8963 58.8837C11.2051 59.3642 11.3155 60.2637 11.6902 60.351C12.4301 60.38 13.1693 60.2787 13.8741 60.0518C14.3346 59.9105 14.8167 59.8527 15.2976 59.8811C16.3868 60.1367 17.4093 60.6748 18.5103 60.8281C19.6913 60.9252 20.8777 60.9382 22.0606 60.867C21.4617 61.7487 20.6402 62.4372 20.7076 62.9677C20.6992 63.2573 20.7635 63.5444 20.8947 63.8028C21.0259 64.0611 21.2199 64.2825 21.4587 64.4465C21.6976 64.6105 21.9738 64.712 22.262 64.7417C22.5502 64.7714 22.8413 64.7283 23.1086 64.6165C23.2355 63.4493 23.3611 62.2946 23.5317 60.7259C24.1345 61.5044 24.9902 62.0894 24.9342 62.627C24.6869 64.9996 26.257 65.0684 27.8489 65.0733C28.7132 65.076 29.6239 64.9428 29.6669 63.6291C29.7008 62.5943 29.5539 61.9335 28.3349 61.9075C27.3594 61.8867 26.3963 61.6978 25.4277 61.5836ZM34.7467 72.858C34.7846 72.2472 34.8747 71.6408 35.0161 71.0455C35.0811 70.8605 35.1832 70.6909 35.3163 70.5469C35.4494 70.403 35.6106 70.2879 35.7899 70.2087C35.9903 70.1456 36.5712 70.5805 36.5619 70.7959C36.4365 73.6863 38.4725 72.5672 39.8977 72.6415C40.2206 71.378 40.5145 70.2272 40.8085 69.0765L41.3707 69.0565C41.6144 69.4868 41.7771 69.9582 41.8508 70.4473C41.7713 72.298 42.0281 72.5343 43.5362 72.1177C44.1073 70.9038 44.5866 69.885 45.066 68.8662L45.8224 69.0611L45.8061 71.7763L48.2629 71.603C48.5871 70.5813 48.8248 69.8317 49.0968 68.9743C51.9486 71.6141 51.9239 71.6007 53.853 68.2679C54.1472 67.7597 54.7904 67.4404 55.2721 67.0338L55.5859 67.4416C55.4949 68.122 55.4037 68.8024 55.2626 69.8567C57.1437 68.2579 58.4444 66.9276 57.8595 65.0218C41.2391 68.2378 24.1478 68.1454 7.56315 64.75C7.46905 65.2116 7.42058 65.6815 7.41842 66.1526C7.51475 67.0743 7.69623 67.9827 7.84298 68.8965C8.14564 68.0477 8.44848 67.1989 8.7515 66.3502C8.77302 66.29 8.80163 66.232 8.85699 66.1029C10.319 65.5797 10.7603 66.1161 10.5009 67.6048C10.4467 68.2809 10.4609 68.9608 10.5433 69.6341C12.6818 67.5336 12.7573 67.55 13.7692 69.6934C14.1071 70.2244 14.4997 70.7184 14.9407 71.1674C14.974 70.7541 15.0638 70.3473 15.2076 69.9583C15.5302 69.4729 15.8822 69.0077 16.2616 68.5652C16.5833 68.9807 16.8655 69.4252 17.1044 69.8931C17.3189 70.5108 17.4941 71.1416 17.6291 71.7814C17.9594 71.5544 18.2166 71.2363 18.3694 70.8658C18.7041 70.3469 19.1164 69.4418 19.4586 69.4414C20.5504 69.4402 20.2901 70.2451 20.1595 71.0743C20.0908 71.5106 20.72 72.0206 21.1683 72.7011L22.4113 69.7004C23.3902 70.9383 24.1606 71.9125 25.184 73.2066C25.3684 72.6504 25.5928 72.1083 25.8555 71.5846C26.1625 71.1574 26.4945 70.7488 26.8497 70.3609C27.1531 70.7341 27.3862 71.1594 27.5375 71.6161C27.727 73.066 28.5441 73.2372 29.7107 72.9363C29.9033 72.2125 30.1498 71.5042 30.4482 70.8173C30.6023 70.5203 31.074 70.375 31.4019 70.1611C31.5529 70.4469 31.8264 70.7226 31.8357 71.0202C31.9075 73.3412 31.9551 73.3847 34.7468 72.858L34.7467 72.858ZM31.8949 46.7312C32.3854 48.0439 32.5608 49.6485 33.1021 49.7532C34.957 49.967 36.8276 50.0093 38.6902 49.8797C38.5056 49.3387 38.2824 49.0313 38.3325 48.7602C38.4746 48.1795 38.6568 47.6094 38.878 47.054C39.258 47.4024 39.6242 47.7671 40.0212 48.0954C40.6652 48.628 41.2493 49.3909 42.0049 49.5919C43.0893 49.7451 44.1883 49.7664 45.2778 49.6553C45.2304 49.2383 45.2134 48.8183 45.2272 48.3987C45.3042 47.7509 45.4442 47.1073 45.5579 46.4619C46.0102 46.9645 46.4519 47.4771 46.9181 47.9664C47.2575 48.3226 47.5964 48.9075 47.9926 48.9367C49.0366 48.9527 50.0805 48.8939 51.1161 48.7607L50.7305 48.374L52.1377 45.6274L53.4626 47.861L56.9314 46.7897C56.2451 45.1088 55.6374 43.6205 55.1242 42.3637C47.0528 44.3065 39.1477 44.5696 31.2785 44.7933C23.3349 45.1275 15.3822 44.406 7.6285 42.6475L7.5345 44.4418L7.9617 44.1003C8.53029 44.6283 9.13535 45.1156 9.77239 45.5585C10.3913 45.9351 11.3369 46.5709 11.7644 46.342C13.4336 45.4481 14.7108 46.4178 16.1478 46.6525C16.8377 46.7207 17.5326 46.7209 18.2225 46.6529C19.0946 46.6188 19.9437 46.5616 19.7337 47.8585C19.5616 48.9217 20.0786 49.3488 21.1094 49.3091C21.9069 49.2784 22.7037 49.303 23.5326 49.303C23.6398 48.474 23.7351 47.7371 23.8471 46.8711L25.7046 47.2253C24.9035 50.0181 25.8751 50.5042 30.2792 49.845C30.879 48.6892 31.3896 47.705 31.8949 46.7312ZM58.4659 51.8187C58.7519 49.8001 57.8968 48.5083 56.524 48.796C55.4652 48.9952 54.4222 49.2715 53.4036 49.6228C47.3978 51.7923 40.9695 52.5345 34.6272 51.7907C32.5858 51.5792 30.5126 51.5757 28.4558 51.4596C24.4114 51.2312 20.3479 51.1233 16.3316 50.7116C13.3259 50.4034 10.3817 49.6972 7.19843 49.1305C7.28594 50.2133 7.35965 51.1255 7.39583 51.5734C8.34593 51.4342 9.21774 51.0387 9.54027 51.3016C12.123 53.4072 12.356 53.4631 15.1444 51.4556C15.7134 53.3551 17.2216 53.1167 18.8801 53.3187C22.2982 53.8272 25.7526 54.051 29.2078 53.9877C30.1327 53.9473 31.0565 54.0045 31.9814 54.0047C33.7799 54.005 35.5887 53.9182 37.3711 54.0462C37.8249 54.0788 38.5563 54.7751 38.543 55.1783C38.4797 57.0897 39.6711 57.2718 41.1094 57.2619C42.2334 57.2542 43.3568 57.2604 44.6887 57.2604C44.0092 56.063 43.4297 55.0419 42.834 53.9921C44.0056 53.6454 44.9916 53.2446 45.6494 55.0326C45.7284 55.3535 45.8758 55.6535 46.0813 55.9122C46.2869 56.171 46.5459 56.3823 46.8406 56.5318C47.1353 56.6814 47.4588 56.7655 47.789 56.7786C48.1192 56.7917 48.4483 56.7334 48.7539 56.6077C48.656 55.9054 48.6516 55.1934 48.7406 54.49C48.9961 53.8634 49.3411 53.2771 49.7646 52.7494C50.1778 53.1686 50.5137 53.6575 50.757 54.1934C50.8605 55.0176 50.8732 55.8507 50.7948 56.6777L54.4332 55.5306C54.3935 54.1469 54.3635 53.1009 54.3335 52.0548L56.1783 53.1345C56.5991 51.3609 56.5991 51.3609 58.4659 51.8187ZM26.9609 55.0368C27.6138 57.9402 27.6138 57.9402 32.2065 57.3578C32.0672 54.9764 30.615 54.3135 26.9609 55.0368H26.9609ZM25.2926 57.3673C25.9706 54.222 23.654 54.8828 22.325 54.5694C21.8498 54.4573 21.1645 55.0816 20.5751 55.3698C20.904 55.9239 21.1162 56.8297 21.5847 56.9623C22.8061 57.2077 24.0471 57.3432 25.2927 57.3673H25.2926ZM67.0017 56.1675C65.4601 54.0537 64.0022 52.0548 62.201 49.5851C61.991 50.5668 61.6328 51.2419 61.827 51.5289C62.3863 52.2383 63.0201 52.8855 63.7175 53.4595C64.1628 53.8811 64.6347 54.2748 65.0947 54.681C63.9746 55.9244 65.224 56.3131 65.7984 57.0566L67.0017 56.1675ZM75.7808 62.9855L75.6276 62.3955C74.948 62.6159 74.2439 62.7523 73.5311 62.8019C73.273 62.7689 73.0244 62.6839 72.8002 62.5518C72.5761 62.4198 72.3811 62.2436 72.2272 62.0339C72.0311 61.5677 71.9296 61.0671 71.9288 60.5614L70.0072 61.5507L74.7769 64.5028L75.7808 62.9855ZM18.4939 64.0593C19.1134 62.2498 18.5183 61.4191 16.9018 61.5458C16.3005 61.6417 15.7437 61.9215 15.308 62.3468C15.6477 64.0835 17.116 63.9734 18.4939 64.0593ZM36.7266 54.6076C35.7186 54.8874 34.7831 55.1165 33.8787 55.4439C33.7854 55.4777 33.746 56.3202 33.9051 56.4081C34.8381 56.9235 35.8376 57.326 37.0919 57.8916C36.9418 56.542 36.8542 55.7541 36.7266 54.6076H36.7266ZM18.8912 56.4962C19.1496 54.5994 18.171 54.0835 16.7931 54.0997C16.5428 54.1027 16.0086 54.8042 16.0442 55.1097C16.2404 56.7918 17.5818 56.4587 18.8912 56.4962ZM58.0115 43.6357L58.6209 43.3747C57.6929 41.0214 56.7648 38.668 55.8368 36.3147L55.2747 36.5558C56.187 38.9158 57.0993 41.2757 58.0115 43.6357ZM10.6203 53.3041C10.585 55.9337 12.0165 55.8187 13.7065 55.5909C14.1051 52.8634 11.709 54.3211 10.6203 53.3041ZM68.7668 60.5605C70.3472 58.906 70.2884 58.6909 68.1201 57.5548C66.1551 59.0734 67.9744 59.6142 68.7668 60.5605ZM61.6718 48.6996C60.8221 47.4809 60.1214 46.476 59.1334 45.059C59.0465 47.8187 59.8857 48.9748 61.6718 48.6996H61.6718ZM11.1975 60.9162C11.2183 61.7885 11.2349 62.4806 11.2522 63.2056H13.1885C13.2694 62.5927 13.3491 61.9887 13.4308 61.3695L11.1975 60.9162ZM79.4315 66.8773L82.5445 65.9389L82.503 65.4849L79.8254 64.7316C79.7012 65.4084 79.604 65.938 79.4315 66.8773ZM86.7302 66.348C85.4039 65.2417 84.2608 64.9844 83.7829 67.2457L86.7302 66.348ZM17.6628 48.9776L17.8143 48.2608L14.9999 47.8709L14.8414 48.6593L17.6628 48.9776Z" fill="#2E564B"/>
<path d="M66.4708 31.5822C68.8037 32.0718 68.6617 34.9962 71.008 36.3379C70.7022 35.506 70.4576 34.6528 70.2761 33.7853C70.2717 33.1869 70.3401 32.5902 70.4799 32.0083C70.9034 32.3478 71.3427 32.6698 71.7473 33.0303C72.604 33.7935 73.3882 34.6483 74.3077 35.3271C74.9974 35.7128 75.7115 36.0529 76.4456 36.3454C77.589 36.9698 77.621 37.7956 76.6849 38.772C76.3991 39.0702 76.0188 39.4398 75.9862 39.7891C75.8546 41.2024 78.7659 44.837 80.1611 45.1165C82.7153 45.628 84.629 48.2243 84.8349 51.8637C84.9519 53.9323 84.7338 56.0132 86.2822 57.6583C86.4683 57.8559 86.2834 58.6841 86.009 58.9499C85.7804 59.1713 85.1241 59.1041 84.7382 58.9651C84.4628 58.8229 84.2255 58.6168 84.0462 58.3639L83.1412 59.9978C82.6193 59.7763 82.1307 59.4833 81.6894 59.1272C81.1908 58.6004 80.9409 57.8319 80.4261 57.328C80.0146 56.9055 79.4607 56.6513 78.8721 56.6148C76.9338 56.6924 76.5333 56.2385 76.8851 53.8618L78.868 53.9898C78.0122 52.1985 77.0563 50.4568 76.0047 48.7729C75.484 48.0206 74.3822 47.6756 73.5259 47.1748C72.005 46.4754 70.5606 45.6205 69.2158 44.6236C67.4007 42.9577 67.6388 40.6979 68.4472 38.401C68.6132 37.7642 68.5442 37.0889 68.2531 36.4988C67.5262 34.9927 66.6507 33.564 65.834 32.1047L66.4708 31.5822ZM70.5343 39.0734C69.3586 42.2826 70.6691 44.5844 73.8018 44.9318C72.6964 42.9499 71.6711 41.1116 70.5343 39.0734ZM81.2327 54.0746L81.6839 53.8163C81.2415 51.084 79.6608 49.0709 77.8872 47.1796L77.4465 47.4529C78.7086 49.6601 79.9706 51.8674 81.2327 54.0746ZM72.6413 37.8726L72.1707 38.1471C72.8043 39.3682 73.406 40.6084 74.0807 41.805C74.7226 42.9434 75.4407 44.0362 76.1254 45.1491L76.4069 44.9429C75.1517 42.5861 73.8965 40.2293 72.6413 37.8726V37.8726Z" fill="#2E564B"/>
</svg>
