<?xml version="1.0" encoding="UTF-8" standalone="no"?>
<svg
   xmlns:dc="http://purl.org/dc/elements/1.1/"
   xmlns:cc="http://creativecommons.org/ns#"
   xmlns:rdf="http://www.w3.org/1999/02/22-rdf-syntax-ns#"
   xmlns:svg="http://www.w3.org/2000/svg"
   xmlns="http://www.w3.org/2000/svg"
   xmlns:sodipodi="http://sodipodi.sourceforge.net/DTD/sodipodi-0.dtd"
   xmlns:inkscape="http://www.inkscape.org/namespaces/inkscape"
   width="243.47681mm"
   height="88.791656mm"
   viewBox="0 0 243.47681 88.791659"
   version="1.1"
   id="svg8"
   inkscape:version="1.0.2 (e86c8708, 2021-01-15)"
   sodipodi:docname="makerspace antwerpen logo zwarte tekst.svg"
   inkscape:export-filename="/Users/aliekens/makerspace antwerpen logo wit.png"
   inkscape:export-xdpi="600.30731"
   inkscape:export-ydpi="600.30731">
  <defs
     id="defs2" />
  <sodipodi:namedview
     id="base"
     pagecolor="#ffffff"
     bordercolor="#666666"
     borderopacity="1.0"
     inkscape:pageopacity="0"
     inkscape:pageshadow="2"
     inkscape:zoom="0.63834413"
     inkscape:cx="369.55752"
     inkscape:cy="212.10408"
     inkscape:document-units="mm"
     inkscape:current-layer="text1781"
     showgrid="true"
     showborder="true"
     inkscape:window-width="1920"
     inkscape:window-height="1080"
     inkscape:window-x="1440"
     inkscape:window-y="0"
     inkscape:window-maximized="0"
     showguides="true"
     fit-margin-top="10"
     fit-margin-left="10"
     fit-margin-right="10"
     fit-margin-bottom="10"
     inkscape:pagecheckerboard="false"
     inkscape:guide-bbox="true"
     inkscape:measure-start="0,0"
     inkscape:measure-end="0,0"
     inkscape:document-rotation="0">
    <inkscape:grid
       type="xygrid"
       id="grid841"
       originx="-561.5002"
       originy="-460.95837" />
  </sodipodi:namedview>
  <metadata
     id="metadata5">
    <rdf:RDF>
      <cc:Work
         rdf:about="">
        <dc:format>image/svg+xml</dc:format>
        <dc:type
           rdf:resource="http://purl.org/dc/dcmitype/StillImage" />
        <dc:title></dc:title>
      </cc:Work>
    </rdf:RDF>
  </metadata>
  <g
     inkscape:label="Layer 1"
     inkscape:groupmode="layer"
     id="layer1"
     transform="translate(-561.49999,348.00004)">
    <g
       id="g1979">
      <g
         aria-label="MAKERSPACE


ANTWERPEN"
         id="text1781"
         style="font-style:normal;font-variant:normal;font-weight:normal;font-stretch:normal;font-size:3.65809px;line-height:125%;font-family:'Open Sans';-inkscape-font-specification:'Open Sans, Normal';font-variant-ligatures:normal;font-variant-caps:normal;font-variant-numeric:normal;font-feature-settings:normal;text-align:center;letter-spacing:0px;word-spacing:0px;writing-mode:lr-tb;text-anchor:middle;fill:#000000;fill-opacity:1;stroke:none;stroke-width:0.264583px;stroke-linecap:butt;stroke-linejoin:miter;stroke-opacity:1">
        <path
           d="m 652.59776,-316.32629 -3.29627,-11.60861 h -0.0992 q 0.23151,2.96554 0.23151,4.60816 v 7.00045 h -3.85851 v -16.11756 h 5.79879 l 3.36241,11.44325 h 0.0882 l 3.29627,-11.44325 h 5.80981 v 16.11756 h -4.00182 v -7.06659 q 0,-0.55122 0.011,-1.2237 0.0221,-0.67248 0.15434,-3.29627 h -0.0992 l -3.25217,11.58656 z"
           style="font-style:normal;font-variant:normal;font-weight:800;font-stretch:normal;font-size:22.5778px;font-family:'Open Sans';-inkscape-font-specification:'Open Sans, Ultra-Bold';font-variant-ligatures:normal;font-variant-caps:normal;font-variant-numeric:normal;font-feature-settings:normal;text-align:end;writing-mode:lr-tb;text-anchor:end;fill:#000000;fill-opacity:1;stroke-width:0.264583px"
           id="path19567" />
        <path
           d="m 677.29223,-316.32629 -0.79375,-3.02067 h -5.23656 l -0.81579,3.02067 h -4.78456 l 5.2586,-16.1837 h 5.80982 l 5.32474,16.1837 z m -1.69775,-6.59255 -0.69453,-2.64583 q -0.24254,-0.88195 -0.59531,-2.28203 -0.34176,-1.40009 -0.452,-2.00643 -0.0992,0.56224 -0.39688,1.85208 -0.28663,1.28985 -1.28984,5.08221 z"
           style="font-style:normal;font-variant:normal;font-weight:800;font-stretch:normal;font-size:22.5778px;font-family:'Open Sans';-inkscape-font-specification:'Open Sans, Ultra-Bold';font-variant-ligatures:normal;font-variant-caps:normal;font-variant-numeric:normal;font-feature-settings:normal;text-align:end;writing-mode:lr-tb;text-anchor:end;fill:#000000;fill-opacity:1;stroke-width:0.264583px"
           id="path19569" />
        <path
           d="m 697.57697,-316.32629 h -4.91685 l -3.18602,-6.1626 -1.28985,0.77171 v 5.39089 h -4.37665 v -16.11756 h 4.37665 v 7.00045 q 0.33073,-0.65044 1.33394,-2.06155 l 3.38447,-4.9389 h 4.7625 l -5.08221,7.22093 z"
           style="font-style:normal;font-variant:normal;font-weight:800;font-stretch:normal;font-size:22.5778px;font-family:'Open Sans';-inkscape-font-specification:'Open Sans, Ultra-Bold';font-variant-ligatures:normal;font-variant-caps:normal;font-variant-numeric:normal;font-feature-settings:normal;text-align:end;writing-mode:lr-tb;text-anchor:end;fill:#000000;fill-opacity:1;stroke-width:0.264583px"
           id="path19571" />
        <path
           d="m 708.89894,-316.32629 h -9.5691 v -16.11756 h 9.5691 v 3.49471 h -5.2145 v 2.5356 h 4.82865 v 3.4947 h -4.82865 v 3.04272 h 5.2145 z"
           style="font-style:normal;font-variant:normal;font-weight:800;font-stretch:normal;font-size:22.5778px;font-family:'Open Sans';-inkscape-font-specification:'Open Sans, Ultra-Bold';font-variant-ligatures:normal;font-variant-caps:normal;font-variant-numeric:normal;font-feature-settings:normal;text-align:end;writing-mode:lr-tb;text-anchor:end;fill:#000000;fill-opacity:1;stroke-width:0.264583px"
           id="path19573" />
        <path
           d="m 716.07577,-322.19123 v 5.86494 h -4.35461 v -16.11756 h 5.28065 q 6.57049,0 6.57049,4.76251 0,2.80018 -2.73403,4.33256 l 4.69636,7.02249 h -4.93889 l -3.41754,-5.86494 z m 0,-3.27422 h 0.8158 q 2.28203,0 2.28203,-2.01745 0,-1.66467 -2.23794,-1.66467 h -0.85989 z"
           style="font-style:normal;font-variant:normal;font-weight:800;font-stretch:normal;font-size:22.5778px;font-family:'Open Sans';-inkscape-font-specification:'Open Sans, Ultra-Bold';font-variant-ligatures:normal;font-variant-caps:normal;font-variant-numeric:normal;font-feature-settings:normal;text-align:end;writing-mode:lr-tb;text-anchor:end;fill:#000000;fill-opacity:1;stroke-width:0.264583px"
           id="path19575" />
        <path
           d="m 737.56217,-321.22109 q 0,1.49931 -0.76068,2.66788 -0.76068,1.15756 -2.19384,1.80799 -1.43316,0.63941 -3.36242,0.63941 -1.60955,0 -2.70095,-0.22048 -1.09141,-0.23151 -2.27101,-0.79375 v -3.88056 q 1.24574,0.63941 2.59071,1.00321 1.34497,0.35278 2.46945,0.35278 0.97014,0 1.42214,-0.33073 0.45199,-0.34176 0.45199,-0.87092 0,-0.33073 -0.18741,-0.57327 -0.17639,-0.25356 -0.58429,-0.50712 -0.39688,-0.25356 -2.13872,-1.03628 -1.57647,-0.71658 -2.37023,-1.38907 -0.78272,-0.67248 -1.16857,-1.5434 -0.37483,-0.87092 -0.37483,-2.06155 0,-2.22691 1.62057,-3.47266 1.62058,-1.24575 4.45383,-1.24575 2.50252,0 5.10426,1.15756 l -1.33394,3.36241 q -2.25999,-1.03628 -3.90261,-1.03628 -0.84888,0 -1.23473,0.29765 -0.38585,0.29766 -0.38585,0.73863 0,0.47405 0.48507,0.84888 0.4961,0.37482 2.66789,1.36701 2.08359,0.93707 2.88837,2.01745 0.8158,1.06936 0.8158,2.70096 z"
           style="font-style:normal;font-variant:normal;font-weight:800;font-stretch:normal;font-size:22.5778px;font-family:'Open Sans';-inkscape-font-specification:'Open Sans, Ultra-Bold';font-variant-ligatures:normal;font-variant-caps:normal;font-variant-numeric:normal;font-feature-settings:normal;text-align:end;writing-mode:lr-tb;text-anchor:end;fill:#000000;fill-opacity:1;stroke-width:0.264583px"
           id="path19577" />
        <path
           d="m 751.77251,-327.31754 q 0,2.70096 -1.59853,4.17822 -1.5875,1.46623 -4.51997,1.46623 h -1.2237 v 5.3468 h -4.3546 v -16.11756 h 5.5783 q 3.05374,0 4.58612,1.33395 1.53238,1.33394 1.53238,3.79236 z m -7.3422,2.09462 h 0.79375 q 0.98117,0 1.55443,-0.55121 0.58429,-0.55122 0.58429,-1.52136 0,-1.6316 -1.80799,-1.6316 h -1.12448 z"
           style="font-style:normal;font-variant:normal;font-weight:800;font-stretch:normal;font-size:22.5778px;font-family:'Open Sans';-inkscape-font-specification:'Open Sans, Ultra-Bold';font-variant-ligatures:normal;font-variant-caps:normal;font-variant-numeric:normal;font-feature-settings:normal;text-align:end;writing-mode:lr-tb;text-anchor:end;fill:#000000;fill-opacity:1;stroke-width:0.264583px"
           id="path19579" />
        <path
           d="m 764.25203,-316.32629 -0.79375,-3.02067 h -5.23655 l -0.8158,3.02067 h -4.78455 l 5.2586,-16.1837 h 5.80981 l 5.32475,16.1837 z m -1.69774,-6.59255 -0.69453,-2.64583 q -0.24254,-0.88195 -0.59532,-2.28203 -0.34175,-1.40009 -0.45199,-2.00643 -0.0992,0.56224 -0.39688,1.85208 -0.28663,1.28985 -1.28984,5.08221 z"
           style="font-style:normal;font-variant:normal;font-weight:800;font-stretch:normal;font-size:22.5778px;font-family:'Open Sans';-inkscape-font-specification:'Open Sans, Ultra-Bold';font-variant-ligatures:normal;font-variant-caps:normal;font-variant-numeric:normal;font-feature-settings:normal;text-align:end;writing-mode:lr-tb;text-anchor:end;fill:#000000;fill-opacity:1;stroke-width:0.264583px"
           id="path19581" />
        <path
           d="m 777.94423,-329.10348 q -1.55442,0 -2.42534,1.27882 -0.87093,1.2678 -0.87093,3.50574 0,4.65226 3.53881,4.65226 1.06936,0 2.07257,-0.29766 1.00321,-0.29766 2.01745,-0.71658 v 3.68212 q -2.01745,0.89297 -4.56407,0.89297 -3.64904,0 -5.60035,-2.11667 -1.94028,-2.11667 -1.94028,-6.11849 0,-2.50252 0.93707,-4.3987 0.94809,-1.89619 2.71198,-2.91042 1.77492,-1.02527 4.16719,-1.02527 2.61277,0 4.99402,1.13551 l -1.33394,3.42856 q -0.89297,-0.41892 -1.78594,-0.70555 -0.89297,-0.28664 -1.91824,-0.28664 z"
           style="font-style:normal;font-variant:normal;font-weight:800;font-stretch:normal;font-size:22.5778px;font-family:'Open Sans';-inkscape-font-specification:'Open Sans, Ultra-Bold';font-variant-ligatures:normal;font-variant-caps:normal;font-variant-numeric:normal;font-feature-settings:normal;text-align:end;writing-mode:lr-tb;text-anchor:end;fill:#000000;fill-opacity:1;stroke-width:0.264583px"
           id="path19583" />
        <path
           d="m 794.9768,-316.32629 h -9.56911 v -16.11756 h 9.56911 v 3.49471 h -5.2145 v 2.5356 h 4.82865 v 3.4947 h -4.82865 v 3.04272 h 5.2145 z"
           style="font-style:normal;font-variant:normal;font-weight:800;font-stretch:normal;font-size:22.5778px;font-family:'Open Sans';-inkscape-font-specification:'Open Sans, Ultra-Bold';font-variant-ligatures:normal;font-variant-caps:normal;font-variant-numeric:normal;font-feature-settings:normal;text-align:end;writing-mode:lr-tb;text-anchor:end;fill:#000000;fill-opacity:1;stroke-width:0.264583px"
           id="path19585" />
        <path
           d="m 668.38281,-297.76158 -1.15032,-3.77652 h -5.78414 l -1.15032,3.77652 h -3.62458 l 5.59966,-15.93081 h 4.11292 l 5.62137,15.93081 z m -1.95337,-6.59805 q -1.59525,-5.13302 -1.80144,-5.80585 -0.19534,-0.67282 -0.28215,-1.0635 -0.35812,1.38907 -2.05104,6.86935 z"
           style="font-style:normal;font-variant:normal;font-weight:bold;font-stretch:normal;font-size:22.225px;font-family:'Open Sans';-inkscape-font-specification:'Open Sans, Bold';font-variant-ligatures:normal;font-variant-caps:normal;font-variant-numeric:normal;font-feature-settings:normal;text-align:end;writing-mode:lr-tb;text-anchor:end;fill:#000000;fill-opacity:1;stroke-width:0.264583px"
           id="path19587" />
        <path
           d="m 688.06843,-297.76158 h -4.27571 l -6.9019,-12.00237 h -0.0977 q 0.20619,3.17965 0.20619,4.53616 v 7.46621 h -3.00602 v -15.8657 h 4.24315 l 6.89106,11.883 h 0.076 q -0.16278,-3.09284 -0.16278,-4.37338 v -7.50962 h 3.02772 z"
           style="font-style:normal;font-variant:normal;font-weight:bold;font-stretch:normal;font-size:22.225px;font-family:'Open Sans';-inkscape-font-specification:'Open Sans, Bold';font-variant-ligatures:normal;font-variant-caps:normal;font-variant-numeric:normal;font-feature-settings:normal;text-align:end;writing-mode:lr-tb;text-anchor:end;fill:#000000;fill-opacity:1;stroke-width:0.264583px"
           id="path19589" />
        <path
           d="m 698.17169,-297.76158 h -3.36414 v -13.06587 h -4.30826 v -2.79983 h 11.98066 v 2.79983 h -4.30826 z"
           style="font-style:normal;font-variant:normal;font-weight:bold;font-stretch:normal;font-size:22.225px;font-family:'Open Sans';-inkscape-font-specification:'Open Sans, Bold';font-variant-ligatures:normal;font-variant-caps:normal;font-variant-numeric:normal;font-feature-settings:normal;text-align:end;writing-mode:lr-tb;text-anchor:end;fill:#000000;fill-opacity:1;stroke-width:0.264583px"
           id="path19591" />
        <path
           d="m 720.39669,-297.76158 h -3.83077 l -2.14871,-8.33438 q -0.11937,-0.44493 -0.41238,-1.83399 -0.28215,-1.39992 -0.32556,-1.87741 -0.0651,0.58601 -0.32556,1.88826 -0.26045,1.29139 -0.40152,1.84485 l -2.13786,8.31267 h -3.81992 l -4.04782,-15.8657 h 3.30988 l 2.02933,8.65994 q 0.53175,2.3983 0.7705,4.15633 0.0651,-0.61856 0.293,-1.90996 0.23875,-1.30225 0.44494,-2.01848 l 2.31149,-8.88783 h 3.17965 l 2.31148,8.88783 q 0.15193,0.59686 0.37983,1.82314 0.22789,1.22629 0.34726,2.1053 0.10852,-0.84646 0.34727,-2.1053 0.23874,-1.26969 0.43408,-2.05103 l 2.01848,-8.65994 h 3.30988 z"
           style="font-style:normal;font-variant:normal;font-weight:bold;font-stretch:normal;font-size:22.225px;font-family:'Open Sans';-inkscape-font-specification:'Open Sans, Bold';font-variant-ligatures:normal;font-variant-caps:normal;font-variant-numeric:normal;font-feature-settings:normal;text-align:end;writing-mode:lr-tb;text-anchor:end;fill:#000000;fill-opacity:1;stroke-width:0.264583px"
           id="path19593" />
        <path
           d="m 735.56786,-297.76158 h -9.13743 v -15.8657 h 9.13743 v 2.75642 h -5.77329 v 3.48351 h 5.37176 v 2.75642 h -5.37176 v 4.09122 h 5.77329 z"
           style="font-style:normal;font-variant:normal;font-weight:bold;font-stretch:normal;font-size:22.225px;font-family:'Open Sans';-inkscape-font-specification:'Open Sans, Bold';font-variant-ligatures:normal;font-variant-caps:normal;font-variant-numeric:normal;font-feature-settings:normal;text-align:end;writing-mode:lr-tb;text-anchor:end;fill:#000000;fill-opacity:1;stroke-width:0.264583px"
           id="path19595" />
        <path
           d="m 742.25272,-306.5843 h 1.08521 q 1.59525,0 2.35489,-0.53175 0.75965,-0.53175 0.75965,-1.67122 0,-1.12861 -0.78135,-1.6061 -0.7705,-0.47749 -2.39831,-0.47749 h -1.02009 z m 0,2.73472 v 6.088 h -3.36413 v -15.8657 h 4.62297 q 3.23391,0 4.78575,1.18287 1.55185,1.17202 1.55185,3.57033 0,1.39991 -0.7705,2.49597 -0.77049,1.08521 -2.18126,1.70377 3.58118,5.35006 4.66638,6.91276 h -3.7331 l -3.78737,-6.088 z"
           style="font-style:normal;font-variant:normal;font-weight:bold;font-stretch:normal;font-size:22.225px;font-family:'Open Sans';-inkscape-font-specification:'Open Sans, Bold';font-variant-ligatures:normal;font-variant-caps:normal;font-variant-numeric:normal;font-feature-settings:normal;text-align:end;writing-mode:lr-tb;text-anchor:end;fill:#000000;fill-opacity:1;stroke-width:0.264583px"
           id="path19597" />
        <path
           d="m 756.9247,-306.16107 h 1.1069 q 1.55185,0 2.32234,-0.60771 0.7705,-0.61857 0.7705,-1.79059 0,-1.18288 -0.65112,-1.74718 -0.64027,-0.56431 -2.01849,-0.56431 h -1.53013 z m 7.59643,-2.51767 q 0,2.56108 -1.6061,3.91759 -1.59525,1.3565 -4.54701,1.3565 h -1.44332 v 5.64307 h -3.36414 v -15.8657 h 5.06791 q 2.88664,0 4.38423,1.24799 1.50843,1.23713 1.50843,3.70055 z"
           style="font-style:normal;font-variant:normal;font-weight:bold;font-stretch:normal;font-size:22.225px;font-family:'Open Sans';-inkscape-font-specification:'Open Sans, Bold';font-variant-ligatures:normal;font-variant-caps:normal;font-variant-numeric:normal;font-feature-settings:normal;text-align:end;writing-mode:lr-tb;text-anchor:end;fill:#000000;fill-opacity:1;stroke-width:0.264583px"
           id="path19599" />
        <path
           d="M 776.67543,-297.76158 H 767.538 v -15.8657 h 9.13743 v 2.75642 h -5.77329 v 3.48351 h 5.37176 v 2.75642 h -5.37176 v 4.09122 h 5.77329 z"
           style="font-style:normal;font-variant:normal;font-weight:bold;font-stretch:normal;font-size:22.225px;font-family:'Open Sans';-inkscape-font-specification:'Open Sans, Bold';font-variant-ligatures:normal;font-variant-caps:normal;font-variant-numeric:normal;font-feature-settings:normal;text-align:end;writing-mode:lr-tb;text-anchor:end;fill:#000000;fill-opacity:1;stroke-width:0.264583px"
           id="path19601" />
        <path
           d="m 794.07126,-297.76158 h -4.27571 l -6.9019,-12.00237 h -0.0977 q 0.20619,3.17965 0.20619,4.53616 v 7.46621 h -3.00602 v -15.8657 h 4.24315 l 6.89106,11.883 h 0.076 q -0.16278,-3.09284 -0.16278,-4.37338 v -7.50962 h 3.02772 z"
           style="font-style:normal;font-variant:normal;font-weight:bold;font-stretch:normal;font-size:22.225px;font-family:'Open Sans';-inkscape-font-specification:'Open Sans, Bold';font-variant-ligatures:normal;font-variant-caps:normal;font-variant-numeric:normal;font-feature-settings:normal;text-align:end;writing-mode:lr-tb;text-anchor:end;fill:#000000;fill-opacity:1;stroke-width:0.264583px"
           id="path19603" />
      </g>
      <path
         inkscape:export-ydpi="254"
         inkscape:export-xdpi="254"
         inkscape:export-filename="/Users/aliekens/makerspace antwerpen logo alleen.png"
         inkscape:connector-curvature="0"
         id="path1783"
         d="m 582.08332,-306.25004 v 15.875 l -10.58333,-5.29167 v -15.875 z"
         style="opacity:1;fill:#610f61;fill-opacity:1;fill-rule:nonzero;stroke:none;stroke-width:0;stroke-linecap:square;stroke-linejoin:round;stroke-miterlimit:4;stroke-dasharray:none;stroke-dashoffset:0;stroke-opacity:1;paint-order:normal" />
      <path
         inkscape:export-ydpi="254"
         inkscape:export-xdpi="254"
         inkscape:export-filename="/Users/aliekens/makerspace antwerpen logo alleen.png"
         inkscape:connector-curvature="0"
         id="path1785"
         d="m 582.08332,-306.25004 10.58334,-5.29167 v 15.875 l -10.58334,5.29167 z"
         style="opacity:1;fill:#000000;fill-opacity:1;fill-rule:nonzero;stroke:none;stroke-width:0;stroke-linecap:square;stroke-linejoin:round;stroke-miterlimit:4;stroke-dasharray:none;stroke-dashoffset:0;stroke-opacity:1;paint-order:normal" />
      <path
         inkscape:export-ydpi="2540"
         inkscape:export-xdpi="2540"
         inkscape:export-filename="/Users/aliekens/makerspace antwerpen geel.png"
         inkscape:connector-curvature="0"
         id="path1787"
         d="m 571.49999,-311.54171 10.58333,-5.29167 10.58334,5.29167 -10.58334,5.29167 z"
         style="opacity:1;fill:#d8d626;fill-opacity:1;fill-rule:nonzero;stroke:none;stroke-width:0;stroke-linecap:square;stroke-linejoin:round;stroke-miterlimit:4;stroke-dasharray:none;stroke-dashoffset:0;stroke-opacity:1;paint-order:normal" />
      <path
         inkscape:export-ydpi="2540"
         inkscape:export-xdpi="2540"
         inkscape:export-filename="/Users/aliekens/makerspace antwerpen geel.png"
         style="opacity:1;fill:#d8d626;fill-opacity:1;fill-rule:nonzero;stroke:none;stroke-width:0;stroke-linecap:square;stroke-linejoin:round;stroke-miterlimit:4;stroke-dasharray:none;stroke-dashoffset:0;stroke-opacity:1;paint-order:normal"
         d="m 592.66666,-285.08338 v 15.875 l -10.58333,-5.29167 v -15.87499 z"
         id="path1789"
         inkscape:connector-curvature="0" />
      <path
         inkscape:export-ydpi="254"
         inkscape:export-xdpi="254"
         inkscape:export-filename="/Users/aliekens/makerspace antwerpen logo alleen.png"
         style="opacity:1;fill:#610f61;fill-opacity:1;fill-rule:nonzero;stroke:none;stroke-width:0;stroke-linecap:square;stroke-linejoin:round;stroke-miterlimit:4;stroke-dasharray:none;stroke-dashoffset:0;stroke-opacity:1;paint-order:normal"
         d="m 603.24998,-290.37509 -10.58334,5.29167 v 15.875 l 10.58334,-5.29167 10.58333,5.29167 v -15.875 z"
         id="path1791"
         inkscape:connector-curvature="0" />
      <path
         inkscape:export-ydpi="254"
         inkscape:export-xdpi="254"
         inkscape:export-filename="/Users/aliekens/makerspace antwerpen logo alleen.png"
         style="opacity:1;fill:#fbfbfb;fill-opacity:1;fill-rule:nonzero;stroke:none;stroke-width:0;stroke-linecap:square;stroke-linejoin:round;stroke-miterlimit:4;stroke-dasharray:none;stroke-dashoffset:0;stroke-opacity:1;paint-order:normal"
         d="m 582.08333,-290.37504 10.58333,-5.29167 10.58334,5.29167 -10.58334,5.29166 z"
         id="path1793"
         inkscape:connector-curvature="0" />
      <path
         inkscape:export-ydpi="254"
         inkscape:export-xdpi="254"
         inkscape:export-filename="/Users/aliekens/makerspace antwerpen logo alleen.png"
         inkscape:connector-curvature="0"
         id="path1795"
         d="m 603.24999,-306.25005 v 15.87501 l -10.58333,-5.29167 v -15.875 z"
         style="opacity:1;fill:#610f61;fill-opacity:1;fill-rule:nonzero;stroke:none;stroke-width:0;stroke-linecap:square;stroke-linejoin:round;stroke-miterlimit:4;stroke-dasharray:none;stroke-dashoffset:0;stroke-opacity:1;paint-order:normal" />
      <path
         inkscape:export-ydpi="254"
         inkscape:export-xdpi="254"
         inkscape:export-filename="/Users/aliekens/makerspace antwerpen logo alleen.png"
         style="opacity:1;fill:#000000;fill-opacity:1;fill-rule:nonzero;stroke:none;stroke-width:0;stroke-linecap:square;stroke-linejoin:round;stroke-miterlimit:4;stroke-dasharray:none;stroke-dashoffset:0;stroke-opacity:1;paint-order:normal"
         d="m 613.83331,-311.54175 -10.58333,5.29166 v 15.875 l 10.58333,5.29167 10.58333,-5.29167 -10.58333,-5.29167 z"
         id="path1797"
         inkscape:connector-curvature="0" />
      <path
         inkscape:export-ydpi="254"
         inkscape:export-xdpi="254"
         inkscape:export-filename="/Users/aliekens/makerspace antwerpen logo alleen.png"
         inkscape:connector-curvature="0"
         id="path1799"
         d="m 592.66666,-311.54171 10.58333,-5.29167 10.58334,5.29167 -10.58334,5.29166 z"
         style="opacity:1;fill:#fbfbfb;fill-opacity:1;fill-rule:nonzero;stroke:none;stroke-width:0;stroke-linecap:square;stroke-linejoin:round;stroke-miterlimit:4;stroke-dasharray:none;stroke-dashoffset:0;stroke-opacity:1;paint-order:normal" />
      <path
         inkscape:export-ydpi="2540"
         inkscape:export-xdpi="2540"
         inkscape:export-filename="/Users/aliekens/makerspace antwerpen geel.png"
         style="opacity:1;fill:#d8d626;fill-opacity:1;fill-rule:nonzero;stroke:none;stroke-width:0;stroke-linecap:square;stroke-linejoin:round;stroke-miterlimit:4;stroke-dasharray:none;stroke-dashoffset:0;stroke-opacity:1;paint-order:normal"
         d="m 613.83333,-285.08338 10.58334,-5.29166 v 15.875 l -10.58334,5.29166 z"
         id="path1801"
         inkscape:connector-curvature="0" />
      <path
         inkscape:export-ydpi="254"
         inkscape:export-xdpi="254"
         inkscape:export-filename="/Users/aliekens/makerspace antwerpen logo alleen.png"
         inkscape:connector-curvature="0"
         id="path1803"
         d="m 624.41666,-306.25004 v 15.875 l -10.58333,-5.29167 v -15.875 z"
         style="opacity:1;fill:#f9f9f9;fill-opacity:1;fill-rule:nonzero;stroke:none;stroke-width:0;stroke-linecap:square;stroke-linejoin:round;stroke-miterlimit:4;stroke-dasharray:none;stroke-dashoffset:0;stroke-opacity:1;paint-order:normal" />
      <path
         inkscape:export-ydpi="2540"
         inkscape:export-xdpi="2540"
         inkscape:export-filename="/Users/aliekens/makerspace antwerpen geel.png"
         inkscape:connector-curvature="0"
         id="path1805"
         d="M 624.41666,-306.25004 635,-311.54171 v 15.875 l -10.58334,5.29167 z"
         style="opacity:1;fill:#d8d626;fill-opacity:1;fill-rule:nonzero;stroke:none;stroke-width:0;stroke-linecap:square;stroke-linejoin:round;stroke-miterlimit:4;stroke-dasharray:none;stroke-dashoffset:0;stroke-opacity:1;paint-order:normal" />
      <path
         inkscape:export-ydpi="254"
         inkscape:export-xdpi="254"
         inkscape:export-filename="/Users/aliekens/makerspace antwerpen logo alleen.png"
         inkscape:connector-curvature="0"
         id="path1807"
         d="m 613.83333,-311.54171 10.58333,-5.29167 10.58334,5.29167 -10.58334,5.29167 z"
         style="opacity:1;fill:#000000;fill-opacity:1;fill-rule:nonzero;stroke:none;stroke-width:0;stroke-linecap:square;stroke-linejoin:round;stroke-miterlimit:4;stroke-dasharray:none;stroke-dashoffset:0;stroke-opacity:1;paint-order:normal" />
      <path
         inkscape:export-ydpi="254"
         inkscape:export-xdpi="254"
         inkscape:export-filename="/Users/aliekens/makerspace antwerpen logo alleen.png"
         style="opacity:1;fill:#000000;fill-opacity:1;fill-rule:nonzero;stroke:none;stroke-width:0;stroke-linecap:square;stroke-linejoin:round;stroke-miterlimit:4;stroke-dasharray:none;stroke-dashoffset:0;stroke-opacity:1;paint-order:normal"
         d="m 613.83333,-327.41671 v 15.875 L 603.25,-316.83338 v -15.875 z"
         id="path1809"
         inkscape:connector-curvature="0" />
      <path
         inkscape:export-ydpi="2540"
         inkscape:export-xdpi="2540"
         inkscape:export-filename="/Users/aliekens/makerspace antwerpen geel.png"
         style="opacity:1;fill:#d8d626;fill-opacity:1;fill-rule:nonzero;stroke:none;stroke-width:0;stroke-linecap:square;stroke-linejoin:round;stroke-miterlimit:4;stroke-dasharray:none;stroke-dashoffset:0;stroke-opacity:1;paint-order:normal"
         d="m 613.83333,-327.41671 10.58334,-5.29167 v 15.875 l -10.58334,5.29167 z"
         id="path1811"
         inkscape:connector-curvature="0" />
      <path
         inkscape:export-ydpi="254"
         inkscape:export-xdpi="254"
         inkscape:export-filename="/Users/aliekens/makerspace antwerpen logo alleen.png"
         style="opacity:1;fill:#610f61;fill-opacity:1;fill-rule:nonzero;stroke:none;stroke-width:0;stroke-linecap:square;stroke-linejoin:round;stroke-miterlimit:4;stroke-dasharray:none;stroke-dashoffset:0;stroke-opacity:1;paint-order:normal"
         d="m 603.25,-332.70838 10.58333,-5.29166 10.58334,5.29166 -10.58334,5.29167 z"
         id="path1813"
         inkscape:connector-curvature="0" />
      <path
         inkscape:export-ydpi="254"
         inkscape:export-xdpi="254"
         inkscape:export-filename="/Users/aliekens/makerspace antwerpen logo alleen.png"
         inkscape:connector-curvature="0"
         id="path1815"
         d="m 592.66666,-327.41671 v 15.875 l -10.58333,-5.29167 v -15.875 z"
         style="opacity:1;fill:#610f61;fill-opacity:1;fill-rule:nonzero;stroke:none;stroke-width:0;stroke-linecap:square;stroke-linejoin:round;stroke-miterlimit:4;stroke-dasharray:none;stroke-dashoffset:0;stroke-opacity:1;paint-order:normal" />
      <path
         inkscape:export-ydpi="2540"
         inkscape:export-xdpi="2540"
         inkscape:export-filename="/Users/aliekens/makerspace antwerpen geel.png"
         inkscape:connector-curvature="0"
         id="path1817"
         d="m 592.66666,-327.41671 10.58334,-5.29167 v 15.875 l -10.58334,5.29167 z"
         style="opacity:1;fill:#d8d626;fill-opacity:1;fill-rule:nonzero;stroke:none;stroke-width:0;stroke-linecap:square;stroke-linejoin:round;stroke-miterlimit:4;stroke-dasharray:none;stroke-dashoffset:0;stroke-opacity:1;paint-order:normal" />
      <path
         inkscape:export-ydpi="254"
         inkscape:export-xdpi="254"
         inkscape:export-filename="/Users/aliekens/makerspace antwerpen logo alleen.png"
         inkscape:connector-curvature="0"
         id="path1819"
         d="m 582.08333,-332.70838 10.58333,-5.29166 10.58334,5.29166 -10.58334,5.29167 z"
         style="opacity:1;fill:#fbfbfb;fill-opacity:1;fill-rule:nonzero;stroke:none;stroke-width:0;stroke-linecap:square;stroke-linejoin:round;stroke-miterlimit:4;stroke-dasharray:none;stroke-dashoffset:0;stroke-opacity:1;paint-order:normal" />
      <text
         xml:space="preserve"
         style="font-style:normal;font-variant:normal;font-weight:normal;font-stretch:normal;font-size:4.23333px;line-height:125%;font-family:'Open Sans';-inkscape-font-specification:'Open Sans, Normal';font-variant-ligatures:normal;font-variant-caps:normal;font-variant-numeric:normal;font-feature-settings:normal;text-align:center;letter-spacing:0px;word-spacing:0px;writing-mode:lr-tb;text-anchor:middle;fill:#000000;fill-opacity:1;stroke:none;stroke-width:0.264583px;stroke-linecap:butt;stroke-linejoin:miter;stroke-opacity:1"
         x="745.78717"
         y="-44.198067"
         id="text3616" />
    </g>
    <g
       id="g2029"
       transform="matrix(0.40945023,0,0,0.40945023,303.43537,-66.022546)"
       style="stroke-width:2.4423" />
  </g>
</svg>
