<svg width="1018" height="208" viewBox="0 0 1018 208" fill="none" xmlns="http://www.w3.org/2000/svg">
<path d="M616.207 54.5922C711.742 56.8614 883.014 38.405 961.547 39.464C1040.89 40.6743 1014.17 61.0973 1011.74 81.3691C1009.31 101.641 1030.36 174.559 966.404 180.308C902.445 186.056 752.666 177.585 659.561 185.602C567.265 193.469 531.642 165.028 459.586 176.828C387.53 188.628 278.232 188.023 195.652 178.946C113.88 169.869 49.5913 187.849 19.6356 170.3C-11.1297 152.6 -6.64692 67.4512 39.5011 54.5922C84.8395 41.7332 79.0873 47.6332 138.999 39.464C198.91 31.4461 322.761 41.4307 359.194 32.8076C395.626 24.3358 445.822 15.5615 474.159 22.5204C502.495 29.4794 521.482 52.323 616.207 54.5922Z" fill="#41B37E"/>
<g clip-path="url(#clip0_854_31)">
<path d="M420.751 53.5673C422.626 52.498 424.238 51.6288 425.795 50.6595C426.258 50.3321 426.627 49.8874 426.862 49.3709C427.362 48.3431 427.681 47.2218 428.192 46.2009C429.614 43.39 431.513 40.8469 433.805 38.6847C435.612 36.956 437.277 35.0031 439.639 34.0431C442.164 32.9286 444.958 32.5733 447.682 33.0204C450.319 33.4915 452.379 34.9952 454.263 36.6752C455.549 37.9691 456.597 39.4804 457.356 41.1393C457.844 42.0788 457.716 43.3586 458.006 44.4405C458.289 45.7629 458.248 47.1344 457.886 48.4374C457.523 49.7405 456.851 50.9363 455.925 51.9227C453.376 54.8561 450.216 57.1959 446.666 58.7779C445.357 59.3477 443.965 59.7028 442.543 59.8296C440.093 60.056 437.627 59.9993 435.17 60.129C433.764 60.2033 432.361 60.4045 430.959 60.567C430.735 60.5885 430.521 60.6699 430.339 60.8027C428.897 61.9523 427.266 62.8423 425.519 63.4329C425.256 63.5241 424.891 63.6588 424.702 63.5448C423.702 62.9383 422.95 63.6701 422.174 64.0926C421.435 64.4949 420.789 64.8273 419.956 64.3419C419.555 64.108 418.97 64.2336 418.501 64.089C418.165 63.9871 417.871 63.7775 417.666 63.4924C417.303 62.9293 417.112 62.2349 416.721 61.7005C416.516 61.4436 416.4 61.1272 416.389 60.7987C416.379 60.4702 416.476 60.1473 416.665 59.8784C416.777 59.6777 416.865 59.4644 416.927 59.2431C417.309 57.7742 418.245 56.5105 419.539 55.7175C419.756 55.6099 419.937 55.4421 420.06 55.2341C420.184 55.0261 420.245 54.7869 420.236 54.5452C420.247 54.1487 420.645 53.7541 420.751 53.5673ZM428.411 53.1899C430.889 51.7792 433.219 50.4838 435.509 49.1127C435.684 48.9734 435.829 48.8 435.935 48.6031C436.041 48.4061 436.105 48.1897 436.125 47.967C436.158 46.6363 436.624 45.3526 437.452 44.3101C437.617 44.1375 437.823 44.009 438.05 43.9363C438.277 43.8635 438.519 43.8489 438.754 43.8938C439.654 44.358 440.191 46.3788 439.307 47.2627C438.799 47.7701 438.264 48.255 437.808 48.8094C437.599 49.0637 437.37 49.6757 437.459 49.7562C437.826 50.0901 438.012 50.7994 438.826 50.4093C439.701 50.028 440.615 49.7441 441.552 49.5628C441.765 49.5165 441.986 49.5153 442.2 49.5593C442.414 49.6033 442.617 49.6916 442.795 49.8184C442.973 49.9452 443.122 50.1078 443.234 50.2958C443.345 50.4838 443.416 50.693 443.442 50.91C443.453 51.188 443.407 51.4652 443.307 51.7246C443.206 51.9841 443.054 52.2203 442.859 52.4188C442.18 53.0736 439.593 53.0583 438.866 52.4468C438.648 52.2387 438.361 52.1189 438.06 52.1107C437.759 52.1026 437.466 52.2067 437.238 52.4028C435.144 53.6601 433.024 54.867 430.925 56.1127C430.31 56.4773 430.06 56.9486 430.573 57.6334C431.144 58.3949 431.473 59.1072 432.792 58.9795C435.185 58.7478 437.61 59.0862 440.023 59.0821C443.398 59.1944 446.714 58.1755 449.444 56.1875C451.482 54.6399 453.421 52.9655 455.249 51.1742C455.881 50.5403 456.378 49.7852 456.711 48.9544C457.044 48.1236 457.206 47.2341 457.187 46.3393C457.184 43.5289 456.28 40.7935 454.607 38.5354C453.607 37.2387 452.358 36.1553 450.933 35.3489C449.8 34.6465 448.369 34.447 447.061 34.0586C444.848 33.4018 442.659 33.9232 440.577 34.6996C438.257 35.6647 436.178 37.1307 434.49 38.9926C431.726 41.8552 429.432 45.137 427.694 48.7163C427.381 49.3547 426.927 50.0526 427.367 50.8709C427.73 51.5469 428.005 52.2767 428.411 53.1899ZM428.922 53.9278L429.617 55.7459C432.16 54.2134 434.64 52.7187 437.214 51.1677L436.123 49.8663C433.709 51.2276 431.343 52.5622 428.922 53.9278L428.922 53.9278ZM418.753 58.2142C418.817 59.5986 421.569 61.1356 423.213 60.4683C421.6 59.6532 420.191 58.9409 418.753 58.2142ZM422.508 62.3566L422.513 62.1004C421.693 61.8216 420.891 61.491 420.113 61.1105C418.2 60.0357 418.217 60.0036 417.792 60.3207C419.007 61.1379 420.18 61.9273 421.518 62.8273L422.508 62.3566ZM439.266 51.1172L439.299 51.5066C439.726 51.7491 440.203 51.8909 440.693 51.9211C441.184 51.9513 441.675 51.8692 442.128 51.681C442.238 51.6065 442.328 51.5059 442.39 51.3883C442.452 51.2707 442.484 51.1396 442.483 51.0066C442.431 50.8864 442.348 50.7822 442.243 50.7048C442.137 50.6273 442.012 50.5794 441.882 50.566C441.004 50.6981 440.137 50.9246 439.266 51.1172L439.266 51.1172ZM438.237 44.6444L437.088 47.7092C439.229 46.6488 439.413 45.7046 438.237 44.6444L438.237 44.6444ZM421.649 58.7883L421.886 58.5586C421.777 58.2166 421.648 57.881 421.501 57.5535C421.307 57.1754 421.096 56.5676 420.826 56.5332C420.47 56.4879 420.05 56.9034 419.372 57.2792L421.649 58.7883Z" fill="#DDE7DC"/>
<path d="M453.848 59.3012C453.998 59.8165 454.1 60.2256 454.237 60.6209C454.469 61.2953 454.71 61.9668 454.971 62.6292C456.131 65.5764 457.308 68.5161 458.446 71.4729C458.528 71.6859 458.352 72.0138 458.295 72.2883C457.25 71.3381 456.316 70.2719 455.512 69.1103C454.099 66.9705 452.707 64.8149 451.274 62.6901C450.976 62.2493 450.197 60.6307 450.582 60.7413C451.699 61.0622 453.476 59.5425 453.848 59.3012ZM455.85 68.2809C455.978 68.202 456.107 68.1231 456.236 68.0443L453.326 60.9401L452.079 61.7498L455.85 68.2809Z" fill="#DDE7DC"/>
<path d="M473.749 30.1146C472.652 30.9135 471.64 31.6081 470.671 32.3658C468.939 33.7214 467.23 35.1105 465.517 36.495C464.972 36.9364 464.722 36.8283 464.378 36.1869C464.121 35.7082 462.777 33.6604 463.113 33.537C465.171 32.7813 467.253 32.1034 469.308 31.3427C470.228 31.0026 473.088 29.6532 473.749 30.1146ZM464.02 34.2707C465.028 35.4632 465.124 35.5526 465.604 35.1949C466.892 34.2368 468.144 33.2253 469.41 32.235L469.336 32.1534C467.589 32.8491 465.843 33.5449 464.02 34.2708L464.02 34.2707Z" fill="#DDE7DC"/>
<path d="M434.531 30.1479C434.865 30.8787 434.603 31.5198 433.803 31.9799C433.337 32.2396 432.899 32.5487 432.499 32.9019C431.975 33.3791 431.763 33.3036 431.498 32.6335C430.888 31.0915 430.183 29.5926 429.506 28.081C428.949 26.8355 428.359 25.606 427.835 24.3451C427.812 24.2139 427.821 24.0793 427.861 23.9522C427.9 23.8252 427.969 23.7093 428.062 23.6142C428.222 23.4857 428.662 23.4672 428.778 23.5974C430.714 25.7625 432.619 27.9587 434.531 30.1479ZM429.652 25.8353L429.509 25.9638L432.085 31.5766C433.6 31.0999 433.743 30.7952 432.892 29.7173C431.847 28.393 430.735 27.1267 429.652 25.8353Z" fill="#DDE7DC"/>
<path d="M444.876 28.931C445.901 26.5346 447.762 21.484 447.896 21.441C448.661 23.6351 449.275 25.879 449.734 28.1568C449.888 28.9622 449.649 29.2204 448.904 29.0659C448.318 28.9445 444.942 29.017 444.876 28.931ZM447.899 24.7996C447.404 25.811 446.985 26.6659 446.499 27.6568C447.212 27.7482 447.782 27.8213 448.491 27.9122L447.899 24.7996Z" fill="#DDE7DC"/>
<path d="M468.614 54.6904C468.031 54.7653 464.347 53.8017 462.781 53.6181C461.565 53.4756 460.671 53.3245 461.612 51.5478C461.896 51.0116 461.866 50.3084 462.044 49.7005C462.214 49.1182 462.517 49.1114 462.952 49.4931C464.656 50.9892 466.388 52.4507 468.102 53.9346C468.295 54.1706 468.467 54.4235 468.614 54.6904V54.6904ZM462.777 50.6447C462.756 50.9017 462.708 51.1558 462.634 51.403C462.245 52.2172 462.376 52.6357 463.327 52.6036C463.982 52.6199 464.636 52.6701 465.286 52.7539L462.777 50.6447Z" fill="#DDE7DC"/>
<path d="M441.343 66.8554C440.882 65.5694 440.466 64.5158 440.139 63.4302C440.061 63.0623 440.111 62.6788 440.279 62.3424C441.34 62.1549 442.423 62.1205 443.494 62.2402C443.602 62.376 443.677 62.5357 443.712 62.7061C443.746 62.8764 443.74 63.0526 443.692 63.2199C443.253 64.45 442.734 65.6516 442.216 66.8504C442.169 66.9293 442.103 66.995 442.024 67.0416C441.945 67.0881 441.855 67.1139 441.763 67.1166C441.605 67.0634 441.461 66.974 441.343 66.8554V66.8554ZM442.68 63.2339L441.198 63.3204L441.766 65.1479C442.102 64.4438 442.329 63.9681 442.68 63.2339V63.2339Z" fill="#DDE7DC"/>
<path d="M464.942 44.0845C464.879 43.2215 464.06 41.1862 464.058 40.8825C464.291 40.8943 464.56 40.8314 464.75 40.9297C466.108 41.6312 467.453 42.3594 468.792 43.0973C468.957 43.1885 469.186 43.3936 469.175 43.5343C469.159 43.7542 465 44.8777 464.942 44.0845Z" fill="#DDE7DC"/>
<path d="M458.991 57.3984C459.518 58.5025 460.057 59.6008 460.562 60.7163C460.606 60.8154 460.628 60.923 460.627 61.0315C460.625 61.14 460.599 61.2469 460.552 61.3444C460.466 61.4068 460.367 61.4481 460.262 61.465C460.157 61.482 460.05 61.4741 459.949 61.442C459.663 61.3165 459.388 61.1662 459.128 60.993C458.318 60.5608 457.499 60.1447 456.696 59.7001C456.449 59.5892 456.24 59.4096 456.092 59.1827C456.042 59.0797 456.306 58.7703 456.464 58.5906C456.89 58.1092 457.375 57.6803 457.763 57.1699C458.366 56.377 458.685 56.8767 458.991 57.3984ZM458.133 57.8631C457.969 58.1081 457.831 58.3693 457.721 58.6425C458.055 58.9167 458.408 59.1661 458.778 59.3885L458.911 59.2107L458.133 57.8631Z" fill="#DDE7DC"/>
<path d="M427.88 39.4989C426.57 38.1547 425.363 36.7132 424.271 35.1867C425.407 35.3801 426.531 35.6379 427.638 35.9588C428.688 36.2508 428.914 36.646 428.522 37.7403C428.31 38.3327 428.091 38.9224 427.88 39.4989Z" fill="#DDE7DC"/>
<path d="M438.767 24.6477C439.326 25.8172 439.908 26.9747 440.422 28.166C440.523 28.3992 438.712 28.2678 438.225 28.1611C437.896 28.0891 436.287 27.8517 436.531 27.214C436.902 26.2455 437.284 25.2786 437.719 24.3398C437.97 23.7996 438.482 23.9372 438.767 24.6477ZM437.703 27.1114C438.252 27.1904 438.612 27.2423 439.122 27.3158L438.279 25.8558C438.081 26.2869 437.938 26.5988 437.703 27.1114Z" fill="#DDE7DC"/>
<path d="M458.006 26.3377C457.992 26.7447 457.997 26.875 457.982 27.0033C457.873 27.9223 457.775 28.843 457.642 29.7589C457.56 30.3224 457.307 30.5022 456.709 30.3447C456.103 30.1853 454.193 29.4543 454.418 29.2228C455.516 28.1455 456.718 27.1791 458.006 26.3377V26.3377Z" fill="#DDE7DC"/>
</g>
<path d="M1004 92.2006C999.144 97.6191 994.793 103.001 989.851 107.772C987.303 110.231 988.745 113.222 987.455 115.698C986.889 116.785 986.934 118.242 986.246 119.206C981.186 126.291 976.339 133.566 970.791 140.255C963.34 149.239 955.294 157.727 947.563 166.48C945.35 168.985 942.448 168.233 940.076 167.718C936.312 166.902 932.346 165.746 929.22 163.624C926.25 161.608 924.288 158.133 921.811 155.364C919.609 152.902 919.406 150.352 921.254 147.659C924.72 142.608 928.206 137.571 931.712 132.547C936.92 125.112 941.975 117.558 947.459 110.332C950.878 105.904 954.647 101.759 958.73 97.9347C960.001 96.7251 962.554 96.5927 964.546 96.4939C966.18 96.4129 967.334 96.4727 968.488 94.8647C971.652 90.4584 975.031 86.1894 978.59 82.0964C979.795 80.9746 981.325 80.2645 982.96 80.0687C985.902 79.5729 988.653 79.3483 991.254 82.0455C994.208 85.1089 998.003 87.3592 1001.42 89.9834C1002.21 90.5905 1002.93 91.2803 1004 92.2006ZM955.582 105.878C951.428 111.476 947.392 116.934 943.336 122.376C938.97 128.233 934.594 134.083 930.209 139.927C928.345 142.421 926.391 144.856 924.669 147.446C923.833 148.573 923.473 149.984 923.666 151.374C923.858 152.764 924.588 154.024 925.699 154.882C927.466 156.292 929.036 157.951 930.8 159.367C933.011 161.143 935.331 162.784 937.556 164.447C938.117 163.144 938.442 162.39 938.669 161.865C940.535 162.476 942.033 162.966 943.531 163.456C943.586 163.282 943.641 163.108 943.696 162.933L941.143 160.197C941.21 159.983 941.277 159.768 941.344 159.554L948.488 160.551C948.513 160.301 948.539 160.052 948.565 159.802C947.494 158.829 946.423 157.855 945.352 156.881C945.546 156.573 945.74 156.264 945.934 155.955C946.912 156.261 947.907 156.511 948.913 156.705C949.825 156.777 950.741 156.786 951.654 156.731L951.606 155.936C950.776 155.194 949.946 154.452 949.116 153.71L949.459 152.862C951.07 153.167 952.68 153.473 955.009 153.914C954.228 153.018 954.014 152.743 953.769 152.498C953.321 152.05 952.854 151.62 952.395 151.182C953.076 150.92 953.787 150.745 954.511 150.66C955.425 150.778 956.324 150.989 957.194 151.292C956 149.823 955.195 148.833 954.35 147.792C956.322 146.11 958.801 150.146 960.244 146.655C959.677 146.418 959.146 146.102 958.667 145.717C958.245 145.167 957.888 144.571 957.602 143.939C958.32 143.862 959.042 143.825 959.764 143.829C960.303 143.911 960.833 144.046 961.345 144.232C960.981 142.936 960.721 142.01 960.461 141.084C961.271 141.294 962.098 141.435 962.932 141.505C963.791 141.452 964.644 141.329 965.482 141.138C964.907 140.524 964.247 139.996 963.522 139.57C963.108 139.086 962.771 138.543 962.52 137.958C963.106 137.759 963.718 137.648 964.336 137.629C965.536 137.772 966.713 138.099 968.568 138.492L964.961 135.29L968.833 134.69C968.485 133.958 968.161 133.275 967.719 132.344H971.032C969.599 127.259 973.719 131.081 974.898 129.967C972.651 127.915 972.446 127.045 973.932 126.74C976.858 126.138 977.774 123.03 980.337 122.104C980.407 122.079 980.382 121.79 980.387 121.751C971.235 117.876 961.026 115.782 955.582 105.878ZM978.428 112.502C978.715 112.386 978.993 112.245 979.256 112.081C983.688 106.568 988.14 101.071 992.484 95.4893C992.738 95.1625 992.343 93.8465 991.878 93.5202C988.274 90.9902 984.551 88.6321 980.93 86.1257C979.796 85.3408 978.969 85.3217 978.128 86.4104C974.189 91.51 970.206 96.5766 966.372 101.754C966.225 102.164 966.186 102.604 966.258 103.034C966.33 103.463 966.512 103.867 966.785 104.206C970.631 107.096 974.608 109.813 978.428 112.502ZM965.255 99.2239C961.615 98.4385 960.041 100.668 958.81 102.569C957.497 104.597 958.896 106.551 960.447 108.109C961.058 108.803 961.747 109.425 962.499 109.962C967.89 113.356 973.718 116 979.822 117.819C982.162 118.504 983.032 117.748 983.731 115.526C983.036 115.736 982.303 115.729 982.091 116.058C980.838 118 979.337 117.162 978.001 116.407C973.227 113.708 968.525 110.881 963.764 108.157C960.835 106.481 960.471 104.226 962.814 101.979C963.585 101.24 964.239 100.38 965.255 99.2239ZM983.427 82.7601C983.191 83.0696 982.955 83.3791 982.719 83.6887C983.237 84.0346 983.76 84.3753 984.274 84.7272C988.342 87.5097 992.377 90.3419 996.509 93.0249C997.102 93.4099 998.161 93.0783 999.004 93.0783L999.242 91.9835C994.443 88.1072 990.362 83.0154 983.427 82.7601Z" fill="#DDE7DC"/>
<path d="M983.946 97.0575C984.221 97.8675 985.065 99.1797 984.742 99.606C983.18 101.575 981.465 103.418 979.612 105.117C979.476 105.247 977.991 104.524 977.873 104.023C977.243 101.347 980.595 97.8452 983.946 97.0575Z" fill="#DDE7DC"/>
<path d="M978.494 95.1226C976.724 96.935 974.941 98.8094 973.069 100.59C972.909 100.741 971.795 100.339 971.739 100.068C971.555 99.1617 971.282 97.9564 971.711 97.305C972.803 95.7287 974.069 94.2801 975.484 92.9866C975.768 92.7842 976.098 92.655 976.444 92.6104C976.79 92.5658 977.141 92.6073 977.468 92.7311C977.936 92.9967 978.024 93.9359 978.494 95.1226Z" fill="#DDE7DC"/>
<path d="M210.64 144.228C210.252 146.13 209.681 147.99 208.937 149.782C208.531 150.587 207.028 150.963 205.948 151.278C202.892 152.169 199.788 152.897 196.719 153.747C190.218 155.547 183.718 157.353 177.235 159.219C173.815 160.203 170.461 161.427 167.024 162.345C164.066 163.134 161.018 163.576 158.038 164.29C153.51 165.377 149.033 166.685 144.485 167.677C140.22 168.607 135.896 169.274 131.59 170.009C129.292 170.401 126.936 170.525 124.682 171.077C122.594 171.632 120.379 171.43 118.426 170.508C115.981 169.377 113.559 168.195 111.141 167.004C104.09 163.532 97.0717 159.992 89.9914 156.581C84.686 154.024 79.3739 151.456 73.9266 149.231C71.4102 148.283 69.0729 146.915 67.014 145.185C66.5427 144.799 66.1756 144.302 65.9462 143.737C65.0545 141.096 64.2305 138.43 63.4199 135.762C61.9049 130.775 60.3942 125.787 58.9224 120.787C57.6053 116.313 56.4012 111.805 55.0413 107.344C53.4885 102.251 51.7701 97.208 50.2177 92.1144C49.2855 89.0557 48.613 85.9179 47.6809 82.8592C46.2895 78.294 44.7261 73.7813 43.3272 69.2183C42.5905 66.8156 42.011 64.3621 41.4348 61.9141C41.2053 60.9389 41.4714 60.4149 42.7238 60.6953C44.0954 60.9884 45.4949 61.1313 46.8974 61.1214C54.5721 61.1294 62.2496 60.9335 69.921 61.0793C80.4736 61.2799 91.0232 61.6823 101.571 62.0825C105.924 62.2476 110.265 62.7222 114.618 62.8884C118.351 63.0309 122.094 62.9178 125.832 62.9475C130.694 62.986 135.556 63.0328 140.417 63.146C140.669 63.1816 140.91 63.2771 141.118 63.4244C141.326 63.5718 141.495 63.7667 141.613 63.993C144.531 72.9751 147.391 81.976 150.262 90.9735C151.457 94.7211 152.717 98.4498 153.831 102.222C155.08 106.451 156.217 110.714 157.361 114.974C157.904 116.998 158.394 119.035 158.831 121.087C159.049 122.339 159.635 123.496 160.514 124.414C161.392 125.331 162.523 125.967 163.764 126.24C168.187 127.542 172.577 128.952 176.935 130.472C181.391 132.036 185.731 133.936 190.208 135.433C193.671 136.591 197.269 137.342 200.799 138.302C202.09 138.654 203.361 139.082 204.638 139.485C205.788 139.848 206.939 140.207 208.08 140.599C208.875 140.788 209.574 141.262 210.045 141.93C210.517 142.598 210.728 143.415 210.64 144.228V144.228ZM183.892 152.708C184.401 153.162 184.893 153.638 185.427 154.062C185.77 154.334 186.215 154.766 186.541 154.71C187.233 154.521 187.901 154.254 188.533 153.916L188.02 152.935L189.699 151.627L189.456 151.164C187.609 151.687 185.762 152.211 183.915 152.734L180.135 154.021C180.812 155.445 181.498 156.635 182.908 155.949L183.892 152.708ZM172.79 156.253L166.852 157.824L146.964 162.862C147.84 163.898 148.236 164.819 148.845 164.992C150.068 165.34 150.544 164.492 150.635 163.293C150.666 162.885 151.205 162.516 151.512 162.129C151.769 162.551 152.031 162.969 152.279 163.396C152.39 163.634 152.489 163.878 152.574 164.127C153.77 163.928 154.93 163.558 156.019 163.027C156.866 162.456 157.316 161.297 158.23 159.981L158.641 162.221C160.657 162.771 161.507 161.742 161.92 159.991C162.009 159.611 162.385 159.299 162.629 158.956C162.936 159.337 163.265 159.703 163.544 160.104C163.834 160.518 164.075 160.965 164.338 161.397C164.838 160.965 166.009 161.614 165.97 160.194C166.111 159.353 166.405 158.545 166.837 157.809C169.101 157.43 167.782 159.385 168.305 160.124C170.58 159.689 172.861 159.309 172.769 156.228C173.283 156.438 174.135 156.532 174.252 156.877C174.69 158.164 175.379 158.085 176.38 157.629C177.085 157.36 177.806 157.138 178.54 156.965L178.956 154.272L172.79 156.253ZM111.522 163.177L106.684 161.043L106.303 162.804L109.248 164.273L111.533 163.165C111.453 163.554 111.455 163.955 111.538 164.343C111.622 164.731 111.786 165.097 112.018 165.419C112.251 165.74 112.549 166.01 112.892 166.21C113.234 166.41 113.615 166.536 114.009 166.581C115.032 166.921 116.032 167.328 117.001 167.799C118.453 168.398 119.906 168.995 121.36 169.589L121.802 169.126C121.454 168.62 121.219 167.889 120.738 167.644C117.697 166.095 114.6 164.654 111.522 163.177ZM163.464 128.195L163.465 127.583C161.473 127.797 160.226 125.723 157.959 126.349C153.82 127.491 149.608 128.389 145.394 129.23C138.474 130.612 131.529 131.872 124.592 133.173C119.888 134.055 115.194 134.997 110.472 135.768C105.853 136.521 101.166 136.899 96.5765 137.789C90.1521 138.935 83.6461 139.564 77.1212 139.67C74.5349 139.753 71.9546 140.026 69.3716 140.212C69.4136 140.381 69.4915 140.539 69.5999 140.675C69.7083 140.812 69.8447 140.923 69.9999 141.002C76.1868 144.188 82.3745 147.372 88.563 150.555C92.8846 152.776 97.1519 155.114 101.548 157.176C107.107 159.783 112.839 162.024 118.363 164.699C120.979 166.24 124.08 166.739 127.048 166.097C133.416 164.502 140.025 164.025 146.284 161.818C149.874 160.552 153.646 159.809 157.314 158.754C165.101 156.514 172.862 154.181 180.657 151.971C184.849 150.782 189.099 149.799 193.307 148.668C197.167 147.631 201.022 146.572 204.847 145.414C206.13 144.937 207.379 144.374 208.585 143.728L208.544 143.1C207.673 142.753 206.821 142.345 205.928 142.07C201.472 140.698 196.889 139.651 192.574 137.929C188.272 136.212 184.174 135.103 179.526 136.504C174.474 138.026 169.306 139.173 164.169 140.4C159.959 141.405 155.711 142.25 151.495 143.235C145.258 144.693 139.035 146.207 132.809 147.711C131.592 147.816 130.41 148.171 129.337 148.754C128.976 149.037 128.559 149.24 128.114 149.35C127.669 149.46 127.205 149.475 126.754 149.393C125.107 149.515 123.475 149.785 121.877 150.202C121.255 152.945 119.423 151.332 118.019 151.282C117.71 151.271 117.4 151.304 117.1 151.377C114.666 151.977 112.258 152.713 109.798 153.172C106.278 153.83 102.983 155.273 99.1365 153.185C93.6415 150.202 87.6928 148.051 81.918 145.592C80.9532 145.181 80.9838 144.744 81.3427 143.885C81.9465 142.439 83.0633 142.606 84.3184 142.421C91.6714 141.341 99.0142 140.174 106.332 138.875C116.431 137.082 126.507 135.156 136.59 133.268C145.55 131.59 154.509 129.899 163.464 128.195ZM43.5946 62.7375C43.8264 63.798 43.9091 64.4036 44.0923 64.9772C45.1309 68.229 46.2728 71.4498 47.2321 74.7244C49.4884 82.4269 51.6059 90.1702 53.8876 97.865C55.4024 102.974 57.1737 108.006 58.6993 113.112C59.8987 117.127 60.7961 121.232 62.0144 125.24C63.2571 129.328 64.7956 133.326 66.0549 137.409C66.4086 138.556 66.8857 138.892 67.9983 138.8C70.4289 138.599 72.8655 138.458 75.3019 138.34C77.1889 138.249 79.0854 138.307 80.9666 138.158C82.9888 137.999 84.9993 137.687 87.0124 137.422C93.0446 136.629 99.0911 135.928 105.103 135.001C111.781 133.972 118.436 132.778 125.085 131.57C130.231 130.634 135.358 129.595 140.481 128.544C142.997 128.028 145.478 127.337 147.991 126.801C151.257 126.106 154.54 125.486 158.058 124.786C156.738 119.293 155.703 114.173 154.255 109.172C152.582 103.391 150.506 97.7274 148.676 91.99C146.318 84.5972 143.962 77.2022 141.746 69.7663C140.83 66.6914 139.762 64.1414 135.813 64.973C135.761 64.9839 135.698 64.9207 135.638 64.9182C130.042 64.6813 124.447 64.4249 118.85 64.229C117.573 64.1843 116.285 64.4496 115.008 64.3994C110.478 64.2209 105.953 63.9277 101.423 63.7532C95.8052 63.5368 90.1851 63.3913 84.5659 63.2225C76.8055 62.9893 69.0455 62.7365 61.284 62.5477C58.4736 62.4793 55.6592 62.5603 52.8467 62.5928C49.8595 62.6273 46.8726 62.6851 43.5946 62.7375ZM124.152 145.584C125.928 146.61 127.08 147.848 129.229 147.228C133.463 146.007 137.795 145.129 142.086 144.104C145.289 143.338 148.49 142.565 151.893 141.747C151.318 141.119 150.575 140.671 149.751 140.456C148.928 140.241 148.061 140.268 147.253 140.534C142.932 141.443 138.603 142.314 134.289 143.25C131.016 143.961 127.759 144.751 124.152 145.584ZM126.778 143.485C123.549 141.235 123.549 141.234 122.06 141.54C118.795 142.212 115.525 142.859 112.269 143.571C111.134 143.819 110.034 144.225 108.918 144.56L108.816 145.342C109.922 145.781 111.099 146.716 112.119 146.568C115.432 146.09 118.686 145.21 121.965 144.495C123.434 144.174 124.908 143.876 126.778 143.485ZM98.3192 141.65L98.2238 142.17C100.65 142.809 102.791 144.512 105.643 143.534C107.192 143.136 108.764 142.832 110.349 142.624C112.391 142.196 114.421 141.711 116.455 141.251L116.494 140.445C114.961 139.9 113.353 139.589 111.727 139.524C107.235 140.033 102.785 140.914 98.3192 141.65V141.65ZM144.016 139.674C141.88 137.099 141.244 136.997 138.67 138.568C138.313 138.796 137.908 138.939 137.486 138.985C136.165 138.976 134.844 139.036 133.529 139.166C131.283 139.563 129.073 140.166 126.667 140.725C127.21 141.455 127.945 142.02 128.79 142.357C129.635 142.694 130.557 142.789 131.453 142.631C135.562 141.639 139.681 140.692 144.016 139.674V139.674ZM84.482 144.307C86.6397 145.472 88.2371 147.507 91.2078 146.413C94.0604 145.642 96.9778 145.134 99.9231 144.896C97.2103 142.904 94.7702 141.932 91.7204 142.835C89.3686 143.532 86.8992 143.831 84.482 144.307ZM108.119 147.427L108.281 146.619C106.943 145.94 105.49 145.515 103.996 145.367C101.019 145.8 98.0706 146.41 95.1664 147.194C94.2707 147.397 93.4041 147.729 92.5241 148.003L92.5182 148.558C93.8568 149.235 95.3142 149.646 96.8094 149.767C100.614 149.239 104.354 148.24 108.119 147.427ZM133.738 137.637L133.905 137.098C132.544 136.526 131.097 136.184 129.624 136.084C126.289 136.434 122.997 137.205 119.693 137.84C118.611 138.048 117.548 138.357 116.476 138.62C117.998 139.732 119.244 140.769 121.195 140.287C125.341 139.262 129.553 138.504 133.738 137.637H133.738ZM160.076 136.061C158.824 134.459 158.047 134.01 156.437 134.325C152.494 135.096 148.571 135.969 144.639 136.802L144.487 137.459C145.633 137.946 146.842 138.949 147.915 138.82C150.94 138.357 153.939 137.74 156.901 136.971C157.955 136.733 158.983 136.378 160.076 136.061H160.076ZM201.815 148.511L201.175 150.05C201.676 150.141 202.273 150.452 202.662 150.284C204.329 149.556 205.959 148.744 207.545 147.852C207.784 147.719 207.737 147.071 207.859 146.483C207.238 146.59 206.94 146.625 206.649 146.695C204.385 147.236 202.094 147.693 199.866 148.357C197.907 149.099 195.887 149.669 193.829 150.06C191.113 150.377 190.994 150.547 191.558 153.838C192.724 153.227 193.777 152.422 194.673 151.458C195.141 150.71 195.386 149.942 196.28 150.253C196.703 150.4 196.871 151.276 197.284 152.069L199.315 150.468L198.074 149.366L201.815 148.511ZM133.848 135.134C134.113 135.388 134.394 135.627 134.687 135.847C136.532 136.732 138.653 136.85 140.585 136.175C143.472 135.466 146.387 134.872 149.29 134.229L149.194 133.534C144.088 132.293 139.322 134.893 133.848 135.134ZM109.428 151.751C105.867 148.638 102.382 149.987 98.7597 151.1C102.207 153.3 105.666 152.748 109.428 151.751ZM160.546 133.403C164.263 136.853 167.497 133.965 170.805 133.591C169.887 132.88 168.886 131.9 167.976 131.978C165.475 132.314 162.994 132.79 160.546 133.403V133.403ZM124.922 148.203C123.812 147.049 122.309 146.353 120.71 146.255C119.112 146.157 117.535 146.663 116.291 147.672C118.986 150.905 121.905 148.683 124.922 148.203ZM116.266 150.036C115.307 149 114.015 148.333 112.614 148.153C111.214 147.972 109.795 148.289 108.604 149.047C110.822 151.516 113.369 151.351 116.266 150.036V150.036ZM161.263 139.339C158.17 136.923 155.334 139.307 152.368 139.645C155.441 142.185 158.273 139.358 161.263 139.339ZM171.656 136.603C168.368 135.224 165.336 136.9 162.212 137.48C165.558 139.552 168.533 137.19 171.656 136.603V136.603ZM160.303 131.567C157.034 130.322 154.037 131.797 150.957 132.545C154.254 134.206 157.183 132.015 160.303 131.567V131.567ZM181.986 134.37L181.964 133.857C181.269 133.643 180.503 133.128 179.891 133.27C177.739 133.77 175.64 134.496 173.255 135.217C176.595 136.97 179.128 134.313 181.986 134.37V134.37ZM141.27 166.549C144.869 166.672 145.956 165.969 146.078 163.466L141.128 164.748L141.27 166.549ZM80.7871 150.502L81.844 148.558L77.9625 146.699C77.1416 148.829 77.1416 148.829 80.7871 150.502ZM135.242 167.759C138.315 167.996 139.257 167.483 139.564 165.487C136.111 165.477 135.132 165.967 135.242 167.759V167.759ZM85.7215 152.802L86.5287 151.228L83.3685 149.572C82.8592 152.129 82.8592 152.129 85.7215 152.802ZM67.925 141.886C69.0022 145.131 69.0022 145.131 71.009 145.606L71.1074 143.326L67.925 141.886ZM73.5401 144.511C72.6852 146.716 72.7972 146.908 75.3253 147.844L75.8633 145.733L73.5401 144.511ZM104.349 161.793L105.347 160.214L101.519 158.867C101.589 160.997 103.211 161.048 104.349 161.793ZM123.686 168.486L123.756 169.241C125.024 169.163 126.297 169.121 127.557 168.969C127.769 168.943 128.137 168.288 128.062 168.179C127.862 167.888 127.416 167.513 127.146 167.566C125.977 167.795 124.837 168.166 123.686 168.485V168.486ZM162.877 130.102L162.927 130.741C165.072 131.257 166.963 129.992 168.989 129.568C168.901 129.475 168.794 129.402 168.675 129.352C168.557 129.302 168.429 129.277 168.301 129.279C166.491 129.538 164.684 129.824 162.877 130.102ZM171.738 130.959C173.549 133.158 174.217 133.274 176.546 131.978L171.738 130.959ZM129.517 167.644C131.784 169.032 132.922 168.551 133.032 166.324L129.517 167.644ZM96.8774 156.986L96.5064 157.502L99.5242 159.525C100.1 157.991 99.5865 157.574 96.8774 156.986ZM90.319 154.918L90.8332 154.464C90.2998 153.85 89.6966 153.301 89.0359 152.827C88.8169 152.7 88.177 153.294 87.3627 153.775L90.319 154.918Z" fill="#DDE7DC"/>
<path d="M123.7 126.288C124.29 127.165 124.831 128.074 125.32 129.011C125.823 130.128 125.51 130.863 124.158 131.104C120.793 131.701 117.443 132.38 114.088 133.03C113.607 133.212 113.088 133.277 112.577 133.218C112.066 133.16 111.576 132.979 111.149 132.692C110.721 132.405 110.369 132.019 110.122 131.568C109.874 131.116 109.738 130.612 109.726 130.098C109.773 129.759 109.907 129.439 110.114 129.167C110.322 128.895 110.595 128.681 110.909 128.545C113.231 128.113 115.602 127.949 117.944 127.612C119.333 127.402 120.702 127.078 122.037 126.644C118.346 127.087 114.651 127.497 110.965 127.98C107 128.5 103.027 128.99 99.0889 129.674C94.981 130.388 90.9158 131.345 86.8212 132.141C85.1982 132.495 83.5506 132.727 81.8927 132.832C77.9522 132.988 74.0061 133.021 70.0618 133.056C67.5374 133.079 67.399 132.824 66.889 130.297C66.5034 128.387 65.8917 126.518 65.3242 124.648C63.9853 120.237 62.6171 115.835 61.253 111.432C58.2236 101.654 55.1233 91.8965 52.1864 82.0905C50.7977 77.4542 49.7539 72.7155 48.4763 68.0444C48.0942 66.6472 48.3404 66.1391 49.8869 66.1811C57.0323 66.3749 64.1837 66.3835 71.3257 66.6538C77.6525 66.8933 83.9652 67.5554 90.2924 67.7249C96.0709 67.8799 101.861 67.5426 107.645 67.5705C115.397 67.6077 123.149 67.7942 130.902 67.9007C132.349 67.796 133.803 67.8004 135.25 67.9141C135.739 67.9857 136.209 68.158 136.628 68.4202C137.048 68.6824 137.408 69.0288 137.687 69.4375C138.571 71.4254 139.016 73.604 139.708 75.6826C141.184 80.1132 142.748 84.5146 144.194 88.9545C145.26 92.2276 146.213 95.5381 147.188 98.8404C148.509 103.313 149.77 107.803 151.121 112.267C151.814 114.557 152.619 116.814 153.419 119.07C154.292 121.533 153.805 122.198 151.238 122.503C148.371 122.844 145.535 123.438 142.676 123.856C138.966 124.398 135.248 124.894 131.528 125.374C128.977 125.704 126.417 125.973 123.7 126.288ZM50.5435 67.9059C51.8017 72.9395 52.9402 77.6287 54.1539 82.2983C54.8483 84.97 55.6396 87.6175 56.4328 90.2622C57.4859 93.7734 58.5258 97.2904 59.6751 100.771C61.5186 106.353 63.5496 111.875 65.3047 117.485C66.5265 121.389 67.4342 125.394 68.4508 129.361C68.8299 130.841 69.6692 131.336 71.2332 131.403C81.9187 131.858 92.2795 129.762 102.665 127.704C106.339 126.977 110.101 126.697 113.821 126.202C116.912 125.79 120.002 125.367 123.091 124.935C125.953 124.533 128.81 124.088 131.674 123.695C137.263 122.929 142.862 122.225 148.442 121.399C149.444 121.168 150.393 120.748 151.238 120.161C151.05 119.552 150.811 118.96 150.525 118.39C150.514 118.33 150.508 118.268 150.506 118.206C149.527 113.844 148.674 109.449 147.527 105.131C146.635 101.77 145.333 98.5201 144.29 95.1966C142.91 90.7987 141.673 86.3554 140.249 81.9723C139.034 78.2336 137.671 74.5418 136.29 70.8603C136.159 70.6195 135.973 70.4124 135.748 70.255C135.524 70.0976 135.265 69.9943 134.994 69.953C131.016 69.7021 127.033 69.4593 123.049 69.3821C117.382 69.2723 111.713 69.3101 106.045 69.2752C100.488 69.241 94.9284 69.2854 89.3744 69.1288C83.5287 68.964 77.6911 68.5172 71.8454 68.3505C66.3537 68.194 60.8559 68.2604 55.3613 68.189C53.8016 68.1687 52.2436 68.0098 50.5435 67.9059ZM113.414 130.601L113.59 131.119C114.599 131.265 115.628 131.176 116.596 130.859C117.565 130.541 118.447 130.004 119.174 129.289C117.254 129.726 115.334 130.163 113.414 130.601Z" fill="#DDE7DC"/>
<defs>
<clipPath id="clip0_854_31">
<rect width="68.1821" height="68.1821" fill="white" transform="translate(458.048) rotate(60)"/>
</clipPath>
</defs>
</svg>
