<svg width="91" height="90" viewBox="0 0 91 90" fill="none" xmlns="http://www.w3.org/2000/svg">
<path d="M67.8548 6.03287C74.4877 10.0748 79.6179 16.5005 83.5044 23.548C87.3908 30.5955 90.0336 38.2648 90.6555 46.245C91.3291 54.2771 89.9818 62.6719 86.1472 69.7712C82.2607 76.8187 75.8868 82.5707 68.5803 85.939C61.3255 89.3073 53.138 90.3955 45.2613 89.8773C37.3847 89.4109 29.7672 87.39 22.5643 84.0217C15.3095 80.6016 8.41746 75.7823 4.53097 69.2012C0.592665 62.6201 -0.288271 54.2253 0.0744677 46.0896C0.437206 37.9539 2.09544 30.0254 5.61919 22.7707C9.14293 15.5159 14.4804 8.93478 21.3724 4.99648C28.2126 1.05817 36.6074 -0.185504 44.8986 0.0217749C53.1379 0.280874 61.2737 1.93911 67.8548 6.03287Z" fill="#ED6B6A"/>
</svg>
