<svg width="52" height="52" viewBox="0 0 52 52" fill="none" xmlns="http://www.w3.org/2000/svg">
<g clip-path="url(#clip0)">
<path d="M20.8277 18.249C20.6455 16.4709 20.3286 14.7678 20.327 13.0688C20.3237 9.6664 22.9712 7.40356 26.0488 6.99583C28.2876 6.69923 30.5097 6.69919 32.6495 7.68078C36.2945 9.3528 38.6203 12.0978 39.347 16.1005C39.63 17.6595 38.9558 19.0217 38.0826 20.2073C37.3008 21.1527 36.4628 22.0502 35.5731 22.8949C35.7779 23.6332 36.0068 24.5361 36.2804 25.4254C36.6795 26.7233 35.7982 27.7258 34.6745 27.6574C32.9167 27.5502 32.0702 28.4908 31.196 29.7142C29.4202 32.1993 27.577 34.6347 25.7626 37.0914C24.3168 39.0492 22.9129 41.0407 21.4123 42.9542C20.5359 44.0717 19.3857 44.0047 18.4697 42.8988C18.2891 42.679 18.194 42.4014 18.2017 42.117C18.564 38.8285 18.9266 35.5395 19.3527 32.2598C19.7012 29.578 20.1623 26.9127 20.5147 24.2313C20.6293 23.3592 20.5498 22.4648 19.6968 21.8785C19.3526 21.679 19.0766 21.3801 18.9051 21.0211C18.7336 20.6621 18.6745 20.2597 18.7357 19.8665C18.8821 18.9863 19.5759 18.6145 20.3732 18.4129C20.5281 18.3682 20.6799 18.3135 20.8277 18.249ZM36.7886 14.1588L37.0224 13.8799C36.7473 13.5371 36.4199 13.2399 36.0523 12.9991C34.8842 12.4843 34.8688 12.5209 35.5004 11.4652C35.2447 11.1287 34.9699 10.807 34.6775 10.5018C33.035 8.9599 31.1766 7.91874 28.866 8.19543C27.6231 8.32627 26.3927 8.55658 25.1867 8.88415C22.3182 9.7097 21.2851 11.1483 21.4505 14.0561C21.5569 15.407 21.8553 16.7358 22.3368 18.0025C22.6842 18.9669 22.3512 19.423 21.6384 19.816C21.2149 20.0495 20.7536 20.2142 20.2876 20.4194C20.6209 20.8433 21.0761 21.155 21.5919 21.3124C22.1077 21.4698 22.6593 21.4654 23.1725 21.2997C24.0299 21.0492 24.4654 21.4122 24.9134 21.9826C25.081 22.196 25.2217 22.4307 25.3839 22.6487C26.2548 23.8194 27.2207 24.04 28.4466 23.3521C29.3591 22.84 30.2061 23.1084 30.7708 24.006C31.13 24.4914 31.5221 24.9516 31.9443 25.3834C32.0396 24.1078 32.3785 23.9216 33.1789 24.4301C33.6625 24.7374 34.1401 25.0544 34.6204 25.367L34.8802 25.0835C34.6903 24.8083 34.4785 24.5489 34.2468 24.3078C33.8239 23.9282 33.3327 23.624 32.9273 23.2282C32.7639 23.0687 32.751 22.7514 32.6696 22.5059C32.8781 22.4416 33.0835 22.3631 33.2962 22.3182C33.4608 22.3002 33.6266 22.2962 33.7918 22.3065C33.6668 21.7671 33.5561 21.2901 33.4455 20.8131C33.9404 20.8143 34.4352 20.8155 34.7691 20.8164C34.6435 20.5659 34.4864 20.2525 34.3292 19.9391C34.6721 19.9067 35.0173 19.8885 35.3569 19.8365C35.5605 19.7922 35.7606 19.7337 35.956 19.6614C35.8641 19.4667 35.7581 19.279 35.6389 19.0997C35.5734 19.0132 35.3968 19.013 35.3296 18.9268C35.1786 18.7157 35.0386 18.497 34.9101 18.2715C35.1732 18.1178 35.4518 17.9924 35.7412 17.8972C36.1098 17.8144 36.4313 18.7201 36.8057 18.0076C36.8485 17.9261 36.2431 17.4895 35.9371 17.219C35.9152 17.1996 35.8695 17.1986 35.8588 17.1771C35.7524 16.9626 35.651 16.7457 35.5482 16.5294C35.7835 16.4574 36.0239 16.311 36.2528 16.3304C36.6198 16.3886 36.9812 16.478 37.3331 16.5974L37.5347 16.3656C37.3638 16.0408 37.1504 15.7401 36.9002 15.4716C36.5583 15.1879 36.0972 15.0551 35.7399 14.7856C35.5694 14.6571 35.5198 14.3633 35.4155 14.1443C35.6371 14.0463 35.8594 13.8672 36.0801 13.8723C36.3314 13.9249 36.5713 14.0219 36.7886 14.1588ZM30.775 26.5272C30.4875 26.0695 30.1627 25.6363 29.8037 25.2322C29.6823 25.1056 29.5356 25.006 29.3732 24.9398C29.2107 24.8737 29.0362 24.8425 28.8609 24.8483C26.8744 25.3719 25.3275 24.7946 24.2392 23.0213C23.7447 22.2154 23.146 22.7182 22.581 22.7788C22.0221 22.8388 21.9268 23.2168 21.8771 23.7355C21.6848 25.742 21.4505 27.7445 21.1948 29.7431C20.8059 32.7843 20.3825 35.8204 19.9831 38.8601C19.9143 39.3844 20.8471 40.3236 21.3453 40.2265C21.4262 40.2009 21.5003 40.1572 21.5619 40.0987C21.6234 40.0402 21.6709 39.9685 21.7006 39.8889C21.7471 39.7004 21.7252 39.5015 21.6387 39.3277C21.5612 39.1816 21.322 39.1264 21.2305 38.9821C21.0713 38.7017 20.9287 38.4121 20.8037 38.1149C21.1498 38.096 21.6177 37.9221 21.8203 38.0859C22.5759 38.6968 22.8499 38.3806 23.0336 37.6436C22.6576 37.3796 22.3084 37.0792 21.9912 36.7468C21.8241 36.537 21.845 36.175 21.7815 35.8814C22.0532 35.8381 22.3302 35.8394 22.6015 35.8853C23.0209 36.0571 23.4284 36.2568 23.8211 36.4833L23.9832 36.2588C23.7094 36.0183 23.4658 35.7455 23.2578 35.4463C23.13 35.1199 23.0452 34.7783 23.0055 34.43C23.326 34.4847 23.6502 34.5237 23.9648 34.6033C24.0661 34.6289 24.1463 34.7575 24.2295 34.8454C24.8344 35.4848 25.1802 35.2307 25.4509 34.4645C25.0998 34.2922 24.7659 34.0871 24.4536 33.8518C24.2891 33.7049 24.2594 33.4032 24.1691 33.1712C24.3997 33.0914 24.6391 32.9267 24.8586 32.9531C25.1435 32.9872 25.4039 33.2259 25.6912 33.2789C25.9769 33.2989 26.264 33.2841 26.5462 33.2346C26.4113 32.9787 26.2635 32.7298 26.1031 32.4891C26.0436 32.4071 25.8359 32.4292 25.784 32.3474C25.619 32.087 25.4955 31.8001 25.356 31.5235C25.6347 31.4254 25.927 31.3711 26.2224 31.3624C26.5181 31.4246 26.7969 31.5503 27.0393 31.7308C27.4195 31.976 27.7755 31.9742 27.893 31.5326C27.9134 31.2277 27.8216 30.9259 27.6348 30.684C27.4948 30.4715 27.1434 30.3939 27.0189 30.1789C26.9332 29.9244 26.8962 29.6561 26.91 29.3879C27.143 29.342 27.3822 29.3362 27.6172 29.3708C27.923 29.4721 28.1826 29.7684 28.4858 29.8177C28.8897 29.8078 29.29 29.7404 29.6749 29.6176C29.1323 29.2458 28.612 28.8426 28.1166 28.4101C28.0491 28.3053 28.0062 28.1865 27.991 28.0628C27.9758 27.939 27.9888 27.8135 28.029 27.6954C28.0649 27.5917 28.4637 27.5229 28.6455 27.5899C29.0644 27.7441 29.4358 28.0363 29.8559 28.184C30.1509 28.2425 30.4529 28.2575 30.7523 28.2285L30.7921 27.8958C30.4521 27.7166 30.1268 27.5109 29.819 27.2808C29.5689 27.0275 29.3421 26.7522 29.1414 26.4583C29.5023 26.367 29.8693 26.3016 30.2396 26.2626C30.4059 26.2548 30.5829 26.4265 30.775 26.5272Z" fill="#41B37E"/>
<path d="M22.3992 12.3404C22.8281 11.1936 23.6888 10.2603 24.7972 9.74017C24.9857 9.64301 25.3128 9.81557 25.5758 9.86354C25.499 10.1282 25.5 10.4728 25.3301 10.6418C24.8939 11.0757 24.3387 11.3897 23.9157 11.8341C23.6257 12.1278 23.4356 12.5054 23.3723 12.9132C23.3218 13.4805 23.0603 13.7935 22.58 13.7129C22.4324 13.6881 22.3647 13.0447 22.2912 12.6786C22.2707 12.5767 22.3602 12.4537 22.3992 12.3404Z" fill="#41B37E"/>
<path d="M24.1382 17.7742C23.8172 17.8608 23.4846 17.8968 23.1524 17.8808C23.0397 17.8298 22.9402 17.7534 22.8619 17.6576C22.7835 17.5619 22.7282 17.4493 22.7005 17.3287C22.5798 16.6787 22.5043 16.0212 22.4743 15.3607C22.4712 15.2517 22.494 15.1435 22.541 15.045C22.588 14.9465 22.6577 14.8606 22.7444 14.7944C22.8522 14.7739 22.9635 14.7813 23.0676 14.8159C23.1718 14.8505 23.2654 14.9111 23.3395 14.992C23.6089 15.777 23.8079 16.5858 24.1382 17.7742Z" fill="#41B37E"/>
</g>
<defs>
<clipPath id="clip0">
<rect x="14.0465" width="40" height="40" rx="20" transform="rotate(20 14.0465 0)" fill="white"/>
</clipPath>
</defs>
</svg>
