<svg width="40" height="40" viewBox="0 0 40 40" fill="none" xmlns="http://www.w3.org/2000/svg">
<path d="M35.461 16.1149C35.1918 14.2341 34.4265 12.2736 32.6819 11.2435C29.5095 9.37031 26.188 10.0809 23.0494 11.3983C22.0276 11.8272 21.1698 11.9751 20.3329 11.6717C19.3985 10.687 18.3735 9.57116 17.0749 9.32158C16.2333 9.1488 15.3606 9.20693 14.5493 9.48981C14.3722 9.51712 14.1914 9.47499 14.0446 9.3722C13.8978 9.26942 13.7964 9.11391 13.7615 8.93814C13.4748 8.12454 13.3643 7.37379 14.1791 6.70211C14.5869 6.36593 14.7651 5.76328 15.0913 5.31309C15.5449 4.68687 15.6122 4.00612 14.9436 3.62766C14.3485 3.29045 13.6626 3.14845 12.9825 3.22166C12.2364 3.33648 11.9777 3.98596 12.0288 4.82062C12.1364 6.58022 12.1133 8.34782 12.1499 10.4576C10.2459 10.1653 8.39991 9.88691 6.55585 9.59643C5.84075 9.48379 5.1406 9.39624 4.75519 10.2096C4.34506 11.0752 4.49434 11.9479 5.26534 12.4107C5.79948 12.7313 6.93706 12.9454 7.20798 12.6533C8.52543 11.2329 9.86443 12.0974 11.2923 12.1903C10.7666 14.1898 10.8749 15.9208 12.0131 17.5379C12.2226 17.8355 12.1576 18.4377 12.0301 18.8392C11.7152 19.8308 11.1773 20.7602 10.9353 21.7644C10.5182 23.4382 10.2107 25.1374 10.0147 26.8512C10.0033 26.9685 9.99818 27.0864 9.99931 27.2042C9.74916 28.5978 9.82998 30.0307 10.2353 31.3873C10.4833 33.4174 11.6356 35.0039 13.2127 36.3568C13.6556 36.7367 14.7275 36.9536 15.1445 36.6828C16.2772 35.9874 17.2675 35.083 18.0625 34.0178C18.9801 32.6961 19.5457 31.1299 20.3236 29.5465C21.2316 29.6731 22.3754 29.8533 23.5244 29.9889C26.9795 30.3964 29.7288 28.0527 29.745 24.584C29.6885 23.2639 29.5575 21.948 29.3525 20.6426C30.833 19.9159 32.344 19.35 33.644 18.4718C34.4542 17.9245 35.5615 16.8171 35.461 16.1149ZM16.096 17.4049C17.8161 18.434 18.7941 22.5871 17.7471 25.7751C16.9778 24.52 15.2987 21.2382 15.1175 20.9145C14.2634 19.3885 15.2493 18.4291 16.096 17.4049ZM15.057 35.0602C14.7792 35.2685 13.7976 35.0886 13.6345 34.8051C12.8733 33.4817 11.9807 32.1147 11.7134 30.6573C11.4613 29.283 11.5632 27.8399 11.6249 26.1458C11.8097 24.9629 12.1312 23.8055 12.5831 22.6969C12.7981 22.1988 13.0357 21.7237 13.2599 21.2473C13.4342 21.3378 13.5685 21.49 13.6365 21.6743C14.1517 24.3263 15.9649 26.0335 17.8674 27.711C18.0384 27.8827 18.1722 28.0877 18.2606 28.3133C18.349 28.539 18.3901 28.7803 18.3813 29.0225C18.2897 30.2077 17.9457 31.3596 17.3723 32.401C16.799 33.4423 16.0095 34.349 15.057 35.0602ZM18.4282 15.6994C18.6317 15.392 18.9084 15.14 19.2334 14.9661C19.5585 14.7923 19.9216 14.7019 20.2902 14.7032C21.3088 14.923 22.2733 15.344 23.1271 15.9413C24.1073 16.5477 24.9659 17.3481 25.8969 18.0378C26.281 18.2957 26.6781 18.5336 27.0866 18.7507C26.9081 18.9341 23.278 18.9463 21.6946 18.4927C20.9154 18.2696 20.2027 17.8238 19.4333 17.5551C19.2418 17.5052 19.0626 17.4164 18.9069 17.2944C18.7511 17.1723 18.6221 17.0195 18.5278 16.8455C18.4336 16.6715 18.3761 16.4799 18.359 16.2828C18.3418 16.0856 18.3654 15.887 18.4282 15.6994ZM19.89 22.7283C20.0169 22.4117 20.0533 21.9588 20.2873 21.8035C21.0409 21.3031 21.8673 20.9124 22.6657 20.4794C22.7186 20.6428 22.7715 20.8063 22.8244 20.9697C21.9629 21.6334 21.1014 22.297 20.2399 22.9606C20.1233 22.8832 20.0067 22.8058 19.89 22.7283ZM20.77 27.5218C20.6324 27.4877 20.4948 27.4536 20.3571 27.4195C20.4417 27.0902 20.417 26.6318 20.6287 26.453C21.9052 25.3744 23.2321 24.3551 24.5503 23.3264C25.0622 22.9269 25.5907 22.5481 26.1203 22.1721C26.5161 21.891 26.9256 21.6294 27.329 21.3591C27.6249 21.8422 27.9208 22.3253 28.0701 22.569C25.5009 24.3122 23.1355 25.917 20.7701 27.5218H20.77ZM32.4067 17.512C31.6121 18.0165 30.7761 18.4525 29.9077 18.8155C29.6734 18.8821 29.4273 18.8968 29.1867 18.8584C28.9461 18.8201 28.7167 18.7297 28.5147 18.5935C26.9786 17.344 25.5339 15.9829 24.0245 14.6995C23.486 14.2966 22.923 13.9273 22.3389 13.5939C24.5799 11.5932 29.4698 11.0494 31.6322 12.6152C32.4224 13.1875 33.0054 14.1296 33.5003 15.0061C34.182 16.2134 33.3739 16.9507 32.4067 17.512Z" fill="#ED6B6A"/>
</svg>
