<svg width="40" height="40" viewBox="0 0 40 40" fill="none" xmlns="http://www.w3.org/2000/svg">
<path d="M16.8424 18.4565C16.8869 15.419 17.7098 12.4437 19.2326 9.81515C20.3787 7.85865 22.0719 6.46305 23.9513 5.28707C24.801 4.75539 25.4529 5.03347 25.7766 6.01836C26.0043 6.85184 26.1878 7.69679 26.3262 8.54966C26.6673 8.37502 26.9326 8.24382 27.1936 8.10446C27.5512 7.88613 27.9205 7.68758 28.2998 7.50969C30.1933 6.75369 31.132 7.37718 31.0701 9.40855C30.9951 10.2364 30.8668 11.0586 30.6858 11.8699C33.6269 11.386 35.6207 11.7488 34.2562 15.802C34.825 15.8582 35.3904 15.9452 35.9498 16.0627C37.273 16.4101 37.7857 17.4097 37.0693 18.5706C36.544 19.4101 35.8458 20.1281 35.0212 20.6767C34.0046 21.3197 32.9079 21.8261 31.7592 22.1829C30.3021 22.6312 28.9733 23.4214 27.8836 24.4876C27.6626 24.761 27.4707 25.0568 27.3111 25.37C30.0857 26.0299 32.1903 27.7895 34.7524 28.5482C34.4281 29.4215 33.9396 29.1464 33.52 28.9909C32.0479 28.4452 30.587 27.8694 29.1172 27.3176C27.5522 26.7302 26.6619 26.9934 25.8002 28.3504C25.2676 29.189 24.8576 30.1081 24.2967 30.9254C23.6066 31.9696 22.84 32.9613 22.0033 33.8922C21.2088 34.7449 20.2264 35.2664 19.199 34.2692C16.9468 35.3255 16.1515 35.2244 14.8252 33.8138C13.9722 34.045 13.1019 34.2067 12.2227 34.2975C11.0973 34.3295 10.8908 33.3028 10.5132 32.2825C9.95785 32.5093 9.44631 32.6955 8.95422 32.9237C7.68844 33.5828 6.24931 33.8329 4.83536 33.6395C3.43536 33.4038 2.73469 32.6255 2.62917 31.2015C2.34977 27.4315 4.6387 24.1412 8.64323 22.7907C10.4176 22.1924 12.2785 21.8504 14.1654 21.3757C14.1654 20.8359 14.191 20.1405 14.153 19.4486C14.1251 19.157 14.0335 18.8752 13.8848 18.6228C13.6316 18.1671 13.3106 17.7496 13.0455 17.2999C11.9694 15.4747 11.6229 13.5971 12.7853 11.4398C13.1841 11.5636 13.6253 11.7006 14.2457 11.8933C13.5579 12.7465 13.8093 13.8858 12.73 14.2722C12.6921 14.3066 12.6661 14.352 12.6555 14.4021C12.2762 15.3183 13.9672 18.1664 14.9889 18.3036C15.5497 18.3789 16.118 18.3989 16.8424 18.4565ZM24.6063 12.9837C24.405 12.5417 24.3355 12.051 24.4059 11.5705C24.4763 11.09 24.6838 10.64 25.0034 10.2743C25.8477 9.1727 25.7482 8.0325 25.3944 6.84497C25.0869 5.81268 24.6421 5.57367 23.8136 6.17997C22.6037 7.0047 21.4896 7.96203 20.4922 9.03413C17.7419 12.2113 17.3474 16.1062 17.4367 20.1015C17.4599 20.2109 17.5154 20.3107 17.596 20.3881C21.014 21.0187 24.0095 22.3955 26.9478 24.2326C28.3672 22.503 30.4111 21.8977 32.4831 21.2526C33.5493 20.9206 34.5183 20.2085 35.455 19.5583C35.9053 19.1986 36.2667 18.74 36.5111 18.2181C36.854 17.5677 36.6355 17.1164 35.9555 16.8579C35.5628 16.7051 35.1409 16.6416 34.7206 16.6721C34.3002 16.7025 33.8919 16.8262 33.5253 17.034C33.1894 17.2109 32.8359 17.3543 32.4905 17.513C32.4908 17.123 32.6082 16.742 32.8274 16.4195C33.2075 15.8567 33.5553 15.2727 33.8689 14.6703C34.4412 13.3984 34.0084 12.6483 32.6384 12.4707C32.1155 12.3943 31.5817 12.4678 31.099 12.6829C30.6162 12.8979 30.2045 13.2456 29.9116 13.6854C29.5989 14.1045 29.3688 14.5864 29.0451 14.9956C28.8517 15.1647 28.6303 15.2991 28.391 15.3926C28.3073 15.3155 28.2237 15.2385 28.14 15.1615C28.444 14.6446 28.735 14.1194 29.0546 13.6124C29.9096 12.2561 30.4971 10.8137 30.4145 9.18007C30.365 8.20064 30.0931 8.00207 29.115 8.07788C28.3654 8.18991 27.6609 8.50569 27.0786 8.99075C26.4962 9.4758 26.0582 10.1115 25.8124 10.8285C25.6044 11.5716 25.4106 12.3119 24.6063 12.9837ZM13.8872 29.1398C13.2337 29.817 12.6929 30.3403 12.1951 30.9017C11.3902 31.8094 11.2548 32.757 11.8135 33.2973C12.2659 33.7348 13.3434 33.6442 14.1598 33.0869C14.5672 32.8087 14.9601 32.5091 15.4675 32.1408C15.5728 32.5191 15.6381 32.7056 15.6759 32.8974C15.8951 34.0116 16.4536 34.4515 17.5105 34.1611C17.9818 33.9652 18.4121 33.6826 18.7791 33.3279C19.0394 33.0919 19.2822 32.8373 19.5055 32.566C19.7718 33.1711 19.9717 33.6256 20.2276 34.2073C23.2388 32.6399 23.8973 29.5462 25.6564 27.0406C24.9018 26.7307 24.3431 26.4675 23.7624 26.2687C21.6322 25.5392 19.3726 25.0261 17.6218 23.5422C16.2414 22.3723 14.6963 22.1193 13.0702 22.3141C10.7601 22.522 8.53373 23.2819 6.57864 24.5299C4.38787 26.0099 3.1884 28.0588 3.32453 30.7799C3.39603 32.2083 3.92013 32.8376 5.32099 32.8815C6.1558 32.9211 6.99119 32.8166 7.79055 32.5727C9.33391 32.0626 10.8093 31.4083 11.847 30.0159C12.2343 29.4963 12.7249 28.8305 13.8872 29.1398ZM18.0215 22.1157C20.5695 23.3797 23.1218 24.6458 25.6784 25.914C26.3827 25.1233 25.8564 24.7972 25.302 24.4149C23.1309 22.9173 20.6023 22.5085 18.0215 22.1157ZM14.5893 20.203C15.1682 20.5247 15.5117 20.8134 15.8933 20.8786C16.0335 20.8137 16.1561 20.7162 16.251 20.5941C16.3458 20.4721 16.41 20.3292 16.4383 20.1773C16.4455 19.7081 16.1921 19.1814 15.6231 19.2779C15.3116 19.3308 15.0638 19.7588 14.5893 20.203Z" fill="#009FE3"/>
<path d="M13.4232 19.6454C13.2048 19.5288 12.9938 19.3989 12.7914 19.2564C11.3859 18.142 9.95509 18.4365 8.55947 19.2304C8.26404 19.482 8.03579 19.803 7.89524 20.1647C7.79998 20.3363 7.8807 20.6477 7.75846 20.7539C7.47418 21.0011 7.10438 21.3384 6.78846 21.3194C6.23136 21.2858 6.08394 20.7809 6.16202 20.2599C6.1889 20.1064 6.24817 19.9604 6.33589 19.8317C7.28501 18.4069 10.9704 17.4507 12.4861 18.2779C12.9286 18.5773 13.3398 18.9205 13.7134 19.3023C13.6167 19.4167 13.5199 19.5311 13.4232 19.6454Z" fill="#009FE3"/>
</svg>
