<svg width="40" height="40" viewBox="0 0 40 40" fill="none" xmlns="http://www.w3.org/2000/svg">
<path d="M14.2316 16.029C14.4601 15.1434 14.6556 14.3923 14.8474 13.6403C15.1998 12.259 15.8025 11.0467 17.1882 10.437C19.0252 9.6288 20.3828 10.3983 20.5888 12.3718C20.6712 13.1612 20.5914 13.9675 20.6735 14.7569C20.8067 16.0384 21.2827 16.5039 22.3934 16.5794C23.6856 16.6674 24.2697 16.2836 24.598 15.0274C24.7427 14.4739 24.6607 13.8494 24.8594 13.3244C25.0863 12.5791 25.4651 11.8888 25.9719 11.2971C26.8487 10.4313 28.0669 10.6269 28.7432 11.6733C29.1421 12.3581 29.4667 13.0836 29.7112 13.8375C30.3655 15.5897 31.0194 15.984 32.837 15.5307C33.6506 15.3278 34.4316 14.9937 35.4047 14.658C34.9447 15.3449 34.3086 15.8956 33.5629 16.2525C32.8171 16.6094 31.9892 16.7593 31.1657 16.6866C29.7527 16.5308 29.3225 15.4478 28.8811 14.3621C28.6935 13.7446 28.4523 13.1446 28.1602 12.5691C27.5538 11.6125 26.6359 11.6346 26.1687 12.6741C25.84 13.5486 25.6175 14.4593 25.5058 15.3868C25.2206 16.9662 24.4604 17.5853 22.6304 17.6377C20.973 17.6851 20.0651 17.1058 19.7655 15.6031C19.5836 14.6911 19.7109 13.7201 19.5611 12.798C19.4787 12.2912 19.2074 11.5395 18.8471 11.4189C18.2378 11.2715 17.5951 11.3635 17.0516 11.6759C16.6059 11.934 16.3163 12.5469 16.0823 13.06C15.9203 13.5384 15.8041 14.0312 15.7354 14.5316C15.1105 17.1694 13.9293 17.7698 11.6012 16.3527C10.6085 15.7484 9.88292 14.6702 9.12191 13.7373C8.8201 13.3673 8.76062 12.8034 8.57478 12.3341C8.21224 11.4185 8.12358 10.1801 6.84853 10.0968C5.48824 10.0079 4.59558 10.9234 3.87995 11.9826C3.53643 12.4121 3.35547 12.9491 3.36895 13.4989C3.38243 14.0487 3.58948 14.5761 3.95364 14.9883C4.24795 15.3597 4.57621 15.7041 4.89241 16.0647C4.3753 16.8467 3.9277 16.6875 3.46633 16.1691C2.81114 15.4788 2.43262 14.5718 2.40279 13.6205C2.37295 12.6692 2.6939 11.7402 3.30454 11.0102C3.76892 10.4577 4.32835 9.99264 4.95641 9.63701C7.25998 8.31794 8.53194 8.82271 9.35595 11.3836C9.99786 13.3783 10.8299 15.1808 13.0362 15.8669C13.4307 15.9469 13.83 16.0011 14.2316 16.029Z" fill="#F6AE83"/>
<path d="M4.80009 24.0074C3.52741 23.6367 3.38022 22.7979 3.76294 21.8152C4.36384 20.2721 5.6698 19.4327 7.17546 19.0846C7.71047 18.9609 8.53721 19.4375 9.00999 19.8774C9.57314 20.4013 9.86938 21.2018 10.3338 21.8445C11.1492 22.9728 12.0137 23.2739 13.3546 22.9151C14.4898 22.6112 15.2186 22.013 15.3441 20.6903C15.5111 18.9304 16.9176 17.929 18.6391 18.2866C19.1634 18.4646 19.6164 18.8069 19.9308 19.2627C20.2765 19.7054 20.3895 20.3215 20.6843 20.8139C21.5638 22.2825 22.5342 22.2937 23.3347 20.766C23.6105 20.2171 23.9971 19.7313 24.4699 19.3392C24.9428 18.9471 25.4917 18.6572 26.0822 18.4877C27.5152 18.0339 28.1543 18.2816 28.9617 19.6029C30.4478 22.035 31.3077 22.2829 33.8624 21.0099C34.495 20.6947 35.1229 20.3699 35.7513 20.0503C35.8506 20.188 35.9277 20.3404 35.9798 20.502C35.375 21.1616 34.6451 21.6944 33.8326 22.0695C33.0202 22.4447 32.1412 22.6546 31.2469 22.6872C29.9734 22.7727 29.1276 21.9447 28.4879 20.8896C27.2898 18.9133 25.6024 18.841 24.4475 20.8258C23.8085 21.9242 23.4026 23.0569 21.8184 22.9023C20.306 22.7547 19.9088 21.53 19.3296 20.4632C19.1277 20.0914 18.9263 19.7192 18.7463 19.3871C16.6399 19.3928 16.5679 19.38 16.2803 20.9904C15.9669 22.7456 14.8693 23.6547 13.2588 23.9603C11.6682 24.2622 10.2135 23.9894 9.39192 22.3332C9.28543 22.1442 9.16748 21.9618 9.03875 21.7871C7.92456 20.1013 7.65615 19.9545 6.57003 20.4358C5.06416 21.1031 4.66711 21.9235 5.03458 23.59C4.97788 23.7401 4.89882 23.8808 4.80009 24.0074Z" fill="#F6AE83"/>
<path d="M37.6 26.1581C36.0703 28.0103 34.7554 29.6158 32.6661 30.1908C31.8295 30.391 30.95 30.3077 30.1659 29.954C29.2784 29.4839 28.4972 28.8361 27.8709 28.051C26.4267 26.3443 25.7393 26.2957 24.4111 28.0556C24.0635 28.516 23.8223 29.0594 23.4585 29.5045C22.162 31.091 19.984 30.9958 18.8768 29.275C18.4104 28.47 17.9863 27.6414 17.6061 26.7923C16.0683 26.4269 15.308 27.2632 14.6117 28.3986C14.1764 29.2096 13.5717 29.9174 12.8386 30.4739C11.2994 31.47 9.80379 31.1829 8.53993 29.8399C8.07283 29.2876 7.63725 28.7095 7.23524 28.1082C6.17448 26.6878 5.64509 26.6204 4.23694 27.7022C3.92214 27.944 3.57899 28.1489 3.14197 28.4427C3.30654 26.9846 4.01437 26.1982 5.29837 25.8139C6.40317 25.4832 7.08698 26.0081 7.64406 26.8755C8.02165 27.4926 8.43153 28.0894 8.87199 28.6633C10.4551 30.6343 12.4954 30.4199 13.7735 28.2545C14.2676 27.4173 14.8687 26.5124 15.6575 26.0082C17.132 25.0657 18.156 25.4884 18.9599 27.0674C19.189 27.5174 19.3339 28.0142 19.5917 28.445C20.4525 29.8829 21.8596 29.9372 22.9184 28.6044C23.447 27.8322 24.0439 27.1091 24.7019 26.4437C26.1561 25.1762 27.127 25.3438 28.2934 26.8928C28.5546 27.2397 28.7784 27.6175 29.0618 27.9443C30.6095 29.7284 32.3439 29.8736 34.1918 28.3611C35.0834 27.6313 35.939 26.8576 36.8171 26.111C37.079 26.0968 37.3417 26.1126 37.6 26.1581Z" fill="#F6AE83"/>
</svg>
