<svg width="707" height="116" viewBox="0 0 707 116" fill="none" xmlns="http://www.w3.org/2000/svg">
<path d="M427.955 24.0281C494.304 25.6043 613.252 12.7843 667.793 13.5199C722.896 14.3605 704.341 28.5466 702.654 42.6276C700.968 56.7086 715.587 107.358 671.167 111.351C626.747 115.344 522.726 109.46 458.064 115.029C393.965 120.493 369.225 100.738 319.182 108.934C269.139 117.131 193.232 116.711 135.88 110.406C79.0899 104.101 34.4411 116.59 13.6369 104.4C-7.72959 92.1054 -4.61628 32.9601 27.4335 24.0281C58.9209 15.0961 54.9261 19.1943 96.5345 13.5199C138.143 7.95052 224.157 14.8859 249.46 8.89626C274.762 3.01166 309.623 -3.08311 329.303 1.75067C348.983 6.58445 362.169 22.4519 427.955 24.0281Z" fill="#41B37E"/>
</svg>
