<svg width="147" height="100" viewBox="0 0 147 100" fill="none" xmlns="http://www.w3.org/2000/svg">
<path d="M86.6346 31.0815L87.2386 27.2988C88.2139 27.3442 89.0733 27.3843 90.2826 27.4405C90.2378 28.4018 90.2457 29.3648 90.3064 30.3252C90.4764 31.3885 90.7019 32.4422 90.982 33.482C93.7728 31.5277 91.8687 27.9777 94.8234 26.0362C94.4498 28.3609 94.1521 30.2139 93.8544 32.0669C94.0727 32.1521 94.291 32.2374 94.5094 32.3228C95.1961 30.8139 95.86 29.294 96.5841 27.8034C96.8371 27.3963 97.1337 27.0178 97.4685 26.6747C97.6958 27.1189 97.8447 27.599 97.9084 28.094C97.8582 29.027 97.5812 29.9455 97.4876 30.879C97.4779 31.4207 97.5166 31.9621 97.6033 32.4969L98.2025 32.6455L101.409 26.8438C102.646 29.0528 103.594 29.2482 105.34 27.9202C106.836 29.4274 104.393 30.5355 104.919 32.0637L108.885 29.2222L109.402 29.5737C109.108 30.6528 108.813 31.732 108.442 33.0931C110.363 31.4713 112.086 30.0165 114.079 28.3341L114.292 31.4478C114.95 31.1217 115.469 30.8645 116.128 30.538L116.873 31.8621C117.59 31.624 118.265 31.3994 119.165 31.1003L118.778 33.7444C120.39 34.0837 121.639 34.2154 122.916 32.7984C124.231 31.5345 125.725 30.4703 127.349 29.6397C128.244 29.106 129.354 28.7113 130.014 29.876C129.155 30.638 128.342 31.3594 127.471 32.1327C128.311 32.9242 128.745 33.3331 129.582 34.1204C128.048 34.3256 126.897 34.4796 125.76 34.6318C127.096 35.6796 127.81 35.7504 129.34 34.7263C130.59 33.8894 131.732 32.8917 132.956 32.013C133.467 31.695 133.999 31.414 134.55 31.1722L134.963 31.62C133.956 33.5335 132.95 35.4469 131.944 37.3603L132.257 37.713C133.48 37.3224 134.704 36.9319 135.927 36.5415C136.094 36.7121 136.26 36.8827 136.426 37.0532C135.764 38.1353 135.101 39.2174 134.218 40.6608C135.467 40.3892 136.425 40.1176 137.403 39.9989C137.84 40.0405 138.265 40.1662 138.654 40.3692C138.433 40.706 138.221 41.0499 137.988 41.3784C137.382 42.2325 136.767 43.0798 136.23 43.8251C137.444 43.889 138.535 43.9466 139.627 44.0041C139.557 45.2672 139.487 46.5303 139.409 47.9448C139.779 47.8615 140.623 47.6711 141.673 47.4341C142.381 49.4643 140.205 49.3268 139.529 50.3703C140.425 51.2907 141.72 52.4761 140.147 53.6576C139.24 54.3385 137.776 54.2771 136.525 54.5582C136.575 54.7422 136.654 54.9172 136.758 55.0768C137.417 55.5663 138.087 56.0398 138.754 56.5182C138.09 57.0979 137.455 57.7184 136.746 58.237C136.393 58.3597 136.03 58.4489 135.66 58.5032C134.856 58.8481 134.05 59.1424 135.157 60.2014C135.496 60.5246 135.33 61.4282 135.302 62.0617C135.284 62.4465 135.027 62.816 134.98 63.2047C134.809 64.411 134.289 65.5407 133.483 66.4544C132.677 67.3681 131.621 68.0258 130.446 68.3461C130.302 68.3724 130.165 68.429 130.044 68.5122C129.924 68.5955 129.822 68.7034 129.747 68.8288C129.475 70.5086 128.38 70.2502 127.367 69.7817C126.207 69.2455 125.136 68.518 123.927 67.816C123.701 68.252 123.344 68.94 122.892 69.8112C121.797 68.2193 120.814 68.7858 120.401 69.9607C119.77 71.7551 119.15 73.5284 117.064 73.84C115.199 73.9828 113.326 73.9994 111.459 73.8895C112.148 72.2333 112.632 71.0727 113.215 69.671C111.632 69.9062 110.149 70.1161 108.67 70.3567C108.418 70.3783 108.185 70.4986 108.021 70.6913C107.234 72.298 106.857 72.3718 105.377 71.4678C104.75 71.1491 104.064 70.9641 103.362 70.9245C102.297 70.8042 101.225 70.7483 100.153 70.757C99.6793 70.754 99.2124 70.873 98.7976 71.1025C96.6557 72.3861 94.6811 71.5774 92.7893 70.5814C91.6593 69.9866 90.6748 69.7831 89.7607 70.773C88.8756 71.7314 88.0391 71.7436 87.3671 70.6711C86.7413 69.6722 86.3438 70.0139 85.7149 70.6447C85.0229 71.3388 84.1978 71.9002 83.1572 72.7403C83.0978 72.2042 82.9921 71.6743 82.8413 71.1565C82.7036 70.6621 82.4195 70.2209 82.0263 69.891C81.7898 69.8647 81.5505 69.8979 81.3301 69.9877C81.1098 70.0775 80.9154 70.221 80.7646 70.4052C80.6645 70.6164 80.5188 70.8029 80.3379 70.951C80.157 71.0991 79.9455 71.2052 79.7186 71.2616C79.4917 71.3181 79.2551 71.3235 79.0259 71.2774C78.7967 71.2313 78.5806 71.1349 78.3931 70.9952C77.962 70.9506 77.5299 71.0692 77.182 71.3276C74.707 72.7107 72.4278 72.6145 70.3883 70.7647C71.542 69.5757 72.6871 68.3955 73.6501 67.4031C69.8658 67.6327 66.0677 67.3754 62.3489 66.6376C60.0894 66.0876 57.6275 66.3183 55.2559 66.3022C54.5852 66.2269 53.9488 65.9661 53.4181 65.5492C52.8874 65.1323 52.4834 64.5757 52.2515 63.9419C52.152 63.568 52.1287 63.1779 52.1829 62.7948C52.237 62.4117 52.3675 62.0433 52.5667 61.7116C52.7659 61.3799 53.0296 61.0915 53.3423 60.8636C53.655 60.6357 54.0102 60.4729 54.387 60.3849C56.4747 59.6949 58.3283 59.3881 60.4895 60.4243C61.139 60.7359 62.7998 59.4425 63.7225 58.5877C66.7747 55.76 69.72 52.8155 72.6664 49.8759C73.7003 48.8332 74.6707 47.7294 75.5723 46.5704C75.737 46.1641 75.7736 45.7172 75.6773 45.2895C75.4214 41.2488 75.1247 37.2103 74.906 33.1675C74.9676 32.5646 75.1199 31.9743 75.3576 31.4167C75.5726 31.4126 75.7877 31.4083 76.0028 31.4041C76.4825 32.9572 76.9621 34.5104 77.4418 36.0637C77.6431 36.0259 77.8445 35.9882 78.0458 35.9506C77.8723 34.7859 77.6096 33.6257 77.5522 32.4554C77.5017 31.4248 76.5898 30.101 78.5109 29.3364C78.8753 30.0311 79.2276 30.7027 79.7516 31.7016V27.557C81.6797 26.8286 82.3854 27.6916 82.6734 29.2919C82.8451 30.2461 83.1382 31.1783 83.4175 32.2816C85.5285 31.0904 83.437 28.0881 86.0025 26.8701L86.397 31.0983L86.6346 31.0815ZM95.9415 45.8032C96.4395 46.1041 96.9375 46.405 97.4071 46.6886C100.05 44.4488 100.324 43.3589 98.8692 40.8716C97.765 42.4744 95.7347 43.4733 95.9596 45.8318C95.5488 45.2171 95.1379 44.6024 94.5744 43.7593C94.6234 45.7015 93.444 47.4358 94.729 49.2227C95.3337 48.929 95.8148 48.6952 96.296 48.4614C95.8056 49.1294 95.2676 49.7611 94.6864 50.3517C94.2645 50.1976 93.8784 49.9595 93.5514 49.6517C93.0411 49.2517 92.5719 48.7993 92.0714 48.3573C92.6731 47.4571 93.1384 46.473 93.4523 45.4368C93.8152 43.3638 93.8105 41.2277 93.9921 39.1208C94.0502 38.4474 94.2132 37.7833 94.3292 37.1094C93.949 37.0919 93.6103 37.0764 93.0658 37.0514C93.4996 35.9192 93.8657 34.9637 94.4258 33.5017C93.296 33.9483 92.3128 34.0259 91.9468 34.5416C91.4612 35.2432 91.1565 36.0539 91.0596 36.9016C90.9628 37.7494 91.0768 38.6079 91.3917 39.4009C92.1676 38.5662 92.744 37.9461 93.3203 37.3261C93.4259 37.4506 93.497 37.6006 93.5264 37.7612C93.5559 37.9218 93.5427 38.0872 93.4881 38.2411C92.4618 40.9714 88.8944 42.9889 91.1269 46.6424C91.1284 46.6449 90.9533 46.7553 90.6537 46.9494C90.2369 45.7866 89.8401 44.6796 89.4259 43.5238C88.1449 46.1679 88.6276 49.1602 90.4567 50.258C89.2395 51.3371 88.726 54.2894 89.5928 55.6717C89.7145 55.8368 89.8742 55.9702 90.0584 56.0605C90.2427 56.1507 90.446 56.1952 90.6511 56.1901C90.8456 56.114 91.0183 55.9908 91.1534 55.8315C91.2886 55.6721 91.3821 55.4817 91.4254 55.2773C91.4973 53.2816 91.4612 51.282 91.4612 49.2836C92.0642 49.804 92.4606 50.5235 92.5782 51.3113C92.8335 53.999 92.9537 56.6995 93.1251 59.3951C93.3822 59.427 93.6394 59.459 93.8966 59.4911C94.39 58.3882 94.8834 57.2852 95.5147 55.8739L95.7092 57.6574L96.9129 56.6683C98.4796 57.6035 98.0562 58.8926 97.8112 60.2093C97.5538 61.5925 96.6658 63.2605 98.5278 64.125C99.2269 64.4496 100.268 64.0382 101.153 63.9623C101.333 64.1435 101.513 64.3247 101.693 64.5059C100.874 64.9321 100.113 65.4619 99.4281 66.0821C99.0402 66.7436 98.7737 67.4692 98.6413 68.2245C98.8891 68.2982 99.137 68.3718 99.3849 68.4454C99.4648 67.9361 99.6498 67.449 99.9279 67.015C100.609 66.4484 101.334 65.9371 102.096 65.486C102.379 65.9761 102.638 66.4802 102.87 66.9965C103.138 67.6694 103.328 68.3731 103.612 69.2532C104.377 68.1061 105.115 67.2248 103.73 66.1972C103.491 65.8387 103.355 65.4215 103.336 64.991C102.979 63.9615 102.738 62.8952 102.618 61.8122C102.683 60.8032 102.922 59.813 103.325 58.8855C103.74 58.8062 104.165 58.8001 104.582 58.8674L104.312 54.2652C106.665 53.4148 106.65 51.4461 106.754 49.4208C105.689 49.8078 104.458 50.6957 103.879 50.3818C102.199 49.4727 101.649 50.4752 101.193 51.5791C100.795 52.5428 100.806 53.6686 100.466 54.665C100.03 55.9434 100.705 56.4583 101.766 57.0392C102.026 56.0746 102.249 55.2482 102.471 54.4216L102.914 54.4595L103.44 57.5712C102.515 58.3451 101.543 59.0599 100.529 59.7114C100.367 59.8519 100.166 59.9379 99.953 59.9572C99.7401 59.9765 99.5264 59.9281 99.3426 59.8189C99.1588 59.7097 99.0141 59.5453 98.9291 59.349C98.8442 59.1528 98.8234 58.9347 98.8697 58.7259C98.9451 57.6186 99.0793 56.516 99.2717 55.4229C99.2771 55.2469 99.2678 55.0707 99.2441 54.8962L98.3676 55.4907V48.1651C97.6791 48.2529 97.0061 48.3387 96.3332 48.4246C96.2216 47.9106 96.089 47.3998 96.0056 46.8813C95.9652 46.5233 95.9437 46.1635 95.9415 45.8032V45.8032ZM118.365 35.8707C117.857 35.6826 117.322 35.5766 116.781 35.5567C115.512 35.6623 114.318 36.205 113.404 37.0922C112.49 37.9794 111.912 39.1563 111.769 40.422C111.681 42.5806 112.347 44.7024 113.653 46.4232C116.363 49.9716 120.658 50.3179 124.744 50.4747C127.004 50.5615 130.081 47.8344 130.589 46.0044C131.267 43.5597 128.215 37.9179 126.043 37.1451C125.042 36.9144 123.992 37.0214 123.057 37.4492C122.699 37.5905 122.729 38.7174 122.54 39.5901C121.704 38.921 120.538 38.5587 120.557 37.0141C120.48 36.3912 120.319 35.7816 120.078 35.2023C119.463 35.442 118.849 35.6817 118.365 35.8707V35.8707ZM74.3137 50.3326C71.9363 52.9324 69.8831 55.6343 67.368 57.7999C64.8458 59.9717 61.8631 61.6083 58.9106 63.5949C59.7488 64.0229 60.6364 64.3463 61.5535 64.5579C64.8909 64.7968 68.2424 64.843 71.5786 65.0943C73.6635 65.2513 75.7304 65.649 77.961 65.9603C79.4561 62.8989 79.4607 62.2912 78.2506 59.2929C78.1239 58.6001 78.1129 57.891 78.2182 57.1945C77.7055 56.8987 76.948 56.4617 76.1905 56.0247C76.3443 55.0685 76.4923 54.1483 76.6608 53.1013C74.0162 53.7903 74.4965 51.8945 74.3137 50.3326ZM119.291 51.9704C119.606 52.1329 119.921 52.2954 120.236 52.4579C116.445 55.2471 119.126 58.4532 118.853 61.7137C121.335 59.9776 120.763 57.705 120.983 55.5139C121.393 55.9611 121.804 56.4085 122.164 56.8014C123.627 55.5607 124.968 54.3796 126.371 53.2781C126.735 53.1863 127.116 53.1901 127.478 53.2891C127.51 53.6887 127.456 54.0906 127.319 54.4673C126.983 54.8934 126.603 55.2824 126.186 55.6278C126.846 55.9878 127.572 56.6945 127.992 56.5445C128.616 56.2142 129.165 55.7578 129.603 55.2043C129.253 54.8166 128.983 54.3636 128.808 53.8713C129.445 52.9913 130.184 51.6906 131.036 51.5683C132.601 51.3439 133.027 50.2848 133.533 49.2719C133.943 48.2369 134.26 47.1677 134.481 46.0767C133.45 45.8084 132.566 46.1869 131.751 47.3853C128.811 51.7101 125.77 52.8535 120.694 51.7189C119.437 51.3665 118.16 51.089 116.87 50.888C116.168 50.8455 115.476 51.0798 114.944 51.5407C113.174 53.2823 113.123 54.7904 114.563 57.6922C116.151 55.7702 117.721 53.8703 119.291 51.9704ZM87.1501 52.6169C87.2692 51.711 87.5745 50.9966 87.3531 50.7441C86.892 50.1274 86.2217 49.7001 85.468 49.5425C84.852 49.5258 84.2158 50.2552 83.3374 50.8171C84.0389 50.9505 84.3841 51.0161 84.7226 51.0804C84.4596 55.5185 84.8158 57.3822 86.3166 58.791C86.5899 57.7827 86.8357 56.8759 87.1346 55.7735C89.0159 57.7345 85.9122 59.2679 86.9759 61.0757C87.1793 61.4213 86.3736 62.3605 85.743 63.594L81.4474 56.6609C80.9335 57.2536 80.4749 57.7825 80.0162 58.3115C80.5554 58.6224 81.0664 58.9798 81.5434 59.3797C81.9614 59.7713 82.2825 60.2549 82.4813 60.7921C82.8754 62.0045 81.6847 63.926 84.0768 64.2127C83.9963 66.0413 85.591 65.5846 86.4229 66.1068C86.9022 65.3266 87.3107 64.6618 87.7975 63.8697C88.2983 64.3352 88.6217 64.6359 89.1169 65.0962C89.4768 62.8781 90.6236 60.8926 88.7442 59.0497C88.6502 58.8628 88.634 58.6462 88.6991 58.4474C88.925 57.4224 88.9023 56.3583 88.6328 55.344C88.3633 54.3296 87.8549 53.3945 87.1501 52.6169ZM79.9882 45.8869C79.6002 45.7069 79.2586 45.4405 78.9896 45.108C78.4564 44.1066 77.9782 43.0769 77.5571 42.0235C77.0434 45.4471 76.596 48.4291 76.1431 51.4478C76.9438 51.3462 78.0533 51.2053 79.4648 51.0261C79.0945 51.8081 78.7771 52.614 78.5145 53.4384C78.313 53.99 78.3302 54.5978 78.5625 55.1371C79.0716 55.3986 79.6576 55.469 80.2142 55.3356C80.6298 55.2264 81.0256 55.0529 81.3874 54.8211C80.5515 52.8377 81.3952 50.4945 79.922 48.5446C79.5172 48.0088 79.9405 46.8473 79.9881 45.8869L79.9882 45.8869ZM110.314 44.6896C109.654 46.1584 108.527 47.5998 108.86 48.1358C109.696 49.484 108.771 50.2484 108.507 51.2414C108.226 52.0305 108.011 52.8417 107.866 53.6667C107.756 54.904 107.837 56.1582 107.837 57.4053L108.437 57.6558C108.955 57.046 109.473 56.4363 110.245 55.5262C111.747 55.5173 111.977 53.5066 112.005 52.4237C112.069 49.9695 112.234 47.2973 110.314 44.6896L110.314 44.6896ZM104.741 48.3198L105.268 48.6827C107.838 47.6481 108.877 45.0052 109.615 42.8604C110.359 40.6975 109.589 38.0138 109.491 35.7566C107.393 37.5406 106.041 39.8725 107.183 42.3164C106.214 44.6967 105.478 46.5083 104.741 48.3198L104.741 48.3198ZM95.8614 34.6674C96.0963 36.6386 96.358 38.8343 96.6197 41.03L97.2089 41.1189C97.6878 40.6692 98.1074 40.1601 98.4573 39.6039C98.8885 38.3191 99.4008 37.0629 99.991 35.8429C100.926 34.3803 100.48 33.541 99.4218 32.8181C98.2986 33.4015 97.3241 33.9077 95.8614 34.6674L95.8614 34.6674ZM82.136 33.3422C81.7725 33.3019 81.6702 33.2906 81.5678 33.2792C80.5928 42.3962 80.7265 44.3282 82.5307 46.062V42.3143C82.6844 42.3207 82.8381 42.3271 82.9918 42.3336C83.2679 42.8171 83.544 43.3005 84.0393 44.168C83.3433 40.2092 82.7333 36.7399 82.136 33.3422ZM104.384 65.4915C106.734 64.4346 109.331 60.378 109.228 57.8761C108.191 58.8502 107.305 59.6826 106.406 60.5277C105.655 60.3388 104.577 59.0448 104.41 60.9465C104.281 62.4148 104.384 63.9035 104.384 65.4915ZM109.824 65.8508C110.874 65.4646 111.89 64.9928 112.862 64.4399C113.749 63.8315 114.704 62.7709 113.654 61.8174C113.219 61.4489 112.71 61.1771 112.163 61.02C111.615 60.8629 111.04 60.8241 110.476 60.9061C109.907 61.0488 109.617 62.7115 109.411 63.7332C109.431 64.457 109.571 65.1726 109.824 65.8508L109.824 65.8508ZM102.142 46.3465L102.687 46.5621L106.419 41.347C105.215 41.521 104.301 41.6529 103.257 41.8037L102.509 40.5481C101.159 42.6224 102.029 44.5011 102.142 46.3465ZM123.583 61.627C121.613 62.2282 119.735 62.8017 117.947 63.3474C118.085 63.4013 118.603 63.6041 119.152 63.8194L118.658 65.8944C120.521 65.2558 122.095 64.7163 123.909 64.0945L123.583 61.627ZM87.4341 45.5989V36.1068L86.9239 36.0303C86.3661 37.7663 85.806 39.5016 85.2584 41.241C85.2698 41.3391 85.309 41.432 85.3714 41.5087C85.9982 42.7533 86.6262 43.9975 87.4341 45.5989ZM102.234 32.8215L102.559 35.6139C101.828 36.5323 101.235 37.2782 100.607 38.0678C101.195 38.4467 101.585 38.6982 102.098 39.0284C103.061 37.4703 104.024 35.9132 105.103 34.1689C103.841 34.0567 102.416 34.6082 102.234 32.8215ZM107.899 64.2332L107.334 64.2928C107.505 65.909 107.675 67.5252 107.862 69.29C109.975 68.161 109.975 68.161 107.899 64.2332H107.899ZM93.4749 63.646L93.7712 64.2787C94.4115 64.0287 94.9944 63.6513 95.4845 63.1694C95.7931 62.4657 95.9741 61.7127 96.0191 60.9455C96.1745 60.1373 96.3021 59.3238 96.5419 57.9323C95.3485 60.1556 94.4117 61.9008 93.4749 63.646H93.4749ZM131.661 60.3403C131.473 59.7549 131.233 59.1875 130.944 58.6449C130.797 58.5608 130.632 58.5147 130.463 58.5107C130.293 58.5066 130.126 58.5449 129.975 58.6219C128.998 59.4324 128.092 60.3279 127.161 61.1935L127.323 61.542C128.649 61.1746 129.976 60.8072 131.661 60.3403ZM110.918 37.0296C112.633 35.9948 114.208 35.0436 115.787 34.0906C114.239 32.4842 112.394 33.5891 110.918 37.0296ZM106.321 38.0019C107.363 36.6968 108.23 35.611 109.097 34.5252C107.643 35.1759 104.796 34.6847 106.321 38.0019V38.0019ZM114.07 65.3957C112.219 65.3712 111.138 66.5619 111.48 68.0495C111.52 68.1887 111.591 68.3167 111.689 68.4235C111.787 68.5302 111.908 68.6127 112.043 68.6645C112.187 68.667 112.329 68.6339 112.457 68.5683C112.585 68.5027 112.695 68.4065 112.776 68.2882C113.226 67.4071 113.593 66.4846 114.07 65.3957V65.3957ZM85.6032 33.5484C83.1789 34.7467 84.6257 36.047 84.6193 37.3018C84.8517 37.3164 85.0841 37.3311 85.3166 37.3458L85.6032 33.5484ZM100.161 45.5341L99.5033 49.5577C101.316 48.5384 101.559 47.5198 100.161 45.5341ZM111.83 58.8562C112.079 58.8716 112.328 58.887 112.577 58.9024C112.632 58.0047 112.725 57.106 112.699 56.2106C112.427 56.0336 112.123 55.9127 111.804 55.8551C111.733 56.6416 111.642 57.4271 111.605 58.2152C111.64 58.4408 111.717 58.6581 111.83 58.8562ZM90.5446 61.9947L90.1096 64.4411C91.0055 64.9311 91.6848 65.3027 92.3641 65.6741L92.7206 65.5752C92.068 64.5015 91.4155 63.4277 90.5446 61.9947ZM88.8809 32.9597C88.7644 32.9871 88.648 33.0144 88.5315 33.0418C88.4067 33.7556 88.3442 34.4789 88.3447 35.2035C88.4954 35.5886 88.7336 35.9334 89.0406 36.2105C89.3897 35.9019 89.6493 35.505 89.7922 35.0615C89.5704 34.3281 89.2646 33.6228 88.8809 32.9597L88.8809 32.9597ZM94.0095 65.8763C94.9333 66.0162 95.7303 66.4009 96.2232 66.1608C97.5553 65.5123 96.8161 64.7866 96.098 64.0492C95.3752 64.6815 94.7417 65.2357 94.0095 65.8763L94.0095 65.8763ZM131.214 62.9058C130.98 63.0961 130.745 63.2864 130.511 63.4767C131.041 64.1065 131.552 64.7545 132.133 65.3335C132.437 65.1819 132.722 64.9963 132.984 64.7801L131.214 62.9058ZM117.452 66.787C115.208 66.4323 114.838 67.3313 114.884 69.2219C115.836 68.319 116.486 67.7033 117.452 66.787ZM116.244 57.5425C115.936 58.4135 115.627 59.2845 115.218 60.4389C117.578 60.0393 117.193 58.8688 116.244 57.5425L116.244 57.5425ZM113.434 48.6102L112.713 48.92C112.952 49.5532 113.192 50.1864 113.431 50.8196C113.768 50.6304 114.106 50.4411 114.444 50.2518L113.434 48.6102Z" fill="#F6AE83"/>
<path d="M122.27 47.4687C122.909 47.1865 123.503 46.8119 124.033 46.3568C125.051 45.182 125.91 43.871 126.87 42.6436C127.217 42.2562 127.592 41.8947 127.992 41.562C128.299 42.0289 128.512 42.5516 128.618 43.1005C128.513 46.1874 125.255 48.7467 122.27 47.4687Z" fill="#F6AE83"/>
<path d="M73.2867 55.2577C74.1654 55.3886 75.6531 55.5507 75.4142 57.1683C75.2758 57.6638 75.0405 58.1269 74.7219 58.5309C74.4033 58.9348 74.0078 59.2715 73.5582 59.5215C72.2698 60.2498 70.5276 57.9971 71.448 56.8302C72.0103 56.2497 72.6259 55.7232 73.2867 55.2577Z" fill="#F6AE83"/>
<path d="M33.0533 43.6451C32.3571 43.6542 31.6609 43.6262 30.9676 43.561C30.3941 43.4243 29.8323 43.2424 29.2875 43.017C28.7634 42.8938 28.2505 42.727 27.7542 42.5185C26.7533 41.9943 25.6998 41.5772 24.6114 41.2741C23.9003 41.0728 23.1679 40.9224 22.4697 41.166C20.5712 41.8286 18.7838 43.72 18.9853 45.9235C18.9995 46.0455 18.9781 46.169 18.9236 46.2791C18.6879 46.6872 18.4331 47.0844 18.1827 47.484C17.1228 49.1761 16.6915 51.0647 16.4479 53.013C16.4264 53.082 16.3941 53.1471 16.3522 53.206C16.0878 52.3266 15.7956 51.4828 15.5833 50.6193C15.2794 49.2147 14.7778 47.8603 14.0933 46.5966C14.0719 46.5425 14.0622 46.4846 14.0649 46.4265C14.0675 46.3685 14.0824 46.3116 14.1086 46.2597C14.4629 45.6394 14.6689 44.9456 14.7105 44.2324C14.7369 43.3708 14.6731 42.5352 13.9287 41.9281C13.0477 41.2095 12.1368 40.5558 10.9812 40.3442C10.5455 40.2058 10.0982 40.1074 9.64464 40.05C8.09191 40.0628 6.53937 39.9713 5.04208 40.65C4.00054 41.1222 2.86904 41.4018 1.87312 41.9946C1.74132 42.0898 1.6187 42.1971 1.50684 42.3151C1.64116 42.4257 1.77001 42.5443 1.91273 42.6427C1.97786 42.6692 2.04834 42.6798 2.11838 42.6737C2.76003 42.7194 3.40463 42.7391 4.04284 42.8139C5.10511 42.9384 6.08571 43.2653 6.83044 44.0941C7.61875 44.9713 8.43558 45.8246 9.18976 46.7301C10.0004 47.7036 11.9448 48.3201 13.1532 47.215C13.1865 47.2367 13.2166 47.2629 13.2428 47.2928C13.8501 48.2408 14.294 49.2839 14.5561 50.3788C14.7918 51.3229 14.9168 52.2946 15.0912 53.254C15.2438 54.0931 15.4129 54.9296 15.5453 55.7719C15.6738 56.5899 15.3456 57.343 15.1782 58.1228C14.8294 59.7475 14.0788 61.3095 14.2942 63.0263C14.412 63.965 14.6044 64.8971 14.8153 65.8203C14.942 66.2554 15.0997 66.6808 15.2871 67.0933C14.8112 67.1672 14.3945 67.2129 13.9868 67.3003C13.5689 67.39 13.1598 67.5202 12.7469 67.6332C12.5991 67.6621 12.4542 67.7039 12.3137 67.758C11.9795 67.917 11.6563 68.0989 11.3254 68.265C10.9797 68.4134 10.6422 68.5803 10.3144 68.765C9.41708 69.3454 8.53553 69.9505 7.65555 70.5571C7.53355 70.6486 7.43576 70.7685 7.3707 70.9064C7.32761 71.0036 7.26516 71.091 7.18714 71.1633C7.10913 71.2356 7.0172 71.2912 6.91696 71.3267C6.61181 71.4905 6.35 71.7245 6.15312 72.0094C6.09834 72.0778 6.21744 72.4005 6.33655 72.4705C6.64953 72.6427 6.98024 72.7804 7.32287 72.8813C8.06557 73.1222 8.49324 72.6986 8.43663 72.0906C8.84543 71.8784 9.25572 71.673 9.35776 71.1766C9.38938 70.9589 9.49055 70.7574 9.64615 70.6019C9.80175 70.4465 10.0034 70.3456 10.2211 70.3142L10.35 70.3932C10.258 70.4722 10.1757 70.5617 10.1047 70.6599C9.9597 70.899 9.83884 71.1518 9.74389 71.4148C9.71824 71.4943 9.89254 71.7329 9.93177 71.7232C10.1498 71.6567 10.3619 71.5723 10.566 71.4709C10.7471 71.3922 10.9226 71.297 11.1092 71.2351C11.2727 71.2088 11.4347 71.1736 11.5945 71.1298C11.7732 71.0464 11.8824 71.013 12.0508 71.182C12.2259 71.3578 12.4627 71.2921 12.6485 71.1287C12.7738 71.0185 12.8929 70.9014 13.0108 70.7912C13.7564 71.1895 14.6856 70.8504 15.1509 70.0234C14.7237 69.4163 14.3576 69.2552 13.9079 69.4897C13.7082 69.5938 13.5472 69.7313 13.6698 70.0342C13.8036 69.9129 13.95 69.8062 14.1065 69.716C14.1651 69.6836 14.2296 69.6632 14.2961 69.656C14.3627 69.6488 14.43 69.6549 14.4942 69.6741C14.5584 69.6932 14.6181 69.7249 14.6699 69.7674C14.7216 69.8098 14.7644 69.8622 14.7957 69.9214C14.9505 70.1856 14.7185 70.2966 14.5526 70.4185C14.4425 70.5267 14.3096 70.6089 14.1636 70.659C13.9042 70.6963 13.5519 70.7676 13.3934 70.6368C13.2313 70.503 13.2483 70.1451 13.2005 69.8827C13.1725 69.7287 13.171 69.5698 13.1531 69.3609C13.233 69.2761 13.373 69.1411 13.4965 68.9924C13.6114 68.8543 13.7087 68.7015 13.8619 68.4879C13.8841 69.2766 14.3546 69.5333 14.9676 69.1969C15.1918 69.0391 15.4361 68.9119 15.694 68.8189C16.1177 68.7468 16.5454 68.7009 16.9747 68.6812C17.0544 68.8042 17.1734 68.988 17.2928 69.1717C17.1772 69.3254 17.0612 69.4791 16.9226 69.6628C16.8373 69.5636 16.7675 69.4821 16.6974 69.4008C16.2228 68.8506 15.8027 68.8768 15.3905 69.4758C15.3625 69.507 15.3412 69.5436 15.3279 69.5834C15.2943 69.7886 15.1884 70.0317 15.2617 70.1903C15.3167 70.275 15.3913 70.3452 15.4792 70.395C15.5671 70.4447 15.6657 70.4725 15.7666 70.476C16.1149 70.4214 16.4576 70.3355 16.7904 70.2194C16.967 70.3899 17.1866 70.6021 17.3874 70.7962C16.9243 70.9784 16.8888 71.1567 17.2498 71.7673C17.0385 72.031 16.3398 72.2367 16.0852 72.0739C16.0459 72.0246 16.0201 71.966 16.0102 71.9037C16.0003 71.8415 16.0067 71.7777 16.0287 71.7186C16.0711 71.6758 16.1047 71.6251 16.1275 71.5693C16.1503 71.5135 16.1618 71.4537 16.1615 71.3935C16.1611 71.3332 16.1488 71.2736 16.1254 71.2181C16.102 71.1626 16.0678 71.1122 16.0248 71.0699C15.8716 70.8856 15.657 70.6042 15.4842 70.6145C15.0955 70.6728 14.7162 70.7819 14.3559 70.939C14.3198 70.9513 14.3 71.0628 14.302 71.1273C14.2924 71.3047 14.3379 71.4808 14.4323 71.6313C14.5267 71.7818 14.6655 71.8993 14.8294 71.9677C15.1657 72.0963 15.517 72.1331 15.8669 72.2982C16.1003 72.4066 16.3617 72.4394 16.6146 72.3918C16.8674 72.3442 17.0991 72.2188 17.2771 72.033C17.348 71.9574 17.4789 71.8549 17.5494 71.8757C18.0482 72.0227 18.3705 71.6977 18.7235 71.4633C18.7822 71.4367 18.8333 71.3959 18.8724 71.3446C18.9114 71.2934 18.9371 71.2332 18.9471 71.1696C18.9571 71.106 18.9512 71.0408 18.9298 70.98C18.9085 70.9193 18.8723 70.8647 18.8247 70.8214C18.7026 70.6737 18.5718 70.5333 18.476 70.4248C18.685 70.1272 18.8705 69.863 19.0639 69.5875C19.3231 69.5812 19.5728 69.6119 19.5481 70.0088C19.5632 70.1199 19.6142 70.223 19.6934 70.3023C20.0349 70.7239 20.5226 70.5663 20.8138 70.2045C21.3454 70.1255 21.779 70.0611 22.2552 69.9903C22.0619 70.3734 21.9256 70.6436 21.851 70.7913C21.5029 70.831 21.2408 70.8608 20.9788 70.8907L21.1999 71.6553L21.3371 71.6407C21.2901 71.6879 21.2515 71.7426 21.2228 71.8027C21.1521 72.0626 21.054 72.4038 21.3959 72.4769C21.7001 72.5408 22.0172 72.4858 22.2821 72.3232C22.5079 72.1556 22.5885 71.7925 22.7277 71.5246C22.4475 71.4627 22.0445 71.3418 22.11 70.941C22.2155 70.2963 22.6524 70.759 23.0399 70.8659C22.9183 70.6586 22.8572 70.5546 22.8013 70.4593C23.0177 70.3505 23.234 70.2419 23.4338 70.1415C23.5737 70.2955 23.6654 70.4871 23.6976 70.6926C23.7298 70.8982 23.7011 71.1086 23.6151 71.298C23.5836 71.3664 23.5665 71.4406 23.5648 71.5159C23.5631 71.5911 23.5769 71.666 23.6053 71.7357C23.6337 71.8055 23.6761 71.8686 23.7299 71.9213C23.7837 71.9741 23.8477 72.0152 23.918 72.0421C24.1946 72.1089 24.4851 72.0886 24.7497 71.984C25.0619 71.8726 25.1075 71.5911 24.9747 71.2838C24.9562 71.192 24.9535 71.0976 24.9667 71.0049L25.7455 71.6636C25.4028 71.8675 24.9794 72.0202 24.8987 72.6291C25.1019 72.4326 25.2253 72.3131 25.3476 72.1948C25.7354 72.4723 26.0877 72.4525 26.2821 72.1546C26.5422 71.7558 26.0544 71.8828 25.9222 71.6654C26.5437 71.4886 27.103 71.2523 27.4155 70.6236C27.4885 70.8013 27.5133 70.9951 27.4875 71.1854C27.4584 71.3665 27.4815 71.5521 27.554 71.7206C27.6264 71.8891 27.7454 72.0334 27.8969 72.1368C28.0321 72.2524 28.2019 72.3197 28.3796 72.328C28.5573 72.3363 28.7328 72.2852 28.8782 72.1827C29.1789 72.0069 29.5631 71.8455 29.396 71.3608C29.6452 71.5152 29.869 71.6647 30.1037 71.7946C30.2207 71.847 30.3423 71.8887 30.4668 71.9192C30.4497 71.7567 30.4942 71.516 30.4048 71.4456C30.044 71.1578 29.6575 70.9038 29.2502 70.6868C28.7842 70.4428 28.2884 70.2544 27.8013 70.0522C27.6624 69.9867 27.5123 69.9481 27.359 69.9386C26.6419 69.9619 25.9363 69.7547 25.3457 69.3473C25.2247 69.2792 25.0943 69.2294 24.9587 69.1996C24.2878 68.982 23.6009 68.8038 22.9499 68.5378C22.5503 68.3964 22.1334 68.3099 21.7106 68.2805C21.0058 68.147 20.3118 67.9618 19.6343 67.7263C19.6101 67.7194 19.5953 67.6799 19.5712 67.673C19.3217 67.5902 19.0676 67.5218 18.8102 67.4681C18.4336 67.4066 18.047 67.4028 17.6728 67.3315C17.4263 67.2845 17.1986 67.1456 16.954 67.0786C16.785 67.0426 16.6135 67.0202 16.441 67.0115C16.3863 66.7329 16.332 66.5 16.2959 66.2643C16.1712 65.4485 16.0119 64.6352 15.9441 63.8145C15.8443 63.0601 15.8426 62.296 15.9391 61.5413C16.2288 60.087 16.6665 58.6661 17.2452 57.3008C17.4352 56.8533 17.5759 56.3865 17.6645 55.9085C17.911 54.4227 17.918 52.9056 18.3224 51.4364C18.6241 50.365 19.035 49.3275 19.5485 48.3401C19.6891 48.0652 19.8756 48.0033 20.1913 48.1067C20.6443 48.2809 21.1215 48.3842 21.6061 48.4128C22.514 48.3837 23.3896 48.0684 24.1076 47.512C25.3502 46.6421 26.7011 46.1367 28.2817 46.4581C28.7719 46.5495 29.2765 46.5268 29.7565 46.3916C30.2365 46.2565 30.6789 46.0126 31.0494 45.6789C31.7288 45.1197 32.3115 44.4378 33.166 44.1094C33.2981 44.0586 33.3853 43.8911 33.4932 43.7776C33.3527 43.7154 33.2049 43.6709 33.0533 43.6451ZM11.5678 41.1198C11.6291 41.1886 11.6757 41.2693 11.7046 41.3569C11.7336 41.4444 11.7443 41.537 11.7361 41.6288C11.7066 42.1843 11.633 42.7375 11.5734 43.3204C11.068 43.1333 10.5836 42.8938 10.1281 42.6058C9.86028 42.3994 9.74928 41.971 9.60608 41.6263C9.45295 41.2578 9.34458 40.8707 9.20368 40.4532C10.0613 40.4965 10.8771 40.6046 11.5678 41.1198ZM6.61269 40.6408C7.2893 40.5909 7.96547 40.53 8.64296 40.5036C8.73897 40.4999 8.88416 40.6446 8.93381 40.7537C9.1847 41.3051 9.4115 41.8675 9.6595 42.4562C8.96078 42.1745 8.30336 41.9564 7.6924 41.6468C7.29334 41.4041 6.91564 41.128 6.5634 40.8213L6.61269 40.6408ZM5.96013 40.7731C6.25192 40.665 6.46479 40.8759 6.57032 41.3165C5.84827 41.3613 5.12526 41.4062 4.29527 41.4577C4.91422 41.2007 5.43064 40.9693 5.96013 40.7731ZM5.12223 42.4392C4.77557 42.2541 4.28477 42.3284 3.85838 42.3062C3.55138 42.2903 3.24254 42.3099 2.9345 42.3136L2.93689 42.1774C4.19777 41.9612 5.46956 42.0543 6.83364 42.0236C6.08367 42.7338 5.95067 42.8817 5.12224 42.4392H5.12223ZM6.28985 42.9834C7.17302 41.9926 8.06814 42.2166 9.3197 42.9671C8.70275 43.3543 8.1117 43.7252 7.54656 44.0799C7.12523 43.7122 6.71869 43.3576 6.28986 42.9834H6.28985ZM8.28885 44.9624C8.07956 44.7069 7.85404 44.4651 7.6137 44.2385C8.24815 44.2406 8.62434 43.8426 9.03021 43.5024C9.53899 43.076 9.65309 43.0645 10.2013 43.4184C10.4598 43.5852 10.7188 43.7522 10.9856 43.9051C11.0876 43.9536 11.1943 43.9917 11.3041 44.0186C10.472 44.4238 9.82073 44.7166 9.19443 45.0556C8.84695 45.2437 8.57243 45.3588 8.28886 44.9624H8.28885ZM12.4114 47.0166C11.3427 47.5329 10.4437 47.3529 9.63511 46.4687C9.3833 46.1934 9.11735 45.9311 8.8213 45.625C9.39501 45.2994 9.8804 44.9732 10.4061 44.7367C11.3284 44.3217 11.7221 44.3922 12.4263 45.2542C12.5634 45.4306 12.685 45.6185 12.7899 45.8157C13.1408 46.4395 13.0539 46.7062 12.4114 47.0166ZM12.762 44.7118C12.7262 44.6693 12.7008 44.6183 12.6664 44.5745C12.4295 44.273 12.0277 43.9929 11.987 43.6674C11.9365 42.8986 11.9391 42.1272 11.995 41.3588C14.3932 42.3305 14.6892 43.6162 13.727 45.8538C13.3951 45.4614 13.0779 45.0871 12.762 44.7118ZM8.08345 72.4486C7.82912 72.5362 7.56988 72.6088 7.30707 72.6661L7.26367 72.543C7.35962 72.3356 7.45559 72.1281 7.60195 71.8117C7.77612 71.8957 7.94028 71.999 8.09133 72.1197C8.1152 72.1715 8.1269 72.2281 8.12553 72.2851C8.12417 72.3421 8.10977 72.398 8.08345 72.4486ZM8.58939 71.7204C8.54763 71.7386 8.502 71.7461 8.45661 71.7423C8.41123 71.7384 8.3675 71.7234 8.32938 71.6985C8.29681 71.6653 8.27194 71.6255 8.25651 71.5816C8.24109 71.5378 8.2355 71.4912 8.24013 71.4449C8.28983 71.1147 8.82052 70.8991 9.22387 71.139C8.99003 71.3579 8.80067 71.553 8.58939 71.7204H8.58939ZM8.82704 70.4659C9.08859 70.3524 9.30476 70.2586 9.60353 70.129C9.38509 70.5843 9.18043 70.6692 8.82704 70.4659ZM9.93841 71.3867C10.0661 71.2274 10.1939 71.0682 10.3216 70.909C10.3841 70.9871 10.5035 71.0687 10.4989 71.1427C10.4821 71.4164 10.2979 71.5058 9.93839 71.3867H9.93841ZM10.3888 69.9707C10.2246 69.9989 10.029 69.8452 9.84749 69.7735L9.90207 69.5812C10.103 69.5409 10.3081 69.5142 10.5036 69.4558C10.6521 69.4114 10.7847 69.316 10.9313 69.2625C11.0911 69.2031 11.2562 69.1587 11.4242 69.1299C11.4625 69.1236 11.5648 69.2462 11.5568 69.2592C11.4731 69.3937 11.3989 69.5672 11.2717 69.6348C10.9967 69.7921 10.6988 69.9054 10.3888 69.9707H10.3888ZM11.1905 71.0114C10.8968 71.0803 10.7522 70.9519 10.6824 70.6852C11.0556 70.4336 11.3995 70.2018 11.8068 69.9272C11.8317 70.7207 11.7128 70.8889 11.1904 71.0114H11.1905ZM12.3287 70.961C12.2999 70.9772 12.1846 70.839 12.1093 70.7722C12.3043 70.5942 12.4969 70.4132 12.7017 70.2474C12.8027 70.3298 12.8985 70.4185 12.9883 70.5128C12.7267 70.6969 12.5365 70.8446 12.3287 70.961H12.3287ZM13.2938 68.9173C13.0011 69.2301 12.6868 69.5299 12.1686 69.4106C12.228 69.076 11.9441 68.6552 12.5032 68.5103C12.5774 68.5882 12.6571 68.6719 12.7539 68.7735C12.8253 68.68 12.8721 68.5567 12.9385 68.5451C13.0814 68.5352 13.225 68.5427 13.3662 68.5675C13.3444 68.6863 13.3633 68.8431 13.2938 68.9173H13.2938ZM16.3373 70.1423C16.1843 70.2113 16.0232 70.2609 15.8579 70.29C15.73 70.2393 15.6117 70.1671 15.5081 70.0766C15.4775 70.0413 15.6106 69.8753 15.6527 69.7629C15.7002 69.6361 15.69 69.4426 15.7759 69.3861C15.8417 69.3419 15.9167 69.3133 15.9952 69.3024C16.0737 69.2914 16.1537 69.2985 16.2291 69.3229C16.4078 69.4461 16.5485 69.6169 16.6352 69.816C16.6604 69.871 16.4635 70.0626 16.3373 70.1423L16.3373 70.1423ZM14.8066 71.6985C14.8897 71.0535 15.1966 70.6896 15.5438 70.8661C15.6449 70.9365 15.7287 71.029 15.7887 71.1367C15.8487 71.2443 15.8833 71.3643 15.8899 71.4873C15.8866 71.8058 15.323 71.9067 14.8066 71.6985L14.8066 71.6985ZM22.1303 72.0785C22.0164 72.1501 21.8962 72.211 21.7712 72.2605C21.7053 72.28 21.5655 72.249 21.5544 72.2121C21.542 72.1706 21.5395 72.1267 21.5469 72.084C21.5544 72.0413 21.5717 72.0009 21.5974 71.966C21.9056 71.7168 21.7596 71.5766 21.4957 71.4483C21.3592 71.382 21.2259 71.3091 21.0912 71.2391L21.2726 71.0363C22.0467 70.9552 21.7412 71.8001 22.1303 72.0785ZM27.8058 71.1919C27.9526 71.2193 28.0717 71.2416 28.2067 71.2668C28.2864 70.952 28.4784 70.8706 28.7848 70.985C28.9153 71.0159 29.029 71.096 29.1021 71.2085C29.1753 71.321 29.2023 71.4573 29.1776 71.5892C29.1102 71.7425 28.9967 71.8709 28.8528 71.9565C28.7089 72.0422 28.5419 72.0808 28.3751 72.067C28.2786 72.0501 28.1867 72.0134 28.105 71.9595C28.0233 71.9055 27.9536 71.8353 27.9002 71.7532C27.8468 71.6711 27.8109 71.5789 27.7947 71.4824C27.7784 71.3858 27.7822 71.2869 27.8058 71.1919ZM26.0755 70.4641C26.1342 70.4065 26.2053 70.3631 26.2835 70.3374C26.3616 70.3117 26.4446 70.3043 26.526 70.3157C26.7218 70.352 26.8969 70.4604 27.0167 70.6195C27.0612 70.6926 26.8861 70.9558 26.7548 71.0677C26.4625 71.3166 26.1367 71.5309 25.6579 71.2551C25.774 70.9799 25.9138 70.7152 26.0755 70.4641H26.0755ZM24.1803 69.6993C24.4734 69.4089 24.7484 69.6341 25.0118 69.7247C25.0893 69.7514 25.1319 69.9666 25.1355 70.0969C25.1453 70.2361 25.1085 70.3746 25.031 70.4907C24.9356 70.596 24.8032 70.6605 24.6615 70.6707C24.4419 70.6482 24.2252 70.6025 24.0152 70.5345C23.776 70.2625 23.8957 69.9813 24.1803 69.6993H24.1803ZM24.2488 71.1017C24.4706 71.3003 24.6285 71.4417 24.7864 71.5832C24.6382 71.6876 24.472 71.894 24.3461 71.8718C24.1695 71.8407 24.0229 71.6395 23.8635 71.511C23.9687 71.3993 24.0738 71.2876 24.2488 71.1017H24.2488ZM22.4102 69.6324C22.4625 69.4484 22.5395 69.2723 22.6393 69.1091C23.0323 69.1276 23.4047 69.4661 23.3143 69.6846C23.2682 69.7908 23.1995 69.8856 23.1131 69.9626C23.0267 70.0396 22.9246 70.0969 22.8139 70.1306C22.534 70.1723 22.3617 69.9175 22.4102 69.6324ZM20.9682 68.7919C21.3525 69.3407 21.5773 69.0616 21.7657 68.7131C22.1506 69.139 22.2002 69.4094 21.9275 69.6762C21.8352 69.8037 21.697 69.8904 21.542 69.9181C21.387 69.9457 21.2273 69.9121 21.0966 69.8244C20.7625 69.5746 20.8988 69.2226 20.9682 68.7919H20.9682ZM19.9764 70.3616C19.9039 69.8918 20.0721 69.7529 20.3215 69.7477C20.3951 69.7461 20.4728 69.9386 20.5486 70.0421C20.3734 70.14 20.1981 70.2379 19.9765 70.3616H19.9764ZM18.9764 68.7761C19.017 68.8728 19.0575 68.9696 19.1299 69.142C19.1714 69.0579 19.2039 68.9697 19.2269 68.8787C19.2579 68.5143 19.5163 68.2188 19.8169 68.2565C19.8943 68.2584 19.9705 68.276 20.0409 68.3083C20.1112 68.3407 20.1743 68.387 20.2261 68.4445C20.278 68.502 20.3175 68.5695 20.3424 68.6428C20.3673 68.7161 20.377 68.7937 20.3709 68.8709C20.3638 68.9363 20.3415 68.9992 20.3058 69.0544C20.27 69.1096 20.2218 69.1557 20.1649 69.1889C19.7785 69.3372 19.3641 69.5979 19.0067 69.1326C18.9473 69.0336 18.8998 68.9278 18.8652 68.8176L18.9764 68.7761ZM14.8164 62.2983C14.8812 61.335 15.1327 60.3934 15.5568 59.526C15.5957 59.4443 15.6275 59.3594 15.6518 59.2722C15.6686 59.2798 15.6862 59.2853 15.7043 59.2886C15.3346 60.7438 15.0783 62.2254 14.9378 63.7202C14.9271 63.8373 14.9057 64.0864 14.8918 64.3949C14.7763 63.7022 14.751 62.9975 14.8164 62.2983ZM15.3585 67.7581C15.3542 68.1187 15.0564 67.8449 14.9031 67.8842C14.6906 67.9386 14.4776 67.9911 14.2185 68.0561C14.46 67.4782 14.8828 67.5468 15.3585 67.7581ZM14.2234 69.0265C14.3136 68.8961 14.3863 68.8068 14.4416 68.7077C14.5281 68.5526 14.5813 68.2758 14.687 68.256C14.9054 68.2152 15.1907 68.2249 15.289 68.5365C15.3123 68.5907 15.3406 68.6426 15.3733 68.6917C15.0346 68.9814 14.7094 69.2602 14.2234 69.0265V69.0265ZM18.5309 70.8316C18.6322 70.8882 18.694 71.0155 18.8001 71.1433C18.6879 71.3109 18.5337 71.4462 18.3529 71.5357C18.1721 71.6251 17.971 71.6656 17.7696 71.653C17.6218 71.6322 17.4849 71.5633 17.38 71.457C17.3209 71.3953 17.3592 71.2403 17.3537 71.1273C17.4514 71.1286 17.5489 71.1369 17.6453 71.1521C17.8371 71.2148 18.0402 71.2348 18.2405 71.2107L17.8367 70.9584C17.9094 70.8633 17.9811 70.6902 18.0549 70.6893C18.223 70.6961 18.3866 70.7451 18.5309 70.8316V70.8316ZM17.9939 70.3741C17.7849 70.4593 17.5937 70.5304 17.4584 70.2854C17.3766 70.1371 17.227 69.9193 17.2781 69.8264C17.4049 69.6099 17.5847 69.4291 17.8005 69.3011C17.9715 69.2073 18.1709 69.1794 18.3611 69.2225C18.5215 69.2647 18.6459 69.4438 18.7336 69.5182C18.7102 69.7186 18.6272 69.9073 18.4953 70.0599C18.3634 70.2125 18.1887 70.322 17.9939 70.3741ZM17.2763 68.4562L17.565 68.5237C17.5693 68.4349 17.5926 68.3481 17.6332 68.2691C17.6738 68.1901 17.7309 68.1206 17.8005 68.0654C17.8701 68.0102 17.9508 67.9705 18.037 67.949C18.1232 67.9274 18.213 67.9246 18.3004 67.9406C18.3611 67.9628 18.4163 67.9979 18.4621 68.0435C18.508 68.089 18.5434 68.144 18.566 68.2046C18.5986 68.353 18.6039 68.5061 18.5815 68.6564C18.5785 68.7218 18.549 68.8383 18.5196 68.8422C18.1964 68.9047 17.8675 68.9319 17.5385 68.9232C17.415 68.9124 17.3112 68.6767 17.1984 68.5435C17.2244 68.5144 17.2503 68.4853 17.2763 68.4562ZM16.6657 67.8264L16.7336 67.7061C16.842 67.8126 16.9345 67.934 17.0083 68.0668C17.0104 68.1181 16.9993 68.1691 16.976 68.2148C16.9527 68.2606 16.9181 68.2996 16.8754 68.3282C16.6012 68.4627 16.308 68.5543 16.006 68.5998C15.8647 68.6113 15.6621 68.421 15.5747 68.2712C15.54 68.2117 15.7171 67.9376 15.8425 67.896C16.1134 67.8414 16.3896 67.818 16.6657 67.8264ZM16.1523 56.7534C15.9731 55.5331 15.7939 54.3128 15.6146 53.0926L15.8268 53.0634C15.9816 54.2871 16.1364 55.5108 16.2913 56.7345L16.1523 56.7534ZM30.2717 43.9514L27.955 43.9795L27.9562 43.8603C28.3237 43.6985 28.7233 43.6226 29.1245 43.6384C29.5257 43.6542 29.9181 43.7612 30.2717 43.9514V43.9514ZM28.3814 43.2953C28.0431 43.5141 27.6837 43.6984 27.3085 43.8453C26.9582 43.914 26.5994 43.9279 26.2449 43.8866C25.7993 43.8691 25.355 43.8173 24.8725 43.7772C25.4037 43.3854 26.0665 43.1118 26.0995 42.3333C26.9218 42.68 27.6882 43.003 28.3814 43.2953ZM24.6234 41.7622C24.8034 41.7888 24.978 41.8441 25.1405 41.926C25.3449 42.0433 25.668 42.2025 25.6753 42.3562C25.6721 42.4913 25.6408 42.6243 25.5835 42.7468C25.5263 42.8692 25.4442 42.9784 25.3426 43.0676C24.7628 43.5604 24.0645 43.8936 23.3167 44.0344C22.7387 44.1785 22.1747 44.3739 21.6314 44.6182C21.5298 44.6545 21.4249 44.6819 21.3216 44.7134L21.1969 44.6045C21.49 44.2264 21.7653 43.8327 22.0804 43.4741C22.5191 42.9747 22.9978 42.5107 23.4401 42.0144C23.7818 41.6309 24.1966 41.6784 24.6234 41.7622ZM24.7438 44.4586C23.4572 44.5708 22.2037 44.9276 21.0508 45.5098C22.1941 44.8597 23.3393 44.2069 24.7438 44.4586V44.4586ZM16.8397 56.922L16.5644 56.8681C16.7194 55.3464 16.7487 53.7976 17.0684 52.3113C17.3351 51.0715 17.9424 49.9049 18.4689 48.7285C17.6094 51.3964 17.4056 54.1983 16.8397 56.922ZM18.2162 48.3059C18.4967 47.8482 18.7772 47.3905 19.0578 46.9328L19.2067 47.0274C19.0516 47.5642 18.6973 48.0216 18.2162 48.3059ZM19.4867 45.995C19.2612 44.0812 21.502 41.6019 23.332 41.775C22.7139 42.4202 22.1217 42.9848 21.5976 43.6069C21.3362 43.9733 21.1109 44.3642 20.9248 44.774C20.8932 44.8314 20.9152 44.9357 20.8737 44.9673C20.4294 45.3059 19.9772 45.6341 19.4867 45.995ZM20.1489 47.4311C20.5349 46.9683 20.8995 46.5313 21.2174 46.1502C22.0822 46.478 22.8782 46.7798 23.6818 47.0844C22.9281 47.9461 21.1021 48.1413 20.1489 47.4311ZM24.3827 46.8215C24.2577 46.866 24.1212 46.8666 23.9958 46.8232C23.4286 46.6603 22.8603 46.4971 22.3055 46.2975C22.0485 46.1697 21.8044 46.0177 21.5763 45.8436C21.826 45.7171 22.0823 45.6041 22.3441 45.5052C22.8185 45.3494 23.3008 45.219 23.7891 45.1144C24.5916 44.9584 25.2296 45.3033 25.7116 46.0804C25.2703 46.3299 24.8339 46.59 24.3827 46.8215ZM26.4175 45.919C26.2267 45.8945 26.0476 45.8135 25.9031 45.6865C25.6075 45.449 25.3404 45.1761 25.0642 44.9203C25.953 44.8225 26.8831 44.5817 27.7204 45.1591C27.9578 45.3802 28.165 45.6317 28.3367 45.907C27.6137 45.9157 27.0147 45.9411 26.4175 45.919ZM29.209 46.032C29.1154 46.0412 29.0208 46.0295 28.9322 45.9977C28.8436 45.966 28.7632 45.915 28.6967 45.8484C28.4363 45.5174 28.1947 45.172 27.9729 44.8139C29.118 44.7441 30.197 44.6783 31.2761 44.6126C30.7772 45.3158 30.0446 45.8189 29.209 46.032Z" fill="#41B37E"/>
<path d="M16.666 67.8264C16.6622 67.8331 16.6611 67.8352 16.666 67.8264V67.8264Z" fill="#41B37E"/>
<path d="M20.5333 71.7804C20.5415 72.0613 20.0771 72.4705 19.7432 72.4766C19.405 72.4828 19.1518 72.1771 19.1485 71.7583C19.1454 71.3732 19.3713 71.021 19.6215 71.0206C19.8418 71.0067 20.0591 71.0777 20.2286 71.2191C20.3982 71.3604 20.5072 71.5612 20.5333 71.7804ZM20.1027 71.386C19.9849 71.6508 19.8964 71.85 19.8078 72.0492L19.6975 72.0593L19.6516 71.275C19.5875 71.3189 19.5333 71.3757 19.4925 71.4417C19.4517 71.5078 19.4252 71.5816 19.4146 71.6586C19.404 71.7355 19.4096 71.8138 19.431 71.8884C19.4525 71.963 19.4893 72.0323 19.5391 72.0919C19.6162 72.1893 19.9531 72.1638 20.1232 72.087C20.4228 71.9517 20.3222 71.7076 20.1027 71.386Z" fill="#41B37E"/>
</svg>
