<svg width="511" height="511" viewBox="0 0 511 511" fill="none" xmlns="http://www.w3.org/2000/svg">
<path d="M17.3849 334.766C25.5164 330.863 32.6382 325.138 38.1964 318.035C47.4739 307.374 56.6077 296.589 65.5978 285.68C69.8407 280.515 75.6083 276.178 76.1527 268.715C71.8265 271.944 67.4915 275.205 63.1266 278.427C60.2289 280.566 57.3308 282.708 54.3532 284.732C52.329 286.108 50.1954 287.332 48.0618 288.537C39.5718 293.334 31.934 299.815 22.0545 301.854C20.9243 301.855 19.8034 301.649 18.7469 301.248C19.0094 299.986 19.5751 298.807 20.3952 297.813C26.0197 294.194 30.7793 289.381 34.3367 283.717C38.5218 277.658 42.8638 271.708 47.162 265.728C48.3206 264.116 49.605 262.594 50.7645 260.982C51.8306 259.501 52.8062 257.954 54.1286 255.977C44.9914 260.736 36.5823 265.193 28.0786 269.461C26.6289 269.888 25.1181 270.069 23.6086 269.997C24.0388 268.488 24.6908 267.051 25.5432 265.734C29.5625 261.203 34.2487 257.198 37.8367 252.366C44.4434 243.468 50.5146 234.168 56.6772 224.947C59.8308 220.228 62.6989 215.319 65.6964 210.496L65.1334 209.708C56.8078 213.633 48.4823 217.559 40.0918 221.514C39.7113 221.193 39.4167 220.783 39.2347 220.319C39.0527 219.856 38.989 219.355 39.0494 218.86C39.1097 218.366 39.2922 217.895 39.5804 217.489C39.8686 217.083 40.2533 216.755 40.6999 216.535C43.739 213.981 46.5421 211.158 49.0752 208.101C55.2044 200.732 61.1743 193.228 67.0769 185.675C69.0208 183.187 70.5597 180.384 72.2839 177.725C70.9041 177.701 69.5385 178.006 68.3002 178.615C60.5728 181.866 52.8638 185.164 45.0971 188.319C44.021 188.501 42.9199 188.477 41.8529 188.247C41.9483 187.036 42.2663 185.853 42.791 184.757C44.9094 181.968 47.4856 179.52 49.5388 176.69C56.2656 167.414 62.8271 158.02 69.481 148.691C71.1272 146.383 72.8806 144.15 74.5848 141.883L73.9448 141.211C67.4857 146.396 61.0263 151.581 54.0172 157.207C53.6872 156.144 53.5928 155.021 53.7406 153.917C71.2681 130.081 86.6221 104.72 99.6181 78.14C109.877 97.0889 123.768 113.831 140.498 127.41C144.059 124.093 148.846 121.827 146.15 115.919C146.106 115.227 146.236 114.535 146.526 113.906C147.53 110.538 149.306 107.45 151.712 104.889C154.119 102.327 157.09 100.363 160.389 99.1511C163.956 97.1098 167.968 95.9728 172.076 95.8395C176.183 95.7062 180.261 96.5806 183.953 98.3863C185.403 96.6686 187.107 95.1825 189.006 93.9793C192.538 92.3566 196.473 91.8185 200.311 92.4333C204.15 93.0481 207.719 94.788 210.568 97.4328C212.299 98.8239 213.931 100.332 215.455 101.947C216.289 102.968 217.456 103.663 218.751 103.908C220.046 104.154 221.386 103.936 222.536 103.291C224.609 102.464 226.868 102.214 229.072 102.568C231.275 102.923 233.342 103.868 235.051 105.303C239.503 109.292 243.36 113.9 246.502 118.985C250.656 124.574 252.828 131.387 252.677 138.349C251.902 143.673 252.303 149.103 253.851 154.256C254.325 156.06 254.498 157.93 254.36 159.79C254.205 161.111 254.338 162.449 254.749 163.713C255.16 164.977 255.839 166.137 256.741 167.114C258.086 168.59 258.862 170.496 258.93 172.491C259.51 179.678 257.241 186.804 252.613 192.333C251.113 193.756 250.165 195.664 249.935 197.719C248.155 201.671 247.444 206.021 247.873 210.335C246.84 213.887 244.963 217.137 242.402 219.807C239.841 222.477 236.673 224.489 233.167 225.67C232.735 225.955 232.38 226.343 232.134 226.799C231.888 227.255 231.76 227.765 231.761 228.283C232.173 230.444 231.759 232.682 230.601 234.554C229.442 236.425 227.623 237.793 225.504 238.387C224.833 238.487 224.201 238.767 223.676 239.197C223.15 239.627 222.751 240.191 222.521 240.83C222.291 241.468 222.238 242.157 222.369 242.824C222.499 243.49 222.807 244.108 223.261 244.613C223.766 245.515 223.929 246.602 224.354 247.558C225.457 249.774 225.826 252.284 225.407 254.724C224.987 257.165 223.802 259.408 222.022 261.129C220.116 263.181 218.094 265.122 215.966 266.942C215.131 267.444 214.503 268.228 214.196 269.152C213.888 270.077 213.922 271.081 214.29 271.983C215.156 274.068 215.322 276.378 214.763 278.565C214.204 280.753 212.95 282.7 211.19 284.114C207.447 286.9 203.521 289.432 199.438 291.691C197.597 292.721 195.618 293.479 193.56 293.943C192.644 293.748 191.796 293.313 191.102 292.684C191.473 291.96 192.021 291.342 192.694 290.887C193.478 290.882 194.25 290.699 194.953 290.352C195.655 290.004 196.269 289.5 196.748 288.88C197.226 288.259 197.557 287.538 197.715 286.77C197.873 286.002 197.853 285.208 197.658 284.449C197.569 283.481 197.602 282.502 197.563 280.888C199.024 282.884 199.948 284.147 200.873 285.411L201.92 284.953C201.658 281.655 201.395 278.358 201.133 275.06L201.999 274.886L203.794 277.657L204.518 277.495C204.571 275.277 204.624 273.059 204.682 270.631C205.842 270.581 206.827 270.54 207.876 270.495C208.867 273.609 209.794 276.521 211.018 280.367C211.699 279.014 212.062 277.524 212.08 276.01C212.097 274.496 211.769 272.998 211.119 271.63C210.438 270.494 210.182 269.154 210.396 267.848C213.811 265.188 211.536 262.34 211.065 259.536C210.891 258.506 210.889 257.447 210.808 256.401L211.524 256.356C212.575 257.632 213.626 258.908 215.324 260.97C214.713 257.6 214.292 255.274 213.87 252.948L214.551 252.714L216.857 256.336L217.617 255.772C215.896 253.34 214.175 250.907 211.91 247.706C214.13 248.732 215.62 249.42 217.579 250.325C216.965 245.978 218.643 241.498 213.863 238.565C219.25 239.206 219.911 238.438 218.476 233.57C218.247 232.797 217.656 232.129 217.442 231.354C217.135 230.25 217.021 229.092 216.825 227.957C218.039 228.281 219.192 228.798 220.24 229.49C221.669 230.977 222.996 232.557 224.213 234.221L225.035 233.743C224.888 232.132 224.798 230.513 224.58 228.913C224.361 227.303 224.014 225.711 223.724 224.111L224.583 223.861C225.144 225.044 225.703 226.227 226.441 227.785C226.518 225.896 226.11 224.018 225.255 222.332C224.4 220.646 223.127 219.207 221.557 218.154C225.863 217.073 226.423 220.559 228.316 222.371C230.789 218.586 227.267 215.897 226.527 212.568C227.116 212.59 227.7 212.681 228.268 212.838C229.412 213.446 230.326 214.412 230.869 215.588C231.412 216.765 231.554 218.087 231.274 219.352C231.422 220.394 231.744 221.403 232.225 222.338L233.07 221.838L232.442 218.357C233.643 217.917 234.737 217.226 235.652 216.332C235.667 214.14 237.257 211.638 233.749 209.923C232.766 207.8 232.35 205.458 232.541 203.126L233.777 202.781C235.203 205.246 236.629 207.712 237.629 209.439C238.767 209.162 239.797 208.91 241.133 208.584C240.168 205.029 239.161 201.317 238.073 197.308L240.987 198.502L241.808 197.864C239.967 194.96 238.125 192.055 236.283 189.151C237.555 189.736 238.764 190.448 239.892 191.276C240.212 191.479 240.57 191.615 240.945 191.674C241.319 191.734 241.701 191.717 242.069 191.623C242.367 191.416 242.608 191.136 242.767 190.81C242.926 190.483 242.999 190.121 242.978 189.759C242.177 187.135 241.201 184.569 240.057 182.076C239.078 180.015 237.503 180.107 235.704 181.373C234.007 182.568 232.087 183.443 230.336 184.568C229.035 185.172 227.898 186.079 227.02 187.214C225.337 190.514 224.059 194.021 222.621 197.447C222.371 195.536 222.315 193.606 222.453 191.684C222.537 189.048 222.376 186.41 221.973 183.803C221.442 181.235 220.056 178.922 218.041 177.243C216.026 175.564 213.501 174.618 210.879 174.56C213.413 173.954 216.083 174.343 218.339 175.647C220.595 176.951 222.264 179.071 223.003 181.569C223.565 182.521 224.28 183.374 225.119 184.095C225.948 183.406 226.609 182.538 227.051 181.555C227.334 179.27 227.364 176.96 227.138 174.669C226.847 172.891 226.419 171.139 225.858 169.428L227.222 169.182C228.001 173.944 228.778 178.697 229.554 183.442C231.56 182.99 233.393 181.968 234.832 180.5C236.272 179.032 237.257 177.18 237.67 175.166C236.865 176.008 235.916 177.003 234.967 177.998C238.965 170.192 237.846 171.188 236.875 167.284C241.758 164.77 238.125 160.078 239.54 156.355L242.345 159.466C241.69 159.626 241.085 159.947 240.585 160.4C240.32 162.093 240.482 163.825 241.057 165.439C241.632 167.054 242.602 168.498 243.878 169.642L240.532 169.176C240.051 172.188 239.506 175.037 239.2 177.911C239.188 178.335 239.27 178.755 239.439 179.143C239.608 179.531 239.861 179.877 240.179 180.157C241.665 181.298 242.849 182.787 243.626 184.493C244.403 186.198 244.75 188.068 244.636 189.939C244.873 191.36 245.289 192.747 245.875 194.064L247.579 193.941C248.264 191.518 248.442 188.979 248.1 186.484C247.314 184.311 247.027 181.989 247.262 179.69C247.086 178.484 246.787 177.299 246.37 176.154C245.779 174.676 245.647 173.054 245.991 171.499C247.483 169.723 248.335 168.617 245.972 167.126C247.951 164.18 244.351 162.782 244.119 160.448C246.23 162.28 248.342 164.111 250.647 166.11C251.895 162.182 246.357 160.992 246.877 157.414L249.286 157.702C247.663 154.858 245.685 152.232 243.4 149.887C240.907 148.456 238.21 147.414 235.402 146.797L235.713 145.39C237.195 145.556 238.664 145.823 240.109 146.191C241.745 146.802 243.346 147.5 244.907 148.282L245.986 144.516C244.548 144.243 243.269 144 241.99 143.758L241.707 142.766C244.179 141.512 246.652 140.258 249.125 139.003C247.396 136.077 244.492 138.569 241.857 139.007L241.465 137.823C244.05 136.657 246.635 135.492 249.534 134.184C248.138 130.464 244.513 133.55 242.106 131.561C244.201 131.051 246.295 130.541 248.819 129.926C248.484 128.797 247.939 127.742 247.212 126.816C244.345 127.188 241.5 127.708 238.687 128.375C239.467 124.837 243.136 124.598 245.977 123.164L243.175 118.21C242.846 119.5 242.613 120.412 242.314 121.586C239.036 118.013 236.769 121.416 234.203 122.535L233.524 121.803C235.135 119.954 236.746 118.105 238.357 116.255L237.711 115.253C235.441 116.53 233.172 117.806 229.978 119.603C231.587 116.826 232.635 115.016 234.009 112.644C230.282 113.131 228.608 117.41 225.441 115.231C225.672 113.437 225.871 111.929 226.058 110.421C226.141 109.752 226.199 109.082 226.269 108.412C226.935 108.744 227.576 109.125 228.187 109.551C229.058 110.249 229.843 111.056 230.665 111.816L232.811 109.426C233.853 110.526 234.963 111.696 236.072 112.865L236.792 112.183C235.406 105.679 228.979 104.213 220.68 107.037C221.776 108.477 222.783 109.983 223.696 111.546C224.028 111.907 224.273 112.34 224.413 112.81C224.553 113.28 224.585 113.776 224.505 114.261C224.426 114.745 224.238 115.205 223.954 115.606C223.671 116.007 223.301 116.338 222.871 116.575C219.892 110.607 215.819 105.252 210.862 100.789C208.369 98.1432 205.14 96.3049 201.592 95.5121C198.044 94.7194 194.34 95.0084 190.958 96.342C189.273 97.1574 187.663 98.1204 186.148 99.2198C187.657 101.436 188.796 103.109 189.428 104.038L185.985 107.537C183.352 99.8663 176.825 96.7517 170.455 100.24C174.968 104.697 176.07 108.103 173.651 110.634C173.621 109.724 173.652 108.934 173.562 108.158C173.056 103.814 168.983 99.1844 166.011 100.156C161.12 101.349 156.784 104.181 153.725 108.181C159.177 113.513 160.198 117.174 157.237 119.257C156.601 117.103 155.769 115.011 154.754 113.006C154.537 112.576 154.202 112.215 153.788 111.968C153.375 111.721 152.899 111.596 152.417 111.609C151.935 111.623 151.466 111.773 151.067 112.042C150.667 112.312 150.352 112.69 150.159 113.132C149.598 115.691 149.419 118.333 149.035 121.25C149.822 121.137 150.622 121.172 151.395 121.354C152.483 122.04 153.524 122.798 154.511 123.622C153.489 124.04 152.464 124.448 151.447 124.876C149.15 125.516 146.957 126.484 144.936 127.749C142.956 129.573 141.42 131.827 140.446 134.337C139.472 136.847 139.086 139.547 139.317 142.229C139.305 148.027 143.946 151.043 146.861 154.595C147.627 155.145 148.143 155.976 148.296 156.906C148.45 157.836 148.229 158.788 147.681 159.555L150.225 161.089C142.777 162.061 142.777 162.061 141.322 164.783C140.457 164.069 139.594 163.353 138.822 162.712C135.404 164.611 132.82 167.718 131.575 171.424C130.33 175.13 130.514 179.167 132.091 182.744C134.806 188.948 135.924 189.255 141.027 184.861C141.574 184.71 142.138 184.628 142.706 184.617C142.015 186.023 141.523 186.896 141.151 187.818C140.738 188.841 140.435 189.909 140.085 190.957L140.626 191.167L142.347 188.617L143.402 188.67C143.643 189.79 143.638 190.95 143.389 192.068C142.597 193.105 141.629 193.993 140.53 194.695C140.766 195.422 141.067 196.352 141.687 198.264C137.465 196.516 133.557 194.441 131.51 199.779L131.567 199.719C130.485 201.175 129.731 202.848 129.358 204.623C128.985 206.398 129.002 208.233 129.406 210.001C129.663 211.866 130.204 213.682 131.011 215.383C132.538 214.701 134.076 214.042 135.579 213.309C135.778 213.076 135.911 212.793 135.964 212.491C134.434 211.987 133.002 211.516 131.734 211.098C134.761 209.339 137.583 207.698 140.139 206.212C141.27 209.319 142.438 212.53 143.606 215.741L143.026 216.029C141.938 213.874 140.85 211.718 139.465 208.973C138.265 211.809 137.259 214.185 136.14 216.831C138.083 218.663 137.412 220.175 135.177 221.895C134.493 222.43 133.927 223.102 133.517 223.867C133.106 224.632 132.859 225.475 132.792 226.341C132.725 227.207 132.838 228.077 133.125 228.897C133.412 229.717 133.867 230.468 134.46 231.102C135.91 229.326 137.296 227.627 138.651 225.968C140.517 229.97 139.46 231.375 133.221 233.097C134.022 236.374 135.237 236.86 137.387 234.484C138.647 232.843 139.766 231.099 140.732 229.27C142.502 233.209 141.786 234.319 134.761 238.632C135.589 239.567 136.379 240.459 137.169 241.352C139.097 239.194 141.025 237.037 143.545 234.216C143.712 235.477 143.657 236.758 143.383 237.999C142.882 238.915 142.702 239.971 142.871 241C143.04 242.029 143.548 242.973 144.314 243.68C146.77 246.566 146.348 248.119 142.798 249.82C140.846 250.756 140.611 251.861 141.903 254.471C143.954 252.482 145.676 250.811 147.398 249.141C147.732 249.571 147.936 250.087 147.986 250.629C148.036 251.171 147.93 251.716 147.68 252.199C146.23 253.514 144.612 254.632 142.87 255.524C140.523 256.789 141.465 258.557 142.286 259.94C142.744 260.209 143.26 260.363 143.79 260.387C144.321 260.412 144.849 260.308 145.33 260.083C146.573 259.123 147.691 258.011 148.658 256.773C150.373 259.97 149.764 260.756 144.009 262.975C145.894 265.454 145.894 265.454 151.518 260.379C151.507 261.751 151.116 263.093 150.39 264.257C148.621 266.797 148.534 266.737 149.205 267.603C151.053 266.521 152.831 265.479 154.608 264.438C154.471 266.169 154.334 267.9 154.25 268.959C155.745 269.979 156.97 271.347 157.82 272.945C157.616 274.811 157 276.609 156.017 278.208C156.664 278.286 157.321 278.225 157.943 278.027C158.565 277.83 159.137 277.501 159.62 277.064C160.377 275.885 160.969 274.61 161.383 273.273C162.798 276.781 162.798 276.781 158.143 280.476C161.36 284.732 164.45 283.263 167.922 275.174C168.521 276.257 168.858 277.465 168.908 278.701C167.558 280.988 166.086 283.202 164.498 285.332C164.814 285.609 165.184 285.816 165.585 285.94C168.097 283.528 170.513 281.015 173.566 277.891C173.177 279.652 172.627 281.374 171.924 283.034C170.859 284.7 169.67 286.282 168.368 287.77C170.667 287.57 172.854 286.686 174.646 285.231C176.438 283.776 177.754 281.818 178.422 279.609C178.6 281.212 178.319 282.833 177.611 284.282C176.763 285.737 175.817 287.134 174.781 288.462C179.589 288.019 180.775 286.924 180.781 282.607C180.786 278.634 180.509 274.661 180.497 270.688C180.462 259.012 180.372 247.333 180.546 235.659C180.686 226.19 180.989 216.716 181.565 207.265C182.139 197.85 183.539 188.475 183.864 179.058C184.301 166.363 184.096 153.644 184.027 140.936C183.629 139.721 182.982 138.601 182.129 137.648C185.907 135.213 180.181 134.543 180.274 132.944C182.156 132.935 184.034 132.761 185.886 132.424C186.407 131.619 186.605 130.647 186.439 129.703C184.433 128.687 182.363 127.802 180.242 127.053C183.316 126.792 185.848 126.578 189.218 126.292C189.639 127.898 189.687 129.579 189.357 131.206C186.98 137.065 186.022 143.404 186.561 149.704C186.525 156.347 187.107 162.991 187.236 169.639C187.486 182.497 187.62 195.356 187.781 208.215C187.935 220.538 187.882 232.866 188.254 245.182C188.571 255.713 189.39 266.228 189.931 276.753C190.236 282.694 190.429 288.641 190.672 294.585C190.93 300.932 191.189 307.279 191.446 313.626C192.747 313.234 193.89 312.44 194.713 311.359C197.611 307.557 200.491 303.74 203.317 299.884C210.217 290.468 217.151 281.076 223.939 271.579C228.56 265.114 232.674 258.271 237.517 251.986C244.854 242.466 252.735 233.368 260.156 223.911C262.659 220.329 264.962 216.611 267.057 212.775C267.971 212.767 268.884 212.846 269.783 213.014C279.791 215.235 289.703 218.041 299.808 219.624C309.485 221.14 319.352 221.482 329.146 222.189C335.058 222.78 341.002 222.999 346.942 222.843C347.871 222.629 348.846 222.775 349.672 223.25C350.499 223.725 351.114 224.495 351.397 225.406C353.199 229.192 354.934 233.037 357.084 236.625C362.062 244.933 366.973 253.309 372.475 261.267C377.412 268.605 382.868 275.579 388.803 282.137C396.668 290.599 405.282 298.373 413.667 306.345C418.235 310.688 422.772 315.117 427.722 318.997C435.624 325.19 443.937 330.856 451.928 336.938C458.491 341.843 465.713 345.797 473.381 348.684C475.164 349.377 476.962 350.027 479.758 351.072C477.875 348.477 476.168 345.759 474.647 342.938C474.207 342.106 473.982 341.177 473.991 340.237C474 339.296 474.243 338.372 474.698 337.549C475.153 336.725 475.806 336.028 476.598 335.52C477.39 335.012 478.296 334.709 479.234 334.638C482.382 333.907 485.68 334.171 488.672 335.393C489.229 335.689 489.701 336.122 490.044 336.65C490.387 337.179 490.591 337.786 490.635 338.415C490.186 341.027 489.251 343.531 487.877 345.798C487.073 346.563 486.497 347.537 486.215 348.611C485.933 349.684 485.955 350.816 486.278 351.878C486.602 352.94 487.215 353.89 488.049 354.624C488.883 355.357 489.904 355.844 490.998 356.03C492.765 356.63 494.64 356.919 496.393 357.552C497.281 358.001 498.109 358.56 498.858 359.216C497.966 359.804 496.95 360.176 495.89 360.302C493.606 359.875 491.422 358.939 489.17 358.306C487.461 357.826 486.131 358.041 486.136 360.331C486.138 361.376 485.733 362.424 485.753 363.466C485.793 365.52 486.148 367.677 483.005 367.528C482.394 367.635 481.765 367.58 481.181 367.369C480.597 367.159 480.078 366.799 479.675 366.327C479.272 365.855 479 365.285 478.884 364.675C478.768 364.065 478.813 363.436 479.015 362.849C479.173 361.335 479.439 359.833 479.609 358.321C479.82 357.345 479.647 356.325 479.126 355.473C478.606 354.621 477.778 354.002 476.813 353.744C471.128 351.595 465.568 349.125 460.161 346.348C455.587 343.868 451.583 340.355 447.124 337.632C445.555 336.789 443.737 336.531 441.995 336.903C436.545 338.166 431.138 339.676 425.809 341.386C422.228 343.054 418.534 344.47 414.756 345.624C399.187 348.227 384.966 355.742 369.115 357.479C359.669 358.514 350.431 361.351 341.057 363.159C330.663 365.164 320.244 367.055 309.795 368.747C298.603 370.56 287.345 371.964 276.153 373.778C268.32 375.047 260.56 376.757 252.751 378.176C242.895 379.966 233.014 381.623 223.158 383.409C216.551 385.078 210.824 389.19 207.133 394.917C200.856 402.915 195.213 411.432 188.64 419.165C187.545 420.29 186.776 421.691 186.417 423.219C186.058 424.746 186.122 426.343 186.601 427.838C186.711 428.173 186.761 428.525 186.747 428.878C186.572 430.209 186.341 431.533 186.131 432.86C184.693 432.849 183.273 432.536 181.964 431.942C181.183 430.906 180.818 429.617 180.938 428.325C181.169 425.911 181.275 423.486 181.255 421.06C181.227 418.556 180.675 416.085 179.634 413.807C178.593 411.53 177.087 409.495 175.212 407.834C174.076 407.058 173.248 405.908 172.874 404.584C172.5 403.261 172.603 401.847 173.164 400.592C173.556 399.7 174.133 398.901 174.856 398.249C175.58 397.596 176.434 397.105 177.361 396.807C178.289 396.51 179.269 396.412 180.237 396.522C181.205 396.631 182.139 396.945 182.977 397.442C187.044 400.267 189.197 403.579 185.984 407.632C183.499 410.766 184.742 413.565 185.888 417.388C188.032 414.665 189.801 412.536 191.441 410.313C195.812 404.386 200.114 398.409 204.473 392.474C205.089 391.7 205.41 390.733 205.38 389.744C205.35 388.756 204.97 387.81 204.309 387.075C195.883 375.004 184.19 365.585 170.601 359.925C166.793 357.936 162.47 357.153 158.207 357.681C147.362 360.236 136.792 363.988 126.176 367.456C125.629 367.768 125.163 368.203 124.815 368.727C124.467 369.251 124.247 369.85 124.172 370.474C124.007 373.134 124.633 375.852 124.377 378.491C123.717 379.609 122.775 380.534 121.645 381.173C120.835 380.469 120.221 379.568 119.861 378.558C120.346 375.739 120.232 372.85 119.529 370.078C118.825 367.306 117.547 364.713 115.777 362.467C115.287 362.031 114.896 361.495 114.63 360.895C114.365 360.296 114.231 359.646 114.237 358.99C114.243 358.334 114.39 357.687 114.667 357.093C114.945 356.498 115.346 355.97 115.844 355.544C117.754 353.675 120.192 352.439 122.829 352.005C125.582 352.388 128.245 353.257 130.695 354.572C130.282 354.606 129.261 354.691 128.796 354.729C127.657 358.026 126.641 360.97 125.585 364.029C126.929 363.634 128.477 363.232 129.99 362.727C134.611 361.182 139.216 359.585 143.835 358.032C147.657 357.145 151.372 355.851 154.917 354.171C158.594 351.674 161.96 348.747 164.944 345.452C168.444 341.936 171.627 338.103 174.948 334.408L174.76 332.714C153.427 330.276 133.907 321.826 113.503 315.151C113.602 319.826 113.823 324.018 113.75 328.204C113.635 334.851 113.233 341.493 113.122 348.139C113.009 354.901 112.892 361.676 113.189 368.428C113.345 371.99 112.741 373.73 109.27 373.883C104.824 374.079 100.355 373.742 95.7702 373.632C94.9946 375.106 94.0863 376.832 93.1781 378.558L91.6298 378.192C93.4637 371.841 93.8138 365.154 92.6531 358.647C92.4615 359.721 92.1854 360.779 91.8272 361.809C91.3602 362.644 90.8368 363.446 90.2609 364.209C89.4793 363.615 88.7836 362.915 88.1936 362.13C87.7641 361.134 87.4516 360.091 87.2623 359.022C86.1029 362.467 85.2263 366.001 84.6412 369.589C84.2845 370.788 83.8194 371.953 83.2517 373.068C82.61 372.012 82.037 370.916 81.5363 369.786C80.9026 368.102 80.4625 366.345 79.6391 363.625C78.5315 367.335 77.7581 369.926 76.9846 372.518L75.7122 372.645C75.0045 371.631 74.295 370.614 73.5836 369.596C71.158 372.188 70.198 371.932 69.0783 368.723C67.9 365.344 66.6141 362.002 65.3753 358.644C64.7451 361.269 64.3866 363.952 64.3055 366.65C63.9684 367.646 63.44 368.566 62.7501 369.36C61.8042 368.808 60.9409 368.126 60.1855 367.334C59.5302 366.221 58.9937 365.042 58.5848 363.816L57.3878 364.089C57.667 368.056 57.9458 372.023 58.2849 376.853C56.6089 374.541 55.4851 371.875 54.9999 369.061C54.5147 366.246 54.681 363.358 55.486 360.618C55.9555 360.249 56.4948 359.977 57.0716 359.821C57.6484 359.664 58.2508 359.626 58.8428 359.708C59.8883 360.19 60.8221 360.885 61.5846 361.748C61.2094 356.986 60.8863 352.882 60.5623 348.777L62.0091 348.523C64.8074 353.671 67.6053 358.82 70.5599 364.257C73.1098 361.218 74.3777 363.466 75.4737 365.17C76.1465 363.396 77.201 361.793 78.5627 360.472C80.2511 360.499 81.9022 360.973 83.3486 361.844C85.2792 358.356 82.4376 352.224 88.4395 349.25C88.2433 338.699 88.0385 327.691 87.8248 316.227C85.4111 317.147 83.7777 317.737 82.1696 318.389C73.0927 322.067 64.1244 326.043 54.9189 329.362C46.8139 332.284 38.4621 334.534 30.1858 336.966C26.8786 337.521 23.6248 338.358 20.4598 339.466C19.1507 340.195 17.6477 340.5 16.158 340.339C14.6683 340.178 13.2651 339.559 12.142 338.567C13.7456 337.112 15.5037 335.838 17.3849 334.766ZM206.602 276.455C205.701 277.89 204.8 279.326 203.899 280.761L205.319 281.582C206.191 280.094 207.063 278.605 207.935 277.116L206.602 276.455ZM222.118 248.664L220.677 248.73C220.777 250.857 220.877 252.983 220.977 255.11L222.423 255.044L222.118 248.664ZM244.572 203.004C245.205 201.424 245.305 199.679 244.856 198.037C244.408 196.395 243.435 194.944 242.086 193.905C242.498 196.973 242.886 199.698 243.226 202.43C243.564 205.145 243.854 207.866 244.165 210.584L245.268 210.523C245.107 208.962 244.944 207.401 244.787 205.84C244.519 204.92 244.446 203.954 244.572 203.004H244.572ZM482.537 343.753C483.569 343.011 484.525 342.17 485.391 341.24C484.808 340.343 483.992 339.622 483.03 339.155C481.906 339.747 480.941 340.601 480.218 341.644C480.897 342.445 481.676 343.153 482.537 343.753ZM179.536 400.224C178.857 401.923 178.177 403.623 177.498 405.323C178.708 405.373 179.918 405.423 181.128 405.472C181.167 403.839 181.206 402.206 181.245 400.573C180.675 400.456 180.105 400.339 179.536 400.223L179.536 400.224ZM120.678 355.959C120.058 357.211 119.516 358.501 119.056 359.821C119.704 360.092 120.351 360.363 120.998 360.635C121.572 359.251 122.145 357.867 122.719 356.484C122.064 356.22 121.378 356.043 120.678 355.959ZM108.439 98.5334L111.284 107.435L112.351 107.096C112.659 106.277 112.802 105.405 112.772 104.531C112.741 103.657 112.539 102.797 112.175 102.001C111.812 101.206 111.294 100.49 110.653 99.8944C110.012 99.2992 109.259 98.8367 108.439 98.5334ZM188.797 313.568C188.051 310.021 187.815 306.387 188.096 302.774C187.49 288.066 186.894 273.357 186.308 258.648C185.992 250.484 185.783 242.316 185.453 234.152C185.306 232.747 185.061 231.354 184.721 229.983L183.377 230.135C183.225 230.809 183.224 231.507 183.372 232.181C183.961 233.065 184.289 234.096 184.318 235.158C184.348 236.22 184.077 237.268 183.539 238.183C182.942 240.991 182.945 243.893 183.549 246.699C183.572 247.524 183.597 248.353 183.541 249.175C183.26 250.011 183.172 250.901 183.283 251.776C183.93 253.083 184.272 254.519 184.284 255.977C184.296 257.434 183.977 258.876 183.352 260.193C183.155 262.176 183.681 264.164 184.834 265.79C184.259 268.335 183.635 270.871 183.158 273.434C183.159 273.72 183.226 274.002 183.354 274.257C183.482 274.512 183.668 274.734 183.897 274.905C186.573 276.644 185.076 277.861 183.214 279.216C184.356 280.268 185.079 281.697 185.249 283.239C185.418 284.782 185.024 286.333 184.139 287.608C183.683 289.099 183.646 290.687 184.033 292.198C184.345 295.206 184.829 298.197 185.357 302.023C185.321 302.072 184.671 302.964 183.861 304.076C184.996 304.742 185.918 305.282 187.027 305.932C185.728 308.113 183.171 310.287 186.863 312.052C185.957 315.84 185.116 319.357 184.274 322.874L185.272 323.157C186.988 320.225 190.515 318.425 188.797 313.568ZM207.414 298.64C207.018 299.18 206.751 299.804 206.634 300.463C206.516 301.123 206.551 301.8 206.735 302.444C206.997 302.797 207.339 303.081 207.733 303.275C208.127 303.468 208.562 303.565 209.001 303.557C209.44 303.55 209.87 303.437 210.257 303.23C210.644 303.022 210.976 302.725 211.225 302.364C211.495 302.146 211.79 301.961 212.105 301.815C212.309 302.895 212.512 303.975 212.715 305.055C213.799 305.003 214.852 304.678 215.777 304.109C217.902 301.263 219.728 298.193 221.699 295.151C219.934 293.279 218.365 292.826 216.861 295.51C216.332 296.093 215.692 296.566 214.98 296.901C215.471 295.759 215.962 294.616 216.537 293.277C215.414 292.766 214.408 292.308 213.222 291.768C211.228 294.079 209.125 296.221 207.414 298.64ZM227.887 287.472C227.174 287.158 226.493 286.831 225.792 286.555C225.05 286.264 224.289 286.021 223.286 285.668C222.599 286.752 221.908 287.77 221.293 288.831C220.674 289.899 220.129 291.01 219.552 292.102C223.619 294.217 224.41 293.767 227.887 287.472V287.472ZM217.87 285.356C216.639 286.809 215.549 288.375 214.615 290.034L215.12 291.066C216.264 291.115 217.401 290.867 218.421 290.346C219.429 288.866 220.258 287.271 220.889 285.595C219.922 285.249 218.88 285.166 217.87 285.356L217.87 285.356ZM236.449 261.943C236.175 262.829 236.124 263.769 236.299 264.679L237.258 264.889C238.207 263.581 239.155 262.272 240.103 260.964L239.273 259.975C238.228 260.469 237.274 261.134 236.449 261.943L236.449 261.943ZM244.808 247.684C242.643 250.118 240.639 252.692 238.809 255.387C238.826 255.805 238.94 256.213 239.141 256.58C239.342 256.947 239.626 257.262 239.969 257.501C240.355 257.602 240.761 257.601 241.146 257.497C241.531 257.393 241.883 257.191 242.166 256.909C242.691 255.739 243.078 254.512 243.319 253.253C244.984 251.679 246.534 250.215 248.085 248.751L247.744 247.682C246.783 247.421 245.769 247.422 244.808 247.684ZM257.57 233.694C261.846 236.042 262.854 235.324 264.358 229.1C260.828 227.391 259.021 228.566 257.57 233.694ZM347.93 237.898L346.847 237.683C345.727 241.972 344.608 246.261 343.238 251.507C345.091 248.792 346.743 245.945 348.182 242.99C348.44 241.293 348.355 239.561 347.93 237.898ZM345.992 258.761L344.768 260.615C344.482 259.523 344.296 258.811 344.109 258.098L343.541 258.008L341.737 265.702L342.728 265.964C343.032 264.712 343.336 263.461 343.64 262.211C347.132 263.026 345.782 260.319 345.992 258.761L345.992 258.761ZM348.344 246.571C347.079 249.701 346.142 252.021 344.817 255.299L349.763 252.106C349.371 250.576 348.962 248.981 348.344 246.571ZM349.311 258.684C348.301 262.104 346.596 265.279 344.303 268.01C343.09 269.783 342.223 271.77 341.747 273.865C341.434 272.082 341 269.611 340.567 267.141L339.995 267.41C332.906 292.051 325.816 316.692 318.881 340.799C318.967 340.726 319.652 340.145 320.348 339.555C321.633 335.141 323.613 330.959 326.214 327.168L327.173 327.546C326.689 330.057 326.206 332.567 325.723 335.078L326.539 335.513C328.8 331.165 331.02 326.793 333.352 322.483C334.032 321.427 334.802 320.432 335.655 319.51C335.904 323.804 336.154 328.098 336.404 332.393L336.972 332.636C339.105 328.721 341.239 324.805 343.56 320.547C343.709 324.179 343.833 327.198 343.957 330.217L344.584 330.479C345.535 328.699 346.451 326.9 347.443 325.144C350.121 320.401 352.819 315.669 355.536 310.947C356.546 309.192 357.828 308.296 359.829 310.062C360.042 309.22 360.459 308.444 361.043 307.802C364.004 306.35 363.254 304.23 362.486 301.905C359.638 293.283 356.697 284.684 354.13 275.977C352.888 271.761 352.396 267.323 351.564 262.987L350.521 263.033C350.636 264.605 350.786 266.175 350.852 267.749C350.964 268.549 350.906 269.364 350.681 270.139C348.846 274.422 346.931 278.67 344.967 282.894C344.588 283.28 344.121 283.569 343.606 283.735L343.566 283.703L348.092 272.138L347.715 271.961C345.182 276.063 342.648 280.165 339.984 284.481C336.811 280.303 336.829 280.344 340.623 278.683C341.456 278.355 342.153 277.754 342.599 276.977C344.774 271.976 346.805 266.913 348.896 261.876C349.547 260.306 350.239 258.754 350.912 257.193L350.093 256.807C349.831 257.432 349.548 258.05 349.311 258.684L349.311 258.684ZM337.349 341.518L338.462 341.859C339.928 338.718 341.393 335.578 342.858 332.437L341.974 332.005L340.207 332.953L341.856 328.488L341.086 328.126C339.816 330.615 338.507 333.086 337.331 335.62C337.466 336.14 337.732 336.617 338.104 337.005C337.853 338.509 337.601 340.014 337.349 341.518H337.349ZM355.645 343.449C357.689 340.086 359.733 336.723 361.777 333.359L360.523 332.638C358.605 336.077 356.687 339.516 354.769 342.955L355.645 343.449ZM354.907 348.995L356.375 349.799C358.416 346.182 360.458 342.565 362.499 338.949L361.206 338.234L354.907 348.995ZM360.881 322.907C361.63 321.727 362.304 320.49 363.16 319.393C363.706 318.865 364.324 318.417 364.996 318.062C365.199 318.631 365.481 319.169 365.835 319.659C369.62 323.544 364.246 325.175 363.743 328.011C363.305 329.268 362.672 330.449 361.868 331.51L362.835 332.164L368.891 323.52C370.699 328.388 364.617 330.026 366.369 334.373C367.744 332.427 369.119 330.482 370.521 328.497C371.658 330.439 371.64 330.426 369.763 333.099C368.772 334.51 367.855 335.974 366.905 337.414L368.029 338.046C369.393 335.866 370.757 333.686 372.383 331.088C374.073 333.827 375.46 336.077 376.848 338.326L377.689 338.407C377.977 337.497 378.026 336.528 377.832 335.593C372.57 327.447 368.373 318.661 365.341 309.45C365.094 308.984 364.814 308.536 364.503 308.109C363.685 309.207 363.01 310.112 361.922 311.572L365.291 311.349C363.276 315.202 361.441 318.708 359.607 322.215L360.881 322.907ZM358.725 323.565C357.54 325.097 356.356 326.63 355.172 328.162L354.428 327.76C356.821 323.123 359.215 318.487 361.608 313.85L360.219 313.28C353.988 322.98 348.407 333.081 343.511 343.518L344.903 344.325C345.946 342.79 346.989 341.254 348.031 339.717L348.921 340.248C346.524 344.02 344.127 347.791 341.729 351.563L342.703 352.129C350.016 343.859 353.698 333.345 359.86 324.364L358.725 323.565ZM356.472 314.493C353.319 317.312 351.167 321.08 350.34 325.229C351.205 324.336 351.992 323.37 352.69 322.341C354.174 319.839 355.439 317.213 356.472 314.493L356.472 314.493ZM350.182 325.484C348.307 326.604 346.851 328.308 346.035 330.334C345.219 332.36 345.089 334.597 345.664 336.704C347.17 332.964 348.676 329.224 350.182 325.484H350.182ZM342.9 345.809L341.772 345.056C339.951 347.906 338.131 350.756 336.31 353.606L336.955 354.027C338.937 351.288 340.918 348.548 342.9 345.809L342.9 345.809ZM386.432 289.875C390.149 296.967 390.149 296.967 395.665 294.731C393.347 288.71 390.233 286.987 386.432 289.875H386.432ZM406.813 304.735C407.189 309.396 408.96 310.906 412.205 309.245C410.302 307.654 408.789 306.388 406.813 304.735L406.813 304.735ZM420.701 316.641C419.22 317.414 417.852 318.13 416.477 318.848C419.045 323.143 420.56 323.581 424.434 320.838C423.093 319.33 421.951 318.046 420.701 316.641ZM424.959 324.502C425.577 325.734 426.646 326.679 427.944 327.141C429.242 327.602 430.669 327.545 431.925 326.979C429.582 323.487 427.454 322.684 424.959 324.502ZM392.825 348.135C399.511 346.523 406.183 344.827 412.787 342.911C415.438 342.142 417.84 340.541 420.475 339.69C425.787 337.976 431.185 336.534 436.538 334.944C437.957 334.523 439.339 333.976 441.772 333.126C438.204 331.372 436.451 328.182 431.865 329.369L435.096 332.384L434.712 333.335C433.544 332.916 432.411 332.408 431.32 331.816C429.028 330.357 427.242 330.188 426.447 333.135C424.631 332.673 422.891 332.23 420.691 331.671C424.243 330.554 423.315 328.001 421.682 326.989C418.133 324.788 417.443 320.176 412.835 318.291C414.908 316.984 416.413 316.036 417.94 315.073C416.241 311.263 414.886 310.979 409.089 313.575C406.264 310.443 404.999 303.707 398.134 307.777C399.515 306.524 400.895 305.272 402.721 303.614L404.744 303.797L405.199 302.902C403.006 300.91 400.814 298.917 398.547 296.856C396.41 297.502 393.876 298.268 390.219 299.374C389.906 298.862 389.057 297.539 388.274 296.178C386.719 293.478 386.257 289.777 381.705 289.536C382.662 288.187 382.352 285.914 385.104 286.891C385.483 286.858 385.851 286.741 386.181 286.55C386.511 286.358 386.795 286.096 387.012 285.782C386.999 285.464 386.923 285.151 386.788 284.863C386.652 284.575 386.46 284.317 386.222 284.104C384.587 282.606 382.85 281.219 380.725 279.43L374.251 280.996L373.898 279.883C375.796 278.945 377.694 278.006 380.095 276.819C378.461 274.381 377.014 272.22 374.855 268.997C373.941 271.62 373.372 273.253 372.901 274.605C371.653 273.661 370.147 272.523 369.461 272.004C368.646 268.919 368.003 266.485 367.365 264.067C367.95 264.929 368.582 265.757 369.259 266.548C370.209 267.574 371.282 268.487 372.302 269.449L373.463 268.352C369.853 263.205 366.243 258.059 362.226 252.333C361.553 253.999 361.201 254.868 360.824 255.8C359.624 254.744 358.467 253.726 357.121 252.54C357.942 251.564 358.796 250.551 359.65 249.537L360.696 249.839C360.001 248.458 359.307 247.08 358.615 245.705C357.182 245.832 355.963 245.94 354.745 246.048L354.017 245.068C355.041 244.623 356.065 244.178 357.425 243.587C355.224 239.609 353.307 236.146 351.391 232.684L350.506 232.951C351.202 238.634 351.778 244.335 352.632 249.994C353.396 255.056 354.649 260.046 355.368 265.113C357.995 280.645 362.603 295.776 369.078 310.136C371.368 316.375 374.004 322.482 376.973 328.428C380.853 334.947 385.081 341.254 389.636 347.322C390.069 347.694 390.582 347.96 391.135 348.101C391.688 348.242 392.266 348.254 392.825 348.135V348.135ZM381.362 344.376L382.176 346.463C384.635 344.29 382.54 343.144 381.349 341.101C380.312 342.931 379.527 344.315 378.747 345.69C379.595 345.263 380.444 344.837 381.362 344.376H381.362ZM378.535 345.96C376.444 348.127 374.391 350.329 372.243 352.438C371.466 353.201 370.306 354.346 370.114 351.951L377.32 344.747L376.237 343.743C374.172 346.455 372.108 349.168 370.043 351.881C368.385 351.776 366.724 352.013 365.162 352.578C363.599 353.142 362.17 354.022 360.963 355.163C364.511 356.052 368.262 355.606 371.502 353.909C374.742 352.212 377.245 349.383 378.535 345.96L378.535 345.96ZM361.574 344.033C359.201 347.513 357.135 350.844 354.747 353.925C353.43 355.624 352.432 358.526 349.043 356.408C347.809 356.48 346.603 356.809 345.504 357.374C344.404 357.939 343.435 358.728 342.659 359.69C351.497 360.309 363.562 350.698 361.573 344.033H361.574ZM335.262 361.026C336.71 360.853 338.112 360.411 339.396 359.721C348.276 351.195 355.408 341.021 360.396 329.767C360.433 329.392 360.362 329.014 360.191 328.679C360.02 328.343 359.756 328.064 359.431 327.874C356.582 332.715 353.876 337.65 350.842 342.373C347.701 347.263 344.321 352.007 340.847 356.667C339.845 357.428 338.687 357.956 337.456 358.214L336.786 357.352L334.953 360.216L335.262 361.026ZM331.648 356.377L339.389 345.296L338.734 344.845C336.098 348.498 333.462 352.151 330.825 355.804L331.648 356.377ZM331.332 352.284C332.976 349.591 334.619 346.898 336.262 344.204L334.769 343.312C333.14 346.016 331.512 348.72 329.883 351.424L331.332 352.284ZM329.129 358.495C327.322 359.839 325.841 360.94 324.162 362.188C327.899 362.991 328.834 362.273 329.129 358.495H329.129ZM322.355 354.141C326.069 346.614 333.941 341.6 335.595 332.827L334.731 332.3C330.352 339.438 325.973 346.576 321.593 353.714L322.355 354.141ZM334.3 325.444C329.803 333.866 322.707 340.857 320.551 350.515C325.794 342.487 334.009 336.089 334.3 325.444L334.3 325.444ZM319.972 364.147C320.032 361.673 320.076 359.819 320.136 357.35C317.48 359.609 317.474 360.266 319.972 364.147H319.972ZM310.758 361.957C313.518 359.659 315.301 356.397 315.743 352.832C316.49 350.036 317.83 347.433 319.673 345.201C321.281 342.177 322.833 339.122 324.41 336.081L323.565 335.578C322.506 336.892 321.448 338.206 320.39 339.52L320.394 339.516C319.325 341.304 318.303 343.123 317.167 344.868C316.394 345.717 315.682 346.62 315.035 347.569C312.628 352.847 310.338 358.178 308.036 363.503C307.792 364.242 307.601 364.997 307.464 365.763C308.777 364.258 309.856 363.174 310.758 361.957H310.758ZM223.61 380.006C233.472 378.24 243.348 376.552 253.208 374.775C264.69 372.706 276.156 370.545 287.64 368.483C291.816 368.161 295.949 367.428 299.982 366.295C302.763 364.952 304.979 362.666 306.236 359.844C311.129 348.765 316.14 337.666 319.908 326.181C324.843 311.141 328.733 295.754 332.905 280.471C335.638 270.459 338.119 260.378 340.628 250.307C342.158 244.166 343.527 237.985 344.969 231.822L344.149 231.347C315.931 264.565 287.714 297.782 259.168 331.386C266.636 331.805 274.366 325.376 272.32 319.891C277.274 320.009 281.837 320.048 286.391 320.27C287.863 320.463 289.316 320.786 290.731 321.234C289.26 321.696 287.812 322.267 286.31 322.578C285.381 322.741 284.427 322.705 283.513 322.473C280.755 321.749 277.825 322.093 275.31 323.437C272.795 324.78 270.881 327.024 269.95 329.719L271.059 331.208C267.63 333.316 264.41 335.296 260.498 337.702C260.88 336.098 261.096 335.191 261.324 334.234C259.888 331.945 255.187 335.198 250.784 341.921C252.95 341.499 254.706 341.009 256.491 340.85C258.307 340.687 260.136 340.947 261.835 341.609C261.253 341.923 260.643 342.18 260.012 342.377C258.535 342.753 257.03 343.004 255.511 343.126C252.583 343.088 249.712 343.939 247.277 345.566C244.842 347.193 242.958 349.52 241.872 352.24C244.177 352.295 246.685 352.355 249.194 352.415L249.64 353.604C247.01 353.616 244.46 354.501 242.388 356.12C240.316 357.739 238.841 360.001 238.195 362.549C241.736 361.634 244.679 360.874 247.663 360.102C246.27 362.245 244.674 364.7 242.615 367.864C245.423 367.412 247.51 366.919 249.617 366.803C250.748 366.919 251.855 367.212 252.896 367.67C252.012 368.178 251.082 368.6 250.117 368.928C245.7 369.202 241.382 370.361 237.422 372.337C234.988 373.18 232.353 373.251 229.877 372.541C223.877 371.788 221.213 375.403 218.058 381.325C220.156 380.821 221.866 380.319 223.61 380.006H223.61ZM234.352 362.694C236.465 360.483 238.579 358.273 240.693 356.062L239.624 354.936C237.587 357.248 235.55 359.56 233.514 361.873L234.352 362.694ZM232.493 366.413L231.172 364.95C229.639 366.67 228.211 368.272 226.713 369.953C229.767 370.622 232.948 370.397 235.877 369.306C238.807 368.214 241.359 366.301 243.23 363.796C239.464 364.714 236.343 365.475 232.493 366.413ZM167.626 347.479C169.001 348.724 170.302 350.901 172.667 347.07L167.837 346.122L167.626 347.479ZM172.95 341.56C172.049 342.3 171.09 342.965 170.082 343.551L170.638 344.863C172.405 344.79 174.171 344.718 175.647 344.656C177.153 345.959 178.815 347.069 180.596 347.96C182.072 347.435 183.408 346.581 184.505 345.462C181.299 344.273 178.958 343.404 176.617 342.536L177.105 341.046C180.782 342.156 184.459 343.267 188.19 344.394C185.437 346.869 183.029 349.034 180.604 351.214C178.191 347.826 175.764 347.376 172.994 349.879C173.923 350.733 174.833 351.57 175.744 352.407L175.5 353.139C172.26 351.934 169.019 350.73 165.38 349.378C164.644 350.05 163.127 351.432 161.383 353.023C180.531 360.159 197.731 369.808 208.078 387.903C253.419 334.229 298.535 280.822 344.054 226.937C341.319 226.506 338.877 225.982 336.408 225.755C322.665 224.49 308.879 223.595 295.182 221.958C288.046 221.105 281.072 218.935 274 217.476C272.19 217.218 270.365 217.08 268.536 217.064L268.413 218.038C270.643 219.199 272.872 220.361 275.102 221.522C273.791 221.378 272.467 221.301 271.177 221.053C266.445 220.139 265.902 220.398 263.102 226.027L267.95 225.594C269.01 226.504 270.455 227.744 271.991 229.063C272.075 228.882 271.943 229.255 271.901 229.245C271.039 229.026 270.142 228.985 269.264 229.124C268.386 229.263 267.545 229.58 266.794 230.055C266.042 230.53 265.395 231.154 264.893 231.887C264.391 232.621 264.043 233.449 263.872 234.322C262.113 238.06 259.888 241.56 257.251 244.739C258.349 242.374 259.445 240.011 260.541 237.651C255.84 235.417 254.882 235.602 251.947 239.208C250.416 241.09 248.874 242.962 247.064 245.172C249.276 246.151 251.126 246.971 252.29 247.486L246.803 252.392L247.223 253.457C249.5 254.045 251.776 254.633 254.931 255.447L251.935 258.291C251.445 257.066 250.527 256.062 249.351 255.464C248.176 254.866 246.823 254.715 245.545 255.041C244.715 256.172 244.133 257.465 243.838 258.837C245.807 259.339 247.761 259.935 249.759 260.263C250.366 259.961 250.884 259.505 251.258 258.939C250.473 260.702 249.687 262.465 249.319 263.291C246.931 262.104 244.384 261.269 241.757 260.814C240.574 262.127 239.707 263.694 239.222 265.393C241.202 266.415 243.183 267.438 246.118 268.952C245.064 269.081 244.001 269.103 242.943 269.02C241.716 268.766 240.57 268.119 239.342 267.882C237.875 267.599 235.97 269.159 235.024 266.785C233.198 267.88 231.48 269.146 229.894 270.567C229.608 271.69 229.63 272.868 229.956 273.979C231.22 273.913 232.484 273.846 233.624 273.786L236.236 277.714C234.237 277.057 232.098 276.284 229.916 275.658C229.378 275.312 228.775 275.078 228.144 274.972C227.512 274.865 226.866 274.888 226.244 275.039C225.622 275.19 225.037 275.466 224.525 275.849C224.013 276.233 223.583 276.717 223.264 277.271C222.41 278.874 221.248 280.312 219.984 282.18C224.445 284.162 228.483 285.956 232.058 287.544C230.643 288.39 229.317 289.378 228.102 290.492C224.201 294.551 220.66 298.942 217.521 303.616C215.639 306.597 213.295 309.261 210.578 311.507C211.271 310.271 211.964 309.035 212.972 307.236C210.234 306.051 207.379 305.158 204.453 304.571C202.875 305.401 201.538 306.627 200.574 308.127C202.498 309.522 203.759 310.437 205.931 312.012C201.881 312.019 197.699 308.523 196.577 314.637C197.728 315.228 198.96 315.86 200.192 316.492L199.986 317.086C198.137 316.736 196.236 316.761 194.397 317.16C193.608 318.581 193.2 320.183 193.213 321.809C190.862 320.796 188.943 322.138 188.141 325.443C192.985 328.902 193.471 328.817 197.095 324.274C197.916 323.245 198.903 322.348 199.815 321.391L200.629 322.036C198.972 324.3 197.314 326.563 195.612 328.887C196.215 329.568 196.782 330.206 197.9 331.466C195.43 331.262 193.009 330.664 190.728 329.693C187.876 328.636 184.849 328.13 181.808 328.201C181.742 316.271 181.671 303.611 181.603 291.442C176.266 291.315 171.857 291.209 166.561 291.081C168.941 293.634 171.055 295.844 173.093 298.122C173.713 298.914 174.275 299.749 174.775 300.622C173.819 301.09 172.765 301.321 171.701 301.296C164.834 298.727 158.034 295.976 151.226 293.251C150.27 292.725 149.207 292.424 148.118 292.369C152.233 298.263 156.266 304.215 160.48 310.036C168.13 320.112 177.531 328.728 188.233 335.473C189.061 336.3 189.735 337.269 190.223 338.333C189.035 338.751 187.775 338.922 186.519 338.837C184.179 337.392 181.58 336.417 178.867 335.965C176.493 337.354 174.469 339.268 172.95 341.56V341.56ZM109.104 360.322C108.392 361.913 107.68 363.504 106.968 365.096L108.514 365.786C109.21 364.187 109.906 362.588 110.602 360.989L109.104 360.322ZM110.22 316.658C110.203 315.43 110.08 314.205 109.852 312.998C109.433 312.924 109.008 312.9 108.584 312.927C108.545 314.126 108.475 315.325 108.485 316.523C108.599 317.265 108.77 317.996 108.998 318.711C109.52 318.102 109.933 317.407 110.22 316.658H110.22ZM106.271 322.798C102.295 322.309 101.73 323.12 102.758 327.838C106.402 327.619 106.683 327.216 106.271 322.798H106.271ZM105.762 314.426C104.616 314.558 103.522 314.981 102.585 315.656C102.353 317.355 102.361 319.079 102.611 320.775C107.154 319.852 106.563 317.449 105.762 314.426H105.762ZM105.739 329.624C100.854 329.382 101.639 332.942 101.134 336.834C103.356 335.965 104.892 335.364 106.409 334.771C106.156 332.829 105.952 331.261 105.739 329.624V329.624ZM97.7424 329.523C98.2994 329.313 98.8051 328.987 99.2256 328.565C99.6461 328.144 99.9716 327.638 100.18 327.08C100.389 326.523 100.476 325.927 100.436 325.333C100.396 324.739 100.229 324.161 99.9472 323.637C99.7117 323.422 99.4287 323.267 99.1214 323.183C98.8141 323.099 98.4913 323.09 98.1797 323.155C97.8893 323.296 97.638 323.505 97.4476 323.766C97.2573 324.026 97.1338 324.329 97.0881 324.648C97.2145 326.284 97.433 327.912 97.7424 329.523V329.523ZM94.5027 338.266C100.051 337.789 101.554 335.521 98.576 331.116C97.1439 333.63 95.8234 335.947 94.5028 338.266L94.5027 338.266ZM98.6294 354.215C98.2405 353.236 97.8238 352.188 97.4071 351.14L95.7412 351.764C95.6689 354.79 95.4459 357.827 95.6697 360.83C96.0505 361.246 96.523 361.568 97.0497 361.769C97.5764 361.971 98.1429 362.047 98.7041 361.991C99.9331 361.188 100.987 360.144 101.802 358.923C99.2683 358.267 98.0447 357.95 96.8212 357.633C98.9904 355.995 102.793 356.62 101.432 352.059C100.617 352.686 99.8785 353.254 98.6294 354.215ZM103.861 341.684L105.093 342.333C105.799 340.926 106.504 339.518 107.457 337.619C103.447 337.699 103.19 339.4 103.861 341.684ZM96.2029 370.55C100.778 370.304 105.149 370.083 109.512 369.756C109.623 369.057 109.678 368.35 109.679 367.642C106.289 368.655 103.18 371.569 99.1169 367.623C102.661 367.638 105.806 367.894 104.808 364.137L95.3483 363.91L96.2029 370.55ZM91.3864 351.189C92.1189 349.614 93.1278 348.184 94.3652 346.965C95.6598 347.358 96.8509 348.035 97.8521 348.945C98.2445 346.371 98.7591 343.501 99.0295 340.608C98.5669 339.998 97.9245 339.548 97.1928 339.322C96.3057 338.938 95.3995 338.6 94.4778 338.309L94.4597 338.341L94.4091 338.283L94.3982 338.279L94.4048 338.279C93.3932 337.446 92.6123 336.368 92.137 335.147C92.0266 329.791 92.2706 324.433 92.8674 319.108C93.1516 322.493 93.4356 325.878 93.7195 329.263L94.891 329.252C95.1377 326.463 95.3847 323.674 95.5604 321.685C97.2744 321.66 98.9566 321.218 100.462 320.398C100.824 319.919 101.06 319.356 101.148 318.762C101.235 318.168 101.172 317.561 100.963 316.998C100.755 316.435 100.407 315.933 99.9539 315.539C99.5002 315.146 98.9547 314.873 98.3677 314.745L105.595 311.684C105.398 311.015 105.041 310.404 104.555 309.905C104.068 309.405 103.467 309.032 102.804 308.818C102.14 308.603 101.434 308.554 100.747 308.674C100.061 308.794 99.4134 309.08 98.8621 309.507C96.5634 310.654 94.3091 311.909 92.1362 313.277C91.7508 313.503 91.4171 313.807 91.1565 314.17C90.8958 314.533 90.7142 314.946 90.6232 315.383C90.7969 327.012 91.0951 338.639 91.3864 351.189H91.3864ZM44.6912 323.807L45.5353 324.623C45.3641 325.67 45.1929 326.716 44.8348 328.907C47.9297 325.929 50.4064 323.545 52.8831 321.162L53.7127 321.879C52.8971 323.276 52.0817 324.673 51.2665 326.069L52.1071 326.926C55.4727 323.814 58.8386 320.701 63.0322 316.824C62.2572 319.481 61.7747 321.137 61.1179 323.39C67.5057 321.065 69.7083 315.016 73.7744 311.047L74.9455 311.85C73.7307 313.954 72.5159 316.057 70.9321 318.801C78.1203 315.107 84.0572 309.372 87.9978 302.317C89.236 304.691 89.2401 304.695 86.812 307.668C85.4289 309.223 84.2344 310.936 83.2533 312.771C90.0652 309.115 95.7447 303.662 99.6749 297.004L100.695 297.498C100.11 299.192 99.3868 300.835 98.5327 302.411C97.1981 304.103 95.9751 305.88 94.8715 307.731C101.563 301.54 106.019 307.53 110.952 310.531L111.424 309.545C108.385 306.933 105.347 304.322 102.308 301.71L102.964 300.946C108.852 305.605 114.741 310.264 120.629 314.923L121.114 314.364C120.459 313.508 119.805 312.652 119.15 311.796L119.501 311.305C122.17 312.837 124.861 314.333 127.502 315.912C128.504 316.735 129.658 317.352 130.899 317.728C132.14 318.104 133.443 318.232 134.733 318.104C137.438 318.609 139.982 319.755 142.152 321.446C143.696 322.181 145.271 322.851 147.786 323.977L145.734 319.778C150.104 322.389 153.887 324.65 158.19 327.22L158.25 324.702C164.187 326.797 170.128 328.894 176.073 330.992L176.436 330.176C174 328.984 173.27 325.939 169.322 325.887C167.234 325.859 164.997 321.867 163.204 319.391C161.823 317.2 160.601 314.912 159.548 312.546L158.517 313.011C159.678 316.379 160.839 319.746 162 323.113L160.776 323.618L149.688 298.034L148.605 298.472C150.167 303.972 151.729 309.472 153.29 314.972L152.101 315.355C150.241 310.142 148.381 304.93 146.521 299.717L145.807 299.95L146.083 307.042L145.312 307.202C144.239 303.091 143.165 298.98 141.942 294.298L140.231 296.472C140.045 296.395 139.882 296.27 139.759 296.109C138.853 291.137 134.26 286.639 137.955 280.862C139.578 281.842 141.218 282.832 143.238 284.05L141.338 279.651C141.729 279.395 142.12 279.14 142.512 278.885C145.004 282.044 147.497 285.202 150.345 288.812C150.495 287.48 150.587 286.655 150.679 285.831L151.46 285.403C152.307 286.984 153.095 288.601 154.018 290.136C154.847 291.515 155.825 292.804 156.738 294.132L157.62 293.491L155.7 290.627C158.228 292.571 162.626 291.577 163.573 295.994C164.869 297.007 166.402 297.671 168.027 297.924L168.927 296.818C165.649 293.034 162.37 289.251 159.09 285.469C156.788 283.538 154.831 281.23 153.3 278.644C151.616 274.02 147.361 272.106 144.659 268.656C143.015 266.729 141.485 264.708 140.075 262.604C139.603 261.393 138.844 260.315 137.863 259.462C136.882 258.61 135.708 258.009 134.442 257.712C132.374 255.374 130.454 252.909 128.693 250.331C127.167 247.447 125.799 244.481 124.595 241.448C129.927 239.422 128.881 244.625 131.04 245.435C131.358 244.007 131.687 242.529 132.045 240.919C131.401 238.077 130.592 234.96 130.014 231.802C129.59 229.488 129.818 226.875 126.251 227.063C125.836 226.69 125.525 226.215 125.348 225.685C123.174 221.879 120.977 218.084 118.861 214.245C118.292 213.487 118.013 212.551 118.075 211.605C118.806 210.774 119.802 210.223 120.894 210.046C122.752 212.001 124.409 209.82 125.877 210.003C126.379 206.768 126.994 203.564 127.315 200.332C127.291 199.126 127.02 197.937 126.517 196.84C125.72 195.326 125.115 193.717 124.718 192.051C124.603 190.135 125.014 188.224 125.906 186.524C127.569 186.479 129.227 186.721 130.809 187.238C130.097 185.499 129.446 183.742 128.671 182.042C127.254 178.507 127.021 174.609 128.006 170.931C128.991 167.252 131.141 163.992 134.134 161.638C140.397 157.222 140.3 157.289 136.106 151.188C134.077 148.238 132.585 144.922 130.651 141.9C129.824 140.831 128.648 140.086 127.328 139.797C125.415 135.843 123.502 131.89 121.59 127.936L122.791 127.167C123.988 128.678 125.186 130.19 126.564 131.93C129.106 129.668 130.742 130.797 132.467 133.366C133.721 134.235 135.173 134.776 136.69 134.938C138.472 129.938 138.472 129.938 134.295 126.98C134.334 128.008 134.373 129.047 134.412 130.087L133.11 130.402C132.1 127.825 131.09 125.248 130.051 122.597C125.606 126.383 126.5 120.89 124.722 119.523C122.415 122.077 121.64 119.889 120.916 118.054C120.198 116.233 119.703 114.324 119.082 112.361C116.242 114.364 116.242 114.364 114.414 108.028C113.659 108.702 112.977 109.311 111.67 110.479C110.527 108.048 109.552 105.974 108.528 103.795C107.886 104.349 107.173 104.963 105.847 106.106C105.76 104.474 105.71 103.519 105.66 102.564C106.064 102.511 106.461 102.41 106.843 102.266C106.73 98.9858 106.545 95.7082 106.37 92.4303L105.179 92.4125L104.345 94.8007C103.784 94.2223 103.35 93.5325 103.072 92.7759C102.987 91.206 103.004 89.6323 103.122 88.0645L101.872 87.8749C101.246 90.9623 100.619 94.0499 99.9915 97.1377L99.136 97.0029C99.7123 92.9222 100.288 88.8414 100.868 84.735C98.194 85.1374 98.1941 85.1374 97.3211 92.8323L95.5162 90.6545C93.9075 95.2577 92.485 99.3269 90.8731 103.939L90.3629 102.343C84.8449 111.686 79.4901 120.754 74.3726 129.42L78.0077 129.539C79.1345 127.888 80.2613 126.238 81.3879 124.587L82.6573 125.351C80.6484 128.948 78.6396 132.544 76.4301 136.499C79.3409 134.783 81.6585 132.219 83.0728 129.15C84.9799 126.548 86.6242 123.754 88.8876 120.267C89.1585 121.121 89.2596 122.02 89.1852 122.914C85.0133 128.864 84.179 136.53 79.2231 142.089C75.7951 145.774 72.5645 149.637 69.5448 153.662C63.5112 162.079 57.785 170.714 52.4825 179.727C54.2387 177.745 55.995 175.765 58.3984 173.054C58.2502 175.157 58.1745 176.241 58.098 177.325L58.786 177.836C61.5497 173.937 64.3134 170.036 67.0009 166.245C68.2388 168.756 68.0024 169.424 63.6406 175.2L64.3567 175.824C67.714 171.697 71.0712 167.571 74.6993 163.111C74.956 167.72 71.0602 170.038 70.2165 174.026C72.018 172.074 73.9146 170.2 75.5948 168.15C77.2596 166.118 78.7059 163.907 80.2478 161.775L81.676 162.779C80.6428 164.52 79.5059 166.196 78.2714 167.8C77.8002 168.135 77.4003 168.559 77.0948 169.05C76.7892 169.54 76.5843 170.087 76.4918 170.657C76.3993 171.227 76.4211 171.81 76.556 172.372C76.6909 172.934 76.9361 173.464 77.2774 173.93C77.4182 174.42 77.4435 174.937 77.3514 175.439C77.2593 175.941 77.0523 176.415 76.7466 176.824C69.8114 185.935 62.7614 194.958 55.7963 204.047C54.9626 205.175 54.5783 206.572 54.7184 207.968C56.7806 205.329 58.8427 202.69 60.9047 200.051L61.9957 200.744C60.8888 202.964 59.7821 205.184 58.6757 207.403L59.5455 208.027L66.8148 199.642L67.6834 199.972C67.1476 201.648 66.6119 203.323 66.0763 204.999L66.7322 205.536C70.1389 200.878 73.5457 196.219 76.9525 191.56L77.5854 191.666C77.4517 192.868 77.1649 194.047 76.732 195.176C72.1977 203.611 67.9252 212.217 62.8782 220.339C55.7895 231.747 48.132 242.803 40.6439 253.96C39.3925 255.613 38.0409 257.188 36.5965 258.676L37.4146 259.521C40.5528 256.443 43.6912 253.364 46.8296 250.286L47.6881 250.803C46.9258 252.59 46.1632 254.378 45.2254 256.576C48.5569 255.05 51.2159 252.36 52.7021 249.01C53.5108 247.884 53.6387 245.892 55.9355 246.953C56.6292 246.667 57.2087 246.159 57.5838 245.51C60.0511 241.888 62.4527 238.221 64.8761 234.57L65.8607 234.79C65.3399 236.809 64.8192 238.828 64.2988 240.847L65.0483 241.314C68.33 235.124 71.6117 228.934 75.3687 221.848C75.4841 223.091 75.4366 224.344 75.2274 225.574C74.5696 227.319 73.4338 228.894 72.8633 230.657C72.7271 231.87 72.705 233.093 72.7975 234.31C72.8116 235.528 72.5235 236.73 71.9591 237.81C63.0996 249.572 54.1194 261.242 45.2077 272.965C39.6399 280.289 34.1341 287.66 28.6118 295.019C28.297 295.529 28.0146 296.059 27.7662 296.605C37.4254 294.161 41.4647 286.51 45.4856 278.839L46.2915 279.345C46.2612 280.61 46.231 281.874 46.1767 284.127C48.9259 280.622 51.1692 277.761 53.4125 274.901L54.2867 275.496L51.6003 281.09L52.221 281.687C53.3814 280.906 54.4643 280.015 55.455 279.027C57.7763 276.256 59.8773 273.3 62.2027 270.532C62.8909 270.129 63.6667 269.899 64.4633 269.862L64.986 270.928C68.0341 266.825 71.0825 262.722 74.1312 258.619L75.1751 259.315C74.1531 264.013 69.5392 266.758 68.4904 271.692C70.9652 269.179 73.5981 266.8 75.8681 264.115C77.9512 261.292 80.1996 258.596 82.6015 256.039C81.5068 258.643 80.4127 261.246 79.2493 264.012C82.6854 264.892 82.105 267.081 80.6194 269.158C75.5285 276.28 70.5146 283.471 65.0986 290.341C58.3715 298.874 51.3858 307.21 44.2958 315.445C39.7213 320.759 34.7888 325.767 29.9361 330.835C29.0463 331.364 28.2629 332.054 27.6259 332.87C35.7527 334.367 40.233 329.109 44.6912 323.807H44.6912ZM138.677 150.185C137.782 147.944 136.886 145.703 135.99 143.461L134.674 144.062C135.714 146.219 136.755 148.378 137.795 150.536L138.677 150.185Z" fill="#F8B206"/>
<path d="M148.271 151.285L154.394 135.635L157.078 134.675C156.519 133.411 156.04 132.105 155.383 130.895C154.569 129.396 153.609 127.977 152.555 126.269C150.493 126.244 148.494 126.982 146.943 128.342C145.392 129.701 144.397 131.585 144.151 133.633L147.742 130.876C148.079 131.67 148.263 132.519 148.285 133.381C146.822 134.366 145.301 135.262 143.73 136.064L144.331 140.291L147.267 139.187C147.619 141.392 147.619 141.392 141.605 141.897L148.271 151.285Z" fill="#F8B206"/>
<path d="M210.185 146.784L207.755 136.781C205.546 141.682 203.633 139.166 201.932 138.319C203.088 133.539 204.191 128.824 205.42 124.143C205.563 123.851 205.777 123.6 206.042 123.413C206.308 123.226 206.616 123.109 206.939 123.072C208.84 123.352 210.622 124.17 212.074 125.43C213.121 126.705 213.77 128.26 213.94 129.901C214.11 131.542 213.793 133.197 213.03 134.66C212.006 136.127 211.343 137.816 211.094 139.588L216.148 133.741L217.746 135.857L218.754 135.311C216.329 130.941 213.941 126.549 211.424 122.232C210.864 121.805 210.179 121.574 209.475 121.572C206.607 121.047 203.73 120.572 201.131 120.126C202.881 122.097 203.828 124.652 203.784 127.287C203.74 129.923 202.708 132.445 200.892 134.355C197.811 138.026 197.217 140.069 200.163 143.813C200.536 145.871 200.465 147.986 199.956 150.015C200.339 151.305 200.647 152.615 200.879 153.94C200.393 156.709 200.058 159.501 199.875 162.306C200.743 159.473 201.752 156.675 202.437 153.799C203.13 152.115 204.189 150.607 205.538 149.385C206.887 148.162 208.492 147.256 210.235 146.731L210.185 146.784ZM201.11 141.531L202.293 140.774C203.746 141.84 204.921 143.241 205.716 144.858C205.419 146.626 204.696 148.295 203.61 149.721L202.352 149.45L201.11 141.531Z" fill="#F8B206"/>
<path d="M171.398 261.125C172.343 260.661 173.186 260.013 173.877 259.219C174.568 258.426 175.095 257.502 175.425 256.503C175.755 255.503 175.882 254.448 175.799 253.398C175.716 252.349 175.425 251.327 174.942 250.392C174.32 248.629 174.004 246.759 173.532 244.875C172.741 245.062 171.913 245.024 171.142 244.765C170.371 244.506 169.688 244.037 169.17 243.41C168.652 242.783 168.319 242.024 168.21 241.218C168.1 240.412 168.219 239.592 168.551 238.85L165.591 243.046L164.331 242.356L165.942 235.161C163.902 238.677 163.323 243.29 157.891 243.41L157.81 246.776C159.79 248.852 162.148 250.532 164.757 251.725C167.567 251.647 170.332 251.005 172.89 249.838C173.828 251.645 174.188 253.697 173.921 255.716C173.654 257.735 172.773 259.623 171.398 261.125ZM163.308 244.469C165.953 244.522 169.206 243.188 169.496 247.1C169.246 247.846 168.817 248.519 168.247 249.061C167.677 249.602 166.983 249.997 166.226 250.209C165.63 250.067 165.072 249.798 164.59 249.419C164.109 249.04 163.715 248.561 163.438 248.014C163.16 247.468 163.004 246.868 162.982 246.256C162.96 245.643 163.071 245.034 163.308 244.469H163.308Z" fill="#F8B206"/>
<path d="M172.129 147.021C172.234 152.248 170.634 157.368 167.572 161.606C166.592 163.129 165.163 164.311 163.483 164.988C160.352 165.763 162.255 167.345 162.091 169.503C164.302 167.306 166.101 165.978 168.281 168.376C168.651 168.565 169.064 168.654 169.478 168.635C169.893 168.617 170.296 168.49 170.647 168.269C170.898 167.91 171.057 167.494 171.109 167.059C171.161 166.624 171.104 166.183 170.943 165.775C168.108 163.226 169.814 161.098 170.88 158.418C173.156 155.054 174.155 150.988 173.697 146.953C173.65 146.21 173.78 145.467 174.074 144.783C174.369 144.099 174.821 143.494 175.393 143.018C176.383 142.312 177.07 141.258 177.317 140.068C177.564 138.877 177.352 137.637 176.724 136.596L172.82 140.02C171.782 141.869 173.735 145.482 168.979 145.73L172.129 147.021Z" fill="#F8B206"/>
<path d="M210.235 146.731L214.508 150.936C219.307 148.176 225.418 147.275 225.221 140.56C225.028 137.274 224.375 134.032 223.281 130.928C223.537 145.037 223.408 145.573 218.932 146.736L219.115 139.097L218.534 139.039C218.347 141.341 217.741 143.59 216.747 145.675C215.907 146.522 214.822 147.085 213.645 147.284C212.468 147.482 211.258 147.308 210.186 146.783L210.235 146.731Z" fill="#F8B206"/>
<path d="M170.221 206.906C170.507 207.408 170.77 207.923 171.081 208.408C174.128 213.167 174.084 214.19 170.829 218.995L174.289 217.538C173.715 221.861 173.194 225.786 172.692 229.567C177.961 221.194 176.868 211.03 170.165 206.965L170.221 206.906Z" fill="#F8B206"/>
<path d="M171.798 178.016C173.253 181.43 174.575 184.042 175.455 186.795C175.971 188.307 176.002 189.943 175.544 191.473C174.434 194.44 171.982 194.048 169.48 192.731L169.379 193.905C170.901 194.543 172.559 194.789 174.201 194.622C175.018 194.177 175.738 193.573 176.316 192.844C176.894 192.115 177.319 191.277 177.565 190.38C177.902 187.982 177.536 185.538 176.513 183.344C175.489 181.149 173.852 179.299 171.798 178.016Z" fill="#F8B206"/>
<path d="M208.201 163.436C208.295 165.837 208.216 168.242 207.965 170.632C207.255 174.905 204.441 175.806 201.056 173.086C200.741 172.832 200.401 172.609 200.073 172.371L199.352 173.363C200.883 174.782 202.666 175.902 204.61 176.665C205.152 176.715 205.698 176.655 206.216 176.49C206.735 176.325 207.215 176.057 207.628 175.703C208.041 175.349 208.379 174.915 208.622 174.428C208.865 173.941 209.008 173.411 209.042 172.867C210.387 167.788 210.285 165.415 208.201 163.436Z" fill="#F8B206"/>
<path d="M211.88 185.284C217.153 190.812 213.551 195.674 211.822 201.131L216.975 195.851C216.947 193.862 216.71 191.881 216.267 189.941C215.468 188.134 214.477 186.418 213.311 184.823L211.88 185.284Z" fill="#F8B206"/>
<path d="M227.508 149.883C233.406 147.877 237.204 139.874 233.155 135.952C233.112 138.67 232.734 141.371 232.032 143.997C230.811 146.164 229.287 148.145 227.508 149.883Z" fill="#F8B206"/>
<path d="M160.137 255.781L158.351 264.058L159.491 264.281L159.99 258.715L161.115 258.219L166.119 266.376C167.677 263.778 166.256 260.924 160.137 255.781Z" fill="#F8B206"/>
<path d="M204.75 249.886C205.824 253.844 204.813 254.769 199.943 254.288C201.507 257.336 206.544 253.015 207.218 258.135L208.853 251.547C207.472 250.862 206.213 250.235 204.946 249.623L204.75 249.886Z" fill="#F8B206"/>
<path d="M217.468 206.311C216.578 206.864 215.856 207.649 215.381 208.583C214.905 209.516 214.694 210.562 214.77 211.607C214.039 215.239 212.913 218.78 211.414 222.168L214.343 222.103C214.74 219.878 215.21 217.024 215.768 214.188C216.295 211.511 216.916 208.852 217.468 206.311Z" fill="#F8B206"/>
<path d="M170.165 206.965C167.995 206.077 165.845 205.131 163.647 204.319C162.086 203.744 160.459 203.349 158.424 202.744L156.526 204.97C160.828 205.579 165.522 206.245 170.219 206.908L170.165 206.965Z" fill="#F8B206"/>
<path d="M140.18 173.116L132.527 177.518C133.536 178.184 134.742 178.485 135.945 178.371C137.149 178.257 138.277 177.735 139.143 176.891C140.045 175.77 140.744 174.5 141.209 173.139L140.18 173.116Z" fill="#F8B206"/>
<path d="M229.977 144.063C231.133 141.8 231.606 139.25 231.337 136.723C231.068 134.196 230.07 131.802 228.463 129.833L229.977 144.063Z" fill="#F8B206"/>
<path d="M167.529 112.729C168.036 110.946 168.288 109.1 168.278 107.247C168.106 105.979 167.451 104.828 166.45 104.032C165.448 103.237 164.178 102.86 162.905 102.979C164.528 103.87 165.747 105.35 166.31 107.114C166.873 108.878 166.736 110.79 165.929 112.456L167.529 112.729Z" fill="#F8B206"/>
<path d="M137.913 200.565L132.295 203.567C132.782 203.998 133.35 204.326 133.967 204.534C134.583 204.741 135.234 204.823 135.883 204.774C136.531 204.725 137.163 204.547 137.742 204.25C138.32 203.953 138.833 203.543 139.25 203.045C140.593 201.278 139.203 200.923 137.847 200.63L137.913 200.565Z" fill="#F8B206"/>
<path d="M139.648 179.385L133.751 181.192C133.972 181.632 134.281 182.022 134.661 182.336C135.041 182.65 135.482 182.88 135.956 183.013C136.43 183.146 136.927 183.179 137.415 183.108C137.902 183.038 138.369 182.866 138.786 182.604C139.625 181.811 140.286 180.849 140.726 179.782L139.648 179.385Z" fill="#F8B206"/>
<path d="M199.287 272.82C201.218 272.604 203.004 271.69 204.31 270.251C205.616 268.812 206.352 266.946 206.38 265.003L199.287 272.82Z" fill="#F8B206"/>
<path d="M161.12 114.214C161.762 113.422 162.128 112.441 162.161 111.422C162.195 110.402 161.894 109.4 161.305 108.567C160.27 107.616 159.054 106.883 157.731 106.411L161.12 114.214Z" fill="#F8B206"/>
<path d="M165.616 223.156L162.658 221.504L162.034 221.908C163.032 223.298 163.998 224.714 165.068 226.048C165.269 226.095 165.478 226.101 165.681 226.066C165.885 226.031 166.079 225.956 166.253 225.844C166.465 224.719 166.529 223.566 166.64 222.423L165.616 223.156Z" fill="#F8B206"/>
<path d="M131.566 199.719C132.37 200.388 133.295 200.896 134.291 201.215C135.523 201.173 136.743 200.954 137.913 200.565L137.847 200.63C137.701 199.685 137.554 198.741 137.451 198.076L131.51 199.779L131.566 199.719Z" fill="#F8B206"/>
<path d="M109.341 233.089C109.026 226.296 108.739 220.073 108.451 213.85L109.004 213.644L110.831 216.857L111.566 216.527L108.495 209.059C105.625 212.258 106.353 230.723 109.341 233.089Z" fill="#F8B206"/>
<path d="M111.197 167.452C109.565 173.607 107.987 179.561 106.409 185.514L105.075 185.49L102.783 176.077L101.872 176.307L104.611 188.437C108.952 185.025 113.272 170.449 111.197 167.452Z" fill="#F8B206"/>
<path d="M100.882 139.835L101.59 150.858L104.084 148.75C103.243 147.332 102.572 145.82 102.082 144.246C101.554 139.589 102.372 134.878 104.439 130.671C104.884 129.308 105.214 127.909 105.424 126.491L104.489 126.223C102.036 132.549 99.5838 138.874 97.1312 145.199L97.5596 145.496L100.882 139.835Z" fill="#F8B206"/>
<path d="M93.5233 192.852C97.7985 184.94 101.122 176.55 103.424 167.857L101.925 167.346C99.1242 175.848 96.3237 184.35 93.5233 192.852Z" fill="#F8B206"/>
<path d="M121.52 284.715C123.444 289.826 125.369 294.938 127.293 300.049L128.623 299.533C127.441 294.15 125.316 289.019 122.346 284.377L121.52 284.715Z" fill="#F8B206"/>
<path d="M112.914 161.873L118.952 182.174C118.707 175.002 116.628 168.013 112.914 161.873Z" fill="#F8B206"/>
<path d="M106.063 141.366C107.019 133.996 107.976 126.625 108.932 119.255L107.585 119.123L105.163 141.276L106.063 141.366Z" fill="#F8B206"/>
<path d="M93.0871 225.74L95.2851 211.877L93.3944 211.624L91.933 225.529L93.0871 225.74Z" fill="#F8B206"/>
<path d="M120.306 136.693L114.961 127.158C114.254 131.217 117.516 136.813 120.306 136.693Z" fill="#F8B206"/>
<path d="M102.23 220.24L97.3739 230.027L95.4566 225.896L94.9272 226.02L96.2747 231.917C98.0222 230.483 99.4502 228.7 100.467 226.681C101.484 224.662 102.067 222.453 102.178 220.195L102.23 220.24Z" fill="#F8B206"/>
<path d="M119.825 184.149L118.088 187.774L116.961 187.672L119.183 193.717L120.566 193.409L119.825 184.149Z" fill="#F8B206"/>
<path d="M116.144 248.289L122.035 257.313L123.078 256.702L117.331 247.574L116.144 248.289Z" fill="#F8B206"/>
<path d="M110.537 282.41C111.05 285.002 108.199 287.745 111.889 290.202L111.61 282.444L110.537 282.41Z" fill="#F8B206"/>
<path d="M118.849 235.49C117.988 233.147 117.127 230.803 116.266 228.459L115.213 228.812L117.264 235.957L118.849 235.49Z" fill="#F8B206"/>
<path d="M102.178 220.196C102.932 216.544 103.686 212.893 104.439 209.242L103.022 209.005C102.168 212.685 101.901 216.476 102.23 220.24L102.178 220.196Z" fill="#F8B206"/>
<path d="M275.308 221.547L277.103 223.273L270.773 234.624L271.532 235.099C274.289 231.003 277.047 226.906 280.031 222.473C278.526 222.198 276.893 221.899 275.259 221.602L275.308 221.547Z" fill="#F8B206"/>
<path d="M185.416 332.399C188.402 334.867 192.055 336.389 195.91 336.769L196.289 335.945L186.083 331.041L185.416 332.399Z" fill="#F8B206"/>
<path d="M237.741 298.872L227.66 294.955L227.307 295.807L237.322 300.054L237.741 298.872Z" fill="#F8B206"/>
<path d="M319.304 276.112L313.327 275.378C317.641 271.766 318.998 265.643 325.729 266.201C326.485 265.84 327.132 265.284 327.602 264.59C326.84 264.347 326.078 264.101 325.315 263.859C324.488 263.598 323.661 263.339 322.534 262.985L317.617 265.475C318.013 266.34 318.182 267.292 318.107 268.241C315.77 270.817 313.299 273.268 310.705 275.585C309.638 276.254 308.48 276.766 307.267 277.103L307.85 279.731L319.382 277.355L319.304 276.112Z" fill="#F8B206"/>
<path d="M326.541 254.021C328.066 254.744 329.761 255.031 331.438 254.851C333.116 254.671 334.711 254.031 336.047 253L332.899 251.918L342.788 238.839L342.022 238.326L326.541 254.021Z" fill="#F8B206"/>
<path d="M295.274 295.631L288.037 299.247L289.669 301.086C287.114 303.396 284.555 305.709 281.993 308.025L282.587 309.021L290.986 307.806L291.057 306.899L288.224 305.499C288.877 303.618 290.091 301.981 291.702 300.81C293.314 299.639 295.245 298.99 297.236 298.95L295.274 295.631Z" fill="#F8B206"/>
<path d="M297.431 288.969L298.098 291.783C300.148 289.949 302.317 288.211 305.349 291.55L310.675 283.672L310.101 282.829C308.648 284.806 306.735 286.398 304.527 287.468C302.319 288.538 299.883 289.053 297.431 288.969Z" fill="#F8B206"/>
<path d="M289.048 312.788C285.554 312.014 281.909 312.289 278.571 313.578C278.765 314.239 279.071 314.861 279.474 315.418C282.7 315.118 285.912 314.671 289.128 314.259L289.048 312.788Z" fill="#F8B206"/>
<path d="M367.23 263.89L365.603 259.055L361.894 264.165L367.304 263.834L367.23 263.89Z" fill="#F8B206"/>
<path d="M348.914 295.131C351.174 293.758 352.872 291.624 353.703 289.113C354.534 286.602 354.444 283.877 353.449 281.427C352.998 279.124 352.745 276.787 352.692 274.441C351.892 275.104 351.169 275.855 350.538 276.68C345.35 286.315 340.255 296.001 335.024 305.613C333.951 307.219 332.742 308.731 331.41 310.13L334.566 311.664L326.238 323.554C327.799 323.319 329.267 322.666 330.486 321.664C331.705 320.661 332.63 319.347 333.162 317.862C334.571 314.296 336.343 310.872 337.718 307.295C338.344 305.664 338.395 303.813 339.191 302.039C339.708 304.374 339.908 306.767 339.786 309.155C339.042 311.724 338.028 314.207 336.761 316.562C336.364 317.509 336.051 318.491 335.7 319.457L335.649 319.412C336.928 317.371 338.33 315.395 339.462 313.275C342.689 307.239 345.805 301.144 348.965 295.072C346.546 298.447 344.126 301.821 341.707 305.196L340.844 304.671C342.284 296.935 348.147 291.691 352.776 285.699L348.914 295.131ZM350.899 281.004L351.97 281.722L341.329 298.728L340.094 297.939L350.899 281.004Z" fill="#F8B206"/>
<path d="M349.026 313.709L347.948 317.941L348.374 318.168L360.1 301.946L359.073 301.069C357.57 302.792 355.997 304.46 354.583 306.253C352.778 308.544 351.101 310.936 349.369 313.284C349.253 313.425 349.139 313.566 349.026 313.709Z" fill="#F8B206"/>
<path d="M349.369 313.284L357.132 299.779C350.77 304.819 348.511 312.419 344.479 318.915L345.341 319.462L349.026 313.709C349.139 313.566 349.253 313.424 349.369 313.284Z" fill="#F8B206"/>
<path d="M343.566 283.703C340.46 288.209 337.359 292.718 334.263 297.23C334.071 297.793 333.949 298.377 333.899 298.969C338.965 295.321 342.439 289.868 343.604 283.735L343.566 283.703Z" fill="#F8B206"/>
<path d="M357.598 292.237C353.53 291.656 350.527 295.505 349.229 302.003L357.598 292.237Z" fill="#F8B206"/>
</svg>
