<svg width="100" height="100" viewBox="0 0 100 100" fill="none" xmlns="http://www.w3.org/2000/svg">
<path d="M39.6346 31.0815L40.2386 27.2988C41.2139 27.3442 42.0733 27.3843 43.2826 27.4405C43.2378 28.4018 43.2457 29.3648 43.3064 30.3252C43.4764 31.3885 43.7019 32.4422 43.982 33.482C46.7728 31.5277 44.8687 27.9777 47.8234 26.0362C47.4498 28.3609 47.1521 30.2139 46.8544 32.0669C47.0727 32.1521 47.291 32.2374 47.5094 32.3228C48.1961 30.8139 48.86 29.294 49.5841 27.8034C49.8371 27.3963 50.1337 27.0178 50.4685 26.6747C50.6958 27.1189 50.8447 27.599 50.9084 28.094C50.8582 29.027 50.5812 29.9455 50.4876 30.879C50.4779 31.4207 50.5166 31.9621 50.6033 32.4969L51.2025 32.6455L54.4095 26.8438C55.6464 29.0528 56.5944 29.2482 58.3397 27.9202C59.836 29.4274 57.3929 30.5355 57.9191 32.0637L61.8855 29.2222L62.4019 29.5737C62.1076 30.6528 61.8134 31.732 61.4422 33.0931C63.3632 31.4713 65.0865 30.0165 67.0794 28.3341L67.2924 31.4478C67.9504 31.1217 68.4694 30.8645 69.1282 30.538L69.8732 31.8621C70.5896 31.624 71.2649 31.3994 72.1648 31.1003L71.7776 33.7444C73.39 34.0837 74.6392 34.2154 75.9158 32.7984C77.2312 31.5345 78.7249 30.4703 80.3491 29.6397C81.2437 29.106 82.3544 28.7113 83.0144 29.876C82.1554 30.638 81.3424 31.3594 80.4705 32.1327C81.3111 32.9242 81.7454 33.3331 82.5816 34.1204C81.0479 34.3256 79.8974 34.4796 78.7603 34.6318C80.0956 35.6796 80.8101 35.7504 82.34 34.7263C83.5904 33.8894 84.7321 32.8917 85.9563 32.013C86.4668 31.695 86.9993 31.414 87.5499 31.1722L87.9625 31.62C86.9563 33.5335 85.9501 35.4469 84.9439 37.3603L85.2569 37.713C86.4804 37.3224 87.704 36.9319 88.9275 36.5415C89.0937 36.7121 89.2599 36.8827 89.4261 37.0532C88.7638 38.1353 88.1015 39.2174 87.2181 40.6608C88.4666 40.3892 89.4255 40.1176 90.4029 39.9989C90.8401 40.0405 91.265 40.1662 91.6544 40.3692C91.433 40.706 91.2214 41.0499 90.9883 41.3784C90.3823 42.2325 89.7667 43.0798 89.2303 43.8251C90.444 43.889 91.5353 43.9466 92.6267 44.0041C92.5568 45.2672 92.4869 46.5303 92.4087 47.9448C92.7785 47.8615 93.6227 47.6711 94.6734 47.4341C95.3805 49.4643 93.2052 49.3268 92.5291 50.3703C93.4253 51.2907 94.7199 52.4761 93.1467 53.6576C92.2399 54.3385 90.7757 54.2771 89.5248 54.5582C89.575 54.7422 89.6537 54.9172 89.758 55.0768C90.4167 55.5663 91.0872 56.0398 91.7541 56.5182C91.0896 57.0979 90.4549 57.7184 89.7458 58.237C89.3932 58.3597 89.0297 58.4489 88.6603 58.5032C87.8556 58.8481 87.0495 59.1424 88.1573 60.2014C88.4955 60.5246 88.3303 61.4282 88.3017 62.0617C88.2843 62.4465 88.0271 62.816 87.9804 63.2047C87.8094 64.411 87.2889 65.5407 86.483 66.4544C85.6771 67.3681 84.6213 68.0258 83.4459 68.3461C83.3018 68.3724 83.165 68.429 83.0444 68.5122C82.9239 68.5955 82.8225 68.7034 82.7469 68.8288C82.4751 70.5086 81.3801 70.2502 80.3669 69.7817C79.2073 69.2455 78.1363 68.518 76.9275 67.816C76.7012 68.252 76.3443 68.94 75.8924 69.8112C74.7971 68.2193 73.8144 68.7858 73.4011 69.9607C72.7696 71.7551 72.1498 73.5284 70.0635 73.84C68.1985 73.9828 66.326 73.9994 64.4587 73.8895C65.1484 72.2333 65.6318 71.0727 66.2155 69.671C64.6318 69.9062 63.1487 70.1161 61.6705 70.3567C61.4185 70.3783 61.1852 70.4986 61.0214 70.6913C60.2338 72.298 59.857 72.3718 58.3767 71.4678C57.7501 71.1491 57.064 70.9641 56.3621 70.9245C55.2969 70.8042 54.2254 70.7483 53.1534 70.757C52.6793 70.754 52.2124 70.873 51.7976 71.1025C49.6557 72.3861 47.6811 71.5774 45.7893 70.5814C44.6593 69.9866 43.6748 69.7831 42.7607 70.773C41.8756 71.7314 41.0391 71.7436 40.3671 70.6711C39.7413 69.6722 39.3438 70.0139 38.7149 70.6447C38.0229 71.3388 37.1978 71.9002 36.1572 72.7403C36.0978 72.2042 35.9921 71.6743 35.8413 71.1565C35.7036 70.6621 35.4195 70.2209 35.0263 69.891C34.7898 69.8647 34.5505 69.8979 34.3301 69.9877C34.1098 70.0775 33.9154 70.221 33.7646 70.4052C33.6645 70.6164 33.5188 70.8029 33.3379 70.951C33.157 71.0991 32.9455 71.2052 32.7186 71.2616C32.4917 71.3181 32.2551 71.3235 32.0259 71.2774C31.7967 71.2313 31.5806 71.1349 31.3931 70.9952C30.962 70.9506 30.5299 71.0692 30.182 71.3276C27.707 72.7107 25.4278 72.6145 23.3883 70.7647C24.542 69.5757 25.6871 68.3955 26.6501 67.4031C22.8658 67.6327 19.0677 67.3754 15.3489 66.6376C13.0894 66.0876 10.6275 66.3183 8.25591 66.3022C7.58524 66.2269 6.94884 65.9661 6.41813 65.5492C5.88743 65.1323 5.48342 64.5757 5.25145 63.9419C5.15204 63.568 5.12871 63.1779 5.18287 62.7948C5.23702 62.4117 5.36755 62.0433 5.56671 61.7116C5.76587 61.3799 6.02961 61.0915 6.3423 60.8636C6.65498 60.6357 7.01024 60.4729 7.38701 60.3849C9.47471 59.6949 11.3283 59.3881 13.4895 60.4243C14.139 60.7359 15.7998 59.4425 16.7225 58.5877C19.7747 55.76 22.72 52.8155 25.6664 49.8759C26.7003 48.8332 27.6707 47.7294 28.5723 46.5704C28.737 46.1641 28.7736 45.7172 28.6773 45.2895C28.4214 41.2488 28.1247 37.2103 27.906 33.1675C27.9676 32.5646 28.1199 31.9743 28.3576 31.4167C28.5726 31.4126 28.7877 31.4083 29.0028 31.4041C29.4825 32.9572 29.9621 34.5104 30.4418 36.0637C30.6431 36.0259 30.8445 35.9882 31.0458 35.9506C30.8723 34.7859 30.6096 33.6257 30.5522 32.4554C30.5017 31.4248 29.5898 30.101 31.5109 29.3364C31.8753 30.0311 32.2276 30.7027 32.7516 31.7016V27.557C34.6797 26.8286 35.3854 27.6916 35.6734 29.2919C35.8451 30.2461 36.1382 31.1783 36.4175 32.2816C38.5285 31.0904 36.437 28.0881 39.0025 26.8701L39.397 31.0983L39.6346 31.0815ZM48.9415 45.8032C49.4395 46.1041 49.9375 46.405 50.4071 46.6886C53.0503 44.4488 53.3239 43.3589 51.8692 40.8716C50.765 42.4744 48.7347 43.4733 48.9596 45.8318C48.5488 45.2171 48.1379 44.6024 47.5744 43.7593C47.6234 45.7015 46.444 47.4358 47.729 49.2227C48.3337 48.929 48.8148 48.6952 49.296 48.4614C48.8056 49.1294 48.2676 49.7611 47.6864 50.3517C47.2645 50.1976 46.8784 49.9595 46.5514 49.6517C46.0411 49.2517 45.5719 48.7993 45.0714 48.3573C45.6731 47.4571 46.1384 46.473 46.4523 45.4368C46.8152 43.3638 46.8105 41.2277 46.9921 39.1208C47.0502 38.4474 47.2132 37.7833 47.3292 37.1094C46.949 37.0919 46.6103 37.0764 46.0658 37.0514C46.4996 35.9192 46.8657 34.9637 47.4258 33.5017C46.296 33.9483 45.3128 34.0259 44.9468 34.5416C44.4612 35.2432 44.1565 36.0539 44.0596 36.9016C43.9628 37.7494 44.0768 38.6079 44.3917 39.4009C45.1676 38.5662 45.744 37.9461 46.3203 37.3261C46.4259 37.4506 46.497 37.6006 46.5264 37.7612C46.5559 37.9218 46.5427 38.0872 46.4881 38.2411C45.4618 40.9714 41.8944 42.9889 44.1269 46.6424C44.1284 46.6449 43.9533 46.7553 43.6537 46.9494C43.2369 45.7866 42.8401 44.6796 42.4259 43.5238C41.1449 46.1679 41.6276 49.1602 43.4567 50.258C42.2395 51.3371 41.726 54.2894 42.5928 55.6717C42.7145 55.8368 42.8742 55.9702 43.0584 56.0605C43.2427 56.1507 43.446 56.1952 43.6511 56.1901C43.8456 56.114 44.0183 55.9908 44.1534 55.8315C44.2886 55.6721 44.3821 55.4817 44.4254 55.2773C44.4973 53.2816 44.4612 51.282 44.4612 49.2836C45.0642 49.804 45.4606 50.5235 45.5782 51.3113C45.8335 53.999 45.9537 56.6995 46.1251 59.3951C46.3822 59.427 46.6394 59.459 46.8966 59.4911C47.39 58.3882 47.8834 57.2852 48.5147 55.8739L48.7092 57.6574L49.9129 56.6683C51.4796 57.6035 51.0562 58.8926 50.8112 60.2093C50.5538 61.5925 49.6658 63.2605 51.5278 64.125C52.2269 64.4496 53.2677 64.0382 54.1527 63.9623C54.3329 64.1435 54.5131 64.3247 54.6933 64.5059C53.8738 64.9321 53.1125 65.4619 52.4281 66.0821C52.0402 66.7436 51.7737 67.4692 51.6413 68.2245C51.8891 68.2982 52.137 68.3718 52.3849 68.4454C52.4648 67.9361 52.6498 67.449 52.9279 67.015C53.6086 66.4484 54.3335 65.9371 55.0957 65.486C55.3793 65.9761 55.6378 66.4802 55.8702 66.9965C56.1377 67.6694 56.3276 68.3731 56.6122 69.2532C57.3766 68.1061 58.1146 67.2248 56.7305 66.1972C56.4913 65.8387 56.3548 65.4215 56.3356 64.991C55.9786 63.9615 55.7379 62.8952 55.6179 61.8122C55.6831 60.8032 55.9223 59.813 56.325 58.8855C56.7398 58.8062 57.1653 58.8001 57.5822 58.8674L57.3123 54.2652C59.6653 53.4148 59.6505 51.4461 59.7545 49.4208C58.6889 49.8078 57.4585 50.6957 56.8787 50.3818C55.1994 49.4727 54.649 50.4752 54.1931 51.5791C53.7951 52.5428 53.8058 53.6686 53.4661 54.665C53.0303 55.9434 53.7047 56.4583 54.7659 57.0392C55.0259 56.0746 55.2486 55.2482 55.4713 54.4216L55.9138 54.4595L56.4398 57.5712C55.5154 58.3451 54.5431 59.0599 53.5287 59.7114C53.3674 59.8519 53.166 59.9379 52.953 59.9572C52.7401 59.9765 52.5264 59.9281 52.3426 59.8189C52.1588 59.7097 52.0141 59.5453 51.9291 59.349C51.8442 59.1528 51.8234 58.9347 51.8697 58.7259C51.9451 57.6186 52.0793 56.516 52.2717 55.4229C52.2771 55.2469 52.2678 55.0707 52.2441 54.8962L51.3676 55.4907V48.1651C50.6791 48.2529 50.0061 48.3387 49.3332 48.4246C49.2216 47.9106 49.089 47.3998 49.0056 46.8813C48.9652 46.5233 48.9437 46.1635 48.9415 45.8032V45.8032ZM71.3646 35.8707C70.8569 35.6826 70.3224 35.5766 69.7813 35.5567C68.5118 35.6623 67.3182 36.205 66.4041 37.0922C65.49 37.9794 64.912 39.1563 64.7686 40.422C64.6808 42.5806 65.3471 44.7024 66.6531 46.4232C69.3627 49.9716 73.658 50.3179 77.7439 50.4747C80.0044 50.5615 83.0807 47.8344 83.5886 46.0044C84.2671 43.5597 81.2147 37.9179 79.0432 37.1451C78.0416 36.9144 76.9918 37.0214 76.0572 37.4492C75.6987 37.5905 75.7288 38.7174 75.5398 39.5901C74.7044 38.921 73.5384 38.5587 73.557 37.0141C73.4802 36.3912 73.3189 35.7816 73.0775 35.2023C72.4633 35.442 71.849 35.6817 71.3646 35.8707V35.8707ZM27.3137 50.3326C24.9363 52.9324 22.8831 55.6343 20.368 57.7999C17.8458 59.9717 14.8631 61.6083 11.9106 63.5949C12.7488 64.0229 13.6364 64.3463 14.5535 64.5579C17.8909 64.7968 21.2424 64.843 24.5786 65.0943C26.6635 65.2513 28.7304 65.649 30.961 65.9603C32.4561 62.8989 32.4607 62.2912 31.2506 59.2929C31.1239 58.6001 31.1129 57.891 31.2182 57.1945C30.7055 56.8987 29.948 56.4617 29.1905 56.0247C29.3443 55.0685 29.4923 54.1483 29.6608 53.1013C27.0162 53.7903 27.4965 51.8945 27.3137 50.3326ZM72.2915 51.9704C72.6063 52.1329 72.9211 52.2954 73.2359 52.4579C69.4446 55.2471 72.1264 58.4532 71.8535 61.7137C74.3347 59.9776 73.7631 57.705 73.9827 55.5139C74.3931 55.9611 74.8035 56.4085 75.164 56.8014C76.6272 55.5607 77.9678 54.3796 79.371 53.2781C79.7349 53.1863 80.1163 53.1901 80.4783 53.2891C80.5103 53.6887 80.4558 54.0906 80.3186 54.4673C79.9833 54.8934 79.6035 55.2824 79.1856 55.6278C79.8456 55.9878 80.5717 56.6945 80.992 56.5445C81.6161 56.2142 82.1647 55.7578 82.6031 55.2043C82.2528 54.8166 81.9825 54.3636 81.8076 53.8713C82.4451 52.9913 83.1841 51.6906 84.0365 51.5683C85.6007 51.3439 86.0271 50.2848 86.5329 49.2719C86.9429 48.2369 87.2603 47.1677 87.4814 46.0767C86.4501 45.8084 85.5662 46.1869 84.7515 47.3853C81.8113 51.7101 78.7701 52.8535 73.6936 51.7189C72.4368 51.3665 71.1601 51.089 69.8704 50.888C69.1675 50.8455 68.476 51.0798 67.9437 51.5407C66.1737 53.2823 66.1234 54.7904 67.5631 57.6922C69.1514 55.7702 70.7215 53.8703 72.2915 51.9704ZM40.1501 52.6169C40.2692 51.711 40.5745 50.9966 40.3531 50.7441C39.892 50.1274 39.2217 49.7001 38.468 49.5425C37.852 49.5258 37.2158 50.2552 36.3374 50.8171C37.0389 50.9505 37.3841 51.0161 37.7226 51.0804C37.4596 55.5185 37.8158 57.3822 39.3166 58.791C39.5899 57.7827 39.8357 56.8759 40.1346 55.7735C42.0159 57.7345 38.9122 59.2679 39.9759 61.0757C40.1793 61.4213 39.3736 62.3605 38.743 63.594L34.4474 56.6609C33.9335 57.2536 33.4749 57.7825 33.0162 58.3115C33.5554 58.6224 34.0664 58.9798 34.5434 59.3797C34.9614 59.7713 35.2825 60.2549 35.4813 60.7921C35.8754 62.0045 34.6847 63.926 37.0768 64.2127C36.9963 66.0413 38.591 65.5846 39.4229 66.1068C39.9022 65.3266 40.3107 64.6618 40.7975 63.8697C41.2983 64.3352 41.6217 64.6359 42.1169 65.0962C42.4768 62.8781 43.6236 60.8926 41.7442 59.0497C41.6502 58.8628 41.634 58.6462 41.6991 58.4474C41.925 57.4224 41.9023 56.3583 41.6328 55.344C41.3633 54.3296 40.8549 53.3945 40.1501 52.6169ZM32.9882 45.8869C32.6002 45.7069 32.2586 45.4405 31.9896 45.108C31.4564 44.1066 30.9782 43.0769 30.5571 42.0235C30.0434 45.4471 29.596 48.4291 29.1431 51.4478C29.9438 51.3462 31.0533 51.2053 32.4648 51.0261C32.0945 51.8081 31.7771 52.614 31.5145 53.4384C31.313 53.99 31.3302 54.5978 31.5625 55.1371C32.0716 55.3986 32.6576 55.469 33.2142 55.3356C33.6298 55.2264 34.0256 55.0529 34.3874 54.8211C33.5515 52.8377 34.3952 50.4945 32.922 48.5446C32.5172 48.0088 32.9405 46.8473 32.9881 45.8869L32.9882 45.8869ZM63.3139 44.6896C62.6541 46.1584 61.5272 47.5998 61.8598 48.1358C62.6964 49.484 61.7706 50.2484 61.5072 51.2414C61.226 52.0305 61.0115 52.8417 60.8657 53.6667C60.7559 54.904 60.8371 56.1582 60.8371 57.4053L61.4367 57.6558C61.9546 57.046 62.4725 56.4363 63.2454 55.5262C64.7465 55.5173 64.9772 53.5066 65.0054 52.4237C65.0694 49.9695 65.2336 47.2973 63.3139 44.6896L63.3139 44.6896ZM57.7407 48.3198L58.2676 48.6827C60.8376 47.6481 61.8767 45.0052 62.6146 42.8604C63.3588 40.6975 62.5889 38.0138 62.4909 35.7566C60.393 37.5406 59.0409 39.8725 60.1828 42.3164C59.2145 44.6967 58.4776 46.5083 57.7406 48.3198L57.7407 48.3198ZM48.8614 34.6674C49.0963 36.6386 49.358 38.8343 49.6197 41.03L50.2089 41.1189C50.6878 40.6692 51.1074 40.1601 51.4573 39.6039C51.8885 38.3191 52.4008 37.0629 52.991 35.8429C53.9263 34.3803 53.4803 33.541 52.4218 32.8181C51.2986 33.4015 50.3241 33.9077 48.8614 34.6674L48.8614 34.6674ZM35.136 33.3422C34.7725 33.3019 34.6702 33.2906 34.5678 33.2792C33.5928 42.3962 33.7265 44.3282 35.5307 46.062V42.3143C35.6844 42.3207 35.8381 42.3271 35.9918 42.3336C36.2679 42.8171 36.544 43.3005 37.0393 44.168C36.3433 40.2092 35.7333 36.7399 35.136 33.3422ZM57.3843 65.4915C59.7339 64.4346 62.3315 60.378 62.2283 57.8761C61.1913 58.8502 60.3052 59.6826 59.4057 60.5277C58.6548 60.3388 57.5767 59.0448 57.41 60.9465C57.2812 62.4148 57.3843 63.9035 57.3843 65.4915ZM62.8245 65.8508C63.874 65.4646 64.8899 64.9928 65.862 64.4399C66.749 63.8315 67.7044 62.7709 66.6536 61.8174C66.2187 61.4489 65.7105 61.1771 65.1626 61.02C64.6147 60.8629 64.0397 60.8241 63.4756 60.9061C62.9067 61.0488 62.6173 62.7115 62.4112 63.7332C62.4311 64.457 62.5708 65.1726 62.8245 65.8508L62.8245 65.8508ZM55.1419 46.3465L55.6874 46.5621L59.4193 41.347C58.2147 41.521 57.3014 41.6529 56.2569 41.8037L55.5091 40.5481C54.1592 42.6224 55.0292 44.5011 55.1419 46.3465ZM76.5829 61.627C74.6134 62.2282 72.7349 62.8017 70.9473 63.3474C71.085 63.4013 71.6026 63.6041 72.1517 63.8194L71.6581 65.8944C73.5209 65.2558 75.0951 64.7163 76.9092 64.0945L76.5829 61.627ZM40.4341 45.5989V36.1068L39.9239 36.0303C39.3661 37.7663 38.806 39.5016 38.2584 41.241C38.2698 41.3391 38.309 41.432 38.3714 41.5087C38.9982 42.7533 39.6262 43.9975 40.4341 45.5989ZM55.234 32.8215L55.5587 35.6139C54.8281 36.5323 54.2347 37.2782 53.6066 38.0678C54.1946 38.4467 54.585 38.6982 55.0976 39.0284C56.0612 37.4703 57.0243 35.9132 58.1032 34.1689C56.8407 34.0567 55.4161 34.6082 55.234 32.8215ZM60.899 64.2332L60.3344 64.2928C60.5049 65.909 60.6754 67.5252 60.8615 69.29C62.9747 68.161 62.9747 68.161 60.8989 64.2332H60.899ZM46.4749 63.646L46.7712 64.2787C47.4115 64.0287 47.9944 63.6513 48.4845 63.1694C48.7931 62.4657 48.9741 61.7127 49.0191 60.9455C49.1745 60.1373 49.3021 59.3238 49.5419 57.9323C48.3485 60.1556 47.4117 61.9008 46.4749 63.646H46.4749ZM84.6611 60.3403C84.473 59.7549 84.2329 59.1875 83.9438 58.6449C83.7971 58.5608 83.6316 58.5147 83.4626 58.5107C83.2935 58.5066 83.1261 58.5449 82.9755 58.6219C81.9985 59.4324 81.0921 60.3279 80.1609 61.1935L80.3229 61.542C81.6492 61.1746 82.9756 60.8072 84.6611 60.3403ZM63.9184 37.0296C65.6328 35.9948 67.2084 35.0436 68.7871 34.0906C67.2392 32.4842 65.3938 33.5891 63.9184 37.0296ZM59.3211 38.0019C60.3631 36.6968 61.23 35.611 62.0968 34.5252C60.6432 35.1759 57.7955 34.6847 59.3211 38.0019V38.0019ZM67.0701 65.3957C65.2191 65.3712 64.1377 66.5619 64.4798 68.0495C64.5196 68.1887 64.5913 68.3167 64.6891 68.4235C64.7869 68.5302 64.9082 68.6127 65.0434 68.6645C65.1871 68.667 65.3292 68.6339 65.4571 68.5683C65.585 68.5027 65.6947 68.4065 65.7764 68.2882C66.2256 67.4071 66.5932 66.4846 67.0701 65.3957V65.3957ZM38.6032 33.5484C36.1789 34.7467 37.6257 36.047 37.6193 37.3018C37.8517 37.3164 38.0841 37.3311 38.3166 37.3458L38.6032 33.5484ZM53.1609 45.5341L52.5033 49.5577C54.3159 48.5384 54.5587 47.5198 53.1609 45.5341ZM64.8302 58.8562C65.0791 58.8716 65.328 58.887 65.5769 58.9024C65.632 58.0047 65.7248 57.106 65.6993 56.2106C65.4274 56.0336 65.1228 55.9127 64.8035 55.8551C64.7328 56.6416 64.6419 57.4271 64.6049 58.2152C64.6401 58.4408 64.7165 58.6581 64.8302 58.8562ZM43.5446 61.9947L43.1096 64.4411C44.0055 64.9311 44.6848 65.3027 45.3641 65.6741L45.7206 65.5752C45.068 64.5015 44.4155 63.4277 43.5446 61.9947ZM41.8809 32.9597C41.7644 32.9871 41.648 33.0144 41.5315 33.0418C41.4067 33.7556 41.3442 34.4789 41.3447 35.2035C41.4954 35.5886 41.7336 35.9334 42.0406 36.2105C42.3897 35.9019 42.6493 35.505 42.7922 35.0615C42.5704 34.3281 42.2646 33.6228 41.8809 32.9597L41.8809 32.9597ZM47.0095 65.8763C47.9333 66.0162 48.7303 66.4009 49.2232 66.1608C50.5553 65.5123 49.8161 64.7866 49.098 64.0492C48.3752 64.6815 47.7417 65.2357 47.0095 65.8763L47.0095 65.8763ZM84.2141 62.9058C83.9796 63.0961 83.7451 63.2864 83.5107 63.4767C84.0407 64.1065 84.5524 64.7545 85.133 65.3335C85.4368 65.1819 85.7222 64.9963 85.9839 64.7801L84.2141 62.9058ZM70.4521 66.787C68.2083 66.4323 67.8384 67.3313 67.8836 69.2219C68.8361 68.319 69.4855 67.7033 70.4521 66.787ZM69.244 57.5425C68.9356 58.4135 68.6272 59.2845 68.2184 60.4389C70.5777 60.0393 70.1926 58.8688 69.244 57.5425L69.244 57.5425ZM66.4338 48.6102L65.7133 48.92C65.9525 49.5532 66.1917 50.1864 66.4309 50.8196C66.7684 50.6304 67.106 50.4411 67.4435 50.2518L66.4338 48.6102Z" fill="#F6AE83"/>
<path d="M75.2699 47.4687C75.909 47.1865 76.5031 46.8119 77.0332 46.3568C78.051 45.182 78.9099 43.871 79.8695 42.6436C80.2167 42.2562 80.5918 41.8947 80.9917 41.562C81.299 42.0289 81.5119 42.5516 81.6183 43.1005C81.5135 46.1874 78.255 48.7467 75.2699 47.4687Z" fill="#F6AE83"/>
<path d="M26.2867 55.2577C27.1654 55.3886 28.6531 55.5507 28.4142 57.1683C28.2758 57.6638 28.0405 58.1269 27.7219 58.5309C27.4033 58.9348 27.0078 59.2715 26.5582 59.5215C25.2698 60.2498 23.5276 57.9971 24.448 56.8302C25.0103 56.2497 25.6259 55.7232 26.2867 55.2577Z" fill="#F6AE83"/>
</svg>
