<svg width="35" height="35" viewBox="0 0 35 35" fill="none" xmlns="http://www.w3.org/2000/svg">
<path d="M33.0533 4.64508C32.3571 4.65425 31.6609 4.62618 30.9676 4.56099C30.3941 4.42431 29.8323 4.2424 29.2875 4.01698C28.7634 3.89375 28.2505 3.72701 27.7542 3.51848C26.7533 2.99433 25.6998 2.57722 24.6114 2.27407C23.9003 2.07277 23.1679 1.92237 22.4697 2.16601C20.5712 2.82856 18.7838 4.72004 18.9853 6.92347C18.9995 7.04547 18.9781 7.16898 18.9236 7.27907C18.6879 7.68722 18.4331 8.08438 18.1827 8.48403C17.1228 10.1761 16.6915 12.0647 16.4479 14.013C16.4264 14.082 16.3941 14.1471 16.3522 14.206C16.0878 13.3266 15.7956 12.4828 15.5833 11.6193C15.2794 10.2147 14.7778 8.86025 14.0933 7.59656C14.0719 7.54253 14.0622 7.48458 14.0649 7.42652C14.0675 7.36847 14.0824 7.31163 14.1086 7.25975C14.4629 6.63943 14.6689 5.94555 14.7105 5.23238C14.7369 4.37081 14.6731 3.53517 13.9287 2.92805C13.0477 2.2095 12.1368 1.55583 10.9812 1.34417C10.5455 1.20584 10.0982 1.10739 9.64464 1.05005C8.09191 1.06284 6.53937 0.971299 5.04208 1.65005C4.00054 2.12217 2.86904 2.40178 1.87312 2.9946C1.74132 3.08983 1.6187 3.19714 1.50684 3.31514C1.64116 3.42574 1.77001 3.54426 1.91273 3.64267C1.97786 3.66915 2.04834 3.6798 2.11838 3.67372C2.76003 3.71936 3.40463 3.73912 4.04284 3.81391C5.10511 3.93838 6.08571 4.26535 6.83044 5.09408C7.61875 5.97126 8.43558 6.82458 9.18976 7.73013C10.0004 8.70357 11.9448 9.3201 13.1532 8.215C13.1865 8.2367 13.2166 8.2629 13.2428 8.29284C13.8501 9.24076 14.294 10.2839 14.5561 11.3788C14.7918 12.3229 14.9168 13.2946 15.0912 14.254C15.2438 15.0931 15.4129 15.9296 15.5453 16.7719C15.6738 17.5899 15.3456 18.343 15.1782 19.1228C14.8294 20.7475 14.0788 22.3095 14.2942 24.0263C14.412 24.965 14.6044 25.8971 14.8153 26.8203C14.942 27.2554 15.0997 27.6808 15.2871 28.0933C14.8112 28.1672 14.3945 28.2129 13.9868 28.3003C13.5689 28.39 13.1598 28.5202 12.7469 28.6332C12.5991 28.6621 12.4542 28.7039 12.3137 28.758C11.9795 28.917 11.6563 29.0989 11.3254 29.265C10.9797 29.4134 10.6422 29.5803 10.3144 29.765C9.41708 30.3454 8.53553 30.9505 7.65555 31.5571C7.53355 31.6486 7.43576 31.7685 7.3707 31.9064C7.32761 32.0036 7.26516 32.091 7.18714 32.1633C7.10913 32.2356 7.0172 32.2912 6.91696 32.3267C6.61181 32.4905 6.35 32.7245 6.15312 33.0094C6.09834 33.0778 6.21744 33.4005 6.33655 33.4705C6.64953 33.6427 6.98024 33.7804 7.32287 33.8813C8.06557 34.1222 8.49324 33.6986 8.43663 33.0906C8.84543 32.8784 9.25572 32.673 9.35776 32.1766C9.38938 31.9589 9.49055 31.7574 9.64615 31.6019C9.80175 31.4465 10.0034 31.3456 10.2211 31.3142L10.35 31.3932C10.258 31.4722 10.1757 31.5617 10.1047 31.6599C9.9597 31.899 9.83884 32.1518 9.74389 32.4148C9.71824 32.4943 9.89254 32.7329 9.93177 32.7232C10.1498 32.6567 10.3619 32.5723 10.566 32.4709C10.7471 32.3922 10.9226 32.297 11.1092 32.2351C11.2727 32.2088 11.4347 32.1736 11.5945 32.1298C11.7732 32.0464 11.8824 32.013 12.0508 32.182C12.2259 32.3578 12.4627 32.2921 12.6485 32.1287C12.7738 32.0185 12.8929 31.9014 13.0108 31.7912C13.7564 32.1895 14.6856 31.8504 15.1509 31.0234C14.7237 30.4163 14.3576 30.2552 13.9079 30.4897C13.7082 30.5938 13.5472 30.7313 13.6698 31.0342C13.8036 30.9129 13.95 30.8062 14.1065 30.716C14.1651 30.6836 14.2296 30.6632 14.2961 30.656C14.3627 30.6488 14.43 30.6549 14.4942 30.6741C14.5584 30.6932 14.6181 30.7249 14.6699 30.7674C14.7216 30.8098 14.7644 30.8622 14.7957 30.9214C14.9505 31.1856 14.7185 31.2966 14.5526 31.4185C14.4425 31.5267 14.3096 31.6089 14.1636 31.659C13.9042 31.6963 13.5519 31.7676 13.3934 31.6368C13.2313 31.503 13.2483 31.1451 13.2005 30.8827C13.1725 30.7287 13.171 30.5698 13.1531 30.3609C13.233 30.2761 13.373 30.1411 13.4965 29.9924C13.6114 29.8543 13.7087 29.7015 13.8619 29.4879C13.8841 30.2766 14.3546 30.5333 14.9676 30.1969C15.1918 30.0391 15.4361 29.9119 15.694 29.8189C16.1177 29.7468 16.5454 29.7009 16.9747 29.6812C17.0544 29.8042 17.1734 29.988 17.2928 30.1717C17.1772 30.3254 17.0612 30.4791 16.9226 30.6628C16.8373 30.5636 16.7675 30.4821 16.6974 30.4008C16.2228 29.8506 15.8027 29.8768 15.3905 30.4758C15.3625 30.507 15.3412 30.5436 15.3279 30.5834C15.2943 30.7886 15.1884 31.0317 15.2617 31.1903C15.3167 31.275 15.3913 31.3452 15.4792 31.395C15.5671 31.4447 15.6657 31.4725 15.7666 31.476C16.1149 31.4214 16.4576 31.3355 16.7904 31.2194C16.967 31.3899 17.1866 31.6021 17.3874 31.7962C16.9243 31.9784 16.8888 32.1567 17.2498 32.7673C17.0385 33.031 16.3398 33.2367 16.0852 33.0739C16.0459 33.0246 16.0201 32.966 16.0102 32.9037C16.0003 32.8415 16.0067 32.7777 16.0287 32.7186C16.0711 32.6758 16.1047 32.6251 16.1275 32.5693C16.1503 32.5135 16.1618 32.4537 16.1615 32.3935C16.1611 32.3332 16.1488 32.2736 16.1254 32.2181C16.102 32.1626 16.0678 32.1122 16.0248 32.0699C15.8716 31.8856 15.657 31.6042 15.4842 31.6145C15.0955 31.6728 14.7162 31.7819 14.3559 31.939C14.3198 31.9513 14.3 32.0628 14.302 32.1273C14.2924 32.3047 14.3379 32.4808 14.4323 32.6313C14.5267 32.7818 14.6655 32.8993 14.8294 32.9677C15.1657 33.0963 15.517 33.1331 15.8669 33.2982C16.1003 33.4066 16.3617 33.4394 16.6146 33.3918C16.8674 33.3442 17.0991 33.2188 17.2771 33.033C17.348 32.9574 17.4789 32.8549 17.5494 32.8757C18.0482 33.0227 18.3705 32.6977 18.7235 32.4633C18.7822 32.4367 18.8333 32.3959 18.8724 32.3446C18.9114 32.2934 18.9371 32.2332 18.9471 32.1696C18.9571 32.106 18.9512 32.0408 18.9298 31.98C18.9085 31.9193 18.8723 31.8647 18.8247 31.8214C18.7026 31.6737 18.5718 31.5333 18.476 31.4248C18.685 31.1272 18.8705 30.863 19.0639 30.5875C19.3231 30.5812 19.5728 30.6119 19.5481 31.0088C19.5632 31.1199 19.6142 31.223 19.6934 31.3023C20.0349 31.7239 20.5226 31.5663 20.8138 31.2045C21.3454 31.1255 21.779 31.0611 22.2552 30.9903C22.0619 31.3734 21.9256 31.6436 21.851 31.7913C21.5029 31.831 21.2408 31.8608 20.9788 31.8907L21.1999 32.6553L21.3371 32.6407C21.2901 32.6879 21.2515 32.7426 21.2228 32.8027C21.1521 33.0626 21.054 33.4038 21.3959 33.4769C21.7001 33.5408 22.0172 33.4858 22.2821 33.3232C22.5079 33.1556 22.5885 32.7925 22.7277 32.5246C22.4475 32.4627 22.0445 32.3418 22.11 31.941C22.2155 31.2963 22.6524 31.759 23.0399 31.8659C22.9183 31.6586 22.8572 31.5546 22.8013 31.4593C23.0177 31.3505 23.234 31.2419 23.4338 31.1415C23.5737 31.2955 23.6654 31.4871 23.6976 31.6926C23.7298 31.8982 23.7011 32.1086 23.6151 32.298C23.5836 32.3664 23.5665 32.4406 23.5648 32.5159C23.5631 32.5911 23.5769 32.666 23.6053 32.7357C23.6337 32.8055 23.6761 32.8686 23.7299 32.9213C23.7837 32.9741 23.8477 33.0152 23.918 33.0421C24.1946 33.1089 24.4851 33.0886 24.7497 32.984C25.0619 32.8726 25.1075 32.5911 24.9747 32.2838C24.9562 32.192 24.9535 32.0976 24.9667 32.0049L25.7455 32.6636C25.4028 32.8675 24.9794 33.0202 24.8987 33.6291C25.1019 33.4326 25.2253 33.3131 25.3476 33.1948C25.7354 33.4723 26.0877 33.4525 26.2821 33.1546C26.5422 32.7558 26.0544 32.8828 25.9222 32.6654C26.5437 32.4886 27.103 32.2523 27.4155 31.6236C27.4885 31.8013 27.5133 31.9951 27.4875 32.1854C27.4584 32.3665 27.4815 32.5521 27.554 32.7206C27.6264 32.8891 27.7454 33.0334 27.8969 33.1368C28.0321 33.2524 28.2019 33.3197 28.3796 33.328C28.5573 33.3363 28.7328 33.2852 28.8782 33.1827C29.1789 33.0069 29.5631 32.8455 29.396 32.3608C29.6452 32.5152 29.869 32.6647 30.1037 32.7946C30.2207 32.847 30.3423 32.8887 30.4668 32.9192C30.4497 32.7567 30.4942 32.516 30.4048 32.4456C30.044 32.1578 29.6575 31.9038 29.2502 31.6868C28.7842 31.4428 28.2884 31.2544 27.8013 31.0522C27.6624 30.9867 27.5123 30.9481 27.359 30.9386C26.6419 30.9619 25.9363 30.7547 25.3457 30.3473C25.2247 30.2792 25.0943 30.2294 24.9587 30.1996C24.2878 29.982 23.6009 29.8038 22.9499 29.5378C22.5503 29.3964 22.1334 29.3099 21.7106 29.2805C21.0058 29.147 20.3118 28.9618 19.6343 28.7263C19.6101 28.7194 19.5953 28.6799 19.5712 28.673C19.3217 28.5902 19.0676 28.5218 18.8102 28.4681C18.4336 28.4066 18.047 28.4028 17.6728 28.3315C17.4263 28.2845 17.1986 28.1456 16.954 28.0786C16.785 28.0426 16.6135 28.0202 16.441 28.0115C16.3863 27.7329 16.332 27.5 16.2959 27.2643C16.1712 26.4485 16.0119 25.6352 15.9441 24.8145C15.8443 24.0601 15.8426 23.296 15.9391 22.5413C16.2288 21.087 16.6665 19.6661 17.2452 18.3008C17.4352 17.8533 17.5759 17.3865 17.6645 16.9085C17.911 15.4227 17.918 13.9056 18.3224 12.4364C18.6241 11.365 19.035 10.3275 19.5485 9.3401C19.6891 9.06518 19.8756 9.00329 20.1913 9.10671C20.6443 9.28094 21.1215 9.3842 21.6061 9.41283C22.514 9.38373 23.3896 9.06845 24.1076 8.512C25.3502 7.64214 26.7011 7.1367 28.2817 7.45811C28.7719 7.54952 29.2765 7.52677 29.7565 7.39163C30.2365 7.2565 30.6789 7.0126 31.0494 6.67886C31.7288 6.11966 32.3115 5.43776 33.166 5.10936C33.2981 5.05861 33.3853 4.89109 33.4932 4.77759C33.3527 4.71537 33.2049 4.67086 33.0533 4.64508ZM11.5678 2.11975C11.6291 2.18861 11.6757 2.26931 11.7046 2.35687C11.7336 2.44442 11.7443 2.53698 11.7361 2.62884C11.7066 3.18431 11.633 3.73747 11.5734 4.32035C11.068 4.13328 10.5836 3.89377 10.1281 3.60576C9.86028 3.39936 9.74928 2.97103 9.60608 2.62633C9.45295 2.2578 9.34458 1.87071 9.20368 1.45323C10.0613 1.49647 10.8771 1.60458 11.5678 2.11975ZM6.61269 1.64078C7.2893 1.5909 7.96547 1.53004 8.64296 1.50363C8.73897 1.49989 8.88416 1.64459 8.93381 1.7537C9.1847 2.30512 9.4115 2.86748 9.6595 3.45625C8.96078 3.17455 8.30336 2.95645 7.6924 2.64677C7.29334 2.40412 6.91564 2.12796 6.5634 1.82128L6.61269 1.64078ZM5.96013 1.77313C6.25192 1.66501 6.46479 1.87593 6.57032 2.31646C5.84827 2.36129 5.12526 2.40618 4.29527 2.45773C4.91422 2.20072 5.43064 1.96926 5.96013 1.77313ZM5.12223 3.43924C4.77557 3.25406 4.28477 3.3284 3.85838 3.3062C3.55138 3.29026 3.24254 3.30987 2.9345 3.3136L2.93689 3.1774C4.19777 2.96123 5.46956 3.05433 6.83364 3.02364C6.08367 3.73376 5.95067 3.88174 5.12224 3.43924H5.12223ZM6.28985 3.98341C7.17302 2.99261 8.06814 3.21659 9.3197 3.96708C8.70275 4.35426 8.1117 4.7252 7.54656 5.07989C7.12523 4.71225 6.71869 4.35756 6.28986 3.98341H6.28985ZM8.28885 5.96241C8.07956 5.70688 7.85404 5.46509 7.6137 5.23852C8.24815 5.24062 8.62434 4.8426 9.03021 4.50243C9.53899 4.07599 9.65309 4.06448 10.2013 4.41836C10.4598 4.58524 10.7188 4.7522 10.9856 4.90509C11.0876 4.95363 11.1943 4.99165 11.3041 5.01855C10.472 5.42376 9.82073 5.71658 9.19443 6.05556C8.84695 6.24365 8.57243 6.35876 8.28886 5.96241H8.28885ZM12.4114 8.01663C11.3427 8.53294 10.4437 8.35285 9.63511 7.46875C9.3833 7.19343 9.11735 6.93106 8.8213 6.62496C9.39501 6.29935 9.8804 5.97321 10.4061 5.73669C11.3284 5.32167 11.7221 5.39218 12.4263 6.25421C12.5634 6.43063 12.685 6.61849 12.7899 6.81572C13.1408 7.43952 13.0539 7.70622 12.4114 8.01663ZM12.762 5.71176C12.7262 5.66927 12.7008 5.61829 12.6664 5.5745C12.4295 5.27303 12.0277 4.99289 11.987 4.66737C11.9365 3.89858 11.9391 3.12722 11.995 2.3588C14.3932 3.33053 14.6892 4.61615 13.727 6.85383C13.3951 6.46139 13.0779 6.08714 12.762 5.71176ZM8.08345 33.4486C7.82912 33.5362 7.56988 33.6088 7.30707 33.6661L7.26367 33.543C7.35962 33.3356 7.45559 33.1281 7.60195 32.8117C7.77612 32.8957 7.94028 32.999 8.09133 33.1197C8.1152 33.1715 8.1269 33.2281 8.12553 33.2851C8.12417 33.3421 8.10977 33.398 8.08345 33.4486ZM8.58939 32.7204C8.54763 32.7386 8.502 32.7461 8.45661 32.7423C8.41123 32.7384 8.3675 32.7234 8.32938 32.6985C8.29681 32.6653 8.27194 32.6255 8.25651 32.5816C8.24109 32.5378 8.2355 32.4912 8.24013 32.4449C8.28983 32.1147 8.82052 31.8991 9.22387 32.139C8.99003 32.3579 8.80067 32.553 8.58939 32.7204H8.58939ZM8.82704 31.4659C9.08859 31.3524 9.30476 31.2586 9.60353 31.129C9.38509 31.5843 9.18043 31.6692 8.82704 31.4659ZM9.93841 32.3867C10.0661 32.2274 10.1939 32.0682 10.3216 31.909C10.3841 31.9871 10.5035 32.0687 10.4989 32.1427C10.4821 32.4164 10.2979 32.5058 9.93839 32.3867H9.93841ZM10.3888 30.9707C10.2246 30.9989 10.029 30.8452 9.84749 30.7735L9.90207 30.5812C10.103 30.5409 10.3081 30.5142 10.5036 30.4558C10.6521 30.4114 10.7847 30.316 10.9313 30.2625C11.0911 30.2031 11.2562 30.1587 11.4242 30.1299C11.4625 30.1236 11.5648 30.2462 11.5568 30.2592C11.4731 30.3937 11.3989 30.5672 11.2717 30.6348C10.9967 30.7921 10.6988 30.9054 10.3888 30.9707H10.3888ZM11.1905 32.0114C10.8968 32.0803 10.7522 31.9519 10.6824 31.6852C11.0556 31.4336 11.3995 31.2018 11.8068 30.9272C11.8317 31.7207 11.7128 31.8889 11.1904 32.0114H11.1905ZM12.3287 31.961C12.2999 31.9772 12.1846 31.839 12.1093 31.7722C12.3043 31.5942 12.4969 31.4132 12.7017 31.2474C12.8027 31.3298 12.8985 31.4185 12.9883 31.5128C12.7267 31.6969 12.5365 31.8446 12.3287 31.961H12.3287ZM13.2938 29.9173C13.0011 30.2301 12.6868 30.5299 12.1686 30.4106C12.228 30.076 11.9441 29.6552 12.5032 29.5103C12.5774 29.5882 12.6571 29.6719 12.7539 29.7735C12.8253 29.68 12.8721 29.5567 12.9385 29.5451C13.0814 29.5352 13.225 29.5427 13.3662 29.5675C13.3444 29.6863 13.3633 29.8431 13.2938 29.9173H13.2938ZM16.3373 31.1423C16.1843 31.2113 16.0232 31.2609 15.8579 31.29C15.73 31.2393 15.6117 31.1671 15.5081 31.0766C15.4775 31.0413 15.6106 30.8753 15.6527 30.7629C15.7002 30.6361 15.69 30.4426 15.7759 30.3861C15.8417 30.3419 15.9167 30.3133 15.9952 30.3024C16.0737 30.2914 16.1537 30.2985 16.2291 30.3229C16.4078 30.4461 16.5485 30.6169 16.6352 30.816C16.6604 30.871 16.4635 31.0626 16.3373 31.1423L16.3373 31.1423ZM14.8066 32.6985C14.8897 32.0535 15.1966 31.6896 15.5438 31.8661C15.6449 31.9365 15.7287 32.029 15.7887 32.1367C15.8487 32.2443 15.8833 32.3643 15.8899 32.4873C15.8866 32.8058 15.323 32.9067 14.8066 32.6985L14.8066 32.6985ZM22.1303 33.0785C22.0164 33.1501 21.8962 33.211 21.7712 33.2605C21.7053 33.28 21.5655 33.249 21.5544 33.2121C21.542 33.1706 21.5395 33.1267 21.5469 33.084C21.5544 33.0413 21.5717 33.0009 21.5974 32.966C21.9056 32.7168 21.7596 32.5766 21.4957 32.4483C21.3592 32.382 21.2259 32.3091 21.0912 32.2391L21.2726 32.0363C22.0467 31.9552 21.7412 32.8001 22.1303 33.0785ZM27.8058 32.1919C27.9526 32.2193 28.0717 32.2416 28.2067 32.2668C28.2864 31.952 28.4784 31.8706 28.7848 31.985C28.9153 32.0159 29.029 32.096 29.1021 32.2085C29.1753 32.321 29.2023 32.4573 29.1776 32.5892C29.1102 32.7425 28.9967 32.8709 28.8528 32.9565C28.7089 33.0422 28.5419 33.0808 28.3751 33.067C28.2786 33.0501 28.1867 33.0134 28.105 32.9595C28.0233 32.9055 27.9536 32.8353 27.9002 32.7532C27.8468 32.6711 27.8109 32.5789 27.7947 32.4824C27.7784 32.3858 27.7822 32.2869 27.8058 32.1919ZM26.0755 31.4641C26.1342 31.4065 26.2053 31.3631 26.2835 31.3374C26.3616 31.3117 26.4446 31.3043 26.526 31.3157C26.7218 31.352 26.8969 31.4604 27.0167 31.6195C27.0612 31.6926 26.8861 31.9558 26.7548 32.0677C26.4625 32.3166 26.1367 32.5309 25.6579 32.2551C25.774 31.9799 25.9138 31.7152 26.0755 31.4641H26.0755ZM24.1803 30.6993C24.4734 30.4089 24.7484 30.6341 25.0118 30.7247C25.0893 30.7514 25.1319 30.9666 25.1355 31.0969C25.1453 31.2361 25.1085 31.3746 25.031 31.4907C24.9356 31.596 24.8032 31.6605 24.6615 31.6707C24.4419 31.6482 24.2252 31.6025 24.0152 31.5345C23.776 31.2625 23.8957 30.9813 24.1803 30.6993H24.1803ZM24.2488 32.1017C24.4706 32.3003 24.6285 32.4417 24.7864 32.5832C24.6382 32.6876 24.472 32.894 24.3461 32.8718C24.1695 32.8407 24.0229 32.6395 23.8635 32.511C23.9687 32.3993 24.0738 32.2876 24.2488 32.1017H24.2488ZM22.4102 30.6324C22.4625 30.4484 22.5395 30.2723 22.6393 30.1091C23.0323 30.1276 23.4047 30.4661 23.3143 30.6846C23.2682 30.7908 23.1995 30.8856 23.1131 30.9626C23.0267 31.0396 22.9246 31.0969 22.8139 31.1306C22.534 31.1723 22.3617 30.9175 22.4102 30.6324ZM20.9682 29.7919C21.3525 30.3407 21.5773 30.0616 21.7657 29.7131C22.1506 30.139 22.2002 30.4094 21.9275 30.6762C21.8352 30.8037 21.697 30.8904 21.542 30.9181C21.387 30.9457 21.2273 30.9121 21.0966 30.8244C20.7625 30.5746 20.8988 30.2226 20.9682 29.7919H20.9682ZM19.9764 31.3616C19.9039 30.8918 20.0721 30.7529 20.3215 30.7477C20.3951 30.7461 20.4728 30.9386 20.5486 31.0421C20.3734 31.14 20.1981 31.2379 19.9765 31.3616H19.9764ZM18.9764 29.7761C19.017 29.8728 19.0575 29.9696 19.1299 30.142C19.1714 30.0579 19.2039 29.9697 19.2269 29.8787C19.2579 29.5143 19.5163 29.2188 19.8169 29.2565C19.8943 29.2584 19.9705 29.276 20.0409 29.3083C20.1112 29.3407 20.1743 29.387 20.2261 29.4445C20.278 29.502 20.3175 29.5695 20.3424 29.6428C20.3673 29.7161 20.377 29.7937 20.3709 29.8709C20.3638 29.9363 20.3415 29.9992 20.3058 30.0544C20.27 30.1096 20.2218 30.1557 20.1649 30.1889C19.7785 30.3372 19.3641 30.5979 19.0067 30.1326C18.9473 30.0336 18.8998 29.9278 18.8652 29.8176L18.9764 29.7761ZM14.8164 23.2983C14.8812 22.335 15.1327 21.3934 15.5568 20.526C15.5957 20.4443 15.6275 20.3594 15.6518 20.2722C15.6686 20.2798 15.6862 20.2853 15.7043 20.2886C15.3346 21.7438 15.0783 23.2254 14.9378 24.7202C14.9271 24.8373 14.9057 25.0864 14.8918 25.3949C14.7763 24.7022 14.751 23.9975 14.8164 23.2983ZM15.3585 28.7581C15.3542 29.1187 15.0564 28.8449 14.9031 28.8842C14.6906 28.9386 14.4776 28.9911 14.2185 29.0561C14.46 28.4782 14.8828 28.5468 15.3585 28.7581ZM14.2234 30.0265C14.3136 29.8961 14.3863 29.8068 14.4416 29.7077C14.5281 29.5526 14.5813 29.2758 14.687 29.256C14.9054 29.2152 15.1907 29.2249 15.289 29.5365C15.3123 29.5907 15.3406 29.6426 15.3733 29.6917C15.0346 29.9814 14.7094 30.2602 14.2234 30.0265V30.0265ZM18.5309 31.8316C18.6322 31.8882 18.694 32.0155 18.8001 32.1433C18.6879 32.3109 18.5337 32.4462 18.3529 32.5357C18.1721 32.6251 17.971 32.6656 17.7696 32.653C17.6218 32.6322 17.4849 32.5633 17.38 32.457C17.3209 32.3953 17.3592 32.2403 17.3537 32.1273C17.4514 32.1286 17.5489 32.1369 17.6453 32.1521C17.8371 32.2148 18.0402 32.2348 18.2405 32.2107L17.8367 31.9584C17.9094 31.8633 17.9811 31.6902 18.0549 31.6893C18.223 31.6961 18.3866 31.7451 18.5309 31.8316V31.8316ZM17.9939 31.3741C17.7849 31.4593 17.5937 31.5304 17.4584 31.2854C17.3766 31.1371 17.227 30.9193 17.2781 30.8264C17.4049 30.6099 17.5847 30.4291 17.8005 30.3011C17.9715 30.2073 18.1709 30.1794 18.3611 30.2225C18.5215 30.2647 18.6459 30.4438 18.7336 30.5182C18.7102 30.7186 18.6272 30.9073 18.4953 31.0599C18.3634 31.2125 18.1887 31.322 17.9939 31.3741ZM17.2763 29.4562L17.565 29.5237C17.5693 29.4349 17.5926 29.3481 17.6332 29.2691C17.6738 29.1901 17.7309 29.1206 17.8005 29.0654C17.8701 29.0102 17.9508 28.9705 18.037 28.949C18.1232 28.9274 18.213 28.9246 18.3004 28.9406C18.3611 28.9628 18.4163 28.9979 18.4621 29.0435C18.508 29.089 18.5434 29.144 18.566 29.2046C18.5986 29.353 18.6039 29.5061 18.5815 29.6564C18.5785 29.7218 18.549 29.8383 18.5196 29.8422C18.1964 29.9047 17.8675 29.9319 17.5385 29.9232C17.415 29.9124 17.3112 29.6767 17.1984 29.5435C17.2244 29.5144 17.2503 29.4853 17.2763 29.4562ZM16.6657 28.8264L16.7336 28.7061C16.842 28.8126 16.9345 28.934 17.0083 29.0668C17.0104 29.1181 16.9993 29.1691 16.976 29.2148C16.9527 29.2606 16.9181 29.2996 16.8754 29.3282C16.6012 29.4627 16.308 29.5543 16.006 29.5998C15.8647 29.6113 15.6621 29.421 15.5747 29.2712C15.54 29.2117 15.7171 28.9376 15.8425 28.896C16.1134 28.8414 16.3896 28.818 16.6657 28.8264ZM16.1523 17.7534C15.9731 16.5331 15.7939 15.3128 15.6146 14.0926L15.8268 14.0634C15.9816 15.2871 16.1364 16.5108 16.2913 17.7345L16.1523 17.7534ZM30.2717 4.95142L27.955 4.97951L27.9562 4.86026C28.3237 4.69846 28.7233 4.62257 29.1245 4.63836C29.5257 4.65416 29.9181 4.76122 30.2717 4.9514V4.95142ZM28.3814 4.29531C28.0431 4.51414 27.6837 4.69839 27.3085 4.84527C26.9582 4.914 26.5994 4.92793 26.2449 4.88657C25.7993 4.86907 25.355 4.81727 24.8725 4.77718C25.4037 4.38545 26.0665 4.1118 26.0995 3.3333C26.9218 3.67998 27.6882 4.00304 28.3814 4.29531ZM24.6234 2.7622C24.8034 2.7888 24.978 2.84409 25.1405 2.92597C25.3449 3.04326 25.668 3.20245 25.6753 3.35621C25.6721 3.49134 25.6408 3.62434 25.5835 3.74678C25.5263 3.86922 25.4442 3.97845 25.3426 4.06756C24.7628 4.56041 24.0645 4.89364 23.3167 5.0344C22.7387 5.17848 22.1747 5.37386 21.6314 5.61823C21.5298 5.65454 21.4249 5.68193 21.3216 5.71343L21.1969 5.60447C21.49 5.2264 21.7653 4.83272 22.0804 4.47406C22.5191 3.97473 22.9978 3.51067 23.4401 3.01437C23.7818 2.63093 24.1966 2.6784 24.6234 2.7622ZM24.7438 5.45862C23.4572 5.57082 22.2037 5.92759 21.0508 6.50979C22.1941 5.85968 23.3393 5.2069 24.7438 5.45863V5.45862ZM16.8397 17.922L16.5644 17.8681C16.7194 16.3464 16.7487 14.7976 17.0684 13.3113C17.3351 12.0715 17.9424 10.9049 18.4689 9.72853C17.6094 12.3964 17.4056 15.1983 16.8397 17.922ZM18.2162 9.30588C18.4967 8.8482 18.7772 8.39051 19.0578 7.93283L19.2067 8.02738C19.0516 8.56425 18.6973 9.02158 18.2162 9.30588ZM19.4867 6.99499C19.2612 5.08117 21.502 2.60188 23.332 2.77497C22.7139 3.42019 22.1217 3.98481 21.5976 4.60689C21.3362 4.97333 21.1109 5.36419 20.9248 5.77402C20.8932 5.83136 20.9152 5.93567 20.8737 5.96735C20.4294 6.30586 19.9772 6.63411 19.4867 6.99499ZM20.1489 8.43111C20.5349 7.96831 20.8995 7.5313 21.2174 7.15021C22.0822 7.47798 22.8782 7.77976 23.6818 8.08439C22.9281 8.94607 21.1021 9.14134 20.1489 8.43111ZM24.3827 7.82149C24.2577 7.866 24.1212 7.8666 23.9958 7.82318C23.4286 7.66033 22.8603 7.49707 22.3055 7.29751C22.0485 7.16974 21.8044 7.01774 21.5763 6.84356C21.826 6.71705 22.0823 6.6041 22.3441 6.50519C22.8185 6.34944 23.3008 6.21899 23.7891 6.1144C24.5916 5.95844 25.2296 6.30334 25.7116 7.08037C25.2703 7.32987 24.8339 7.59005 24.3827 7.82149ZM26.4175 6.91904C26.2267 6.89452 26.0476 6.81354 25.9031 6.68649C25.6075 6.44903 25.3404 6.17606 25.0642 5.92025C25.953 5.82246 26.8831 5.58175 27.7204 6.1591C27.9578 6.38022 28.165 6.63168 28.3367 6.90697C27.6137 6.91573 27.0147 6.94107 26.4175 6.91904ZM29.209 7.032C29.1154 7.04117 29.0208 7.02946 28.9322 6.99772C28.8436 6.96598 28.7632 6.915 28.6967 6.84843C28.4363 6.51737 28.1947 6.17199 27.9729 5.81391C29.118 5.74412 30.197 5.67832 31.2761 5.61255C30.7772 6.31583 30.0446 6.81891 29.209 7.032Z" fill="#41B37E"/>
<path d="M16.666 28.8264C16.6622 28.8331 16.6611 28.8352 16.666 28.8264V28.8264Z" fill="#41B37E"/>
<path d="M20.5333 32.7804C20.5415 33.0613 20.0771 33.4705 19.7432 33.4766C19.405 33.4828 19.1518 33.1771 19.1485 32.7583C19.1454 32.3732 19.3713 32.021 19.6215 32.0206C19.8418 32.0067 20.0591 32.0777 20.2286 32.2191C20.3982 32.3604 20.5072 32.5612 20.5333 32.7804ZM20.1027 32.386C19.9849 32.6508 19.8964 32.85 19.8078 33.0492L19.6975 33.0593L19.6516 32.275C19.5875 32.3189 19.5333 32.3757 19.4925 32.4417C19.4517 32.5078 19.4252 32.5816 19.4146 32.6586C19.404 32.7355 19.4096 32.8138 19.431 32.8884C19.4525 32.963 19.4893 33.0323 19.5391 33.0919C19.6162 33.1893 19.9531 33.1638 20.1232 33.087C20.4228 32.9517 20.3222 32.7076 20.1027 32.386Z" fill="#41B37E"/>
</svg>
