<svg width="98" height="190" viewBox="0 0 98 190" fill="none" xmlns="http://www.w3.org/2000/svg">
<path d="M72.3949 134.656C68.4429 129.475 63.8712 124.811 59.7223 119.788C57.9058 117.588 55.5221 115.343 55.0666 112.612C54.3355 107.706 54.2684 102.723 54.8669 97.7982C55.6202 90.8253 53.2225 87.2528 46.4534 86.4565C45.8619 86.3336 45.3163 86.0485 44.8777 85.6331C44.439 85.2177 44.1247 84.6884 43.9697 84.1045C43.8309 75.6969 44.014 67.2398 44.0124 58.8097C44.0112 51.6912 43.9437 44.582 43.8098 37.4822C43.6374 28.2735 43.3721 19.0795 43.1468 9.8792L43.4824 9.81634C43.4545 7.29135 43.2801 4.77011 42.9601 2.26532C42.4476 1.32936 41.6944 0.547297 40.7784 0C40.0192 0.921603 39.4526 1.98615 39.1122 3.13062C39.0683 9.65674 39.1999 16.1614 39.3742 22.6564C39.6354 32.3947 40.1246 42.0972 40.247 51.8561C40.3792 62.4144 40.1527 73.0271 40.2002 83.5991C40.2096 85.7034 39.7159 86.7139 37.4182 86.9845C35.8748 87.0162 34.3906 87.5838 33.2199 88.59C32.0491 89.5962 31.2648 90.9782 31.0015 92.4993C30.874 97.1845 31.0004 101.873 31.3801 106.545C31.6271 108.232 31.4148 109.954 30.7656 111.53C27.5511 116.604 23.84 121.398 20.5138 126.415C10.5515 141.441 17.1587 157.908 31.2348 163.158C36.4025 164.926 41.776 166.023 47.2232 166.422C56.0062 167.271 64.118 165.218 70.3952 156.567C74.4638 150.96 76.0978 139.51 72.3949 134.656ZM35.879 93.1158C36.4323 92.2662 37.1822 91.5626 38.0652 91.0645C38.3605 91.0658 38.6514 91.137 38.9139 91.2723C39.1764 91.4077 39.4031 91.6033 39.5754 91.8432C40.2473 92.7892 40.8627 93.774 41.4185 94.7925C42.3934 93.6943 43.3686 92.5962 44.344 91.4983C44.576 91.2377 44.8143 90.983 45.0822 90.69C45.7305 90.65 46.3799 90.7507 46.9857 90.9852C47.7032 91.6303 48.3495 92.3505 48.9136 93.1334C48.2862 93.9122 47.4898 94.5379 46.5846 94.9631C43.341 95.0477 40.0952 94.9592 36.8611 94.6978C36.5715 94.5453 36.3278 94.3182 36.1552 94.0401C35.9825 93.762 35.8872 93.4429 35.879 93.1157L35.879 93.1158ZM36.6846 99.0841C40.9708 99.3355 45.2533 99.6061 49.6473 99.8789C47.9783 100.527 46.4924 101.103 45.0066 101.68C46.3953 102.519 47.7839 103.358 49.286 104.265C48.2994 105.769 44.1305 103.044 44.7363 107.378C38.1529 108.379 35.4628 106.063 35.4672 99.2827C35.8661 99.1796 36.2736 99.1131 36.6846 99.0841V99.0841ZM42.071 125.76C41.6908 125.763 41.3019 125.774 40.911 125.787C41.4928 120.676 40.0888 115.275 38.9385 110.382C39.3247 110.328 39.6854 110.255 40.0811 110.214C40.7844 110.088 41.5 110.045 42.2133 110.086C43.0041 110.082 43.7939 110.144 44.5742 110.272C44.5262 110.34 44.4873 110.415 44.4585 110.493C43.0755 115.473 42.2743 120.596 42.071 125.76L42.071 125.76ZM66.1256 155.752C62.6429 159.588 57.8088 161.925 52.639 162.272C46.3966 162.575 40.1528 161.701 34.2335 159.696C21.3376 155.72 15.4253 141.216 24.7489 127.634C28.3021 122.458 31.8902 117.304 35.5133 112.171C35.5983 111.818 35.7794 111.495 36.0367 111.238C36.2939 110.981 36.6172 110.801 36.9708 110.716C36.9735 110.729 36.9688 110.74 36.972 110.754C38.3577 115.358 39.0314 120.148 38.9696 124.956C38.9498 125.203 38.9157 125.505 38.8745 125.827C35.7981 125.864 32.0821 126.032 31.3367 129.386C30.8193 131.714 31.6987 135.436 34.5444 135.508C37.9258 135.595 39.8463 130.746 40.5016 128.112C40.5253 128.017 40.5321 127.918 40.5541 127.823C41.0731 127.805 41.5918 127.773 42.1112 127.768C42.3665 132.401 43.8324 136.022 47.8611 135.707C50.8151 135.476 51.3909 132.947 50.5138 130.503C50.108 129.183 49.2956 128.025 48.1924 127.193C47.0893 126.362 45.7517 125.9 44.3707 125.874C44.3687 125.807 44.3641 125.755 44.3624 125.686C44.2832 120.724 44.9661 115.78 46.3872 111.025C46.4075 110.935 46.4149 110.843 46.409 110.752C47.7663 111.243 48.9318 112.155 49.7365 113.353C50.1183 113.938 50.4495 114.555 50.7268 115.196C53.2359 118.228 55.4103 120.876 57.6261 123.45C60.9372 127.296 64.5482 130.891 67.5813 134.959C68.9444 136.96 69.699 139.313 69.7539 141.734C70.2926 146.693 69.0024 151.677 66.1256 155.752V155.752ZM38.5047 127.902C38.3025 129.159 37.7984 130.347 37.0356 131.366C34.3501 133.557 33.0991 133.357 33.2825 130.767C33.819 129.868 34.5859 129.128 35.5039 128.625C36.422 128.121 37.4579 127.871 38.5047 127.902V127.902ZM44.5849 127.913C46.0327 128.289 47.3049 129.156 48.1838 130.367C45.7967 129.874 44.9248 129.318 44.5848 127.913L44.5849 127.913Z" fill="#D2D4A9"/>
<path d="M8.34929 168.704C9.01286 168.932 9.60934 169.321 10.085 169.837C10.1725 170.197 10.1786 170.571 10.103 170.933C10.0274 171.295 9.87193 171.636 9.64793 171.931C7.56655 174.638 5.45101 177.336 3.16379 179.873C1.85915 181.321 0.439108 181.416 0.0212483 179.357C-0.408752 177.238 5.80127 169.041 8.34929 168.704Z" fill="#D2D4A9"/>
<path d="M87.1602 158.966C90.6566 158.403 97.3799 164.86 97.2309 168.638C92.1819 168.012 86.9454 162.983 87.1602 158.966Z" fill="#D2D4A9"/>
<path d="M29.0854 183.98C29.1701 182.365 29.3832 180.76 29.7225 179.178C30.036 178.322 30.6581 177.613 31.467 177.192C31.9411 177.264 32.3899 177.453 32.7728 177.741C33.1557 178.03 33.4606 178.41 33.66 178.846C33.5116 181.971 33.1516 185.082 32.5824 188.158C32.1105 188.904 31.4757 189.534 30.7256 190C30.1682 189.607 29.7185 189.08 29.4178 188.468C29.2229 186.98 29.1119 185.481 29.0854 183.98V183.98Z" fill="#D2D4A9"/>
<path d="M67.0105 175.926C68.0505 176.37 68.9616 177.069 69.6594 177.959C70.4001 180.17 70.9243 182.448 71.2245 184.76C71.1911 185.072 71.0903 185.372 70.9292 185.641C70.7681 185.909 70.5504 186.14 70.2914 186.316C69.9425 186.375 69.5843 186.349 69.2476 186.24C68.9109 186.131 68.6055 185.942 68.3577 185.69C67.3009 182.857 66.453 179.921 65.5352 177.02L67.0105 175.926Z" fill="#D2D4A9"/>
</svg>
