<svg width="262" height="262" viewBox="0 0 262 262" fill="none" xmlns="http://www.w3.org/2000/svg">
<path d="M228.315 6.65863C227.576 6.19806 226.819 5.76555 226.119 5.3529C225.78 5.80061 225.372 6.19212 224.912 6.51306C222.789 7.49011 220.615 8.35725 218.48 9.30771C215.224 10.7565 211.978 12.227 208.742 13.7192C207.001 14.5253 205.316 15.4498 203.573 16.2496C202.687 16.656 201.705 16.8488 200.809 17.2365C198.861 18.0791 196.951 19.0064 195.007 19.8591C192.605 20.9132 190.175 21.9024 187.777 22.9656C185.905 23.7955 184.078 24.7254 182.205 25.5542C180.897 26.1332 179.533 26.5857 178.219 27.1541C177.38 27.517 176.607 28.0296 175.773 28.4032C173.221 29.545 170.67 30.6913 168.082 31.7463C167.735 31.9387 167.347 32.0419 166.95 32.0465C166.554 32.0512 166.163 31.9571 165.813 31.7727C164.614 31.1167 163.288 30.726 161.925 30.6271C160.264 30.5238 158.596 30.5718 156.943 30.7706C153.811 32.1947 150.8 33.8736 147.942 35.7905C146.452 36.7888 145.066 37.9341 143.805 39.2093C142.585 40.4872 141.576 41.9428 140.438 43.2899C137.792 46.1389 134.495 48.3034 130.828 49.5979C128.252 50.6878 125.542 51.4264 122.769 51.794C122.879 51.9086 122.991 52.0219 123.107 52.131C123.24 52.2554 123.382 52.3709 123.53 52.4767C124.444 52.6776 125.377 52.7722 126.313 52.7585C129.104 52.5988 131.802 51.6946 134.125 50.1397C135.828 48.8984 137.424 47.5156 138.895 46.006C141.88 42.9437 145.167 40.1912 148.706 37.7904C149.872 37.0364 151.215 36.5502 152.361 35.7699C154.343 34.4092 156.693 33.6872 159.097 33.7009C160.155 33.6943 161.217 33.6645 162.268 33.7583C162.956 33.8709 163.634 34.0385 164.296 34.2597C164.235 34.6453 164.049 35.0005 163.768 35.2714C163.487 35.5422 163.125 35.7139 162.737 35.7604C161.066 36.0364 159.469 36.6541 158.047 37.5749C156.135 38.6129 154.336 39.8479 152.68 41.2597C150.472 43.3606 148.625 45.8105 147.214 48.5114C146.54 49.9318 145.964 51.4027 145.221 52.7848C144.175 54.7307 143.023 56.6198 141.902 58.5249C140.715 60.6176 138.786 62.189 136.496 62.9285C135.1 63.388 133.63 63.6283 132.25 64.1255C129.442 65.1372 126.658 66.2127 123.897 67.352C123.164 67.5803 122.459 67.8892 121.794 68.2729C123.256 68.209 124.716 68.1218 126.174 67.9943C127.103 67.9066 128.024 67.7516 128.93 67.5307C132.239 66.4303 135.602 65.4865 138.913 64.387C141.198 63.8119 143.21 62.4541 144.598 60.5496C146.025 58.2825 147.126 55.8088 148.356 53.4182C148.994 51.9438 149.73 50.5138 150.558 49.1377C151.908 47.2084 153.594 45.5154 154.97 43.6022C156.584 41.6378 158.734 40.186 161.16 39.4242C161.293 39.3605 161.438 39.3262 161.585 39.3239C161.732 39.3215 161.878 39.3511 162.013 39.4105C162.091 39.5403 162.14 39.6858 162.154 39.8365C162.169 39.9872 162.15 40.1393 162.099 40.2818C161.488 42.2613 160.775 44.2076 159.962 46.113C158.819 48.4852 157.868 50.9455 157.119 53.4701C156.201 56.6885 155.125 59.8644 154.035 63.0305C153.162 65.5676 152.156 68.0583 151.23 70.5779C150.458 72.6816 149.704 74.792 148.968 76.9091C148.372 78.6331 147.847 80.3816 147.245 82.1035C146.707 83.6446 146.069 85.1512 145.542 86.6961C144.587 89.5006 143.668 92.3182 142.758 95.1378C141.916 97.7421 141.108 100.357 140.273 102.964C140.194 103.116 140.088 103.252 139.961 103.368C138.752 104.823 137.486 106.234 136.35 107.744C135.2 109.275 134.135 110.875 133.119 112.498C132.68 113.212 132.358 113.992 132.166 114.809C131.906 116.652 131.518 118.475 131.005 120.265C130.473 122.258 130.369 124.341 130.698 126.378C130.893 128.373 131.222 130.354 131.684 132.305C131.833 133.206 131.896 134.121 131.998 135.03L131.685 135.152C130.668 134.054 129.622 132.981 128.646 131.848C128.559 131.702 128.437 131.579 128.291 131.491C128.145 131.403 127.979 131.353 127.809 131.344C127.639 131.334 127.469 131.367 127.314 131.439C127.16 131.511 127.025 131.619 126.922 131.755C125.308 133.875 124.441 136.469 124.456 139.134C124.424 139.313 124.437 139.498 124.495 139.671C124.554 139.843 124.655 139.999 124.79 140.121C124.925 140.244 125.089 140.33 125.266 140.372C125.444 140.414 125.629 140.41 125.804 140.36C126.529 140.239 127.248 140.08 127.956 139.884C129.257 139.514 130.545 139.099 132.082 138.628C131.96 139.635 131.892 140.427 131.763 141.209C131.564 143.247 130.716 145.168 129.343 146.687C126.317 149.639 123.165 152.468 119.96 155.227C118.898 155.972 117.759 156.601 116.563 157.104C115.387 155.379 114.688 153.374 114.537 151.292C114.184 149.743 113.707 149.387 112.46 150.384C110.349 152.074 108.338 153.891 106.324 155.698C105.545 156.397 105.714 157.094 106.748 157.395C107.569 157.589 108.404 157.714 109.245 157.768C110.677 157.932 112.112 158.07 113.546 158.218L113.57 158.601C111.342 159.77 109.047 160.826 106.903 162.132C103.371 163.94 99.9829 166.019 96.7708 168.349C96.3334 168.707 95.8567 169.013 95.3499 169.263C95.0877 169.409 94.7852 169.466 94.4876 169.426C94.1901 169.386 93.9135 169.251 93.6992 169.041C92.5481 167.785 91.8646 166.171 91.7636 164.47C91.7346 164.03 91.5757 163.609 91.307 163.259C90.726 163.102 90.1063 163.181 89.5837 163.48C88.5328 164.406 87.5821 165.439 86.7474 166.564C85.7688 167.892 84.9553 169.343 84.0978 170.757C83.7336 171.358 83.7037 171.928 84.5821 172.076C85.3026 172.219 86.0343 172.298 86.7687 172.313C88.1767 172.297 89.5837 172.191 90.9911 172.122C84.4415 176.738 80.9573 183.837 76.3065 190.167C76.0297 189.87 75.7803 189.548 75.5612 189.206C75.0372 188.139 74.5808 187.038 74.0363 185.982C73.962 185.823 73.8534 185.683 73.7184 185.571C73.5834 185.458 73.4253 185.378 73.2554 185.334C73.0595 185.355 72.8711 185.42 72.7048 185.526C72.5385 185.631 72.3988 185.774 72.2965 185.942C71.5937 187.739 70.971 189.568 70.3424 191.393C70.0307 192.504 69.6621 193.597 69.2383 194.67C68.972 195.243 68.5161 195.83 69.0753 196.242C69.3386 196.313 69.6134 196.332 69.8839 196.297C70.1545 196.262 70.4154 196.174 70.6518 196.037C71.9144 195.483 73.13 194.821 74.3644 194.201L74.6992 194.456C74.4529 195.587 74.2546 196.73 73.9481 197.844C73.4477 199.234 73.0201 200.649 72.6669 202.083C72.0674 207.048 70.9322 211.933 69.2812 216.654C68.4685 218.699 67.4699 220.67 66.5557 222.675L66.155 222.785C65.6663 222.058 65.1324 221.358 64.6986 220.6C63.8831 219.176 63.1373 217.711 62.338 216.277C62.0045 215.679 61.5632 215.729 61.1777 216.231C60.5948 216.933 60.0602 217.673 59.5776 218.448C58.5658 220.221 57.6106 222.028 56.6841 223.848C56.4826 224.361 56.334 224.893 56.2406 225.437C56.8753 225.569 57.5174 225.664 58.1634 225.72C58.5714 225.734 58.9924 225.448 59.3974 225.472C60.4415 225.532 61.4801 225.69 62.5209 225.808L62.5189 226.16C62.2843 226.289 62.0421 226.403 61.7936 226.502C60.3692 226.9 58.9657 227.37 57.5887 227.91C54.5395 229.287 51.491 230.689 48.5598 232.296C47.0664 233.166 45.7016 234.24 44.5046 235.486C41.482 238.839 39.0075 242.648 37.1722 246.772C35.7771 249.489 34.6502 252.347 33.4808 255.174C33.4136 255.405 33.405 255.648 33.4555 255.883C33.5061 256.117 33.6144 256.335 33.7705 256.518C34.4388 256.925 34.7556 256.289 34.9612 255.744C35.4123 254.546 35.8039 253.324 36.2797 252.136C37.5738 248.677 39.2052 245.353 41.1503 242.212C42.768 239.249 44.9101 236.604 47.4724 234.406C50.0416 232.492 52.8672 230.949 55.8662 229.822C58.8408 228.715 61.8919 227.812 64.7079 226.886C65.8418 228.16 66.9211 229.478 68.1194 230.679C68.2864 230.833 68.491 230.942 68.7127 230.993C68.9345 231.045 69.1659 231.038 69.3841 230.972C69.6023 230.907 69.7996 230.786 69.9568 230.621C70.1139 230.457 70.2254 230.254 70.2801 230.033C71.0078 228.285 71.8256 226.576 72.7302 224.912C73.4289 223.659 74.3838 222.55 75.1718 221.342C75.2577 221.203 75.3093 221.045 75.3224 220.882C75.3355 220.72 75.3097 220.556 75.2472 220.405C74.9585 220.18 74.6039 220.055 74.2378 220.051C73.9931 220.083 73.7565 220.16 73.5401 220.278C71.9828 220.778 70.4245 221.274 68.6205 221.85C68.7119 221.428 68.8249 221.01 68.9589 220.598C69.9222 218.184 71.1045 215.835 71.8199 213.351C72.6434 210.49 73.0566 207.512 73.6513 204.586C73.9428 203.152 74.2133 201.712 74.5471 200.288C74.7794 199.297 75.0872 198.322 75.3907 197.348C75.6668 196.464 75.9826 195.591 76.3794 194.423C77.4323 195.458 78.2719 196.245 79.0661 197.076C79.6714 197.709 80.1642 198.458 80.8101 199.041C80.9332 199.136 81.0793 199.196 81.2335 199.216C81.3877 199.236 81.5444 199.215 81.6875 199.154C81.8306 199.093 81.9551 198.996 82.048 198.871C82.141 198.747 82.1991 198.599 82.2164 198.445C82.3161 197.785 82.3654 197.117 82.3639 196.45C82.0796 193.955 82.4214 191.428 83.3584 189.098C83.3611 188.58 83.2281 188.07 82.9727 187.619C82.5292 187.706 82.1047 187.87 81.7187 188.106C80.6412 189.105 79.3524 189.849 77.948 190.282C78.6966 188.855 79.5275 187.472 80.4364 186.141C81.6578 184.376 83.0902 182.746 84.1932 180.914C86.4144 177.542 89.3337 174.687 92.7535 172.542C93.7318 174.182 94.6823 175.772 95.6289 177.364C95.9779 178.047 96.3727 178.705 96.8105 179.335C96.9092 179.46 97.0366 179.559 97.1817 179.625C97.3269 179.69 97.4857 179.72 97.6448 179.711C97.8038 179.703 97.9585 179.656 98.0957 179.575C98.2329 179.494 98.3488 179.381 98.4334 179.247C98.8995 178.311 99.2649 177.316 99.8102 176.432C100.616 175.125 101.528 173.882 102.422 172.632C102.88 171.992 103.399 171.395 104.101 170.515C103.495 170.258 102.847 170.113 102.188 170.087C100.328 170.495 98.403 170.516 96.5339 170.149C102.241 166.169 108.27 162.672 114.558 159.694C114.98 160.382 115.451 161.068 115.838 161.798C116.61 163.257 117.297 164.761 118.109 166.196C118.235 166.37 118.401 166.512 118.593 166.609C118.785 166.705 118.998 166.755 119.213 166.752C119.594 166.57 119.891 166.249 120.042 165.854C120.855 163.792 121.981 161.867 123.381 160.148C123.895 159.667 124.338 159.116 124.697 158.51C125.158 157.644 124.75 157.042 123.772 157.042C123.069 157.041 122.367 157.136 121.664 157.189L119.756 157.331L119.679 157.038C120.255 156.592 120.852 156.171 121.403 155.696C123.748 153.674 126.02 151.563 128.436 149.629C130.226 148.29 131.583 146.455 132.338 144.351C132.778 142.935 133.142 141.497 133.429 140.043C133.588 139.321 133.837 138.985 134.552 139.476C135.088 139.809 135.602 140.174 136.092 140.57C136.726 141.178 137.497 141.627 138.339 141.878C139.181 142.129 140.071 142.176 140.935 142.015C141.091 141.954 141.229 141.855 141.336 141.726C141.443 141.598 141.516 141.445 141.549 141.281C141.528 139.502 141.426 137.723 141.348 135.945C141.377 135.318 141.334 134.691 141.219 134.075C141.075 133.592 140.756 133.18 140.325 132.921C139.907 132.958 139.512 133.131 139.201 133.413C138.851 133.699 138.487 133.966 138.108 134.213C136.686 134.876 135.239 135.483 133.786 136.118C133.697 135.63 133.603 135.225 133.552 134.813C133.084 131.037 131.551 127.388 132.159 123.484C132.38 121.504 132.723 119.539 133.186 117.602C134.233 114.065 135.846 110.721 137.964 107.701C138.61 106.447 139.538 105.36 140.675 104.523C141.811 103.687 143.125 103.125 144.515 102.88C144.788 102.824 145.052 102.734 145.302 102.611C147.16 101.89 149.01 101.148 150.875 100.446C153.207 99.5672 155.575 98.7778 157.885 97.8454C161.237 96.4927 164.545 95.0341 167.884 93.6488C168.76 93.2853 169.706 93.0881 170.573 92.7071C173.232 91.5386 175.848 90.2712 178.518 89.1292C182.106 87.5949 185.736 86.1624 189.332 84.6453C191.075 83.9098 192.763 83.0441 194.504 82.3036C197.124 81.1891 199.77 80.135 202.404 79.0509C204.372 78.2405 206.339 77.4265 208.305 76.6091C208.221 77.1202 208.001 77.5994 207.668 77.9966C205.969 79.7064 204.626 81.7364 203.718 83.9689C203.301 84.7412 203.059 85.596 203.01 86.4723C202.962 87.3486 203.107 88.2248 203.435 89.0386C203.881 90.144 204.231 91.2857 204.481 92.4509C204.819 93.5848 205.192 94.709 205.5 95.851C205.911 97.0774 206.206 98.3396 206.381 99.621C206.416 101.917 205.761 104.17 204.501 106.09C204.015 106.949 203.047 107.553 202.63 108.431C202.027 109.563 201.213 110.57 200.232 111.395C198.468 113.712 196.888 116.209 195.232 118.59C192.886 121.663 191.16 125.163 190.149 128.895C189.947 129.785 189.784 130.683 189.633 131.583C189.676 131.7 189.717 131.818 189.763 131.934C189.845 132.135 189.952 132.324 190.082 132.497C190.146 132.151 190.212 131.81 190.265 131.479C190.478 129.844 190.915 128.247 191.564 126.732C192.435 125.175 193.483 123.725 194.688 122.409C195.994 120.733 197.159 118.951 198.422 117.242C199.647 115.583 200.998 114.031 202.302 112.435C203.616 110.921 204.761 109.268 205.716 107.505C206.573 105.594 207.21 103.592 207.614 101.538C208.113 99.6255 208.264 97.639 208.06 95.6731C207.76 94.7301 207.4 93.8073 206.982 92.9102C206.384 92.1228 205.962 91.2162 205.745 90.2517C205.727 90.1309 205.725 90.0084 205.738 89.887C205.32 88.5145 205.433 87.0351 206.054 85.7417C206.679 84.4221 207.097 83.0064 207.689 81.6692C208.061 80.8271 208.598 80.0589 209.03 79.2413C209.329 78.6761 209.575 78.0832 209.845 77.5028L209.995 77.5979C209.876 78.7837 209.685 79.9676 209.655 81.1556C209.549 82.8331 209.586 84.5165 209.765 86.1877C210.098 87.5842 210.53 88.9552 211.059 90.2901C211.56 91.9604 211.992 93.6512 212.473 95.3277C213.245 97.4131 213.326 99.6913 212.705 101.826C211.668 104.697 210.401 107.484 209.343 110.347C208.653 111.921 208.194 113.587 207.979 115.292C207.971 117.533 208.111 119.772 208.4 121.995C208.383 122.173 208.404 122.354 208.462 122.524C208.52 122.694 208.613 122.85 208.736 122.981C208.781 120.944 209.085 118.921 209.638 116.961C210.228 113.155 211.232 109.426 212.632 105.838C213.555 104.165 214.36 102.429 215.039 100.643C215.581 98.9118 215.876 97.1127 215.913 95.2992C215.926 94.2194 215.817 93.1416 215.588 92.0863C215.358 91.4493 215.116 90.8161 214.878 90.1836C214.685 89.6692 214.239 89.2518 214.033 88.74C213.332 87.0001 212.629 85.2571 212.042 83.4771C211.776 82.9215 211.623 82.3187 211.592 81.7035C211.561 81.0883 211.653 80.4731 211.862 79.8936C212.101 79.1996 212.199 78.4649 212.151 77.7324C212.114 77.2215 212.206 76.7096 212.417 76.243C212.628 75.7764 212.953 75.3698 213.36 75.06C214.025 74.565 214.599 73.9491 215.254 73.4408C215.957 72.4916 216.316 71.3313 216.271 70.151C216.647 68.464 216.855 66.744 216.892 65.0161C217.051 63.6108 217.211 62.2037 217.44 60.8088C217.671 59.3986 218.007 58.0058 218.262 56.5991C218.785 53.7196 219.254 50.8299 219.809 47.9565C220.089 46.504 220.565 45.0895 220.852 43.638C221.247 41.6413 221.382 39.5789 221.932 37.6306C222.568 35.3789 222.917 33.0829 223.414 30.8113C223.75 27.8755 224.416 24.9869 225.399 22.2005C225.584 21.8892 225.709 21.5458 225.768 21.1884C225.819 20.0259 225.672 18.8425 225.835 17.7001C226.072 16.2726 226.4 14.8617 226.817 13.4761C227.14 12.3074 227.607 11.1787 227.938 10.0118C228.21 9.05103 228.39 8.06253 228.576 7.07979C228.567 6.99436 228.539 6.91199 228.494 6.839C228.449 6.766 228.387 6.70431 228.315 6.65863ZM74.169 192.921C73.2085 193.546 72.1694 194.04 71.0789 194.39L70.8221 194.181C71.8549 192.006 71.6246 189.383 73.2824 187.372C73.8997 188.411 74.4036 189.513 74.7853 190.659C74.8595 191.059 74.8425 191.469 74.7358 191.861C74.6291 192.253 74.4354 192.615 74.169 192.921ZM81.465 189.74L80.8322 197.032C79.5918 195.863 78.3888 194.775 77.2633 193.612C77.2053 193.441 77.1917 193.257 77.2237 193.079C77.2557 192.9 77.3324 192.733 77.4465 192.592C78.7873 191.571 80.19 190.631 81.465 189.74ZM107.608 156.301L107.441 156.008C109.002 154.654 110.516 153.239 112.143 151.969C113.015 151.289 113.338 151.538 113.581 152.667C113.802 153.694 114.106 154.704 114.347 155.728C114.455 156.187 114.498 156.662 114.569 157.12L107.608 156.301ZM122.477 158.635L118.864 164.615L115.982 159.359C118.078 158.69 120.286 158.443 122.477 158.635V158.635ZM201.179 19.691C201.342 20.8943 201.107 21.1747 199.979 21.1847C199.906 20.1583 199.982 20.0585 201.179 19.691ZM198.178 20.4408C198.762 21.7178 198.64 21.9225 197.2 22.1959L198.178 20.4408ZM195.844 21.729L196.237 22.108L195.276 23.0901L194.881 22.7086L195.844 21.729ZM186.851 26.3575C187.07 25.2525 187.483 24.9873 188.949 25.1261C188.619 25.4829 188.41 25.7491 188.161 25.9692C187.754 26.2145 187.432 26.5811 187.243 27.0178C187.053 27.4544 187.005 27.9394 187.104 28.4049C187.173 29.1593 187.096 29.9199 186.879 30.6454C186.381 33.4426 185.808 36.2272 185.36 39.0319C184.991 41.3383 184.758 43.6664 184.465 45.9849C184.104 45.7384 183.844 45.369 183.734 44.9455C183.624 44.522 183.672 44.073 183.868 43.6818C184.299 42.135 184.615 40.556 184.979 38.9905C184.99 38.9562 184.991 38.9199 184.983 38.885C183.826 35.4776 185.911 32.5285 186.337 29.3449C186.47 28.3441 186.655 27.3486 186.851 26.3575H186.851ZM187.971 31.7771C187.438 36.8762 186.906 41.9753 186.361 47.1997C185.796 46.9451 185.329 46.8415 185.501 45.9559C185.636 44.7809 185.706 43.5994 185.712 42.4167C185.796 41.7598 185.914 41.1077 186.065 40.463C186.579 37.7139 187.094 34.9651 187.612 32.2166C187.635 32.1211 187.679 32.0321 187.741 31.956C187.803 31.8799 187.882 31.8188 187.971 31.7771H187.971ZM185.307 26.1583L185.605 26.3422C185.48 27.4266 185.415 28.5221 185.219 29.5934C184.402 34.069 183.544 38.5372 182.704 43.0086C182.659 43.2455 182.659 43.4915 182.606 43.7258C182.574 43.9644 182.49 44.193 182.36 44.3958C182.265 44.4138 182.167 44.4102 182.074 44.385C181.981 44.3599 181.895 44.3139 181.822 44.2506C181.682 44.0658 181.614 43.8365 181.63 43.6051C181.736 42.437 181.857 41.2692 182.015 40.1069C182.215 38.6295 182.412 37.1494 182.687 35.6848C183.22 32.8474 183.779 30.014 184.401 27.1953C184.623 26.787 184.932 26.4328 185.307 26.1583ZM177.002 37.8683C177.386 35.2922 177.969 32.7467 178.412 30.1786C178.471 29.7076 178.708 29.2769 179.073 28.9744C179.439 28.6719 179.907 28.5204 180.38 28.5508C180.333 32.4844 178.367 36.1582 179.125 40.2099C179.827 40.5633 179.944 39.9948 179.988 39.4C180.109 37.7761 180.079 36.1298 180.341 34.5305C180.691 32.3922 181.214 30.2777 181.774 28.1826C182.057 27.7643 182.437 27.4204 182.881 27.1798L183.172 27.3722C182.298 32.5428 181.424 37.7133 180.531 42.9981C179.38 42.2885 178.314 41.45 177.354 40.4989C176.92 39.6943 176.795 38.7587 177.002 37.8683H177.002ZM175.179 37.9717C175.432 37.0303 175.707 36.0895 175.868 35.131C175.936 34.7287 175.634 34.2706 175.678 33.8567C175.802 32.6911 175.993 31.5302 176.22 30.38C176.374 30.1469 176.583 29.955 176.829 29.8208C176.784 32.9919 176.451 36.1523 175.834 39.2631C175.696 39.2379 175.566 39.1811 175.453 39.0973C175.341 39.0134 175.25 38.9047 175.186 38.7797C175.123 38.6547 175.089 38.5167 175.088 38.3765C175.087 38.2364 175.118 38.0978 175.179 37.9717L175.179 37.9717ZM174.2 30.9572L174.682 31.1249L174.145 32.6167L173.682 32.4571L174.2 30.9572ZM174.338 34.6095L173.9 37.6063C173.601 37.1373 173.481 36.5766 173.562 36.0265C173.642 35.4764 173.918 34.9736 174.338 34.6096L174.338 34.6095ZM172.386 34.2251L172.148 36.3566C171.061 35.9313 171.074 35.4739 172.386 34.2251ZM153.082 43.711C149.791 47.4723 147.217 51.8048 145.487 56.494C144.688 58.6335 143.214 60.4547 141.288 61.6823C142.409 59.9402 143.509 58.3835 144.444 56.7329C145.391 55.06 146.214 53.3125 147.021 51.5656C148.483 48.2193 150.565 45.1804 153.159 42.6103C153.841 41.9579 154.448 41.2153 155.182 40.63C157.48 38.9672 160.042 37.7034 162.76 36.8916L163.014 37.266C162.803 37.5212 162.542 37.7296 162.246 37.8778C158.636 38.7688 155.417 40.8177 153.082 43.7111V43.711ZM160.429 50.7084C162.069 48.2241 162.555 45.3041 163.965 42.7599C164.677 41.4395 165.275 40.0615 165.754 38.6403C166.171 37.4492 166.376 36.1839 166.689 34.8891C173.509 38.664 178.933 43.896 184.84 48.4731L158.748 55.7226C159.084 53.9842 159.649 52.2981 160.429 50.7085V50.7084ZM163.831 56.8369C163.822 56.9606 163.781 57.0799 163.713 57.1837C163.645 57.2875 163.552 57.3724 163.442 57.4306C162.641 57.4913 161.833 57.4588 161.027 57.4588L160.949 56.7569C161.764 56.5813 162.574 56.3767 163.397 56.2606C163.51 56.3155 163.608 56.3964 163.684 56.4966C163.759 56.5967 163.81 56.7134 163.831 56.8369V56.8369ZM155.183 65.4148L155.61 65.5846C154.416 68.199 153.904 71.0749 152.83 73.7354L152.117 73.4647L155.183 65.4148ZM152.101 74.8063L152.521 75.0657L151.484 76.897L151.101 76.6857C151.123 76.3191 151.224 75.9615 151.396 75.6372C151.569 75.3129 151.809 75.0296 152.101 74.8064V74.8063ZM144.005 100.276C143.882 100.331 143.751 100.37 143.267 100.547L144.477 96.7444C144.64 96.7444 144.87 96.7497 145.1 96.7434C145.643 96.7285 145.969 96.4632 145.676 95.9414C145.534 95.5249 145.501 95.0792 145.58 94.6465C145.659 94.2138 145.848 93.8085 146.127 93.4688C146.185 93.3271 146.278 93.2026 146.398 93.1072C146.518 93.0119 146.66 92.9488 146.811 92.9241C146.962 92.8993 147.117 92.9138 147.261 92.966C147.404 93.0182 147.532 93.1065 147.633 93.2223C147.953 93.5444 148.341 93.7918 148.768 93.947C149.14 93.8655 149.484 93.6889 149.767 93.4345C149.6 93.1998 149.408 92.9849 149.193 92.7937C148.947 92.5342 148.636 92.3452 148.292 92.2461C147.948 92.147 147.584 92.1415 147.238 92.2301C147.068 92.0678 146.948 91.8611 146.89 91.6337C146.802 91.1205 146.81 90.5912 146.74 90.0738C146.712 89.9341 146.713 89.7902 146.743 89.6509C146.773 89.5115 146.831 89.3798 146.913 89.2636C146.996 89.1475 147.101 89.0494 147.223 88.9754C147.344 88.9015 147.48 88.8531 147.621 88.8334C147.935 88.7714 148.218 88.6042 148.423 88.3594C148.629 88.1147 148.745 87.8071 148.751 87.4875C149.113 86.2296 149.601 85.0117 150.209 83.8527C150.289 83.6998 150.331 83.5302 150.332 83.3579C150.189 82.5522 150.281 81.7223 150.597 80.9672C150.912 80.2122 151.438 79.5639 152.112 79.0996C152.186 79.0355 152.244 78.9555 152.283 78.8656C152.321 78.7758 152.339 78.6785 152.334 78.5809C152.279 77.2253 152.73 75.8977 153.6 74.8564C153.743 74.6717 153.825 74.4467 153.834 74.2131C153.702 73.5076 153.77 72.7792 154.031 72.1104C154.291 71.4416 154.734 70.8591 155.308 70.4287C155.448 70.2642 155.551 70.0719 155.61 69.8645C155.67 69.6571 155.684 69.4394 155.653 69.2259C155.895 68.1907 156.337 67.2126 156.953 66.3466C157.253 65.8833 157.756 65.6575 157.127 65.092C157.077 64.9701 157.053 64.8392 157.057 64.7077C157.06 64.5761 157.09 64.4465 157.145 64.3272C157.705 62.8038 158.327 61.3025 158.851 59.7677C158.873 59.3875 158.811 59.0073 158.67 58.6536C158.332 58.8175 158.035 59.054 157.8 59.346C157.426 60.2165 157.206 61.1516 156.867 62.0394C156.706 62.4307 156.42 62.7582 156.054 62.9714C156.974 61.0508 156.752 58.4262 159.308 57.4496C160.061 58.7755 160.518 58.8954 162.489 58.5125C162.993 58.4579 163.499 58.4345 164.005 58.4427C164.249 58.4565 164.492 58.41 164.713 58.3072C165.522 57.7614 166.279 57.1436 166.976 56.4614L164.952 57.0993C165.001 55.2823 165.272 55.0688 167.361 55.0085L168.075 56.5877C168.258 56.0818 168.411 55.5618 168.636 55.0755C168.749 54.7743 168.954 54.516 169.221 54.3368C169.758 54.127 170.311 53.9603 170.875 53.8386C170.756 54.0057 170.669 54.1933 170.618 54.3922C170.656 54.7986 170.749 55.1999 170.821 55.6032C171.188 55.5446 171.548 55.445 171.893 55.3064C172.897 54.7719 173.872 54.1845 174.86 53.62C174.916 53.5759 174.985 53.5529 175.056 53.5551C176.524 54.4375 176.807 53.0136 177.566 52.3628C178.288 51.8732 179.067 51.4736 179.886 51.1728L180.74 52.8964C180.992 52.7168 181.199 52.4812 181.345 52.2082C181.273 51.1615 181.88 50.9944 182.74 50.7948C183.926 50.331 185.215 50.1985 186.47 50.4117C185.619 51.4148 184.892 52.2693 184.169 53.1266C183.655 53.7353 183.126 54.3321 182.642 54.9636C182.186 55.5573 181.876 56.3808 180.872 55.7293C180.674 55.7517 180.485 55.8251 180.324 55.9425C180.538 56.3797 180.638 56.8636 180.615 57.3496C180.224 58.0088 179.756 58.6185 179.219 59.1654C179.176 59.2203 179.122 59.2651 179.06 59.2967C178.998 59.3283 178.93 59.3458 178.861 59.3481C177.059 58.6304 177.919 59.7159 178.191 60.4753C177.28 61.1412 176.345 61.8259 175.407 62.507C175.381 62.5308 175.35 62.5491 175.317 62.561C175.283 62.5728 175.248 62.578 175.212 62.5762C173.731 61.8657 173.852 62.8245 173.786 63.8203C173.607 64.2738 173.301 64.666 172.904 64.9495C172.501 65.3606 172.073 65.7477 171.625 66.1088C171.459 66.2055 171.273 66.262 171.081 66.2739C170.734 66.3367 170.384 66.3792 170.035 66.4301L170.256 67.6898C169.855 68.1279 169.307 68.7819 170.635 69.2991C169.654 70.5636 168.767 71.7341 167.839 72.8701C167.637 73.0183 167.386 73.0821 167.138 73.0481C166.496 73.014 165.856 72.9244 165.216 72.8568L165.409 73.1363C164.755 74.0908 164.108 75.0504 163.438 75.9936C163.324 76.1253 163.164 76.2089 162.991 76.2275C161.789 76.3526 161.788 76.3456 162.335 77.4654C162.098 77.887 161.75 78.2361 161.329 78.4755C160.909 78.7149 160.431 78.8356 159.947 78.8246C159.849 78.8344 159.754 78.8697 159.673 78.927C159.593 78.9843 159.528 79.0617 159.486 79.1515C159.479 79.2647 159.495 79.3782 159.532 79.4852C159.57 79.5921 159.629 79.6904 159.706 79.774C160.351 80.4348 161.073 80.2606 161.763 79.4449C162.409 78.6807 163.145 77.9923 163.846 77.2744C163.463 77.9805 163.032 78.6596 162.556 79.307C160.411 81.9197 158.251 84.5226 156.034 87.0744C153.178 90.3605 150.243 93.5772 147.383 96.8594C146.529 98.238 145.374 99.4058 144.005 100.276V100.276ZM179.921 62.6363C179.416 63.4078 178.815 64.1167 178.249 64.8481L177.847 64.7326C177.678 64.3422 177.615 63.9141 177.665 63.4917C178.149 62.821 178.701 62.202 179.312 61.6443C179.39 61.6305 179.471 61.6355 179.547 61.6589C179.622 61.6824 179.692 61.7236 179.748 61.7791C179.907 62.035 179.968 62.3392 179.921 62.6363ZM174.321 69.5859C173.587 70.639 172.732 71.6074 171.889 72.6432C170.682 71.2425 171.977 70.5758 172.447 69.7134C172.646 69.3782 172.906 69.0834 173.214 68.8446C173.467 68.6836 173.739 68.5553 174.024 68.4627C174.221 68.8044 174.323 69.1919 174.321 69.586V69.5859ZM166.764 74.3928L163.918 77.17C163.969 76.4385 164.287 75.7512 164.812 75.2391C165.337 74.727 166.032 74.4258 166.764 74.3929V74.3928ZM163.488 82.1134C163.021 82.809 162.496 83.4634 161.918 84.0693C161.669 84.2026 161.392 84.2745 161.11 84.2789C161.103 84.0036 161.155 83.73 161.261 83.4761C161.848 82.7105 162.493 81.9903 163.383 80.9385C163.504 81.3176 163.54 81.7188 163.488 82.1134ZM158.142 87.4194L159.826 85.0802L160.159 85.2722C160.395 86.1199 159.748 86.9616 158.142 87.4196V87.4194ZM156.105 96.4105L155.963 96.1039C156.457 95.0077 157.133 94.7913 158.317 95.5365L156.105 96.4105ZM168.511 90.1436L170.053 89.137L170.702 90.256C169.913 91.077 169.28 90.6221 168.511 90.1436H168.511ZM185.757 58.3838C184.488 58.8907 185.019 60.0562 184.872 60.926C184.581 62.6553 184.502 64.4203 184.218 66.1513C184.093 66.9124 184.119 67.3554 185.066 67.2954C185.131 68.2006 185.117 69.1098 185.023 70.0124C184.883 70.5787 184.539 71.0733 184.056 71.4006C183.858 71.5188 183.698 71.6913 183.595 71.8976C183.492 72.104 183.45 72.3356 183.475 72.565C183.342 73.9866 183.002 75.3895 182.729 76.7968C182.704 76.9712 182.612 77.1292 182.474 77.2385C182.112 77.4368 181.335 77.4799 181.923 78.0821C182.014 78.2233 182.132 78.345 182.271 78.44C182.409 78.535 182.565 78.6013 182.73 78.6352C182.894 78.669 183.064 78.6697 183.229 78.6371C183.394 78.6045 183.55 78.5394 183.69 78.4455C184.016 78.2352 184.353 78.0431 184.701 77.8701L184.138 83.216L183.788 83.1983L183.009 81.4756L183.69 80.6213C183.607 80.4929 183.498 80.384 183.37 80.3019C183.241 80.2197 183.097 80.1664 182.945 80.1456C182.794 80.1247 182.641 80.1368 182.495 80.181C182.349 80.2252 182.214 80.3005 182.1 80.4017C181.505 80.7415 181.713 81.12 181.919 81.6414C181.943 81.8566 181.923 82.0746 181.86 82.2817C181.796 82.4888 181.691 82.6806 181.55 82.8451C181.403 82.9092 181.244 82.9414 181.084 82.9395C180.923 82.9377 180.765 82.9018 180.62 82.8344C179.565 82.4125 179.311 82.5858 179.421 83.7324C179.396 84.0786 179.428 84.4266 179.516 84.7625C179.758 85.157 180.042 85.5244 180.363 85.8582C180.512 85.4868 180.666 85.1172 180.806 84.7426C180.832 84.6301 180.846 84.5152 180.847 84.3997L182.442 83.6239C182.674 84.3457 182.674 84.3457 183.632 83.7589C183.666 83.759 183.699 83.7681 183.729 83.7851C183.886 84.0134 184.038 84.2455 184.274 84.5993L177.965 87.2468L176.926 83.8436C176.508 84.4089 176.307 85.1048 176.358 85.8055C176.409 86.5062 176.709 87.1656 177.203 87.6646C176.363 87.9667 175.612 88.2733 174.834 88.4857C174.591 88.4094 174.377 88.2584 174.224 88.0541C174.184 87.9612 174.16 87.8621 174.154 87.7612C173.947 87.2068 173.733 86.6548 173.521 86.102C173.33 86.1379 173.15 86.2176 172.994 86.3349C172.786 86.6615 172.672 87.0397 172.665 87.4272C172.659 87.8147 172.76 88.1965 172.957 88.5299C173.068 88.7128 173.201 88.8814 173.352 89.032C173.246 89.1639 173.112 89.2716 172.961 89.3479C172.809 89.4241 172.643 89.4672 172.473 89.4742C172.304 89.4813 172.135 89.4521 171.978 89.3886C171.82 89.3251 171.678 89.2288 171.561 89.1062C171.493 88.6686 171.529 88.2211 171.669 87.8007C171.365 87.6243 171.041 87.485 170.703 87.3857C170.577 87.3776 170.451 87.4006 170.335 87.4527C170.22 87.5049 170.119 87.5846 170.041 87.6849C169.961 87.8966 169.84 88.0903 169.685 88.2548C169.53 88.4194 169.344 88.5514 169.137 88.6433C168.93 88.7352 168.707 88.785 168.481 88.79C168.255 88.795 168.03 88.755 167.819 88.6723C167.611 88.6603 167.403 88.6947 167.21 88.7732C167.017 88.8517 166.844 88.9723 166.704 89.1261C166.46 89.5524 166.068 89.8745 165.602 90.0312C165.137 90.188 164.63 90.1686 164.178 89.9767C164.034 89.9614 163.889 89.9833 163.757 90.0404C163.625 90.0975 163.509 90.1878 163.422 90.3026C163.319 90.66 163.353 91.0428 163.516 91.3772C163.678 91.7115 163.96 91.9736 164.304 92.1128C164.524 92.1477 164.749 92.1375 164.964 92.0826C165.18 92.0277 165.382 91.9293 165.558 91.7935C166.1 91.3955 166.613 90.9582 167.092 90.4852L167.96 91.6044L159.116 95.2161C159.27 93.3982 159.328 93.3542 161.054 93.6013C161.816 93.7106 162.063 93.3883 162.26 92.0094C161.993 91.8671 161.71 91.7378 161.449 91.5731C160.541 91.0008 160.434 91.044 160.219 92.1138C160.058 92.4958 159.764 92.8067 159.392 92.9895C159.02 93.1722 158.594 93.2145 158.193 93.1085C157.51 92.7834 157.297 92.8691 156.954 93.5981C156.794 93.8894 156.565 94.137 156.287 94.3191C156.009 94.5012 155.69 94.6124 155.359 94.6427C154.238 94.3446 153.82 94.601 153.856 95.7992C153.491 95.7992 153.18 95.8233 152.873 95.7949C151.787 95.6942 151.498 95.9416 151.54 96.9684C151.585 98.0465 151.585 98.0465 150.46 98.3243C150.275 98.199 150.124 98.0299 150.02 97.8321C149.916 97.6343 149.862 97.4138 149.864 97.1903C149.866 96.9668 149.923 96.7472 150.03 96.5511C150.137 96.3549 150.291 96.1882 150.478 96.0659C151.735 94.8706 152.837 93.5114 154.006 92.2205C155.39 93.5928 155.492 93.617 156.242 92.8074C154.711 91.0556 154.875 90.3984 157.405 88.901C157.164 89.1897 156.945 89.4955 156.748 89.8161C156.628 90.1036 156.538 90.4025 156.48 90.7082C156.791 90.7791 157.116 90.7663 157.422 90.6712C158.269 90.2048 158.955 89.4932 159.391 88.6298C159.946 87.7833 160.695 87.0816 161.577 86.583C161.818 86.4059 161.987 86.1469 162.051 85.8545C162.305 84.6203 162.954 83.5025 163.9 82.6704C164.093 82.6499 164.288 82.668 164.473 82.7236C164.769 82.7525 165.065 82.7781 165.22 82.7923L165.528 80.0498L164.635 80.735C164.513 80.6763 164.407 80.5876 164.328 80.4772C164.249 80.3668 164.2 80.2383 164.184 80.1035C164.168 79.9687 164.186 79.8321 164.237 79.7063C164.288 79.5805 164.37 79.4697 164.475 79.3841C165.234 78.4661 165.978 77.5354 166.912 76.3839C167.347 77.1289 167.663 77.7596 168.07 78.3247C168.307 78.5399 168.582 78.7083 168.881 78.8212C168.899 78.5092 168.874 78.1962 168.806 77.8911C168.516 77.1116 168.162 76.356 167.78 75.4676L170.05 72.6541C171.525 74.2301 169.55 74.4311 169.233 75.4711C169.526 75.5961 169.848 75.6415 170.164 75.6024C170.924 75.1248 171.614 74.5452 172.216 73.88C172.946 72.8971 173.626 71.8782 174.253 70.8272C174.35 70.679 174.467 70.5452 174.602 70.4297C174.846 70.1923 175.036 69.9055 175.16 69.5885C175.284 69.2716 175.339 68.9318 175.321 68.5918C174.937 66.5108 174.695 66.8233 176.665 64.9777V66.5511C177.894 67.2885 178.101 67.0174 178.686 65.7196C179.366 64.5326 180.169 63.4209 181.083 62.4032C180.898 61.645 180.85 60.8596 180.943 60.0845C181.327 59.3198 181.839 58.6263 182.456 58.0338C183.059 59.348 181.638 59.9407 181.61 60.9801C182.482 61.4221 182.837 59.0372 184.062 60.9038C184.062 60.2208 184.072 59.9043 184.058 59.5888C183.979 59.3259 183.959 59.0484 184.002 58.777C184.445 58.0805 184.518 57.5868 183.577 57.2896C183.525 57.1627 183.499 57.0266 183.501 56.8894C183.503 56.7523 183.533 56.617 183.59 56.4918C184.345 55.5042 185.162 54.5635 185.958 53.6067L186.211 53.7246C186.127 55.1587 186.048 56.593 185.952 58.0262C185.948 58.0965 185.928 58.165 185.895 58.2268C185.861 58.2886 185.814 58.3422 185.757 58.3837L185.757 58.3838ZM201.688 77.3245C200.046 78.1079 198.354 78.7897 196.677 79.4981C193.735 80.7404 190.797 81.9904 187.839 83.1918C186.449 83.7564 186.069 83.4028 186.097 81.8811C186.128 80.2481 185.99 78.6097 186.068 76.9805C186.164 74.9822 186.419 72.9919 186.581 70.9963C186.615 70.587 186.502 70.1664 186.53 69.756C186.676 67.6254 186.851 65.4966 187.007 63.3666C187.107 62.0006 187.133 60.626 187.301 59.2689C187.495 57.7072 187.855 56.1661 188.053 54.6048C188.111 53.7665 188.117 52.9254 188.071 52.0863C189.406 51.7038 208.209 68.9444 210.727 72.884C207.699 74.3761 204.709 75.8834 201.688 77.3245H201.688ZM190.16 50.5981L190.922 49.9813C191.137 50.1648 191.299 50.403 191.391 50.6708C191.243 51.0218 191.038 51.3459 190.784 51.6297L190.16 50.5981ZM192.339 53.0823C192.371 52.1234 192.452 51.164 192.576 50.2123C192.734 50.0661 192.926 49.9627 193.136 49.9119L193.44 50.5589C193.319 51.5856 193.251 52.3006 193.139 53.0088C193.072 53.1909 192.971 53.3591 192.843 53.5051C192.641 53.4105 192.467 53.2648 192.339 53.0823L192.339 53.0823ZM194.795 50.4424C195.641 51.6346 194.509 52.7134 194.543 53.8768C194.265 53.3365 194.141 52.73 194.186 52.124C194.23 51.5181 194.441 50.9362 194.795 50.4424L194.795 50.4424ZM195.594 55.6982C195.807 54.1526 196.005 52.6048 196.251 51.0645C196.363 50.8442 196.524 50.653 196.723 50.5059C196.86 50.7177 196.946 50.9582 196.975 51.2089C196.683 52.7308 196.341 54.2432 196.015 55.7587L195.594 55.6982ZM197.304 55.0559C197.431 53.7647 197.634 52.4821 197.912 51.215C198.08 50.9231 198.315 50.6751 198.597 50.4912C198.755 50.7531 198.857 51.0454 198.896 51.3491C198.687 52.9765 198.413 54.5955 198.174 56.2192C198.09 56.7927 198.041 57.3715 197.977 57.9479L197.401 57.906C197.309 56.9589 197.277 56.007 197.304 55.0558L197.304 55.0559ZM199.079 56.2886C199.26 54.5891 199.598 52.9062 199.879 51.2175C199.868 51.0971 199.893 50.9764 199.95 50.8697C200.006 50.7631 200.092 50.6749 200.198 50.6159C200.303 50.5569 200.423 50.5295 200.544 50.537C200.664 50.5444 200.78 50.5865 200.877 50.658L199.778 59.4107L199.484 59.5841C199.371 59.4181 199.286 59.2342 199.233 59.0402C199.095 58.1299 199.043 57.2086 199.079 56.2886L199.079 56.2886ZM203.26 61.8939C203.378 61.8542 203.484 61.7846 203.568 61.692C203.651 61.5995 203.71 61.487 203.737 61.3653C203.743 60.2738 203.694 59.1826 203.589 58.0961C203.642 55.8813 203.983 53.6828 204.603 51.5558C204.711 50.821 205.384 50.7462 206.127 51.0171L204.611 63.9866C203.951 63.4177 203.132 62.7133 202.315 62.0069C202.159 61.8224 201.976 61.663 201.771 61.5343C200.871 61.1743 200.984 60.5614 201.196 59.8085C201.249 59.359 201.229 58.904 201.136 58.461C201.011 57.7152 200.965 56.9581 201 56.2026C201.238 54.6055 201.665 53.0374 201.94 51.4445C201.933 51.3294 201.956 51.2145 202.007 51.111C202.058 51.0075 202.134 50.9189 202.229 50.8538C202.325 50.7888 202.435 50.7495 202.55 50.7398C202.665 50.73 202.78 50.7502 202.885 50.7984C203.066 50.887 203.222 51.0181 203.341 51.1804C203.46 51.3427 203.538 51.5314 203.568 51.7303C203.457 53.0826 203.142 54.4178 203.025 55.7699C202.86 57.6596 202.791 59.5583 202.728 61.4546C202.771 61.5675 202.843 61.6673 202.936 61.7442C203.029 61.8212 203.141 61.8728 203.26 61.8939L203.26 61.8939ZM206.256 57.0487C206.671 55.5051 206.946 53.9273 207.079 52.3344C207.325 50.8529 207.355 50.8348 208.777 50.9235L206.495 65.5919L205.477 65.1498L205.793 65.0359C205.833 64.3262 205.86 63.6157 205.915 62.9072C205.747 60.9481 205.862 58.9751 206.256 57.0486L206.256 57.0487ZM214.501 98.7132L214.129 98.6804L214.493 95.9172C214.797 96.824 214.8 97.8048 214.501 98.7132L214.501 98.7132ZM212.284 87.3852C212.663 88.35 213.084 89.2999 213.427 90.2772C214.389 91.9701 214.762 93.9337 214.49 95.8614C214.244 95.7365 214.033 95.5537 213.874 95.3287C213.236 93.2035 212.656 91.0613 212.034 88.9314C211.886 88.4226 211.591 87.9554 211.455 87.4445C211.259 86.7031 211.146 85.9393 210.998 85.185L211.39 85.0631C211.688 85.8372 211.981 86.6131 212.284 87.3851L212.284 87.3852ZM213.222 71.9707L207.541 67.0951C207.87 66.5256 208.081 65.8962 208.163 65.2437C208.245 64.5912 208.196 63.9289 208.018 63.2958C207.808 62.2571 207.815 61.186 208.04 60.1504C208.379 58.0646 208.872 56.004 209.291 53.931C209.488 52.9575 209.662 51.9794 209.862 50.9231H211.434C210.946 53.4619 210.439 55.9247 210.008 58.4007C209.688 60.2394 209.423 62.0874 209.215 63.9449C209.12 65.0054 209.085 66.0704 209.107 67.1349C209.191 67.4357 209.324 67.7207 209.5 67.9785C209.751 67.7021 209.949 67.3811 210.083 67.0322C210.243 65.0517 210.238 63.0525 210.496 61.0867C210.837 58.4828 211.332 55.8965 211.842 53.3186C212.103 52.9837 212.267 52.5827 212.314 52.1603C212.361 51.7379 212.289 51.3108 212.108 50.9266L213.131 50.8434C213.576 52.4901 213.579 54.2252 213.139 55.8733C212.44 59.1352 211.698 62.3882 211.029 65.6564C210.902 66.4491 210.863 67.2534 210.913 68.0547C211.009 68.3002 211.163 68.5186 211.362 68.6906C211.577 68.5556 211.76 68.3745 211.897 68.1604C212.063 67.6585 212.157 67.1355 212.175 66.6071C212.343 62.6337 212.994 58.6954 214.115 54.8795C214.207 54.6559 214.33 54.4467 214.482 54.2585C214.918 55.4481 214.922 56.7531 214.493 57.9453C214.012 60.6439 213.348 63.3097 212.873 66.0091C212.682 67.2889 212.61 68.5837 212.657 69.8769C212.859 70.27 213.155 70.6078 213.517 70.8611L213.222 71.9707ZM213.794 69.4775C213.919 65.08 214.602 60.716 215.826 56.4904L216.09 56.5342C215.335 60.7886 214.581 65.0431 213.794 69.4775L213.794 69.4775ZM216.484 53.8602L214.488 54.2345C214.511 53.2034 214.501 52.1694 214.591 51.1442C214.67 51.0206 214.776 50.917 214.902 50.8419C215.027 50.7667 215.169 50.722 215.315 50.7114C215.869 50.7246 216.422 50.7781 216.969 50.8714L216.484 53.8602ZM218.001 45.8269C217.318 45.1584 217.353 45.0176 218.43 44.2137L218.001 45.8269ZM218.306 43.8181C217.584 42.8531 217.687 42.5834 218.988 42.3291L218.306 43.8181ZM220.132 34.4204L219.765 34.2804L220.21 32.7844L220.53 32.8806C220.563 33.4409 220.863 34.0777 220.132 34.4203L220.132 34.4204ZM224.159 16.6263C223.974 17.4117 223.671 18.1426 222.559 17.6763C222.25 17.7595 221.967 17.9217 221.74 18.1469C221.972 18.3981 222.239 18.6152 222.532 18.7919C222.925 18.9092 223.329 18.9823 223.738 19.0098L223.129 20.599C222.73 20.5018 222.367 20.3974 221.998 20.3293C221.762 20.2502 221.508 20.242 221.267 20.3058C221.204 20.4004 221.165 20.5091 221.153 20.6223C221.142 20.7355 221.158 20.8498 221.201 20.9551C221.335 21.2099 221.559 21.406 221.829 21.505C222.2 21.5596 222.577 21.5676 222.951 21.5286C222.791 23.3631 222.794 23.3401 221.132 22.9654C220.823 23.0316 220.537 23.1771 220.301 23.3876C220.471 23.66 220.686 23.902 220.936 24.1033C221.229 24.2666 221.646 24.2051 221.944 24.3639C222.049 24.4348 222.134 24.5305 222.192 24.6425C222.25 24.7545 222.28 24.8792 222.278 25.0054C222.139 25.3871 221.956 25.7515 221.733 26.0914L221.457 26.0256L221.145 25.0771C220.816 25.4376 220.569 25.8656 220.422 26.3312C220.275 26.7968 220.231 27.2888 220.293 27.7731C220.368 27.9581 220.393 28.1594 220.365 28.3571C220.338 28.5547 220.259 28.7417 220.137 28.8993C220.015 29.057 219.853 29.1797 219.668 29.2554C219.484 29.331 219.283 29.3569 219.085 29.3304C218.852 29.4939 218.665 29.7152 218.544 29.9725C218.753 30.166 219.002 30.3102 219.274 30.3947C219.919 30.3798 220.564 30.3297 221.204 30.2445C221.178 30.3753 221.114 30.6748 221.06 30.9763C221.007 31.279 220.964 31.5835 220.944 31.7109C220.331 31.8548 219.829 31.9368 219.353 32.098C219.063 32.2302 218.787 32.3933 218.532 32.5844L219.188 33.5534C219.098 34.2735 219.251 35.324 217.853 35.3096C217.766 35.3572 217.692 35.4253 217.638 35.5079C217.584 35.5904 217.55 35.685 217.541 35.7834C217.644 36.0305 217.826 36.2369 218.058 36.3711C218.415 36.5629 218.865 36.5975 219.197 36.8181C219.477 37.08 219.717 37.3815 219.91 37.7129C218.73 38.0119 217.838 38.2137 216.967 38.4842C216.885 38.5572 216.821 38.6485 216.78 38.7507C216.74 38.8529 216.724 38.9632 216.734 39.0726C216.826 39.2013 216.942 39.3106 217.077 39.3941C217.211 39.4775 217.36 39.5336 217.516 39.559C218.078 39.3962 218.624 39.1815 219.147 38.9177C219.259 39.1117 219.328 39.3275 219.349 39.5506C219.371 39.7737 219.344 39.9988 219.271 40.2106C219.198 40.4225 219.08 40.6161 218.926 40.7784C218.771 40.9408 218.583 41.068 218.375 41.1515L217.992 40.0449C217.881 40.488 217.621 40.8794 217.255 41.1534C216.889 41.4273 216.441 41.5671 215.984 41.5493C215.792 41.8622 215.651 42.2035 215.566 42.5606L216.976 42.6385C217.077 44.0245 215.748 43.7765 214.991 44.4565L216.536 45.4436C216.528 45.8176 216.24 46.1777 215.445 46.111C215.114 46.1496 214.794 46.2483 214.499 46.4024C214.761 46.6848 215.045 46.9457 215.348 47.1826C215.589 47.2958 215.845 47.3711 216.109 47.4058L216.139 47.7337L213.628 48.1387C214.047 49.2461 213.391 49.302 212.54 49.3103C210.63 49.3289 208.717 49.5281 206.812 49.4618C203.903 49.3604 200.997 49.1195 198.093 48.8949C195.834 48.7202 193.581 48.48 191.325 48.2687L191.146 47.9313C191.717 47.3144 192.325 46.733 192.967 46.1903C193.146 46.1945 193.323 46.2341 193.487 46.3066C193.651 46.3792 193.799 46.4833 193.922 46.6131C194.465 47.1349 194.818 47.0744 195.299 46.5073C196.087 45.5782 196.971 44.7314 197.8 43.8366C197.936 43.7015 198.019 43.5222 198.034 43.3312C198.002 42.9097 198.129 42.4916 198.389 42.159C198.65 41.8263 199.026 41.603 199.442 41.533C199.587 41.4851 199.721 41.408 199.835 41.3065C199.949 41.2049 200.041 41.0811 200.105 40.9426C200.003 40.1232 200.156 39.2923 200.544 38.5632C200.931 37.834 201.535 37.2422 202.271 36.8685L203.563 37.9094L203.914 37.6826C203.844 37.2832 203.704 36.8993 203.501 36.549C203.402 36.4624 203.326 36.3536 203.278 36.2317C203.23 36.1097 203.211 35.978 203.224 35.8476C203.237 35.7171 203.281 35.5916 203.352 35.4814C203.423 35.3712 203.519 35.2796 203.633 35.2139C204.067 34.8084 204.505 34.4052 204.956 34.0192C205.257 33.875 205.591 33.8161 205.923 33.849C206.255 33.8819 206.571 34.0053 206.838 34.2058C207.139 34.3416 207.417 34.5232 207.663 34.7441C207.738 34.48 207.752 34.2026 207.705 33.9322C207.034 33.2173 207.467 32.6873 207.903 32.094C208.464 31.3308 208.963 30.5225 209.334 29.9657C209.644 30.187 209.971 30.3831 210.312 30.5521C210.563 30.605 210.822 30.6101 211.076 30.5669C211.117 30.3204 211.109 30.0681 211.051 29.8249C210.329 28.3919 210.369 28.2384 211.774 27.2924C212.017 27.1095 212.248 26.9096 212.464 26.6943L213.808 27.4256C213.766 27.0149 213.751 26.599 213.675 26.1947C213.603 26.0256 213.57 25.8422 213.579 25.6584C213.588 25.4746 213.638 25.2953 213.727 25.134C213.816 24.9728 213.94 24.8338 214.09 24.7276C214.24 24.6215 214.413 24.551 214.594 24.5214C215.218 24.2368 215.798 23.8644 216.317 23.4156L217.22 23.8458C217.293 23.5006 217.316 23.1466 217.288 22.7948C217.209 22.2499 217.28 21.6939 217.494 21.1866C217.708 20.6793 218.056 20.2399 218.501 19.916C220.367 17.9711 222.247 16.0413 224.122 14.1054L224.503 14.2071C224.394 15.0149 224.345 15.8367 224.159 16.6262L224.159 16.6263ZM195.769 41.3069L195.493 40.9978L197.357 38.9427L197.652 39.2135L195.769 41.3069ZM198.483 40.5283L198.85 40.8117C198.481 41.3824 198.082 41.9327 197.654 42.4603C197.286 42.5039 196.914 42.4711 196.559 42.3641L198.483 40.5283ZM196.238 42.8357L196.538 43.0951C196.161 44.1625 195.528 45.1211 194.694 45.8863C193.896 45.2159 193.951 44.6858 194.672 44.1354C195.211 43.7244 195.717 43.2706 196.238 42.8358L196.238 42.8357ZM203.54 33.3541C204.661 32.0019 205.625 30.5265 206.412 28.9562L207.47 28.7477C207.444 29.157 207.332 29.5563 207.142 29.9197C206.04 31.1638 204.835 32.3127 203.54 33.3542L203.54 33.3541ZM211.465 24.3226L214.295 20.8588C214.349 21.2741 214.317 21.6961 214.203 22.0988C214.088 22.5015 213.892 22.8765 213.627 23.2009C213.362 23.5252 213.033 23.792 212.662 23.9849C212.29 24.1778 211.883 24.2928 211.465 24.3228V24.3226ZM215.5 19.892L215.969 18.97L217.156 18.3649C217.181 18.5831 217.155 18.8041 217.078 19.01C217.002 19.2159 216.878 19.4008 216.716 19.5496C216.555 19.6985 216.361 19.8071 216.149 19.8666C215.938 19.9261 215.715 19.9349 215.5 19.8921L215.5 19.892ZM218.704 17.4721L217.67 16.3802C217.386 16.6855 217.091 16.9812 216.822 17.2987C216.523 17.6327 216.25 17.9889 216.006 18.364C215.946 18.5569 215.93 18.7607 215.96 18.9604C214.998 18.8446 214.055 18.6736 214.064 20.1896C213.873 20.6005 213.571 20.9492 213.191 21.1957C212.806 21.5891 212.406 21.9677 212.007 22.3465C211.89 22.519 211.724 22.6527 211.53 22.7306C210.006 22.4874 209.894 23.3366 209.921 24.5375C209.699 25.0058 209.399 25.4333 209.035 25.8018C208.964 26.1137 208.96 26.4371 209.025 26.7505C209.296 26.6786 209.555 26.5672 209.794 26.4196C210.16 26.1113 210.465 25.7308 210.858 25.4429C210.722 26.07 210.392 26.6383 209.915 27.0665C209.437 27.4947 208.836 27.7608 208.198 27.8267C208.213 27.6555 208.197 27.4831 208.15 27.3177C207.983 26.9888 207.763 26.6865 207.565 26.3735C207.326 26.6097 207.12 26.8778 206.953 27.1702C206.722 27.7455 206.582 28.3574 206.404 28.9544L205.55 29.4846C205.032 29.3174 204.48 29.2825 203.945 29.3829C203.799 29.481 203.675 29.6084 203.581 29.7569C203.486 29.9054 203.424 30.0719 203.398 30.2458C203.372 30.4197 203.382 30.5971 203.428 30.7668C203.474 30.9366 203.555 31.0949 203.665 31.2317C203.688 31.3245 203.689 31.4213 203.668 31.5146C203.647 31.6078 203.605 31.695 203.545 31.7693C203.02 32.3955 202.461 32.9936 201.827 33.6983C201.774 33.4925 201.688 33.2969 201.57 33.1196C201.386 32.906 201.138 32.7577 200.862 32.6967C200.744 32.7518 200.642 32.8361 200.565 32.9415C200.488 33.047 200.44 33.1702 200.424 33.2996C200.391 33.6667 200.45 34.0362 200.594 34.3753C200.739 34.7144 200.965 35.0125 201.252 35.2432L198.741 38.3732L198.415 38.0831L200.042 36.1042L199.911 35.9144L198.416 36.9523C198.189 36.782 197.942 36.6424 197.679 36.5369C197.56 36.5012 197.435 36.4907 197.312 36.5061C197.189 36.5216 197.07 36.5627 196.963 36.6267C196.881 36.7191 196.82 36.8289 196.786 36.9479C196.752 37.0669 196.745 37.1921 196.766 37.3142C196.812 37.6439 196.786 37.9796 196.691 38.2986C196.596 38.6176 196.434 38.9126 196.216 39.1639C195.997 39.4152 195.728 39.6169 195.425 39.7555C195.123 39.8942 194.794 39.9665 194.461 39.9677C194.194 40.0016 193.933 40.0752 193.687 40.1862C193.83 40.3618 193.931 40.5674 193.983 40.7877C194.035 41.008 194.036 41.2371 193.986 41.4579C193.936 41.6786 193.837 41.8853 193.696 42.0623C193.555 42.2392 193.376 42.3819 193.172 42.4796C192.846 42.5857 192.515 42.6739 192.18 42.744C191.92 42.9163 191.684 43.1229 191.479 43.3581C192.318 44.2332 191.513 44.7922 191.087 45.4286C191.007 45.5666 190.94 45.7108 190.884 45.8598C190.197 45.9701 189.362 45.1485 188.915 46.3318L190.103 46.9201L188.644 48.4921C188.502 47.7201 188.424 46.9376 188.413 46.1526C188.6 43.9565 188.917 41.7714 189.102 39.5751C189.286 37.3866 189.329 35.1864 189.512 32.9978C189.641 31.4662 189.899 29.9454 190.104 28.4203C190.108 28.2815 190.147 28.1459 190.216 28.0255C190.552 27.761 190.816 27.4171 190.986 27.0247C191.156 26.6323 191.225 26.2038 191.188 25.7779L191.995 26.2983C192.197 26.0177 192.358 25.7097 192.473 25.3838C192.592 24.8021 192.556 24.1887 192.677 23.6079C192.779 23.3257 192.959 23.0787 193.197 22.8964C193.275 22.8825 193.356 22.8849 193.433 22.9035C193.51 22.9221 193.582 22.9565 193.645 23.0045C193.696 23.2645 193.671 23.5339 193.571 23.7794C192.993 24.731 194.043 24.9282 194.254 25.488C194.341 25.4918 194.427 25.4817 194.511 25.4582C194.665 24.9795 194.968 24.5625 195.375 24.2681C195.783 23.9737 196.274 23.8174 196.777 23.8219C198.351 23.2529 199.848 22.4895 201.233 21.5495C201.356 21.442 201.505 21.3682 201.665 21.3351C202.381 21.4637 202.396 21.0533 202.396 20.5231C202.348 20.2778 202.353 20.0249 202.41 19.7815C202.468 19.5382 202.578 19.3102 202.732 19.1131C202.886 18.9159 203.08 18.7543 203.302 18.6391C203.524 18.5239 203.769 18.4579 204.019 18.4456C204.04 18.7101 204.103 18.9695 204.207 19.2136C204.533 19.7214 205.015 19.9375 205.325 19.2598C205.388 19.0819 205.49 18.9204 205.624 18.7869C205.757 18.6534 205.919 18.5514 206.097 18.4882C206.275 18.4251 206.464 18.4023 206.652 18.4217C206.84 18.4411 207.021 18.5021 207.182 18.6003C207.58 18.56 207.959 18.4063 208.272 18.1572C208.819 17.8833 209.354 17.5865 209.893 17.2962C210.231 17.1749 210.546 16.9936 210.82 16.761C211.383 16.0729 211.876 15.6165 212.793 16.3059C213.522 16.8541 213.666 16.1048 213.833 15.6346C213.996 15.1748 214.086 14.6888 214.208 14.2146C214.956 14.8003 215.534 15.2894 216.157 15.7132C216.262 15.753 216.376 15.7654 216.487 15.749C216.599 15.7327 216.704 15.6882 216.793 15.6198C217.175 15.2099 217.495 14.7465 217.742 14.2443C217.699 13.8921 217.572 13.5553 217.373 13.2619L218.548 12.0338L218.86 12.1889C218.977 12.8196 218.553 13.9849 219.55 13.8239C220.312 13.4352 220.971 12.8724 221.474 12.1812C221.519 12.2619 221.572 12.3377 221.633 12.4072C221.743 12.5891 221.908 12.732 222.104 12.8163C222.22 12.7782 222.326 12.7159 222.416 12.6336C222.507 12.5512 222.578 12.4506 222.627 12.3385C222.755 11.95 222.712 11.5039 222.846 11.1183C222.938 10.7003 223.158 10.3213 223.475 10.0336C224.045 9.78318 224.643 9.60367 225.257 9.49913C223.428 12.4301 221.226 15.1103 218.704 17.4721Z" fill="#009FE3"/>
<path d="M158.799 82.2513C158.42 82.7101 158.048 83.175 157.659 83.6246C157.5 83.8078 157.269 83.933 157.128 84.1263C155.992 85.6843 154.876 87.2572 153.741 88.8156C152.919 89.9439 152.104 91.0795 151.219 92.1572C150.915 92.3113 150.577 92.3843 150.237 92.3693C150.24 92.0592 150.315 91.754 150.455 91.4774C151.077 90.8299 151.717 90.2641 150.656 89.4499C150.594 89.3567 150.556 89.2496 150.545 89.1382C150.535 89.0267 150.551 88.9143 150.594 88.811C150.7 88.7356 150.821 88.6847 150.949 88.6621C151.077 88.6394 151.208 88.6455 151.334 88.68C151.867 88.9443 152.406 89.273 152.735 88.5246C153.064 87.7766 154.508 87.3583 153.482 86.1606C153.428 86.066 153.399 85.9592 153.398 85.8503C153.396 85.7414 153.423 85.6338 153.474 85.5378C153.576 85.4531 153.696 85.3924 153.824 85.3605C153.953 85.3285 154.087 85.3261 154.217 85.3533C154.342 85.4393 154.486 85.4944 154.637 85.5142C154.788 85.5341 154.941 85.518 155.085 85.4674C155.228 85.4168 155.358 85.3331 155.463 85.223C155.568 85.1129 155.646 84.9797 155.689 84.834C156.089 84.5603 156.41 84.1852 156.617 83.7471C156.824 83.3089 156.912 82.8236 156.87 82.3407C156.857 82.3005 157.873 81.9306 158.41 81.7145L158.799 82.2513Z" fill="#009FE3"/>
<path d="M168.444 68.7533L168.992 70.5581C168.68 70.6332 168.354 70.6235 168.048 70.53C167.582 70.0558 167.578 69.4938 168.444 68.7533Z" fill="#009FE3"/>
</svg>
