<svg width="100" height="91" viewBox="0 0 100 91" fill="none" xmlns="http://www.w3.org/2000/svg">
<path d="M61.8891 60.8279C59.9131 58.2374 57.6273 55.9056 55.5528 53.3939C54.6445 52.2942 53.4527 51.1713 53.225 49.8061C52.8594 47.3528 52.8258 44.8614 53.1251 42.3991C53.5018 38.9127 52.3029 37.1264 48.9183 36.7283C48.6226 36.6668 48.3498 36.5242 48.1305 36.3165C47.9112 36.1088 47.754 35.8442 47.6765 35.5523C47.6071 31.3485 47.6987 27.1199 47.6979 22.9049C47.6973 19.3456 47.6635 15.791 47.5966 12.2411C47.5104 7.63674 47.3777 3.03976 47.2651 -1.5604L47.4329 -1.59183C47.4189 -2.85432 47.3317 -4.11495 47.1717 -5.36734C46.9155 -5.83532 46.5389 -6.22635 46.0809 -6.5C45.7013 -6.0392 45.418 -5.50693 45.2477 -4.93469C45.2258 -1.67163 45.2916 1.58069 45.3787 4.82819C45.5093 9.69733 45.754 14.5486 45.8151 19.428C45.8812 24.7072 45.768 30.0135 45.7917 35.2996C45.7964 36.3517 45.5496 36.8569 44.4008 36.9922C43.6291 37.0081 42.8869 37.2919 42.3016 37.795C41.7162 38.2981 41.3241 38.9891 41.1924 39.7496C41.1287 42.0923 41.1919 44.4366 41.3817 46.7724C41.5052 47.6158 41.399 48.4768 41.0745 49.2649C39.4672 51.8019 37.6116 54.1992 35.9485 56.7076C30.9674 64.2206 34.271 72.454 41.3091 75.079C43.8929 75.9631 46.5796 76.5116 49.3033 76.7108C53.6947 77.1354 57.7507 76.1092 60.8893 71.7837C62.9236 68.9801 63.7405 63.2552 61.8891 60.8279ZM43.6312 40.0579C43.9078 39.6331 44.2827 39.2813 44.7242 39.0322C44.8719 39.0329 45.0173 39.0685 45.1486 39.1362C45.2799 39.2038 45.3932 39.3017 45.4794 39.4216C45.8153 39.8946 46.123 40.387 46.4009 40.8963C46.8884 40.3471 47.376 39.7981 47.8636 39.2492C47.9796 39.1189 48.0988 38.9915 48.2327 38.845C48.5569 38.825 48.8816 38.8753 49.1845 38.9926C49.5433 39.3152 49.8664 39.6753 50.1484 40.0667C49.8348 40.4561 49.4365 40.769 48.9839 40.9815C47.3622 41.0239 45.7393 40.9796 44.1222 40.8489C43.9774 40.7726 43.8555 40.6591 43.7692 40.5201C43.6829 40.381 43.6353 40.2215 43.6312 40.0579L43.6312 40.0579ZM44.0339 43.0421C46.1771 43.1677 48.3183 43.3031 50.5153 43.4395C49.6808 43.7633 48.9379 44.0516 48.1949 44.3399C48.8893 44.7594 49.5836 45.1789 50.3347 45.6327C49.8414 46.3844 47.7569 45.0222 48.0598 47.1889C44.7681 47.6894 43.423 46.5314 43.4252 43.1414C43.6247 43.0898 43.8284 43.0565 44.0339 43.042V43.0421ZM46.7272 56.3802C46.5371 56.3815 46.3426 56.3872 46.1472 56.3936C46.4381 53.8378 45.736 51.1376 45.1609 48.6912C45.354 48.6642 45.5344 48.6276 45.7322 48.607C46.0838 48.5441 46.4416 48.5227 46.7983 48.5431C47.1937 48.5409 47.5886 48.5719 47.9788 48.6359C47.9548 48.6702 47.9353 48.7074 47.9209 48.7467C47.2294 51.2365 46.8288 53.7981 46.7272 56.3802L46.7272 56.3802ZM58.7544 71.3758C57.0131 73.294 54.5961 74.4626 52.0112 74.6361C48.8899 74.7877 45.7681 74.3507 42.8084 73.348C36.3605 71.3599 33.4043 64.108 38.0661 57.317C39.8427 54.7289 41.6368 52.1518 43.4483 49.5857C43.4908 49.409 43.5814 49.2474 43.71 49.119C43.8386 48.9906 44.0003 48.9003 44.177 48.8581C44.1784 48.8647 44.1761 48.8701 44.1777 48.8768C44.8705 51.1791 45.2073 53.5739 45.1764 55.978C45.1665 56.1016 45.1495 56.2524 45.1289 56.4133C43.5907 56.432 41.7327 56.5161 41.36 58.193C41.1013 59.3569 41.541 61.2178 42.9639 61.2542C44.6545 61.2975 45.6148 58.8732 45.9424 57.5559C45.9543 57.5083 45.9577 57.4592 45.9687 57.4115C46.2282 57.4023 46.4876 57.3865 46.7473 57.3841C46.8749 59.7003 47.6079 61.511 49.6222 61.3534C51.0992 61.2379 51.3871 59.9733 50.9485 58.7517C50.7457 58.0915 50.3395 57.5123 49.7879 57.0967C49.2363 56.681 48.5675 56.4502 47.877 56.4371C47.876 56.4037 47.8737 56.3774 47.8728 56.3428C47.8333 53.862 48.1747 51.3898 48.8852 49.0125C48.8954 48.9677 48.8991 48.9216 48.8962 48.8758C49.5748 49.1217 50.1576 49.5773 50.5599 50.1766C50.7508 50.4692 50.9164 50.7775 51.055 51.0981C52.3096 52.614 53.3968 53.9381 54.5047 55.225C56.1603 57.148 57.9657 58.9453 59.4823 60.9794C60.1639 61.9801 60.5411 63.1567 60.5686 64.3672C60.8379 66.8464 60.1928 69.3387 58.7544 71.3758ZM44.944 57.451C44.8429 58.0793 44.5908 58.6737 44.2094 59.1831C42.8667 60.2785 42.2412 60.1787 42.3329 58.8837C42.6011 58.4341 42.9846 58.0642 43.4436 57.8123C43.9026 57.5604 44.4206 57.4357 44.944 57.451ZM47.9841 57.4566C48.708 57.6445 49.3441 58.0782 49.7835 58.6834C48.59 58.437 48.154 58.1591 47.9841 57.4566L47.9841 57.4566Z" fill="#F6AE83"/>
<path d="M29.8662 77.8521C30.198 77.966 30.4963 78.1607 30.7341 78.4186C30.7778 78.5983 30.7809 78.7856 30.7431 78.9667C30.7053 79.1478 30.6276 79.3181 30.5156 79.4653C29.4749 80.8189 28.4171 82.1678 27.2735 83.4366C26.6212 84.1603 25.9111 84.208 25.7022 83.1784C25.4872 82.119 28.5922 78.0205 29.8662 77.8521Z" fill="#F6AE83"/>
<path d="M69.2718 72.9829C71.02 72.7014 74.3816 75.9299 74.3072 77.8189C71.7826 77.5061 69.1644 74.9916 69.2718 72.9829Z" fill="#F6AE83"/>
<path d="M40.2343 85.4902C40.2767 84.6826 40.3832 83.8798 40.5528 83.0891C40.7096 82.6609 41.0207 82.3067 41.4251 82.0961C41.6622 82.1319 41.8866 82.2263 42.078 82.3706C42.2694 82.515 42.4219 82.7048 42.5216 82.9228C42.4474 84.4853 42.2674 86.0409 41.9828 87.579C41.7468 87.9522 41.4294 88.2671 41.0544 88.5C40.7757 88.3036 40.5509 88.0402 40.4005 87.7342C40.303 86.9899 40.2476 86.2407 40.2343 85.4902Z" fill="#F6AE83"/>
<path d="M59.1968 81.4632C59.7168 81.685 60.1724 82.0346 60.5213 82.4794C60.8917 83.585 61.1537 84.7239 61.3038 85.8802C61.2871 86.0359 61.2367 86.1861 61.1562 86.3204C61.0756 86.4547 60.9668 86.5699 60.8373 86.658C60.6628 86.6877 60.4838 86.6747 60.3154 86.6202C60.147 86.5657 59.9944 86.4712 59.8704 86.3449C59.342 84.9285 58.9181 83.4605 58.4592 82.0098L59.1968 81.4632Z" fill="#F6AE83"/>
</svg>
