<svg width="68" height="63" viewBox="0 0 68 63" fill="none" xmlns="http://www.w3.org/2000/svg">
<path d="M62.3105 40.6804L66.6925 40.1035" stroke="#263238" stroke-width="2.2405" stroke-miterlimit="10" stroke-linecap="round"/>
<path d="M59.5859 19.9949L63.9718 19.418" stroke="#263238" stroke-width="2.2405" stroke-miterlimit="10" stroke-linecap="round"/>
<path d="M58.9062 14.8249L63.2882 14.248" stroke="#263238" stroke-width="2.2405" stroke-miterlimit="10" stroke-linecap="round"/>
<path d="M60.9492 30.3386L65.3312 29.7617" stroke="#263238" stroke-width="2.2405" stroke-miterlimit="10" stroke-linecap="round"/>
<path d="M61.6289 35.5105L66.0109 34.9336" stroke="#263238" stroke-width="2.2405" stroke-miterlimit="10" stroke-linecap="round"/>
<path d="M60.2695 25.1687L64.6515 24.5879" stroke="#263238" stroke-width="2.2405" stroke-miterlimit="10" stroke-linecap="round"/>
<path d="M6.38196 21.7422L2 22.3191" stroke="#263238" stroke-width="2.2405" stroke-miterlimit="10" stroke-linecap="round"/>
<path d="M9.10461 42.4277L4.72266 43.0046" stroke="#263238" stroke-width="2.2405" stroke-miterlimit="10" stroke-linecap="round"/>
<path d="M9.78825 47.5977L5.40234 48.1745" stroke="#263238" stroke-width="2.2405" stroke-miterlimit="10" stroke-linecap="round"/>
<path d="M7.74524 32.084L3.36328 32.6609" stroke="#263238" stroke-width="2.2405" stroke-miterlimit="10" stroke-linecap="round"/>
<path d="M7.06165 26.9121L2.67969 27.489" stroke="#263238" stroke-width="2.2405" stroke-miterlimit="10" stroke-linecap="round"/>
<path d="M8.42493 37.2539L4.04297 37.8308" stroke="#263238" stroke-width="2.2405" stroke-miterlimit="10" stroke-linecap="round"/>
<path d="M16.5254 56.5996L17.1023 60.9816" stroke="#263238" stroke-width="2.2405" stroke-miterlimit="10" stroke-linecap="round"/>
<path d="M37.207 53.875L37.7839 58.257" stroke="#263238" stroke-width="2.2405" stroke-miterlimit="10" stroke-linecap="round"/>
<path d="M42.377 53.1914L42.9538 57.5773" stroke="#263238" stroke-width="2.2405" stroke-miterlimit="10" stroke-linecap="round"/>
<path d="M26.8652 55.2383L27.4421 59.6242" stroke="#263238" stroke-width="2.2405" stroke-miterlimit="10" stroke-linecap="round"/>
<path d="M21.6934 55.918L22.2702 60.2999" stroke="#263238" stroke-width="2.2405" stroke-miterlimit="10" stroke-linecap="round"/>
<path d="M32.0371 54.5586L32.614 58.9405" stroke="#263238" stroke-width="2.2405" stroke-miterlimit="10" stroke-linecap="round"/>
<path d="M50.7429 5.55578L50.166 1.17383" stroke="#263238" stroke-width="2.2405" stroke-miterlimit="10" stroke-linecap="round"/>
<path d="M30.0574 8.27844L29.4805 3.89648" stroke="#263238" stroke-width="2.2405" stroke-miterlimit="10" stroke-linecap="round"/>
<path d="M24.8855 8.95813L24.3086 4.57617" stroke="#263238" stroke-width="2.2405" stroke-miterlimit="10" stroke-linecap="round"/>
<path d="M40.3991 6.91907L39.8223 2.53711" stroke="#263238" stroke-width="2.2405" stroke-miterlimit="10" stroke-linecap="round"/>
<path d="M45.571 6.23547L44.9941 1.85352" stroke="#263238" stroke-width="2.2405" stroke-miterlimit="10" stroke-linecap="round"/>
<path d="M35.2253 7.59489L34.6484 3.20898" stroke="#263238" stroke-width="2.2405" stroke-miterlimit="10" stroke-linecap="round"/>
<path d="M5.08286 10.6767C5.08286 10.6767 5.30018 10.5068 5.43848 10.3882L16.9959 1L17.9917 8.45604L55.422 3.52881C57.287 3.28383 58.9782 4.40599 59.1876 6.04182L60.1201 13.1304L63.206 36.7313L64.7865 48.6325C65.0038 50.2644 63.6011 51.2246 62.724 51.9121L50.4553 61L49.4714 53.6467L13.1909 58.4277C11.3259 58.6727 9.63472 57.5466 9.4253 55.9147L3.81845 13.3319C3.77168 12.8166 3.86438 12.2982 4.08683 11.831C4.30929 11.3639 4.65332 10.9651 5.08286 10.6767Z" fill="#263238"/>
<path d="M45.5979 17.3607C45.587 17.32 45.5697 17.2813 45.5465 17.2461C45.5599 17.3152 45.558 17.3863 45.5409 17.4546C45.5239 17.5229 45.4921 17.5866 45.4478 17.6412L44.5469 18.7792L45.8785 18.4275L45.5979 17.3607Z" fill="white"/>
<path d="M51.8779 41.213L50.5621 36.1752L48.1913 36.8034C48.1563 36.813 48.1198 36.8154 48.0838 36.8107C48.0479 36.8059 48.0132 36.7941 47.9819 36.7758C47.9192 36.7378 47.8738 36.6768 47.8555 36.6059C47.846 36.5713 47.8435 36.5353 47.8481 36.4998C47.8527 36.4643 47.8644 36.4301 47.8824 36.3992C47.9005 36.3682 47.9245 36.3412 47.9531 36.3197C47.9817 36.2982 48.0144 36.2827 48.0491 36.2739L50.4198 35.6457L50.2104 34.8554L48.7998 35.2229C48.7291 35.2418 48.6538 35.2318 48.5904 35.1952C48.5288 35.1579 48.4836 35.0986 48.464 35.0293C48.447 34.9586 48.4581 34.8841 48.4949 34.8215C48.5318 34.7588 48.5915 34.7129 48.6615 34.6934L50.0721 34.322L49.8627 33.5318L48.4521 33.9032C48.4171 33.9127 48.3806 33.9152 48.3446 33.9105C48.3086 33.9057 48.274 33.8938 48.2427 33.8755C48.181 33.8382 48.1359 33.7789 48.1162 33.7096C48.1068 33.6745 48.1044 33.638 48.1092 33.602C48.114 33.566 48.126 33.5314 48.1444 33.5001C48.1628 33.4688 48.1873 33.4415 48.2164 33.4198C48.2455 33.3981 48.2786 33.3824 48.3138 33.3737L49.7205 33.0023L49.511 32.212L48.1004 32.5835C48.0658 32.5923 48.0298 32.5941 47.9945 32.5887C47.9592 32.5832 47.9253 32.5707 47.895 32.5518C47.8636 32.5344 47.8362 32.5106 47.8144 32.4821C47.7927 32.4535 47.777 32.4208 47.7685 32.3859C47.759 32.3511 47.7564 32.3148 47.761 32.2791C47.7656 32.2433 47.7772 32.2088 47.7952 32.1776C47.8133 32.1463 47.8373 32.119 47.8659 32.0971C47.8946 32.0752 47.9273 32.0592 47.9621 32.05L49.3727 31.6826L49.1633 30.8923L47.7527 31.2637C47.7184 31.2732 47.6825 31.2756 47.6472 31.2709C47.6119 31.2661 47.5779 31.2543 47.5473 31.2361C47.5157 31.2188 47.4882 31.1951 47.4664 31.1665C47.4447 31.1379 47.4291 31.1051 47.4208 31.0701C47.4113 31.0354 47.4087 30.999 47.4133 30.9633C47.4179 30.9275 47.4295 30.893 47.4475 30.8618C47.4655 30.8306 47.4896 30.8032 47.5182 30.7813C47.5469 30.7594 47.5796 30.7434 47.6144 30.7343L49.025 30.3628L48.8156 29.5726L46.4449 30.1969C46.4105 30.2063 46.3746 30.2088 46.3393 30.204C46.304 30.1993 46.27 30.1874 46.2394 30.1692C46.2074 30.1526 46.1795 30.1291 46.1576 30.1004C46.1358 30.0717 46.1205 30.0385 46.113 30.0033C46.1035 29.9688 46.1009 29.9327 46.1056 29.8972C46.1102 29.8617 46.1219 29.8275 46.1399 29.7966C46.158 29.7657 46.182 29.7387 46.2106 29.7172C46.2392 29.6957 46.2718 29.6801 46.3066 29.6714L48.6773 29.0431L48.4679 28.2529L47.0573 28.6243C47.0223 28.6338 46.9858 28.6363 46.9498 28.6316C46.9138 28.6268 46.8792 28.6149 46.8479 28.5966C46.7862 28.5593 46.7411 28.5 46.7214 28.4307C46.712 28.3956 46.7096 28.3591 46.7144 28.3231C46.7192 28.2871 46.7312 28.2525 46.7496 28.2212C46.768 28.1899 46.7925 28.1626 46.8216 28.1409C46.8507 28.1192 46.8838 28.1036 46.919 28.0948L48.3257 27.7234L48.1162 26.9331L46.7056 27.3046C46.6713 27.314 46.6354 27.3164 46.6001 27.3117C46.5648 27.3069 46.5308 27.2951 46.5002 27.2769C46.4374 27.239 46.3921 27.178 46.3737 27.107C46.3642 27.0725 46.3617 27.0364 46.3664 27.0009C46.371 26.9654 46.3827 26.9312 46.4007 26.9003C46.4187 26.8694 46.4428 26.8424 46.4714 26.8209C46.5 26.7994 46.5326 26.7838 46.5673 26.7751L47.978 26.4037L47.7685 25.6134L46.3579 25.9848C46.3236 25.9943 46.2877 25.9967 46.2524 25.992C46.2171 25.9872 46.1831 25.9754 46.1525 25.9572C46.1209 25.9399 46.0934 25.9162 46.0716 25.8876C46.0499 25.859 46.0343 25.8262 46.026 25.7912C46.0165 25.7565 46.0139 25.7201 46.0185 25.6844C46.0231 25.6486 46.0347 25.6141 46.0527 25.5829C46.0707 25.5517 46.0948 25.5243 46.1234 25.5024C46.1521 25.4805 46.1848 25.4645 46.2196 25.4554L47.6302 25.084L47.4208 24.2937L46.0102 24.6651C45.9395 24.684 45.8642 24.674 45.8008 24.6375C45.7381 24.5995 45.6927 24.5385 45.6744 24.4676C45.6575 24.3974 45.6687 24.3234 45.7056 24.2614C45.7425 24.1994 45.8022 24.1543 45.8719 24.1356L47.2825 23.7642L47.0731 22.974L44.7023 23.5983C44.6316 23.6171 44.5563 23.6072 44.4929 23.5706C44.4313 23.5333 44.3861 23.474 44.3665 23.4047C44.3495 23.334 44.3606 23.2595 44.3974 23.1968C44.4343 23.1342 44.494 23.0883 44.5641 23.0688L46.9348 22.4406L46.7294 21.6503L45.3187 22.0217C45.2838 22.0313 45.2472 22.0337 45.2113 22.029C45.1753 22.0242 45.1406 22.0124 45.1093 21.9941C45.0477 21.9568 45.0025 21.8974 44.9829 21.8281C44.9733 21.7933 44.9708 21.757 44.9754 21.7213C44.98 21.6855 44.9916 21.651 45.0096 21.6198C45.0276 21.5885 45.0516 21.5612 45.0803 21.5393C45.1089 21.5174 45.1416 21.5014 45.1765 21.4922L46.5871 21.1208L46.3777 20.3306L44.9671 20.698C44.9327 20.7075 44.8968 20.7099 44.8615 20.7052C44.8262 20.7004 44.7922 20.6886 44.7616 20.6704C44.7296 20.6537 44.7017 20.6302 44.6798 20.6015C44.658 20.5729 44.6427 20.5397 44.6352 20.5044C44.6256 20.4697 44.6231 20.4333 44.6277 20.3976C44.6322 20.3618 44.6439 20.3273 44.6619 20.2961C44.6799 20.2649 44.7039 20.2375 44.7326 20.2156C44.7612 20.1937 44.7939 20.1777 44.8288 20.1686L46.2394 19.7972L46.03 19.0069L44.6194 19.3783C44.585 19.3878 44.5491 19.3902 44.5138 19.3854C44.4785 19.3807 44.4445 19.3689 44.4139 19.3507C44.3502 19.3148 44.3033 19.2551 44.2835 19.1847C44.2688 19.1152 44.281 19.0427 44.3177 18.9818C44.3543 18.9209 44.4127 18.8762 44.4811 18.8568L44.5601 18.837L45.461 17.699C45.5053 17.6444 45.5371 17.5807 45.5542 17.5124C45.5712 17.4442 45.5731 17.373 45.5598 17.3039C45.5384 17.1826 45.4739 17.0731 45.378 16.9957L42.7702 14.9292C42.6667 14.8487 42.5356 14.8122 42.4054 14.8277C42.2752 14.8433 42.1564 14.9095 42.0748 15.0122L33.382 25.9651L22.6227 17.375C22.5176 17.2928 22.3844 17.2554 22.2519 17.2709C22.1195 17.2865 21.9985 17.3537 21.9154 17.458L19.8607 20.054C19.8057 20.1216 19.77 20.2029 19.7575 20.2891C19.7449 20.3754 19.756 20.4635 19.7896 20.5439C19.8185 20.6299 19.8721 20.7055 19.9437 20.7613L21.3543 21.8795C21.3921 21.9036 21.4232 21.9369 21.4446 21.9763C21.4661 22.0157 21.4771 22.0599 21.4768 22.1047C21.4779 22.141 21.4716 22.1771 21.4583 22.2109C21.445 22.2447 21.4251 22.2754 21.3996 22.3012C21.3741 22.3271 21.3436 22.3475 21.3101 22.3613C21.2765 22.375 21.2404 22.3818 21.2042 22.3813H19.7461V23.2031H21.2042C21.2587 23.202 21.3122 23.2172 21.358 23.2469C21.4038 23.2765 21.4396 23.3192 21.4609 23.3694C21.4821 23.4195 21.4879 23.475 21.4773 23.5285C21.4668 23.5819 21.4404 23.631 21.4017 23.6694C21.3766 23.6954 21.3465 23.7161 21.3133 23.7303C21.28 23.7446 21.2443 23.7521 21.2081 23.7524H19.7501V24.5742H21.2081C21.2804 24.5742 21.3498 24.603 21.4009 24.6541C21.452 24.7052 21.4807 24.7746 21.4807 24.8469C21.4816 24.8829 21.4751 24.9186 21.4615 24.952C21.4479 24.9853 21.4275 25.0154 21.4017 25.0405C21.3768 25.0668 21.3468 25.0878 21.3135 25.1021C21.2802 25.1163 21.2443 25.1236 21.2081 25.1235H19.7501V25.9453H22.2157C22.2518 25.9448 22.2877 25.9515 22.3212 25.9649C22.3548 25.9784 22.3853 25.9984 22.411 26.0238C22.4368 26.0491 22.4572 26.0794 22.4711 26.1127C22.4851 26.146 22.4923 26.1818 22.4923 26.218C22.4915 26.2902 22.4632 26.3594 22.4132 26.4116C22.3615 26.4627 22.2923 26.4923 22.2196 26.4946H19.754V27.3204H21.2121C21.2844 27.3204 21.3537 27.3491 21.4048 27.4002C21.456 27.4514 21.4847 27.5207 21.4847 27.593C21.4861 27.629 21.4798 27.665 21.4661 27.6984C21.4525 27.7318 21.4319 27.7618 21.4057 27.7866C21.3809 27.8132 21.351 27.8342 21.3176 27.8485C21.2843 27.8628 21.2483 27.87 21.2121 27.8696H19.7422V28.6915H21.2002C21.2363 28.6909 21.2722 28.6976 21.3058 28.7111C21.3393 28.7245 21.3698 28.7445 21.3955 28.7699C21.4213 28.7953 21.4417 28.8255 21.4557 28.8588C21.4696 28.8922 21.4768 28.928 21.4768 28.9641C21.476 29.0363 21.4477 29.1055 21.3978 29.1577C21.3724 29.1832 21.3422 29.2033 21.309 29.2168C21.2757 29.2304 21.2401 29.2372 21.2042 29.2367H19.7461V30.0586H21.2042C21.2403 30.0581 21.2762 30.0647 21.3097 30.0782C21.3432 30.0917 21.3738 30.1117 21.3995 30.137C21.4252 30.1624 21.4457 30.1926 21.4596 30.226C21.4736 30.2593 21.4807 30.2951 21.4807 30.3312C21.4813 30.3672 21.4746 30.4029 21.4611 30.4362C21.4476 30.4695 21.4275 30.4998 21.4021 30.5252C21.3767 30.5506 21.3464 30.5707 21.3131 30.5842C21.2798 30.5977 21.2441 30.6044 21.2081 30.6039H19.7501V31.4257H21.2081C21.2623 31.4254 21.3153 31.4412 21.3604 31.4712C21.4056 31.5011 21.4408 31.5438 21.4616 31.5938C21.4823 31.6438 21.4877 31.6989 21.4771 31.752C21.4664 31.8051 21.4402 31.8539 21.4017 31.892C21.35 31.9427 21.2805 31.971 21.2081 31.971H19.7501V32.7929H22.2157C22.2518 32.7924 22.2877 32.799 22.3212 32.8125C22.3548 32.826 22.3853 32.846 22.411 32.8713C22.4368 32.8967 22.4572 32.9269 22.4711 32.9603C22.4851 32.9936 22.4923 33.0294 22.4923 33.0655C22.4923 33.1379 22.4639 33.2074 22.4132 33.2591C22.3881 33.2851 22.358 33.3058 22.3248 33.3201C22.2915 33.3343 22.2558 33.3418 22.2196 33.3421H19.754V34.164H21.2121C21.2844 34.164 21.3537 34.1927 21.4048 34.2438C21.456 34.2949 21.4847 34.3643 21.4847 34.4366C21.4856 34.4726 21.479 34.5084 21.4654 34.5417C21.4518 34.575 21.4315 34.6051 21.4057 34.6302C21.3808 34.6566 21.3508 34.6775 21.3175 34.6918C21.2842 34.7061 21.2483 34.7133 21.2121 34.7132H19.754V35.5351H21.2121C21.2482 35.5345 21.2841 35.5412 21.3176 35.5547C21.3511 35.5681 21.3817 35.5881 21.4074 35.6135C21.4331 35.6389 21.4536 35.6691 21.4675 35.7024C21.4815 35.7358 21.4887 35.7716 21.4886 35.8077C21.4887 35.8801 21.4603 35.9496 21.4096 36.0013C21.3845 36.0273 21.3544 36.048 21.3212 36.0622C21.2879 36.0765 21.2522 36.084 21.216 36.0843H19.758V36.9101H21.216C21.2884 36.9111 21.3576 36.94 21.4091 36.9908C21.4607 37.0416 21.4906 37.1104 21.4926 37.1827C21.4923 37.2189 21.4848 37.2546 21.4706 37.2879C21.4563 37.3211 21.4356 37.3512 21.4096 37.3763C21.3849 37.4029 21.3549 37.424 21.3216 37.4383C21.2882 37.4525 21.2523 37.4597 21.216 37.4593H19.758V38.2812H21.216C21.2521 38.2807 21.288 38.2873 21.3216 38.3008C21.3551 38.3143 21.3856 38.3343 21.4114 38.3596C21.4371 38.385 21.4575 38.4152 21.4715 38.4486C21.4854 38.4819 21.4926 38.5177 21.4926 38.5538C21.493 38.5897 21.4863 38.6254 21.4727 38.6586C21.4591 38.6919 21.439 38.7221 21.4136 38.7474C21.3885 38.7733 21.3584 38.7936 21.325 38.8072C21.2917 38.8208 21.2559 38.8274 21.22 38.8265H19.7619V39.6483H22.2275C22.2637 39.6478 22.2995 39.6545 22.3331 39.6679C22.3666 39.6814 22.3971 39.7014 22.4229 39.7268C22.4486 39.7521 22.4691 39.7824 22.483 39.8157C22.4969 39.8491 22.5041 39.8848 22.5041 39.921C22.5052 39.9572 22.4989 39.9934 22.4856 40.0271C22.4724 40.0609 22.4524 40.0917 22.4269 40.1175C22.4014 40.1434 22.371 40.1638 22.3374 40.1775C22.3038 40.1913 22.2678 40.1981 22.2315 40.1976H19.7659V45.4053C19.7687 45.5135 19.8125 45.6166 19.8884 45.6938C19.926 45.7333 19.9714 45.7645 20.0218 45.7856C20.0721 45.8067 20.1262 45.8171 20.1808 45.8163L24.2941 45.7965C24.3988 45.7965 24.4993 45.7549 24.5734 45.6808C24.6475 45.6067 24.6892 45.5062 24.6892 45.4014L24.5943 24.5071L33.6151 31.651C33.7201 31.7332 33.8533 31.7706 33.9858 31.755C34.1183 31.7395 34.2392 31.6723 34.3224 31.568L34.8637 30.8844L36.377 28.972L41.7033 22.2548L47.0217 42.4695C47.0342 42.5225 47.0575 42.5723 47.0902 42.6158C47.1228 42.6593 47.1641 42.6956 47.2114 42.7224C47.258 42.75 47.3097 42.7678 47.3634 42.7746C47.4171 42.7814 47.4716 42.7771 47.5236 42.7619L51.4985 41.7188C51.6042 41.6906 51.6948 41.6227 51.7514 41.5291C51.7947 41.4892 51.8285 41.4401 51.8504 41.3854C51.8723 41.3307 51.8817 41.2718 51.8779 41.213ZM22.2947 43.4336C22.1449 43.434 21.9983 43.39 21.8734 43.3072C21.7485 43.2243 21.651 43.1064 21.5931 42.9682C21.5352 42.83 21.5195 42.6777 21.5481 42.5306C21.5766 42.3835 21.648 42.2481 21.7534 42.1416C21.8412 42.0528 21.9495 41.9871 22.0688 41.9502C22.1881 41.9133 22.3147 41.9065 22.4372 41.9302C22.5598 41.954 22.6746 42.0077 22.7715 42.0864C22.8684 42.1652 22.9443 42.2667 22.9925 42.3818C23.0408 42.497 23.0599 42.6223 23.0481 42.7466C23.0363 42.8709 22.994 42.9904 22.925 43.0944C22.856 43.1985 22.7623 43.2839 22.6524 43.343C22.5424 43.4022 22.4196 43.4333 22.2947 43.4336ZM49.4478 39.5693C49.3983 39.656 49.3319 39.7318 49.2525 39.7922C49.173 39.8526 49.0823 39.8964 48.9855 39.921C48.7916 39.9634 48.5888 39.9312 48.4175 39.8309C48.2462 39.7306 48.1189 39.5695 48.0609 39.3796C48.0353 39.2837 48.0292 39.1836 48.0427 39.0852C48.0563 38.9868 48.0893 38.8922 48.1399 38.8067C48.1889 38.7196 48.2552 38.6435 48.3347 38.583C48.4142 38.5225 48.5052 38.479 48.6022 38.455C48.6982 38.4295 48.7983 38.4233 48.8967 38.4368C48.9951 38.4504 49.0897 38.4835 49.1752 38.5341C49.2623 38.583 49.3384 38.6493 49.3989 38.7288C49.4594 38.8083 49.5029 38.8994 49.5268 38.9964C49.5524 39.0923 49.5586 39.1924 49.5451 39.2908C49.5315 39.3892 49.4984 39.4839 49.4478 39.5693Z" fill="white"/>
</svg>
