<svg width="124" height="39" viewBox="0 0 124 39" fill="none" xmlns="http://www.w3.org/2000/svg">
<path d="M109.637 27.498V31.3543" stroke="white" stroke-width="2.24" stroke-miterlimit="10" stroke-linecap="round"/>
<path d="M109.385 26.9375L112.649 30.2022" stroke="white" stroke-width="2.24" stroke-miterlimit="10" stroke-linecap="round"/>
<path d="M109.851 26.9375L106.586 30.2022" stroke="white" stroke-width="2.24" stroke-miterlimit="10" stroke-linecap="round"/>
<path d="M115.79 27.1719H103.52" stroke="white" stroke-width="2.24" stroke-miterlimit="10" stroke-linecap="round"/>
<path d="M63.1372 10.9727L64.9484 24.6138H62.9996L61.7158 14.3061L58.0109 21.3766L54.2326 14.2878L52.9487 24.6138H51L52.8295 10.9727H54.4069L57.9925 17.7359L61.5415 10.9727H63.1372Z" fill="white"/>
<path d="M103.418 17.5804C103.984 17.3843 104.472 17.0105 104.808 16.5147C105.145 16.0189 105.312 15.4277 105.285 14.8293C105.299 14.0644 105.046 13.3185 104.569 12.72C104.151 12.1601 103.554 11.7603 102.877 11.5875C101.892 11.4027 100.89 11.3243 99.8877 11.3536H93.8535V13.5912H95.4813V22.3537H93.8535V24.5913H99.8923C100.992 24.6248 102.092 24.5107 103.162 24.252C103.916 24.0411 104.582 23.5944 105.064 22.9773C105.562 22.3341 105.823 21.5389 105.803 20.7259C105.8 19.2189 105.005 18.1704 103.418 17.5804ZM98.9202 13.6142H99.7731C100.331 13.5667 100.891 13.6796 101.387 13.9397C101.549 14.0723 101.676 14.243 101.756 14.4367C101.836 14.6304 101.867 14.8409 101.846 15.0494C101.872 15.2731 101.845 15.5001 101.765 15.7108C101.685 15.9216 101.555 16.11 101.387 16.2599C100.938 16.5231 100.42 16.6431 99.9015 16.6038H98.934L98.9202 13.6142ZM101.736 21.996C101.174 22.2978 100.537 22.43 99.9015 22.3766H98.934V18.8368H99.9015C100.53 18.7909 101.159 18.9313 101.708 19.2403C101.91 19.412 102.067 19.6304 102.165 19.8765C102.263 20.1226 102.3 20.389 102.272 20.6525C102.298 20.9032 102.263 21.1565 102.17 21.3905C102.076 21.6245 101.927 21.8324 101.736 21.996V21.996Z" fill="white"/>
<path d="M110.82 26.131C110.97 26.2792 111.088 26.4566 111.167 26.6521C111.246 26.8477 111.284 27.0573 111.278 27.2681C111.283 27.4788 111.244 27.6881 111.165 27.8835C111.087 28.079 110.969 28.2564 110.82 28.4053C110.67 28.5572 110.492 28.6779 110.295 28.7603C110.098 28.8426 109.887 28.885 109.674 28.885C109.46 28.885 109.249 28.8426 109.052 28.7603C108.855 28.6779 108.677 28.5572 108.527 28.4053C108.378 28.2564 108.261 28.079 108.182 27.8835C108.103 27.6881 108.065 27.4788 108.069 27.2681C108.064 27.0581 108.102 26.8492 108.181 26.6545C108.26 26.4597 108.378 26.2831 108.527 26.1356C108.676 25.9875 108.853 25.8706 109.047 25.7918C109.242 25.7131 109.45 25.6741 109.66 25.6771C109.874 25.6684 110.088 25.7042 110.288 25.7823C110.487 25.8605 110.668 25.9792 110.82 26.131V26.131Z" fill="white"/>
<path d="M106.756 15.416H112.465V17.539H111.098V24.6278H106.756V22.5048H108.159V17.539H106.756V15.416Z" fill="white"/>
<path d="M122.843 16.5151C122.501 16.0837 122.063 15.7378 121.564 15.5046C121.065 15.2714 120.519 15.1574 119.968 15.1716C119.464 15.1748 118.967 15.291 118.514 15.5116C118.061 15.7322 117.663 16.0516 117.35 16.4463V11.375H112.811V13.498H114.411V22.4897H112.811V24.6127H117.35V23.5489C117.692 23.9235 118.107 24.2233 118.57 24.4293C119.034 24.6353 119.535 24.743 120.042 24.7456C120.575 24.7572 121.104 24.6482 121.589 24.4266C122.074 24.2051 122.503 23.8769 122.843 23.4663C123.565 22.4512 123.953 21.2364 123.953 19.9907C123.953 18.745 123.565 17.5303 122.843 16.5151V16.5151ZM120.422 21.8386C120.268 22.0342 120.071 22.1923 119.846 22.3009C119.622 22.4096 119.376 22.4661 119.127 22.4661C118.877 22.4661 118.631 22.4096 118.407 22.3009C118.183 22.1923 117.986 22.0342 117.831 21.8386C117.496 21.2844 117.321 20.6478 117.327 19.9999C117.332 19.352 117.518 18.7185 117.864 18.1704C118.025 17.9836 118.225 17.8341 118.45 17.732C118.675 17.6298 118.919 17.5776 119.166 17.5789C119.411 17.5697 119.655 17.6185 119.878 17.7212C120.101 17.824 120.297 17.9779 120.45 18.1704C120.811 18.6898 120.983 19.3182 120.936 19.9494C120.985 20.6193 120.803 21.2857 120.422 21.8386V21.8386Z" fill="white"/>
<path d="M83.4223 23.1872C83.2553 23.024 83.1486 22.809 83.1197 22.5774C83.0657 22.1854 83.0427 21.7899 83.0509 21.3944V19.4502C83.0821 18.5286 82.9675 17.6079 82.7116 16.722C82.5386 16.1323 82.1573 15.6256 81.6386 15.296C81.0347 14.9846 80.3595 14.8375 79.6807 14.8695C79.0728 14.8678 78.4682 14.959 77.8879 15.1401C77.3627 15.2997 76.8693 15.5495 76.4298 15.8783L76.6866 17.2997C77.0834 17.0095 77.5227 16.7822 77.9888 16.6257C78.3809 16.5047 78.7889 16.4429 79.1993 16.4423C79.7667 16.3927 80.3323 16.5562 80.7858 16.9008C81.1159 17.2034 81.281 17.7858 81.281 18.6432C79.9074 18.6391 78.5478 18.9185 77.2872 19.464C76.7659 19.6616 76.3199 20.018 76.0121 20.4828C75.7044 20.9477 75.5506 21.4976 75.5723 22.0546C75.5607 22.424 75.6269 22.7917 75.7667 23.1338C75.9065 23.4759 76.1168 23.7846 76.3839 24.0401C76.6693 24.3057 77.005 24.5116 77.3712 24.6454C77.7374 24.7793 78.1266 24.8385 78.5161 24.8196C79.0772 24.8212 79.6315 24.6959 80.1373 24.4529C80.6432 24.2099 81.0875 23.8556 81.4369 23.4165C81.5517 23.7025 81.7061 23.9711 81.8954 24.2143C82.0834 24.4322 82.3301 24.5913 82.6061 24.6728C83.0249 24.7915 83.4596 24.8441 83.8946 24.8287H84.0322L84.3027 23.4256H84.1284C83.8714 23.4383 83.6191 23.3531 83.4223 23.1872ZM81.2947 22.1188C81.0083 22.5009 80.6401 22.8142 80.2172 23.0359C79.7957 23.2668 79.3223 23.3868 78.8416 23.3844C78.4488 23.4055 78.0624 23.2778 77.7595 23.0267C77.6185 22.8823 77.5099 22.7094 77.4411 22.5196C77.3723 22.3298 77.3448 22.1275 77.3606 21.9263C77.3434 21.6062 77.4213 21.2883 77.5845 21.0125C77.7477 20.7367 77.9889 20.5154 78.2776 20.3764C78.8829 20.0555 79.8825 19.8721 81.2856 19.8216L81.2947 22.1188Z" fill="white"/>
<path d="M89.2446 19.5053L93.1421 24.6132H91.0008L87.3922 19.762V24.6132H85.6406V10H87.3922V19.3723L90.8999 15.0621H93.0458L89.2446 19.5053Z" fill="white"/>
<path d="M74.0692 23.1874C73.9022 23.0242 73.7955 22.8092 73.7666 22.5775C73.7057 22.1816 73.6766 21.7814 73.6795 21.3808V19.4366C73.7106 18.515 73.5961 17.5943 73.3401 16.7084C73.1671 16.1188 72.7858 15.612 72.2672 15.2824C71.6634 14.9706 70.9881 14.8235 70.3093 14.856C69.7014 14.8542 69.0968 14.9454 68.5165 15.1265C67.9985 15.2835 67.5114 15.5285 67.0767 15.851L67.3289 17.2724C67.7282 16.9869 68.1689 16.7642 68.6357 16.6121C69.0261 16.4905 69.4327 16.4287 69.8416 16.4287C70.409 16.3792 70.9746 16.5426 71.4281 16.8872C71.7628 17.1899 71.9279 17.7722 71.9279 18.6296C70.5542 18.6245 69.1944 18.9039 67.9341 19.4504C67.5089 19.6293 67.134 19.9097 66.8421 20.2669C66.5503 20.6242 66.3504 21.0475 66.2599 21.4999C66.1695 21.9523 66.1912 22.4199 66.3231 22.8619C66.4551 23.304 66.6934 23.707 67.0171 24.0357C67.3027 24.3009 67.6385 24.5065 68.0046 24.6403C68.3707 24.7741 68.7598 24.8336 69.1492 24.8152C69.711 24.8169 70.266 24.6915 70.7726 24.4486C71.2791 24.2056 71.7243 23.8513 72.0746 23.4121C72.1859 23.6998 72.3405 23.9689 72.5331 24.2099C72.7203 24.4288 72.9673 24.5882 73.2439 24.6684C73.6611 24.7871 74.0943 24.8397 74.5277 24.8243H74.6653L74.9358 23.4212H74.7616C74.5098 23.4317 74.2631 23.3484 74.0692 23.1874ZM71.9462 22.119C71.6584 22.5016 71.2887 22.8149 70.8641 23.0361C70.4429 23.2678 69.9693 23.3877 69.4885 23.3846C69.0955 23.4066 68.7088 23.2788 68.4064 23.0269C68.2654 22.8825 68.1568 22.7096 68.088 22.5198C68.0192 22.33 67.9917 22.1277 68.0075 21.9264C67.9897 21.6063 68.0673 21.2881 68.2306 21.0122C68.3938 20.7363 68.6354 20.5151 68.9245 20.3766C69.5359 20.0709 70.5401 19.886 71.9371 19.8218L71.9462 22.119Z" fill="white"/>
<path d="M37.1816 25.1471L39.7378 24.8105" stroke="white" stroke-width="2.2405" stroke-miterlimit="10" stroke-linecap="round"/>
<path d="M35.5918 13.0807L38.1502 12.7441" stroke="white" stroke-width="2.2405" stroke-miterlimit="10" stroke-linecap="round"/>
<path d="M35.1953 10.065L37.7515 9.72852" stroke="white" stroke-width="2.2405" stroke-miterlimit="10" stroke-linecap="round"/>
<path d="M36.3867 19.1139L38.9429 18.7773" stroke="white" stroke-width="2.2405" stroke-miterlimit="10" stroke-linecap="round"/>
<path d="M36.7832 22.1314L39.3393 21.7949" stroke="white" stroke-width="2.2405" stroke-miterlimit="10" stroke-linecap="round"/>
<path d="M35.9902 16.0986L38.5464 15.7598" stroke="white" stroke-width="2.2405" stroke-miterlimit="10" stroke-linecap="round"/>
<path d="M4.55614 14.0996L2 14.4361" stroke="white" stroke-width="2.2405" stroke-miterlimit="10" stroke-linecap="round"/>
<path d="M6.14403 26.166L3.58789 26.5025" stroke="white" stroke-width="2.2405" stroke-miterlimit="10" stroke-linecap="round"/>
<path d="M6.54282 29.1816L3.98438 29.5182" stroke="white" stroke-width="2.2405" stroke-miterlimit="10" stroke-linecap="round"/>
<path d="M5.35106 20.1328L2.79492 20.4693" stroke="white" stroke-width="2.2405" stroke-miterlimit="10" stroke-linecap="round"/>
<path d="M4.95263 17.1152L2.39648 17.4518" stroke="white" stroke-width="2.2405" stroke-miterlimit="10" stroke-linecap="round"/>
<path d="M5.74755 23.1484L3.19141 23.485" stroke="white" stroke-width="2.2405" stroke-miterlimit="10" stroke-linecap="round"/>
<path d="M10.4727 34.4336L10.8092 36.9897" stroke="white" stroke-width="2.2405" stroke-miterlimit="10" stroke-linecap="round"/>
<path d="M22.5371 32.8438L22.8736 35.3999" stroke="white" stroke-width="2.2405" stroke-miterlimit="10" stroke-linecap="round"/>
<path d="M25.5547 32.4453L25.8912 35.0038" stroke="white" stroke-width="2.2405" stroke-miterlimit="10" stroke-linecap="round"/>
<path d="M16.5059 33.6387L16.8424 36.1971" stroke="white" stroke-width="2.2405" stroke-miterlimit="10" stroke-linecap="round"/>
<path d="M13.4883 34.0352L13.8248 36.5913" stroke="white" stroke-width="2.2405" stroke-miterlimit="10" stroke-linecap="round"/>
<path d="M19.5215 33.2422L19.858 35.7983" stroke="white" stroke-width="2.2405" stroke-miterlimit="10" stroke-linecap="round"/>
<path d="M30.4342 4.6577L30.0977 2.10156" stroke="white" stroke-width="2.2405" stroke-miterlimit="10" stroke-linecap="round"/>
<path d="M18.3678 6.24559L18.0312 3.68945" stroke="white" stroke-width="2.2405" stroke-miterlimit="10" stroke-linecap="round"/>
<path d="M15.3502 6.64208L15.0137 4.08594" stroke="white" stroke-width="2.2405" stroke-miterlimit="10" stroke-linecap="round"/>
<path d="M24.399 5.45263L24.0625 2.89648" stroke="white" stroke-width="2.2405" stroke-miterlimit="10" stroke-linecap="round"/>
<path d="M27.4166 5.05419L27.0801 2.49805" stroke="white" stroke-width="2.2405" stroke-miterlimit="10" stroke-linecap="round"/>
<path d="M21.3814 5.84751L21.0449 3.28906" stroke="white" stroke-width="2.2405" stroke-miterlimit="10" stroke-linecap="round"/>
<path d="M3.79915 7.64472C3.79915 7.64472 3.92592 7.5456 4.00659 7.47646L10.7484 2L11.3293 6.34936L33.1637 3.47514C34.2516 3.33224 35.2381 3.98683 35.3602 4.94106L35.9042 9.07606L37.7043 22.8433L38.6263 29.7856C38.7531 30.7376 37.9348 31.2977 37.4231 31.6987L30.2664 37L29.6925 32.7106L8.52882 35.4995C7.4409 35.6424 6.4544 34.9855 6.33224 34.0336L3.06158 9.19361C3.03429 8.89302 3.08837 8.59061 3.21813 8.3181C3.3479 8.04559 3.54858 7.813 3.79915 7.64472Z" fill="white"/>
<path d="M27.4315 11.5434C27.4251 11.5197 27.415 11.4971 27.4015 11.4766C27.4093 11.5169 27.4082 11.5584 27.3982 11.5982C27.3883 11.638 27.3697 11.6752 27.3439 11.7071L26.8184 12.3709L27.5951 12.1657L27.4315 11.5434Z" fill="#263238"/>
<path d="M31.0954 25.4579L30.3279 22.5192L28.9449 22.8857C28.9245 22.8912 28.9032 22.8927 28.8822 22.8899C28.8613 22.8871 28.841 22.8802 28.8228 22.8695C28.7862 22.8474 28.7597 22.8118 28.749 22.7704C28.7435 22.7503 28.742 22.7292 28.7447 22.7085C28.7474 22.6878 28.7542 22.6679 28.7647 22.6498C28.7753 22.6318 28.7893 22.616 28.806 22.6035C28.8227 22.591 28.8417 22.5819 28.862 22.5768L30.2449 22.2103L30.1227 21.7493L29.2999 21.9637C29.2586 21.9747 29.2147 21.9689 29.1777 21.9476C29.1418 21.9258 29.1154 21.8912 29.104 21.8507C29.0941 21.8095 29.1005 21.7661 29.122 21.7295C29.1435 21.693 29.1784 21.6662 29.2192 21.6548L30.0421 21.4382L29.9199 20.9772L29.0971 21.1938C29.0766 21.1994 29.0553 21.2009 29.0344 21.1981C29.0134 21.1953 28.9932 21.1884 28.9749 21.1777C28.9389 21.156 28.9126 21.1214 28.9011 21.0809C28.8956 21.0605 28.8942 21.0391 28.897 21.0182C28.8999 20.9972 28.9068 20.977 28.9176 20.9587C28.9283 20.9405 28.9426 20.9246 28.9595 20.9119C28.9765 20.8992 28.9958 20.8901 29.0164 20.885L29.8369 20.6683L29.7148 20.2074L28.8919 20.424C28.8717 20.4292 28.8507 20.4302 28.8301 20.427C28.8095 20.4239 28.7898 20.4166 28.7721 20.4056C28.7538 20.3954 28.7378 20.3815 28.7251 20.3649C28.7124 20.3482 28.7033 20.3291 28.6983 20.3088C28.6927 20.2885 28.6913 20.2673 28.6939 20.2464C28.6966 20.2256 28.7034 20.2055 28.7139 20.1872C28.7244 20.169 28.7384 20.1531 28.7551 20.1403C28.7718 20.1275 28.7909 20.1182 28.8113 20.1128L29.6341 19.8985L29.5119 19.4375L28.6891 19.6542C28.6691 19.6597 28.6481 19.6611 28.6275 19.6583C28.6069 19.6556 28.5871 19.6487 28.5692 19.638C28.5509 19.628 28.5348 19.6141 28.5221 19.5975C28.5094 19.5808 28.5003 19.5616 28.4955 19.5412C28.4899 19.5209 28.4884 19.4998 28.4911 19.4789C28.4938 19.458 28.5006 19.4379 28.5111 19.4197C28.5216 19.4015 28.5356 19.3855 28.5523 19.3728C28.569 19.36 28.5881 19.3507 28.6084 19.3453L29.4313 19.1287L29.3091 18.6677L27.9262 19.0318C27.9061 19.0374 27.8852 19.0388 27.8646 19.036C27.844 19.0332 27.8242 19.0263 27.8063 19.0157C27.7877 19.006 27.7714 18.9923 27.7586 18.9756C27.7459 18.9588 27.737 18.9395 27.7326 18.9189C27.727 18.8988 27.7256 18.8777 27.7283 18.857C27.731 18.8363 27.7378 18.8164 27.7483 18.7983C27.7588 18.7803 27.7728 18.7645 27.7895 18.752C27.8062 18.7395 27.8252 18.7304 27.8455 18.7253L29.2284 18.3588L29.1063 17.8978L28.2834 18.1145C28.263 18.1201 28.2417 18.1215 28.2207 18.1187C28.1997 18.116 28.1795 18.109 28.1613 18.0984C28.1253 18.0766 28.099 18.042 28.0875 18.0016C28.082 17.9811 28.0806 17.9598 28.0834 17.9388C28.0862 17.9178 28.0932 17.8976 28.1039 17.8794C28.1147 17.8611 28.1289 17.8452 28.1459 17.8325C28.1629 17.8199 28.1822 17.8107 28.2028 17.8056L29.0233 17.589L28.9011 17.128L28.0783 17.3447C28.0583 17.3502 28.0373 17.3516 28.0167 17.3488C27.9961 17.346 27.9763 17.3391 27.9584 17.3285C27.9218 17.3064 27.8954 17.2708 27.8847 17.2294C27.8791 17.2093 27.8777 17.1882 27.8804 17.1675C27.8831 17.1468 27.8899 17.1269 27.9004 17.1088C27.9109 17.0908 27.9249 17.075 27.9416 17.0625C27.9583 17.05 27.9774 17.0409 27.9976 17.0358L28.8205 16.8191L28.6983 16.3582L27.8755 16.5748C27.8554 16.5803 27.8345 16.5817 27.8139 16.579C27.7933 16.5762 27.7735 16.5693 27.7556 16.5587C27.7372 16.5486 27.7212 16.5348 27.7085 16.5181C27.6957 16.5014 27.6867 16.4823 27.6818 16.4619C27.6763 16.4416 27.6748 16.4204 27.6775 16.3996C27.6801 16.3787 27.6869 16.3586 27.6974 16.3403C27.7079 16.3221 27.7219 16.3062 27.7387 16.2934C27.7554 16.2806 27.7744 16.2713 27.7948 16.266L28.6176 16.0493L28.4955 15.5883L27.6726 15.805C27.6314 15.816 27.5874 15.8102 27.5505 15.7888C27.5139 15.7667 27.4874 15.7311 27.4767 15.6897C27.4669 15.6488 27.4734 15.6057 27.4949 15.5695C27.5165 15.5333 27.5513 15.507 27.592 15.4961L28.4148 15.2795L28.2926 14.8185L26.9097 15.1827C26.8685 15.1936 26.8245 15.1878 26.7875 15.1665C26.7516 15.1448 26.7252 15.1102 26.7138 15.0697C26.7039 15.0285 26.7103 14.985 26.7318 14.9485C26.7533 14.9119 26.7882 14.8852 26.829 14.8738L28.212 14.5073L28.0921 14.0463L27.2693 14.263C27.2489 14.2686 27.2275 14.27 27.2066 14.2672C27.1856 14.2645 27.1654 14.2575 27.1471 14.2469C27.1112 14.2251 27.0848 14.1905 27.0734 14.1501C27.0678 14.1298 27.0663 14.1086 27.069 14.0877C27.0716 14.0669 27.0784 14.0467 27.0889 14.0285C27.0994 14.0103 27.1134 13.9943 27.1302 13.9816C27.1469 13.9688 27.166 13.9595 27.1863 13.9541L28.0091 13.7375L27.887 13.2765L27.0641 13.4909C27.0441 13.4964 27.0232 13.4978 27.0026 13.495C26.982 13.4922 26.9621 13.4853 26.9443 13.4747C26.9256 13.465 26.9093 13.4513 26.8966 13.4346C26.8838 13.4178 26.8749 13.3985 26.8705 13.3779C26.865 13.3576 26.8635 13.3364 26.8661 13.3156C26.8688 13.2947 26.8756 13.2746 26.8861 13.2564C26.8966 13.2382 26.9106 13.2222 26.9273 13.2094C26.944 13.1967 26.9631 13.1873 26.9835 13.182L27.8063 12.9653L27.6842 12.5044L26.8613 12.721C26.8413 12.7265 26.8203 12.7279 26.7997 12.7252C26.7791 12.7224 26.7593 12.7155 26.7414 12.7049C26.7043 12.6839 26.6769 12.6491 26.6654 12.6081V12.6081C26.6568 12.5675 26.6639 12.5252 26.6853 12.4897C26.7067 12.4542 26.7408 12.4281 26.7806 12.4168L26.8267 12.4052L27.3522 11.7414C27.3781 11.7095 27.3966 11.6724 27.4066 11.6326C27.4166 11.5927 27.4177 11.5512 27.4099 11.5109C27.3974 11.4402 27.3597 11.3763 27.3038 11.3312L25.7826 10.1257C25.7222 10.0787 25.6458 10.0574 25.5698 10.0665C25.4939 10.0756 25.4246 10.1142 25.3769 10.1741L20.3061 16.5633L14.0299 11.5524C13.9686 11.5045 13.8909 11.4826 13.8136 11.4917C13.7364 11.5008 13.6658 11.54 13.6173 11.6008L12.4188 13.1152C12.3866 13.1546 12.3658 13.202 12.3585 13.2523C12.3512 13.3027 12.3577 13.354 12.3773 13.401C12.3941 13.4511 12.4254 13.4952 12.4672 13.5277L13.29 14.18C13.3121 14.1941 13.3302 14.2135 13.3427 14.2365C13.3552 14.2595 13.3617 14.2852 13.3615 14.3114C13.3621 14.3326 13.3584 14.3536 13.3507 14.3733C13.3429 14.393 13.3313 14.411 13.3164 14.4261C13.3016 14.4411 13.2838 14.453 13.2642 14.4611C13.2446 14.4691 13.2236 14.4731 13.2024 14.4727H12.3519V14.9522H13.2024C13.2342 14.9515 13.2655 14.9604 13.2922 14.9777C13.3189 14.995 13.3398 15.0198 13.3522 15.0491C13.3646 15.0784 13.3679 15.1107 13.3618 15.1419C13.3556 15.1731 13.3403 15.2018 13.3177 15.2241C13.303 15.2393 13.2855 15.2514 13.2661 15.2597C13.2467 15.268 13.2258 15.2724 13.2047 15.2725H12.3542V15.752H13.2047C13.2469 15.752 13.2874 15.7687 13.3172 15.7985C13.347 15.8284 13.3638 15.8688 13.3638 15.911C13.3643 15.932 13.3605 15.9529 13.3525 15.9723C13.3446 15.9917 13.3327 16.0093 13.3177 16.0239C13.3032 16.0393 13.2856 16.0515 13.2662 16.0599C13.2468 16.0682 13.2259 16.0724 13.2047 16.0723H12.3542V16.5518H13.7925C13.8136 16.5515 13.8345 16.5553 13.8541 16.5632C13.8736 16.5711 13.8914 16.5827 13.9064 16.5975C13.9214 16.6123 13.9334 16.63 13.9415 16.6494C13.9496 16.6689 13.9538 16.6897 13.9538 16.7108C13.9534 16.7529 13.9369 16.7933 13.9077 16.8237C13.8775 16.8535 13.8372 16.8708 13.7948 16.8721H12.3565V17.3539H13.207C13.2492 17.3539 13.2897 17.3706 13.3195 17.4005C13.3493 17.4303 13.3661 17.4707 13.3661 17.5129C13.3669 17.5339 13.3632 17.5549 13.3552 17.5744C13.3473 17.5939 13.3353 17.6114 13.32 17.6259C13.3056 17.6413 13.2881 17.6536 13.2686 17.662C13.2492 17.6703 13.2282 17.6745 13.207 17.6743H12.3496V18.1537H13.2001C13.2212 18.1534 13.2421 18.1573 13.2617 18.1651C13.2813 18.173 13.2991 18.1846 13.3141 18.1994C13.3291 18.2142 13.341 18.2319 13.3491 18.2513C13.3573 18.2708 13.3615 18.2916 13.3615 18.3127C13.361 18.3549 13.3445 18.3952 13.3154 18.4257C13.3006 18.4405 13.283 18.4522 13.2636 18.4601C13.2442 18.4681 13.2234 18.472 13.2024 18.4718H12.3519V18.9512H13.2024C13.2235 18.9509 13.2444 18.9548 13.264 18.9626C13.2836 18.9705 13.3014 18.9821 13.3164 18.9969C13.3314 19.0117 13.3433 19.0294 13.3514 19.0488C13.3596 19.0683 13.3638 19.0891 13.3638 19.1102C13.3641 19.1312 13.3602 19.152 13.3523 19.1714C13.3444 19.1909 13.3327 19.2085 13.3179 19.2234C13.303 19.2382 13.2854 19.2499 13.266 19.2578C13.2465 19.2657 13.2257 19.2696 13.2047 19.2693H12.3542V19.7487H13.2047C13.2363 19.7485 13.2673 19.7577 13.2936 19.7752C13.3199 19.7926 13.3405 19.8175 13.3526 19.8467C13.3647 19.8759 13.3678 19.908 13.3616 19.939C13.3554 19.97 13.3401 19.9984 13.3177 20.0207C13.2875 20.0502 13.247 20.0668 13.2047 20.0668H12.3542V20.5462H13.7925C13.8136 20.5459 13.8345 20.5498 13.8541 20.5576C13.8736 20.5655 13.8914 20.5771 13.9064 20.5919C13.9214 20.6067 13.9334 20.6244 13.9415 20.6438C13.9496 20.6633 13.9538 20.6841 13.9538 20.7052C13.9538 20.7474 13.9373 20.788 13.9077 20.8181C13.8931 20.8333 13.8755 20.8454 13.8561 20.8537C13.8367 20.862 13.8159 20.8664 13.7948 20.8666H12.3565V21.346H13.207C13.2492 21.346 13.2897 21.3627 13.3195 21.3926C13.3493 21.4224 13.3661 21.4628 13.3661 21.505C13.3666 21.526 13.3628 21.5469 13.3548 21.5663C13.3469 21.5857 13.335 21.6033 13.32 21.618C13.3055 21.6333 13.288 21.6455 13.2685 21.6539C13.2491 21.6622 13.2282 21.6664 13.207 21.6664H12.3565V22.1458H13.207C13.2281 22.1455 13.249 22.1494 13.2686 22.1572C13.2882 22.1651 13.306 22.1767 13.321 22.1915C13.336 22.2063 13.3479 22.224 13.3561 22.2434C13.3642 22.2629 13.3684 22.2837 13.3684 22.3048C13.3684 22.347 13.3518 22.3876 13.3223 22.4178C13.3076 22.4329 13.2901 22.445 13.2707 22.4533C13.2513 22.4616 13.2304 22.466 13.2093 22.4662H12.3588V22.9479H13.2093C13.2516 22.9485 13.2919 22.9653 13.322 22.995C13.352 23.0246 13.3695 23.0647 13.3707 23.1069C13.3705 23.128 13.3661 23.1489 13.3578 23.1683C13.3495 23.1876 13.3374 23.2052 13.3223 23.2199C13.3079 23.2353 13.2904 23.2476 13.2709 23.256C13.2515 23.2643 13.2305 23.2685 13.2093 23.2683H12.3588V23.7477H13.2093C13.2304 23.7474 13.2513 23.7513 13.2709 23.7591C13.2905 23.767 13.3083 23.7786 13.3233 23.7934C13.3383 23.8082 13.3502 23.8259 13.3584 23.8453C13.3665 23.8648 13.3707 23.8856 13.3707 23.9067C13.3709 23.9277 13.367 23.9485 13.3591 23.9679C13.3512 23.9873 13.3394 24.0049 13.3246 24.0197C13.31 24.0347 13.2924 24.0466 13.2729 24.0545C13.2535 24.0625 13.2326 24.0663 13.2116 24.0658H12.3611V24.5452H13.7994C13.8205 24.5449 13.8414 24.5488 13.861 24.5566C13.8805 24.5645 13.8983 24.5761 13.9133 24.5909C13.9284 24.6057 13.9403 24.6234 13.9484 24.6428C13.9566 24.6623 13.9607 24.6831 13.9607 24.7042C13.9614 24.7254 13.9577 24.7465 13.95 24.7662C13.9422 24.7859 13.9306 24.8038 13.9157 24.8189C13.9008 24.834 13.8831 24.8459 13.8635 24.8539C13.8439 24.8619 13.8229 24.8659 13.8017 24.8656H12.3634V27.9034C12.3651 27.9666 12.3906 28.0267 12.4349 28.0717C12.4568 28.0947 12.4833 28.113 12.5127 28.1253C12.542 28.1376 12.5736 28.1437 12.6055 28.1431L15.0049 28.1316C15.066 28.1316 15.1246 28.1073 15.1678 28.0641C15.2111 28.0209 15.2354 27.9623 15.2354 27.9011L15.18 15.7128L20.4421 19.8801C20.5034 19.928 20.5811 19.9498 20.6584 19.9408C20.7357 19.9317 20.8062 19.8925 20.8547 19.8316L21.1705 19.4329L22.0533 18.3173L25.1603 14.399L28.2627 26.1909C28.27 26.2218 28.2836 26.2508 28.3026 26.2762C28.3216 26.3016 28.3457 26.3228 28.3733 26.3384C28.4005 26.3545 28.4306 26.3649 28.462 26.3688C28.4933 26.3728 28.5251 26.3703 28.5554 26.3615L30.8741 25.753C30.9358 25.7365 30.9886 25.6969 31.0217 25.6423C31.0469 25.619 31.0667 25.5904 31.0794 25.5585C31.0922 25.5266 31.0976 25.4922 31.0954 25.4579ZM13.8386 26.7533C13.7512 26.7535 13.6657 26.7278 13.5928 26.6795C13.52 26.6312 13.4631 26.5624 13.4293 26.4817C13.3955 26.4011 13.3864 26.3123 13.403 26.2265C13.4197 26.1407 13.4613 26.0617 13.5228 25.9996C13.574 25.9478 13.6372 25.9094 13.7068 25.8879C13.7764 25.8664 13.8502 25.8624 13.9217 25.8763C13.9932 25.8902 14.0602 25.9215 14.1167 25.9674C14.1732 26.0134 14.2175 26.0726 14.2456 26.1397C14.2738 26.2069 14.2849 26.28 14.278 26.3525C14.2712 26.425 14.2465 26.4947 14.2062 26.5554C14.166 26.6161 14.1113 26.6659 14.0472 26.7004C13.9831 26.7349 13.9114 26.7531 13.8386 26.7533ZM29.6779 24.4991C29.649 24.5496 29.6103 24.5939 29.5639 24.6291C29.5176 24.6644 29.4646 24.6899 29.4082 24.7042C29.2951 24.729 29.1768 24.7102 29.0769 24.6517C28.9769 24.5932 28.9027 24.4992 28.8689 24.3885C28.854 24.3325 28.8503 24.2741 28.8583 24.2167C28.8662 24.1593 28.8855 24.1041 28.915 24.0542C28.9435 24.0034 28.9822 23.959 29.0286 23.9237C29.0749 23.8885 29.1281 23.8631 29.1846 23.8491C29.2406 23.8342 29.299 23.8306 29.3564 23.8385C29.4138 23.8464 29.469 23.8657 29.5189 23.8952C29.5697 23.9237 29.6141 23.9624 29.6494 24.0088C29.6846 24.0552 29.71 24.1083 29.724 24.1649C29.7389 24.2208 29.7425 24.2792 29.7346 24.3366C29.7267 24.394 29.7074 24.4492 29.6779 24.4991V24.4991Z" fill="#263238"/>
</svg>
