<svg width="349" height="349" viewBox="0 0 349 349" fill="none" xmlns="http://www.w3.org/2000/svg">
<path d="M269.992 24.0314C295.592 40.4314 315.592 65.4314 329.392 92.8314C343.192 120.231 350.992 149.831 348.192 178.031C345.192 206.031 331.592 232.431 316.792 258.031C301.992 283.831 285.992 308.831 263.192 323.831C240.392 338.831 210.592 343.631 179.192 346.631C147.792 349.631 114.592 350.831 86.7917 338.831C58.9917 326.631 36.3917 301.431 20.7917 272.831C5.39169 244.031 -3.00832 211.831 0.991685 181.831C4.79168 152.031 20.9917 124.231 37.5917 97.4314C54.1917 70.6314 71.1917 44.8314 95.1917 27.2314C119.192 9.63141 149.992 0.631395 181.392 0.0313954C212.592 -0.568605 244.192 7.43139 269.992 24.0314Z" fill="#FF0066"/>
</svg>
