<svg width="312" height="313" viewBox="0 0 312 313" fill="none" xmlns="http://www.w3.org/2000/svg">
<path d="M241.378 21.5682C264.354 36.2872 282.304 58.7247 294.689 83.3162C307.075 107.908 312 124.655 312 149.719C312 175.719 296.664 208.607 283.381 231.583C270.098 254.739 255.738 277.176 235.275 290.639C214.812 304.101 188.066 308.409 159.885 311.102C131.703 313.794 101.906 314.871 76.9556 304.101C52.0051 293.152 32.0011 270.888 18.0001 245.219C4.1786 219.371 7.36567e-05 178.219 3.0063e-10 149.719C-7.10718e-05 122.219 12.6015 101.772 27.5 77.7192C42.3985 53.6662 62.9546 40.2362 84.4946 24.4402C106.035 8.64419 133.678 0.566677 161.859 0.0281773C189.861 -0.510323 218.222 6.66968 241.378 21.5682Z" fill="#FF0066"/>
</svg>
