<svg width="571" height="354" viewBox="0 0 571 354" fill="none" xmlns="http://www.w3.org/2000/svg">
<path d="M457.262 121.603C455.442 116.155 451.428 118.066 447.112 119.636L448.431 116.103C447.358 115.351 446.425 114.416 445.675 113.341C445.474 112.207 445.52 111.043 445.811 109.929L446.873 109.922L448.489 112.557L449.041 112.37C448.735 111.302 448.479 110.218 448.109 109.173C447.776 108.231 447.32 107.333 446.688 105.891C447.258 105.927 447.82 106.034 448.363 106.209C453.293 110.845 454.429 110.585 457.426 104.476C459.166 100.955 459.528 96.91 458.441 93.1352C457.354 89.3605 454.896 86.128 451.549 84.0715C450.745 84.6811 449.847 85.3621 448.948 86.0409C447.607 83.2442 447.607 83.2442 440.172 81.9417L442.794 80.5141C442.277 79.7202 442.097 78.7539 442.292 77.8271C442.487 76.9003 443.042 76.0888 443.834 75.5706C446.917 72.1329 451.708 69.3087 451.95 63.4879C452.3 60.8053 452.031 58.0781 451.163 55.5156C450.295 52.9532 448.852 50.6234 446.945 48.7051C444.972 47.346 442.813 46.2783 440.535 45.5348C439.533 45.061 438.522 44.6059 437.515 44.1424C438.542 43.3576 439.62 42.6423 440.742 42.0012C441.526 41.8534 442.331 41.8532 443.115 42.0006C442.858 39.0557 442.794 36.395 442.343 33.8016C442.169 33.3495 441.87 32.9564 441.48 32.6682C441.091 32.3801 440.627 32.2088 440.144 32.1745C439.661 32.1402 439.177 32.2442 438.751 32.4745C438.325 32.7047 437.973 33.0515 437.736 33.4745C436.629 35.4416 435.702 37.5054 434.969 39.6404C432.087 37.4193 433.274 33.7889 438.981 28.6752C436.086 24.5259 431.857 21.4927 426.999 20.0802C424.058 18.9741 419.767 23.443 419.068 27.7813C418.943 28.5568 418.939 29.3518 418.87 30.2633C416.552 27.6163 417.808 24.2458 422.534 19.9689C421.099 19.0867 419.475 18.5582 417.796 18.4272C416.117 18.2962 414.431 18.5663 412.877 19.2154C411.323 19.8644 409.945 20.8737 408.858 22.16C407.771 23.4463 407.005 24.9727 406.624 26.6132L403.321 22.9494L406.826 18.2562C405.353 17.086 403.779 16.0486 402.123 15.156C398.787 13.6688 395.081 13.216 391.484 13.8562C387.887 14.4963 384.565 16.1999 381.947 18.747C376.775 23.0098 372.451 28.2063 369.199 34.0662C368.778 33.8098 368.42 33.461 368.153 33.0462C367.887 32.6315 367.718 32.1615 367.659 31.6719C367.601 31.1822 367.654 30.6857 367.815 30.2197C367.977 29.7538 368.242 29.3305 368.591 28.982C369.576 27.4531 370.653 25.9857 371.817 24.588C363.61 21.3884 357.094 22.5782 355.417 29.0465L356.109 29.763L359.535 26.4544L361.584 28.9476C362.442 28.2205 363.265 27.4458 364.171 26.7829C364.803 26.3818 365.463 26.0277 366.146 25.7232C366.187 26.3985 366.216 27.0745 366.27 27.7487C366.391 29.272 366.525 30.7941 366.678 32.6052C363.404 34.6532 361.911 30.2842 358.191 29.6318L361.931 36.7943L354.359 32.0885L353.667 33.0662L358.275 38.8479L357.561 39.5519C355.034 38.3161 352.908 34.8005 349.461 38.2436L348.745 34.8167L345.714 39.6669C348.503 41.2309 352.176 41.6322 352.804 45.2183C350.009 44.4254 347.176 43.7778 344.314 43.2782C343.544 44.1764 342.95 45.2121 342.564 46.3308L349.232 48.2668C346.728 50.1571 343.224 46.9007 341.66 50.5738L349.6 54.5812L349.155 55.7522C346.529 55.1967 343.723 52.5672 341.859 55.4296L349.14 59.5326L348.813 60.5157L344.768 61.1011L345.686 64.9294C347.287 64.2126 348.926 63.5819 350.594 63.04C352.061 62.7348 353.547 62.5308 355.042 62.4293L355.293 63.8548C352.447 64.3513 349.694 65.2795 347.128 66.6071C344.731 68.8609 342.631 71.4101 340.877 74.1936L343.307 74.0102C343.673 77.624 338.061 78.5766 339.141 82.5748L345.943 77.1773C345.608 79.5097 341.933 80.7556 343.79 83.7998C341.352 85.1925 342.159 86.34 343.579 88.1893C343.856 89.7647 343.652 91.387 342.994 92.8449C342.525 93.9763 342.173 95.1527 341.943 96.3558C342.078 98.6737 341.689 100.992 340.804 103.139C340.352 105.629 340.418 108.185 341 110.648L342.705 110.846C343.351 109.549 343.829 108.176 344.13 106.76C344.098 104.877 344.528 103.015 345.383 101.337C346.238 99.6586 347.491 98.2159 349.033 97.1348C349.365 96.8685 349.634 96.5322 349.821 96.1501C350.008 95.7679 350.108 95.3492 350.115 94.9238C349.933 92.0249 349.511 89.141 349.161 86.0971L345.782 86.4175C347.113 85.3254 348.15 83.9177 348.798 82.3224C349.446 80.7272 349.685 78.9952 349.493 77.2841C349.011 76.8074 348.418 76.4585 347.767 76.2692L350.72 73.2695C351.977 77.0684 348.124 81.6199 352.915 84.3576C351.769 88.2344 350.689 87.1855 354.361 95.1967L351.771 92.2348C352.097 94.275 353.004 96.1778 354.385 97.7148C355.766 99.2518 357.561 100.358 359.554 100.9C360.54 96.179 361.529 91.4416 362.521 86.6874L363.88 86.9937C363.242 88.6869 362.735 90.4269 362.365 92.1983C362.038 94.4888 361.966 96.8085 362.151 99.1149C362.551 100.121 363.176 101.023 363.979 101.75C364.852 101.063 365.607 100.238 366.213 99.3076C367.065 96.8318 368.834 94.777 371.155 93.5668C373.477 92.3566 376.174 92.0832 378.691 92.803C376.057 92.7465 373.48 93.5852 371.384 95.1822C369.288 96.7792 367.795 99.04 367.15 101.595C366.63 104.194 366.353 106.835 366.321 109.485C366.375 111.42 366.234 113.356 365.9 115.263C364.607 111.761 363.477 108.184 361.933 104.797C361.102 103.619 360 102.659 358.721 101.996C357.012 100.79 355.123 99.8279 353.471 98.5538C351.721 97.2037 350.144 97.0418 349.071 99.0677C347.813 101.52 346.721 104.054 345.802 106.652C345.765 107.015 345.822 107.382 345.968 107.717C346.113 108.051 346.342 108.343 346.633 108.564C346.998 108.674 347.381 108.708 347.759 108.665C348.138 108.621 348.503 108.501 348.833 108.311C350.002 107.529 351.247 106.868 352.549 106.336L346.62 114.84L347.416 115.517L350.395 114.446L346.827 125.631L350.308 126.644L354.467 120.129L355.692 120.53C355.782 122.879 355.262 125.211 354.182 127.3C350.585 128.868 352.071 131.449 351.99 133.65C352.869 134.588 353.937 135.329 355.123 135.824L354.341 139.291L355.166 139.83C355.691 138.912 356.058 137.913 356.252 136.874C356.026 135.592 356.227 134.271 356.824 133.113C357.421 131.956 358.381 131.026 359.556 130.466C360.133 130.334 360.724 130.269 361.316 130.273C360.426 133.582 356.773 136.127 359.09 140.034C361.069 138.299 361.784 134.824 366.06 136.098C364.438 137.087 363.096 138.475 362.164 140.13C361.232 141.785 360.739 143.652 360.734 145.551L362.771 141.695L363.623 141.982C363.261 143.576 362.844 145.159 362.553 146.766C362.264 148.363 362.102 149.984 361.884 151.595L362.688 152.111C363.983 150.494 365.385 148.965 366.884 147.536C367.967 146.887 369.147 146.418 370.38 146.147C370.133 147.277 369.968 148.435 369.612 149.53C369.362 150.298 368.74 150.943 368.477 151.709C366.822 156.533 367.452 157.333 372.888 156.926C367.96 159.66 369.449 164.231 368.641 168.568L374.447 166.188L368.364 174.034L369.102 174.634L371.576 171.099L372.25 171.364L370.439 179.352L374.456 174.888L375.171 174.964C375.044 176.01 374.995 177.073 374.776 178.1C374.18 180.894 371.771 183.653 375.083 186.473C375.241 187.794 374.925 189.128 374.191 190.238C373.479 191.583 373.083 193.072 373.034 194.593C372.985 196.114 373.284 197.626 373.909 199.013L377.497 189.241L380.696 189.517L380.561 196.416L381.28 196.61L383.204 193.907L384.065 194.12L382.841 204.016L383.873 204.522L387.393 200.127C387.284 201.745 387.274 202.73 387.142 203.698C386.913 204.451 386.858 205.247 386.983 206.025C387.108 206.802 387.408 207.541 387.862 208.185C388.315 208.829 388.909 209.362 389.599 209.742C390.289 210.122 391.056 210.339 391.842 210.378C392.499 210.865 393.021 211.51 393.362 212.252C392.638 212.853 391.767 213.252 390.839 213.409C388.794 212.852 386.84 212.004 385.037 210.89C381.038 208.442 377.208 205.729 373.573 202.767C371.868 201.27 370.695 199.261 370.23 197.04C369.764 194.82 370.032 192.508 370.993 190.453C371.402 189.564 371.48 188.557 371.212 187.616C370.944 186.674 370.348 185.86 369.532 185.319C367.475 183.399 365.53 181.362 363.708 179.217C361.997 177.412 360.905 175.108 360.591 172.64C360.277 170.172 360.758 167.668 361.963 165.492C362.431 164.551 362.642 163.468 363.189 162.584C363.666 162.097 364.003 161.49 364.163 160.827C364.323 160.164 364.3 159.469 364.097 158.818C363.894 158.167 363.518 157.583 363.01 157.128C362.501 156.674 361.879 156.365 361.209 156.236C359.108 155.546 357.342 154.093 356.262 152.163C355.181 150.234 354.863 147.969 355.372 145.817C355.395 145.297 355.289 144.78 355.063 144.311C354.836 143.843 354.497 143.438 354.075 143.133C350.279 141.668 346.935 139.231 344.376 136.068C341.817 132.905 340.133 129.125 339.493 125.107C339.403 124.766 339.275 124.436 339.111 124.125C338.969 123.811 338.801 123.509 338.432 124.006C331.079 122.451 323.757 120.723 316.358 119.435C313.722 119.103 311.048 119.251 308.465 119.872C303.791 120.81 299.253 122.679 294.554 123.174C287.909 124.137 281.144 123.879 274.592 122.412C267.898 121.178 261.022 121.339 254.394 122.884C244.214 124.8 233.748 124.601 223.648 122.298C218.732 121.109 213.599 121.136 208.695 122.376C199.501 125.027 189.789 125.329 180.448 123.254C178.069 122.855 175.624 123.18 173.432 124.186C166.765 127.161 159.46 128.421 152.182 127.853C144.429 126.923 136.674 125.859 129.008 124.395C122.676 123.95 116.321 124.862 110.37 127.072C104.328 128.419 98.1409 129.114 92.0166 130.089C75.8802 132.658 60.1394 129.196 44.5421 126.133C37.9282 125.791 31.3001 125.83 24.6906 126.249C21.7969 125.819 18.8609 125.752 15.9507 126.05C11.8191 126.735 7.81393 128.169 3.7422 129.235C2.63034 129.527 1.47359 129.647 0.337438 129.845L0 128.702C0.519842 127.986 1.19053 127.394 1.96461 126.966C7.4885 125.513 13.0822 124.338 18.7244 123.448C24.5256 122.704 30.429 122.733 36.2905 122.497C38.2782 122.319 40.2798 122.369 42.256 122.647C58.5876 126.662 75.4142 128.291 92.2126 127.485C100.723 126.521 109.135 124.825 117.355 122.417C123.404 120.821 129.771 120.875 135.792 122.576C143.01 125.011 150.652 125.937 158.242 125.296C163.602 124.461 168.765 122.414 174.061 121.089C176.117 120.299 178.344 120.06 180.522 120.393C188.024 122.399 195.904 122.528 203.468 120.77C205.672 120.493 207.849 120.035 209.977 119.4C216.792 117.964 223.868 118.391 230.461 120.635C238.564 122.048 246.864 121.879 254.903 120.136C259.475 119.146 264.163 118.799 268.832 119.106C277.977 120.756 287.298 121.209 296.561 120.454C301.843 119.623 306.944 117.69 312.178 116.478C313.844 116.192 315.548 116.22 317.203 116.56C323.373 117.526 329.519 118.651 335.683 119.66C337.75 119.999 338.091 118.739 338.378 116.95C338.696 115.505 338.646 114.002 338.234 112.581C337.822 111.159 337.06 109.863 336.017 108.812C331.614 103.059 329.65 95.806 330.547 88.6174C330.702 86.6171 331.565 84.7375 332.98 83.3152C333.928 82.3743 334.661 81.2393 335.13 79.9883C335.598 78.7373 335.789 77.3998 335.692 76.0676C335.636 74.1942 335.89 72.3244 336.446 70.5342C338.226 65.429 338.866 59.9961 338.323 54.6169C338.476 47.6219 340.956 40.8774 345.371 35.4493C348.749 30.4823 352.822 26.0261 357.467 22.2172C359.246 20.851 361.362 19.9928 363.59 19.7338C365.818 19.4748 368.074 19.8248 370.119 20.7466C371.245 21.444 372.581 21.7221 373.892 21.5321C375.203 21.342 376.405 20.696 377.287 19.7076C378.887 18.1534 380.592 16.711 382.39 15.3906C385.366 12.8605 389.026 11.2705 392.907 10.8218C396.787 10.3731 400.713 11.0859 404.188 12.87C406.041 14.1613 407.686 15.728 409.067 17.5158C412.852 15.8652 416.984 15.1664 421.102 15.4805C425.219 15.7946 429.197 17.1121 432.689 19.3177C435.947 20.6791 438.843 22.782 441.146 25.459C443.449 28.136 445.096 31.3135 445.956 34.7387C446.221 35.383 446.32 36.0832 446.246 36.7757C443.28 42.5888 447.986 45.0731 451.415 48.5594C468.806 35.6623 483.486 19.465 494.616 0.892822C506.495 28.1463 520.796 54.2793 537.345 78.9775C537.445 80.0922 537.301 81.2152 536.923 82.2686C530.134 76.3118 523.877 70.8232 517.62 65.3349L516.948 65.9817C518.56 68.3326 520.222 70.6504 521.773 73.0401C528.043 82.6967 534.218 92.4159 540.564 102.022C542.501 104.954 544.979 107.524 546.984 110.417C547.462 111.54 547.73 112.742 547.772 113.962C546.691 114.146 545.585 114.122 544.512 113.891C536.854 110.383 529.26 106.734 521.645 103.131C520.429 102.466 519.071 102.1 517.685 102.063C519.299 104.808 520.721 107.69 522.563 110.273C528.157 118.114 533.821 125.909 539.651 133.576C542.059 136.756 544.749 139.713 547.688 142.41C548.127 142.651 548.499 142.997 548.77 143.417C549.042 143.837 549.204 144.318 549.243 144.817C549.282 145.316 549.196 145.816 548.993 146.273C548.79 146.73 548.476 147.13 548.08 147.435L523.46 134.484L522.86 135.251C525.657 140.224 528.321 145.278 531.279 150.153C537.061 159.68 542.748 169.283 548.99 178.505C552.379 183.514 556.908 187.74 560.744 192.465C561.542 193.824 562.133 195.295 562.499 196.829C560.981 196.835 559.472 196.587 558.035 196.095C549.686 191.437 541.44 186.594 532.476 181.416C533.717 183.458 534.628 185.054 535.633 186.587C536.727 188.256 537.949 189.84 539.042 191.51C543.094 197.702 547.191 203.866 551.127 210.131C554.45 215.973 559.016 221.014 564.504 224.894C565.283 225.928 565.8 227.136 566.008 228.414C564.93 228.771 563.796 228.928 562.661 228.878C552.833 226.397 545.45 219.556 537.137 214.368C535.048 213.064 532.96 211.742 530.988 210.272C528.088 208.109 525.273 205.831 522.458 203.557C518.217 200.132 514.009 196.667 509.807 193.237C510.026 200.751 515.626 205.359 519.659 210.73C528.185 222.086 536.88 233.313 545.746 244.413C551.014 251.787 557.912 257.848 565.904 262.122C567.745 263.28 569.454 264.637 571 266.168C569.829 267.115 568.393 267.675 566.891 267.771C565.388 267.867 563.893 267.495 562.611 266.706C559.482 265.454 556.253 264.471 552.957 263.768C544.755 260.964 536.47 258.339 528.462 255.049C519.366 251.314 510.537 246.929 501.587 242.838C500.001 242.114 498.387 241.45 496.005 240.42C495.288 251.912 494.599 262.953 493.938 273.544C499.833 276.793 496.711 282.823 498.496 286.41C499.987 285.599 501.665 285.196 503.361 285.242C504.67 286.628 505.658 288.284 506.256 290.094C507.431 288.431 508.802 286.23 511.229 289.393C514.433 284.065 517.468 279.019 520.503 273.974L521.944 274.292L520.349 287.269C521.152 286.436 522.12 285.779 523.191 285.34C523.789 285.284 524.392 285.349 524.964 285.532C525.536 285.714 526.066 286.01 526.521 286.402C527.209 289.188 527.249 292.095 526.638 294.898C526.028 297.702 524.783 300.329 522.999 302.577L524.459 289.803L523.27 289.477C522.806 290.689 522.215 291.849 521.509 292.937C520.716 293.7 519.819 294.346 518.845 294.858C518.187 294.031 517.697 293.084 517.403 292.07C517.44 289.358 517.198 286.649 516.68 283.986C515.289 287.303 513.852 290.601 512.52 293.941C511.256 297.113 510.281 297.328 507.96 294.62L505.689 297.587L504.417 297.404L502.143 288.36C501.197 291.054 500.678 292.799 499.968 294.461C499.415 295.573 498.792 296.649 498.101 297.68C497.58 296.536 497.165 295.347 496.859 294.127C496.429 290.5 495.704 286.914 494.692 283.405C494.455 284.469 494.095 285.502 493.62 286.484C492.994 287.246 492.265 287.918 491.454 288.48C490.909 287.688 490.419 286.861 489.987 286.002C489.672 284.952 489.442 283.878 489.296 282.791C487.846 289.273 487.904 296.001 489.466 302.457L487.896 302.756L485.509 297.698C480.902 297.607 476.401 297.749 471.947 297.357C468.469 297.051 467.939 295.278 468.252 291.709C468.847 284.945 469.026 278.138 469.21 271.345C469.39 264.667 469.277 257.982 469.454 251.305C469.565 247.099 469.97 242.901 470.275 238.212C449.499 244.017 429.531 251.643 408.009 253.154L407.747 254.846C410.919 258.701 413.945 262.689 417.305 266.372C420.155 269.811 423.406 272.897 426.988 275.565C430.473 277.407 434.146 278.869 437.943 279.927C442.512 281.69 447.064 283.494 451.636 285.248C453.133 285.822 454.668 286.293 456.001 286.748L453.185 277.272L451.286 277.031C453.803 275.819 456.514 275.063 459.295 274.799C461.923 275.35 464.317 276.698 466.151 278.658C466.633 279.108 467.013 279.656 467.265 280.265C467.517 280.874 467.636 281.53 467.614 282.188C467.591 282.847 467.428 283.493 467.135 284.084C466.842 284.674 466.426 285.195 465.915 285.611C464.04 287.788 462.643 290.336 461.815 293.087C460.987 295.839 460.747 298.734 461.109 301.585C460.703 302.583 460.047 303.461 459.204 304.132C458.098 303.441 457.192 302.472 456.579 301.32C456.437 298.659 457.186 295.958 457.137 293.281C457.089 292.651 456.894 292.041 456.567 291.499C456.241 290.958 455.792 290.5 455.257 290.164C444.752 286.216 434.307 281.986 423.531 278.945C419.275 278.228 414.901 278.824 410.991 280.653C397.101 285.739 384.949 294.681 375.961 306.43C375.265 307.138 374.842 308.071 374.768 309.062C374.695 310.053 374.975 311.038 375.559 311.842C379.675 317.991 383.731 324.18 387.859 330.321C389.408 332.626 391.09 334.84 393.123 337.668C394.071 336.222 394.603 334.544 394.662 332.815C394.72 331.087 394.303 329.377 393.455 327.87C390.407 323.661 392.713 320.43 396.92 317.773C397.783 317.311 398.734 317.037 399.711 316.969C400.687 316.902 401.667 317.043 402.585 317.382C403.504 317.722 404.339 318.253 405.037 318.939C405.735 319.626 406.279 320.453 406.633 321.365C407.142 322.651 407.183 324.074 406.749 325.386C406.315 326.699 405.434 327.817 404.259 328.546C402.305 330.131 400.703 332.107 399.558 334.348C398.413 336.589 397.75 339.045 397.612 341.558C397.486 343.992 397.486 346.431 397.611 348.865C397.676 350.166 397.252 351.445 396.424 352.45C395.083 352.989 393.643 353.241 392.199 353.189C392.047 351.848 391.873 350.508 391.756 349.164C391.758 348.81 391.823 348.458 391.948 348.127C392.495 346.647 392.629 345.047 392.335 343.498C392.042 341.949 391.332 340.508 390.283 339.331C384.023 331.279 378.733 322.482 372.782 314.178C369.327 308.267 363.759 303.887 357.2 301.922C347.383 299.696 337.537 297.6 327.722 295.37C319.944 293.602 312.229 291.546 304.422 289.928C293.266 287.616 282.026 285.712 270.871 283.401C260.456 281.243 250.078 278.888 239.732 276.419C230.402 274.193 221.252 270.939 211.815 269.485C195.979 267.045 182.033 258.878 166.518 255.581C162.776 254.257 159.13 252.674 155.608 250.842C150.334 248.891 144.972 247.138 139.557 245.631C137.824 245.181 135.988 245.361 134.376 246.137C129.779 248.675 125.606 252.027 120.905 254.315C115.356 256.866 109.666 259.101 103.864 261.01C102.885 261.226 102.026 261.812 101.466 262.644C100.906 263.476 100.688 264.492 100.856 265.481C100.962 267.007 101.163 268.526 101.254 270.052C101.431 270.651 101.449 271.285 101.306 271.892C101.163 272.499 100.865 273.059 100.439 273.515C100.014 273.972 99.4775 274.31 98.882 274.495C98.2865 274.681 97.6529 274.709 97.0435 274.575C93.8819 274.586 94.3332 272.437 94.4629 270.376C94.5286 269.331 94.1686 268.262 94.2165 267.213C94.3221 264.913 92.9963 264.64 91.2592 265.047C88.9708 265.583 86.7373 266.427 84.4259 266.756C83.367 266.582 82.3631 266.164 81.4939 265.535C82.2741 264.909 83.1301 264.384 84.0417 263.972C85.8289 263.414 87.7236 263.206 89.5238 262.682C90.6308 262.543 91.6774 262.099 92.5464 261.4C93.4154 260.7 94.0726 259.772 94.4444 258.72C94.8162 257.669 94.8879 256.534 94.6515 255.444C94.4151 254.353 93.88 253.35 93.106 252.547C91.8269 250.211 90.9978 247.656 90.662 245.014C90.7338 244.385 90.9645 243.785 91.3323 243.269C91.7001 242.754 92.193 242.34 92.7646 242.067C95.822 240.972 99.144 240.851 102.273 241.723C103.211 241.835 104.107 242.179 104.88 242.724C105.653 243.269 106.278 243.998 106.698 244.844C107.119 245.691 107.322 246.629 107.29 247.574C107.258 248.519 106.991 249.441 106.513 250.256C104.862 253.023 103.029 255.676 101.026 258.198C103.878 257.271 105.712 256.698 107.532 256.081C115.356 253.519 122.78 249.867 129.583 245.231C137.873 239.476 146.466 234.153 154.67 228.282C159.81 224.605 164.558 220.358 169.335 216.198C178.102 208.563 187.091 201.138 195.358 192.988C201.603 186.665 207.387 179.904 212.665 172.754C218.538 165.007 223.835 156.814 229.197 148.692C231.513 145.184 233.424 141.401 235.399 137.679C235.722 136.778 236.374 136.032 237.224 135.591C238.075 135.15 239.06 135.047 239.983 135.302C245.939 135.719 251.916 135.76 257.877 135.426C267.74 135.146 277.66 135.236 287.441 134.139C297.654 132.994 307.728 130.611 317.872 128.821C318.782 128.693 319.702 128.653 320.619 128.701C322.554 132.644 324.704 136.477 327.059 140.184C334.093 150.003 341.606 159.482 348.553 169.36C353.139 175.883 356.969 182.933 361.324 189.625C367.721 199.457 374.27 209.189 380.783 218.945C383.451 222.94 386.175 226.898 388.917 230.842C389.696 231.964 390.808 232.81 392.097 233.262C392.634 226.901 393.172 220.541 393.71 214.181C394.215 208.224 394.669 202.263 395.236 196.312C396.241 185.77 397.524 175.25 398.305 164.692C399.219 152.345 399.707 139.967 400.402 127.603C401.128 114.702 401.827 101.798 402.642 88.902C403.064 82.2343 403.94 75.5897 404.195 68.9188C405.013 62.6181 404.329 56.2132 402.2 50.2269C401.941 48.5791 402.062 46.8937 402.555 45.3001L411.532 46.4579C409.371 47.1164 407.254 47.9139 405.196 48.8455C404.988 49.7863 405.143 50.7709 405.631 51.6017C407.476 52.0214 409.353 52.2787 411.242 52.3705C411.265 53.9797 405.488 54.4008 409.174 57.0109C408.275 57.9303 407.577 59.026 407.124 60.2288C406.497 72.9829 405.733 85.742 405.615 98.5053C405.527 107.973 406.521 117.445 406.684 126.922C406.848 136.435 406.736 145.96 406.461 155.471C406.123 167.198 405.52 178.917 404.973 190.637C404.787 194.625 404.334 198.601 404.165 202.59C403.981 206.924 405.124 208.075 409.931 208.731C408.948 207.352 408.061 205.909 407.273 204.411C406.626 202.925 406.415 201.286 406.664 199.684C407.238 201.931 408.473 203.955 410.208 205.493C411.943 207.032 414.1 208.016 416.4 208.317C415.158 206.767 414.034 205.126 413.038 203.408C412.405 201.71 411.928 199.957 411.615 198.172C414.543 201.442 416.857 204.071 419.274 206.603C419.681 206.495 420.062 206.304 420.391 206.04C418.891 203.832 417.511 201.545 416.255 199.189C416.36 197.951 416.752 196.754 417.4 195.693C420.531 203.965 423.568 205.575 426.984 201.444C422.473 197.53 422.473 197.531 424.047 194.071C424.404 195.431 424.943 196.738 425.651 197.954C426.117 198.414 426.677 198.769 427.292 198.995C427.908 199.22 428.565 199.311 429.218 199.26C428.301 197.612 427.762 195.78 427.639 193.898C428.562 192.331 429.852 191.012 431.397 190.054L431.236 185.499L436.521 188.914C437.233 188.073 437.143 188.13 435.479 185.503C434.801 184.302 434.468 182.937 434.517 181.559C439.94 186.901 439.94 186.901 441.941 184.495C436.261 182.016 435.685 181.2 437.546 178.066C438.462 179.351 439.536 180.516 440.742 181.534C441.215 181.781 441.74 181.909 442.274 181.908C442.808 181.906 443.333 181.774 443.804 181.524C444.689 180.172 445.711 178.438 443.412 177.066C441.701 176.094 440.127 174.901 438.729 173.517C438.499 173.021 438.416 172.469 438.49 171.927C438.564 171.385 438.792 170.876 439.146 170.459L444.428 176.051C445.84 173.487 445.652 172.368 443.734 171.343C440.245 169.479 439.889 167.902 442.481 165.113C443.282 164.436 443.833 163.511 444.048 162.486C444.263 161.46 444.128 160.392 443.666 159.451C443.445 158.192 443.446 156.904 443.669 155.646L449.757 163.089L452.293 160.464C445.431 155.826 444.76 154.68 446.71 150.804C447.6 152.682 448.647 154.482 449.839 156.184C451.893 158.665 453.134 158.23 454.082 154.975C447.895 152.973 446.895 151.516 448.944 147.58L452.926 152.918C453.549 152.307 454.038 151.574 454.363 150.763C454.687 149.953 454.839 149.084 454.809 148.212C454.78 147.34 454.569 146.483 454.19 145.697C453.812 144.91 453.274 144.211 452.61 143.644C450.442 141.82 449.835 140.272 451.865 138.518L448.873 130.484L444.988 137.411L444.419 137.096L448.317 127.683L456.54 132.957L452.233 134.169C452.273 134.475 452.394 134.764 452.584 135.008C454.06 135.809 455.575 136.538 457.078 137.29C457.962 135.617 458.585 133.819 458.925 131.957C459.409 130.2 459.506 128.359 459.21 126.56C458.913 124.762 458.23 123.05 457.208 121.541L457.262 121.603ZM241.912 246.133L240.179 245.104L239.273 245.499L243.273 255.15L244.405 254.857L243.845 250.293C244.235 249.919 244.523 249.452 244.682 248.936C243.612 246.341 242.407 243.803 241.241 241.248L240.452 241.579L241.912 246.133ZM232.177 238.057L236.269 249.66C236.947 247.547 236.907 245.269 236.154 243.181C235.402 241.094 233.98 239.313 232.11 238.119C231.517 233.84 229.504 229.885 226.394 226.888C227.311 229.664 228.466 232.355 229.846 234.932C230.537 236.035 231.316 237.08 232.177 238.057ZM211.055 263.893C210.758 266.288 209.644 265.088 208.897 264.287C206.787 262.027 204.778 259.671 202.728 257.354L200.253 252.507C198.968 254.506 196.814 255.564 199.188 257.853L200.096 255.794L202.788 257.298C203.888 260.848 206.271 263.861 209.472 265.75C212.672 267.64 216.462 268.27 220.102 267.518C218.939 266.32 217.543 265.374 215.999 264.739C214.456 264.103 212.798 263.792 211.13 263.824L205.269 255.384L204.138 256.344L211.055 263.893ZM371.876 220.497C372.186 220.658 372.475 220.856 372.736 221.087C372.97 221.461 373.29 221.773 373.67 221.998C374.049 222.224 374.476 222.356 374.916 222.383C375.357 222.41 375.797 222.332 376.201 222.155C376.605 221.978 376.961 221.707 377.239 221.365C377.453 220.726 377.517 220.048 377.428 219.381C377.339 218.713 377.099 218.076 376.725 217.515C375.113 215.012 373.097 212.769 371.196 210.363L367.802 211.732L369.206 215.439C368.506 215.07 367.885 214.567 367.379 213.959C365.987 211.199 364.392 211.584 362.538 213.387C364.383 216.527 366.081 219.688 368.089 222.639C368.993 223.25 370.036 223.623 371.123 223.723L371.876 220.497ZM488.438 262.269C487.485 262.569 486.502 262.802 485.587 263.193C484.843 263.387 484.178 263.81 483.687 264.403C483.832 267.319 484.222 270.223 484.503 272.824C485.548 271.954 486.774 271.328 488.091 270.989C489.279 272.267 490.229 273.747 490.896 275.36C491.739 262.775 492.549 251.116 493.233 239.45C493.161 239.007 492.997 238.584 492.751 238.208C492.505 237.832 492.184 237.513 491.807 237.269C489.685 235.8 487.477 234.441 485.22 233.189C484.685 232.736 484.048 232.421 483.364 232.27C482.68 232.119 481.969 232.138 481.294 232.324C480.618 232.51 479.998 232.859 479.488 233.339C478.978 233.819 478.592 234.416 478.365 235.079L485.486 238.469C484.892 238.571 484.332 238.822 483.859 239.197C483.387 239.572 483.016 240.06 482.782 240.617C482.548 241.173 482.457 241.779 482.519 242.38C482.581 242.98 482.793 243.555 483.136 244.052C484.611 244.942 486.28 245.459 488 245.559L488.34 253.185L489.516 253.247L490.817 243.091C491.182 248.462 491.192 253.851 490.846 259.224C490.292 260.447 489.442 261.513 488.375 262.328L484.559 254.895C481.354 259.215 482.794 261.564 488.438 262.269ZM247.082 232.74L247.029 232.783C247.858 233.765 248.602 234.816 249.253 235.924C251.405 240.353 253.442 244.838 255.521 249.303L256.359 248.902L255.234 241.277L256.214 240.94C258.666 244.868 260.473 249.164 261.569 253.664L258.504 249.499L257.634 249.966C259.083 253.089 260.507 256.223 261.988 259.33C263.74 261.651 264.972 264.323 265.599 267.163C265.886 270.761 267.532 274.114 270.202 276.542C271.054 277.803 272.09 278.939 273.342 280.507C273.238 279.732 273.079 278.966 272.867 278.214C270.79 272.767 268.725 267.314 266.54 261.91C265.932 260.929 265.257 259.992 264.519 259.106C263.455 257.304 262.509 255.433 261.513 253.591L262.977 254.946L245.002 180.346L244.439 180.051L242.96 186.749C242.574 184.625 241.79 182.593 240.65 180.759C238.468 177.917 236.896 174.655 236.032 171.177C235.822 170.53 235.565 169.898 235.33 169.258L234.491 169.61C235.099 171.206 235.725 172.795 236.31 174.399C238.187 179.548 240.005 184.72 241.969 189.835C242.382 190.634 243.055 191.269 243.877 191.634C247.613 193.469 247.633 193.428 244.264 197.483L237.053 184.575L236.666 184.736L240.701 196.545L240.66 196.576C240.151 196.386 239.695 196.075 239.331 195.671C237.545 191.344 235.808 186.996 234.155 182.616C233.963 181.828 233.941 181.008 234.088 180.21C234.223 178.632 234.443 177.062 234.627 175.489L233.582 175.398C232.557 179.715 231.868 184.148 230.436 188.325C227.476 196.954 224.148 205.456 220.91 213.988C220.037 216.287 219.191 218.383 222.099 219.97C222.658 220.641 223.042 221.438 223.219 222.293C225.305 220.608 226.553 221.563 227.489 223.369C230.009 228.228 232.51 233.098 234.991 237.977C235.909 239.783 236.75 241.629 237.626 243.457L238.268 243.222L239.091 233.532L245.174 245.957L245.754 245.738C246.197 241.405 246.639 237.073 247.082 232.74ZM217.744 175.557L215.219 183.664L211.652 186.124L209.937 180.408L204.333 188.031L210.419 191.379L210.016 192.481L203.586 190.625C201.374 192.326 199.57 193.643 197.862 195.076C197.614 195.279 197.41 195.529 197.261 195.813C197.112 196.096 197.022 196.407 196.996 196.726C197.2 197.05 197.473 197.326 197.796 197.532C198.119 197.739 198.483 197.872 198.863 197.922C201.668 197.062 201.257 199.33 202.158 200.726C197.578 200.768 196.952 204.464 195.273 207.106C194.427 208.438 193.516 209.729 193.18 210.229L184.93 207.336L177.987 213.114L178.404 214.031L180.443 213.937L184.865 218.317C178.152 213.93 176.587 220.637 173.613 223.657C167.908 220.797 166.535 221.022 164.663 224.773L169.646 228.226C164.938 229.916 164.043 234.516 160.383 236.57C158.7 237.514 157.656 240.036 161.173 241.313L155.33 242.53C154.661 239.536 152.861 239.628 150.496 240.993C149.375 241.539 148.215 241.999 147.024 242.369L146.681 241.397L150.056 238.512C145.505 237.12 143.605 240.244 139.946 241.849C142.351 242.809 143.714 243.419 145.121 243.904C150.424 245.735 155.78 247.42 161.038 249.373C163.646 250.342 165.986 252.056 168.613 252.944C175.16 255.157 181.782 257.153 188.424 259.064C188.979 259.208 189.56 259.222 190.122 259.105C190.683 258.988 191.21 258.742 191.661 258.388C196.5 252.497 201.021 246.351 205.203 239.977C208.444 234.138 211.358 228.124 213.93 221.961C221.061 207.83 226.35 192.842 229.669 177.365C230.613 172.31 232.09 167.356 233.079 162.308C234.185 156.664 235.013 150.966 235.962 145.291L235.084 144.984L228.549 155.666L231.905 157.301L231.132 158.253L227.261 157.739L224.991 161.799L226.054 161.541L228.461 164.667L224.601 167.777L223.345 164.235L211.362 179.823L212.479 180.975C213.545 180.054 214.662 179.185 215.661 178.196C216.422 177.373 217.141 176.512 217.815 175.617L217.744 175.557ZM334.454 175.737C334.805 176.321 335.304 176.802 335.901 177.132C337.921 176.89 339.909 176.377 341.908 175.961C341.672 174.571 341.144 173.246 340.36 172.074C339.092 171.692 337.727 171.783 336.521 172.332C335.315 172.88 334.349 173.848 333.803 175.056L330.92 172.07L338.745 170.411L339.214 169.36L333.921 164.194L339.269 162.1C337.549 159.803 336.083 157.855 334.629 155.899C331.841 152.15 330.887 151.923 326.07 153.958L329.062 161.219C326.554 157.911 324.474 154.3 322.872 150.47C322.738 149.587 322.426 148.74 321.954 147.982C321.482 147.223 320.86 146.569 320.126 146.059C319.393 145.549 318.563 145.194 317.688 145.016C316.812 144.837 315.909 144.839 315.035 145.022C314.993 145.03 314.876 144.649 314.952 144.835L319.161 141.53L324.009 142.177C321.446 136.404 320.911 136.12 316.122 136.829C314.746 137.032 313.343 137.044 311.952 137.144L312 137.203L319.028 133.925L318.947 132.941C317.111 132.877 315.272 132.935 313.444 133.115C306.281 134.27 299.185 136.141 291.983 136.684C278.161 137.727 264.283 138.021 250.431 138.687C247.943 138.807 245.468 139.225 242.703 139.538L372.141 307.096C383.323 289.384 401.012 280.453 420.548 274.129L416.695 270.295L406.371 273.626L406.158 272.88L409.03 270.464C406.359 267.829 403.903 268.174 401.333 271.47L394.016 264.291L405.291 261.415L405.715 262.933L397.668 265.525C398.72 266.695 400.024 267.611 401.482 268.203C403.309 267.387 405.027 266.346 406.596 265.104L411.615 265.531L412.231 264.238C411.245 263.607 410.312 262.896 409.44 262.115C408.015 259.747 406.067 257.736 403.745 256.238C401.002 256.573 398.35 257.438 395.937 258.785C394.672 258.816 393.414 258.589 392.241 258.117C392.777 257.07 393.496 256.127 394.364 255.333C405.403 249.032 415.219 240.795 423.34 231.016C427.826 225.357 432.137 219.559 436.526 213.823C435.43 213.83 434.35 214.086 433.367 214.571C426.413 217.009 419.466 219.472 412.46 221.75C411.391 221.728 410.343 221.449 409.404 220.938C409.944 220.084 410.545 219.27 411.202 218.502C413.347 216.304 415.567 214.179 418.068 211.721L402.952 211.423C402.349 223.637 401.723 236.342 401.133 248.315C398.083 248.11 395.022 248.486 392.112 249.422C389.781 250.296 387.324 250.79 384.835 250.887L387.246 248.398L382.509 241.301L383.355 240.688C384.228 241.69 385.18 242.633 385.959 243.702C389.398 248.422 389.882 248.528 394.896 245.268C394.236 241.916 392.368 240.484 389.964 241.398C390.049 239.766 389.709 238.14 388.98 236.678C387.151 236.198 385.244 236.089 383.373 236.36L383.192 235.755L386.902 234.05C386.044 227.863 381.692 231.189 377.626 231.005L383.175 227.34C382.273 225.791 380.985 224.502 379.437 223.599C376.475 224.06 373.569 224.832 370.769 225.901L372.984 230.294C370.355 227.92 368.12 225.143 366.361 222.068C363.415 217.238 360.053 212.675 356.315 208.429C355.144 207.257 353.857 206.207 352.474 205.296L364.829 200.441C363.642 198.51 362.539 197.015 361.752 195.369C361.455 194.799 361.046 194.294 360.548 193.887C360.051 193.479 359.476 193.176 358.858 192.998C358.24 192.819 357.593 192.768 356.954 192.847C356.316 192.926 355.7 193.134 355.145 193.458C352.927 193.99 350.746 194.673 348.71 195.244L351.505 191.416L355.178 191.771C355.555 190.67 355.628 189.487 355.391 188.348C353.861 186.852 352.192 185.505 350.406 184.326C349.353 186.668 347.509 185.019 346.024 185.238C344.781 185.422 343.601 186.021 342.359 186.222C341.293 186.259 340.227 186.19 339.175 186.015L346.253 182.745C345.841 181.017 345.039 179.407 343.91 178.036C341.252 178.378 338.658 179.104 336.21 180.191L334.454 175.737ZM487.479 25.1467L487.135 28.6937L484.545 26.2565L481.098 32.8274L478.451 30.2466C476.337 36.5271 476.337 36.5271 473.575 34.3924C472.865 36.3355 472.285 38.2306 471.483 40.0269C470.676 41.8371 469.802 43.9992 467.598 41.3339C465.753 42.6283 466.41 48.1821 462.115 44.1858L458.701 51.8872L457.407 51.5135L457.661 48.4002C453.338 51.1864 453.338 51.1864 454.907 56.2834C456.437 56.1877 457.919 55.7087 459.215 54.8904C461.061 52.3876 462.752 51.3258 465.205 53.7087L469.201 49.0918L470.373 49.9173L464.093 61.5719C462.755 61.8044 461.541 62.5002 460.664 63.5374C458.59 66.4865 456.947 69.749 454.78 72.6221C450.302 78.5618 450.208 78.4907 456.301 83.199C459.203 85.6935 461.218 89.0608 462.045 92.7966C462.872 96.5323 462.467 100.436 460.89 103.922C460.037 105.594 459.306 107.33 458.516 109.044C460.126 108.594 461.801 108.424 463.469 108.542C464.29 110.288 464.618 112.225 464.419 114.143C463.947 115.798 463.27 117.386 462.403 118.872C461.85 119.951 461.525 121.132 461.448 122.342C461.629 125.601 462.105 128.844 462.468 132.114C463.95 131.994 465.517 134.257 467.468 132.376C468.556 132.601 469.533 133.198 470.229 134.064C470.25 135.016 469.929 135.944 469.324 136.68C467.032 140.441 464.66 144.153 462.31 147.879C462.109 148.403 461.776 148.866 461.343 149.223C457.771 148.878 457.885 151.511 457.358 153.815C456.638 156.961 455.69 160.054 454.919 162.879L455.729 167.456C457.932 166.738 457.11 161.469 462.375 163.736C461.033 166.728 459.529 169.645 457.871 172.474C455.99 174.985 453.954 177.375 451.775 179.631C450.492 179.874 449.287 180.426 448.264 181.239C447.242 182.051 446.432 183.101 445.906 184.296C444.398 186.346 442.773 188.307 441.039 190.17C437.462 192.83 434.378 196.095 431.925 199.817C430.276 202.346 428.209 204.577 425.814 206.414C422.346 210.058 418.888 213.712 415.441 217.375L416.296 218.525C417.938 218.343 419.507 217.744 420.851 216.784C421.996 212.391 426.368 213.582 428.991 211.741L426.938 214.533L427.795 215.215C428.769 213.921 429.808 212.67 430.701 211.322C431.695 209.821 432.557 208.233 433.477 206.683L434.242 207.147L434.446 210.154L442.745 200.532L443.89 201.353L441.79 205.686L447.232 202.718C450.688 208.678 445.881 212.993 444.752 217.945C444.622 218.1 444.453 218.219 444.263 218.288L442.64 216.031L438.691 228.836L437.925 228.642L438.512 221.534L437.806 221.27L431.518 236.723L430.341 236.286L435.769 219.928L434.701 219.441C430.616 227.84 426.532 236.239 422.447 244.638L421.24 244.077L425.18 234.089L424.165 233.576C423.005 235.906 421.677 238.148 420.194 240.287C418.783 243.01 416.529 245.204 413.767 246.54C409.802 246.419 408.936 249.443 406.438 250.533L406.767 251.368L424.934 245.836L424.885 248.367L437.715 241.442L435.471 245.568C438.045 244.547 439.656 243.945 441.238 243.274C443.491 241.672 446.095 240.633 448.832 240.245C450.122 240.43 451.435 240.359 452.697 240.036C453.96 239.712 455.146 239.144 456.188 238.362C458.908 236.893 461.675 235.509 464.422 234.088L464.753 234.597L462.669 237.089L463.131 237.671L481.478 224.414L482.103 225.21L472.608 232.675L473.039 233.686C478.122 230.89 482.858 225.073 489.304 231.581C488.277 229.674 487.127 227.837 485.862 226.08C485.074 224.461 484.42 222.78 483.907 221.053L484.953 220.602C488.606 227.458 494.068 233.181 500.746 237.151C499.842 235.265 498.718 233.493 497.398 231.871C495.091 228.78 495.095 228.777 496.442 226.447C500.088 233.703 505.797 239.721 512.85 243.744L509.126 236.59L510.337 235.836C514.245 239.999 516.191 246.167 522.501 248.783L520.868 242.106L531.392 252.728L532.273 251.904L530.001 247.591L530.866 246.907L538.605 255.035L538.09 250.704L538.973 249.921C543.216 255.44 547.483 260.915 555.707 259.768C555.103 258.921 554.347 258.194 553.477 257.624C548.828 252.324 544.096 247.079 539.737 241.545C532.981 232.967 526.334 224.292 519.955 215.43C514.82 208.296 510.102 200.857 505.304 193.485C503.904 191.334 503.418 189.111 506.906 188.378L503.89 180.228C506.189 182.9 508.328 185.705 510.295 188.63C512.456 191.426 514.995 193.929 517.369 196.561C516.533 191.561 512.022 188.603 511.202 183.842L512.28 183.19L520.92 195.947L521.492 194.9C522.29 194.972 523.059 195.237 523.732 195.672C525.945 198.552 527.924 201.612 530.133 204.496C531.084 205.531 532.132 206.473 533.263 207.308L533.912 206.737L531.461 201.003L532.364 200.443L539.223 210.023L539.318 205.217L540.149 204.745C543.849 212.622 547.568 220.48 557.157 223.358C556.932 222.799 556.672 222.254 556.378 221.727C551.157 214.098 545.954 206.457 540.686 198.86C532.254 186.701 523.751 174.591 515.374 162.395C514.854 161.286 514.618 160.066 514.685 158.844C514.832 157.627 514.863 156.398 514.78 155.175C514.284 153.379 513.214 151.749 512.63 149.968C512.474 148.724 512.481 147.465 512.652 146.222C516.112 153.501 519.135 159.858 522.158 166.216L522.93 165.78L521.628 159.631L522.627 159.453C524.899 163.225 527.149 167.012 529.467 170.756C529.815 171.425 530.375 171.96 531.058 172.277C533.41 171.313 533.451 173.318 534.214 174.484C535.559 177.912 538.11 180.729 541.387 182.407L539.168 176.504L540.053 176.022L549.099 185.707L549.957 184.894C548.572 183.337 547.285 181.697 546.101 179.982C539.074 168.453 531.872 157.018 525.256 145.255C520.546 136.88 516.635 128.053 512.453 119.387C512.068 118.235 511.832 117.038 511.75 115.826L512.39 115.747L522.037 130.226L522.719 129.715L521.326 124.599L522.213 124.306L529.142 133.042L530.043 132.454L527.002 125.623L528.127 124.976L533.99 133.195C534.192 131.8 533.868 130.38 533.08 129.211C526.487 119.781 519.806 110.413 513.244 100.963C512.955 100.539 512.768 100.054 512.697 99.5464C512.627 99.0384 512.675 98.5211 512.838 98.0348C513.201 97.5817 513.47 97.0609 513.63 96.5028C513.79 95.9446 513.838 95.3603 513.77 94.7836C513.702 94.2069 513.521 93.6495 513.235 93.1437C512.95 92.6379 512.567 92.1938 512.109 91.8373C510.94 90.173 509.873 88.4401 508.912 86.6478L510.39 85.7018C511.844 87.91 513.199 90.1928 514.781 92.3055C516.377 94.4383 518.199 96.4026 519.922 98.4407C519.25 94.401 515.441 91.902 515.901 87.2871C519.347 91.9231 522.536 96.2133 525.726 100.503L526.472 99.9084C522.346 93.9184 522.139 93.2373 523.492 90.7706L531.23 102.767L531.943 102.284L531.829 97.9834L537.475 104.942C532.547 95.6626 527.178 86.7417 521.49 78.0281C518.635 73.8542 515.562 69.8344 512.282 65.9854C507.551 60.1868 507.051 52.4552 503.124 46.2976C503.088 45.3978 503.229 44.4997 503.538 43.6541C505.658 47.2533 507.186 50.1306 508.986 52.8264C510.271 55.9693 512.485 58.6451 515.331 60.4959L509.57 49.0312L510.877 48.32L515.828 56.3005L513.765 53.4363L517.708 53.4793L502.844 25.5961L502.262 27.1763L498.184 13.6359L496.277 15.743C495.738 7.98001 495.738 7.98001 493.071 7.45913L494.272 19.8506L493.407 19.9481L491.926 10.5663L490.663 10.702C490.713 12.281 490.66 13.8615 490.506 15.4337C490.194 16.1811 489.728 16.8546 489.139 17.4107L488.407 14.9762L487.21 14.9419C486.891 18.2249 486.562 21.5072 486.304 24.795C486.681 24.9567 487.075 25.0747 487.479 25.1467ZM242.414 143.961L241.57 144.402C242.747 150.652 243.85 156.917 245.116 163.149C247.193 173.369 249.241 183.598 251.545 193.768C255.063 209.294 258.293 224.911 262.586 240.226C265.865 251.921 270.408 263.283 274.834 274.619C275.972 277.507 278.096 279.899 280.829 281.37C284.828 282.684 288.945 283.601 293.123 284.108C304.561 286.682 315.977 289.354 327.413 291.935C337.233 294.151 347.073 296.28 356.895 298.486C358.632 298.876 360.327 299.455 362.411 300.053C359.504 293.97 356.988 290.224 350.932 290.716C348.415 291.321 345.773 291.134 343.366 290.181C339.477 288.023 335.194 286.669 330.772 286.201C329.818 285.829 328.902 285.365 328.037 284.816C329.103 284.402 330.226 284.157 331.367 284.089C333.477 284.299 335.55 284.885 338.35 285.463L333.622 277.449L343.02 280.321C342.483 277.734 341.101 275.399 339.093 273.683C337.084 271.967 334.563 270.966 331.924 270.839L332.424 269.665L339.781 269.81C338.811 267.032 337.021 264.613 334.649 262.873C332.276 261.133 329.431 260.153 326.49 260.063C324.97 259.874 323.47 259.556 322.004 259.113C321.379 258.888 320.778 258.603 320.208 258.262C321.942 257.672 323.79 257.491 325.606 257.735C327.391 257.973 329.132 258.541 331.288 259.06C327.163 252.118 322.586 248.646 321.044 250.881L321.721 254.398L311.405 247.416L312.583 245.971C311.767 243.224 309.943 240.888 307.478 239.428C305.012 237.969 302.086 237.495 299.286 238.101C298.357 238.294 297.399 238.288 296.473 238.083C294.979 237.705 293.55 237.069 292.094 236.541C293.534 236.153 295.006 235.893 296.493 235.763C301.074 235.74 305.657 235.902 310.635 236C308.341 241.416 315.818 248.21 323.333 248.117L242.414 143.961ZM403.862 149.801L402.519 149.589C402.118 150.95 401.811 152.338 401.601 153.742C400.912 161.922 400.343 170.113 399.668 178.294C398.45 193.036 397.206 207.776 395.937 222.513C396.06 226.152 395.663 229.791 394.759 233.318C392.821 238.118 396.283 240.08 397.877 243.099L398.891 242.859L396.766 231.882C400.55 230.271 398.079 227.977 396.87 225.73L400.13 224.006L398.719 221.879C399.416 218.061 400.033 215.081 400.479 212.074C400.933 210.575 400.966 208.979 400.574 207.462C399.741 206.144 399.414 204.569 399.652 203.028C399.89 201.487 400.678 200.084 401.87 199.079C400.061 197.636 398.612 196.349 401.374 194.72C401.612 194.559 401.808 194.344 401.948 194.094C402.088 193.843 402.168 193.563 402.181 193.276C401.815 190.682 401.299 188.109 400.834 185.528C402.063 183.947 402.679 181.974 402.568 179.975C401.998 178.625 401.741 177.164 401.817 175.702C401.893 174.239 402.299 172.812 403.006 171.529C403.156 170.655 403.107 169.758 402.861 168.906C402.841 168.079 402.902 167.248 402.962 166.421C403.691 163.63 403.822 160.717 403.346 157.872C402.846 156.93 402.62 155.866 402.696 154.801C402.773 153.737 403.147 152.715 403.777 151.854C403.955 151.184 403.984 150.483 403.862 149.801L403.862 149.801ZM222.686 225.506L221.266 226.017L227.864 240.295L227.099 240.667L223.735 235.896L222.56 236.648C228.351 245.934 231.586 256.651 238.564 265.274L239.567 264.748L232.843 253.073L233.76 252.581L236.699 257.344L238.131 256.594C233.675 245.902 228.515 235.516 222.686 225.506ZM213.759 250.025L214.915 249.439C214.024 247.952 213.167 246.443 212.234 244.982C210.468 242.217 210.449 242.229 211.676 240.329L215.585 246.41C217.535 242.124 211.501 240.212 213.531 235.404L219.231 244.348L220.23 243.733C219.469 242.633 218.886 241.42 218.501 240.139C218.121 237.27 212.797 235.397 216.768 231.662C217.145 231.186 217.452 230.659 217.68 230.096C218.339 230.482 218.94 230.96 219.466 231.514C220.276 232.652 220.899 233.924 221.599 235.141L222.908 234.502L217.679 223.345L221.051 223.716L218.613 220.127C218.282 220.541 217.981 220.979 217.712 221.436C214.264 230.55 209.665 239.185 204.025 247.132C203.789 248.062 203.796 249.037 204.045 249.963L204.893 249.919L209.693 242.849L213.759 250.025ZM244.276 270.777L243.565 271.613C242.341 271.3 241.201 270.719 240.229 269.911C236.946 265.081 233.761 260.169 230.822 255.123C227.984 250.248 225.484 245.176 222.836 240.191C222.501 240.367 222.225 240.636 222.038 240.965C221.852 241.295 221.764 241.67 221.785 242.048C226.298 253.565 233.011 264.092 241.551 273.04C242.81 273.789 244.198 274.295 245.644 274.532L245.99 273.732L244.276 270.777ZM260.873 264.626C259.133 254.835 252.316 247.507 248.171 238.854C247.997 249.553 255.962 256.337 260.873 264.626ZM486.36 287.957L476.854 287.77C475.686 291.497 478.855 291.378 482.414 291.519C478.161 295.301 475.168 292.241 471.81 291.074C471.779 291.785 471.804 292.497 471.885 293.204C476.25 293.724 480.628 294.138 485.211 294.585L486.36 287.957ZM348.575 284.45L337.911 281.352C339.679 283.949 342.157 285.981 345.05 287.205C347.942 288.43 351.126 288.795 354.221 288.257L349.965 283.04L348.575 284.45ZM219.976 256.318C217.688 262.922 229.378 273.1 238.278 272.866C237.54 271.867 236.602 271.032 235.523 270.417C234.444 269.801 233.249 269.418 232.013 269.292C228.517 271.269 227.643 268.312 226.395 266.548C224.133 263.35 222.206 259.916 219.976 256.318L219.976 256.318ZM197.399 200.86C193.709 197.794 190.508 199.387 187.918 205.329C193.356 207.816 193.356 207.816 197.399 200.86ZM480.1 282.667C480.865 283.929 481.877 285.023 483.075 285.883C483.636 285.964 484.208 285.912 484.746 285.733C485.284 285.554 485.772 285.252 486.173 284.851C486.53 281.846 486.439 278.787 486.499 275.747L484.854 275.047L483.491 278.08L480.772 275.793C479.207 280.312 483.051 279.851 485.157 281.591L480.1 282.667ZM258.903 268.187L259.686 267.792L247.438 245.718L246.547 246.21C247.823 255.089 255.505 260.467 258.903 268.187ZM342.673 170.376C342.86 171.651 343.195 172.9 343.67 174.098C343.942 174.393 344.286 174.612 344.668 174.733C345.051 174.854 345.458 174.873 345.85 174.788C346.205 174.563 346.503 174.259 346.721 173.9C346.939 173.541 347.071 173.136 347.107 172.717C345.388 169.931 343.489 167.26 341.422 164.721C340.469 164.416 339.452 164.371 338.475 164.59L338.087 165.648L342.673 170.376ZM364.827 210.42C364.295 209.298 363.797 208.159 363.223 207.06C362.652 205.967 362.003 204.915 361.361 203.796C360.338 204.106 359.564 204.317 358.806 204.577C358.091 204.824 357.392 205.122 356.663 205.406C359.876 211.878 360.652 212.364 364.827 210.419V210.42ZM329.225 150.116C327.994 144.905 326.232 143.646 322.613 145.207C323.849 151.521 324.83 152.286 329.225 150.116ZM346.516 110.853C345.116 111.837 344.076 113.251 343.553 114.88C343.031 116.509 343.054 118.264 343.62 119.878C343.706 120.837 343.59 121.804 343.281 122.716C343.055 124.276 342.825 125.836 342.592 127.396L343.696 127.506C344.128 124.791 344.538 122.072 344.997 119.361C345.458 116.634 345.967 113.915 346.516 110.853ZM157.89 230.275C161.659 233.198 163.2 232.825 165.966 228.627L161.822 226.225L157.89 230.275ZM481.74 260.521C481.405 256.592 482.349 253.053 477.434 253.082L476.536 258.22L481.74 260.521ZM369.321 209.574L369.873 208.56C369.009 206.853 367.983 205.233 366.811 203.721C365.806 203.486 364.756 203.523 363.77 203.829C364.33 205.539 365.092 207.177 366.039 208.707C367.04 209.274 368.171 209.573 369.321 209.574H369.321ZM242.444 164.238L239.427 150.203L238.331 150.371C237.831 152.022 237.67 153.757 237.855 155.472C239.169 158.502 240.703 161.432 242.444 164.239L242.444 164.238ZM480.563 29.4022L481.619 29.789L484.866 20.9782C484.029 21.2466 483.253 21.6779 482.583 22.2472C481.914 22.8165 481.363 23.5126 480.963 24.2954C480.563 25.0783 480.322 25.9325 480.253 26.8089C480.185 27.6853 480.29 28.5666 480.563 29.4022ZM477.2 246.206C476.592 250.623 476.856 251.04 480.505 251.42C481.743 246.728 481.212 245.89 477.2 246.206ZM224.943 262.335L226.451 261.592L220.6 250.514L219.27 251.174L224.943 262.335ZM480.962 244.337C481.288 242.644 481.372 240.914 481.213 239.198C480.302 238.48 479.223 238.007 478.078 237.824C477.141 240.824 476.442 243.21 480.962 244.336L480.962 244.337ZM400.253 320.715L398.522 320.991L398.425 325.915L402.075 325.925L400.253 320.715ZM246.916 256.771L245.378 257.601L249.973 265.929L251.465 265.128L246.916 256.771ZM157.202 233.93C154.777 231.995 152.606 232.708 150.101 236.111C151.337 236.734 152.767 236.854 154.09 236.448C155.413 236.041 156.529 235.139 157.202 233.93ZM485.466 253.332C485.847 251.728 486.138 250.104 486.337 248.467C486.305 248.144 486.194 247.835 486.014 247.565C485.835 247.295 485.591 247.074 485.306 246.92C484.996 246.841 484.672 246.836 484.36 246.907C484.048 246.977 483.757 247.121 483.511 247.326C483.205 247.839 483.012 248.413 482.946 249.007C482.879 249.602 482.941 250.203 483.126 250.772C483.311 251.341 483.616 251.864 484.019 252.305C484.423 252.747 484.916 253.097 485.466 253.332H485.466ZM100.977 248.714C100.297 247.634 99.3665 246.734 98.2644 246.091C97.2778 246.518 96.4264 247.206 95.8023 248.081C96.631 249.052 97.5535 249.938 98.5564 250.728C99.4471 250.164 100.261 249.487 100.977 248.714H100.977ZM240.691 167.976L237.535 159.059L235.867 164.553L240.691 167.976ZM221.531 244.926L220.241 245.594L225.954 255.993L226.854 255.534L221.531 244.926ZM241.57 174.966L242.322 178.774L243.328 178.554L241.854 170.752L241.279 170.817L240.508 173.315L239.361 171.401C239.503 172.974 238.029 175.631 241.57 174.966L241.57 174.966ZM249.476 270.023L250.327 269.484L242.869 258.136L242.192 258.559L249.476 270.023ZM170.676 219.174C173.861 220.984 175.706 219.546 176.287 214.883L170.676 219.174ZM341.92 272.616L340.798 273.699L346.872 280.635L347.749 279.848L341.92 272.616ZM244.252 267.432L244.918 267.037L239.81 258.214L238.644 258.92L244.252 267.432ZM477.524 265.869L478.79 265.27C479.564 263.008 479.38 261.288 475.359 261.033L477.524 265.869ZM460.755 283.543L462.74 282.811C462.336 281.466 461.849 280.147 461.281 278.863C460.575 278.917 459.878 279.064 459.21 279.3L460.755 283.543ZM365.601 166.83L364.158 166.7L363.571 173.092L365.02 173.222L365.601 166.83ZM260.99 271.505L260.856 278.336C263.535 274.55 263.557 273.89 260.991 271.505L260.99 271.505ZM473.061 289.262L474.644 288.636L472.709 283.751L471.175 284.354L473.061 289.262ZM348.247 182.324L349.219 182.155C349.434 181.249 349.424 180.303 349.188 179.402C348.396 178.553 347.466 177.843 346.439 177.302L345.562 178.259L348.247 182.324ZM414.523 268.29L414.371 266.919L409.481 267.658C411.687 271.607 413.089 269.479 414.523 268.29ZM474.641 241.983C474.901 241.276 475.106 240.549 475.252 239.81C475.315 238.607 475.297 237.401 475.311 236.196C474.887 236.15 474.458 236.155 474.035 236.211C473.753 237.412 473.576 238.637 473.505 239.869C473.76 240.634 474.144 241.349 474.641 241.983H474.641ZM251.911 272.26C252.042 276.066 252.949 276.828 256.735 276.186L251.911 272.26ZM378.514 195.28L377.147 195.885L379.577 200.483L381.038 199.721L378.514 195.28ZM452.243 71.5022L453.114 71.8934L456.531 65.5308L455.237 64.8704L452.243 71.5022Z" fill="#41B37E" fill-opacity="0.5"/>
<path d="M97.1487 310.228C95.7828 310.739 94.9348 311.066 94.0798 311.374C93.3312 311.726 92.5071 311.888 91.6809 311.844C90.8547 311.8 90.0521 311.553 89.3446 311.124C88.6371 310.696 88.0467 310.098 87.6259 309.386C87.2052 308.674 86.9672 307.868 86.9331 307.042C86.8615 306.338 86.8454 305.63 86.8849 304.924C87.0298 303.53 86.7765 302.124 86.1542 300.868C85.532 299.613 84.5664 298.56 83.3695 297.831C78.7375 294.677 79.1503 291.51 84.2049 288.943C85.851 288.245 87.5449 287.664 89.2735 287.207C88.7729 285.283 88.0821 283.215 87.7176 281.09C87.1608 277.845 88.3606 276.76 91.4298 278.106C94.2218 279.54 96.9167 281.155 99.497 282.943C100.57 282.133 101.891 281.018 103.326 280.077C104.379 279.334 105.615 278.894 106.9 278.803C108.185 278.711 109.47 278.973 110.617 279.56C111.764 280.146 112.729 281.035 113.408 282.129C114.087 283.224 114.453 284.484 114.468 285.772C114.313 286.568 114.475 287.393 114.918 288.072C115.362 288.751 116.053 289.23 116.844 289.408C116.955 289.448 117.062 289.498 117.164 289.558C118.717 289.902 120.141 290.678 121.274 291.795C122.406 292.913 123.2 294.327 123.564 295.876C123.574 297.665 123.043 299.415 122.041 300.896C121.039 302.378 119.613 303.522 117.949 304.179C116.955 304.613 116.076 305.273 115.382 306.105C114.687 306.938 114.195 307.92 113.944 308.975C113.386 310.549 112.253 311.854 110.773 312.628C109.292 313.401 107.574 313.586 105.963 313.146C104.299 312.629 102.669 312.01 101.081 311.293C99.91 315.439 100.057 315.232 103.87 317.931C105.21 319.44 106.254 321.188 106.948 323.083C108.281 321.566 109.622 319.855 111.158 318.34C113.03 316.494 114.865 317.017 114.995 319.62C114.893 321.943 114.552 324.25 113.978 326.505L112.892 326.532L110.999 323.719C109.656 325.227 108.01 326.435 106.17 327.265C104.448 326.726 102.899 325.743 101.677 324.416C98.2923 327.246 98.2923 327.246 94.8916 322.597C90.4748 329.364 89.3192 320.865 85.838 320.821C86.4588 321.788 86.971 322.82 87.3653 323.899C87.4459 324.814 87.383 325.737 87.1789 326.633C86.4011 326.377 85.6987 325.933 85.1342 325.34C83.935 322.555 82.8971 319.705 82.0256 316.801C82.014 316.359 82.0965 315.919 82.2678 315.511C82.439 315.103 82.695 314.736 83.0188 314.435C83.76 314.411 84.4836 314.663 85.0505 315.141C87.0727 316.72 89.0027 318.417 90.7175 319.859C92.7639 318.115 94.7004 316.247 96.5161 314.264C97.0133 312.979 97.229 311.603 97.1487 310.228ZM108.465 294.009C109.576 296.142 110.958 298.122 112.579 299.899C113.236 300.447 114.008 300.838 114.838 301.044C115.668 301.25 116.533 301.265 117.37 301.088C118.878 299.632 120.092 297.9 120.947 295.986C118.677 294.478 116.243 293.231 113.692 292.271C111.838 292.433 110.047 293.028 108.465 294.009ZM100.647 287.76C100.842 288.803 101.249 289.795 101.844 290.673C102.57 290.762 103.304 290.613 103.937 290.249C105.341 289.764 106.703 289.155 108.113 288.693C108.634 288.631 109.135 288.451 109.577 288.167C110.019 287.883 110.39 287.502 110.663 287.054C110.936 286.605 111.104 286.101 111.154 285.578C111.203 285.055 111.133 284.528 110.949 284.036C110.765 283.544 110.472 283.101 110.091 282.739C109.711 282.377 109.253 282.106 108.753 281.947C108.252 281.788 107.722 281.745 107.202 281.821C106.683 281.896 106.187 282.089 105.753 282.385C103.871 283.997 102.16 285.798 100.647 287.76ZM107.836 300.83C106.175 303.269 100.653 303.357 103.81 307.835C104.705 308.423 105.727 308.792 106.791 308.911C107.856 309.029 108.934 308.895 109.937 308.517C112.227 307.609 111.487 304.939 107.836 300.83V300.83ZM90.152 306.028C90.8316 306.77 91.6054 307.419 92.4536 307.96C94.611 306.286 96.5401 304.317 98.5319 302.429C97.9319 301.421 97.0827 300.584 96.0659 299.999C95.2617 299.929 94.452 300.038 93.6949 300.318C92.9377 300.598 92.2519 301.042 91.6867 301.618C91.1214 302.195 90.6906 302.889 90.4253 303.651C90.16 304.414 90.0666 305.225 90.152 306.028V306.028ZM95.4131 296.149C95.1413 295.199 94.669 294.318 94.0281 293.566C93.3872 292.814 92.5926 292.208 91.6978 291.789C90.803 291.37 89.8288 291.148 88.8408 291.137C87.8527 291.126 86.8739 291.327 85.9702 291.727C85.5309 291.951 85.1465 292.269 84.8443 292.659C84.5421 293.049 84.3296 293.5 84.222 293.981C84.3748 294.447 84.6438 294.865 85.0034 295.197C85.3631 295.53 85.8015 295.765 86.2773 295.881C89.3054 296.159 92.3652 296.089 95.4131 296.149V296.149ZM97.2657 291.116C97.4689 290.063 97.4326 288.978 97.1593 287.941C96.8861 286.904 96.383 285.942 95.6873 285.126C94.9915 284.31 94.1211 283.661 93.1404 283.227C92.1597 282.793 91.094 282.586 90.0221 282.62L97.2657 291.116Z" fill="#41B37E" fill-opacity="0.5"/>
<path d="M521.395 337.331C521.131 335.839 521.098 334.316 521.298 332.814C523.251 326.994 524.888 321.072 526.201 315.074C523.83 318.796 521.69 322.693 519.021 326.188C516.512 329.473 517.015 334.826 511.508 337.149L510.959 324.239C507.694 327.914 505.789 332.597 505.561 337.507C505.732 338.31 505.779 339.136 505.698 339.953C505.286 340.925 504.765 341.848 504.146 342.703C503.411 342.096 502.79 341.362 502.314 340.536C501.155 337.124 500.192 333.646 499.038 329.796C497.444 334.836 500.68 339.678 498.925 344.281L497.889 344.422C497.358 343.22 496.968 341.96 496.726 340.668C496.448 336.92 496.476 333.151 496.236 329.399C495.939 324.745 495.463 320.103 495.131 315.45C495.034 314.103 495.165 312.739 495.192 311.382L496.366 310.967C497.059 311.928 497.626 312.974 498.052 314.08C499.518 320.062 500.844 326.078 502.218 332.082L503.233 332.161C504.92 329.063 506.593 325.958 508.299 322.871C509.264 321.125 510.206 319.357 511.323 317.71C511.881 317.183 512.535 316.769 513.251 316.491C513.791 317.162 514.188 317.936 514.417 318.767C514.499 321.794 514.356 324.828 514.276 328.888C519.601 320.43 525.88 312.612 532.99 305.588C532.017 310.997 530.321 316.251 527.948 321.208C526.419 326.596 524.469 331.865 522.704 337.187L521.395 337.331Z" fill="#41B37E" fill-opacity="0.5"/>
<path d="M460.14 340.047L465.797 333.801C466.256 334.985 466.53 336.233 466.609 337.501C465.942 340.939 465.119 344.351 464.197 347.731C463.777 348.334 463.216 348.827 462.562 349.165C462.192 348.537 461.944 347.844 461.83 347.124C461.909 345.625 462.256 344.141 462.551 342.29L457.406 346.613C455.354 341.304 457.838 336.991 458.249 332.614C454.093 335.49 454.486 341.847 449.133 344.675L448.245 340.086C446.778 340.209 444.726 343.023 443.71 338.675L441.815 342.409L440.806 341.564L437.256 331.94L435.885 332.061L435.566 348.261L434.04 348.345C433.466 347.066 433.105 345.702 432.971 344.307C433.451 338.101 434.148 331.912 434.856 325.726C435.121 325.125 435.52 324.593 436.022 324.17C436.672 324.537 437.241 325.033 437.693 325.628C438.934 328.494 440.019 331.428 441.047 334.051L445.127 330.038L447.474 334.777L452.739 335.502C455.979 331.441 459.876 326.557 463.774 321.673L465.11 322.1C464.982 323.415 464.733 324.715 464.365 325.983C462.618 330.5 460.73 334.962 458.895 339.444L460.14 340.047Z" fill="#41B37E" fill-opacity="0.5"/>
<path d="M58.0031 211.554C57.0297 208.003 56.0723 204.447 55.0778 200.901C54.2558 197.971 53.3169 195.071 52.5856 192.119C52.4718 191.108 52.4922 190.088 52.6463 189.083C53.7032 189.314 54.6973 189.773 55.5599 190.426C57.4557 192.882 59.0739 195.553 61.3233 198.928C61.3837 195.862 61.3012 193.786 61.5141 191.74C61.7605 190.618 62.1385 189.528 62.6405 188.494C63.5898 189.196 64.4821 189.972 65.309 190.815C65.8267 191.738 66.221 192.725 66.482 193.751C67.8214 190.359 68.811 187.613 70.0105 184.961C70.5534 184.175 71.2257 183.487 71.9987 182.926C72.6228 183.676 73.0707 184.557 73.3096 185.503C73.1134 190.558 72.6722 195.602 72.3798 200.654C72.0098 207.048 72.0381 207.047 78.2228 208.775C79.7463 209.082 81.1626 209.784 82.3307 210.809L69.1288 209.344L69.3576 197.722C67.9316 199.761 66.6087 201.871 65.3936 204.042C63.8911 207.05 62.5239 206.089 61.0014 204.189C60.2798 203.289 59.5695 202.38 58.6906 201.268C57.0357 204.919 61.9934 207.91 59.6143 211.259L58.0031 211.554Z" fill="#41B37E" fill-opacity="0.5"/>
<path d="M320.198 328.994C320.51 332.506 320.932 336.014 321.072 339.533C320.927 340.758 320.595 341.953 320.088 343.077C319.202 342.334 318.52 341.378 318.104 340.299C318.232 334.581 318.463 328.849 319.092 323.169C319.295 321.327 320.954 321.126 322.024 322.962C323.143 324.881 324.135 326.874 325.463 329.361C325.871 327.999 326.375 326.667 326.972 325.376C327.604 324.436 328.325 323.559 329.124 322.757C329.676 323.813 330.294 324.842 330.752 325.937C330.912 326.712 330.975 327.503 330.941 328.293C333.873 324.299 336.419 320.734 339.088 317.263C339.879 316.44 340.762 315.709 341.72 315.086C341.959 316.418 341.972 317.781 341.758 319.117C340.34 323.155 338.413 327.021 337.099 331.088C336.246 333.726 336.223 336.622 335.617 339.356C335.226 340.309 334.681 341.193 334.005 341.971C333.368 341.128 332.914 340.163 332.67 339.136C332.698 336.706 333.115 334.281 333.356 332.051L328.043 336.056C328.12 336.386 328.065 336.734 327.89 337.025C327.331 337.78 326.71 338.486 326.032 339.136C325.332 338.632 324.735 337.998 324.275 337.268C323.274 334.471 322.475 331.601 321.6 328.758L320.198 328.994Z" fill="#41B37E" fill-opacity="0.5"/>
<path d="M178.697 153.311C179.233 150.032 179.606 147.202 180.198 144.418C180.553 143.436 181.041 142.507 181.649 141.657C182.591 142.378 183.416 143.24 184.096 144.213C184.453 145.37 184.631 146.576 184.622 147.787C188.429 147.977 188.833 144.45 190.584 142.407C191.561 141.385 192.599 140.422 193.692 139.525C194.354 140.77 194.834 142.105 195.115 143.487C195.287 146.453 195.07 149.441 195.011 152.42L193.673 152.715L191.242 146.479C188.046 147.879 188.169 156.125 181.803 151.284C181.544 152.686 181.198 154.071 180.766 155.43C180.115 157.178 179.172 158.156 177.046 156.812C175.543 156.507 173.994 156.514 172.493 156.833L170.181 143.828C176.188 144.909 175.444 150.469 178.697 153.311Z" fill="#41B37E" fill-opacity="0.5"/>
<path d="M442.563 72.1853L437.104 56.2064L434.452 55.1249C435.068 53.8807 435.607 52.5906 436.32 51.4043C437.202 49.9353 438.228 48.5528 439.361 46.8848C441.433 46.9505 443.407 47.7791 444.904 49.2116C446.402 50.644 447.317 52.5793 447.475 54.6456L443.99 51.7211C443.618 52.5026 443.396 53.3474 443.336 54.2113C444.761 55.2644 446.249 56.2307 447.791 57.1049L447.002 61.3217L444.102 60.0852C443.653 62.2834 443.653 62.2834 449.668 63.0536L442.563 72.1853Z" fill="#41B37E" fill-opacity="0.5"/>
<path d="M380.608 64.9495L383.486 55.0148C385.488 60.0315 387.519 57.5893 389.265 56.8143C388.313 51.9647 387.414 47.1833 386.385 42.4297C386.254 42.1307 386.05 41.8694 385.792 41.6699C385.534 41.4703 385.23 41.3389 384.907 41.2878C382.986 41.4854 381.161 42.2285 379.648 43.4296C378.541 44.6638 377.822 46.1962 377.579 47.8362C377.337 49.4761 377.582 51.1513 378.284 52.6531C379.247 54.1713 379.839 55.8955 380.011 57.6854L375.194 51.5939L373.497 53.6484L372.509 53.0559C375.135 48.775 377.726 44.4712 380.441 40.2475C381.023 39.8442 381.72 39.6415 382.427 39.6704C385.329 39.27 388.238 38.9195 390.867 38.5858C389.023 40.4869 387.961 43.011 387.89 45.6583C387.818 48.3056 388.744 50.8831 390.483 52.8806C391.21 53.4325 391.805 54.1397 392.224 54.9506C392.644 55.7616 392.877 56.6558 392.908 57.5683C392.938 58.4809 392.765 59.3886 392.4 60.2256C392.035 61.0626 391.488 61.8078 390.799 62.4069C390.335 64.4568 390.312 66.5823 390.734 68.6414C390.294 69.9196 389.927 71.2218 389.636 72.5419C390.002 75.3422 390.216 78.1602 390.276 80.9837C389.529 78.1023 388.639 75.2485 388.078 72.3314C387.456 70.6109 386.459 69.0507 385.158 67.7642C383.858 66.4777 382.287 65.4973 380.56 64.8943L380.608 64.9495ZM389.948 60.0749L388.794 59.2623C387.288 60.2689 386.048 61.624 385.178 63.2125C385.399 65.0003 386.051 66.7075 387.079 68.1865L388.354 67.9695L389.948 60.0749Z" fill="#41B37E" fill-opacity="0.5"/>
<path d="M414.527 181.435C413.599 180.928 412.782 180.24 412.122 179.413C411.463 178.586 410.975 177.636 410.688 176.618C410.4 175.6 410.319 174.535 410.448 173.486C410.578 172.436 410.915 171.422 411.441 170.505C412.142 168.762 412.542 166.899 413.098 165.029C413.884 165.251 414.717 165.249 415.502 165.023C416.287 164.797 416.994 164.356 417.541 163.749C418.089 163.143 418.456 162.395 418.601 161.591C418.747 160.787 418.664 159.958 418.363 159.198L421.149 163.541L422.445 162.903L421.143 155.61C423.037 159.229 423.416 163.885 428.863 164.244L428.797 167.627C426.718 169.624 424.277 171.207 421.606 172.291C418.788 172.088 416.04 171.322 413.524 170.038C412.503 171.812 412.052 173.856 412.231 175.895C412.411 177.933 413.212 179.867 414.527 181.435ZM423.38 165.069C420.722 165.007 417.515 163.525 417.052 167.439C417.27 168.199 417.671 168.893 418.22 169.462C418.768 170.031 419.447 170.457 420.198 170.703C420.803 170.588 421.375 170.341 421.875 169.982C422.375 169.623 422.791 169.159 423.093 168.623C423.396 168.087 423.579 167.491 423.628 166.878C423.678 166.264 423.593 165.647 423.38 165.069H423.38Z" fill="#41B37E" fill-opacity="0.5"/>
<path d="M418.801 66.8575C418.467 72.1007 419.848 77.3102 422.736 81.6991C423.653 83.2714 425.036 84.5203 426.693 85.2737C429.802 86.1895 427.822 87.6934 427.892 89.8671C425.768 87.5657 424.021 86.153 421.727 88.4645C421.347 88.6379 420.929 88.7096 420.514 88.6725C420.098 88.6355 419.7 88.4911 419.357 88.2533C419.12 87.8822 418.979 87.4581 418.946 87.0189C418.913 86.5798 418.99 86.1394 419.169 85.7372C422.127 83.303 420.508 81.0915 419.555 78.3544C417.418 74.8779 416.594 70.7525 417.23 66.7219C417.31 65.9779 417.212 65.2258 416.947 64.5264C416.681 63.8271 416.254 63.2002 415.701 62.6966C414.738 61.9446 414.094 60.8568 413.899 59.6507C413.703 58.4446 413.97 57.2092 414.646 56.1915L418.415 59.7994C419.376 61.7016 417.257 65.2432 422.02 65.7007L418.801 66.8575Z" fill="#41B37E" fill-opacity="0.5"/>
<path d="M380.56 64.8946L376.086 68.9284C371.39 65.947 365.295 64.7743 365.786 58.0421C366.125 54.752 366.923 51.5257 368.158 48.4574C367.281 62.6097 367.387 63.1533 371.829 64.5176L371.98 56.8407L372.566 56.8088C372.654 59.1279 373.163 61.4117 374.069 63.5482C374.876 64.4357 375.94 65.0482 377.113 65.2994C378.286 65.5507 379.508 65.4282 380.607 64.9492L380.56 64.8946Z" fill="#41B37E" fill-opacity="0.5"/>
<path d="M418.087 127.059C417.779 127.55 417.492 128.056 417.159 128.529C416.399 129.184 415.785 129.993 415.358 130.901C414.93 131.809 414.699 132.797 414.679 133.801C414.659 134.805 414.851 135.801 415.242 136.726C415.632 137.65 416.213 138.482 416.947 139.168L413.538 137.554L414.613 149.699C409.691 141.063 411.234 130.907 418.142 127.121L418.087 127.059Z" fill="#41B37E" fill-opacity="0.5"/>
<path d="M417.772 97.9869C416.162 101.35 414.72 103.915 413.716 106.64C413.132 108.135 413.029 109.776 413.421 111.332C414.406 114.359 416.884 114.074 419.454 112.861L419.504 114.044C417.948 114.618 416.273 114.792 414.631 114.552C413.83 114.07 413.135 113.431 412.587 112.674C412.038 111.917 411.648 111.057 411.441 110.146C411.208 107.724 411.682 105.287 412.806 103.129C413.93 100.971 415.655 99.1848 417.772 97.9869Z" fill="#41B37E" fill-opacity="0.5"/>
<path d="M381.868 81.7534C381.669 84.1596 381.642 86.5771 381.789 88.9872C382.315 93.3076 385.1 94.3356 388.617 91.7537C388.945 91.5132 389.296 91.3038 389.636 91.0799L390.316 92.1074C388.717 93.4645 386.877 94.5105 384.893 95.1912C384.347 95.2172 383.801 95.1334 383.288 94.9447C382.775 94.756 382.304 94.4662 381.905 94.0926C381.506 93.719 381.185 93.2691 380.963 92.7696C380.741 92.27 380.621 91.7309 380.611 91.1841C379.483 86.0259 379.69 83.648 381.868 81.7534Z" fill="#41B37E" fill-opacity="0.5"/>
<path d="M377.218 103.524C371.681 108.842 375.083 113.882 376.579 119.436L371.638 113.909C371.754 111.913 372.079 109.935 372.609 108.007C373.49 106.228 374.56 104.549 375.801 102.999L377.218 103.524Z" fill="#41B37E" fill-opacity="0.5"/>
<path d="M363.082 67.3002C357.249 65.0273 353.787 56.8274 358.024 53.0679C357.948 55.7977 358.208 58.5265 358.798 61.1929C359.929 63.4216 361.372 65.478 363.082 67.3002Z" fill="#41B37E" fill-opacity="0.5"/>
<path d="M426.066 176.565L427.496 184.953L426.342 185.127L426.085 179.518L424.977 178.97L419.596 186.939C418.147 184.262 419.698 181.46 426.066 176.565Z" fill="#41B37E" fill-opacity="0.5"/>
<path d="M381.54 168.69C380.288 172.616 381.261 173.589 386.172 173.32C384.468 176.31 379.601 171.753 378.7 176.862L377.347 170.177C378.764 169.55 380.055 168.976 381.354 168.417L381.54 168.69Z" fill="#41B37E" fill-opacity="0.5"/>
<path d="M45.0005 212.678L57.4938 212.924C52.6331 216.113 46.1942 215.888 45.0005 212.678Z" fill="#41B37E" fill-opacity="0.5"/>
<path d="M370.685 124.387C371.554 124.981 372.244 125.801 372.68 126.759C373.117 127.717 373.283 128.776 373.161 129.822C373.736 133.5 374.71 137.104 376.066 140.571L373.129 140.377C372.827 138.126 372.482 135.241 372.046 132.369C371.634 129.659 371.127 126.963 370.685 124.387Z" fill="#41B37E" fill-opacity="0.5"/>
<path d="M418.142 127.121C420.36 126.324 422.559 125.469 424.802 124.751C426.393 124.241 428.045 123.917 430.113 123.399L431.922 125.716C427.577 126.139 422.834 126.601 418.09 127.061L418.142 127.121Z" fill="#41B37E" fill-opacity="0.5"/>
<path d="M449.728 94.4566L457.217 99.211C456.175 99.8354 454.951 100.085 453.748 99.9174C452.545 99.7502 451.435 99.1764 450.603 98.2914C449.747 97.1264 449.101 95.8209 448.694 94.4336L449.728 94.4566Z" fill="#41B37E" fill-opacity="0.5"/>
<path d="M360.859 61.3491C359.798 59.0269 359.435 56.4458 359.816 53.921C360.197 51.3962 361.304 49.0369 363.004 47.1311L360.859 61.3491Z" fill="#41B37E" fill-opacity="0.5"/>
<path d="M230.974 336.804L241.555 337.012L241.519 338.11L230.857 337.9L230.974 336.804Z" fill="#41B37E" fill-opacity="0.5"/>
<path d="M424.924 32.6347C424.494 30.8225 424.322 28.9588 424.413 27.0986C424.641 25.8339 425.349 24.7065 426.39 23.9521C427.43 23.1977 428.722 22.8747 429.995 23.0507C428.326 23.8733 427.037 25.3056 426.395 27.0517C425.752 28.7977 425.805 30.7238 426.543 32.4318L424.924 32.6347Z" fill="#41B37E" fill-opacity="0.5"/>
<path d="M450.799 122.11L456.307 125.371C455.799 125.782 455.214 126.087 454.587 126.268C453.959 126.449 453.301 126.502 452.652 126.425C452.004 126.348 451.377 126.141 450.809 125.818C450.242 125.494 449.745 125.06 449.348 124.541C448.077 122.709 449.489 122.413 450.862 122.179L450.799 122.11Z" fill="#41B37E" fill-opacity="0.5"/>
<path d="M449.986 100.773L455.826 102.845C455.586 103.278 455.258 103.656 454.863 103.954C454.468 104.252 454.015 104.464 453.533 104.577C453.051 104.69 452.551 104.701 452.065 104.608C451.579 104.516 451.117 104.323 450.71 104.042C449.903 103.209 449.282 102.215 448.887 101.124L449.986 100.773Z" fill="#41B37E" fill-opacity="0.5"/>
<path d="M471.968 324.104L481.363 324.871L481.305 325.641L471.818 325.454L471.968 324.104Z" fill="#41B37E" fill-opacity="0.5"/>
<path d="M106.049 175.324L114.956 177.004L114.785 177.933C111.847 177.204 108.399 179.241 106.049 175.324Z" fill="#41B37E" fill-opacity="0.5"/>
<path d="M386.016 191.953C384.087 191.651 382.334 190.655 381.086 189.153C379.838 187.651 379.181 185.746 379.238 183.794L386.016 191.953Z" fill="#41B37E" fill-opacity="0.5"/>
<path d="M431.293 34.408C430.683 33.5843 430.359 32.5838 430.37 31.559C430.381 30.5341 430.727 29.541 431.355 28.7308C432.436 27.8217 433.688 27.139 435.038 26.7234L431.293 34.408Z" fill="#41B37E" fill-opacity="0.5"/>
<path d="M352.419 319.636L360.215 319.789L360.287 320.632L352.514 321.301L352.419 319.636Z" fill="#41B37E" fill-opacity="0.5"/>
<path d="M45.5823 149.182L53.9839 148.734L54.066 150.212L45.7234 150.682L45.5823 149.182Z" fill="#41B37E" fill-opacity="0.5"/>
<path d="M421.997 143.574L425.04 142.046L425.648 142.478C424.585 143.83 423.553 145.209 422.421 146.501C422.217 146.54 422.007 146.537 421.804 146.493C421.601 146.449 421.409 146.364 421.239 146.245C421.076 145.106 421.062 143.946 421.001 142.793L421.997 143.574Z" fill="#41B37E" fill-opacity="0.5"/>
<path d="M268.888 314.652L261.523 313.535L261.731 312.158L269.073 313.276L268.888 314.652Z" fill="#41B37E" fill-opacity="0.5"/>
<path d="M457.207 121.541C456.371 122.177 455.42 122.647 454.407 122.923C453.171 122.827 451.956 122.554 450.799 122.111L450.862 122.18C451.05 121.238 451.239 120.296 451.372 119.633L457.261 121.603L457.207 121.541Z" fill="#41B37E" fill-opacity="0.5"/>
<path d="M89.7396 156.217L81.9824 155.698L82.119 154.297L89.8474 155.158L89.7396 156.217Z" fill="#41B37E" fill-opacity="0.5"/>
<path d="M478.056 156.015C478.669 149.21 479.231 142.975 479.793 136.74L479.247 136.51L477.271 139.655L476.548 139.291L479.959 131.929C482.7 135.267 481.159 153.772 478.056 156.015Z" fill="#41B37E" fill-opacity="0.5"/>
<path d="M479.072 90.0416C480.44 96.293 481.763 102.339 483.085 108.385L484.425 108.418L487.14 99.0702L488.045 99.34L484.762 111.397C480.554 107.781 476.857 92.9594 479.072 90.0416Z" fill="#41B37E" fill-opacity="0.5"/>
<path d="M490.64 62.771L489.446 73.8062L487.034 71.5802C487.94 70.1933 488.681 68.7053 489.241 67.1464C489.976 62.4944 489.361 57.7294 487.471 53.4158C487.084 52.0277 486.814 50.6094 486.666 49.176L487.616 48.9486C489.8 55.4061 491.985 61.8637 494.169 68.3213L493.726 68.5998L490.64 62.771Z" fill="#41B37E" fill-opacity="0.5"/>
<path d="M495.7 116.317C491.755 108.187 488.787 99.6183 486.858 90.7904L488.385 90.3433C490.824 99.0011 493.262 107.659 495.7 116.317Z" fill="#41B37E" fill-opacity="0.5"/>
<path d="M463.563 207.306C461.407 212.352 459.251 217.399 457.095 222.446L455.782 221.87C457.205 216.518 459.564 211.46 462.749 206.93L463.563 207.306Z" fill="#41B37E" fill-opacity="0.5"/>
<path d="M477.593 84.3665L470.641 104.481C471.202 97.2922 473.595 90.3672 477.593 84.3665Z" fill="#41B37E" fill-opacity="0.5"/>
<path d="M485.371 64.081C484.735 56.6399 484.098 49.1988 483.462 41.7578L484.82 41.6851L486.279 64.0299L485.371 64.081Z" fill="#41B37E" fill-opacity="0.5"/>
<path d="M494.694 149.352L493.096 135.338L495.005 135.167L495.862 149.19L494.694 149.352Z" fill="#41B37E" fill-opacity="0.5"/>
<path d="M471.278 58.7649L477.061 49.4271C477.316 51.4111 476.88 53.4223 475.827 55.1228C474.774 56.8233 473.167 58.1094 471.278 58.7649Z" fill="#41B37E" fill-opacity="0.5"/>
<path d="M485.756 143.429L490.202 153.467L492.308 149.404L492.834 149.552L491.223 155.412C489.531 153.896 488.176 152.043 487.244 149.972C486.312 147.901 485.824 145.657 485.811 143.386L485.756 143.429Z" fill="#41B37E" fill-opacity="0.5"/>
<path d="M469.678 106.426L471.262 110.141L472.398 110.088L469.902 116.059L468.528 115.689L469.678 106.426Z" fill="#41B37E" fill-opacity="0.5"/>
<path d="M470.559 170.975L464.249 179.775L463.229 179.116L469.399 170.205L470.559 170.975Z" fill="#41B37E" fill-opacity="0.5"/>
<path d="M474.689 205.475C474.059 208.054 476.801 210.933 472.989 213.237L473.61 205.462L474.689 205.475Z" fill="#41B37E" fill-opacity="0.5"/>
<path d="M468.405 158.008L471.306 151.063L472.347 151.463L469.975 158.546L468.405 158.008Z" fill="#41B37E" fill-opacity="0.5"/>
<path d="M485.81 143.386L484.021 132.29L485.454 132.114C486.15 135.846 486.252 139.664 485.756 143.428L485.81 143.386Z" fill="#41B37E" fill-opacity="0.5"/>
<path d="M311.952 137.144L310.074 138.798L315.931 150.471L315.148 150.914C312.56 146.681 309.972 142.448 307.17 137.866C308.693 137.656 310.346 137.428 311.999 137.202L311.952 137.144Z" fill="#41B37E" fill-opacity="0.5"/>
<path d="M397.326 252.371C394.221 254.718 390.487 256.085 386.601 256.297L386.256 255.453L396.716 250.979L397.326 252.371Z" fill="#41B37E" fill-opacity="0.5"/>
<path d="M346.271 216.417L356.563 212.927L356.881 213.797L346.64 217.621L346.271 216.417Z" fill="#41B37E" fill-opacity="0.5"/>
<path d="M265.391 189.989L271.423 189.515C267.252 185.7 266.158 179.494 259.377 179.758C258.633 179.362 258.009 178.776 257.567 178.059C258.343 177.848 259.119 177.635 259.895 177.426C260.736 177.199 261.578 176.976 262.725 176.67L267.552 179.385C267.117 180.236 266.905 181.185 266.938 182.14C269.172 184.829 271.544 187.398 274.047 189.837C275.088 190.556 276.228 191.121 277.432 191.512L276.732 194.125L265.259 191.233L265.391 189.989Z" fill="#41B37E" fill-opacity="0.5"/>
<path d="M259.095 167.495C257.532 168.154 255.819 168.369 254.142 168.114C252.466 167.86 250.893 167.147 249.597 166.054L252.805 165.105L243.451 151.542L244.243 151.06L259.095 167.495Z" fill="#41B37E" fill-opacity="0.5"/>
<path d="M288.657 210.64L295.764 214.587L294.044 216.361L301.446 223.664L300.806 224.638L292.428 223.05L292.396 222.136L295.302 220.855C294.729 218.938 293.582 217.242 292.016 215.995C290.45 214.749 288.54 214.013 286.542 213.885L288.657 210.64Z" fill="#41B37E" fill-opacity="0.5"/>
<path d="M286.783 203.855L285.99 206.651C284.012 204.72 281.912 202.88 278.721 206.099L273.721 197.957L274.334 197.135C275.705 199.183 277.556 200.866 279.726 202.037C281.895 203.208 284.318 203.832 286.783 203.855Z" fill="#41B37E" fill-opacity="0.5"/>
<path d="M294.154 228.134C297.696 227.511 301.342 227.947 304.637 229.388C304.413 230.042 304.079 230.654 303.649 231.195C300.424 230.753 297.219 230.163 294.01 229.607L294.154 228.134Z" fill="#41B37E" fill-opacity="0.5"/>
<path d="M217.815 175.617L219.661 170.835L223.16 176.127L217.743 175.557L217.815 175.617Z" fill="#41B37E" fill-opacity="0.5"/>
<path d="M234.832 207.783C232.623 206.305 231.012 204.089 230.289 201.532C229.565 198.974 229.775 196.243 230.881 193.826C231.435 191.535 231.791 189.2 231.947 186.847C232.721 187.547 233.414 188.333 234.011 189.189C238.797 199.089 243.486 209.036 248.316 218.915C249.322 220.574 250.47 222.145 251.745 223.608L248.509 225.009L256.348 237.311C254.791 237.007 253.347 236.287 252.167 235.227C250.987 234.167 250.116 232.808 249.647 231.293C248.389 227.651 246.76 224.137 245.537 220.485C244.98 218.821 245.011 216.96 244.289 215.144C243.668 217.465 243.362 219.859 243.38 222.262C244.014 224.874 244.923 227.41 246.092 229.831C246.448 230.799 246.72 231.798 247.03 232.783L247.083 232.74C245.888 230.635 244.568 228.59 243.524 226.412C240.55 220.211 237.689 213.956 234.783 207.722C237.064 211.215 239.345 214.709 241.625 218.203L242.514 217.714C241.408 209.885 235.753 204.363 231.369 198.145L234.832 207.783ZM233.459 193.514L232.352 194.188L242.289 211.727L243.563 210.989L233.459 193.514Z" fill="#41B37E" fill-opacity="0.5"/>
<path d="M233.904 226.428L234.8 230.722L234.362 230.931L223.303 214.133L224.373 213.297C225.805 215.093 227.312 216.836 228.653 218.699C230.364 221.077 231.942 223.552 233.578 225.986C233.688 226.132 233.797 226.279 233.904 226.428Z" fill="#41B37E" fill-opacity="0.5"/>
<path d="M233.577 225.985L226.376 212.088C232.542 217.426 234.477 225.154 238.239 231.852L237.35 232.364L233.903 226.427C233.796 226.278 233.687 226.131 233.577 225.985Z" fill="#41B37E" fill-opacity="0.5"/>
<path d="M240.702 196.545C243.622 201.205 246.537 205.867 249.447 210.533C249.615 211.106 249.712 211.698 249.736 212.295C244.811 208.41 241.563 202.784 240.662 196.575L240.702 196.545Z" fill="#41B37E" fill-opacity="0.5"/>
<path d="M226.241 204.496C230.35 204.091 233.195 208.087 234.213 214.667L226.241 204.496Z" fill="#41B37E" fill-opacity="0.5"/>
</svg>
