<svg width="107" height="227" viewBox="0 0 107 227" fill="none" xmlns="http://www.w3.org/2000/svg">
<path d="M4.96427 232.677C11.3753 226.403 17.7842 220.124 24.0548 213.711C29.0195 208.544 32.679 202.266 34.7289 195.399C36.8878 187.334 38.0833 179.041 38.2906 170.694C38.2885 169.428 38.1368 168.167 37.8386 166.938C37.3329 164.015 36.7139 161.111 36.2553 158.182C35.3821 151.078 36.8088 143.881 40.3259 137.647C43.9508 130.893 49.1916 125.142 55.5806 120.907C61.0236 117.122 62.9693 111.892 64.0473 106.062C65.4393 98.535 66.3243 90.9154 67.5723 83.3596C68.0784 81.0739 68.7145 78.8188 69.4774 76.6054C70.7424 76.4767 72.2546 76.3339 73.764 76.167C78.5696 75.8746 83.0916 73.7939 86.44 70.3346C91.3371 64.7559 95.3607 58.4673 98.3738 51.6831C99.6022 49.08 100.437 46.1505 103.689 44.3473C107.548 42.2077 106.829 37.718 102.928 35.2237C101.654 34.5349 100.453 33.7189 99.3424 32.7882C99.0305 32.4556 98.8013 32.0543 98.6731 31.6168C98.5449 31.1792 98.5214 30.7177 98.6044 30.2694C100.456 26.074 102.638 22.0234 104.472 17.8211C105.581 15.3098 106.41 12.6845 106.946 9.99217C107.107 9.15935 105.991 7.64957 105.082 7.17661C104.568 7.01822 104.022 6.99094 103.494 7.09721C102.967 7.20349 102.474 7.43996 102.062 7.78513C100.132 9.92635 98.4158 12.2509 96.9378 14.7256C94.4702 18.976 92.2984 23.3981 90.0408 27.6755C86.517 26.564 82.9337 25.6509 79.3076 24.9405C79.4733 24.5912 79.6356 24.239 79.8073 23.8982C83.1215 17.5551 85.1862 10.6345 85.8892 3.51245C85.935 2.31854 85.5292 1.15123 84.7527 0.243149C84.3553 -0.190292 82.6434 -0.0075531 81.9958 0.499481C80.5594 1.57068 79.3312 2.89575 78.372 4.40919C75.5584 9.17618 72.9973 14.0915 70.2399 18.893C70.0185 19.2005 69.7326 19.4559 69.402 19.6411C69.0715 19.8264 68.7044 19.937 68.3266 19.9652C65.183 19.9712 62.033 19.8808 58.8975 19.658C55.7757 19.4361 55.3853 22.0752 54.5884 23.9131C54.0368 24.7836 53.8335 25.8298 54.0189 26.8435C54.2044 27.8571 54.7649 28.7637 55.5888 29.3825C57.7397 30.8336 57.3342 32.637 56.5773 34.5618C53.6374 42.0375 50.0345 49.2992 50.525 57.7231C50.4272 61.3177 51.5008 64.8466 53.5837 67.7778C56.3241 70.3119 59.3061 72.5715 62.487 74.524C63.1248 75.0145 63.9061 76.0834 63.7702 76.6971C62.1514 84.0017 60.3572 91.267 58.6451 98.5512C58.2769 100.118 58.1591 101.747 57.7447 103.299C56.2494 108.897 55.1322 114.684 49.7734 118.278C48.1074 119.332 46.6228 120.648 45.377 122.175C41.9776 126.099 39.0119 130.378 36.5317 134.939C34.4698 139.419 30.9256 143.313 30.7514 148.745C30.6539 151.789 28.9864 154.761 28.7321 157.825C28.3682 162.463 28.3277 167.122 28.6106 171.766C28.9686 178.074 30.2733 184.157 28.598 190.697C27.1607 195.769 24.6792 200.484 21.3128 204.541C17.2481 209.859 13.1004 215.119 8.81527 220.259C6.03733 223.592 2.89254 226.616 0.0474014 229.896C-0.531181 230.563 4.36537 233.263 4.96427 232.677ZM100.176 14.4693C100.514 14.6542 100.881 14.8259 101.215 15.0462C101.52 15.2468 101.79 15.5005 102.712 16.2441C102.618 14.8317 102.606 13.415 102.676 12.0011C102.819 11.147 103.25 10.3675 103.897 9.79193C104.205 11.3137 104.152 12.8867 103.742 14.3842C103.331 15.8817 102.575 17.2618 101.533 18.4135C98.6277 16.6353 98.6277 16.6354 100.176 14.4693H100.176ZM97.6557 18.5113C97.8268 18.1719 99.2572 18.0393 99.2901 18.1245C99.6365 19.02 100.252 20.1432 99.9696 20.8931C98.6279 24.4538 97.1125 27.9572 95.4851 31.3987C94.7248 33.0067 93.7628 33.1495 90.9125 32.3694C93.1781 27.6664 95.3627 23.0614 97.6558 18.5113H97.6557ZM81.4895 9.84193C81.2109 8.89963 80.993 8.16185 80.775 7.4239L81.5669 7.13698C81.9427 8.06931 82.3185 9.00159 82.4857 9.4165C81.2115 10.6753 80.2506 11.6246 79.2927 12.5707C79.1455 11.7004 78.9978 10.8286 78.8075 9.70226C80.0087 9.76483 80.7193 9.80173 81.4896 9.84193H81.4895ZM73.6528 23.6085C74.7312 20.3997 76.0546 17.2663 77.4278 14.1686C77.72 13.5098 78.6209 13.1205 79.2586 12.6148C79.7823 13.3872 80.306 14.1587 80.6717 14.697C79.1541 18.6979 77.6796 22.5851 76.2483 26.3587C74.0115 26.2397 73.135 25.1495 73.6529 23.6085H73.6528ZM68.0565 22.6905C68.6741 22.9192 68.4106 25.5285 68.5663 27.2224C70.3 27.9281 72.2303 28.8501 74.2488 29.4978C76.3077 30.1587 77.9477 29.7666 78.4709 27.2198C78.5354 26.9837 78.6118 26.7511 78.6996 26.5226C81.6574 28.2278 86.3559 28.9769 89.0263 30.3275C88.7992 31.1147 88.4944 31.9709 88.3198 32.8527C88.1459 33.3905 88.1578 33.9711 88.3537 34.5012C90.4895 35.6981 92.9707 36.1277 95.3845 35.7185C96.0803 35.3027 96.893 35.126 97.6986 35.2153C98.5042 35.3047 99.2585 35.6551 99.8463 36.2132C92.4317 39.4095 64.1147 29.2231 61.4791 21.9966C63.6925 21.9375 65.9041 22.1708 68.0566 22.6905H68.0565ZM72.9318 32.9064C78.4197 34.9396 83.9217 36.953 89.4962 38.7288C93.111 39.8497 96.9819 39.8401 100.591 38.7015C101.42 38.4441 102.304 38.4277 103.142 38.6543C103.368 38.8766 103.535 39.1519 103.628 39.4551C103.721 39.7584 103.736 40.0801 103.673 40.3909C102.962 41.325 101.91 42.7503 101.07 42.6991C98.121 42.5412 95.2 42.0462 92.3638 41.2237C88.0736 39.9367 83.8922 38.2772 79.6908 36.7058C76.0427 35.3413 72.4377 33.8616 68.7994 32.4701C67.2921 32.0267 65.8103 31.5005 64.3609 30.8939C63.002 30.1912 57.7672 25.8288 58.2377 23.7074C62.1013 29.0953 67.5804 30.9236 72.9319 32.9064H72.9318ZM54.0653 61.7847C52.5833 57.2137 52.7276 52.2709 54.4736 47.7942C56.4947 42.6286 58.2399 37.3593 59.702 32.0086C72.9474 36.8152 85.7867 41.4747 99.2507 46.3609C95.0551 53.1211 91.2494 60.0339 86.667 66.3862C85.0203 68.8533 82.7224 70.816 80.0281 72.0566C77.3339 73.2973 74.3487 73.7674 71.4035 73.4149C63.2954 72.5947 55.4953 67.7034 54.0654 61.7847H54.0653ZM51.3756 120.15C53.7025 118.343 55.6353 116.08 57.0555 113.5C58.4506 110.268 59.4892 106.893 60.1528 103.436C61.1945 99.2435 62.0088 94.9944 63.4316 90.8415C63.1065 93.0379 62.7278 95.228 62.4685 97.4321C62.0796 100.737 62.0736 104.117 61.3654 107.347C60.208 112.502 57.2226 117.063 52.9615 120.187C48.8162 123.412 45.1535 127.258 41.9788 130.185C44.5583 126.362 47.7304 122.975 51.3758 120.15H51.3756ZM5.84587 227.138C11.7443 220.074 17.8307 213.161 23.5182 205.933C26.4549 202.528 28.7932 198.65 30.4336 194.464C32.2312 189.783 32.9152 184.749 32.4314 179.758C31.5681 173.777 31.0484 167.75 30.8748 161.709C31.0914 158.477 31.6225 155.274 32.4605 152.146L33.2383 152.182C33.3252 153.178 33.3837 154.177 33.504 155.169C34.01 159.345 34.5508 163.518 35.0429 167.695C35.2495 169.021 35.3404 170.363 35.3145 171.705C35.2129 175.97 34.8742 180.226 34.3 184.453C33.5337 189.22 32.3349 193.907 30.7183 198.456C30.0292 200.706 29.0539 202.858 27.8164 204.86C26.042 207.453 24.0808 209.913 21.9483 212.221C16.7293 217.722 11.3453 223.066 6.01653 228.463C5.85713 228.625 5.56872 228.659 5.04683 228.873C5.24471 228.266 5.51287 227.683 5.84587 227.138Z" fill="#41B37E" fill-opacity="0.5"/>
<path d="M78.6909 57.0307C78.8839 56.3514 78.9408 55.6406 78.8584 54.9392C78.776 54.2378 78.5558 53.5595 78.2106 52.9434C77.8654 52.3273 77.4019 51.7854 76.8467 51.3489C76.2915 50.9124 75.6555 50.5899 74.9754 50.3998C74.4486 50.1612 73.8795 50.0301 73.3014 50.0142C72.7234 49.9983 72.1479 50.0979 71.6088 50.3071C71.0697 50.5163 70.5777 50.831 70.1617 51.2326C69.7457 51.6343 69.414 52.115 69.186 52.6464C68.8365 54.0665 69.0018 55.5645 69.6525 56.8742C70.3033 58.1839 71.3972 59.2204 72.7401 59.7997C73.8956 59.994 75.0829 59.8333 76.1453 59.339C77.2077 58.8446 78.0953 58.0398 78.6909 57.0307Z" fill="#41B37E" fill-opacity="0.5"/>
</svg>
