<svg width="286" height="300" viewBox="0 0 286 300" fill="none" xmlns="http://www.w3.org/2000/svg">
<path d="M144.362 163.32C141.012 163.987 137.708 164.865 134.469 165.948C123.025 170.53 91.85 180.518 89.6276 180.102C90.1725 177.928 90.9848 175.83 92.046 173.856C98.6947 164.45 105.644 155.257 112.331 145.878C122.372 131.797 131.814 117.261 142.353 103.566C160.891 79.4757 214.257 19.1656 216.059 18.6211C216.234 20.6461 209.918 37.7993 206.863 44.4781C196.428 67.2877 186.07 90.1326 175.79 113.013C174.936 114.907 174.464 116.973 173.267 120.637C184.399 119.318 194.162 117.829 203.981 117.123C209.93 116.821 215.894 117.067 221.798 117.859C225.204 118.246 184.697 176.583 164.128 200.418C151.271 215.317 135.788 227.919 121.961 242.019C110.39 253.819 79.097 282.472 78.0292 281.347C77.0274 280.292 102.113 234.736 110.302 221.505C121.541 203.345 132.92 185.272 144.221 167.151C144.575 166.479 144.876 165.781 145.122 165.062L144.362 163.32ZM211.681 126.576C204.576 126.576 198.785 126.329 193.024 126.635C184.884 127.068 176.776 128.119 168.635 128.504C162.876 128.777 160.426 125.323 162.707 120.714C167.566 110.896 172.793 101.25 177.353 91.2979C182.229 80.6572 186.513 69.7447 191.055 58.9509C190.451 58.6027 113.828 156.414 107.697 165.38C114.831 164.349 121.848 162.633 128.652 160.255C137.004 157.508 145.243 154.406 153.639 151.807C158.077 150.433 159.759 152.381 158.102 156.702C156.749 160.645 155.004 164.442 152.893 168.036C141.458 185.93 129.773 203.663 118.234 221.491C117.172 223.372 116.224 225.315 115.394 227.31C116.82 227.653 118.212 228.122 119.554 228.713C120.177 229.215 120.902 229.576 121.678 229.772C122.454 229.968 123.263 229.995 124.05 229.85C124.837 229.705 125.584 229.392 126.239 228.933C126.895 228.473 127.443 227.878 127.847 227.187C130.676 223.584 127.208 222.439 125.837 220.286C125.339 218.977 125.09 217.587 125.102 216.187C126.921 216.082 129.484 215.16 130.427 216.018C133.938 219.212 135.914 218.75 139.192 215.242C142.563 211.634 141.559 209.648 138.811 206.9C138.081 206.169 137.973 204.817 137.666 203.985C142.099 199.156 144.43 204.97 147.855 205.655L155.662 199.267C154.03 197.167 152.559 194.947 151.26 192.627C150.908 191.204 150.805 189.731 150.956 188.274C152.575 188.144 154.205 188.295 155.774 188.718C157.489 189.804 159.063 191.097 160.462 192.568L169.152 182.58C167.481 180.715 165.951 178.727 164.576 176.634C164.295 176.055 164.159 175.417 164.178 174.774C164.198 174.131 164.373 173.503 164.688 172.942C165.229 172.58 165.844 172.344 166.488 172.252C167.132 172.159 167.788 172.212 168.409 172.407C169.661 172.783 170.578 174.56 171.784 174.734C173.446 174.974 176.15 174.866 176.791 173.868C178.216 171.74 178.93 169.214 178.83 166.654C178.146 164.097 177.054 161.666 175.595 159.457C178.309 160.139 181.024 160.823 183.738 161.507C184.297 161.649 184.849 161.816 185.715 162.058C188.827 157.857 191.934 153.661 194.211 150.588C192.285 146.863 190.971 144.324 189.657 141.784H200.599C203.605 137.659 207.327 132.551 211.681 126.576ZM113.926 229.664L104.704 246.32L106.121 247.209L118.132 236.22L113.926 229.664Z" fill="#41B37E" fill-opacity="0.5"/>
</svg>
