<svg width="236" height="241" viewBox="0 0 236 241" fill="none" xmlns="http://www.w3.org/2000/svg">
<path d="M119.879 240.815C109.559 240.033 98.8068 238.899 88.0021 238.5C79.2383 238.177 71.2467 235.043 62.8362 233.491C61.8482 233.18 60.9082 232.733 60.0432 232.163C49.3897 226.75 40.1849 219.234 30.5107 212.391C26.977 209.891 21.9822 208.66 19.7162 205.383C17.5629 202.596 15.2671 199.922 12.8382 197.371C6.4067 189.804 -0.32341 182.421 -5.96779 174.275C-9.70022 168.364 -12.7893 162.071 -15.1822 155.503C-24.441 132.946 -23.9817 109.677 -15.5492 86.591C-8.04459 66.6982 3.95769 48.8098 19.52 34.3232C22.8795 31.1035 25.7633 27.3892 29.0022 24.0343C30.2554 22.6797 31.7399 21.5591 33.386 20.7251C47.3595 13.6169 62.0459 8.00712 77.1999 3.98948C89.863 0.72086 102.959 -0.55169 116.014 0.217763C121.961 0.703583 127.906 1.37096 133.77 2.36417C141.422 3.4916 149.007 5.03421 156.492 6.9852C168.562 10.1598 179.626 16.3514 188.645 24.9779C192.936 29.1841 198.095 32.4933 202.467 36.6266C215.543 48.9919 226.995 62.5859 230.585 81.0994C232.434 90.6338 233.098 100.437 234.896 109.985C237.658 124.645 234.831 139.118 230.888 153.072C226.3 169.309 219.787 185.143 207.711 197.965C201.521 204.537 195.752 211.558 189.15 217.676C181.054 224.644 171.612 229.873 161.411 233.039C156.423 234.785 151.3 236.117 146.093 237.022C137.612 238.514 129.06 239.514 119.879 240.815ZM45.979 208.567C44.4948 206.965 43.0106 205.363 41.5623 203.801L38.6504 210.639C41.6894 209.761 43.8568 209.135 46.0244 208.51L43.6026 214.998L48.9476 213.585L48.4836 218.345C49.7695 218.877 51.5891 219.035 52.0545 219.931C53.6346 222.976 55.0613 222.926 57.5812 220.675C58.4589 219.891 60.5197 220.448 61.9167 220.397L59.2381 225.358L64.6967 223.145L65.0117 228.434L86.2522 232.664C85.3112 231.094 85.1039 230.282 84.5828 229.951C80.0975 227.1 75.6473 224.175 70.9973 221.602C68.1439 219.632 64.9021 218.295 61.4897 217.682C54.4621 217.274 48.983 215.192 45.979 208.567ZM47.3326 71.34C47.4813 71.4827 47.6292 71.6262 47.7762 71.7705C48.3102 73.4475 49.3849 74.9003 50.8322 75.9018C52.2795 76.9032 54.0179 77.3968 55.7755 77.3055C59.6303 76.4377 59.5169 73.4275 59.1803 70.4705C59.0292 69.1447 58.7153 67.8432 58.4776 66.5328C58.3472 63.6535 57.7615 60.813 56.7425 58.1169C53.2707 52.1433 49.086 46.6045 45.2971 40.817C44.8983 39.8317 44.6763 38.7838 44.6412 37.7214C51.2472 41.7562 51.6642 50.7791 59.0235 54.2512C60.403 51.676 61.0741 48.7809 60.9682 45.8614C60.8624 42.942 59.9834 40.1031 58.421 37.6346L57.3123 40.7873L36.9426 27.9743L36.0021 28.9622C37.5288 32.1089 38.8058 35.4152 40.6285 38.3726C46.4482 47.8148 52.4704 57.1274 58.4145 66.4901C57.1513 66.5429 55.3696 67.1471 54.7255 66.5417C53.0471 64.865 51.6082 62.9645 50.4497 60.8942C44.3429 50.6388 38.3285 40.3262 31.181 28.1601C28.1766 32.1991 25.292 35.9837 22.5331 39.8562C21.8861 40.7642 21.0519 42.2175 21.3438 42.9992C24.2369 50.1806 28.4599 56.7513 33.7908 62.366C33.7887 61.3352 33.4966 60.3259 32.948 59.4533C30.2762 54.6553 27.5162 49.9071 24.9357 45.0584C23.9265 43.1619 23.3019 41.0467 26.4874 40.675C29.3464 45.7944 31.9361 50.7983 34.867 55.5853C38.383 61.3284 40.6183 68.1603 47.3326 71.34ZM224.527 97.9035C226.057 101.241 227.588 104.578 229.118 107.916C228.39 104.156 230.251 99.0609 224.498 97.9372C222.319 94.6176 220.052 91.3529 218.007 87.9502C217.236 86.6675 216.174 84.7518 216.629 83.665C218.177 79.9634 215.967 80.3285 213.694 80.2885C209.35 80.2121 205.009 80.0714 200.671 79.8928C196.808 79.7338 192.956 79.2802 189.092 79.343C188.4 79.28 187.703 79.3992 187.072 79.6888C186.44 79.9785 185.895 80.4285 185.491 80.9941C185.087 81.5597 184.838 82.2212 184.769 82.9128C184.699 83.6044 184.813 84.3021 185.097 84.9365C189.002 92.4305 192.876 99.9568 197.174 107.217C201.257 114.114 205.818 120.719 210.258 127.391C211.59 129.369 213.077 131.238 214.705 132.982C216.198 134.596 217.941 135.977 219.574 137.461C214.819 130.431 211.317 122.813 206.989 115.717C202.434 108.248 196.789 101.469 192.26 93.9861C190.751 91.4925 191.218 87.7556 190.781 84.5871L192.548 84.1601C198.694 92.0813 204.841 100.002 210.987 107.924C209.781 104.756 208.288 101.705 206.527 98.8089C203.407 93.9255 199.941 89.2719 196.797 84.4037C196.345 83.7038 196.877 82.3462 196.953 81.293C197.82 81.8383 198.984 82.179 199.507 82.9616C203.497 88.9298 207.362 94.9842 211.266 101.012C210.73 97.5958 209.752 94.2642 208.355 91.1011C207.189 88.343 203.677 86.4827 204.478 83.0011L205.911 82.3297C209.167 87.3964 212.423 92.4631 215.65 97.4827L219.008 95.8065C217.746 93.8516 216.396 91.7613 215.047 89.6711L216.458 88.5498C219.148 91.6677 221.837 94.7856 224.527 97.9035ZM161.879 227.361C158.849 225.482 156.513 222.667 155.226 219.341C153.939 216.016 153.77 212.361 154.746 208.932C157.211 200.773 160.42 192.859 164.332 185.287C167.207 179.837 172.932 185.107 177.247 183.435C178.055 183.122 179.558 184.744 180.729 185.49C180.835 185.558 180.87 185.745 180.922 185.883C181.702 189.035 181.694 192.332 180.896 195.48C180.099 198.629 178.537 201.532 176.35 203.933C175.767 204.512 175.32 205.212 175.039 205.984C174.758 206.756 174.65 207.58 174.724 208.398C176.479 212.855 174.34 216.287 172.198 219.838C171.5 220.994 170.757 222.123 170.035 223.265C174.883 221.42 179.483 218.978 183.729 215.996C194.465 208.209 202.1 197.401 209.562 186.823C215.309 178.676 219.082 169.127 223.404 160.054C225.073 156.477 226.263 152.696 226.944 148.808C227.543 145.487 224.413 142.342 221.771 143.247C218.043 144.523 214.067 144.98 211.122 148.599C209.379 151.133 207.045 153.204 204.321 154.633C201.597 156.061 198.566 156.804 195.49 156.796C191.036 156.627 187.645 154.33 187.872 149.935C188.38 140.074 189.808 130.227 190.257 120.367C190.603 115.187 190.107 109.984 188.788 104.962C186.762 99.0775 184.26 93.3672 181.307 87.8882C177.448 79.8615 181.681 73.2047 190.685 73.4383C197.97 73.6273 205.249 73.8963 212.528 74.1699C215.993 74.3002 219.452 74.5239 222.914 74.7051L224.014 73.5587C218.556 65.8322 213.297 57.9499 207.55 50.4501C204.758 47.2204 201.664 44.2643 198.31 41.6218C196.372 39.9076 194.006 38.6598 192.147 36.8742C184.446 29.4765 176.95 22.0711 166.826 17.5411C161.094 14.9761 156.634 13.5775 151.464 18.4526C149.655 20.1589 146.602 20.6597 145.05 22.4943C140.65 27.6969 135.767 29.7777 129.576 27.7751C126.923 26.9171 124.619 25.1077 122.012 24.0728C119.485 23.0698 116.784 20.6326 115.061 25.9246C113.134 31.8414 104.288 33.4201 100.054 29.1067C95.769 24.2053 91.1179 19.6362 86.141 15.4387C82.7406 12.8987 77.3794 10.173 73.7909 11.1742C63.5057 14.5091 53.4049 18.3878 43.531 22.7938L43.2264 24.1702C47.2666 26.3974 51.06 29.727 55.4124 30.56C60.3405 31.5031 64.2417 32.9055 65.4096 37.7818C66.4436 42.0992 67.9644 47.2723 66.4907 51.0676C64.31 57.2583 63.7004 63.8934 64.7166 70.3778C64.7506 74.2726 63.3647 78.0464 60.818 80.9934C59.6394 81.9722 58.2403 82.6495 56.7415 82.9669C55.2427 83.2843 53.6892 83.2324 52.215 82.8155C46.2065 80.207 39.9118 81.3554 33.8067 80.5939C30.8615 80.4747 27.9115 80.5609 24.9783 80.8519C26.4707 86.9802 27.358 92.2731 29.0713 97.2557C31.3983 104.023 35.6836 109.815 34.551 118.018C34.2908 120.874 33.4423 123.646 32.0589 126.159C30.6755 128.672 28.7872 130.871 26.5126 132.618C24.4894 134 22.0266 134.585 19.5982 134.26C12.7306 133.139 9.96518 127.377 7.27682 121.89C4.53143 116.285 -1.39318 112.928 -5.96788 114.541C-9.03298 115.622 -12.2115 116.349 -15.5235 117.286C-17.536 147.315 -3.36493 178.119 23.633 199.152C24.4127 198.273 25.3249 197.522 26.3364 196.926C28.6641 196.007 31.4268 194.356 33.4552 194.892C40.6434 196.442 46.9618 200.693 51.1055 206.767C52.2286 208.281 53.6818 209.518 55.3548 210.385C57.0277 211.253 58.8763 211.728 60.7602 211.774C67.2402 211.113 71.2478 213.938 75.3996 217.716C77.4584 219.998 80.0104 221.781 82.8617 222.929C88.7805 224.494 92.7066 227.462 93.4066 233.751C116.685 235.92 139.36 235.44 161.879 227.361ZM14.1489 88.2982L13.3569 88.8334C17.8018 96.1645 22.3179 103.452 26.6254 110.867C27.2026 112.401 27.5348 114.016 27.6098 115.654L26.2093 116.08C25.5144 115.358 24.8765 114.584 24.3013 113.763C17.3505 102.139 10.4037 90.5117 3.56 78.8218C2.927 77.7403 2.34083 75.7414 2.88446 75.0126C4.30055 73.4939 5.90315 72.1605 7.65407 71.0442C8.49356 72.3428 9.38132 73.6118 10.1643 74.9449C13.4663 80.5675 16.7512 86.2005 20.0191 91.8439L21.9616 90.6877C20.7861 88.6549 19.6283 86.6112 18.4315 84.5914C14.9503 78.716 11.3795 72.8936 8.03807 66.9365C7.50023 65.9776 7.95866 64.4344 7.95656 63.1614L9.16706 62.8022C12.5235 68.5061 15.8799 74.2101 19.2363 79.914L20.6373 79.3156C20.4932 78.069 20.1805 76.8477 19.7078 75.6853C17.1739 71.2941 14.296 67.1021 11.9239 62.6257C11.2515 60.6952 10.8695 58.6756 10.7905 56.633L12.5875 55.9798C14.1556 59.4809 15.9178 62.8918 17.8661 66.1964C19.8885 69.2754 21.237 73.1717 25.298 74.4854C25.35 73.614 25.0971 72.7517 24.5825 72.0464C21.3972 67.4211 18.0905 62.8775 15.0722 58.1429C14.5535 57.3293 15.2268 55.7288 15.3494 54.4919C16.3517 55.1017 17.6624 55.4808 18.304 56.3604C21.4502 60.6734 24.3583 65.164 27.4799 69.4962C28.917 71.2742 30.4449 72.9769 32.0574 74.5975L43.4148 75.2229L39.071 69.9568C37.9717 73.8785 35.977 73.2475 34.1574 71.2241C32.6181 69.4126 31.2452 67.466 30.0552 65.4082C25.8682 58.5972 21.7569 51.7379 17.4409 44.6069C16.7758 45.1774 16.1552 45.7979 15.5846 46.463C10.1489 54.2276 4.79963 62.0519 -0.688301 69.7801C-6.96628 78.6211 -6.31198 78.5761 -1.03279 87.7651C6.98133 101.714 15.0315 115.655 23.1177 129.586C25.4115 126.739 25.4113 126.366 23.3312 122.975C15.0234 109.432 6.68309 95.9092 -1.52677 82.3047C-2.25962 80.638 -2.77627 78.8843 -3.06412 77.0864L-1.14358 76.0904C8.79047 91.4187 17.4058 107.62 27.001 124.113C29.9166 118.152 30.4593 112.86 27.8241 108.353C23.7449 101.376 18.7535 94.9549 14.1489 88.2982ZM166.009 219.106C173.74 211.82 167.101 205.443 165.141 198.771L166.296 198.276C167.632 199.488 168.968 200.699 170.442 202.037C172.075 201.186 173.452 199.915 174.432 198.356C175.412 196.797 175.959 195.005 176.018 193.165C175.996 191.656 175.572 189.003 174.953 188.909C173.081 188.692 171.187 189.043 169.516 189.914C165.291 192.123 163.859 196.449 162.092 200.484C161.174 202.049 160.806 203.876 161.048 205.674C161.29 207.472 162.128 209.137 163.428 210.403C165.858 212.763 168.633 214.895 166.009 219.106L166.009 219.106ZM88.6441 7.45238L87.6926 9.18755C90.5989 11.6832 93.6506 14.0312 96.3708 16.716C99.099 19.4086 101.4 22.5311 104.077 25.281C105.532 26.7754 109.456 24.9157 110.089 22.5621C110.665 20.4181 111.178 18.2592 111.865 15.5266C106.367 14.8878 104.193 7.66538 97.5333 7.90265C100.351 11.4944 103.488 14.8247 106.904 17.8531C107.747 18.8647 108.475 19.9672 109.074 21.1402C107.63 21.0062 105.728 21.41 104.822 20.6443C101.084 17.4868 97.7434 13.8667 94.0572 10.6438C92.3592 9.40915 90.5465 8.34046 88.6441 7.45238ZM17.8544 129.333L19.414 128.588L-3.70033 88.7885C-4.85275 89.8599 -5.08432 90.4055 -4.91284 90.7227C-2.308 95.5414 0.160429 100.453 3.05075 105.09C5.69885 109.339 9.02975 113.147 11.6624 117.404C14.009 121.199 15.8116 125.343 17.8544 129.333V129.333ZM195.924 125.191C192.467 131.207 195.541 137.594 203.902 143.293L202.274 145.274C199.172 142.58 196.07 139.885 193.127 137.327C193.023 140.031 197.865 147.701 201.166 148.036C203.194 148.242 205.561 145.955 207.581 144.89C203.164 138.236 195.087 135.021 195.924 125.191V125.191ZM199.892 125.576C205.326 122.12 203.88 130.557 207.983 129.995L195.487 110.992C196.243 116.3 193.778 122.631 199.892 125.576V125.576ZM0.390139 107.658C0.221617 106.614 -0.069849 105.594 -0.478182 104.619C-2.74476 101.323 -4.80848 97.8931 -6.65788 94.3469C-7.20863 91.9427 -7.38659 89.4682 -7.18552 87.01C-7.4028 85.8503 -7.70525 84.7082 -8.09041 83.593C-11.8128 92.2902 -7.33366 104.157 0.390139 107.658ZM230.017 129.63C230.355 126.596 229.813 123.53 228.455 120.796C227.097 118.063 224.981 115.778 222.36 114.215C223.146 115.952 224.933 117.924 224.542 119.382C223.073 124.867 227.322 126.295 230.017 129.63ZM146.69 11.7529L132.309 8.8559L139.816 17.6853L146.69 11.7529ZM136.015 22.4969L137.603 21.1612C136.942 20.2931 136.262 19.4393 135.624 18.5542C133.826 16.0582 131.115 13.7882 130.49 10.986C129.689 7.38798 127.89 7.938 124.367 8.07483L136.015 22.4969ZM129.209 21.8745C127.857 15.883 120.461 7.48646 116.529 6.69656C121.037 12.093 125.123 16.9839 129.209 21.8745ZM108.062 6.69053L107.192 8.00486L119.136 16.8649L120.17 15.4409C115.901 12.832 114.679 6.19424 108.062 6.69053ZM193.397 145.326C192.565 151.767 193.16 152.361 198.588 150.681C196.854 148.892 195.274 147.262 193.397 145.326ZM33.0428 207.041L34.7864 208.524L38.6937 203.587L37.2031 202.407L33.0428 207.041Z" fill="#41B37E" fill-opacity="0.5"/>
<path d="M104.038 185.782C104.398 180.068 104.349 175.946 104.975 171.906C106.389 162.773 100.705 157.589 94.4454 153.691C84.7399 147.646 77.1867 140.272 73.8919 129.029C72.9335 125.759 71.9185 122.506 71.0037 119.222C68.8263 111.405 72.0456 104.442 75.2448 97.4874C75.6492 96.8357 75.9997 96.1519 76.2927 95.4431C78.4997 87.1379 85.135 85.0499 92.2252 84.3756C98.2942 83.5653 104.444 83.561 110.514 84.3627C116.739 85.4553 122.516 88.5774 128.611 90.4503C134.218 92.6582 140.091 94.1157 146.079 94.7851C149.65 94.7676 153.173 95.5978 156.36 97.2074C159.546 98.8169 162.306 101.16 164.411 104.044C166.515 106.927 167.906 110.269 168.467 113.795C169.029 117.321 168.745 120.93 167.64 124.324C166.026 129.675 165.918 135.616 163.485 140.514C160.621 146.277 159.198 152.83 153.131 157.222C140.82 166.134 131.76 184.432 136.8 200.249C138.85 206.684 135.804 213.757 132.193 219.555C129.548 223.803 122.036 222.3 119.12 217.633C116.534 213.153 113.716 208.812 110.677 204.625C106.675 199.125 104.368 192.576 104.038 185.782ZM83.2378 112.159C87.5265 117.18 91.7274 122.28 96.126 127.202C101.683 133.419 107.401 139.491 113.05 145.626L114.198 144.511C103.861 133.745 93.5241 122.978 83.1875 112.211L79.986 105.638L81.2542 104.897C83.6796 108.189 86.3279 111.311 89.1807 114.24C101.272 125.177 110.98 138.143 121.005 150.887C124.323 155.105 126.692 160.742 133.261 161.753C134.383 161.926 135.008 164.763 135.862 166.369L134.566 167.696C131.491 166.36 127.662 165.77 125.48 163.551C118.396 156.348 111.929 148.535 105.194 140.985C101.684 137.05 98.109 133.175 94.5636 129.273C98.8211 135.74 103.444 141.959 108.411 147.9C116.452 157.222 121.364 169.829 133.467 173.797C137.886 168.05 141.841 163.074 145.534 157.914C145.746 157.337 145.812 156.716 145.727 156.107C145.641 155.498 145.406 154.92 145.042 154.423C142.76 151.874 139.948 149.8 137.694 147.23C124.662 132.369 111.658 117.482 98.8285 102.446C97.1183 100.823 95.7547 98.8708 94.8201 96.7065C93.8854 94.5422 93.3992 92.2109 93.3907 89.8535C95.9771 93.5892 97.6807 96.5126 99.8218 99.0632C109.752 110.892 119.759 122.654 129.844 134.35C134.889 140.165 140.215 145.74 145.544 151.299C148.294 154.167 151.333 154.079 153.202 150.216C155.632 145.194 157.682 139.979 159.608 134.749C160.625 130.783 161.841 126.87 163.251 123.026C166.334 116.735 160.745 103.079 154.451 101.79C148.013 100.472 141.502 99.4685 135.051 98.2043C132.527 97.9608 130.07 97.2547 127.801 96.1212C121.981 91.9266 115.12 89.4113 107.968 88.8498C101.677 88.7841 95.388 89.0921 89.1337 89.772C88.1677 89.8475 87.2524 91.104 86.1873 91.9102C93.8557 100.08 101.488 107.8 108.63 115.954C113.968 122.048 118.673 128.702 123.66 135.107C123.445 135.308 123.23 135.508 123.015 135.709C118.091 129.966 113.404 123.993 108.183 118.535C100.904 110.927 93.2826 103.643 85.6327 96.4045C84.8469 95.661 81.9533 95.6142 81.5872 96.1937C77.5628 102.087 75.4855 109.094 75.647 116.229C75.809 120.413 78.8572 121.251 80.8872 123.349C88.2446 130.953 95.6761 138.485 103.08 146.045L104.377 144.761C95.7903 136.013 87.1492 127.316 78.6694 118.465C77.4045 116.781 76.3489 114.949 75.526 113.011L76.936 112.032C78.0428 113.604 79.1495 115.176 80.2562 116.749C79.8548 112.246 79.8548 112.246 83.2378 112.159ZM129.643 198.358L114.122 184.665L113.059 185.916C118.892 192.295 124.726 198.675 130.835 205.356L130.816 193.836L130.042 193.861L129.643 198.358ZM101.007 150.47C94.1617 144.113 87.3164 137.756 80.094 131.048C83.6818 141.317 92.2494 145.923 101.007 150.47ZM126.232 189.131L110.095 171.32C110.26 177.254 119.826 187.764 126.232 189.131ZM130.633 211.221L129.596 212.061C124.525 207.077 119.454 202.092 114.382 197.108L113.844 197.636C118.827 203.161 123.809 208.686 129.028 214.474L130.633 211.221ZM114.739 191.4L113.744 192.323C118.542 197.486 123.341 202.648 128.139 207.811L128.923 207.073L114.739 191.4ZM126.158 173.715C128.129 177.734 129.76 181.061 131.779 185.178C132.197 181.894 132.52 179.353 132.816 177.019L126.158 173.715ZM103.948 153.045L103.2 153.676C107.067 158.67 110.934 163.663 114.801 168.657L115.654 167.97L103.948 153.045Z" fill="#41B37E" fill-opacity="0.5"/>
<path d="M47.3327 71.3401C42.3496 62.5878 37.3689 53.834 32.3907 45.0788C31.6559 43.962 31.0664 42.7561 30.6367 41.4903C30.5231 40.4146 30.5726 39.3279 30.7837 38.2671C31.8701 38.8097 33.4107 39.061 33.9591 39.9485C35.7441 42.8377 37.0202 46.0498 38.7575 48.9735C42.7533 55.6985 46.9298 62.3116 50.9574 69.0172C51.275 69.9731 51.441 70.9727 51.4494 71.9799L47.7763 71.7705C47.6293 71.6262 47.4814 71.4827 47.3327 71.3401Z" fill="#41B37E" fill-opacity="0.5"/>
<path d="M162.175 202.514C164.822 205.707 166.755 208.04 168.967 210.708C164.473 211.586 161.759 208.554 162.175 202.514Z" fill="#41B37E" fill-opacity="0.5"/>
<path d="M136.618 105.82C143.963 114.008 151.307 122.195 159.132 130.918L154.902 131.073C153.73 134.32 152.569 134.551 150.035 131.651C145.244 126.165 140.551 120.592 135.74 115.125C132.403 111.332 128.88 107.705 125.56 103.899C124.518 102.519 123.583 101.063 122.762 99.5419L124.411 98.2661L148.83 125.871C146.484 118.015 138.235 114.395 134.997 107.164L136.618 105.82Z" fill="#41B37E" fill-opacity="0.5"/>
<path d="M135.082 160.034C132.282 157.065 129.33 154.226 126.712 151.103C117.834 140.51 109.238 129.673 100.195 119.227C96.0399 114.427 91.0496 110.366 86.5544 105.854C85.8722 104.856 85.3655 103.749 85.0563 102.58C86.3487 102.792 88.1452 102.528 88.8557 103.288C96.0725 111.006 103.224 118.793 110.172 126.757C118.275 136.045 126.173 145.514 134.113 154.945C135.06 156.21 135.928 157.532 136.711 158.905L135.082 160.034Z" fill="#41B37E" fill-opacity="0.5"/>
<path d="M100.022 95.3955C101.207 95.6785 102.753 95.5785 103.52 96.3035C111.483 103.83 119.69 111.147 127.096 119.202C135.525 128.369 143.213 138.223 151.194 147.803C151.513 148.185 151.531 148.821 150.901 150.26C149.432 149.401 148.069 148.373 146.838 147.198C139.128 137.95 131.591 128.556 123.887 119.303C117.89 111.331 110.488 104.522 102.044 99.2102C101.011 98.6244 100.064 97.8927 99.0774 97.2287L100.022 95.3955Z" fill="#41B37E" fill-opacity="0.5"/>
<path d="M112.825 95.8965L155.111 144.726L154.659 145.85C153.281 145.386 151.993 144.69 150.849 143.791C144.275 136.306 137.959 128.59 131.339 121.147C125.82 114.942 119.934 109.067 114.352 102.916C113.011 101.172 111.823 99.3141 110.803 97.3641L112.825 95.8965Z" fill="#41B37E" fill-opacity="0.5"/>
<path d="M161.499 118.482C159.404 118.365 157.67 118.303 155.947 118.153C155.358 118.159 154.783 117.975 154.308 117.627C150.501 113.605 146.754 109.525 142.699 105.147C149.526 104.625 161.627 113.932 161.499 118.482Z" fill="#41B37E" fill-opacity="0.5"/>
<path d="M123.659 135.106C126.795 138.863 129.835 142.708 133.096 146.351C135.959 149.548 139.088 152.503 142.06 155.603C142.416 155.953 142.692 156.376 142.868 156.844C143.044 157.312 143.115 157.812 143.077 158.311C135.003 152.131 128.193 144.458 123.015 135.708C123.23 135.508 123.445 135.307 123.659 135.106Z" fill="#41B37E" fill-opacity="0.5"/>
</svg>
