<svg width="20" height="20" viewBox="0 0 20 20" fill="none" xmlns="http://www.w3.org/2000/svg">
<path d="M8.84982 3.53115C8.3741 2.87753 8.47244 1.86775 9.03498 1.45825C9.39612 1.20777 9.83968 1.10559 10.274 1.17283C10.7083 1.24007 11.1002 1.47159 11.3687 1.81954C11.8527 2.43274 11.7558 3.02194 11.0231 3.62461C11.1871 3.7945 11.3395 3.97005 11.5097 4.12599C12.876 5.38494 13.794 7.0554 14.1243 8.88364C14.2571 9.54344 14.4114 10.1996 14.556 10.8574C14.6339 11.2118 14.6905 11.5483 15.1557 11.6575C15.4767 11.7329 15.676 12.3658 15.5725 12.8002C15.4818 13.1808 15.2428 13.3488 14.8355 13.3548C13.9122 13.3682 12.9857 13.3804 12.0709 13.4706C11.74 13.5269 11.4364 13.6896 11.2064 13.934C10.5346 14.6209 9.60455 14.7106 8.89274 14.1571C7.84905 13.3456 6.72119 13.313 5.54582 13.3299C4.68532 13.3423 4.18888 12.7194 4.487 11.9296C4.54454 11.8291 4.6231 11.7423 4.7173 11.6749C4.81151 11.6076 4.91915 11.5614 5.03285 11.5395C5.41614 11.4643 5.62833 11.3565 5.68785 10.9069C5.93386 9.04815 6.52156 7.29113 7.24412 5.58382C7.58909 4.76868 8.07457 4.17903 8.84982 3.53115ZM11.3435 4.92482C11.2922 4.85834 11.233 4.78953 11.1826 4.71492C10.635 3.90451 9.35674 3.6083 8.69483 4.50631C8.36667 4.95151 7.98531 5.37634 7.75895 5.87349C7.47791 6.52201 7.2592 7.19579 7.10578 7.88573C6.85437 8.93181 6.65739 9.99313 6.45527 11.052C6.40175 11.3324 6.47985 11.5325 6.85817 11.5205C7.54542 11.4989 8.23569 11.5168 8.92488 11.5314C9.96746 11.5536 11.0103 11.5931 12.0529 11.6138C12.6691 11.626 13.2849 11.616 13.9009 11.616L13.9142 11.4282C13.8211 11.3776 13.7215 11.34 13.6182 11.3166C13.3362 11.293 13.0496 11.319 12.7717 11.2732C12.5913 11.2189 12.4188 11.141 12.2588 11.0417C12.4303 10.9424 12.6134 10.8645 12.8039 10.8097C13.0426 10.7882 13.2827 10.7874 13.5216 10.8073C13.7852 10.8099 13.8539 10.6372 13.7269 10.4606C13.6063 10.3258 13.4421 10.2379 13.2631 10.2124C12.9989 10.1683 12.7231 10.2136 12.4581 10.1724C12.3769 10.1598 12.2882 9.99426 12.2589 9.88549C12.2489 9.84835 12.4043 9.72922 12.4942 9.71992C12.7 9.69861 12.9123 9.72801 13.1215 9.72537C13.3388 9.72263 13.555 9.71393 13.5216 9.39597C13.492 9.11403 13.4274 8.89677 13.0647 8.92772C12.8402 8.94932 12.6138 8.93846 12.3924 8.89547C12.268 8.86945 12.1618 8.74042 12.0474 8.65778C12.1559 8.56193 12.2801 8.48539 12.4145 8.43148C12.6699 8.39121 12.9275 8.36657 13.186 8.35771C13.1659 7.86926 13.023 7.58071 12.5111 7.66018C12.3773 7.68487 12.2394 7.67563 12.1102 7.63329C11.9934 7.56707 11.8872 7.48366 11.7953 7.38586C11.8977 7.29665 11.9869 7.15728 12.1058 7.12976C12.314 7.10376 12.5245 7.0999 12.7336 7.11823C12.6073 6.6839 12.4429 6.45668 12.0185 6.47396C11.8466 6.48096 11.6633 6.3371 11.4852 6.2619C11.645 6.14553 11.8047 6.02915 11.9645 5.91276C11.9764 5.90411 11.9879 5.89497 12.0986 5.81053C11.9242 5.69216 11.785 5.52464 11.6356 5.50945C11.103 5.45533 11.0665 5.40964 11.3435 4.92482ZM14.3232 12.8141C14.3464 12.7576 14.3697 12.701 14.393 12.6445C14.1829 12.4872 13.9735 12.2024 13.7626 12.1938C12.5239 12.1435 11.2848 12.1542 10.0461 12.1514C9.18507 12.1494 8.32443 12.1589 7.46362 12.1629C6.9 12.1656 6.33491 12.1504 5.77338 12.1777C5.52243 12.2111 5.27505 12.2674 5.03434 12.3458L5.05891 12.547C8.14632 13.1962 11.235 12.7952 14.3232 12.8141ZM10.0262 3.35055C10.4393 3.37658 11.0082 2.93812 11.0265 2.57958C11.0474 2.1704 10.5829 1.76671 10.0619 1.74129C9.83249 1.73872 9.61 1.81984 9.43607 1.96947C9.26215 2.1191 9.14871 2.32699 9.11699 2.55422C9.09645 2.99109 9.46661 3.31529 10.0262 3.35055ZM10.7601 13.5903H9.13646C9.78067 14.0473 10.3494 14.0155 10.7601 13.5903Z" fill="#DDE7DC"/>
<path d="M10.1226 18.3851C10.1263 18.5268 9.94031 18.6668 9.84128 18.8076C9.72073 18.6938 9.5221 18.5931 9.49579 18.4634C9.46198 18.1814 9.45354 17.897 9.47059 17.6135C9.46439 17.2731 9.43415 16.9306 9.45629 16.5932C9.46544 16.454 9.90174 16.3652 9.96462 16.4829C10.0324 16.6098 10.1097 17.9002 10.1226 18.3851Z" fill="#DDE7DC"/>
<path d="M6.61971 18.85C6.28882 18.1381 6.63159 17.6373 6.74948 17.1069C6.79671 16.9068 6.87062 16.714 6.96923 16.5336C7.02045 16.4375 7.43771 16.498 7.44499 16.5988C7.44724 16.7747 7.4159 16.9494 7.35264 17.1136C7.20554 17.5603 7.04862 18.0035 6.88188 18.443C6.80708 18.5864 6.71932 18.7226 6.61971 18.85V18.85Z" fill="#DDE7DC"/>
<path d="M13.1056 16.104C13.3113 16.7327 13.5109 17.364 13.6809 18.0018C13.7051 18.0925 13.5781 18.2551 13.478 18.3211C13.4356 18.349 13.2147 18.2317 13.1896 18.1492C12.9923 17.501 12.8139 16.8478 12.6543 16.1898C12.628 16.0813 13.0701 15.9954 13.1056 16.104Z" fill="#DDE7DC"/>
<path d="M8.01618 6.13009C8.07887 5.96481 8.16853 5.81106 8.28149 5.67509C8.35335 5.59949 8.71028 5.84194 8.66331 5.92416C8.20947 6.71869 7.78561 7.51846 7.7137 8.47058C7.70648 8.56635 7.48605 8.67723 7.3475 8.70272C7.28421 8.71435 7.68742 6.86444 8.01618 6.13009Z" fill="#DDE7DC"/>
<path d="M6.93585 10.14C6.9905 9.82917 7.06212 9.52153 7.15041 9.2185C7.19433 9.09506 7.48549 9.21158 7.46668 9.33038C7.42399 9.63438 7.35734 9.93453 7.26733 10.228C7.22754 10.3488 6.94724 10.2032 6.93585 10.14Z" fill="#DDE7DC"/>
</svg>
