<svg width="20" height="20" viewBox="0 0 20 20" fill="none" xmlns="http://www.w3.org/2000/svg">
<path d="M12.4827 6.01345C13.5415 6.01345 14.5237 6.04967 15.4983 5.99925C16.0434 5.97105 16.1127 5.99245 16.1034 6.54209C16.0987 7.01136 16.1257 7.4804 16.1842 7.94603C16.2512 8.50863 16.1141 8.72196 15.5919 8.96748C15.4522 9.03321 15.3562 9.30286 15.3437 9.48943C15.2682 10.6114 15.1947 11.7349 15.1742 12.8607C15.1456 14.4343 15.1441 16.0092 15.1696 17.5855C15.1824 18.4514 14.8281 18.8195 13.9627 18.8324C12.8266 18.8493 11.6942 18.9731 10.5585 18.9544C9.07249 18.9299 7.5845 18.8182 6.09813 18.72C6.01937 18.7006 5.94635 18.6628 5.88511 18.6096C5.82388 18.5564 5.77618 18.4894 5.74597 18.4141C5.61868 17.9292 5.53599 17.4336 5.49892 16.9336C5.40572 14.9307 5.36046 12.9273 5.26414 10.9245C5.23268 10.2703 5.0998 9.61739 5.00944 8.93465C4.87857 8.94229 4.77404 8.93999 4.67297 8.95578C4.27982 9.01718 3.98443 8.8245 3.94652 8.43527C3.88286 7.78137 3.84234 7.12585 3.80188 6.47075C3.78555 6.20623 3.87165 6.11618 4.18948 6.13161C5.10459 6.17601 6.0207 6.14728 7.03625 6.14728C6.68059 5.43559 6.39171 4.88091 6.12419 4.31672C5.7286 3.48246 6.1873 2.72386 7.10362 2.68932C7.44399 2.67649 7.78606 2.68724 8.138 2.68724C8.5371 1.35284 9.38048 0.801887 10.5405 1.14161C11.3151 1.36847 11.7352 2.02981 11.5445 2.80572C12.1581 2.5443 12.7528 2.43805 13.3938 2.68432C14.0256 2.92702 14.3479 3.62831 13.9746 4.17533C13.6126 4.70587 13.1711 5.1808 12.7639 5.67965C12.687 5.77385 12.6073 5.86575 12.4827 6.01345ZM13.7276 18.2811C13.5904 18.0535 13.4906 17.888 13.3908 17.7225C13.5845 17.6691 13.7818 17.6301 13.9812 17.6058C14.1326 17.6158 14.2822 17.6445 14.4266 17.6913C14.428 17.291 14.4233 17.2998 13.8545 16.9765C13.7419 16.9125 13.6815 16.7525 13.5971 16.6368C13.7326 16.5631 13.8796 16.5128 14.0318 16.4879C14.1763 16.5144 14.3149 16.5664 14.4412 16.6415C14.8241 15.7715 13.8726 15.8389 13.625 15.4454C13.8345 14.9568 14.1706 15.31 14.4458 15.3084C14.6816 14.9427 14.5517 14.6923 14.192 14.5097C14.1361 14.4814 14.0571 14.4849 14.0159 14.4454C13.9052 14.3392 13.8091 14.2178 13.7072 14.1024C13.857 14.0592 14.0096 14.0263 14.1639 14.004C14.2648 14.0093 14.3645 14.0292 14.4597 14.063C14.6717 13.5021 14.6299 13.3979 14.1396 13.1699C14.0348 13.1331 13.9396 13.0731 13.8612 12.9945C13.7962 12.9101 13.7336 12.7576 13.7683 12.6835C13.8003 12.6152 13.965 12.5773 14.0673 12.5875C14.2165 12.6158 14.3625 12.6592 14.503 12.717C14.7333 12.1529 14.6983 12.0594 14.2078 11.8551C14.1018 11.8251 13.9995 11.7834 13.9027 11.7307C13.8369 11.683 13.7531 11.5519 13.7742 11.5135C13.7995 11.4719 13.8335 11.4361 13.8737 11.4086C13.9139 11.3811 13.9596 11.3625 14.0075 11.354C14.1076 11.3432 14.2313 11.4472 14.3205 11.4226C14.4533 11.3859 14.6403 11.3007 14.6647 11.1983C14.69 11.0926 14.5749 10.9124 14.4722 10.819C14.375 10.7305 14.196 10.7368 14.0873 10.655C14.0064 10.5941 13.9804 10.459 13.9299 10.357C14.0147 10.3041 14.1084 10.2672 14.2064 10.248C14.3577 10.2586 14.5078 10.2823 14.6551 10.3189L14.7097 10.2207L14.0872 9.69981L14.1155 9.57468C14.3088 9.55331 14.502 9.53194 14.6955 9.51192C14.7607 8.75075 14.7622 8.76405 14.0652 8.81943C13.3957 8.87263 12.7234 8.90572 12.0509 8.92668C11.3725 8.94782 11.2826 9.02816 11.282 9.7238C11.2806 11.5241 11.2791 13.3243 11.2776 15.1246C11.2767 15.6091 11.2555 16.0931 11.2628 16.5777C11.2714 17.158 11.3006 17.7386 11.3195 18.2811L13.7276 18.2811ZM6.20274 17.2384C6.34964 17.1702 6.50401 17.1194 6.6627 17.087C6.77871 17.1024 6.89067 17.1399 6.99247 17.1976C6.93942 17.2971 6.90954 17.4261 6.82782 17.4891C6.70922 17.5805 6.54182 17.6083 6.41764 17.6946C6.38105 17.7225 6.35159 17.7586 6.33166 17.8001C6.31174 17.8415 6.30192 17.8871 6.30302 17.9331C6.31672 17.9798 6.34137 18.0226 6.37492 18.0579C6.40846 18.0932 6.44994 18.12 6.49592 18.1361C7.38604 18.211 8.27692 18.2769 9.16792 18.3181C9.23135 18.3039 9.28985 18.273 9.33741 18.2287C9.38497 18.1843 9.41988 18.1282 9.43854 18.0659C9.43576 17.1202 9.42992 16.173 9.37573 15.2273C9.27183 13.4143 9.14043 11.6018 9.01113 9.78944C8.96318 9.11729 8.95125 9.11792 8.26471 9.10341C8.20181 9.10342 8.13897 9.09948 8.07656 9.09162C7.41833 8.99414 6.79775 8.89655 6.2357 9.43252C5.8267 9.82252 5.71863 9.87235 5.91307 10.4925C6.06466 10.3625 6.23281 10.2532 6.41312 10.1675C6.58961 10.1391 6.76948 10.139 6.94602 10.167C6.85148 10.301 6.74526 10.4264 6.62862 10.5418C6.47032 10.6634 6.30351 10.7735 6.12945 10.8712C5.72997 11.1193 5.7455 11.4819 5.85927 11.9376C6.05059 11.8177 6.25214 11.7149 6.46157 11.6305C6.66613 11.5869 6.87435 11.5626 7.08347 11.5581C6.94552 11.7067 6.81129 11.8591 6.66728 12.0015C6.61618 12.0365 6.5597 12.063 6.50008 12.0798C5.67694 12.4548 5.80792 12.4809 5.97794 13.3804C6.23296 13.2768 6.4942 13.1891 6.76015 13.118C6.91367 13.1147 7.06658 13.1382 7.21205 13.1873C7.10722 13.3006 7.02355 13.4538 6.89342 13.5193C6.56676 13.6837 6.21908 13.8084 5.85688 13.9586C5.88356 14.2587 5.90863 14.5408 5.93493 14.8365L6.94607 14.419L7.03456 14.5791C6.86944 15.0415 6.34426 15.0677 5.98011 15.3481C6.01408 15.5687 6.05089 15.8077 6.09948 16.1232C6.23258 16.0055 6.38141 15.9069 6.54168 15.8303C6.70618 15.8054 6.8732 15.802 7.03859 15.82C6.96608 15.9541 6.92495 16.1278 6.81439 16.214C6.58723 16.3717 6.34987 16.5142 6.10387 16.6405C6.13559 16.8322 6.16569 17.0143 6.20274 17.2384ZM10.0102 18.3079C10.7366 18.3868 10.7935 18.3358 10.7974 17.6856C10.8071 16.0605 10.8054 14.435 10.8208 12.8103C10.8316 11.6682 10.8704 10.5274 10.8743 9.38516C10.8747 9.26347 10.7336 9.04051 10.6427 9.02882C10.3472 8.98974 10.0474 8.99887 9.75483 9.05585C9.68466 9.08608 9.62354 9.13402 9.57747 9.19496C9.53139 9.25591 9.50193 9.32777 9.49197 9.40352C9.52733 10.3381 9.59557 11.2725 9.65657 12.207C9.7097 13.0211 9.77391 13.835 9.82022 14.6493C9.88932 15.8644 9.94699 17.0798 10.0102 18.3079ZM8.88295 6.80366C8.82583 6.77796 8.76586 6.75915 8.7043 6.7476C7.50375 6.75367 6.3023 6.7481 5.10416 6.78978C4.96004 6.79479 4.78311 7.03663 4.71442 7.20853C4.65118 7.36682 4.72775 7.58008 4.71707 7.76677C4.69659 8.12455 4.88082 8.21925 5.20625 8.24402C6.00228 8.3046 6.79635 8.4128 7.5924 8.47203C8.03405 8.50489 8.47807 8.47793 8.94142 8.47793L8.88295 6.80366ZM15.2711 6.68332C14.054 6.68332 12.8264 6.67771 11.6 6.69547C11.5149 6.6967 11.3717 6.86778 11.3693 6.96656C11.3587 7.41216 11.3891 7.86016 11.4063 8.35432C12.618 8.27976 13.7678 8.21502 14.915 8.12694C15.0064 8.11992 15.1346 7.96214 15.1517 7.85611C15.2127 7.47757 15.2331 7.09114 15.2711 6.68332V6.68332ZM9.38887 5.94162C9.53712 5.09659 9.13964 4.39079 8.61182 3.80882C8.32482 3.49236 7.81134 3.30287 7.37409 3.2183C6.864 3.11964 6.48233 3.49254 6.52116 3.88158C6.55063 4.21547 6.65178 4.53907 6.81773 4.83029C6.98368 5.12152 7.21051 5.3735 7.48273 5.56906C7.75496 5.76461 8.06617 5.89913 8.39513 5.96343C8.72409 6.02772 9.06305 6.02028 9.38887 5.94162V5.94162ZM10.5485 6.06665C10.9293 6.0081 11.3182 6.04272 11.597 5.88774C12.433 5.44763 13.1115 4.75853 13.5385 3.91582C13.7217 3.54242 13.5203 3.18846 13.1086 3.08919C12.8601 3.02687 12.6005 3.02283 12.3502 3.07737C12.0999 3.13191 11.8655 3.24357 11.6655 3.40362C10.7945 4.05245 10.6829 5.03772 10.5485 6.06665V6.06665ZM10.0473 5.34247C10.0948 5.14992 10.1529 4.96017 10.2215 4.7741C10.3852 4.31373 10.5864 3.86759 10.8231 3.44017C10.9629 3.24472 11.0466 3.01475 11.0652 2.77515C11.0837 2.53555 11.0363 2.29545 10.9283 2.08082C10.7465 1.70992 10.145 1.53965 9.61954 1.64043C8.86589 1.78499 8.56919 2.62292 8.97129 3.27864C9.37804 3.94192 9.69526 4.65802 10.0473 5.34247V5.34247ZM10.8129 6.7281C10.3724 6.7281 10.015 6.7134 9.66186 6.73859C9.60799 6.75207 9.5586 6.77947 9.51866 6.81804C9.47872 6.85662 9.44962 6.90502 9.43429 6.95839C9.43056 7.46863 9.45898 7.98021 9.47815 8.52929C9.91662 8.49235 10.3042 8.47387 10.6844 8.41547C10.7586 8.40407 10.8531 8.23986 10.8538 8.14254C10.8573 7.69399 10.8309 7.24414 10.8129 6.7281V6.7281Z" fill="#DDE7DC"/>
</svg>
