<svg width="20" height="20" viewBox="0 0 20 20" fill="none" xmlns="http://www.w3.org/2000/svg">
<path d="M8.84982 3.53115C8.3741 2.87752 8.47244 1.86775 9.03498 1.45824C9.39612 1.20776 9.83968 1.10559 10.274 1.17282C10.7083 1.24006 11.1002 1.47158 11.3687 1.81953C11.8527 2.43273 11.7558 3.02193 11.0231 3.6246C11.1871 3.7945 11.3395 3.97004 11.5097 4.12599C12.876 5.38493 13.794 7.05539 14.1243 8.88363C14.2571 9.54343 14.4114 10.1996 14.556 10.8574C14.6339 11.2117 14.6905 11.5483 15.1557 11.6575C15.4767 11.7328 15.676 12.3658 15.5725 12.8002C15.4818 13.1808 15.2428 13.3488 14.8355 13.3547C13.9122 13.3682 12.9857 13.3804 12.0709 13.4706C11.74 13.5269 11.4364 13.6896 11.2064 13.934C10.5346 14.6209 9.60455 14.7106 8.89274 14.1571C7.84905 13.3456 6.72119 13.313 5.54582 13.3299C4.68532 13.3423 4.18888 12.7194 4.487 11.9296C4.54454 11.8291 4.6231 11.7422 4.7173 11.6749C4.81151 11.6076 4.91915 11.5614 5.03285 11.5395C5.41614 11.4643 5.62833 11.3565 5.68785 10.9068C5.93386 9.04814 6.52156 7.29112 7.24412 5.58381C7.58909 4.76867 8.07457 4.17903 8.84982 3.53115ZM11.3435 4.92481C11.2922 4.85834 11.233 4.78952 11.1826 4.71492C10.635 3.9045 9.35674 3.60829 8.69483 4.5063C8.36667 4.9515 7.98531 5.37633 7.75895 5.87349C7.47791 6.522 7.2592 7.19578 7.10578 7.88572C6.85437 8.93181 6.65739 9.99312 6.45527 11.052C6.40175 11.3324 6.47985 11.5325 6.85817 11.5205C7.54542 11.4988 8.23569 11.5168 8.92488 11.5314C9.96746 11.5536 11.0103 11.5931 12.0529 11.6137C12.6691 11.6259 13.2849 11.616 13.9009 11.616L13.9142 11.4282C13.8211 11.3776 13.7215 11.34 13.6182 11.3166C13.3362 11.293 13.0496 11.319 12.7717 11.2732C12.5913 11.2189 12.4188 11.141 12.2588 11.0417C12.4303 10.9424 12.6134 10.8645 12.8039 10.8097C13.0426 10.7882 13.2827 10.7874 13.5216 10.8073C13.7852 10.8099 13.8539 10.6372 13.7269 10.4606C13.6063 10.3258 13.4421 10.2379 13.2631 10.2124C12.9989 10.1683 12.7231 10.2136 12.4581 10.1724C12.3769 10.1598 12.2882 9.99425 12.2589 9.88549C12.2489 9.84835 12.4043 9.72922 12.4942 9.71991C12.7 9.6986 12.9123 9.728 13.1215 9.72537C13.3388 9.72262 13.555 9.71392 13.5216 9.39596C13.492 9.11402 13.4274 8.89677 13.0647 8.92771C12.8402 8.94931 12.6138 8.93845 12.3924 8.89546C12.268 8.86945 12.1618 8.74042 12.0474 8.65777C12.1559 8.56192 12.2801 8.48538 12.4145 8.43148C12.6699 8.3912 12.9275 8.36656 13.186 8.3577C13.1659 7.86925 13.023 7.5807 12.5111 7.66018C12.3773 7.68486 12.2394 7.67562 12.1102 7.63329C11.9934 7.56706 11.8872 7.48365 11.7953 7.38585C11.8977 7.29664 11.9869 7.15727 12.1058 7.12975C12.314 7.10376 12.5245 7.09989 12.7336 7.11822C12.6073 6.68389 12.4429 6.45667 12.0185 6.47396C11.8466 6.48096 11.6633 6.3371 11.4852 6.26189C11.645 6.14552 11.8047 6.02914 11.9645 5.91275C11.9764 5.90411 11.9879 5.89497 12.0986 5.81052C11.9242 5.69215 11.785 5.52464 11.6356 5.50945C11.103 5.45532 11.0665 5.40963 11.3435 4.92481ZM14.3232 12.8141C14.3464 12.7575 14.3697 12.701 14.393 12.6445C14.1829 12.4872 13.9735 12.2024 13.7626 12.1938C12.5239 12.1435 11.2848 12.1542 10.0461 12.1514C9.18507 12.1494 8.32443 12.1589 7.46362 12.1629C6.9 12.1656 6.33491 12.1504 5.77338 12.1777C5.52243 12.2111 5.27505 12.2674 5.03434 12.3458L5.05891 12.547C8.14632 13.1962 11.235 12.7952 14.3232 12.8141ZM10.0262 3.35055C10.4393 3.37658 11.0082 2.93811 11.0265 2.57957C11.0474 2.17039 10.5829 1.7667 10.0619 1.74129C9.83249 1.73872 9.61 1.81984 9.43607 1.96947C9.26215 2.1191 9.14871 2.32698 9.11699 2.55421C9.09645 2.99108 9.46661 3.31529 10.0262 3.35055ZM10.7601 13.5903H9.13646C9.78066 14.0473 10.3494 14.0155 10.7601 13.5903Z" fill="black"/>
<path d="M10.1225 18.3851C10.1263 18.5268 9.94024 18.6668 9.84122 18.8076C9.72067 18.6938 9.52204 18.5931 9.49573 18.4634C9.46191 18.1814 9.45348 17.897 9.47053 17.6135C9.46433 17.2731 9.43409 16.9306 9.45623 16.5932C9.46538 16.454 9.90167 16.3652 9.96456 16.4829C10.0323 16.6098 10.1097 17.9002 10.1225 18.3851Z" fill="black"/>
<path d="M6.61965 18.85C6.28876 18.1381 6.63153 17.6373 6.74942 17.1069C6.79665 16.9068 6.87056 16.714 6.96917 16.5336C7.02039 16.4375 7.43765 16.498 7.44493 16.5988C7.44718 16.7747 7.41584 16.9494 7.35258 17.1136C7.20548 17.5603 7.04856 18.0035 6.88182 18.443C6.80702 18.5864 6.71926 18.7226 6.61965 18.85Z" fill="black"/>
<path d="M13.1055 16.104C13.3113 16.7328 13.5109 17.364 13.6808 18.0018C13.705 18.0925 13.578 18.2551 13.4779 18.3211C13.4355 18.349 13.2147 18.2317 13.1896 18.1492C12.9923 17.501 12.8138 16.8478 12.6542 16.1898C12.6279 16.0813 13.07 15.9954 13.1055 16.104Z" fill="black"/>
<path d="M8.01624 6.13008C8.07894 5.9648 8.16859 5.81105 8.28156 5.67508C8.35341 5.59948 8.71034 5.84193 8.66337 5.92415C8.20953 6.71869 7.78567 7.51846 7.71376 8.47057C7.70654 8.56635 7.48612 8.67723 7.34756 8.70271C7.28427 8.71435 7.68748 6.86444 8.01624 6.13008Z" fill="black"/>
<path d="M6.93579 10.14C6.99043 9.82916 7.06206 9.52152 7.15035 9.21849C7.19427 9.09505 7.48543 9.21157 7.46662 9.33037C7.42393 9.63437 7.35727 9.93452 7.26727 10.228C7.22748 10.3488 6.94718 10.2031 6.93579 10.14Z" fill="black"/>
</svg>
