<svg width="20" height="20" viewBox="0 0 20 20" fill="none" xmlns="http://www.w3.org/2000/svg">
<path d="M16.9558 12.4227C17.3279 12.7705 17.6929 13.0872 18.0292 13.4319C18.4861 13.8744 18.8129 14.4338 18.9738 15.0491C19.0856 15.518 19.154 15.9974 19.237 16.4729C19.2466 16.5041 19.2476 16.5373 19.2398 16.5691C19.232 16.6008 19.2157 16.6298 19.1927 16.653C19.1697 16.6762 19.1408 16.6927 19.1092 16.7008C19.0775 16.7089 19.0442 16.7082 19.0129 16.6988C18.7839 16.6724 18.5574 16.627 18.3359 16.563C17.654 16.3807 17.0137 16.0683 16.4503 15.6431C15.8609 15.2042 15.3833 14.6326 15.0561 13.9746C14.9958 13.8183 14.9488 13.6572 14.9153 13.4931C14.8864 13.3873 14.8617 13.2803 14.8275 13.1436C14.543 13.4544 14.3011 13.7562 14.02 14.0154C13.7166 14.297 13.3919 14.5546 13.0487 14.7859C12.7057 15.016 12.3437 15.2164 11.9667 15.385C11.6987 15.4894 11.4189 15.5607 11.1336 15.5972C10.9861 15.6225 10.9397 15.6488 11.0173 15.7898C11.215 16.1568 11.3254 16.5645 11.3399 16.9812C11.3471 17.2333 11.3349 17.4856 11.3032 17.7359C11.3025 17.7664 11.2948 17.7963 11.2807 17.8234C11.2666 17.8505 11.2465 17.874 11.2219 17.8921C11.1974 17.9102 11.169 17.9225 11.1389 17.9279C11.1089 17.9334 11.078 17.9318 11.0486 17.9235C10.6062 17.8554 10.1639 17.7866 9.72046 17.7257C8.98778 17.6251 8.27839 17.4607 7.697 16.9655C7.44603 16.7517 7.17985 16.5346 7.16723 16.1643C7.17143 15.9947 7.18531 15.8255 7.20879 15.6574C6.85059 15.5669 6.43201 15.4596 6.01261 15.3555C5.40041 15.1926 4.81401 14.9448 4.27043 14.6195C3.83443 14.3696 3.36649 14.1762 2.91863 13.9462C2.7206 13.8446 2.54163 13.706 2.34445 13.6023C2.268 13.5752 2.18506 13.572 2.10677 13.5934C1.74921 13.6605 1.39391 13.7397 1.03617 13.8057C0.959436 13.8139 0.881838 13.8073 0.807626 13.7861C0.764074 13.7838 0.721649 13.7714 0.683724 13.7499C0.645799 13.7284 0.613418 13.6983 0.589155 13.6621C0.564892 13.6258 0.549415 13.5844 0.543955 13.5411C0.538494 13.4979 0.543201 13.4539 0.5577 13.4128C0.610195 13.1339 0.757562 12.8818 0.974792 12.6992C1.07308 12.6104 1.16635 12.5161 1.25419 12.4169C1.2806 12.3723 1.2885 12.3192 1.27619 12.2688C1.25789 12.1578 1.22679 12.0493 1.18353 11.9454C0.994408 11.5373 1.11007 11.1097 1.10859 10.6932C1.10767 10.4336 1.53495 10.3326 1.76832 10.5285C1.90532 10.6492 2.0334 10.7797 2.15154 10.919C2.16341 10.938 2.17916 10.9544 2.19778 10.967C2.2164 10.9795 2.23746 10.988 2.25958 10.9919C2.2817 10.9957 2.30439 10.9949 2.32616 10.9893C2.34793 10.9838 2.36829 10.9738 2.38591 10.9599C2.76524 10.7486 3.15316 10.5528 3.5312 10.3393C3.60283 10.2853 3.66042 10.2148 3.69911 10.1338C3.80219 9.91324 3.92725 9.70363 4.07239 9.50816C4.31033 9.25367 4.6573 9.30053 4.95986 9.35096C5.21533 9.41963 5.46534 9.50722 5.70782 9.61298C5.77955 9.63482 5.85666 9.6309 5.9258 9.60189C6.34962 9.3782 6.8178 9.25133 7.29658 9.23044C7.31648 9.22994 7.33599 9.22482 7.35358 9.21548C7.37116 9.20614 7.38632 9.19283 7.39788 9.17662C7.51381 8.73546 7.85198 8.47456 8.19289 8.23265C8.57449 7.96189 8.95189 7.66511 9.44343 7.6084C9.66363 7.56489 9.88768 7.54393 10.1121 7.54584C10.5679 7.57889 11.0258 7.52496 11.4614 7.38695C11.5377 7.34815 11.6253 7.33804 11.7084 7.35846C11.7915 7.37889 11.8644 7.42848 11.914 7.49821C11.9522 7.56535 11.9687 7.64271 11.9611 7.71961C11.9536 7.79652 11.9223 7.86917 11.8717 7.92755C11.7583 8.0892 11.7111 8.28807 11.7396 8.48342C11.7491 8.62178 11.7087 8.75895 11.6256 8.87005C11.4815 9.08185 11.3031 9.27034 11.1122 9.5006C12.4888 9.91139 13.6559 10.7025 14.8059 11.6122C14.863 11.334 14.9247 11.1122 14.9519 10.8862C15.0327 10.2148 15.4312 9.76845 15.9541 9.39247C16.4693 9.02195 17.0611 8.81521 17.6289 8.55325C18.06 8.38033 18.5135 8.26974 18.9758 8.22481C19.074 8.22216 19.1721 8.2303 19.2685 8.24907C19.2971 8.24855 19.3255 8.25478 19.3514 8.26725C19.3772 8.27972 19.3997 8.29808 19.4171 8.32086C19.4346 8.34364 19.4464 8.37019 19.4516 8.39838C19.4569 8.42657 19.4555 8.4556 19.4475 8.48313C19.4236 8.8833 19.3713 9.28127 19.2909 9.67399C19.049 10.5938 18.6493 11.435 17.8456 12.0093C17.6368 12.1386 17.4173 12.2496 17.1894 12.3411C17.1132 12.3728 17.0352 12.4 16.9558 12.4227V12.4227ZM8.14196 12.1593C8.22148 12.2092 8.31161 12.2398 8.40509 12.2484C8.48788 12.1917 8.55596 12.116 8.6037 12.0277L8.30749 12.0818L8.26445 12.0068C8.30464 11.9969 8.3417 11.977 8.37221 11.9491C8.38518 11.8524 8.38147 11.7543 8.36126 11.6589C8.33774 11.6414 8.31062 11.6294 8.28187 11.6237C8.25311 11.618 8.22346 11.6189 8.19506 11.6261C8.11403 11.7141 7.96527 11.7856 8.06008 11.9532C8.09319 12.0213 8.12162 12.0916 8.14517 12.1636C8.10893 12.1253 8.0661 12.0938 8.01871 12.0707C7.90726 12.0374 7.79168 12.02 7.67537 12.019C7.64008 12.0853 7.62085 12.159 7.61922 12.2341C7.6076 12.36 7.61787 12.488 7.60569 12.6138C7.57831 12.8969 7.57501 12.8966 7.86985 12.9182L7.73758 12.5572L7.91105 12.5191L7.82522 12.2632L7.89658 12.2257L8.1419 12.6887C8.1419 12.5061 8.1419 12.3327 8.14195 12.1593L8.14196 12.1593ZM2.49631 13.3728C2.57967 13.4265 2.64078 13.4614 2.69711 13.5029C3.14661 13.8307 3.64795 14.0808 4.18024 14.2426C4.42074 14.3174 4.65552 14.3738 4.86928 14.1647C4.93087 14.1318 4.99932 14.1139 5.06913 14.1123C5.50773 14.0147 5.98333 13.9509 6.29148 13.6061C6.50669 13.3259 6.6783 13.0148 6.80048 12.6833C7.11473 11.979 6.71323 11.1672 6.08297 10.8085C6.05607 10.7897 6.02552 10.7767 5.99328 10.7704C5.96104 10.764 5.92784 10.7646 5.89581 10.7719C5.86378 10.7792 5.83364 10.7931 5.80733 10.8128C5.78102 10.8325 5.75913 10.8574 5.74307 10.8861C5.61074 11.0559 5.43762 11.1894 5.23982 11.2744C4.77251 11.4522 4.05213 11.1322 3.81912 10.6688C3.81185 10.6378 3.79731 10.609 3.7767 10.5847C3.75609 10.5605 3.73001 10.5414 3.7006 10.5293C3.67118 10.5171 3.63929 10.512 3.60756 10.5146C3.57582 10.5172 3.54515 10.5272 3.51808 10.544C3.17724 10.7247 2.83924 10.9121 2.51177 11.1156C2.48021 11.1466 2.45715 11.1853 2.44478 11.2278C2.43241 11.2703 2.43116 11.3153 2.44113 11.3585C2.62982 11.7378 2.7296 12.1551 2.73291 12.5788C2.72486 12.7643 2.68866 12.9476 2.62556 13.1222C2.5914 13.2101 2.54808 13.294 2.49631 13.3728V13.3728ZM8.7039 15.7948C8.74436 15.8737 8.79425 15.9474 8.85249 16.0142C9.20693 16.3136 9.63054 16.5197 10.0849 16.6139C10.2703 16.6462 10.4539 16.6889 10.6346 16.7418C10.6861 16.7784 10.728 16.8268 10.757 16.8829C10.6916 16.9018 10.6241 16.9121 10.5561 16.9135C10.4974 16.9077 10.4436 16.8485 10.3852 16.844C9.91044 16.7837 9.45356 16.6246 9.04402 16.377C8.9294 16.3196 8.82919 16.2372 8.75084 16.1357C8.67249 16.0343 8.61802 15.9165 8.59148 15.7911C8.29326 15.7724 7.9922 15.7677 7.69518 15.7306C7.4334 15.698 7.30719 15.8209 7.34411 16.0854C7.37038 16.2351 7.42726 16.3777 7.51119 16.5044C7.59512 16.6311 7.70429 16.7391 7.83188 16.8217C8.42581 17.2277 9.11834 17.4658 9.83635 17.5108C10.1854 17.5487 10.5368 17.5726 10.8828 17.6288C11.0568 17.6571 11.1005 17.5919 11.1016 17.4471C11.1032 17.2244 11.1105 17.0014 11.1 16.7792C11.0848 16.4566 11.0717 16.468 10.7473 16.4035C10.474 16.342 10.2047 16.2642 9.9407 16.1706C9.89818 16.1326 9.86615 16.0844 9.8477 16.0305C9.90813 16.0192 9.96931 16.0123 10.0307 16.0098C10.0643 16.0198 10.0964 16.0344 10.1261 16.0531C10.404 16.1751 10.7014 16.2468 11.0044 16.2648C10.9575 16.1427 10.901 16.0246 10.8355 15.9116C10.79 15.8302 10.7148 15.7696 10.6257 15.7423C10.3673 15.7362 10.1083 15.7706 9.84915 15.7806C9.58309 15.7909 9.31662 15.7909 9.05032 15.7946C8.95563 15.7959 8.86088 15.7948 8.7039 15.7948ZM7.93834 9.03491L7.9658 9.09506C7.99705 9.10549 8.02923 9.11283 8.06191 9.11697C8.39194 9.1275 8.72377 9.11817 9.05164 9.15003C9.3867 9.20931 9.7319 9.14563 10.0238 8.97068C10.2772 8.80998 10.6219 8.7919 10.9275 8.7164C10.9749 8.71477 11.0222 8.72196 11.0671 8.73761L11.0745 8.81521C10.8918 8.86121 10.7064 8.89883 10.5271 8.95557C10.3429 9.01386 10.1646 9.09083 9.9468 9.17364C10.1263 9.2301 10.2579 9.28079 10.3939 9.31166C10.5298 9.36138 10.675 9.38077 10.8193 9.36846C11.1973 9.27262 11.5262 8.762 11.5323 8.37289C11.5552 8.21093 11.5971 8.05224 11.6573 7.90013C11.6813 7.81022 11.7 7.7189 11.7212 7.62822C11.6221 7.58699 11.515 7.56849 11.4078 7.57407C10.9806 7.71358 10.5304 7.76923 10.082 7.73797C9.09887 7.69829 8.35976 8.21462 7.72127 8.90201C7.66778 8.97915 7.62533 9.06338 7.59517 9.15227L7.6469 9.17872C7.70614 9.10579 7.76042 9.02805 7.82546 8.96071C8.19547 8.60998 8.6557 8.36901 9.15473 8.26471C9.81753 8.08968 10.4927 7.96072 11.1645 7.82147C11.2375 7.82797 11.3081 7.85088 11.371 7.8885C11.3162 7.94628 11.25 7.99202 11.1765 8.02283C10.9738 8.03061 10.7716 8.04894 10.5707 8.07776C9.89944 8.25645 9.2294 8.44339 8.56983 8.66043C8.3461 8.76146 8.1343 8.88706 7.93834 9.03491V9.03491ZM19.0629 8.71588L19.0034 8.67891C17.6658 9.75421 16.4456 10.9678 15.363 12.2995C15.465 12.3087 15.5677 12.2998 15.6666 12.2732C15.8817 12.1438 16.0861 11.9961 16.2913 11.8506C16.5054 11.7153 16.7093 11.5643 16.9012 11.3989C17.5692 10.7729 18.1663 10.0752 18.6817 9.31857C18.813 9.12052 18.9361 8.91693 19.0629 8.71588ZM15.2089 12.2107C16.2079 10.8787 17.4354 9.77092 18.6801 8.68018C17.0539 9.12543 15.5397 10.5696 15.2089 12.2107ZM15.1806 12.3943L15.1437 12.4583C15.6425 13.1542 16.2139 13.7951 16.8481 14.3703C17.4801 14.9387 18.1075 15.5102 18.779 16.0341C18.5353 15.6968 18.2744 15.378 18.0045 15.0671C17.6519 14.6608 17.3118 14.2407 16.93 13.8634C16.5219 13.4601 16.0744 13.096 15.6377 12.7223C15.4957 12.6009 15.3336 12.503 15.1806 12.3943H15.1806ZM18.4521 8.49851C18.4313 8.49584 18.4102 8.49609 18.3895 8.49924C17.4972 8.73444 16.6533 9.12489 15.8964 9.65271C15.7208 9.76852 15.5644 9.91118 15.433 10.0755C15.212 10.4197 15.0701 10.8086 15.0175 11.2143C14.9552 11.5808 14.9563 11.6336 15.0679 11.7959C15.3699 11.0446 15.8208 10.3623 16.3936 9.79003C16.9846 9.19693 17.7164 8.85563 18.4521 8.49851ZM5.99618 10.35C5.98716 10.557 6.15649 10.6057 6.26273 10.6798C6.66096 10.9653 6.9404 11.3872 7.04793 11.8652C7.10163 12.04 7.1088 12.2258 7.06873 12.4042C6.96754 12.7605 6.82969 13.1052 6.65739 13.4331C6.58158 13.6 6.46746 13.7467 6.3243 13.8612C6.18114 13.9758 6.01299 14.0549 5.83349 14.0923C5.58826 14.1579 5.34937 14.2453 5.11962 14.3533C5.19596 14.3879 5.28116 14.3979 5.36345 14.382C5.70003 14.2906 6.03682 14.1976 6.3669 14.0856C6.50396 14.0324 6.63253 13.9595 6.74856 13.8692C7.42043 13.386 7.53909 12.5734 7.35529 11.8784C7.26463 11.5349 7.09435 11.2175 6.85823 10.9519C6.62211 10.6864 6.3268 10.4802 5.99618 10.35V10.35ZM4.93615 11.0962C5.40646 11.1038 5.71541 10.8611 5.74288 10.4595C5.75798 10.2446 5.71246 10.0297 5.61151 9.83939C5.44516 9.54977 4.58789 9.41051 4.23358 9.67181C4.09509 9.79189 4.00329 9.95689 3.97427 10.1379C3.94525 10.3189 3.98086 10.5043 4.07486 10.6617C4.29101 11.0124 4.66411 11.0266 4.93615 11.0962ZM15.0276 12.8835C15.0137 13.0104 15.0154 13.1385 15.0326 13.265C15.106 13.5184 15.1932 13.7675 15.294 14.0112C15.532 14.59 15.9967 14.9991 16.4458 15.3909C17.0989 15.9604 17.9307 16.1968 18.7523 16.4256C18.7889 16.4295 18.8257 16.4298 18.8623 16.4264C17.0549 15.8085 15.8263 14.6177 15.0276 12.8835ZM18.166 15.8649C17.2256 14.8965 16.1577 14.0538 15.3208 12.979C15.4115 13.4118 15.6198 13.8113 15.9227 14.1335C16.2398 14.4592 16.5705 14.772 16.9035 15.0817C17.2541 15.442 17.6875 15.7108 18.166 15.8649V15.8649ZM15.6921 12.5386C16.6716 13.4265 17.7116 14.2422 18.499 15.3197C18.5029 15.2628 18.4879 15.2062 18.4561 15.1588C18.3423 14.9825 18.2193 14.8119 18.1112 14.6322C17.8826 14.187 17.5724 13.7888 17.1967 13.4582C17.0805 13.3669 16.9746 13.2631 16.8811 13.1486C16.573 12.7742 16.2207 12.4918 15.6921 12.5386ZM15.9103 12.2669L15.9729 12.364C16.1198 12.2994 16.2712 12.2435 16.4123 12.1679C16.5481 12.0952 16.6659 11.987 16.8042 11.9206C17.8339 11.4258 18.4188 10.5349 18.9217 9.56724C18.9719 9.48798 19.0291 9.41339 19.0926 9.34435L19.1406 9.37214V9.09192C18.2411 10.3364 17.3159 11.5405 15.9103 12.2669L15.9103 12.2669ZM8.2635 10.2511C8.35235 10.3722 8.42596 10.474 8.5013 10.5746C8.56966 10.6785 8.64688 10.7764 8.73208 10.867C8.75959 10.8882 8.79159 10.9029 8.82564 10.91C8.85969 10.917 8.89489 10.9161 8.92857 10.9075C8.96574 10.8508 8.98794 10.7857 8.99308 10.7181C9.04938 10.7132 9.10374 10.6951 9.15169 10.6652C9.19965 10.6353 9.23984 10.5945 9.26898 10.5461C9.29812 10.4977 9.31538 10.4431 9.31935 10.3867C9.32331 10.3303 9.31387 10.2738 9.29179 10.2218L8.93032 10.1556L8.93629 10.092C8.97521 10.0843 9.01274 10.0707 9.04761 10.0517C9.12556 10.0147 9.19037 9.95478 9.23338 9.87997C9.24445 9.73971 9.11835 9.76093 9.01769 9.76031C8.93483 9.75469 8.85245 9.74334 8.77116 9.72632L8.77454 9.67969L9.05568 9.60473L9.05705 9.55246C8.82845 9.49652 8.69106 9.16551 8.3642 9.35857C8.63132 9.69342 8.41049 9.96959 8.2635 10.2511ZM6.2065 10.1191L6.17996 10.0465C6.2462 10.0002 6.32249 9.97031 6.40254 9.9593C6.68847 10.013 6.96972 10.0914 7.25323 10.1584C7.30513 10.1819 7.36322 10.188 7.41888 10.1759C7.44373 10.154 7.46307 10.1267 7.47533 10.0959C7.4876 10.0652 7.49245 10.032 7.48948 9.99908C7.43829 9.89342 7.36981 9.79705 7.28688 9.71394C7.22243 9.65005 7.14668 9.59866 7.06348 9.5624C6.97753 9.50536 6.87634 9.47566 6.77319 9.4772C6.52615 9.55503 6.28444 9.64883 6.04957 9.75802C6.01341 9.77002 5.98154 9.79233 5.95788 9.8222C5.93422 9.85206 5.9198 9.88819 5.91639 9.92614C5.91298 9.96409 5.92072 10.0022 5.93867 10.0358C5.95663 10.0694 5.984 10.0971 6.01744 10.1153C6.34888 10.3487 6.68391 10.5769 7.02254 10.7999C7.07543 10.8102 7.13005 10.8068 7.18129 10.7902C7.17782 10.7306 7.16229 10.6724 7.13564 10.619C7.07884 10.5676 7.01713 10.5219 6.95139 10.4826C6.90686 10.4437 6.86432 10.4025 6.82394 10.3593L7.01939 10.2129L6.2065 10.1191ZM18.7807 15.3773L18.8498 15.3424C18.8353 15.2503 18.8154 15.1592 18.7902 15.0695C18.6375 14.6571 18.4271 14.2683 18.1652 13.915C17.8209 13.4215 17.3478 13.078 16.9205 12.6808C16.8653 12.6086 16.7877 12.5567 16.6999 12.5333C16.612 12.5099 16.5189 12.5162 16.4351 12.5513C17.3988 13.3262 18.1965 14.2874 18.7807 15.3773V15.3773ZM11.4219 10.294L11.4191 10.2154H11.8805C11.7941 9.8342 11.5046 9.82587 11.199 9.76516C11.2562 9.93534 11.2678 10.1176 11.2325 10.2936C11.1973 10.4697 11.1164 10.6334 10.9981 10.7684C11.0885 10.9116 11.1878 11.0489 11.2954 11.1797C11.324 11.2014 11.3576 11.2156 11.393 11.2212C11.4285 11.2267 11.4648 11.2234 11.4987 11.2115C11.7445 10.9818 11.8902 10.6646 11.9043 10.3284L11.4219 10.294ZM11.2298 12.3073C11.3295 12.4712 11.4177 12.6418 11.4938 12.8179C11.5586 12.9962 11.6252 12.9852 11.7487 12.8734L11.641 12.7604C11.7387 12.7427 11.8304 12.7005 11.9074 12.6378C12.0126 12.3952 12.1439 12.1238 11.9571 11.8792C11.8317 11.7679 11.6873 11.6802 11.5308 11.6202C11.4776 11.7392 11.4237 11.858 11.3713 11.9774C11.3248 12.0834 11.28 12.1902 11.2298 12.3073ZM7.16485 14.7299C7.30531 14.4095 7.02417 14.2899 6.88704 14.1196C6.77903 14.1101 6.67058 14.132 6.57473 14.1827C6.40341 14.2423 6.23696 14.316 6.06915 14.3854C5.95521 14.4326 5.84246 14.4826 5.67318 14.5554C5.77541 14.6487 5.8897 14.7279 6.01299 14.7909C6.24039 14.8626 6.50628 14.7713 6.71393 14.9528C6.76821 14.9699 6.82548 14.9753 6.88201 14.9688L6.67249 14.7397C6.84037 14.4934 6.99653 14.6962 7.16485 14.7299ZM11.1048 14.0705C11.2435 14.2964 11.3713 14.5115 11.5079 14.7209C11.522 14.7427 11.5409 14.761 11.5632 14.7743C11.5855 14.7877 11.6105 14.7957 11.6364 14.7977C11.6987 14.7648 11.755 14.7216 11.8028 14.6698L11.5756 14.5102L11.9446 14.472L11.9921 14.2356L11.6729 14.1476C12.0642 13.9677 12.0686 13.9368 11.74 13.6467L11.8209 13.584L11.6307 13.2274L11.5612 13.236C11.5153 13.5849 11.4077 13.8978 11.1048 14.0705H11.1048ZM13.8355 11.301L13.8195 11.3572C13.7616 11.3542 13.7041 11.3451 13.6481 11.3301C13.4712 11.263 13.4049 11.3552 13.2855 11.4833C13.0605 11.7246 13.135 11.9311 13.2166 12.1852C13.2784 12.3779 13.3815 12.3582 13.4682 12.2629C13.6188 12.0984 13.7496 11.9168 13.858 11.7218C14.0553 11.3627 14.0067 11.22 13.6538 11.0073C13.6024 10.9754 13.5439 10.957 13.4836 10.9536C13.4667 10.9684 13.4533 10.9867 13.4444 11.0073C13.4354 11.0279 13.4311 11.0501 13.4317 11.0726C13.4691 11.1278 13.5199 11.1725 13.5795 11.2026C13.6627 11.2406 13.7482 11.2735 13.8355 11.301ZM1.05143 13.5637L1.05925 13.6318C1.32822 13.5632 1.60187 13.5089 1.86517 13.4229C2.40097 13.248 2.50654 13.105 2.50589 12.5607C2.50992 12.2062 2.43366 11.8553 2.28282 11.5345C2.13197 11.2136 1.91046 10.9311 1.63489 10.708C1.56268 10.6701 1.48441 10.645 1.40359 10.634C1.63416 10.9185 1.84422 11.219 2.03219 11.5333C2.22576 11.913 2.49833 12.2735 2.30462 12.7771C2.262 12.9086 2.18942 13.0285 2.09259 13.1272C1.99576 13.2259 1.87733 13.3008 1.74662 13.346C1.51965 13.4313 1.28351 13.4921 1.05143 13.5637ZM12.5875 13.2948L12.3771 13.2047C12.5105 12.9905 12.4931 12.9328 12.2854 12.7711C12.1021 12.6284 12.0842 12.8176 12.0091 12.8974C11.9769 12.9348 11.9401 12.968 11.8997 12.9963C11.771 13.0776 11.7763 13.1641 11.8694 13.2726C12.046 13.4726 12.1528 13.7246 12.1739 13.9905C12.1885 14.0867 12.2098 14.1818 12.2376 14.275C12.5841 14.0109 12.6765 13.7717 12.5654 13.5112L12.3059 13.4901L12.3035 13.4303L12.5875 13.2948ZM16.6226 12.2317C17.4369 12.3108 18.5905 11.3682 18.9467 9.92648C18.4882 11.0135 17.6365 11.7043 16.6226 12.2317V12.2317ZM9.55568 13.8025L9.22628 13.7877L9.22078 13.7335C9.28634 13.7249 9.35013 13.706 9.4098 13.6775C9.48786 13.6157 9.56108 13.5481 9.62883 13.4752C9.56472 13.4255 9.49806 13.3792 9.42912 13.3364C9.36707 13.3066 9.303 13.281 9.23739 13.2601L9.24779 13.2358L9.54104 13.2624L9.57039 13.2154C9.50019 13.1143 9.4226 13.0185 9.33827 12.9288C9.25876 12.8544 9.17957 12.8643 9.12473 12.9835C9.04734 13.1517 8.9532 13.3123 8.87953 13.451C8.93057 13.6496 8.96183 13.8528 8.97284 14.0576C8.96617 14.0786 8.96486 14.101 8.96901 14.1227C8.97317 14.1444 8.98266 14.1648 8.99664 14.1819C9.01061 14.199 9.02863 14.2123 9.04906 14.2208C9.06949 14.2292 9.0917 14.2324 9.11367 14.23C9.32585 14.2569 9.48891 14.1017 9.55568 13.8025V13.8025ZM10.1462 10.2169L10.3129 10.6157L10.2599 10.6382L10.0621 10.395L9.84112 10.6511L10.2776 11.6506L10.5334 11.38L10.2444 11.3594C10.5056 11.2086 10.6929 11.0669 10.6237 10.763C10.563 10.4968 10.4605 10.279 10.1462 10.2169V10.2169ZM9.33591 14.8894C9.31309 14.8243 9.28625 14.7607 9.25555 14.699C9.10119 14.4513 8.98597 14.4583 8.81079 14.6834C8.7174 14.7976 8.59827 14.8879 8.46318 14.9471C8.17234 15.0765 8.16704 15.0654 8.29898 15.3535C8.31885 15.3825 8.3358 15.4134 8.34958 15.4458C8.35536 15.4791 8.36878 15.5107 8.38878 15.5381C8.40879 15.5654 8.43484 15.5877 8.46491 15.6033C8.49498 15.6189 8.52825 15.6274 8.56212 15.628C8.59599 15.6286 8.62954 15.6214 8.66016 15.6069C8.81837 15.5594 8.97351 15.5022 9.12472 15.4357L8.72466 15.2255L8.7368 15.1704L9.12848 15.1454L8.88482 14.946L8.90203 14.8894H9.33591L9.33591 14.8894ZM12.6571 11.6191L12.3051 11.5506C12.6767 11.425 12.6837 11.4103 12.5288 11.0506C12.5153 11.0264 12.5034 11.0012 12.4933 10.9753C12.4845 10.9412 12.469 10.9091 12.4476 10.8811C12.4262 10.853 12.3995 10.8296 12.3689 10.812C12.3384 10.7944 12.3046 10.7831 12.2696 10.7788C12.2346 10.7745 12.1991 10.7772 12.1652 10.7867C12.0746 10.8185 11.9964 10.8784 11.9422 10.9577C11.8664 11.0558 11.7965 11.1583 11.7329 11.2646C12.1219 11.8616 12.441 11.8738 12.6571 11.6191ZM11.1377 13.192C11.2275 13.1455 11.307 13.0812 11.3713 13.0032C11.3175 12.8258 11.2384 12.657 11.1366 12.502C11.0694 12.4725 10.9956 12.4614 10.9227 12.4699C10.9171 12.5276 10.9076 12.5853 10.9065 12.6432C10.9017 12.8857 10.9505 13.1436 10.7368 13.3311C10.7063 13.3517 10.6813 13.3795 10.6638 13.4119C10.6463 13.4443 10.637 13.4805 10.6365 13.5173C10.636 13.5541 10.6444 13.5905 10.6609 13.6234C10.6775 13.6563 10.7018 13.6847 10.7317 13.7062C10.772 13.7519 10.785 13.8229 10.8276 13.8649C10.8769 13.8932 10.9309 13.9121 10.9871 13.9207L10.9597 13.7517L11.345 13.5863L11.1117 13.4873L11.3646 13.336L11.1377 13.192ZM11.317 14.6405L10.9537 14.164C10.9153 14.2079 10.8937 14.2641 10.8929 14.3225C10.8966 14.4496 10.8835 14.5766 10.8541 14.7003C10.7882 14.8217 10.7151 14.939 10.6351 15.0515C10.5962 15.1176 10.5843 15.1961 10.6017 15.2708C10.6162 15.3181 10.6401 15.3621 10.6722 15.3999C10.7042 15.4377 10.7436 15.4685 10.7879 15.4906C10.9436 15.4797 11.0974 15.4495 11.2457 15.4007L11.2454 15.3433L10.9698 15.2751L10.962 15.2231C11.0072 15.2005 11.0559 15.1858 11.106 15.1795C11.3504 15.1938 11.4184 15.1228 11.4086 14.8372L11.2086 14.8952C11.201 14.8755 11.1973 14.8544 11.1977 14.8333C11.2323 14.7736 11.2699 14.7158 11.317 14.6405ZM9.48172 11.9268C9.25374 12.0126 9.25374 12.0126 9.11432 11.617L9.34151 11.5336C9.28981 11.4384 9.22836 11.3488 9.15813 11.2664C9.10078 11.2208 9.02842 11.1983 8.95532 11.2034C8.91611 11.2448 8.88984 11.2968 8.87976 11.3529C8.83291 11.4822 8.78456 11.6117 8.74964 11.7444C8.72463 11.8111 8.72328 11.8843 8.74579 11.9518C8.87403 12.1693 9.01999 12.3765 9.16066 12.5892L9.36529 12.3102C9.5441 12.213 9.48317 12.0325 9.47847 11.8838C9.46457 11.8224 9.43987 11.7641 9.40551 11.7114L9.35062 11.7509L9.48172 11.9268ZM13.2187 11.0629C13.1526 11.063 13.0866 11.0573 13.0214 11.0459C12.9764 11.0272 12.9345 11.0018 12.897 10.9707C12.9372 10.9391 12.9802 10.9114 13.0255 10.8878C13.0555 10.8752 13.0993 10.8951 13.1293 10.8824C13.1779 10.8575 13.2243 10.8285 13.2681 10.7959C13.2194 10.7671 13.1685 10.742 13.116 10.721C13.0121 10.6875 12.8278 10.6831 12.8138 10.6304C12.7617 10.4342 12.5893 10.3749 12.4658 10.2704C12.3451 10.1914 12.2147 10.1284 12.0778 10.083L12.0142 10.1707C12.1249 10.2882 12.2378 10.4036 12.3456 10.5236C12.5853 10.7729 12.7457 11.0877 12.8066 11.4282C12.8374 11.6222 12.8848 11.6294 13.0179 11.5056C12.8931 11.2644 13.2001 11.2427 13.2187 11.0629V11.0629ZM11.0532 11.966L11.0659 12.0331C10.9937 12.0478 10.9229 12.0688 10.8544 12.096C10.8231 12.1249 10.7991 12.1607 10.784 12.2005C10.8225 12.2213 10.8659 12.2316 10.9096 12.2301C11.066 12.1499 11.1861 12.0134 11.2458 11.8481C11.3674 11.5033 11.154 11.2917 10.9791 11.0602C10.9409 11.0236 10.8973 10.9932 10.8498 10.9699C10.8161 11.01 10.7896 11.0557 10.7715 11.1049C10.7576 11.3307 10.6675 11.5452 10.5161 11.7133C10.502 11.7422 10.4956 11.7743 10.4973 11.8064C10.4991 11.8385 10.5091 11.8697 10.5263 11.8969C10.5816 11.953 10.6549 11.988 10.7334 11.9957C10.8407 11.9958 10.9478 11.9859 11.0532 11.966V11.966ZM9.01834 9.35931C9.47077 9.66211 9.45002 10.114 9.4891 10.6136L9.89293 10.3024L9.58504 9.85202C9.68067 9.8559 9.77631 9.84479 9.86851 9.8191C9.93451 9.7694 9.99172 9.709 10.0378 9.64041C9.97994 9.62161 9.92277 9.60029 9.86407 9.58478C9.81519 9.57187 9.76451 9.56576 9.68665 9.55153L9.87008 9.35931H9.01834V9.35931ZM10.0311 14.9616L10.0453 14.9021L9.64406 14.6397L9.67105 14.5805C9.77215 14.5802 9.87276 14.5663 9.97012 14.5391C9.99881 14.5201 10.0226 14.4946 10.0395 14.4647C10.0564 14.4347 10.0659 14.4012 10.0673 14.3668C9.98936 14.2532 9.89634 14.1508 9.79077 14.0624C9.76381 14.0562 9.73577 14.0564 9.70891 14.0631C9.68205 14.0697 9.65712 14.0826 9.63613 14.1006C9.51126 14.2182 9.3982 14.3483 9.32063 14.4311C9.41077 14.7045 9.49068 14.9661 9.58723 15.2214C9.60376 15.2479 9.62681 15.2698 9.65417 15.2848C9.68153 15.2999 9.71229 15.3077 9.74353 15.3076C9.828 15.27 9.90612 15.2194 9.97508 15.1578L9.67783 15.0596L9.6802 15.0228L10.0311 14.9616ZM10.3413 13.3039L10.3947 13.3291C10.403 13.2741 10.4246 13.222 10.4576 13.1774C10.5525 13.1263 10.6519 13.0844 10.7547 13.052L10.4496 12.9696C10.8532 12.7089 10.8587 12.6675 10.527 12.4928L10.7114 12.3354C10.5797 12.2022 10.4699 12.0174 10.315 11.9644C10.2331 11.9364 10.0728 12.138 9.94612 12.2373C10.0795 12.3799 10.1832 12.5477 10.2511 12.7308C10.3189 12.914 10.3496 13.1088 10.3413 13.3039L10.3413 13.3039ZM10.7371 10.5627L10.75 10.607C10.7868 10.6093 10.8237 10.6037 10.8582 10.5905C10.9514 10.5233 11.0206 10.4278 11.0554 10.3183C11.0902 10.2088 11.0889 10.0909 11.0517 9.98221C11.0351 9.95335 11.0124 9.92847 10.9852 9.90935C10.958 9.89023 10.9269 9.87734 10.8941 9.87157C10.7255 9.84495 10.5535 9.83953 10.3828 9.82577L10.3879 9.73668H10.9265L10.939 9.65115L10.1298 9.41612C10.2571 9.899 10.3885 10.2988 10.8881 10.4454L10.7371 10.5627ZM8.42407 14.3621L8.83887 14.0721L8.78721 13.6444C8.53104 13.7528 8.31292 13.8474 8.09285 13.9373C7.9513 13.995 7.93605 14.076 8.02968 14.1882C8.09503 14.2729 8.14872 14.366 8.18931 14.4649C8.23147 14.5584 8.25666 14.6595 8.29161 14.7642L8.49481 14.4858L8.42407 14.3621ZM8.01905 10.2499L7.83337 10.089L7.96241 9.99738L7.71303 9.78946L7.74057 9.74031L8.13371 9.77037L8.0557 9.5502L8.2114 9.47398C8.179 9.41025 8.12428 9.36066 8.05767 9.33466C7.99107 9.30865 7.91722 9.30806 7.8502 9.33298C7.71304 9.35891 7.57169 9.36194 7.43277 9.3796C7.34857 9.3903 7.26546 9.40962 7.11625 9.4372C7.5006 9.63886 7.74595 9.86258 7.67643 10.3001L8.01905 10.2499ZM12.7639 14.5005C12.8045 14.4288 12.8665 14.3715 12.9412 14.3366C13.016 14.3017 13.0997 14.291 13.1808 14.3059C13.229 14.3083 13.277 14.2988 13.3206 14.2782C13.3301 14.2622 13.3357 14.2441 13.3372 14.2256C13.3386 14.207 13.3358 14.1883 13.3289 14.171C13.283 14.1473 13.2314 14.1367 13.1798 14.1406C13.0583 14.1525 12.938 14.1762 12.7777 14.2014C12.8586 13.9294 13.1743 14.1049 13.2413 13.8969C13.0294 13.7653 12.7943 13.7919 12.7253 13.9503C12.6463 14.1313 12.5589 14.3087 12.4577 14.5251C12.5101 14.6006 12.5687 14.6716 12.6329 14.7375C12.6549 14.7559 12.681 14.7687 12.7091 14.7749C12.7371 14.781 12.7662 14.7803 12.7939 14.7728C12.9383 14.6817 13.0708 14.5719 13.2052 14.4707L12.7639 14.5005ZM7.91491 13.6051C7.93094 13.5457 7.93295 13.4834 7.92078 13.4232C7.8544 13.3222 7.77247 13.2325 7.67802 13.1572C7.64612 13.1501 7.61294 13.1513 7.58161 13.1605C7.55027 13.1698 7.52178 13.1868 7.49881 13.2101C7.33686 13.4592 7.19033 13.7183 7.01646 14.0114L7.42019 14.1273L7.43833 14.0772L7.34614 13.9613L7.69121 13.7279L7.56415 13.4978L7.91491 13.6051ZM10.0862 12.5941C9.93678 12.4959 9.80726 12.3512 9.73565 12.3757C9.57897 12.4514 9.434 12.5492 9.30519 12.6661C9.45919 12.8703 9.57739 13.0508 9.72219 13.2066C9.79939 13.257 9.88937 13.2843 9.98155 13.2853C10.0046 13.2359 10.0231 13.1845 10.0367 13.1317L10.2028 13.1584L10.0873 12.7297L10.0154 12.7507C10.0345 12.7846 10.0464 12.8222 10.0502 12.861C10.0482 12.9181 10.0275 12.973 9.99134 13.0173C9.88874 13.1035 9.71537 13.0599 9.72399 12.9531L9.86818 12.8606L9.79488 12.6735L10.0862 12.5941ZM8.57135 12.9128C8.69077 12.7689 8.94412 12.8179 8.90368 12.5948C8.86951 12.4501 8.82745 12.3075 8.77767 12.1675C8.6404 12.2854 8.55672 12.3694 8.46136 12.4368C8.41148 12.4615 8.36932 12.4993 8.33946 12.5462C8.30959 12.5932 8.29317 12.6474 8.29197 12.703C8.29078 12.7586 8.30485 12.8135 8.33267 12.8617C8.36049 12.9099 8.40099 12.9495 8.44976 12.9763C8.51045 13.033 8.567 13.0941 8.61896 13.1589C8.65013 13.1986 8.69047 13.23 8.73651 13.2506C8.79932 13.2108 8.85222 13.1572 8.89116 13.0938C8.86625 13.0458 8.82812 13.0059 8.78127 12.9789C8.71373 12.9498 8.64339 12.9277 8.57135 12.9128ZM6.64572 15.3319C6.90632 15.3931 7.13881 15.449 7.37221 15.5007C7.38526 15.5024 7.39851 15.5008 7.41082 15.4962C7.42313 15.4916 7.43412 15.484 7.44285 15.4742C7.49759 15.3078 7.59243 15.4139 7.67763 15.4339C7.81851 15.4671 7.96079 15.4944 8.10247 15.5241L8.11567 15.4675L7.61679 15.26L7.64735 15.1802L8.0371 15.2655L8.06879 15.2234C8.03731 15.1756 7.99454 15.1363 7.94427 15.109C7.73509 15.0786 7.52351 15.0641 7.31249 15.0477C7.27748 15.0478 7.24298 15.0561 7.21186 15.0722C7.03628 15.151 6.86183 15.2324 6.64572 15.3319ZM8.04138 14.6085C7.96439 14.2067 7.82701 14.1603 7.29765 14.3295L7.39076 14.8665L7.78108 14.9202L7.61265 14.6916L7.95162 14.7967L8.01608 14.7131L7.77768 14.6097L7.82023 14.5626L8.04138 14.6085ZM14.0394 12.3497C13.9502 12.3439 13.8606 12.3505 13.7731 12.3692C13.6925 12.4004 13.6209 12.4514 13.5652 12.5175C13.5915 12.6373 13.6609 12.7433 13.7602 12.8153C13.9112 12.8336 14.0643 12.8224 14.211 12.7822C14.2265 12.7604 14.2354 12.7346 14.2366 12.7078C14.2505 12.5828 14.2302 12.4563 14.1779 12.3419C14.1255 12.2275 14.0431 12.1295 13.9394 12.0583L13.8164 12.2271L14.0394 12.3497ZM4.60328 14.5409C4.99845 14.8339 5.45719 15.0296 5.94221 15.112L5.42588 14.6826L5.51511 14.6166L4.60328 14.5409ZM8.2375 11.0049C8.27121 10.966 8.30114 10.9239 8.32689 10.8794C8.30858 10.8682 8.29395 10.8519 8.28483 10.8325C8.2757 10.8131 8.27248 10.7914 8.27557 10.7702C8.27865 10.749 8.28791 10.7292 8.30218 10.7131C8.31645 10.6971 8.33511 10.6857 8.35584 10.6802C8.31035 10.6054 8.25459 10.5374 8.19019 10.478C8.13094 10.4817 8.07364 10.5006 8.02389 10.533C8.07021 10.6241 8.09047 10.7263 8.08242 10.8281C8.07438 10.93 8.03834 11.0277 7.97829 11.1104C7.97836 11.1244 7.98179 11.1382 7.98829 11.1506C8.03726 11.3675 8.09862 11.4009 8.42355 11.3776C8.46713 11.3694 8.50961 11.3561 8.5501 11.338C8.53382 11.289 8.50979 11.2428 8.47894 11.2013C8.40465 11.1297 8.3189 11.0698 8.2375 11.0049ZM13.0696 12.3932H12.6492L12.7771 12.2032C12.6539 12.2013 12.3578 12.4838 12.3976 12.576C12.4599 12.719 12.5539 12.846 12.6725 12.9475C12.7735 12.943 12.8718 12.9139 12.9589 12.8628L12.8297 12.7121C12.9383 12.6232 13.1629 12.6372 13.0696 12.3932V12.3932ZM13.7737 13.3511H13.3628L13.3508 13.3018L13.7155 13.1337C13.4488 12.9969 13.2544 13.0288 13.0926 13.226C13.0723 13.2503 13.0577 13.2789 13.05 13.3097C13.0423 13.3405 13.0416 13.3726 13.0481 13.4037C13.0755 13.4566 13.1132 13.5035 13.1592 13.5415C13.2052 13.5794 13.2584 13.6077 13.3156 13.6245C13.3728 13.6412 13.4328 13.6462 13.492 13.6392C13.5512 13.6321 13.6083 13.613 13.6599 13.5832C13.7154 13.5158 13.7543 13.4363 13.7737 13.3511V13.3511ZM9.14344 11.0289C9.21382 11.1277 9.28091 11.2163 9.34207 11.3088C9.48207 11.5206 9.52169 11.528 9.74963 11.362L9.46559 11.0279C9.50644 11.0208 9.5468 11.0111 9.58648 10.9991C9.6541 10.9709 9.72037 10.9395 9.78718 10.9094C9.72324 10.8536 9.65128 10.8078 9.57372 10.7735C9.35906 10.7154 9.23702 10.8441 9.14344 11.0289V11.0289ZM7.20073 11.0207C7.3176 11.2493 7.40005 11.433 7.50423 11.6035C7.52537 11.6417 7.5541 11.6751 7.58866 11.7017C7.62322 11.7284 7.66287 11.7477 7.70516 11.7584C7.82121 11.7392 7.93321 11.7007 8.03643 11.6443C7.82975 11.512 7.57143 11.5881 7.54711 11.2827L7.90997 11.3385L7.92467 11.28C7.71945 11.1145 7.46436 11.0231 7.20073 11.0207L7.20073 11.0207ZM12.3713 14.7082C12.221 14.5354 12.1599 14.5398 12.0202 14.745C11.9847 14.8276 11.9251 14.8975 11.8491 14.9455C11.7731 14.9934 11.6843 15.0171 11.5945 15.0135L11.536 15.3208C12.0735 15.2125 12.4674 14.9975 12.4572 14.8184C12.3202 14.8424 12.2153 15.1758 12.0263 14.8749C12.091 14.8413 12.1386 14.815 12.1876 14.7915C12.2428 14.7649 12.2991 14.7408 12.3713 14.7082L12.3713 14.7082ZM9.99801 13.9515C10.1711 14.3117 10.2856 14.2844 10.5069 14.1248C10.5393 14.0903 10.5639 14.0494 10.5791 14.0046C10.5944 13.9599 10.5999 13.9124 10.5953 13.8654C10.5899 13.821 10.575 13.7782 10.5518 13.7399C10.5285 13.7017 10.4974 13.6688 10.4604 13.6435C10.4209 13.6338 10.3796 13.6332 10.3398 13.6416C10.2999 13.65 10.2624 13.6672 10.2301 13.692C10.1438 13.7701 10.066 13.8571 9.99801 13.9515L9.99801 13.9515ZM8.49447 13.6017C8.5475 13.2464 8.47371 13.0821 8.25083 13.0388C8.21141 13.0362 8.17187 13.0414 8.1345 13.0542C8.09713 13.067 8.06268 13.0871 8.03313 13.1133C8.00831 13.1705 8.00446 13.2345 8.02224 13.2943C8.03504 13.3803 8.05336 13.4654 8.07709 13.549C8.09167 13.605 8.11419 13.659 8.13316 13.7139C8.18348 13.6886 8.2298 13.656 8.27068 13.6172C8.30728 13.5599 8.33857 13.4993 8.36414 13.4362C8.37349 13.4286 8.38456 13.4235 8.39638 13.4211L8.49447 13.6017ZM1.34153 11.5133L1.27156 11.5474L1.46387 12.1854L1.61655 12.0146L2.02959 12.7156L2.10196 12.6845V12.3487C2.01275 12.3369 1.92718 12.3058 1.85122 12.2576C1.72742 12.0815 1.63087 11.8866 1.51496 11.7045C1.46287 11.6358 1.40483 11.5718 1.34153 11.5133V11.5133ZM9.97456 11.9867L9.78392 11.7229C10.0339 11.7597 10.0594 11.7435 10.0379 11.533C10.028 11.4292 10.0065 11.3268 9.97374 11.2278C9.92285 11.0782 9.83077 11.0859 9.71627 11.1811L9.89673 11.4008C9.58753 11.681 9.57037 11.7599 9.7386 12.1225L9.97456 11.9867ZM9.46993 15.5606L9.49083 15.6438C9.71028 15.6161 9.92982 15.5891 10.1492 15.5605C10.2516 15.5686 10.3543 15.5508 10.4481 15.5089C10.5747 15.3925 10.3869 15.3508 10.35 15.2693C10.3297 15.2245 10.3101 15.1793 10.2901 15.1343C10.2344 15.1696 10.1789 15.2054 10.1227 15.24C9.99203 15.3206 9.86461 15.4076 9.72872 15.4783C9.64509 15.5134 9.55848 15.541 9.46993 15.5606V15.5606ZM14.7995 12.6002C14.857 12.5434 14.8958 12.4706 14.9109 12.3912C14.926 12.3119 14.9166 12.2299 14.884 12.156C14.8432 12.118 14.7901 12.0963 14.7344 12.0948C14.6134 12.2811 14.2883 12.3682 14.4426 12.6935L14.6425 12.7819L14.6795 12.4855L14.7995 12.6002ZM14.1341 11.6686L14.5099 11.7918L14.5096 11.8592L14.2584 11.9763C14.2354 11.9033 14.2084 11.8316 14.1775 11.7616C14.148 11.76 14.1185 11.7636 14.0903 11.7722C14.1129 11.8338 14.1354 11.8953 14.1579 11.9568C14.1667 11.9979 14.1824 12.0372 14.2044 12.073C14.2341 12.1143 14.2769 12.1443 14.3259 12.158C14.4142 12.122 14.4897 12.0605 14.5427 11.9813C14.5662 11.9334 14.5791 11.8811 14.5806 11.8278C14.582 11.7745 14.572 11.7216 14.5511 11.6725C14.4251 11.5512 14.2851 11.4453 14.1341 11.3571V11.6686H14.1341ZM7.38497 10.7164C7.39718 10.7737 7.42755 10.8255 7.47156 10.8641C7.59473 10.894 7.72321 10.8946 7.84665 10.8658C7.87339 10.8344 7.89258 10.7972 7.90277 10.7572C7.91295 10.7172 7.91386 10.6754 7.90542 10.635C7.85996 10.5732 7.795 10.5285 7.72102 10.5082C7.68765 10.4926 7.62524 10.5273 7.59988 10.5079C7.34791 10.3155 7.40783 10.5365 7.38497 10.7164ZM14.4065 12.8926C14.3517 13.2648 13.9251 13.4 13.92 13.7131C14.0757 13.5895 14.2627 13.4464 14.4435 13.2957C14.5725 13.1882 14.6204 13.0667 14.4065 12.8926ZM10.2358 14.3896C10.301 14.4466 10.3702 14.4989 10.4427 14.5464C10.4792 14.5211 10.5117 14.4905 10.5392 14.4557L10.7723 14.497L10.735 14.1649L10.2358 14.3896ZM12.5357 11.9579C12.1359 11.8662 12.1085 11.9057 12.2229 12.4274L12.5357 11.9579ZM1.51691 12.5586L1.48495 12.5739C1.49293 12.6749 1.50169 12.7758 1.50875 12.8768C1.50718 12.9154 1.51685 12.9537 1.53657 12.987C1.55629 13.0203 1.58523 13.0471 1.61989 13.0643C1.65455 13.0815 1.69344 13.0883 1.73188 13.0839C1.77032 13.0795 1.80666 13.064 1.8365 13.0394L1.51691 12.5586ZM10.1336 13.4167C9.78593 13.4431 9.75103 13.4797 9.78893 13.7766C9.87723 13.7612 9.9583 13.718 10.0203 13.6532C10.0823 13.5885 10.122 13.5056 10.1336 13.4167H10.1336ZM13.5355 12.9026L13.5751 12.8401L13.3429 12.5906L13.2939 12.6192V12.9026H13.5355H13.5355ZM13.9097 13.252L13.9739 13.267L14.1723 12.9811L14.1353 12.936L13.8381 12.9913L13.9097 13.252ZM13.08 13.7146L13.1158 13.629L12.8285 13.4876L12.7836 13.6147L13.08 13.7146ZM0.934761 13.202L1.16667 13.2818L1.18813 13.2225L0.92876 13.068L0.850676 13.2936L0.885588 13.3074L0.934761 13.202Z" fill="#DDE7DC"/>
<path d="M2.02362 7.68862C1.98917 7.07152 2.44594 6.86886 2.91006 6.86407C3.02699 6.86807 3.1419 6.89576 3.24781 6.94547C3.35373 6.99518 3.44845 7.06587 3.52624 7.15327C3.60403 7.24066 3.66328 7.34293 3.70038 7.45389C3.73748 7.56486 3.75168 7.68219 3.7421 7.7988C3.70817 8.22315 3.4313 8.5892 2.66619 8.53316C2.28107 8.50495 2.004 8.15157 2.02362 7.68862ZM2.61528 7.13648C2.65276 7.18458 2.67749 7.24135 2.68719 7.30155C2.6403 7.47141 2.63553 7.65015 2.67331 7.82228C2.71109 7.9944 2.79027 8.15472 2.90399 8.28933C3.01172 8.30076 3.12031 8.27806 3.21445 8.22444C3.30858 8.17082 3.38349 8.08899 3.42862 7.9905C3.45863 7.85174 3.45165 7.70753 3.40837 7.57231C3.36509 7.4371 3.28703 7.31564 3.18202 7.2201C3.11182 7.14273 3.01696 7.09211 2.91361 7.07686C2.81027 7.06161 2.70483 7.08268 2.61528 7.13648L2.61528 7.13648Z" fill="#DDE7DC"/>
<path d="M5.15065 2.07245C5.30858 2.10288 5.45284 2.18249 5.56278 2.29988C5.67271 2.41727 5.7427 2.56644 5.76272 2.72602C5.74003 2.89669 5.66247 3.05537 5.54174 3.17812C5.421 3.30087 5.26364 3.38105 5.09336 3.40657C4.79966 3.4056 4.42423 3.11343 4.44071 2.883C4.44369 2.68564 4.51672 2.49577 4.64677 2.3473C4.77682 2.19882 4.95541 2.1014 5.15065 2.07245ZM5.10078 3.15963C5.1278 3.16523 5.15566 3.16541 5.18275 3.16014C5.20984 3.15487 5.23561 3.14427 5.25856 3.12894C5.28151 3.11362 5.30118 3.09388 5.31642 3.07087C5.33167 3.04787 5.34219 3.02207 5.34736 2.99496C5.37251 2.85708 5.37116 2.71568 5.3434 2.57831C5.31488 2.56143 5.28324 2.5505 5.25039 2.54617C5.21753 2.54185 5.18414 2.54422 5.15222 2.55314C5.08512 2.61483 5.0424 2.69855 5.03184 2.78909C5.04051 2.91484 5.06364 3.03917 5.10078 3.15963V3.15963Z" fill="#DDE7DC"/>
<path d="M3.94235 4.60732C4.02323 4.60711 4.10331 4.6233 4.17775 4.6549C4.25219 4.68651 4.31946 4.73287 4.37549 4.7912C4.43151 4.84952 4.47514 4.9186 4.50372 4.99425C4.53231 5.06991 4.54527 5.15057 4.54181 5.23137C4.52283 5.39179 4.45293 5.54191 4.34237 5.65968C4.23181 5.77746 4.08641 5.8567 3.92751 5.88577C3.76894 5.87275 3.62068 5.80198 3.51084 5.68688C3.40101 5.57178 3.33725 5.42037 3.33166 5.26137C3.32337 5.17711 3.33313 5.09205 3.36029 5.01186C3.38745 4.93167 3.43138 4.85818 3.48916 4.7963C3.54694 4.73442 3.61725 4.68555 3.69539 4.65297C3.77353 4.62038 3.85772 4.60482 3.94235 4.60732ZM3.96885 4.86786C3.98381 5.04807 3.99405 5.2289 4.01763 5.40798C4.02403 5.42991 4.03583 5.44989 4.05195 5.46608C4.06806 5.48227 4.08799 5.49415 4.10989 5.50065C4.1324 5.4973 4.15391 5.48909 4.17293 5.4766C4.19195 5.46411 4.20803 5.44763 4.22006 5.42831C4.36222 5.21598 4.30095 5.02798 3.96885 4.86786Z" fill="#DDE7DC"/>
<path d="M10.6515 17.2031C10.5776 17.2308 10.4995 17.2458 10.4207 17.2476C9.95024 17.1723 9.4828 17.0781 9.01211 17.0048C8.40836 16.9106 7.83739 16.5688 7.65972 16.0324C7.65434 15.9574 7.66456 15.882 7.68974 15.8111C7.74538 15.8526 7.79285 15.9041 7.82977 15.9629C8.03509 16.5194 8.5029 16.7008 9.02252 16.8048C9.25688 16.8518 9.49606 16.8742 9.73137 16.9169C10.0333 16.9718 10.3335 17.036 10.6345 17.0962L10.6515 17.2031Z" fill="#DDE7DC"/>
<path d="M8.98389 9.00016C9.0345 8.94728 9.09211 8.90156 9.1551 8.86427C9.52957 8.70717 9.90519 8.5521 10.2854 8.4095C10.4763 8.34025 10.6722 8.28523 10.8713 8.24487C10.9371 8.25145 11.0005 8.27335 11.0564 8.30883C11.0172 8.35645 10.9695 8.39636 10.9157 8.42652C10.4749 8.56372 10.0293 8.68602 9.59015 8.82822C9.45591 8.88845 9.32524 8.95635 9.1988 9.0316C9.13634 9.05095 9.07158 9.06189 9.00622 9.0641L8.98389 9.00016Z" fill="#DDE7DC"/>
<path d="M4.36131 10.565C4.3578 10.25 4.59609 9.9178 4.82057 9.91779C5.06103 9.91776 5.3507 10.2946 5.34703 10.4762C5.33112 10.6099 5.26688 10.7332 5.1664 10.8228C5.06591 10.9124 4.93613 10.9622 4.80149 10.9627C4.69187 10.9628 4.58613 10.9221 4.50479 10.8486C4.42345 10.7752 4.37231 10.6741 4.36131 10.565V10.565Z" fill="#DDE7DC"/>
<path d="M11.7295 10.6207H11.3882C11.5055 10.5067 11.6219 10.4361 11.7395 10.5562L11.7295 10.6207Z" fill="#DDE7DC"/>
<path d="M11.0814 11.7653L10.6551 11.7892C10.82 11.6206 10.9256 11.6131 11.0814 11.7653Z" fill="#DDE7DC"/>
</svg>
