<svg width="400" height="400" viewBox="0 0 400 400" fill="none" xmlns="http://www.w3.org/2000/svg">
<path d="M265.326 22.9909C259.11 17.848 252.833 20.8824 246.639 20.952C239.25 21.0352 234.087 26.4238 228.528 30.4329C224.379 33.5771 220.433 36.981 216.714 40.624C212.643 44.4304 208.71 48.3932 204.864 52.4288C199.315 58.2528 193.737 64.0632 188.471 70.1389C182.779 76.7054 177.345 83.5029 171.963 90.3283C168.237 95.0529 164.664 99.8974 161.245 104.862C154.829 113.106 149.086 121.852 144.071 131.015C137.932 144.071 128.917 156.025 127.629 171.221C126.89 179.951 124.611 209.719 126.337 215.381C131.792 233.273 137.283 251.213 144.092 268.613C148.949 281.028 156.068 292.546 161.932 304.583C164.217 309.273 178.291 327.984 181.819 332.472C187.366 339.531 191.505 347.686 198.674 353.482C199.83 354.605 200.917 355.795 201.93 357.047C206.395 361.661 210.622 366.55 215.429 370.778C218.571 374.009 222.397 376.496 226.625 378.056C230.854 379.616 235.378 380.21 239.867 379.794C249.041 378.691 254.486 373.893 253.24 365.188C252.31 358.695 251.879 352.095 250.464 345.712C245.049 322.366 237.996 299.431 229.358 277.077C226.165 268.564 222.665 260.167 219.462 251.658C216.779 244.529 214.587 237.207 211.706 230.163C207.653 220.252 202.982 210.594 198.939 200.679C197.674 198.3 197.008 195.647 196.999 192.952C196.99 190.257 197.638 187.6 198.887 185.211C202.221 179.578 205.333 173.81 208.782 168.25C212.667 161.986 216.954 155.971 220.824 149.698C225.678 141.827 230.257 133.788 235.004 125.851C243.107 112.304 251.704 99.0291 259.241 85.1761C265.911 71.5864 270.853 57.2145 273.951 42.3961C275.668 35.6224 270.67 27.4127 265.326 22.9909ZM220.555 44.4573L237.481 57.8035L236.913 58.5906L219.894 45.2992L220.555 44.4573ZM225.888 55.6766L233.008 61.8138L231.78 63.1122L225.888 55.6766ZM230.276 67.6143L224.484 70.1663C225.279 67.6831 225.805 66.0405 226.379 64.2487L230.276 67.6143ZM216.686 56.2787C218.288 57.3903 219.835 58.4636 221.757 59.7967L214.862 63.6691L216.686 56.2787ZM156.48 118.468C166.697 104.879 177.004 91.3567 187.569 77.422C189.334 78.9289 190.61 79.5655 191.206 80.5956C202.059 99.3283 196.066 113.831 179.725 124.053C176.604 126.005 171.812 125.428 167.769 125.718C165.08 125.852 162.384 125.755 159.711 125.429C154.469 124.9 153.37 122.605 156.48 118.468ZM147.837 268.848C149.948 268.049 152.129 267.451 154.352 267.062C158.35 266.803 162.378 266.828 166.386 266.959C169.577 267.217 172.672 268.179 175.448 269.773C178.224 271.368 180.614 273.556 182.445 276.183C184.277 278.809 185.505 281.807 186.042 284.963C186.579 288.12 186.412 291.355 185.552 294.439C185.053 297.325 184.328 300.167 183.384 302.939C182.363 305.436 180.708 307.623 178.583 309.286C176.459 310.948 173.938 312.028 171.268 312.42C163.7 298.346 156.009 284.045 147.837 268.848ZM232.045 328.557L232.988 330.098L208.657 344.951L207.694 343.504C215.811 338.522 223.928 333.539 232.045 328.557ZM214.331 328.294C221.103 330.68 222.971 329.254 224.472 321.498C226.687 321.898 228.864 322.292 231.04 322.686C227.598 325.06 224.185 327.476 220.703 329.789C218.958 330.947 217.085 331.914 214.718 333.288L214.331 328.294ZM203.944 340.071L204.937 335.134L209.566 336.991L203.944 340.071ZM207.094 350.699L221.409 342.483L221.974 343.208L207.91 352.047L207.094 350.699ZM248.568 364.172C249.308 372.542 243.22 377.308 234.791 375.787C229.677 374.985 224.835 372.952 220.682 369.863C216.529 366.773 213.189 362.721 210.95 358.054C210.552 357.272 211.528 355.045 212.473 354.444C218.92 350.342 225.548 346.525 232.08 342.554C235.697 340.354 239.241 338.032 244.007 335.012C245.702 345.486 247.738 354.776 248.568 364.172ZM231.186 322.581C231.607 320.792 232.655 319.213 234.141 318.131C235.626 317.049 237.45 316.536 239.282 316.684C236.013 319.065 233.594 320.827 231.186 322.581ZM246.653 99.7733C238.285 113.004 229.816 126.171 221.513 139.443C219.242 143.073 217.645 147.125 215.359 150.744C210.068 159.119 204.403 167.259 199.176 175.672C196.149 179.622 193.934 184.132 192.659 188.943C192.294 193.998 193.172 199.067 195.215 203.705C198.892 213.191 203.661 222.247 207.529 231.666C211.031 240.196 213.862 248.999 217.122 257.631C219.624 264.253 222.52 270.728 224.908 277.388C228.551 287.546 231.923 297.801 235.351 308.036C235.491 308.909 235.502 309.799 235.384 310.677C230.055 309.315 229.265 309.921 228.096 315.821C221.76 311.674 221.681 311.734 219.162 322.001C217.117 321.342 213.667 319.638 213.251 320.197C211.489 322.925 210.002 325.821 208.811 328.842C207.605 328.449 205.164 326.774 203.393 327.311C201.439 327.904 200.101 330.525 198.18 332.603L189.424 335.217C187.139 332.089 177.636 318.504 176.775 317.097C179.069 315.812 181.228 314.301 183.223 312.588C184.003 311.741 184.682 310.807 185.249 309.805C185.437 309.635 185.622 309.46 185.8 309.272C187.242 307.61 188.293 305.646 188.875 303.524C189.883 300.426 190.708 297.271 191.346 294.076C191.489 293.425 191.584 292.764 191.63 292.099C191.719 291.309 191.769 290.515 191.778 289.72C192.656 281.194 186.279 271.034 179.813 266L179.786 265.968C178.15 264.326 176.134 263.113 173.916 262.436C170.776 260.56 153.591 262.223 146.948 262.223C143.48 252.837 143.535 253.136 142.365 249.821C139.635 242.168 136.57 234.606 134.374 226.801C131.561 218.452 129.775 209.792 129.056 201.012C128.43 187.105 130.392 173.203 134.84 160.012C137.403 153.543 140.352 147.234 143.672 141.119C145.249 137.872 147.159 134.781 148.629 131.491C149.78 128.915 151.053 128.547 153.876 129.239C160.51 131.405 167.557 131.996 174.459 130.966C175.049 130.834 175.631 130.663 176.199 130.454C176.403 130.421 176.602 130.358 176.789 130.269C176.958 130.186 177.125 130.106 177.293 130.024C177.897 129.764 178.521 129.46 179.156 129.127C184.61 126.994 189.528 123.686 193.561 119.44C195.383 117.325 196.947 115.001 198.22 112.517C198.734 111.815 199.098 111.014 199.288 110.165C199.897 108.644 200.383 107.076 200.742 105.477C203.579 96.6227 200.03 87.4498 195.893 78.3507C194.822 76.1289 193.929 73.8256 193.223 71.4627C195.347 73.467 205.103 58.9259 211.019 58.7971C211.021 61.7954 206.868 65.1936 210.53 67.0691C213.037 68.3533 216.884 67.0211 220.32 66.849C220.261 67.0756 219.998 68.3882 219.584 69.6515C218.326 73.4931 220.173 75.5945 224.218 74.8029C225.132 74.6241 225.985 74.1607 226.888 73.9043C227.719 73.6683 228.578 73.5349 229.798 73.2775C228.89 75.7131 228.436 78.2946 228.46 80.8939C229.387 84.8477 232.519 82.3171 235.238 82.0299L234.075 86.3703H240.216C240.396 89.2006 240.247 92.013 244.431 92.2005C246.691 92.3014 248.035 97.5876 246.653 99.7732V99.7733ZM241.638 78.8101C244.102 76.9889 251.207 82.1871 252.505 88.6938C248.949 85.46 245.394 82.2261 241.638 78.81V78.8101ZM264.786 58.9351C263.442 62.5431 261.934 66.0901 259.941 71.0594C251.444 63.6732 243.64 56.864 235.804 50.091C232.664 47.3761 229.506 44.676 226.258 42.0919C224.124 40.3941 223.909 39.2144 226.421 37.5633C230.871 34.638 234.847 30.8831 239.524 28.4349C243.269 26.4638 247.431 25.4192 251.663 25.3887C255.895 25.3581 260.072 26.3425 263.845 28.2593C264.729 28.847 265.484 29.6087 266.063 30.4979C266.643 31.387 267.035 32.385 267.216 33.4308C268.742 41.9949 267.902 50.8131 264.786 58.935V58.9351Z" fill="#ED6B6A"/>
<path d="M196.824 285.336C198.216 285.343 199.618 283.33 200.476 282.655C200.254 278.983 199.856 276.456 196.687 276.366C194.209 276.295 192.817 277.762 192.8 280.412C192.782 283.241 194.186 285.323 196.824 285.336Z" fill="#ED6B6A"/>
<path d="M187.766 263.394C186.547 263.643 184.723 265.122 184.677 266.115C184.547 268.903 186.205 271.227 189.193 270.819C190.553 270.633 191.639 268.449 192.382 267.665C191.966 263.868 190.037 262.931 187.766 263.394Z" fill="#ED6B6A"/>
<path d="M164.265 252.049C163.046 252.297 161.221 253.776 161.175 254.769C161.045 257.557 162.703 259.881 165.691 259.473C167.051 259.288 168.138 257.103 168.88 256.319C168.465 252.522 166.536 251.585 164.265 252.049Z" fill="#ED6B6A"/>
<path d="M151.298 252.049C150.08 252.297 148.255 253.776 148.209 254.769C148.079 257.557 149.737 259.881 152.725 259.473C154.085 259.288 155.172 257.103 155.914 256.319C155.498 252.522 153.57 251.585 151.298 252.049Z" fill="#ED6B6A"/>
<path d="M196.68 290.947C195.462 291.196 193.637 292.675 193.591 293.668C193.461 296.456 195.119 298.78 198.107 298.372C199.467 298.186 200.554 296.002 201.296 295.218C200.881 291.421 198.952 290.484 196.68 290.947Z" fill="#ED6B6A"/>
<path d="M188.729 307.445C188.599 310.233 190.257 312.557 193.245 312.149C194.605 311.964 195.692 309.779 196.434 308.995C196.018 305.198 194.09 304.261 191.818 304.724C190.6 304.973 188.775 306.452 188.729 307.445Z" fill="#ED6B6A"/>
<path d="M184.524 316.07C183.306 316.319 181.481 317.797 181.435 318.791C181.305 321.579 182.963 323.903 185.951 323.495C187.311 323.309 188.398 321.124 189.14 320.341C188.725 316.543 186.796 315.607 184.524 316.07Z" fill="#ED6B6A"/>
<path d="M177.231 254.479C176.012 254.728 174.188 256.207 174.141 257.2C174.012 259.988 175.669 262.312 178.657 261.904C180.017 261.718 181.104 259.534 181.847 258.75C181.431 254.953 179.502 254.016 177.231 254.479Z" fill="#ED6B6A"/>
<path d="M193.439 125.626C192.22 125.875 190.396 127.353 190.349 128.347C190.22 131.135 191.877 133.459 194.865 133.051C196.225 132.865 197.312 130.681 198.055 129.897C197.639 126.099 195.71 125.163 193.439 125.626Z" fill="#ED6B6A"/>
<path d="M152.919 132.92C151.7 133.168 149.876 134.647 149.829 135.641C149.7 138.429 151.357 140.753 154.345 140.345C155.705 140.159 156.792 137.974 157.535 137.19C157.119 133.393 155.19 132.456 152.919 132.92Z" fill="#ED6B6A"/>
<path d="M166.696 133.73C165.477 133.979 163.653 135.457 163.606 136.451C163.476 139.239 165.134 141.563 168.122 141.155C169.482 140.969 170.569 138.785 171.311 138.001C170.896 134.203 168.967 133.267 166.696 133.73Z" fill="#ED6B6A"/>
<path d="M179.662 132.11C178.443 132.358 176.619 133.837 176.573 134.83C176.443 137.618 178.101 139.942 181.089 139.534C182.449 139.349 183.535 137.164 184.278 136.38C183.862 132.583 181.933 131.646 179.662 132.11Z" fill="#ED6B6A"/>
<path d="M202.353 112.66C201.135 112.909 199.31 114.387 199.264 115.381C199.134 118.169 200.792 120.493 203.78 120.085C205.14 119.899 206.227 117.714 206.969 116.931C206.554 113.133 204.625 112.197 202.353 112.66Z" fill="#ED6B6A"/>
<path d="M206.405 98.0725C205.187 98.3211 203.362 99.7997 203.316 100.793C203.186 103.581 204.844 105.905 207.832 105.497C209.192 105.312 210.279 103.127 211.021 102.343C210.605 98.5458 208.677 97.6092 206.405 98.0725Z" fill="#ED6B6A"/>
<path d="M202.505 87.8272C202.375 90.6152 204.033 92.9392 207.021 92.5312C208.381 92.3455 209.468 90.1606 210.21 89.377C209.795 85.5795 207.866 84.6429 205.594 85.1061C204.376 85.3549 202.551 86.8336 202.505 87.8272Z" fill="#ED6B6A"/>
<path d="M203.728 76.4107C203.312 72.6132 201.383 71.6766 199.112 72.1398C197.893 72.3885 196.068 73.8671 196.022 74.8608C195.892 77.6488 197.55 79.9728 200.538 79.5648C201.898 79.3792 202.985 77.1943 203.728 76.4107Z" fill="#ED6B6A"/>
</svg>
