<svg width="400" height="217" viewBox="0 0 400 217" fill="none" xmlns="http://www.w3.org/2000/svg">
<path d="M40.3233 122.34C34.0531 121.887 28.1004 121.604 22.2025 120.946C20.228 120.78 18.3646 119.962 16.9055 118.621C16.3027 117.971 17.2811 115.382 18.0897 113.968C26.9121 98.5375 50.2992 67.7547 50.4656 65.7219C48.3471 66.7254 46.2417 67.7597 44.1079 68.7276C30.6199 74.8454 1.97849 91.2064 0 91.2473C0.330421 89.4617 0.024304 86.9258 1.0942 86.0117C8.24986 79.8983 15.5794 73.9914 23.0829 68.2909C29.3997 63.4724 35.8459 58.7939 42.4859 54.4477C48.1582 50.7351 54.1095 47.432 60.0758 44.2161C70.2468 38.7342 80.397 33.1765 90.8044 28.1991C98.1862 24.6687 153.183 1.73821 156.585 0.0074654C157.446 -0.430819 335.452 18.5705 343.642 19.7612C346.038 20.1095 362.749 28.8548 368.937 31.3758C378.501 35.2719 388.012 39.2877 397.521 43.307C400.406 44.5265 400.72 46.6481 398.738 49.0195C397.053 51.296 395.085 53.3482 392.88 55.1262C381.249 63.3327 369.526 71.4053 357.711 79.344C356.438 80.1403 355.392 81.251 354.673 82.5691C353.953 83.8871 353.586 85.3681 353.605 86.8694C353.375 98.0235 353.311 109.175 353.14 120.328C353.042 126.735 352.819 133.145 352.736 139.551C352.727 141.741 352.836 143.929 353.063 146.106C353.647 152.211 352.345 154.179 346.893 157.082C339.836 160.841 333.033 165.097 325.991 168.888C317.215 173.614 308.314 178.096 299.455 182.659C294.233 185.349 288.999 188.015 283.752 190.655C275.167 194.982 266.484 199.117 258.007 203.653C251.896 206.923 246.121 210.84 240.07 214.234C234.516 216.592 228.411 217.342 222.452 216.398C211.392 216.079 200.313 215.939 189.283 215.283C175.624 214.47 161.976 213.438 148.381 212.069C137.001 210.922 125.72 209.058 114.368 207.687C103.626 206.389 92.8099 205.544 82.098 204.082C72.1176 202.72 62.239 200.769 52.2996 199.159C48.6065 198.56 44.1872 199.402 42.5189 194.859C41.3008 192.084 40.5724 189.119 40.3658 186.096C40.391 173.487 40.9841 160.86 41.0482 148.249C41.0912 139.784 40.5947 131.334 40.3233 122.34ZM236.527 89.0037C236.335 88.8352 236.144 88.6661 235.954 88.4964C225.92 87.4984 173.351 82.1399 165.452 81.0425C157.083 79.8798 148.648 79.0941 140.289 77.8823C134.743 77.0782 59.2174 66.3871 57.0103 66.5508L56.765 68.0313C60.5178 68.8111 65.3249 68.1226 66.0257 73.8566C61.6526 72.4138 59.7327 75.094 57.9407 78.0594C57.4601 79.0596 56.8078 79.9678 56.0134 80.7426C53.3871 82.7853 50.624 84.6496 47.5259 86.8596L53.7578 90.0248L53.3808 91.1696L40.3376 90.8765L36.2653 96.6999L45.6259 100.775C42.9222 103.11 40.6337 104.826 38.674 106.856C36.8987 108.696 35.5694 110.955 33.8771 112.885C32.708 114.218 31.5748 115.667 29.7078 113.256C28.9505 112.278 26.5363 112.601 24.876 112.331L24.4556 114.486C28.9631 115.35 33.4291 116.494 37.988 117.011C44.9121 117.797 51.9403 117.894 58.8535 118.736C71.8923 120.323 84.8417 122.504 97.9009 123.937C112.056 125.489 126.294 126.469 140.495 127.703C141.09 127.755 141.681 127.841 142.273 127.92C154.998 129.63 167.715 131.395 180.452 133.033C190.817 134.367 201.184 135.728 211.594 136.745C221.216 137.684 230.891 138.262 240.563 138.756C241.547 138.806 243.689 136.968 243.581 136.372C242.169 128.559 240.496 120.799 238.725 113.069C238.509 112.653 238.192 112.298 237.802 112.037C237.413 111.777 236.964 111.618 236.498 111.577C232.635 111.625 228.786 112.031 224.999 112.791C221.183 113.57 220.22 111.456 217.578 110.783C221.39 108.577 221.8 107.333 221.152 103.941C220.447 100.247 217.811 101.11 215.325 101.094C213.353 100.942 211.392 100.668 209.454 100.272C213.687 96.55 220.112 100.256 221.509 93.155L224.27 96.4429L238.001 96.7513L236.527 89.0037ZM237.329 174.348L230.29 173.174L230.179 171.736C231.395 171.237 232.613 170.744 233.825 170.238C235.035 169.732 236.24 169.213 237.447 168.699C236.136 168.123 234.788 167.636 233.411 167.243C232.806 167.104 232.03 167.616 230.463 168.103C230.296 164.839 230.052 161.966 230.027 159.084C230.003 156.227 229.99 153.679 225.983 153.77C224.82 153.797 223.672 152.644 221.681 151.589C224.365 150.326 227.205 149.425 230.127 148.909C232.677 149.256 235.161 149.986 237.495 151.071C237.538 146.96 237.555 146.846 234.628 146.497C230.048 145.951 209.142 141.039 206.111 140.595C197.335 139.308 188.47 138.52 179.652 137.456C169.775 136.264 159.938 134.789 150.035 133.795C139.382 132.726 128.638 132.311 117.995 131.181C102.607 129.546 87.2711 127.541 71.9185 125.66C66.7665 125.029 61.6519 124.123 56.4803 123.667C53.1882 123.526 49.891 123.55 46.6015 123.741L46.6446 125.036L61.2088 127.059L61.0048 128.635C58.5463 128.978 56.0883 129.326 53.6291 129.662C51.3608 129.972 49.0913 130.27 46.8222 130.573L47.1221 131.776C49.2106 131.253 51.4143 131.448 53.3784 132.33C55.3425 133.212 56.9529 134.729 57.9501 136.637C57.2172 136.712 56.5055 136.927 55.8533 137.27C54.5082 138.434 53.3144 139.774 52.0608 141.044C53.1084 142.058 54.263 142.956 55.5044 143.721C57.1789 144.407 58.9019 144.969 60.6591 145.402L60.4391 147.101C57.761 147.041 55.0814 146.832 52.4051 146.951C46.5906 147.21 46.5877 147.279 47.2454 153.141C47.3473 153.473 47.4939 153.79 47.6811 154.083L53.6412 155.478L55.0183 151.959L60.7156 157.886L54.1686 165.405L54.0133 159.732L46.8005 159.57L47.1706 165.983L47.8853 165.902L49.4098 161.62L51.1476 160.09C50.4358 169.026 57.7771 166.583 61.7156 168.948L61.3056 170.219L51.683 170.686C52.0783 173.936 49.7597 177.626 54.5033 180.063C54.6606 178.437 54.9749 176.83 55.4418 175.264C56.1128 174.029 56.9178 172.872 57.8424 171.814C58.3918 172.98 59.5448 174.218 59.3807 175.302C58.8238 178.978 60.3916 180.086 63.773 180.122C65.0756 180.404 66.3131 180.93 67.4202 181.672L66.9581 183.091C64.9474 182.806 62.9069 182.801 60.8949 183.076C58.9425 183.891 57.1054 184.958 55.4307 186.25L54.1786 182.961L46.7783 183.804C47.1843 193.21 56.6431 188.974 62.0553 193.241C59.2652 193.457 57.7294 193.642 56.1954 193.676C54.4691 193.715 52.7445 193.616 51.0192 193.578C107.373 202.445 163.647 211.765 221.355 209.948C219.468 209.328 217.508 208.958 215.525 208.846C213.658 208.276 211.85 207.528 210.125 206.613L210.791 204.711L233.405 207.46L233.493 209.027L225.831 210.488L226.092 211.811L237.137 210.136L234.989 204.556C229.772 202.688 223.577 206.161 219.768 201.391L220.115 199.78L227.076 200.463L227.942 185.382C229.746 185.564 231.562 185.576 233.368 185.418C234.575 184.98 235.702 184.343 236.699 183.533C235.677 182.851 234.721 181.695 233.621 181.582C231.131 181.328 228.554 181.62 227.525 178.785C229.737 174.926 236.075 180.701 237.329 174.348H237.329ZM159.045 75.2235C161.58 75.9233 164.151 76.4859 166.748 76.9088C177.575 78.1333 188.422 79.2303 199.269 80.3168C208.412 81.2327 217.558 82.1293 226.716 82.9226C234.272 83.5772 266.475 64.9739 273.866 60.6347C285.146 54.013 296.492 47.5089 307.766 40.8765C316.515 35.7292 325.196 30.462 333.907 25.2481C331.392 23.7909 328.579 22.9237 325.68 22.7118C319.476 22.3484 313.22 22.5023 307.032 22.0265C294.931 21.0963 282.858 19.9107 270.781 18.7717C258.52 17.6153 246.283 16.2666 234.009 15.229C223.982 14.3814 213.862 14.2275 203.882 13.1022C194.473 12.0412 185.209 10.0137 175.844 8.61376C171.878 8.06859 167.881 7.78018 163.878 7.75032C162.952 7.73289 161.96 8.94852 160.998 9.59677C161.723 10.3425 162.565 10.9639 163.492 11.4363C167.211 12.5959 170.997 13.5604 174.759 14.5972L174.706 16.1848L169.64 17.0711C167.463 23.6621 176.128 20.081 176.498 24.9496C175.177 25.1017 173.84 25.0493 172.535 24.7944C169.671 23.7242 168.513 25.5022 168.053 27.6088C167.435 30.4437 167.297 33.3061 171.314 33.9987C172.335 34.1746 173.128 35.4504 174.957 37.0208C171.138 36.493 168.817 36.1493 166.488 35.8564C164.233 35.5728 161.969 35.3413 159.73 35.0892C158.518 42.7913 158.637 43.022 165.329 44.6849C168.327 45.4301 171.401 45.9147 174.38 46.7187C175.493 47.1759 176.541 47.7769 177.498 48.5064L176.991 49.7891L159.643 47.8842L159.238 54.9345L163.359 55.0271L165.488 50.7354L171.536 57.8352L165.849 66.5089C165.349 65.345 164.478 64.2873 164.528 63.2412C164.648 60.7087 164.396 58.501 161.26 58.9144C157.564 59.4014 158.849 62.577 158.8 64.6651C158.783 65.4384 160.485 66.2519 161.481 66.9363C162.46 67.6088 163.539 68.1408 164.574 68.7344C161.257 70.1696 157.837 70.3336 159.045 75.2235ZM245.115 204.254C247.27 203.396 248.832 202.908 250.277 202.178C261.313 196.6 272.436 191.188 283.321 185.318C301.371 175.585 319.275 165.57 337.194 155.586C338.381 154.924 339.943 153.538 340.011 152.452C340.898 147.624 340.835 142.67 339.825 137.866C337.914 132.696 340.891 131.54 343.878 129.724C346.252 128.281 348.155 126.864 346.806 123.713L339.622 124.647C343.038 120.205 350.342 119.322 347.12 112.305L336.241 114.646C339.587 109.668 346.744 107.994 343.365 101.285L336.093 103.791L335.505 102.321C337.676 100.805 339.754 99.1593 341.727 97.3937C342.201 96.9105 342.565 96.3303 342.794 95.6932C343.023 95.056 343.112 94.3768 343.054 93.7022C342.35 92.0357 341.401 90.4834 340.24 89.0964C338.283 90.434 336.051 91.9496 333.829 93.4798C323.129 100.848 312.254 107.974 301.787 115.666C292.761 122.298 284.191 129.564 275.438 136.572C269.437 141.376 269.337 141.297 265.979 134.672C262.967 128.728 259.7 122.919 256.546 117.05C256.298 120.686 256.316 124.336 256.599 127.969C256.652 131.286 256.269 134.626 256.109 137.419L249.827 135.285L248.723 137.406L256.531 143.531C253.165 147.339 244.082 142.686 244.623 151.325L249.514 153.228C248.307 154.014 247.194 154.936 246.198 155.977C245.427 157.219 244.799 158.543 244.324 159.926C245.474 160.421 246.656 160.839 247.861 161.177C249.505 161.535 251.205 161.667 253.735 162.012C247.937 167.826 250.088 173.698 249.419 179.047L255.758 180.411C251.818 185.084 244.047 182.86 242.025 189.743C247.052 191.151 251.472 186.273 256.394 190.763C253.867 191.304 251.373 191.988 248.924 192.812C246.715 193.705 244.642 194.899 242.76 196.36C242.537 196.535 244.253 199.015 244.827 200.526C245.071 201.753 245.167 203.005 245.115 204.254ZM271.167 132.237L272.407 133.126C276.158 130.357 280.027 127.734 283.633 124.785C288.877 120.494 293.756 115.739 299.111 111.603C305.494 106.673 312.16 102.106 318.806 97.5337C325.508 92.9234 332.233 88.3315 339.129 84.0307C352.205 75.875 365.541 68.1402 378.494 59.7924C383.024 56.4366 387.311 52.7645 391.323 48.8035L390.218 47.4645C387.654 49.5725 385.156 51.7703 382.498 53.7492C381.197 54.6598 379.755 55.35 378.23 55.792C377.936 55.8848 376.754 54.5592 376.817 53.9436C377.348 48.7209 375.084 50.246 372.462 52.1199C368.779 54.7513 365.033 57.2922 361.249 59.9174C360.923 59.1426 360.643 58.7035 360.72 58.6288C366.532 52.9642 372.373 47.3284 378.479 41.4311L370.654 38.5928L366.665 43.8884L369.653 48.0919C368.468 48.3734 367.879 48.705 367.642 48.5415C362.306 44.8657 358.499 48.418 354.626 51.6594C352.438 53.4909 350.264 55.3404 348.084 57.1818L346.956 55.8863L358.759 44.1175L351.269 36.7503L348.91 39.2138L353.319 44.8344L352.311 45.822C350.744 44.2564 348.905 42.9883 346.885 42.0795C344.572 42.0623 342.276 42.4705 340.111 43.2836L342.697 39.1277C340.848 37.9261 339.134 35.9613 337.2 35.7916C335.217 35.6176 333.018 37.1992 330.913 38.0125L330.461 37.2519L334.24 32.2324L333.228 31.4285C304.196 48.9599 273.994 64.5287 246.366 84.4151L246.96 85.5173L255.565 81.3069L255.574 89.0367L263.874 85.0769C261.721 88.3465 258.999 90.6874 259.09 92.8106C259.196 95.281 261.765 97.561 263.265 99.9237L264.261 99.4914L264.799 95.136L273.747 93.4363C268.801 99.2543 268.796 99.6851 273.593 105.357L279.898 101.064L280.793 102.124C279.884 103.163 279.027 104.254 278.058 105.233C275.282 108.039 272.45 110.788 269.659 113.579C263.194 120.046 263.166 120.681 269.564 128.392L274.02 121.553L282.365 117.774L283.028 118.31L271.167 132.237ZM142.669 18.9247L141.606 17.0908L57.6168 59.2632L57.8798 60.8541C58.9907 61.3163 60.1445 61.6681 61.3243 61.9045C72.5826 63.0881 83.9334 63.7525 95.0979 65.4299C112.448 68.0367 129.667 71.3468 146.962 74.2599C148.461 74.3057 149.96 74.1522 151.419 73.8034L151.383 72.1921C150.186 72.0264 148.965 71.9473 147.797 71.6728C146.352 71.3329 144.95 70.8308 143.529 70.3988C144.815 69.4632 146.18 68.6409 147.609 67.9412C149.634 67.1412 152.491 67.538 152.432 63.5353L142.929 66.79C142.505 61.8327 146.28 61.8775 148.573 60.3451C150.24 59.2307 152.714 57.7399 152.899 56.2452C153.728 49.5575 153.966 42.8077 154.16 36.0818C154.196 34.8393 153.314 32.771 152.396 32.5039C151.137 32.2942 149.846 32.404 148.64 32.8232C147.435 33.2425 146.354 33.9577 145.497 34.9034C144.64 35.8491 144.034 36.9949 143.735 38.2356C143.436 39.4764 143.453 40.7724 143.785 42.0047C149.957 39.7956 149.957 39.7956 152.409 41.4167C150.67 44.1226 144.985 44.1962 146.664 49.0555L153.245 51.0583L142.769 58.3557C137.978 55.3469 144.038 50.8805 142.424 47.0213L136.215 47.8435C137.811 45.8314 138.975 44.903 139.366 43.7401C139.902 42.1519 140.067 40.4617 139.847 38.7998C139.772 38.2986 137.839 38.1877 136.8 37.7925C136.093 37.472 135.409 37.1027 134.753 36.6873C135.279 36.0292 135.712 34.9354 136.345 34.7804C142.559 33.2602 140.993 28.1859 142.116 24.4342L134.796 25.9471L134.384 24.3249L142.669 18.9247ZM104.677 29.8579C82.2925 38.0195 61.066 49.0618 41.5334 62.7063C52.0517 57.3315 62.3471 51.5189 72.7996 46.0189C83.3444 40.4704 94.0451 35.2321 104.677 29.8579H104.677ZM244.117 107.829L249.443 115.315C241.774 120.618 252.675 120.919 251.046 124.757C248.039 125.337 246.949 127.152 248.335 130.158C249.717 133.154 251.696 132.026 253.952 130.858L249.577 104.868L244.117 107.829ZM262.086 115.705C264.002 114.009 265.651 112.55 267.3 111.09C271.51 107.363 270.961 104.311 265.428 101.921L265.901 108.351L262.111 105.918C256.246 109.333 259.823 112.278 262.086 115.705H262.086ZM154.855 20.1601C146.257 20.3621 144.638 22.0466 145.94 29.4378C154.071 27.8187 155.207 26.6361 154.855 20.1601ZM231.966 108.087L238.675 106.859L237.411 99.6002L232.378 100.917L231.966 108.087ZM255.1 94.4967C252.557 97.8461 252.757 102.837 255.463 104.378C256.504 104.972 258.7 103.626 260.988 102.992L255.1 94.4967ZM350.931 32.0109C345.294 28.3365 344.584 28.4484 340.862 33.4983L345.712 37.1634L350.931 32.0109ZM366.323 36.6424L355.491 33.7595L354.645 35.3429C356.87 37.2703 359.242 39.022 361.738 40.5821C362.198 40.836 364.099 38.5991 366.323 36.6424ZM36.506 102.263L35.653 100.745C34.0888 101.349 32.6182 102.172 31.285 103.189C29.9473 104.83 28.7765 106.6 27.7901 108.474L32.1355 109.822L36.506 102.263ZM164.994 31.1358C165.991 23.9789 165.645 23.5523 160.262 25.0375C159.087 29.0098 159.626 31.7309 164.994 31.1358ZM227.466 109.193L228.695 108.124C228.658 106.112 228.39 104.11 227.894 102.159C227.647 101.475 225.68 101.459 224.497 101.138C224.308 103.134 224.342 105.145 224.6 107.133C224.802 108.016 226.465 108.518 227.466 109.193ZM146.534 15.4738L148.116 17.5543L155.483 11.5568L154.389 10.0908L146.534 15.4738ZM387.371 45.1973C384.982 44.0497 379.626 46.1439 379.28 47.9286C379.205 48.3145 379.32 49.0369 379.527 49.1046C380.137 49.3892 380.83 49.4415 381.476 49.2515C383.36 48.1031 385.132 46.7637 387.371 45.1973ZM164.141 20.7369L165.943 19.07C164.917 17.7988 163.817 16.5895 162.648 15.4485C161.872 16.0168 161.135 16.6381 160.445 17.3078L164.141 20.7369ZM237.142 199.057L234.156 196.041C233.361 196.898 231.819 197.913 231.939 198.575C232.14 199.685 233.398 200.57 234.211 201.549L237.142 199.057ZM247.201 169.287L245.283 166.539C244.693 167.38 243.633 168.237 243.631 169.059C243.628 170.101 244.486 171.115 244.972 172.141L247.201 169.287ZM346.073 138.899L347.003 133.201C342.891 134.8 342.731 135.384 346.073 138.899V138.899ZM343.064 150.871L344.325 150.76C344.464 148.603 347.687 146.018 342.965 143.479L343.064 150.871Z" fill="#41B37E"/>
</svg>
