<svg width="400" height="400" viewBox="0 0 400 400" fill="none" xmlns="http://www.w3.org/2000/svg">
<path d="M235.16 68.5388C242.962 65.7737 244.653 71.5304 246.616 76.2815C247.129 77.5223 245.884 80.8513 244.915 81.0762C237.263 82.8501 235.997 89.8978 234.553 95.3202C232.33 103.669 227.989 153.925 226.759 163.314C225.25 174.827 224.865 186.519 224.292 198.154C223.884 206.44 224.691 214.879 223.496 223.009C222.376 227.017 219.749 230.436 216.165 232.551C207.377 238.016 196.956 238.311 186.895 239.422C180.583 240.12 152.028 244.357 145.224 244.025C127.42 243.157 109.511 243.073 91.8606 240.766C79.0501 239.091 66.5822 234.38 53.9691 230.992C50.7777 230.135 49.8032 228.15 49.5873 224.722C48.3396 204.904 46.6359 185.108 45.2817 165.295C44.9212 160.02 45.283 154.711 45.249 149.417C45.1638 136.215 45.8909 122.944 44.5967 109.838C43.8907 102.69 39.7381 95.8224 37.1312 88.831C36.1645 85.3502 34.8472 81.9765 33.1995 78.7616C30.1668 73.9683 33.4944 70.0151 34.0657 65.7666C34.1679 65.007 37.4804 64.6959 39.3295 64.2506C41.1261 63.8179 44.2271 63.9573 44.5615 63.0252C48.4586 52.1562 58.3003 49.5441 67.6191 47.1129C77.4531 44.6186 87.4783 42.9509 97.5901 42.1271C110.901 40.8991 124.267 40.354 137.634 40.4941C151.581 40.7077 165.528 42.2727 179.48 43.123C184.414 43.4237 189.364 43.4091 194.305 43.4507C203.557 43.5014 212.697 45.483 221.139 49.2687C229.259 52.8866 233.125 59.4897 235.16 68.5388ZM66.8621 76.0711C74.1926 77.6631 81.0248 82.8866 89.6705 79.6343L66.7981 76.1399L51.0748 69.2132C52.1821 76.8107 54.0857 78.1549 59.6675 77.0011C62.0251 76.5139 64.4597 76.3719 66.8621 76.0711ZM205.202 134.182C192.81 146.338 181.136 156.914 170.529 168.472C162.532 177.259 151.832 183.126 140.124 185.143C136.381 186.178 132.438 186.258 128.656 185.375C120.584 182.816 112.858 179.273 105.652 174.827C91.363 165.326 78.8425 153.404 68.6538 139.598C62.7418 131.538 56.8353 123.474 50.9343 115.406L48.8037 115.889C50.3757 140.743 51.996 165.595 53.4965 190.453C54.1235 200.84 54.24 211.258 55.2038 221.615C55.5362 222.867 56.1609 224.022 57.0266 224.985C57.8923 225.948 58.9743 226.692 60.1835 227.155C72.2555 230.163 84.475 232.532 96.6313 235.183C112.619 238.1 128.911 238.983 145.12 237.812C148.994 237.671 152.917 238.041 156.751 237.634C170.184 236.208 183.548 234.099 197.015 233.101C209.759 232.157 217.738 225.181 218.818 212.535C218.897 211.608 219.332 210.704 219.333 209.784C219.349 198.909 219.314 188.032 219.293 177.238C211.568 177.922 209.629 176.858 208.256 168.017C206.933 159.496 206.655 150.832 205.915 142.231C205.726 140.035 205.527 137.84 205.202 134.182ZM169.136 108.45C168.614 111.393 168.296 113.932 167.701 116.4C165.789 124.336 164.105 132.424 154.766 135.278C152.904 136.024 150.829 136.035 148.96 135.31C147.09 134.584 145.566 133.176 144.695 131.369C141.733 126.932 143.342 121.247 139.016 116.901C136.569 114.444 137.25 108.987 136.252 104.943C135.113 102.076 133.219 99.5723 130.77 97.6968C128.322 95.8213 125.411 94.6446 122.347 94.292C117.406 93.5978 112.534 92.4779 107.786 90.9449C100.353 88.8987 93.8304 83.4175 85.2253 85.6682C81.8649 85.9195 78.4879 85.5042 75.2884 84.4462C71.267 83.7342 67.3025 82.5269 63.2633 82.0993C58.0359 81.5462 52.759 81.5516 47.059 81.2966C47.0997 85.337 47.4286 89.3694 48.043 93.3631C48.8932 98.7531 50.5283 103.99 52.8962 108.906C56.1428 114.819 61.0113 119.835 64.8515 125.459C73.0341 137.53 82.5361 148.65 93.1815 158.616C102.67 167.367 113.809 174.137 125.946 178.529C131.77 180.422 138.016 180.594 143.936 179.025C154.426 175.955 163.812 169.933 170.974 161.676C180.854 151.158 190.984 140.875 201.075 130.557C205.943 125.579 206.435 122.38 201.844 116.849C198.572 112.907 194.58 109.559 190.533 105.576C188.232 106.601 186.066 107.906 184.085 109.463C177.238 116.288 175.035 116.322 169.136 108.45ZM227.178 65.2231C223.664 63.825 221.37 62.8963 219.063 61.9981C214.856 59.8236 210.403 58.1622 205.799 57.0496C190.801 55.2133 175.737 53.6609 160.67 52.9343C148.55 52.4346 136.412 52.5953 124.31 53.4155C110.941 54.092 97.617 55.4652 84.3914 57.5294C75.7535 59.5134 67.2601 62.0806 58.9695 65.2134L59.2647 67.1138C62.6235 68.7407 66.1241 70.0572 69.7226 71.0468C78.7958 72.7234 87.9361 74.1655 97.1003 75.0991C112.908 76.7095 128.741 78.2383 144.589 79.0705C154.504 79.4462 164.433 79.2463 174.325 78.4718C189.709 77.4896 205.166 76.5131 219.167 69.1853C221.644 67.8895 224.178 66.7029 227.178 65.2231ZM98.1146 80.4868L97.7873 81.4551C102.375 83.2919 107.156 84.6042 112.039 85.3671C117.437 85.5605 122.729 86.9194 127.553 89.3505C132.377 91.7816 136.617 95.2274 139.984 99.4515C140.998 100.579 141.774 101.899 142.266 103.333C144.469 110.708 146.5 118.131 148.606 125.534C148.8 126.481 149.255 127.354 149.919 128.056C150.583 128.758 151.431 129.261 152.365 129.507C153.3 129.752 154.285 129.732 155.209 129.448C156.133 129.163 156.959 128.627 157.593 127.898C159.328 125.699 160.522 123.124 161.079 120.379C162.058 115.752 162.054 110.894 163.122 106.297C163.499 105.401 164.075 104.603 164.805 103.962C165.536 103.321 166.403 102.854 167.34 102.597C171.677 101.546 175.155 103.059 176.48 109.04C182.186 102.635 187.097 98.54 196.338 101.949C205.14 105.196 205.836 112.759 209.779 119.24C223.046 106.017 233.665 92.413 226.938 73.1792C216.046 75.8569 205.155 79.1375 194.009 81.099C183.52 83.1934 172.848 84.2414 162.151 84.2276C140.8 83.6839 119.459 81.8112 98.1146 80.4868ZM221.718 160.609C222.51 160.405 222.882 158.156 223.191 156.791C224.018 153.129 224.845 149.457 225.403 145.744C225.758 142.994 225.941 140.225 225.953 137.453C226.062 133.016 225.941 128.569 226.105 124.136C226.311 118.579 226.707 113.033 227.061 106.767C222.675 111.721 218.57 116.919 214.767 122.335C212.167 126.104 210.61 130.495 210.254 135.06C210.19 144.257 211.638 153.484 212.309 162.708C212.843 170.048 215.865 162.12 221.718 160.609ZM53.3881 60.9157L54.4831 61.7245C60.4614 59.5819 66.3173 57.0069 72.4395 55.3725C96.6471 48.9107 121.567 48.3322 146.514 48.502C156.515 48.57 166.526 49.4135 176.532 49.9308C185.134 50.3754 193.769 50.4945 202.324 51.4529C207.921 52.3873 213.456 53.6581 218.9 55.2581C215.644 52.6675 211.802 50.9169 207.71 50.1603C188.546 48.3889 169.349 46.4323 150.151 45.918C132.008 45.432 113.851 46.7195 95.6953 47.107C83.6282 47.2025 71.7177 49.8478 60.7447 54.8696C58.048 56.5676 55.5763 58.599 53.3881 60.9157Z" fill="#009FE3"/>
<path d="M350.052 240.579C343.63 248.017 337.715 254.849 331.822 261.7C326.731 267.621 320.095 268.502 312.841 267.808C312.153 267.798 311.47 267.923 310.832 268.178C310.193 268.432 309.611 268.811 309.119 269.291C304.438 274.189 300.136 279.458 295.337 284.23C289.365 290.168 283.014 295.722 276.875 301.492C275.204 303.522 273.326 305.372 271.271 307.012C269.34 308.057 267.105 308.391 264.953 307.955C259.44 306.68 254.111 304.601 248.593 303.353C247.685 303.313 246.778 303.471 245.937 303.815C245.095 304.159 244.338 304.682 243.718 305.348C233.815 316.194 224.362 327.463 214.214 338.068C208.84 343.539 202.929 348.456 196.57 352.743C192.292 356.1 187.281 358.398 181.946 359.45C169.133 360.869 164.87 345.47 169.141 336.63C177.414 319.508 191.032 307.65 206.15 296.934C211.402 292.971 216.221 288.464 220.526 283.488C221.498 282.427 220.732 279.126 219.926 277.21C217.727 271.98 214.749 267.062 212.79 261.757C212.508 260.627 212.478 259.449 212.703 258.306C212.928 257.163 213.402 256.084 214.092 255.146C226.051 241.088 238.174 227.171 250.463 213.394C258.087 204.795 266.022 196.472 273.638 187.867C274.984 186.339 275.765 184.396 275.851 182.361C275.699 180.446 275.998 178.522 276.723 176.743C277.448 174.965 278.581 173.38 280.029 172.118C281.477 170.855 283.2 169.95 285.061 169.474C286.923 168.997 288.869 168.964 290.746 169.376C302.833 171.151 312.026 177.734 321.143 185.257C328.617 191.423 337.503 195.858 345.125 201.868C353.565 208.522 364.199 213.505 367.373 225.061C370.174 235.254 364.16 242.045 353.627 241.278C352.421 241.125 351.227 240.892 350.052 240.579ZM273.839 263.091C279.757 268.083 285.675 273.074 291.517 278.002C292.959 277.057 294.327 276.005 295.61 274.854C300.301 270.26 306.893 266.288 308.974 260.675C311.513 253.629 315.318 247.106 320.202 241.427C321.667 239.499 323.011 237.481 324.225 235.386C311.704 232.217 310.442 227.564 318.457 217.029C315.715 218.817 313.313 221.027 310.771 223.063C308.081 225.655 305.057 227.876 301.779 229.667C300.425 230.342 298.918 230.648 297.408 230.555C295.898 230.463 294.439 229.975 293.178 229.141C291.916 228.307 290.896 227.155 290.22 225.802C289.544 224.449 289.235 222.942 289.326 221.432C290.054 218.003 291.708 214.839 294.106 212.283C296.843 208.713 300.211 205.628 303.307 202.334L302.412 201.083C301.294 201.363 300.178 201.659 299.056 201.923C295.836 202.677 292.59 203.331 289.401 204.199C287.439 204.493 285.569 205.222 283.926 206.335C276.315 213.378 268.767 220.506 261.524 227.924C256.979 232.578 253.005 237.79 248.775 242.753C249.087 243.516 254.703 245.343 255.863 244.17C264.076 235.874 271.902 227.196 279.93 218.714C281.4 217.347 282.963 216.083 284.606 214.93L285.902 215.988C285.578 217.125 285.578 218.542 284.876 219.353C280.196 224.758 275.248 229.934 270.619 235.381C266.363 240.389 259.621 243.544 258.566 249.773C260.292 251.344 261.394 252.167 262.277 253.182C265.712 256.945 269.595 260.273 273.839 263.091ZM237.679 291.787C246.21 294.876 253.755 297.714 261.386 300.3C263.586 300.835 265.832 301.162 268.094 301.278C267.907 298.265 269.674 295.35 266.283 292.419C252.591 280.586 239.29 268.302 225.788 256.248C224.102 255.126 222.317 254.159 220.455 253.362C219.54 256.615 219.164 259.996 219.342 263.371C220.061 266.296 223.14 268.557 224.397 271.451C226.495 275.838 227.959 280.502 228.744 285.301C228.896 286.538 216.193 297.094 214.938 298.072C205.819 305.174 196.235 311.714 187.456 319.201C183.135 322.886 176.938 337.44 175.581 339.002C174.66 343.232 175.115 347.646 176.88 351.599C180.297 355.862 189.932 349.967 190.828 349.329C203.762 340.118 216.274 330.489 225.214 316.975C230.205 309.019 234.381 300.581 237.679 291.787H237.679ZM297.07 216.347C296.069 218.886 295.488 221.572 295.352 224.298C297.973 224.152 301.2 224.92 303.088 223.668C306.848 220.83 310.356 217.674 313.573 214.234C317.379 210.62 321.869 209.951 324.516 213.004C328.222 217.279 324.17 219.59 321.963 222.488C320.981 224.162 320.213 225.952 319.678 227.817C321.575 227.682 323.472 227.535 325.37 227.414C326.907 227.06 328.502 227.036 330.049 227.346C330.756 227.653 331.215 230.089 330.787 231.169C329.267 235.157 327.447 239.024 325.34 242.736C322.413 247.729 318.825 252.339 315.965 257.367C314.615 259.742 315.14 262.794 318.652 262.615C321.668 262.682 324.615 261.707 326.996 259.854C333.101 253.464 338.671 246.585 343.653 239.286C346.533 234.923 348.653 232.881 353.953 235.028C358.336 236.804 363.069 234.326 362.74 230.923C362.764 227.771 361.835 224.685 360.074 222.07C354.601 216.385 348.694 211.134 342.407 206.365C333.486 199.589 324.114 193.405 314.924 186.985C311.668 184.502 308.274 182.206 304.759 180.107C301.352 178.347 297.78 176.926 294.096 175.863C291.453 174.77 288.582 174.341 285.735 174.615C283.676 175.079 282.127 177.807 280.351 179.531C282.139 181.079 284.192 182.292 286.411 183.11C291.269 183.888 292.823 186.314 292.045 190.909C291.615 193.447 291.479 196.035 291.067 199.983C293.914 198.418 296.876 197.071 299.927 195.954C302.101 195.126 304.505 195.132 306.675 195.969C308.158 196.956 308.367 199.98 308.935 202.16C309.201 203.175 298.77 213.514 297.07 216.347ZM285.793 282.403C277.696 275.785 244.658 246.798 238.966 242.55C234.679 239.352 231.7 243.409 229.441 245.939C228.947 247.033 228.745 248.236 228.854 249.432C228.964 250.627 229.381 251.773 230.066 252.759C246.194 265.921 262.618 278.72 279.497 292.033C281.634 288.765 283.623 285.723 285.793 282.403V282.403ZM245.758 238.796C246.231 238.637 246.68 238.415 247.094 238.135C258.378 226.25 269.357 214.053 281.072 202.608C283.082 200.747 284.527 198.358 285.242 195.713C285.958 193.069 285.914 190.276 285.117 187.655C282.965 188.564 281.068 189.984 279.59 191.794C275.652 195.99 271.754 200.224 267.826 204.43C264.647 207.832 261.496 211.262 258.247 214.597C253.616 219.35 248.771 223.901 244.277 228.777C243.458 229.406 242.821 230.242 242.433 231.199C242.045 232.157 241.921 233.2 242.072 234.222C242.223 235.244 242.644 236.206 243.292 237.011C243.94 237.815 244.792 238.431 245.758 238.796Z" fill="#009FE3"/>
<path d="M281.139 251.452C285.277 247.192 289.874 243.404 294.846 240.157C289.68 249.3 282.495 257.144 273.839 263.091C272.551 262.831 277.399 255.052 281.139 251.452Z" fill="#009FE3"/>
<path d="M311.008 234.64C310.065 236.66 308.91 238.574 307.563 240.351C300.115 248.341 292.6 256.279 284.826 263.949C283.628 265.131 280.029 265.84 279.156 265.029C276.326 262.399 279.73 261.654 281.269 260.194C289.344 252.533 297.283 244.728 305.296 237.001C306.622 235.722 308.084 234.582 309.483 233.378L311.008 234.64Z" fill="#009FE3"/>
<path d="M287.47 230.434C287.022 232.849 287.187 234.46 286.469 235.382C283.927 238.641 281.086 241.668 278.353 244.778C275.638 247.867 273.057 251.096 270.118 253.956C269.127 254.92 267.218 254.941 265.73 255.393C265.495 253.891 264.505 251.665 265.142 251C271.352 244.526 277.825 238.303 284.259 232.046C285.272 231.402 286.348 230.861 287.47 230.434Z" fill="#009FE3"/>
<path d="M303.333 257.515C302.423 259.091 301.407 260.602 300.291 262.039C298.102 264.559 295.773 266.953 293.314 269.211C292.095 270.044 290.767 270.704 289.367 271.174C289.196 269.629 288.289 267.337 288.974 266.662C292.886 262.812 297.176 259.348 301.337 255.752L303.333 257.515Z" fill="#009FE3"/>
</svg>
