<svg width="460" height="464" viewBox="0 0 460 464" fill="none" xmlns="http://www.w3.org/2000/svg">
<path d="M155.64 54.6204C155.423 54.4657 155.564 54.6189 155.613 54.5936C162.793 50.9083 171.191 53.0271 178.573 49.1952C189.021 43.9325 200.345 40.6288 211.984 39.4478C216.39 39.1167 220.817 39.7232 224.972 41.2273C229.127 42.7314 232.916 45.099 236.089 48.174C243.094 53.8365 249.401 60.3123 254.876 67.4648C258.398 72.0704 260.851 77.4024 262.057 83.0739C263.262 88.7453 263.19 94.6141 261.846 100.254C260.423 106.197 258.34 111.962 255.636 117.441C253.539 120.637 250.731 123.305 247.431 125.234C243.854 127.712 239.738 129.399 235.94 131.574C230.728 134.56 225.605 137.697 220.424 140.737C218.533 141.846 216.865 142.62 217.995 145.635C218.05 146.59 217.887 147.545 217.517 148.428C217.146 149.31 216.58 150.096 215.86 150.726C213.555 152.647 211 154.245 208.266 155.478C197.93 160.521 187.519 165.408 177.149 170.381C176.226 170.929 175.339 171.536 174.495 172.199C179.175 174.888 183.332 177.625 187.778 179.759C197.043 184.206 206.446 188.369 215.834 192.553C217.196 193.12 218.655 193.414 220.13 193.417C222.744 193.459 225.361 193.118 227.978 193.099C236.366 193.039 244.768 192.754 253.136 193.148C258.231 193.388 263.541 192.539 268.385 195.499C269.973 196.237 271.233 197.536 271.921 199.146C272.61 200.756 272.678 202.564 272.114 204.222C268.477 214.117 262.469 222.968 254.616 230.001C246.936 237.619 237.447 243.163 227.039 246.111C221.057 247.968 219.126 246.341 218.694 240.199C217.958 229.726 216.905 219.279 215.535 208.858C214.979 208.047 214.261 207.361 213.427 206.841C212.592 206.321 211.66 205.98 210.687 205.839C201.788 203.832 192.767 202.354 183.891 200.26C174.652 198.082 165.435 195.716 156.381 192.879C146.669 189.836 138.555 193.427 130.55 198.021C125.286 201.041 120.218 204.407 114.896 207.315C113.423 207.851 111.8 207.793 110.369 207.153C103.403 203.877 97.3396 198.951 92.7052 192.804C76.0995 174.063 65.5614 150.731 62.4793 125.882C61.9348 117.886 61.8727 109.866 62.2931 101.863C62.1846 100.467 62.6 99.0807 63.4585 97.9745C64.3169 96.8682 65.5566 96.1215 66.9359 95.8799C68.3265 95.5754 69.6116 94.9078 70.6602 93.9449C71.7088 92.9821 72.4834 91.7586 72.9051 90.3989C74.8872 86.3733 77.1162 82.4741 79.5793 78.7235C82.3871 73.4203 85.0665 68.0376 87.5411 62.5717C93.8819 48.0889 101.905 34.4027 111.445 21.7954C117.522 14.0917 126.397 9.10222 136.137 7.9144C140.18 7.06929 144.333 6.88313 148.436 7.36312C151.716 8.13682 154.644 9.98232 156.758 12.6076C159.245 15.2095 161.049 18.3871 162.009 21.8564C162.968 25.3257 163.053 28.9787 162.257 32.4889C160.201 39.7796 157.926 47.0083 155.64 54.6204ZM70.9502 101.474L68.4197 105.879C75.217 105.983 77.6008 103.785 74.7523 100.467L77.1372 95.4054C73.4654 96.3316 70.0536 97.1029 70.9502 101.474ZM115.002 77.3881L116.389 80.4624C121.871 79.7259 122.219 79.3584 122.686 73.1834C119.85 74.7709 117.434 76.1234 115.018 77.4758C110.297 79.3066 104.347 79.6642 103.911 86.6933L106.682 87.3375C105.372 88.1414 104.148 89.0786 103.031 90.1341C101.498 91.9762 100.037 94.0348 102.974 96.0134L100.64 104.184C99.8971 102.279 99.3269 100.312 98.9363 98.3054C98.8628 96.0449 98.9584 93.782 99.2224 91.5357C92.7723 94.5268 91.0908 92.5318 91.1183 106.662L90.0838 106.918L88.1165 98.1381C82.6181 97.7471 79.6322 99.18 78.5551 102.731C84.1494 102.616 84.1494 102.616 84.4899 104.758C79.7099 103.123 78.2286 106.33 77.4523 109.598C76.4559 108.323 75.1475 107.326 73.6536 106.705C69.0509 107.467 68.5412 111.111 69.3855 115.334L68.3936 115.304L64.967 110.697C64.848 112.64 64.6972 113.88 64.7081 115.118C64.8369 124.525 66.3978 133.857 69.3371 142.794C75.0578 161.707 85.0799 179.038 98.6181 193.429C101.978 196.917 105.153 201.185 110.812 201.476C112.325 201.638 113.827 201.892 115.309 202.235C115.028 200.776 114.73 199.321 114.482 197.857C114.576 197.469 114.735 197.099 114.952 196.764C115.768 197.185 116.554 197.644 117.384 198.002C118.179 198.345 119.019 198.583 119.839 198.867C119.884 198.114 120.075 197.377 120.4 196.696C120.942 196.004 121.662 195.473 122.483 195.158C126.512 198.639 126.052 194.525 126.713 192.478L130.342 193.678L130.635 189.432C131.02 190.086 131.569 190.628 132.228 191.005C132.887 191.381 133.633 191.579 134.392 191.579C135.151 191.578 135.897 191.379 136.556 191.001C137.214 190.624 137.762 190.081 138.146 189.426C133.475 188.325 129.225 187.287 124.958 186.328C120.69 185.37 116.386 184.572 112.133 183.559C106.585 182.237 105.513 179.891 107.214 174.279C108.546 170.147 110.714 166.334 113.582 163.076C116.45 159.817 119.958 157.183 123.887 155.336C126.152 154.148 128.789 153.878 131.248 154.583C142.997 159.241 154.539 164.416 166.202 169.295C167.661 169.591 169.158 169.661 170.639 169.502L165.203 160.383L166.133 159.477C168.159 162.391 170.201 165.247 174.084 161.654C173.391 162.949 172.668 163.566 172.403 164.339C172.258 164.713 172.195 165.114 172.216 165.515C172.237 165.915 172.343 166.307 172.527 166.664C172.823 166.943 173.185 167.145 173.578 167.251C173.972 167.357 174.386 167.364 174.783 167.271C177.671 165.978 180.458 164.459 183.69 162.81L176.986 159.657L176.877 155.547L186.918 161.316L187.64 160.405L182.794 155.246L183.03 154.558L191.535 158.199L191.25 153.05L195.785 156.54L208.09 151.006C180.647 125.804 162.526 95.6675 159.527 57.7435C152.62 58.4871 147.623 61.394 147.592 64.4796L158.046 61.0035L158.496 62.1296L151.751 68.0313L151.392 64.3607L144.826 69.281C142.813 69.2013 140.84 69.8517 139.269 71.1124C138.318 72.9195 137.736 74.8977 137.557 76.9317C136.221 75.8039 134.599 75.0675 132.871 74.8037C130.647 76.1592 128.637 77.8371 126.905 79.7824C125.702 80.3237 124.591 81.05 123.613 81.935C123.289 84.1456 123.269 86.39 123.554 88.606C123.622 90.2597 123.824 91.9079 123.966 93.5586L122.146 93.6932C121.743 89.6213 121.339 85.5494 120.935 81.4774L119.618 80.8627C117.831 82.137 116.316 83.7541 115.16 85.6197C114.824 86.1994 114.605 86.8399 114.518 87.5044C114.43 88.1689 114.474 88.8442 114.649 89.4913C114.823 90.1384 115.124 90.7446 115.534 91.2749C115.944 91.8052 116.455 92.2491 117.037 92.5811L115.547 97.3134C114.389 96.5473 113.114 95.9751 111.771 95.6194C109.337 95.5222 106.899 95.5708 104.47 95.7647C106.226 94.8685 107.944 93.8838 109.749 93.1001C111.707 92.2497 113.054 91.0156 112.05 88.8448C111.434 87.8049 110.653 86.8715 109.739 86.0811C111.387 83.3583 113.194 80.3727 115.002 77.3882L115.002 77.3881ZM186.048 59.9422C205.515 77.5725 220.215 97.4887 224.961 123.887C225.866 123.374 226.718 122.943 227.518 122.43C234.436 117.676 240.461 111.739 245.316 104.89C253.979 93.5546 252.479 83.4129 244.734 74.6427C242.921 72.5673 241.237 70.3829 239.692 68.1018C237.082 64.334 233.688 61.1763 229.741 58.846C225.795 56.5157 221.391 55.0681 216.831 54.6028C206.339 53.2051 196.38 57.0507 186.048 59.9423L186.048 59.9422ZM253.611 196.365C253.06 196.32 252.369 196.221 251.677 196.216C244.822 196.166 237.966 196.054 231.113 196.133C228.418 195.915 225.707 196.237 223.138 197.079C222.25 197.619 221.24 197.926 220.202 197.971C219.164 198.015 218.132 197.797 217.201 197.336C202.699 190.217 188.178 183.137 173.638 176.095C170.716 174.683 167.64 173.591 164.629 172.366C153.143 167.69 141.67 162.98 130.143 158.405C128.78 157.791 127.24 157.697 125.812 158.141C122.127 159.783 118.874 162.257 116.308 165.371C113.742 168.484 111.935 172.15 111.028 176.081C110.45 178.46 111.205 179.084 113.848 179.235C113.928 176.915 114.712 174.675 116.096 172.811C117.48 170.947 119.398 169.549 121.595 168.801L118.468 174.244C123.646 175.003 128.669 176.589 133.345 178.94C133.965 179.007 134.591 178.948 135.187 178.765C135.767 178.627 136.376 178.67 136.932 178.89C137.304 179.487 137.791 180.005 138.364 180.413C138.937 180.822 139.584 181.114 140.27 181.272C140.956 181.43 141.666 181.451 142.36 181.334C143.054 181.217 143.718 180.965 144.315 180.591C145.618 182.267 147.263 183.648 149.14 184.641C151.146 184.545 153.111 184.041 154.915 183.161C155.975 187.054 157.582 187.58 162.427 185.531C164.163 189.772 167.816 189.524 171.738 189.057L171.336 193.051L175.489 194.458C176.558 190.958 178.775 190.881 181.628 192.087C182.951 192.428 184.302 192.645 185.665 192.734C187.249 193.06 188.806 193.517 190.374 193.918L190.16 194.852L186.039 196.845C190.408 197.976 193.716 198.985 197.09 199.674C202.977 200.877 208.898 201.918 214.818 202.955C215.889 203.069 216.881 203.576 217.6 204.378C218.32 205.18 218.717 206.22 218.714 207.298C219.182 211.407 219.744 215.505 220.3 219.604C220.793 223.227 221.333 226.845 221.757 229.805C232.3 218.738 242.844 207.668 253.611 196.365ZM90.2173 84.5252C91.8718 84.1418 93.4986 83.6475 95.0867 83.0456C101.568 80.0694 108.02 77.0301 114.443 73.9277C121.976 70.3033 129.488 66.6343 136.978 62.9206C137.783 62.5853 138.474 62.025 138.969 61.3069C142.28 55.6951 145.259 49.8942 147.891 43.934C151.033 37.7312 151.919 30.6279 150.394 23.8436C149.247 20.0683 144.244 14.7176 141.72 15.4657C139.297 15.8383 136.997 16.7749 135.003 18.2C133.009 19.6252 131.378 21.499 130.242 23.6703C129.842 24.855 129.264 25.972 128.529 26.9828C118.163 39.3354 108.839 52.5262 100.653 66.4198C97.1152 72.2327 93.8463 78.2091 90.2173 84.5252ZM164.707 69.6707C165.458 73.8872 166.077 78.4764 167.114 82.9689C169.9 95.3243 175.448 106.889 183.34 116.795C186.514 120.99 189.418 125.383 192.035 129.947C195.649 135.711 200.585 140.531 206.434 144.008C205.249 142.087 204.228 140.204 202.988 138.48C201.595 136.543 202.279 135.737 204.246 134.902C208.068 133.446 211.763 131.677 215.295 129.614C221.423 125.708 221.95 122.966 219.851 115.729C216.262 103.553 210.384 92.172 202.533 82.1968C197.052 75.1292 192.056 67.4433 183.862 62.9725C182.804 62.1641 181.501 61.7426 180.17 61.7784C176.454 63.2138 172.895 65.0661 169.324 66.8579C167.837 67.604 166.469 68.5864 164.707 69.6707ZM206.754 47.4634L207.874 47.5198C207.871 48.158 208.011 48.7888 208.285 49.3653C208.558 49.9418 208.959 50.4492 209.455 50.8497C209.952 51.2502 210.533 51.5335 211.155 51.6786C211.776 51.8236 212.422 51.8267 213.045 51.6875C217.762 51.5704 222.453 52.4177 226.831 54.1775C231.209 55.9374 235.181 58.5727 238.504 61.9219C242.64 66.0789 246.39 70.6022 249.709 75.4363C253.018 79.4041 254.867 84.3868 254.947 89.553C255.027 94.7192 253.333 99.7566 250.148 103.825C247.035 108.48 243.474 112.82 239.515 116.781C233.281 121.913 226.751 126.676 219.959 131.044C216.487 133.412 212.573 135.129 209.045 137.425C208.647 137.853 208.361 138.373 208.214 138.939C208.067 139.505 208.062 140.098 208.2 140.666C208.666 141.129 209.235 141.476 209.86 141.678C210.485 141.88 211.148 141.931 211.797 141.829C213.559 141.501 215.133 140.522 216.206 139.086C217.28 137.651 217.774 135.864 217.59 134.081C221.033 137.71 223.258 135.477 226.046 133.784L221.897 132.067L234.064 123.457L236.297 127.043L241.142 124.164C239.941 119.562 241.581 116.782 247.205 113.686L251.032 118.649C251.894 117.267 252.49 115.735 252.789 114.133C252.205 113.644 251.744 113.024 251.444 112.323C251.145 111.623 251.015 110.861 251.064 110.101C251.113 109.34 251.341 108.602 251.729 107.947C252.117 107.291 252.654 106.735 253.297 106.326C254.349 105.424 255.49 104.631 256.702 103.957C258.427 98.0271 258.853 91.7944 257.948 85.6848C257.044 79.5753 254.832 73.7329 251.463 68.5568C244.35 59.1456 235.484 51.1988 225.353 45.1542C220.978 42.6339 215.878 41.6708 210.886 42.4224C198.242 44.3187 185.978 48.2066 174.551 53.9412C170.565 56.0255 166.138 58.1063 165.684 63.6638C172.519 65.5158 171.061 58.9662 173.19 56.1169L173.688 57.3543L187.39 53.0855C188.385 56.6119 190.746 56.2032 193.115 54.9773L192.401 49.2254L202.51 49.1041L201.879 52.4194L205.427 52.1254L206.754 47.4634ZM265.233 212.14C266.376 209.641 267.332 207.061 268.094 204.422C268.338 203.597 268.406 202.729 268.293 201.877C268.18 201.024 267.888 200.204 267.437 199.472C266.541 198.882 265.538 198.474 264.484 198.273C263.431 198.071 262.348 198.079 261.298 198.297C253.41 201.509 246.461 206.661 241.095 213.275C240.52 213.603 240.025 214.055 239.647 214.598C239.269 215.142 239.017 215.763 238.909 216.416C238.801 217.069 238.84 217.738 239.024 218.374C239.207 219.01 239.53 219.597 239.969 220.093C240.14 220.612 240.2 221.16 240.146 221.704C240.091 222.247 239.924 222.773 239.654 223.248C238.226 226.268 236.544 226.473 232.225 224.315C231.304 225.239 230.71 226.44 230.534 227.734C230.359 229.028 230.612 230.344 231.255 231.481C231.423 232.232 231.423 233.01 231.254 233.761C231.086 234.512 230.753 235.216 230.279 235.822C229.194 236.447 227.967 236.786 226.714 236.807C225.666 236.838 224.647 237.164 223.775 237.746C223.312 239.114 223.236 240.583 223.553 241.992C224.475 242.39 225.489 242.526 226.483 242.385C227.468 242.208 228.43 241.926 229.354 241.544C240.019 237.858 249.578 231.531 257.138 223.154C259.308 220.604 261.261 217.878 262.977 215.003C261.672 215.119 260.357 215.037 259.076 214.761C258.843 213.304 259.131 211.811 259.891 210.547C260.652 209.282 261.834 208.326 263.23 207.849L265.233 212.14ZM135.785 12.8927C135.036 12.5968 134.235 12.4513 133.43 12.4644C129.43 13.8618 125.446 15.3157 121.523 16.9127C120.678 17.3771 119.998 18.092 119.576 18.9589C118.785 20.3632 118.287 21.9294 117.537 23.3604C116.716 24.2553 116.072 25.2983 115.64 26.4338C117.074 29.2505 115.422 29.7247 113.588 31.4821C109.634 35.2716 107.327 40.6349 102.898 44.1864C102.705 44.3463 102.552 44.5489 102.451 44.7782C102.35 45.0075 102.304 45.2572 102.317 45.5074C103.497 48.1166 101.76 48.9642 99.951 50.0848C98.8873 51.0199 97.9666 52.1059 97.218 53.3082L100.598 54.839C98.812 58.0291 96.6002 57.4618 94.252 55.8021L91.479 61.3489L94.7542 63.4355C92.8899 64.1463 91.2178 65.2837 89.8718 66.7566C89.2939 70.4166 87.3655 73.7271 84.4669 76.0353C84.1865 76.922 84.076 77.8538 84.1414 78.7815C84.0073 79.7718 83.6598 80.7211 83.123 81.5639C80.8853 84.3538 78.4969 87.0226 76.1645 89.7368C82.4885 89.3748 84.4531 87.6791 88.8905 80.2901C95.1445 69.8764 101.197 59.3297 107.813 49.1498C112.641 41.7215 118.23 34.7874 123.495 27.6447C125.758 24.5751 127.974 21.4638 130.378 18.5077C131.92 16.613 133.767 14.9668 135.785 12.8927ZM144.859 9.75082L144.189 11.1638C144.66 11.5154 145.119 11.8861 145.605 12.2157C149.198 14.2306 152.038 17.3589 153.697 21.129C155.356 24.899 155.745 29.1064 154.804 33.1166C152.459 40.7398 149.584 48.1894 146.198 55.4108C145.823 56.3562 145.477 57.3132 145.118 58.2651L146.249 59.1787C147.762 58.1782 149.084 56.9157 150.154 55.4508C152.789 49.8028 155.267 44.0584 157.393 38.2008C159.163 34.0832 159.641 29.5252 158.764 25.1301C157.886 20.7349 155.695 16.7098 152.479 13.5874C150.161 11.9094 147.588 10.6141 144.859 9.75077L144.859 9.75082ZM89.41 89.7242C82.1685 90.9175 79.9701 92.8415 80.6481 97.3929C86.7192 97.8529 90.927 94.6046 89.41 89.7242ZM93.3262 91.5912C99.3158 91.6491 101.502 89.4322 100.034 84.79C93.8271 86.18 93.455 86.5572 93.3261 91.5912H93.3262ZM133.248 184.296C134.029 179.975 132.378 178.603 127.216 179.239C126.357 179.55 125.567 180.025 124.89 180.639C125.278 181.577 125.897 182.402 126.688 183.038C128.845 183.598 131.036 184.018 133.248 184.296ZM116.821 181.386L122.149 181.236C122.128 180.081 121.842 178.947 121.313 177.92C119.733 177.732 118.134 177.778 116.567 178.056L116.821 181.386ZM135.052 67.6161C134.255 67.4792 133.436 67.5416 132.669 67.7978C131.902 68.054 131.21 68.4959 130.656 69.0843C130.101 69.6726 129.7 70.389 129.49 71.1697C129.279 71.9504 129.265 72.7711 129.448 73.5587L130.578 74.3211L135.052 67.6161ZM138.17 68.8517C143.639 67.3668 143.639 67.3668 143.797 64.1498C139.395 64.4631 138.217 65.3878 138.169 68.8516L138.17 68.8517ZM249.307 119.913C244.984 117.863 244.148 118.392 244.384 123.027L249.307 119.913ZM141.473 186.764C140.293 184.874 139.715 183.764 138.952 182.802C138.533 182.266 137.927 181.907 137.255 181.797C136.978 181.871 136.724 182.016 136.52 182.218C136.316 182.419 136.167 182.671 136.09 182.948C136.096 183.342 136.18 183.731 136.338 184.092C136.497 184.453 136.726 184.779 137.013 185.05C138.447 185.749 139.939 186.322 141.473 186.764Z" fill="#2E564B"/>
<path d="M328.398 363.245C327.4 358.241 326.506 353.753 325.561 349.017C324.386 349.435 323.241 349.835 322.1 350.249C319.538 351.202 316.747 351.35 314.098 350.673C311.45 349.996 309.072 348.527 307.282 346.462C305.96 343.897 305.552 340.959 306.125 338.131C306.697 335.304 308.215 332.755 310.43 330.906C312.252 329.251 314.162 327.694 316.364 325.808C311.177 322.714 304.379 319.627 307.667 312.356C311.125 304.706 318.499 304.682 326.071 307.041C325.977 304.313 326.065 301.582 326.334 298.866C326.516 296.958 327.309 295.159 328.596 293.738C335.127 288.21 339.015 289.348 342.505 297.419C342.903 298.337 343.403 299.213 343.886 300.092C344.041 300.339 344.218 300.57 344.417 300.783C346.501 298.942 348.97 297.591 351.645 296.828C354.766 297.061 357.74 298.253 360.157 300.242C366.115 304.856 363.469 310.472 360.769 316.261C362.187 316.785 363.642 317.202 365.123 317.507C367.431 317.78 369.634 318.621 371.536 319.956C373.437 321.291 374.977 323.078 376.017 325.156C376.606 326.008 376.989 326.986 377.136 328.011C377.283 329.037 377.19 330.083 376.864 331.066C376.538 332.05 375.989 332.944 375.259 333.68C374.529 334.415 373.638 334.971 372.657 335.303C369.976 336.514 367.375 337.9 364.422 339.364C365.642 340.197 366.672 341.277 367.447 342.534C368.221 343.791 368.722 345.197 368.917 346.66C369.112 348.124 368.997 349.612 368.579 351.028C368.161 352.444 367.449 353.756 366.49 354.879C362.151 360.191 356.052 357.903 350.512 355.937C349.379 358.503 347.912 360.908 346.149 363.091C344.107 365.138 341.515 366.551 338.687 367.158C337.584 367.131 336.502 367.473 335.614 368.128C334.725 368.784 334.08 369.716 333.779 370.779C333.132 373.142 332.776 375.586 332.292 377.994L333.234 378.667C337.273 374.79 341.414 371.012 345.329 367.013C352.434 359.755 366.159 357.881 373.356 366.491C377.344 371.264 380.871 376.421 384.655 381.367C385.457 382.087 386.218 382.851 386.935 383.655C387.408 384.702 387.754 385.802 387.967 386.931C387.108 387.024 386.251 387.142 385.39 387.205C384.048 387.206 382.708 387.294 381.377 387.469C373.021 389.357 364.272 388.379 356.54 384.691C351.655 382.844 347.394 379.648 344.254 375.475C340.289 376.793 336.879 379.397 334.563 382.874C332.248 386.35 331.16 390.501 331.472 394.667C331.752 398.249 332.488 401.782 333.66 405.178C334.069 406.048 334.68 406.808 335.443 407.394C336.205 407.98 337.096 408.375 338.042 408.546C339.987 408.647 341.879 409.214 343.56 410.198C345.24 411.181 346.66 412.554 347.701 414.2C349.813 416.642 352.656 418.338 355.808 419.039C363.978 421.396 372.024 424.174 376.376 432.689C379.21 438.234 382.71 443.439 386.206 449.288C390.561 448.286 395.109 447.195 399.684 446.235C400.477 446.246 401.261 446.41 401.992 446.718C401.838 447.468 401.487 448.162 400.974 448.73C397.835 449.686 395.479 453.235 391.449 451.473C390.84 451.299 390.203 451.249 389.574 451.324C388.945 451.4 388.338 451.601 387.787 451.914C382.315 455.001 376.639 453.727 370.92 453.182C368.814 452.954 366.686 453.288 364.752 454.152C360.608 455.837 356.06 456.271 351.672 455.398C345.652 455.073 339.617 455.151 333.607 455.632C322.03 456.374 310.411 456.12 298.878 454.872C293.253 453.367 287.263 454.115 282.181 456.958C281.895 456.606 281.698 456.19 281.607 455.745C281.516 455.3 281.535 454.84 281.66 454.404C281.786 453.968 282.015 453.569 282.329 453.241C282.643 452.912 283.031 452.665 283.461 452.519C288.209 449.369 293.214 451.033 298.092 451.279C304.84 451.62 311.558 452.82 318.301 452.924C325.263 453.03 332.235 452.108 339.21 451.93C344.278 451.8 349.357 452.194 354.432 452.266C356.767 452.513 359.126 452.404 361.427 451.941C366.991 450.04 372.91 449.412 378.748 450.104C379.642 450.04 380.523 449.851 381.364 449.544C378.317 440.538 372.925 432.506 365.743 426.275C361.946 423.415 356.364 423.007 351.728 421.143C349.525 420.34 347.558 418.997 346.009 417.236C344.305 415.283 342.165 413.759 339.762 412.787C337.36 411.815 334.762 411.422 332.179 411.641C329.597 411.86 327.102 412.683 324.897 414.045C322.692 415.407 320.838 417.269 319.486 419.481C318.718 421.044 317.496 422.34 315.98 423.198C314.464 424.056 312.724 424.436 310.988 424.289C305.569 424.508 300.448 426.824 296.705 430.749C292.963 434.674 290.892 439.9 290.932 445.323C291.086 445.93 291.133 446.559 291.07 447.182C290.731 447.871 290.299 448.511 289.788 449.084C289.144 448.638 288.625 448.035 288.281 447.332C288.121 445.462 288.204 443.579 288.528 441.731C289.707 436.15 292.646 431.096 296.911 427.309C301.176 423.522 306.543 421.202 312.224 420.691C313.662 420.481 315.018 419.888 316.15 418.975C319.739 416.179 323.006 412.939 326.744 410.377C327.305 410.174 327.82 409.86 328.258 409.454C328.696 409.049 329.048 408.56 329.294 408.016C329.54 407.472 329.675 406.885 329.691 406.288C329.707 405.691 329.603 405.098 329.386 404.542C327.105 395.509 327.012 386.063 329.115 376.987C329.792 374.364 329.479 371.583 328.236 369.176C326.992 366.768 324.904 364.904 322.373 363.939C322.183 365.739 321.696 367.494 320.929 369.133C319.007 372.304 316.565 375.13 313.705 377.491C307.68 382.071 300.441 384.777 292.889 385.273C290.172 385.37 288.898 384.691 289.761 381.577C291.164 376.515 292.036 371.303 293.503 366.262C295.623 358.972 301.695 355.676 308.146 353.361C311.001 352.731 313.979 352.964 316.702 354.03C319.424 355.097 321.768 356.949 323.436 359.35C324.924 360.847 326.591 362.155 328.398 363.245ZM305.382 372.264L306.54 371.551C307.16 372.405 307.859 373.198 308.627 373.921C309.439 374.442 310.305 374.872 311.211 375.202C311.199 374.338 311.138 373.476 311.029 372.618C310.79 371.651 310.498 370.697 310.153 369.762L315.47 371.9L315.438 365.692L318.985 367.205C319.16 365.656 319.015 364.087 318.56 362.596C317.837 362.32 317.065 362.198 316.293 362.24C315.521 362.281 314.766 362.484 314.078 362.836C311.53 364.552 309.429 366.918 307.01 368.848C306.141 369.267 305.197 369.509 304.233 369.562C304.077 368.678 304.074 367.773 304.224 366.888C304.6 366.092 305.192 365.418 305.934 364.945C309.479 362.381 313.073 359.887 316.504 357.472C314.51 356.734 312.387 356.411 310.264 356.523C308.141 356.634 306.063 357.177 304.157 358.12C302.252 359.062 300.558 360.383 299.181 362.002C297.803 363.621 296.771 365.505 296.146 367.537C294.909 371.717 294.284 376.079 293.41 380.364C293.412 380.815 293.476 381.264 293.599 381.697L296.629 381.251L296.527 376.275C299.257 376.645 298.81 381.735 302.184 379.559L301.238 373.012C304.005 375.087 303.628 380.286 307.751 376.996L305.382 372.264ZM329.07 353.9C330.52 357.175 332.37 360.257 334.58 363.076C336.02 363.956 337.734 364.277 339.395 363.977C341.056 363.678 342.55 362.779 343.592 361.451C345.017 360.017 346.035 358.232 346.544 356.276C347.054 354.32 347.035 352.265 346.49 350.319C344.857 347.665 343.21 345.015 341.429 342.46C340.845 341.767 340.105 341.224 339.268 340.875C338.432 340.526 337.525 340.382 336.622 340.454C335.719 340.526 334.846 340.813 334.076 341.29C333.306 341.768 332.661 342.422 332.194 343.199C330.938 346.413 330.227 349.841 329.07 353.9H329.07ZM328.524 328.222C326.435 328.373 324.109 328.726 321.794 328.672C318.717 328.845 315.79 330.057 313.491 332.11C311.192 334.162 309.658 336.933 309.138 339.971C308.855 341.257 309.054 342.601 309.697 343.75C310.341 344.899 311.383 345.771 312.627 346.202C314.869 347.493 317.508 347.915 320.041 347.386C322.573 346.857 324.823 345.414 326.361 343.334C328.117 341.465 329.336 339.156 329.887 336.651C329.839 333.791 329.38 330.952 328.524 328.222L328.524 328.222ZM358.521 320.167C355.295 321.814 352.177 323.662 349.185 325.702C348.936 326.527 348.883 327.399 349.032 328.248C349.18 329.097 349.525 329.9 350.039 330.592C352.054 332.007 354.226 333.183 356.512 334.097C358.83 335.378 361.486 335.917 364.12 335.639C366.754 335.362 369.239 334.282 371.239 332.545C371.758 332.259 372.211 331.868 372.571 331.397C372.931 330.926 373.188 330.386 373.328 329.81C373.468 329.234 373.486 328.635 373.382 328.052C373.278 327.469 373.054 326.913 372.724 326.421C370.054 321.233 365.394 320.586 358.521 320.167H358.521ZM352.943 299.821C351.007 300.687 349.271 301.943 347.844 303.511C346.417 305.08 345.329 306.926 344.65 308.935C343.973 312.728 343.11 316.499 342.707 320.319C343.091 321.416 343.811 322.364 344.765 323.029C349.565 320.227 354.104 317.001 358.329 313.389C359.529 312.236 360.276 310.69 360.435 309.033C360.594 307.376 360.154 305.717 359.195 304.357C357.34 302.552 355.234 301.024 352.943 299.821H352.943ZM345.605 339.339C346.692 341.413 347.655 343.272 348.638 345.12C349.599 347.271 350.737 349.339 352.04 351.302C353.576 352.86 355.579 353.873 357.744 354.187C359.909 354.502 362.117 354.1 364.033 353.043C365.132 351.296 365.524 349.194 365.128 347.168C364.731 345.142 363.577 343.343 361.9 342.139C360.003 340.515 357.959 339.07 355.796 337.822C354.242 336.676 352.297 336.192 350.387 336.476C348.478 336.761 346.758 337.79 345.605 339.339H345.605ZM330.406 325.844C331.133 324.737 331.53 323.446 331.55 322.122C330.289 318.762 328.495 315.627 326.238 312.836C325.448 311.808 324.461 310.948 323.334 310.307C322.207 309.666 320.964 309.256 319.677 309.101C318.39 308.947 317.085 309.051 315.838 309.407C314.592 309.764 313.429 310.366 312.418 311.177C311.83 311.422 311.314 311.813 310.918 312.313C310.522 312.812 310.26 313.404 310.157 314.033C310.053 314.662 310.111 315.306 310.326 315.907C310.54 316.507 310.904 317.042 311.382 317.463C313.904 319.787 316.792 321.679 319.929 323.065C323.343 324.263 326.847 325.193 330.407 325.844H330.406ZM341.206 304.751C340.362 301.981 339.291 299.286 338.005 296.692C337.527 296.04 336.896 295.516 336.166 295.168C335.437 294.82 334.633 294.658 333.826 294.698C332.062 295.379 330.584 296.641 329.637 298.277C328.928 299.617 328.766 301.179 329.186 302.636C330.912 308.177 332.871 313.652 334.948 319.072C335.262 319.466 335.664 319.78 336.123 319.988C336.581 320.196 337.082 320.292 337.585 320.268C338.012 320.129 338.397 319.886 338.706 319.562C339.016 319.237 339.24 318.841 339.358 318.408C340.062 314.111 340.552 309.779 341.206 304.751H341.206ZM380.98 383.155C377.668 378.479 374.92 374.162 371.731 370.199C370.341 368.474 368.593 367.072 366.608 366.088C364.622 365.105 362.448 364.563 360.233 364.502C358.019 364.44 355.817 364.86 353.781 365.732C351.744 366.603 349.921 367.907 348.437 369.551C361.544 368.325 370.188 375.006 378.172 384.412L380.98 383.155ZM367.82 380.102C365.953 378.036 363.682 376.375 361.147 375.222C358.613 374.068 355.868 373.448 353.084 373.398C354.165 375.548 350.771 378.464 354.923 379.61L357.328 375.691C358.233 378.405 358.854 380.268 359.523 382.274L362.478 380.315L365.229 383.696L367.82 380.102Z" fill="#2E564B"/>
<path d="M237.399 251.822C238.594 253.004 239.673 254.299 240.62 255.688C244.558 262.786 248.444 269.916 252.184 277.12C260.545 293.227 268.847 309.365 277.093 325.532C277.513 326.504 277.865 327.505 278.146 328.526L276.764 329.19C263.189 303.759 249.615 278.329 236.04 252.898L237.399 251.822Z" fill="#2E564B"/>
<path d="M291.796 315.409C290.53 314.699 289.42 313.743 288.53 312.596C280.294 294.312 266.164 280.079 255.102 263.745C252.235 259.511 249.046 255.494 246.136 251.287C245.22 249.755 244.417 248.158 243.732 246.51L244.676 245.711C245.669 246.387 246.577 247.178 247.383 248.069C254.269 257.756 261.036 267.529 267.932 277.21C273.299 284.743 278.985 292.054 284.175 299.704C287.352 304.385 289.86 309.519 292.669 314.45L291.796 315.409Z" fill="#2E564B"/>
<path d="M301.414 304.85C300.139 303.272 298.801 301.741 297.598 300.11C285.203 283.299 272.814 266.482 260.433 249.661C258.871 247.547 256.963 245.685 255.454 243.538C255.116 242.957 254.902 242.311 254.825 241.643C254.749 240.975 254.812 240.298 255.01 239.655C271.603 260.685 287.551 281.987 302.657 303.894L301.414 304.85Z" fill="#2E564B"/>
<path d="M265.374 233.228C285.141 252.609 297.921 277.962 319.063 296.168L317.928 297.414C314.68 294.972 311.638 292.266 308.832 289.325C298.89 277.159 289.325 264.686 279.468 252.45C275.394 247.393 270.911 242.669 266.677 237.74C265.78 236.563 264.958 235.331 264.215 234.051L265.374 233.228Z" fill="#2E564B"/>
<path d="M281.429 218.785C300.124 234.673 313.62 256.121 335.351 268.763L334.487 270.086C332.007 269.057 329.643 267.768 327.436 266.239C320.878 260.635 314.399 254.913 308.215 248.901C300.865 241.755 293.858 234.256 286.69 226.921C285.204 225.4 283.59 223.997 282.18 222.41C281.507 221.492 280.926 220.509 280.448 219.476L281.429 218.785Z" fill="#2E564B"/>
<path d="M272.599 227.911C292.592 243.791 307.633 264.286 324.811 282.788C319.666 279.146 315.113 274.731 311.315 269.7C306.98 265.02 302.722 260.269 298.365 255.611C293.915 250.853 289.17 246.352 284.953 241.4C280.987 236.741 274.912 234.025 272.599 227.911Z" fill="#2E564B"/>
<path d="M287.404 207.774C303.749 221.621 318.546 237.198 331.537 254.232C316.815 239.589 302.107 224.932 287.413 210.26C287.223 209.443 287.22 208.593 287.404 207.774Z" fill="#2E564B"/>
<path d="M281.264 243.361C293.356 256.184 304.162 270.162 313.526 285.093L280.049 244.355L281.264 243.361Z" fill="#2E564B"/>
<path d="M256.809 276.381C269.665 288.429 277.371 304.392 288.276 317.923L287.365 318.619L256.003 277.028L256.809 276.381Z" fill="#2E564B"/>
<path d="M289.421 303.99L262.683 263.778L264.196 262.776C273.815 275.712 281.386 290.005 290.69 303.149L289.421 303.99Z" fill="#2E564B"/>
<path d="M271.597 252.483L297.025 286.59L296.208 287.202C287.362 276.051 277.972 265.31 270.115 253.413L271.597 252.483Z" fill="#2E564B"/>
<path d="M318.099 271.509L291.117 241.392L291.877 240.393C292.803 240.665 293.669 241.108 294.432 241.7C302.311 251.061 310.141 260.463 317.923 269.906C318.055 270.43 318.114 270.969 318.099 271.509Z" fill="#2E564B"/>
<path d="M341.178 439.536C340.335 440.751 339.087 441.625 337.658 442.002C336.228 442.38 334.711 442.235 333.379 441.594C331.393 440.536 329.072 440.299 326.913 440.934C324.755 441.57 322.932 443.026 321.836 444.991C321.541 444.22 321.434 443.389 321.525 442.568C322.613 440.825 324.194 439.444 326.067 438.6C327.94 437.756 330.021 437.487 332.047 437.826C334.906 438.467 337.808 438.913 341.178 439.536Z" fill="#2E564B"/>
<path d="M316.325 436.555C312.857 438.302 310.836 441.073 306.597 439.402C304.259 439.262 301.92 439.656 299.757 440.554C298.919 440.705 298.053 440.706 297.199 440.775C297.225 439.974 297.466 439.194 297.894 438.517C300.17 437.101 302.678 436.1 305.303 435.558C308.999 435.563 312.688 435.897 316.325 436.555Z" fill="#2E564B"/>
<path d="M368.481 438.699C362.417 443.028 357.031 438.386 351.218 440.326C353.806 435.71 359.969 435.345 368.481 438.699Z" fill="#2E564B"/>
<path d="M330.203 425.407C332.399 425.049 334.614 424.818 336.837 424.716C337.806 425.008 338.696 425.519 339.437 426.209C338.933 426.901 338.263 427.456 337.489 427.821C333.176 428.086 328.849 428.18 324.526 428.199C323.912 427.937 323.375 427.521 322.968 426.991C323.36 426.3 323.925 425.723 324.607 425.317C326.46 425.183 328.32 425.161 330.176 425.251L330.203 425.407Z" fill="#2E564B"/>
<path d="M299.994 230.954C308.749 237.596 316.5 245.468 323.006 254.324L299.215 231.781L299.994 230.954Z" fill="#2E564B"/>
<path d="M360.865 445.208C359.91 446.489 358.6 447.46 357.098 448.002C355.595 448.544 353.967 448.633 352.414 448.256C351.792 447.926 351.264 447.445 350.877 446.856C351.305 446.193 351.896 445.651 352.594 445.283C355.042 445.101 357.511 445.208 360.865 445.208Z" fill="#2E564B"/>
<path d="M202.56 106.391C199.212 111.685 192.903 113.546 188.998 109.223C179.726 98.9594 171.548 87.8485 170.184 73.3622C170.014 72.3029 170.098 71.2183 170.43 70.198C170.762 69.1777 171.331 68.251 172.092 67.4942C172.852 66.7375 173.782 66.1725 174.804 65.8458C175.826 65.5191 176.911 65.4402 177.969 65.6154C180.731 65.7992 183.419 66.5849 185.845 67.9173C188.271 69.2497 190.376 71.0966 192.013 73.3286C196.461 77.8063 199.587 83.425 201.045 89.5655C201.786 93.31 203.266 96.9223 203.833 100.682C203.752 102.645 203.321 104.579 202.56 106.391ZM184.96 88.7322L185.474 89.653L195.251 86.1302L195.844 87.2663L191.701 91.1645L196.316 92.3328L193.516 94.9928L198.749 99.1424L195.633 101.753L195.949 102.725C196.906 102.749 197.854 102.538 198.711 102.112C199.183 101.712 199.566 101.218 199.837 100.661C200.108 100.105 200.261 99.4989 200.286 98.8806C198.473 93.0289 196.481 87.2206 194.218 81.5291C193.914 80.7712 193.442 80.0922 192.837 79.5432C192.232 78.9942 191.511 78.5894 190.727 78.3593C188.489 79.1543 186.374 80.261 184.445 81.6466L185.087 83.0765L190.987 82.1658L191.543 82.9769L184.96 88.7322ZM173.767 72.8359L180.416 69.4994C177.263 68.5639 174.527 68.5368 173.767 72.8359Z" fill="#2E564B"/>
<path d="M250.754 215.832C248.83 216.362 246.832 216.573 244.84 216.455C244.384 215.974 244.034 215.402 243.815 214.777C243.595 214.151 243.511 213.486 243.567 212.825C245.541 211.401 247.633 210.148 249.82 209.079L250.754 215.832Z" fill="#2E564B"/>
<path d="M253.722 224.832L247.049 227.481C246.443 226.359 246.03 225.142 245.827 223.883C247.782 222.55 249.836 221.368 251.972 220.348L253.722 224.832Z" fill="#2E564B"/>
<path d="M261.038 199.935C260.878 201.864 260.469 203.765 259.822 205.59C259.038 206.744 257.899 207.612 256.577 208.06C256.101 207.898 255.669 207.626 255.316 207.267C254.963 206.908 254.699 206.472 254.544 205.993C254.428 204.572 254.851 203.159 255.729 202.036C257.373 201.051 259.166 200.341 261.038 199.935Z" fill="#2E564B"/>
<path d="M242.594 234.587C240.958 235.15 239.234 235.409 237.506 235.353C237.106 234.86 236.812 234.29 236.643 233.678C236.474 233.066 236.434 232.426 236.525 231.797C238.318 230.672 240.221 229.733 242.205 228.995L242.594 234.587Z" fill="#2E564B"/>
</svg>
