<svg width="400" height="400" viewBox="0 0 400 400" fill="none" xmlns="http://www.w3.org/2000/svg">
<path d="M162.754 346.622C162.822 333.959 163.134 323.22 162.775 312.468C162.472 309.152 161.293 305.975 159.359 303.264C155.602 297.712 150.842 292.801 147.153 287.212C137.045 271.739 129.695 254.63 125.431 236.646C121.949 222.392 116.911 208.205 118.963 193.387C120.706 177.292 127.098 162.051 137.357 149.527C147.487 137.51 161.171 131.452 175.232 126.81C185.579 124.07 196.329 123.183 206.985 124.189C213.189 124.468 219.316 128.872 225.664 130.571C233.214 133.011 240.06 137.244 245.618 142.907C251.175 148.57 255.278 155.496 257.575 163.091C265.001 184.647 267.618 207.567 265.244 230.242C264.299 238.564 262.019 246.68 258.492 254.276C252.456 267.387 244.935 279.748 238.386 292.614C234.64 299.973 231.548 307.691 228.259 315.294C227.711 316.495 227.497 317.821 227.638 319.134C229.249 329.832 228.987 340.729 226.863 351.338C226.555 352.94 226.167 355.193 225.036 355.814C219.02 359.119 220.533 365.084 220.403 370.267C220.278 375.203 220.072 379.46 215.163 382.268C212.797 383.621 211.721 386.959 209.611 388.918C208.106 390.328 206.18 391.204 204.129 391.412C200.203 391.606 196.117 390.535 192.253 390.957C190.347 391.245 188.398 390.907 186.7 389.995C185.002 389.082 183.645 387.644 182.832 385.895C182.141 384.738 181.315 383.666 180.372 382.702C174.029 376.454 170.355 367.989 170.123 359.088C170.212 357.672 169.89 356.26 169.195 355.022C168.501 353.784 167.464 352.773 166.21 352.11C164.228 350.89 163.392 347.709 162.754 346.622ZM183.306 306.597C183.407 289.869 183.661 274.23 183.412 258.574C183.217 257.276 182.761 256.033 182.071 254.917C181.381 253.802 180.471 252.839 179.397 252.086C172.734 248.012 167.578 241.88 164.71 234.616C164.317 233.272 164.267 231.851 164.565 230.482C164.862 229.114 165.497 227.842 166.413 226.782C171.414 223.567 183.255 226.768 185.152 233.854C186.24 237.923 187.136 242.061 188.614 246.005C189.293 247.814 191.731 250.77 192.4 250.557C195.174 249.67 199.324 250.805 199.728 245.527C200.356 239.964 201.596 234.487 203.423 229.195C203.814 227.974 204.456 226.848 205.308 225.89C206.159 224.931 207.202 224.161 208.368 223.629C209.535 223.096 210.8 222.814 212.082 222.798C213.364 222.783 214.635 223.036 215.814 223.541C217.258 224.301 218.531 225.349 219.555 226.62C220.579 227.89 221.332 229.357 221.769 230.929C223.104 236.3 215.436 249.402 210.197 251.302C208.501 251.796 207.05 252.903 206.126 254.408C205.202 255.913 204.872 257.708 205.198 259.443C205.445 273.767 205.359 288.079 205.529 302.4C205.579 306.591 207.238 309.247 212.224 308.647C217.768 307.98 222.351 308.398 225.572 301.321C231.413 288.485 240.245 277.158 247.304 264.883C257.774 248.065 262.324 228.231 260.231 208.531C258.347 193.634 255.528 178.872 251.789 164.33C250.421 159.26 248.044 154.519 244.8 150.39C241.555 146.262 237.511 142.831 232.908 140.303C218.623 132.072 202.073 128.642 185.692 130.518C176.171 131.795 167.001 134.965 158.724 139.84C151.832 143.536 146.622 150.218 140.811 155.728C130.983 165.044 127.21 177.696 125.05 190.547C123.146 205.168 124.497 220.03 129.005 234.068C135.441 256.507 145.387 277.787 158.473 297.118C160.798 300.582 163.012 304.935 168.46 305.101C172.961 305.238 177.474 305.982 183.306 306.597ZM188.554 306.166L199.828 307.969C199.502 290.553 199.184 273.567 198.854 255.94L189.04 257.668C188.877 273.923 188.717 289.86 188.553 306.166H188.554ZM180.503 370.404C187.724 374.14 203.604 364.668 205.036 354.358C196.165 360.16 188.412 365.231 180.503 370.404ZM212.564 363.476L211.277 362.699C207.454 366.05 203.422 369.154 199.205 371.993C188.135 378.556 188.022 378.376 188.384 381.469C196.1 377.693 203.553 374.046 212.051 369.888L212.564 363.476ZM204.616 245.368L206.69 246.343C209.176 244.884 211.295 242.876 212.887 240.474C214.479 238.071 215.501 235.337 215.876 232.479C215.82 231.701 215.574 230.949 215.158 230.289C214.742 229.63 214.169 229.083 213.491 228.697C212.728 228.609 211.955 228.725 211.251 229.035C210.548 229.345 209.94 229.836 209.489 230.459C207.585 235.307 206.192 240.378 204.616 245.368H204.616ZM168.711 231.609L180.912 246.436C181.806 232.447 177.546 228.746 168.711 231.609H168.711ZM191.912 357.378L191.442 355.496C189.383 355.049 187.301 354.719 185.205 354.506C182.717 354.38 179.009 353.671 178.043 354.94C176.769 356.615 177.648 359.968 177.567 364.519L191.912 357.378Z" fill="#F6AE83"/>
<path d="M288.972 195.283C292.03 196.032 294.408 196.715 296.816 197.181C300.925 197.977 305.044 198.722 309.174 199.34C327.551 202.092 345.938 204.736 364.3 207.625C365.623 207.833 366.771 209.692 368 210.784C360.106 213.308 351.95 214.924 343.69 215.601C328.673 216.505 313.637 217.256 298.637 218.305C295.526 218.522 285.017 217.732 286.707 216.102C291.614 211.37 289.108 197.88 288.972 195.283ZM340.465 211.455C340.442 210.569 340.42 209.683 340.397 208.798L295.766 202.745L296.223 211.455L340.465 211.455Z" fill="#F6AE83"/>
<path d="M199.058 8.56445C199.9 16.4801 200.459 23.6621 201.468 30.804C203.273 43.5831 205.318 56.3413 207.33 69.1011C207.971 73.1683 206.689 74.1211 202.421 73.988C199.236 73.8886 184.89 74.7093 185.249 72.6391C187.445 59.9692 190.108 47.4031 192.273 34.7268C193.241 29.0595 194.775 10.5694 199.058 8.56445ZM191.637 70.1831C200.651 68.5621 201.387 68.3375 200.979 64.8466C199.888 55.495 198.421 46.1677 197.103 36.8306L196.473 36.9639C194.884 47.8795 193.295 58.7949 191.637 70.1832V70.1831Z" fill="#F6AE83"/>
<path d="M84.1888 207.914C88.8822 208.359 91.3696 211.573 91.3623 216.985C91.3125 220.118 91.6 223.246 92.2198 226.317C93.1073 230.379 92.1031 231.233 87.9211 230.614C78.2971 229.19 68.6125 228.377 58.9494 227.379C50.9865 226.557 43.0094 225.948 35.0642 224.914C34.3317 224.644 33.6737 224.204 33.1444 223.63C32.6151 223.056 32.2295 222.365 32.0192 221.613C31.8334 220.426 33.0302 218.137 34.0331 217.927C50.7132 214.441 67.4582 211.205 84.1888 207.914ZM47.9668 220.052L48.1991 221.157L84.2744 224.529C86.2958 215.435 85.1676 213.814 77.195 214.976C67.4 216.403 57.705 218.337 47.9668 220.052Z" fill="#F6AE83"/>
<path d="M108.352 151.785C99.1834 139.547 78.9829 115.275 79.1551 114.473C92.5467 117.022 105.749 120.483 118.668 124.832C123.211 126.413 123.824 128.381 120.853 131.715C118.517 134.336 108.982 151.702 108.352 151.785ZM96.2296 124.306C99.9143 129.791 103.029 134.427 106.639 139.801C109.195 136.447 111.239 133.764 113.78 130.429L96.2296 124.306Z" fill="#F6AE83"/>
<path d="M308.859 106.738C307.528 109.922 291.827 125.811 286.299 133.231C282.009 138.99 278.621 143.085 272.353 133.095C270.462 130.079 266.802 128.167 264.234 125.482C261.775 122.91 262.629 121.351 265.843 120.262C278.443 115.991 290.95 111.478 303.517 107.122C305.283 106.833 307.071 106.704 308.859 106.738V106.738ZM271.182 124.526C272.425 125.39 273.575 126.379 274.616 127.477C277.611 131.841 280.12 132.407 282.749 127.477C284.753 124.197 286.925 121.024 289.256 117.969L271.182 124.526Z" fill="#F6AE83"/>
<path d="M290.669 280.981C282.783 279.551 276.208 278.577 269.735 277.05C267.637 276.367 265.833 274.993 264.617 273.152C266.778 267.21 269.779 261.607 273.53 256.516C274.538 256.363 275.568 256.452 276.535 256.777C277.502 257.101 278.377 257.651 279.089 258.382C284.051 264.221 288.634 270.382 293.202 276.535C293.466 277.004 293.606 277.532 293.611 278.07C293.615 278.608 293.484 279.138 293.229 279.612C292.493 280.262 291.617 280.73 290.669 280.981V280.981ZM276.19 263.568L272.282 271.35L283.235 273.823C280.643 270.05 278.892 267.501 276.19 263.568V263.568Z" fill="#F6AE83"/>
<path d="M244.201 94.2876C239.632 92.076 226.887 90.2701 225.34 89.3865C226.082 88.2392 226.552 86.6875 227.609 86.0093C235.156 81.1693 242.8 76.4735 250.478 71.8333C251.427 71.26 253.138 70.7017 253.822 71.1676C254.892 71.8958 248.401 96.3202 244.201 94.2876Z" fill="#F6AE83"/>
<path d="M294.389 163.576C301.545 164.134 308.705 164.621 315.855 165.325C316.489 165.39 317.1 165.594 317.646 165.921C318.192 166.249 318.66 166.692 319.016 167.22C319.081 167.839 319 168.464 318.779 169.046C318.558 169.627 318.203 170.149 317.743 170.569C316.266 171.655 314.697 172.61 313.054 173.424C308.482 176.272 303.967 179.209 299.352 181.987C298.064 182.915 296.537 183.452 294.952 183.535C294.282 183.488 293.483 181.241 293.035 179.908C291.837 176.336 291.082 172.611 289.627 169.143C287.367 163.754 290.842 163.598 294.389 163.576ZM294.234 169.297C294.999 170.846 295.921 172.313 296.987 173.673C299.358 172.785 301.66 171.723 303.875 170.496L303.363 169.297H294.234Z" fill="#F6AE83"/>
<path d="M112.189 269.134C101.516 271.849 90.6531 273.751 79.6926 274.824C84.0079 269.619 88.6153 264.663 93.4926 259.981C98.0584 255.499 100.728 255.513 105.139 260.713C107.527 263.528 109.879 266.372 112.189 269.134Z" fill="#F6AE83"/>
<path d="M68.6698 170.259C76.2498 170.851 83.8398 171.286 91.4007 172.169C92.8807 172.342 86.9018 181.155 84.93 183.319C83.5996 184.778 77.6743 192.256 75.15 189.145C71.3166 184.421 67.5236 179.646 64.0322 174.678C62.0232 171.82 64.2241 169.622 68.6698 170.259ZM78.0654 182.892C80.0772 180.335 81.3976 178.656 83.2678 176.279H73.3777C74.9871 178.55 76.1516 180.193 78.0654 182.892Z" fill="#F6AE83"/>
<path d="M133.689 77.4724C135.717 78.735 136.394 79.0915 137.001 79.5451C141.35 82.7952 145.741 85.9921 150.004 89.3557C152.627 91.4254 152.796 93.2408 150.242 95.817C147.655 98.4268 138.339 105.986 137.824 104.162C135.571 95.4234 134.186 86.4834 133.689 77.4724V77.4724Z" fill="#F6AE83"/>
</svg>
