<svg width="300" height="300" viewBox="0 0 300 300" fill="none" xmlns="http://www.w3.org/2000/svg">
<path d="M230.689 77.9249C230.702 76.9635 230.659 76.0022 230.56 75.0458C229.731 71.8055 229.04 68.5272 228.203 65.2882C227.467 62.4389 226.491 59.6567 225.54 56.8685C225.007 55.7212 224.468 54.5772 223.921 53.4365C222.664 50.4146 221.128 47.5162 219.334 44.7788C215.871 40.0819 212.153 35.5779 208.198 31.2869C202.852 25.2818 196.278 20.4945 188.922 17.2489C182.918 14.4026 176.709 12.0119 170.346 10.0971C166.879 9.20416 163.426 8.25604 159.974 7.30339L159.737 7.23994C156.796 7.00894 153.857 6.82366 150.912 6.64447C149.524 6.56612 148.142 6.4097 146.771 6.17593L146.633 6.18097C145.472 6.21609 144.309 6.17501 143.153 6.05797C138.528 5.65849 134.287 7.43062 129.865 8.16838C128.59 8.4029 127.333 8.72772 126.104 9.14038C121.109 10.7279 117.336 14.5619 112.353 16.3166C109.594 17.5809 107.038 19.2483 104.768 21.2641C102.857 22.6984 101.354 24.7267 99.3377 25.9579C94.9587 28.8533 91.0539 32.4087 87.762 36.4979C85.582 39.0136 83.6092 41.7016 81.8629 44.5356C79.6587 48.0443 77.6748 51.6866 75.9224 55.4415C75.0111 57.9355 74.2696 60.4882 73.7029 63.0823C73.1157 65.0355 72.2016 66.9065 71.8053 68.8945C70.9949 72.9597 70.3297 77.064 69.8059 81.1813C69.2599 84.3588 69.0392 87.5837 69.1471 90.806C69.8688 98.3985 71.4894 105.878 73.9749 113.089C76.1436 120.961 79.3004 128.528 83.37 135.607C86.7881 141.735 90.9348 147.426 95.7198 152.558C98.3282 155.067 100.463 158.068 102.84 160.822C103.978 162.139 105.173 163.407 106.357 164.683C107.664 165.817 108.837 167.096 109.856 168.494C111.588 171.497 113.082 174.63 114.326 177.865C115.936 182.065 117.268 186.367 118.314 190.742C119.538 196.11 121.969 201.261 121.717 206.923C121.776 207.406 121.946 207.869 122.215 208.276C122.949 209.758 123.831 211.181 124.44 212.709C126.816 218.669 129.267 224.609 131.38 230.659C132.855 234.886 134.13 239.285 131.793 243.633C131.318 245.274 130.413 246.759 129.17 247.933C128.651 248.109 128.172 248.388 127.763 248.753C127.354 249.119 127.022 249.563 126.788 250.059C126.554 250.555 126.422 251.093 126.4 251.641C126.378 252.189 126.467 252.736 126.661 253.249C126.697 254.292 126.658 255.335 126.546 256.372C126.568 259.13 126.701 261.89 126.68 264.647C126.649 268.829 126.792 273.042 126.357 277.181C125.997 280.619 126.701 282.481 129.883 283.302C136.899 285.151 143.653 287.877 149.987 291.416C152.96 293.053 156.052 294.902 159.642 293.509C163.672 291.947 167.694 290.35 171.636 288.587C175.707 286.767 179.683 284.74 183.691 282.784C184.295 282.549 184.845 282.195 185.309 281.742C185.773 281.29 186.141 280.749 186.391 280.152C186.641 279.554 186.768 278.912 186.765 278.264C186.761 277.617 186.627 276.976 186.371 276.381C186.187 275.803 186.121 275.194 186.175 274.59C187.034 267.008 186.814 259.342 185.522 251.822C185.403 251.309 185.177 250.826 184.86 250.405C184.544 249.984 184.142 249.634 183.683 249.377C181.836 248.24 180.248 246.731 179.019 244.945C177.79 243.159 176.948 241.136 176.546 239.005C176.517 237.303 176.015 235.601 175.973 233.898C175.758 231.379 175.839 228.843 176.214 226.342C176.991 222.761 178.388 219.328 179.468 215.814C180.286 213.156 180.276 210.165 182.738 208.195C183.166 207.659 183.389 206.988 183.367 206.302C183.966 199.816 185.511 193.451 187.954 187.412C190.68 180.163 194.085 173.177 197.298 166.124C197.859 164.885 198.701 163.793 199.757 162.934C202.865 160.507 206.531 158.758 208.698 155.226C209.45 154.001 210.409 152.906 211.202 151.704C213.601 148.363 215.824 144.899 217.864 141.328C219.987 137.05 221.884 132.663 223.548 128.187C226.063 121.926 227.859 115.401 228.903 108.736C229.585 104.156 229.109 99.3319 230.183 94.8827C231.556 89.1936 230.567 83.567 230.689 77.9249ZM214.214 44.3367C215.536 46.6305 216.858 48.9243 218.18 51.218L217.617 51.5255C215.711 49.6181 214.354 47.2329 213.688 44.6203L214.214 44.3367ZM153.454 14.2856C154.982 15.8569 156.509 17.4284 158.037 18.9998C163.876 25.198 168.774 32.2191 172.575 39.839C175.276 44.8798 177.704 50.0623 179.848 55.364C181.326 59.4393 182.434 63.6389 183.161 67.9123C184.413 73.7632 185.316 79.6835 185.863 85.6417C186.277 91.4795 185.806 97.366 185.692 103.23C185.639 105.984 185.597 108.742 185.399 111.485C185.205 114.158 184.85 116.818 184.511 119.475C183.822 124.862 183.22 130.265 182.351 135.619C181.479 140.981 180.489 146.335 179.228 151.61C178.391 154.359 177.369 157.047 176.168 159.658C175.671 160.935 175.232 162.24 174.65 163.476C174.232 164.335 173.716 165.143 173.114 165.885C172.406 166.864 171.584 167.756 170.666 168.542C169.72 169.152 168.718 169.668 167.673 170.085L167.131 169.519C167.645 166.917 168.249 164.331 168.652 161.71C169.371 157.037 170.217 152.366 170.557 147.654C171.045 140.892 171.24 134.097 171.344 127.309C171.416 122.643 171.084 117.965 171.002 113.293C170.957 110.735 171.182 108.173 171.064 105.619C170.851 101.014 170.536 96.4082 170.147 91.8108C169.613 85.5045 169.217 79.1737 168.306 72.912C167.293 65.9499 165.573 59.0793 164.534 52.1195C164.139 47.5466 163.319 43.0205 162.084 38.5999C160.277 33.38 158.438 28.1669 156.438 23.0165C155.353 20.221 153.903 17.5613 152.618 14.8403L153.454 14.2856ZM158.008 14.7822L158.592 14.5212C162.504 18.1704 166.991 21.2952 169.482 26.302C168.784 26.4098 168.069 26.2889 167.445 25.9574C166.821 25.6258 166.321 25.1014 166.02 24.4624C163.945 21.8159 161.614 19.37 159.421 16.8134C158.915 16.1617 158.443 15.4837 158.008 14.7821L158.008 14.7822ZM170.65 31.0056L171.117 29.9786C171.933 30.3378 172.763 30.6701 173.539 31.1027C173.467 31.4865 173.353 31.8612 173.199 32.2199L170.65 31.0056ZM199.632 99.5534C195.845 100.065 192.279 100.547 188.398 101.072C188.435 99.3431 188.392 97.5079 188.583 95.7016C188.735 95.443 188.948 95.2256 189.203 95.0684C189.458 94.9111 189.748 94.8187 190.048 94.7994C191.883 94.794 193.722 95.0077 195.561 95.0966C196.418 95.2345 197.296 95.033 198.008 94.5346C198.719 94.0363 199.209 93.2804 199.373 92.4272C198.928 92.0772 198.395 91.8576 197.833 91.7928C197.271 91.728 196.702 91.8206 196.189 92.0603C194.063 92.4791 191.874 92.4512 189.759 91.9784C188.125 91.6007 188.364 89.7839 188.718 88.4184C189.071 87.0564 190.071 87.3088 191.211 87.4256C193.713 87.6818 196.238 87.6716 199.199 87.7876C199.603 88.4872 199.831 89.2748 199.863 90.0822C199.894 90.8896 199.729 91.6925 199.381 92.4217C200.241 94.7077 200.329 97.2126 199.632 99.5534ZM174.927 204.881C174.804 205.349 174.61 205.796 174.352 206.206C174.003 205.863 173.729 205.45 173.548 204.995C173.4 203.83 173.478 202.643 173.376 201.471C172.988 194.629 173.24 187.765 174.13 180.97C174.34 178.846 174.776 176.749 175.07 174.634C175.199 173.702 175.232 172.755 175.321 171.654L184.956 168.882C184.975 169.458 184.913 170.035 184.772 170.594C183.417 173.367 181.808 176.03 180.666 178.888C179.212 182.426 178.01 186.063 177.069 189.771C176.128 193.643 175.675 197.644 175.075 201.6C174.911 202.674 175.04 203.795 174.927 204.881ZM171.698 199.36C171.669 201.445 171.76 203.541 171.578 205.609C171.494 205.946 171.325 206.257 171.087 206.511C170.849 206.765 170.551 206.955 170.219 207.062C169.819 206.999 169.439 206.847 169.106 206.616C168.773 206.384 168.498 206.081 168.299 205.728C168.188 199.715 165.866 193.913 166.554 187.795C166.853 183.88 166.891 179.95 166.668 176.03C166.599 175.748 166.589 175.455 166.637 175.169C166.685 174.883 166.79 174.61 166.947 174.366C167.103 174.122 167.308 173.912 167.548 173.749C167.788 173.587 168.059 173.474 168.343 173.419C169.935 173.042 171.526 172.664 173.746 172.136C173.087 177.715 172.336 182.849 171.919 188.016C171.615 191.775 171.749 195.577 171.698 199.36H171.698ZM131.765 183.567C131.376 181.326 131.329 179.031 130.948 176.788C130.701 175.334 131.166 175.206 132.477 175.262C132.887 175.21 133.303 175.248 133.698 175.373C134.092 175.498 134.454 175.706 134.761 175.984C135.067 176.262 135.309 176.603 135.471 176.983C135.633 177.364 135.711 177.775 135.699 178.188C136.462 184.334 137.387 190.462 138.272 196.594C138.656 199.254 139.096 201.908 139.519 204.563C139.604 205.098 139.729 205.628 139.836 206.161C139.911 206.435 139.92 206.723 139.861 207.001C139.802 207.279 139.678 207.539 139.498 207.759C139.318 207.979 139.089 208.153 138.828 208.266C138.567 208.379 138.283 208.428 138 208.409C137.737 208.447 137.469 208.426 137.214 208.349C136.96 208.272 136.726 208.14 136.528 207.963C136.331 207.785 136.174 207.567 136.07 207.322C135.966 207.078 135.917 206.814 135.926 206.548C134.498 198.895 133.111 191.235 131.765 183.567H131.765ZM133.492 207.633L132.899 208.005C132.373 207.605 131.943 207.094 131.64 206.508C131.167 204.059 130.946 201.566 130.487 199.114C129.957 196.274 129.413 193.422 128.623 190.643C127.43 186.449 126.111 182.289 124.664 178.165C123.906 176.311 123.042 174.503 122.077 172.749C122.83 172.582 123.61 172.571 124.368 172.717C125.125 172.862 125.845 173.16 126.484 173.594C127.122 174.027 127.665 174.586 128.079 175.237C128.494 175.888 128.771 176.616 128.894 177.378C129.931 184.227 130.982 191.075 132.047 197.921C132.414 200.283 132.832 202.638 133.201 205.001C133.337 205.873 133.397 206.756 133.492 207.634L133.492 207.633ZM131.329 139.021C130.604 139.274 129.931 139.653 129.34 140.142L129.559 140.446C127.151 140.58 124.743 140.857 122.337 140.798C120.786 140.761 120.444 139.485 120.617 137.528C123.671 137.784 126.704 138.181 129.735 138.218C131.133 137.963 132.484 137.495 133.741 136.831C134.266 139.403 134.991 142.134 135.312 144.904C135.456 146.143 132.73 147.691 130.982 147.837C129.429 147.968 127.895 148.325 126.342 148.373C126.021 148.341 125.712 148.24 125.434 148.077C125.156 147.914 124.917 147.692 124.733 147.428C124.039 146.313 123.484 145.118 123.079 143.869C123.239 143.603 123.452 143.373 123.704 143.193C123.957 143.013 124.244 142.886 124.547 142.821C126.874 142.705 129.219 142.845 131.548 142.742C132.321 142.587 133.067 142.315 133.758 141.935C133.042 140.889 132.229 139.914 131.329 139.021ZM126.064 115.136C125.326 118.624 122.991 117.606 121.317 117.905C119.439 118.241 117.452 118.051 115.592 118.443C115.36 118.559 115.101 118.615 114.842 118.604C114.582 118.594 114.329 118.517 114.107 118.382C113.885 118.247 113.701 118.058 113.572 117.832C113.443 117.606 113.374 117.351 113.37 117.092C113.248 116.475 113.082 115.868 112.874 115.275C112.417 114.046 112.951 113.596 114.108 113.539C117.751 113.357 121.396 113.195 125.033 112.949C125.865 112.807 126.68 112.582 127.467 112.277C126.176 109.624 123.805 109.206 122.267 110.969C121.862 111.293 121.346 111.45 120.828 111.406C118.289 111.33 115.746 111.226 113.214 111.009C112.944 110.954 112.69 110.837 112.473 110.667C112.256 110.497 112.081 110.279 111.963 110.03C111.982 109.688 112.076 109.353 112.238 109.051C112.4 108.748 112.627 108.485 112.902 108.279C114.362 108.061 115.842 108 117.315 108.097C119.812 108.192 122.307 108.481 124.8 108.484C125.121 108.361 125.409 108.164 125.641 107.909C125.873 107.654 126.042 107.349 126.135 107.017C126.032 106.728 125.863 106.467 125.641 106.255C125.42 106.043 125.151 105.886 124.858 105.796C123.263 105.816 121.677 106.289 120.087 106.265C117.536 106.226 114.986 105.878 112.433 105.755C112.115 105.751 111.802 105.676 111.517 105.536C111.232 105.395 110.981 105.193 110.784 104.944C110.587 104.695 110.447 104.405 110.376 104.095C110.305 103.785 110.303 103.463 110.372 103.153C110.366 101.622 111.733 101.893 112.676 101.955C115.41 102.133 118.135 102.518 120.869 102.642C122.748 102.699 124.629 102.617 126.496 102.398C126.708 102.324 126.935 102.306 127.155 102.345C127.376 102.385 127.583 102.48 127.756 102.623C127.928 102.766 128.061 102.951 128.142 103.16C128.222 103.37 128.247 103.596 128.213 103.818C128.89 109.218 129.636 114.609 130.451 119.993C130.64 121.239 130.357 121.88 129.1 121.945C125.669 122.123 122.234 122.247 118.806 122.467C117.803 122.606 116.811 122.816 115.838 123.095C117.642 125.368 127.436 125.385 130.965 123.345L131.135 125.79C128.503 125.814 126.065 125.82 123.627 125.863C122.183 125.888 120.731 125.902 119.3 126.062C118.726 126.231 118.184 126.495 117.698 126.844C118.126 127.418 118.693 127.876 119.344 128.175C123.055 128.296 126.769 128.184 130.479 128.302C130.848 128.432 131.185 128.637 131.469 128.905C131.753 129.173 131.979 129.496 132.131 129.856C127.812 129.123 123.373 129.693 119.379 131.494L119.437 132.499C120.156 132.589 120.875 132.735 121.595 132.759C124.963 132.872 128.331 132.933 131.699 133.068C131.905 133.094 132.105 133.163 132.284 133.27C132.463 133.377 132.618 133.519 132.74 133.688C132.945 134.137 133.081 134.614 133.143 135.103C132.717 135.138 132.289 135.119 131.867 135.048C130.311 134.589 128.772 134.068 127.226 133.571L126.941 134.098L127.913 135.521C127.336 135.527 126.914 135.541 126.492 135.533C125.101 135.51 123.707 135.42 122.319 135.469C121.384 135.775 120.391 135.87 119.415 135.747C118.627 134.867 118.083 133.797 117.837 132.642C116.739 129.423 115.744 126.171 114.686 122.939C114.528 122.688 114.443 122.397 114.442 122.101C114.442 121.804 114.525 121.513 114.683 121.261C114.841 121.01 115.067 120.808 115.335 120.68C115.602 120.552 115.901 120.502 116.196 120.536C117.879 120.272 119.481 119.513 121.166 119.303C122.62 119.122 124.146 119.508 125.63 119.456C126.768 119.417 128.562 119.934 128.53 118.106C127.946 116.941 127.102 115.925 126.064 115.136ZM123.897 94.3674C122.856 94.725 121.742 94.8163 120.657 94.6328C118.126 94.3172 115.623 93.7562 113.094 93.4193C111.979 93.3731 110.862 93.4198 109.755 93.559L109.418 89.9818C110.594 89.8389 111.777 89.7589 112.962 89.7421C114.668 89.8229 116.368 90.0917 118.074 90.1935C120.453 90.3353 122.837 90.4562 125.215 90.4367C125.492 90.359 125.747 90.2158 125.958 90.0192C126.169 89.8225 126.329 89.5781 126.426 89.3065C126.453 89.0483 126.414 88.7876 126.312 88.5486C126.211 88.3095 126.052 88.0999 125.848 87.9392C125.337 87.848 124.811 87.9018 124.329 88.0944C123.371 88.4457 122.358 88.6243 121.338 88.6219C117.592 87.5398 113.631 87.4441 109.837 88.3442C109.521 87.617 109.349 86.8352 109.332 86.0424C109.42 85.6992 109.593 85.3835 109.834 85.1237C110.075 84.8639 110.377 84.6681 110.713 84.554C115.01 84.851 119.295 85.3656 123.591 85.7133C124.788 85.6902 125.981 85.5622 127.157 85.3307L127.878 99.7162L124.65 97.9978C124.552 100.451 123.389 100.567 121.474 100.352C117.838 99.9422 114.158 99.9876 110.248 99.8344L109.688 95.3021C114.417 95.8054 118.742 96.1241 123.018 96.7919C123.713 97.1245 124.508 97.1823 125.244 96.9536C125.98 96.725 126.603 96.2268 126.987 95.5587C126.909 95.2433 126.756 94.9513 126.541 94.7075C126.326 94.4638 126.056 94.2754 125.752 94.1585C125.449 94.0416 125.122 93.9995 124.799 94.0359C124.476 94.0723 124.167 94.186 123.897 94.3674H123.897ZM124.055 60.3397C122.911 62.9869 121.063 62.3305 119.188 61.9372C117.428 61.568 115.622 61.4381 113.84 61.1754C112.661 61.0016 111.797 60.593 112.471 59.1452C112.573 58.8147 112.637 58.474 112.664 58.1294C113.252 55.3198 113.269 55.4369 116.044 56.3883C119.419 57.5453 122.81 59.0428 126.559 57.6577C126.493 60.7005 126.555 63.3741 126.307 66.0132C125.959 66.8889 125.448 67.6909 124.802 68.3772C124.407 69.0443 124.109 69.7709 123.636 70.7421L111.09 68.969C111.265 67.1704 111.391 65.3546 111.68 63.5678C112.095 63.2536 112.618 63.1171 113.134 63.1882C116.473 63.6373 119.796 64.2431 123.142 64.6016C123.557 64.6077 123.968 64.523 124.347 64.3535C124.726 64.184 125.063 63.9338 125.335 63.6203C125.165 62.4433 124.727 61.321 124.055 60.3397H124.055ZM130.665 38.5648L130.266 41.8572C128.372 41.4079 126.393 40.4074 126.022 43.6117C123.858 43.1244 121.825 42.7469 119.856 42.1496C119.625 41.9376 119.449 41.672 119.344 41.3762C119.24 41.0803 119.209 40.7633 119.256 40.4529C119.662 39.3352 120.153 38.2501 120.724 37.2073L130.665 38.5648ZM124.687 30.7194L127.9 35.5534C127.353 35.4404 126.258 35.2754 125.196 34.9827C122.297 34.1836 122.08 33.269 124.687 30.7194H124.687ZM129.095 32.6323L129.231 32.0247C130.055 32.0183 130.871 32.1808 131.63 32.5022C131.983 33.1143 132.169 33.8091 132.167 34.5159L131.519 34.629L129.095 32.6323ZM119.62 44.8267C121.185 45.2904 122.807 45.5358 124.44 45.5561C126.065 45.6394 127.699 45.4559 129.522 45.3814L128.461 50.5594C124.657 49.766 121.009 47.9594 117.089 50.0791C118.608 52.8345 120.724 51.1071 122.451 51.3942C124.191 51.6836 125.934 51.9573 127.937 52.2797L127.589 53.9094L127.121 53.4873C126.27 54.0851 125.442 54.72 124.559 55.2675C124.048 55.7291 123.403 56.0148 122.717 56.0828C120.712 55.5623 118.746 54.9044 116.831 54.1139C116.364 53.9491 115.941 53.6777 115.597 53.3213C115.252 52.9648 114.995 52.5331 114.846 52.0601C114.698 51.5872 114.661 51.0862 114.739 50.5966C114.818 50.1071 115.009 49.6425 115.298 49.2397C115.837 48.2208 116.313 47.1698 116.723 46.0925C116.782 45.7874 116.915 45.5014 117.11 45.259C117.304 45.0165 117.555 44.8248 117.839 44.7004C118.124 44.5759 118.435 44.5224 118.745 44.5444C119.055 44.5664 119.355 44.6632 119.62 44.8267ZM124.023 72.6253C125.256 72.7294 126.394 72.583 126.315 74.4193L122.914 74.8355L123.533 76.3849L110.43 74.8136L110.507 71.2524C115.146 71.7354 119.58 72.2501 124.023 72.6253H124.023ZM126.601 77.8513L126.492 82.8935C125.778 82.3955 124.915 82.1597 124.047 82.2263C123.18 82.2928 122.362 82.6576 121.733 83.2586C121.285 83.4472 120.787 83.4829 120.316 83.3601C117.767 83.1376 115.215 82.9243 112.672 82.6294C109.848 82.3019 109.679 82.0808 109.845 79.2779C109.907 78.5828 110.006 77.8913 110.14 77.2063L126.601 77.8513ZM131.154 150.163C132.185 150.156 133.213 150.073 134.231 149.914C136.689 149.245 137.336 149.591 138.153 152.588C136.517 152.755 134.947 152.431 134.169 154.498C133.481 154.795 132.74 154.952 131.99 154.961C131.24 154.97 130.496 154.831 129.8 154.551C128.472 153.523 127.349 152.254 126.493 150.809C128.459 150.532 129.802 150.315 131.154 150.163ZM139.572 157.16L139.689 157.571L136.308 158.453L138.473 160.305C133.907 161.125 134.468 161.625 132.515 158.739L139.572 157.16ZM138.366 163.299C142.408 162.561 140.968 161.545 144.402 167.123C141.843 166.935 139.396 168.072 137.667 165.516C136.918 164.409 136.755 163.594 138.366 163.299H138.366ZM152.58 68.8569C150.251 69.6729 149.629 69.0699 149.58 67.6263C149.482 66.5195 149.444 65.4083 149.465 64.2974C149.785 63.9586 150.188 63.71 150.634 63.5764C150.966 64.3923 151.081 65.2798 150.97 66.1534C150.161 67.5223 149.856 68.4244 152.58 68.8569H152.58ZM155.65 73.1824C152.71 73.7627 151.013 73.3467 150.113 72.0249C152.187 70.7874 153.427 72.8726 155.651 73.1824H155.65ZM150.75 92.0323L154.258 92.5297L154.216 93.122L150.676 92.9833L150.75 92.0323ZM151.978 95.7981C152.715 95.8953 153.436 96.0896 154.121 96.376L151.325 97.8888C150.961 96.9336 149.859 95.8024 151.979 95.7981H151.978ZM154.563 102.397L152.358 104.093L151.252 101.4L154.563 102.397ZM152.104 106.194L156.275 107.448C153.144 108.58 151.921 108.118 152.105 106.194H152.104ZM153.352 176.282C153.364 176.17 153.376 176.06 153.386 175.94C153.435 175.953 153.483 175.971 153.531 175.986C153.642 175.861 153.791 175.777 153.955 175.746C154.119 175.715 154.289 175.74 154.437 175.816C154.667 175.914 154.901 176.001 155.14 176.076C155.427 175.928 155.747 175.854 156.07 175.86C156.428 175.87 156.775 175.985 157.07 176.188C157.14 176.172 157.209 176.158 157.279 176.136C157.404 176.091 157.538 176.077 157.669 176.096C157.801 176.114 157.925 176.166 158.032 176.245C158.056 176.213 158.08 176.187 158.105 176.153L158.592 176.718C158.691 179.745 158.776 182.772 158.892 185.799C159.087 190.829 159.294 195.86 159.515 200.889C159.595 202.624 159.69 204.366 159.923 206.088C160.188 208.047 158.958 208.203 157.552 208.296C157.28 208.352 156.997 208.34 156.73 208.262C156.463 208.184 156.218 208.042 156.018 207.848C155.818 207.655 155.668 207.415 155.582 207.15C155.495 206.886 155.474 206.604 155.521 206.33C155.321 204.268 154.952 202.226 154.417 200.225C153.612 196.612 153.266 192.911 153.39 189.211C153.357 185.424 153.271 181.636 153.228 177.849C153.229 177.516 153.251 177.183 153.291 176.853C153.262 176.661 153.283 176.464 153.352 176.282H153.352ZM165.232 196.872C165.484 199.707 165.912 202.525 166.515 205.307C166.713 206.519 166.977 207.791 165.28 208.057C163.778 208.292 162.111 208.618 161.822 206.331C161.472 203.568 161.008 200.804 160.886 198.033C160.625 192.075 160.539 186.112 160.415 180.151C160.397 179.267 160.698 178.372 160.619 177.499C160.578 177.15 160.618 176.797 160.735 176.467C160.853 176.137 161.046 175.838 161.298 175.594C161.55 175.351 161.855 175.168 162.189 175.062C162.523 174.956 162.878 174.928 163.224 174.981C164.765 174.796 164.969 176.214 165.083 177.23C165.329 179.427 165.349 181.646 165.453 183.694C165.355 188.197 165.077 192.538 165.232 196.872H165.232ZM162.54 61.2321L162.034 56.2745L162.679 56.1935L163.504 61.1489L162.54 61.2321ZM157.105 225.802L156.974 225.797C156.938 227.442 156.929 229.088 156.859 230.731C156.776 232.681 155.178 232.4 153.943 232.589C152.445 232.819 152.577 231.631 152.311 230.716C151.722 229.162 151.216 227.577 150.795 225.969C150.09 221.96 149.549 217.923 149.054 213.886C149.087 213.597 149.196 213.322 149.37 213.088C149.543 212.854 149.774 212.67 150.04 212.553C151.964 212.356 153.913 212.371 155.854 212.309C156.077 212.261 156.309 212.273 156.527 212.342C156.744 212.412 156.94 212.537 157.095 212.705C157.25 212.873 157.358 213.079 157.409 213.302C157.46 213.524 157.452 213.757 157.386 213.975C157.238 217.915 157.191 221.859 157.105 225.802ZM152.991 202.385C153.237 203.749 153.401 205.126 153.483 206.509C153.453 206.904 153.33 207.286 153.125 207.625C152.92 207.964 152.637 208.249 152.301 208.459C152.071 208.592 151.813 208.669 151.548 208.686C151.282 208.702 151.017 208.657 150.772 208.554C150.526 208.451 150.308 208.293 150.135 208.092C149.961 207.891 149.835 207.652 149.769 207.395C149.091 205.8 148.551 204.15 148.157 202.462C147.608 198.206 147.34 193.918 146.959 189.642L147.224 189.619C146.851 186.392 146.451 183.166 146.12 179.935C146.057 178.963 146.063 177.988 146.138 177.018C146.136 176.749 146.241 176.49 146.43 176.299C147.776 176.084 149.143 176.034 150.501 176.149C150.827 176.366 151.099 176.655 151.296 176.994C151.493 177.333 151.609 177.712 151.635 178.103C151.803 181.935 151.69 185.776 151.899 189.605C152.133 193.87 152.594 198.127 152.991 202.385ZM146.745 206.429C146.829 207.232 146.872 208.039 146.931 208.811C142.978 209.598 141.826 208.531 141.303 204.556C140.36 197.382 139.186 190.234 138.147 183.07C137.851 181.031 137.647 178.976 137.503 176.923C137.572 176.722 137.687 176.54 137.838 176.391C137.989 176.241 138.172 176.129 138.374 176.062C138.785 175.989 139.209 176.037 139.593 176.201C141.078 176.664 143.139 175.193 144.051 177.182C144.589 178.683 144.857 180.268 144.843 181.862C145.122 186.129 145.202 190.407 145.525 194.671C145.823 198.597 146.336 202.51 146.745 206.429L146.745 206.429ZM138.186 212.041C140.402 212.131 142.607 212.39 144.783 212.816C145.249 212.995 145.668 213.277 146.008 213.642C146.348 214.007 146.601 214.444 146.748 214.92C147.887 220.137 148.86 225.388 149.808 230.641C150.159 232.584 149.417 233.632 147.1 232.885L146.891 233.481C145.982 232.958 145.177 232.272 144.516 231.457C142.947 228.424 141.565 225.292 140.199 222.161C139.035 219.495 138.045 216.755 136.87 214.094C136.198 212.574 136.679 211.934 138.186 212.041L138.186 212.041ZM168.25 236.355L149.473 237.67L149.331 236.792C155.593 236.161 161.804 234.945 168.25 236.354L168.25 236.355ZM163.446 230.543C162.922 232.679 161.521 232.519 159.428 232.116L159.841 213.138C160.868 212.746 161.778 212.393 162.694 212.052C163.14 211.87 163.597 211.716 164.062 211.59C167.246 210.835 168.292 211.829 167.498 214.942C166.17 220.149 164.727 225.325 163.446 230.543L163.446 230.543ZM178.357 163.595L178.39 162.94L182.682 163.108L182.647 163.763L178.357 163.595ZM180.409 158.997C180.749 158.647 181.168 158.384 181.63 158.231C182.093 158.078 182.586 158.039 183.067 158.117C183.549 158.195 184.004 158.389 184.394 158.681C184.785 158.972 185.099 159.354 185.31 159.794L180.409 158.997ZM183.037 154.709C182.316 154.217 181.709 153.577 181.256 152.832L191.308 152.156L190.533 154.694C189.228 154.643 188.456 154.573 187.689 154.591C186.141 154.708 184.589 154.748 183.037 154.709L183.037 154.709ZM188.448 149.746C186.876 149.859 185.3 149.878 183.726 149.803C183.579 149.693 183.459 149.55 183.375 149.387C183.292 149.223 183.247 149.043 183.243 148.859C183.47 148.338 183.892 147.926 184.42 147.714C186.003 147.62 187.604 147.765 189.198 147.791C190.228 147.808 191.259 147.773 192.691 147.757L192.134 149.713L191.733 149.058C190.654 149.357 189.556 149.587 188.448 149.746L188.448 149.746ZM185.686 142.705C186.846 142.757 187.995 142.949 189.11 143.275C189.508 143.537 189.839 143.888 190.077 144.301C189.729 144.7 189.285 145.004 188.787 145.184C187.293 145.156 185.799 144.923 184.329 144.771C183.772 143.324 184.44 142.678 185.686 142.705L185.686 142.705ZM185.075 137.169L185.866 136.851C187.278 137.418 188.715 137.932 190.087 138.585C190.471 138.911 190.781 139.314 190.998 139.768C190.631 140.102 190.189 140.342 189.709 140.467C188.394 140.489 187.088 140.255 185.862 139.778C185.372 138.994 185.1 138.094 185.075 137.169L185.075 137.169ZM192.846 138.116L195.505 137.234L194.755 140.6L194.222 140.611L192.846 138.116ZM191.64 134.588C190.021 134.875 188.352 134.643 186.873 133.923C186.558 133.346 186.463 132.674 186.606 132.031C186.778 131.848 186.989 131.706 187.223 131.613C187.457 131.521 187.708 131.481 187.959 131.497C189.734 131.704 191.518 131.812 193.305 131.821C194.335 131.603 195.27 131.066 195.977 130.286C196.045 129.969 196.037 129.639 195.953 129.325C195.869 129.011 195.712 128.722 195.494 128.48C195.22 128.299 194.906 128.189 194.579 128.16C194.252 128.131 193.923 128.185 193.622 128.317C191.797 130.318 189.745 129.052 188.023 128.446C187.757 128.33 187.523 128.151 187.342 127.924C187.161 127.696 187.039 127.428 186.986 127.142C186.933 126.856 186.952 126.562 187.04 126.285C187.128 126.008 187.283 125.757 187.49 125.555L198.033 125.968C197.442 129.052 196.841 132.184 196.137 135.851C194.542 133.783 193.575 133.175 191.64 134.588ZM194.893 123.061C193.717 123.454 192.466 123.57 191.238 123.4C190.01 123.23 188.838 122.779 187.812 122.082C187.494 120.903 187.425 119.67 187.608 118.463C190.16 118.711 192.426 118.982 194.698 119.125C195.448 119.203 196.203 119.049 196.862 118.684C197.1 118.466 197.287 118.197 197.408 117.898C197.53 117.599 197.583 117.277 197.564 116.954C197.419 116.716 197.219 116.515 196.981 116.368C196.743 116.221 196.474 116.132 196.195 116.109C194.75 116.081 193.301 116.389 191.861 116.314C190.76 116.219 189.681 115.941 188.671 115.491C188.266 115.129 187.955 114.674 187.763 114.165C188.234 113.883 188.747 113.68 189.282 113.564C191.754 113.459 194.242 113.559 196.698 113.334C197.095 113.213 197.465 113.014 197.786 112.749C198.106 112.484 198.37 112.157 198.564 111.789C198.617 111.499 198.599 111.199 198.51 110.917C198.422 110.635 198.266 110.379 198.056 110.171C197.234 109.899 196.339 109.951 195.554 110.317C193.346 112.09 191.042 110.866 188.835 110.517C188.29 109.599 187.941 108.577 187.81 107.517C192.654 109.598 197.317 109.577 198.116 107.622C195.24 106.866 192.366 106.124 189.503 105.341C189.104 105.174 188.727 104.956 188.384 104.692C188.669 104.292 189.037 103.959 189.464 103.716C190.728 103.384 192.036 103.202 193.331 102.987C195.569 102.617 197.81 102.267 200.097 101.9C200.066 109.338 199.471 116.764 198.316 124.112C197.1 122.204 196.159 122.165 194.893 123.061H194.893ZM188.569 84.7229C187.746 80.2579 187.746 80.2473 191.999 80.4878C193.027 80.546 194.051 80.7491 195.079 80.7947C196.038 80.8373 197 80.759 198.071 80.7309L198.615 83.7043C195.466 86.6595 191.987 84.7245 188.569 84.7229ZM196.708 76.8149C196.356 77.4628 195.781 77.9602 195.089 78.2138C194.397 78.4674 193.636 78.4598 192.949 78.1925C192.184 77.9132 191.369 77.7965 190.556 77.8499C187.757 78.5529 187.329 77.1043 187.56 74.8616C187.544 74.5395 187.48 74.2215 187.371 73.9183C190.324 72.8966 193.561 75.4873 196.69 72.6328C196.942 74.015 196.948 75.4307 196.708 76.8149ZM195.608 71.3654L186.685 71.0159L185.5 66.6578C188.491 66.8638 191.468 67.2422 194.416 67.7912C195.244 68.619 195.84 69.6506 196.143 70.782L195.608 71.3654ZM191.48 64.8032C189.415 64.7114 187.358 64.3206 185.158 64.0301L184.486 60.2576C186.919 59.9709 189.377 59.9501 191.815 60.1954C192.796 61.2114 193.494 62.4665 193.839 63.8358C193.126 64.3149 192.323 64.6441 191.48 64.8031V64.8032ZM190.033 57.9077C183.694 58.281 183.555 58.2261 182.447 54.7118L190.088 55.3799L190.033 57.9077ZM179.721 47.7837C181.87 47.868 184.079 47.8192 186.258 48.0759C188.686 48.3621 188.367 50.4713 188.785 52.0895C187.911 52.4558 186.971 52.6337 186.024 52.6118C185.077 52.5898 184.146 52.3685 183.29 51.9621C182.435 51.5558 181.675 50.9736 181.06 50.2537C180.445 49.5337 179.988 48.692 179.721 47.7837V47.7837ZM179.325 44.5619C178.247 43.6683 177.348 42.5788 176.674 41.351C183.025 41.7549 184.146 42.0935 184.265 45.542C182.583 45.428 180.923 45.0986 179.325 44.5619ZM179.397 37.8005C179.279 37.9434 179.133 38.0596 178.967 38.1415C178.801 38.2234 178.619 38.2691 178.434 38.2754C175.372 38.6354 175.37 38.6239 174.77 34.991C176.174 35.5826 177.595 36.1374 178.967 36.798C179.117 36.9149 179.236 37.0683 179.311 37.2436C179.387 37.419 179.416 37.6106 179.397 37.8005ZM148.892 53.2955C151.005 53.9485 151.394 54.8678 150.529 57.1183L151.95 58.3412L148.757 59.5085L148.892 53.2955ZM146.362 12.5153C147.094 12.6077 147.764 12.9731 148.239 13.5384C148.714 14.1037 148.957 14.8273 148.921 15.5645C147.565 15.762 146.166 16.205 145.578 14.6342C145.548 14.2454 145.602 13.8547 145.738 13.4889C145.873 13.1231 146.086 12.791 146.362 12.5153ZM147.827 41.594L147.035 32.2717C148.566 34.1111 149.229 40.1042 147.827 41.594ZM141.097 17.081C141.296 16.124 141.534 15.1752 141.754 14.2228L142.418 14.2726C142.589 14.8401 142.723 15.4185 142.817 16.0038C143.371 21.7026 143.988 27.3982 144.411 33.1048C144.423 38.6083 144.772 44.1059 145.457 49.5666C146.915 56.8418 146.271 64.1441 147.197 71.4009C147.718 75.4839 147.342 79.6591 147.503 83.7899C147.734 89.7239 147.994 95.6603 148.42 101.586C148.674 105.118 149.37 108.625 149.679 112.156C149.89 114.559 149.674 116.988 149.827 119.397C150.084 123.45 150.562 127.494 150.798 131.547C150.984 134.731 150.88 137.926 151.027 141.113C151.138 143.504 151.46 145.888 151.656 148.278C151.854 150.687 151.986 153.101 152.194 155.51C152.427 158.2 152.733 160.884 152.957 163.573C152.952 164.167 152.891 164.759 152.773 165.341L152.701 165.348C152.717 165.455 152.74 165.56 152.755 165.667C152.829 166.164 152.719 166.672 152.445 167.094C152.171 167.516 151.752 167.823 151.267 167.958C151.329 168.109 151.393 168.26 151.454 168.411C151.216 168.298 150.984 168.18 150.756 168.058C150.384 168.108 150.006 168.027 149.688 167.828C149.369 167.63 149.129 167.327 149.01 166.971C146.965 165.509 145.438 163.433 144.653 161.044C141.864 152.839 138.709 144.739 136.268 136.44C134.974 131.112 133.959 125.72 133.229 120.287C132.601 116.845 131.929 113.41 131.333 109.964C131.193 109.155 131.314 108.308 131.256 107.482C130.861 101.916 130.384 96.3523 130.063 90.7829C129.821 86.5934 129.671 82.4002 129.513 78.2075C128.801 74.5064 128.465 70.7427 128.511 66.974C128.576 60.5666 129.834 54.2274 132.221 48.2808C132.27 48.1665 132.323 48.0551 132.379 47.9452C132.658 45.8764 133.005 43.817 133.394 41.7794C134.437 36.6986 135.757 31.6786 137.349 26.7419C138.24 24.6946 139.237 22.6949 140.335 20.7508C140.707 19.555 140.962 18.3261 141.097 17.0812V17.081ZM138.672 10.6553L139.48 11.3679L135.167 18.9434L130.906 19.1755C133.703 16.238 135.232 12.4769 138.672 10.6553ZM129.627 27.986L129.214 28.4232L126.253 27.3686L127.59 24.3103L129.627 27.986ZM107.111 140.365C102.372 134.126 98.4962 127.276 95.5866 120.002C94.9406 118.021 94.434 115.997 94.0702 113.945C93.1872 110.372 92.3493 106.786 91.3927 103.231C89.7965 97.5732 89.1335 91.6925 89.43 85.8209C89.7573 80.394 89.7704 74.9292 90.3793 69.5406C91.3793 62.6783 93.8562 56.1148 97.639 50.3027C98.9737 48.0786 99.8116 45.5339 101.262 43.4018C103.435 40.0168 105.895 36.8261 108.617 33.8651C113.388 28.9592 118.519 24.4017 123.55 19.7545C124.404 19.1085 125.321 18.551 126.287 18.0906L126.707 18.5136C125.504 20.2378 124.389 22.0226 123.368 23.8609C121.99 26.6299 120.805 29.5019 119.637 32.3717C117.555 37.4842 115.489 42.6047 113.525 47.7646C111.409 53.324 109.349 58.9084 107.41 64.5343C106.864 66.2948 106.526 68.1132 106.402 69.9523C105.459 76.8828 105.072 83.8778 105.245 90.8701C105.322 95.0743 105.91 99.2535 106.996 103.316C107.361 104.483 107.809 105.633 108.088 106.82C109.446 112.596 110.612 118.419 112.145 124.15C113.082 127.326 114.245 130.429 115.627 133.438C117.901 138.731 120.17 144.039 122.75 149.19C124.331 152.061 126.114 154.816 128.086 157.434C130.231 160.52 132.486 163.531 134.713 166.56C135.525 167.665 136.394 168.729 137.236 169.812L136.903 170.354C136.305 170.043 135.722 169.703 135.159 169.333C134.126 168.585 133.159 167.745 132.122 167.005C129.897 165.285 127.582 163.684 125.188 162.21C121.529 159.66 118.392 156.434 115.947 152.705C112.752 148.794 110.177 144.388 107.111 140.365ZM124.959 202.412C124.246 197.698 123.174 193.033 122.391 188.326C121.542 184.251 120.056 180.335 117.987 176.723C116.813 174.447 115.641 172.172 114.393 169.751C115.573 169.629 116.759 169.912 117.757 170.553C118.755 171.194 119.506 172.156 119.886 173.279C121.872 176.86 123.451 180.652 124.594 184.583C126.163 190.094 127.189 195.755 128.324 201.374C128.512 202.937 128.576 204.513 128.514 206.086C127.595 205.96 126.746 205.53 126.101 204.863C125.457 204.197 125.055 203.334 124.959 202.412ZM130.852 223.911C129.278 219.483 127.817 215.017 126.304 210.552C128.226 210.322 130.171 210.74 131.828 211.74C133.486 212.74 134.762 214.265 135.455 216.073C137.6 220.896 139.704 225.737 141.764 230.596C142.023 231.365 142.216 232.156 142.34 232.958C141.538 233.389 140.652 233.645 139.743 233.708C138.834 233.772 137.922 233.641 137.067 233.326C136.212 233.011 135.434 232.518 134.784 231.88C134.133 231.241 133.626 230.472 133.295 229.623C132.383 227.763 131.568 225.856 130.852 223.911ZM132.679 247.136C133.556 245.349 134.242 243.451 135.272 241.764C135.558 241.456 135.912 241.22 136.306 241.073C136.7 240.927 137.123 240.874 137.54 240.921C140.101 241.318 142.475 242.903 145.256 242.131C145.571 242.303 145.846 242.54 146.063 242.826C146.28 243.112 146.434 243.441 146.515 243.79C146.627 245.991 146.483 248.201 146.436 250.407C146.415 251.372 146.394 252.338 146.369 253.493C141.945 253.028 137.653 251.708 133.733 249.606C133.478 249.548 133.24 249.43 133.038 249.262C132.837 249.094 132.678 248.881 132.576 248.64C132.473 248.399 132.428 248.137 132.446 247.875C132.465 247.614 132.544 247.36 132.679 247.136H132.679ZM130.164 253.84C130.192 253.569 130.284 253.309 130.432 253.082C130.58 252.854 130.781 252.665 131.017 252.531C132.003 252.654 132.965 252.921 133.875 253.321C133.88 253.846 133.749 254.363 133.495 254.821C132.792 255.783 131.942 256.636 130.738 258.002C130.464 256.627 130.273 255.237 130.164 253.84H130.164ZM157.155 276.647C156.852 279.587 156.366 282.508 155.878 285.422C155.486 287.765 154.396 288.503 152.237 287.709C148.778 286.436 145.384 284.982 141.959 283.614C138.793 282.348 135.643 281.034 132.444 279.864C131.842 279.719 131.313 279.36 130.956 278.854C130.598 278.348 130.437 277.73 130.501 277.114C130.503 274.836 130.32 272.556 130.237 270.276C130.183 268.786 130.828 268.185 132.311 268.77C132.905 269.254 133.649 269.517 134.415 269.515C135.182 269.513 135.924 269.245 136.515 268.757C137.913 267.302 138.932 265.526 139.484 263.586C139.656 260.931 139.543 258.266 139.149 255.635L150.817 259.604C149.989 260.855 149.462 261.776 148.818 262.605C148.114 263.335 147.605 264.23 147.337 265.208C147.07 266.186 147.052 267.216 147.285 268.202C147.518 269.189 147.995 270.101 148.673 270.856C149.35 271.61 150.206 272.183 151.162 272.52C153.099 273.309 154.313 272.835 157.337 269.781C157.28 272.432 157.37 274.558 157.155 276.647ZM154.813 255.59C154.481 255.375 154.105 255.237 153.713 255.184C153.321 255.131 152.922 255.166 152.545 255.286C152.107 255.448 151.635 255.498 151.172 255.43C150.71 255.361 150.273 255.177 149.9 254.895C149.528 254.612 149.233 254.241 149.043 253.814C148.852 253.387 148.773 252.919 148.811 252.453C148.898 249.229 148.956 246.004 149.029 242.646C151.115 242.728 152.635 242.786 154.155 242.848C155.23 242.955 156.311 242.992 157.391 242.96C157.761 242.86 158.149 242.843 158.527 242.909C158.905 242.975 159.263 243.123 159.578 243.342C159.893 243.562 160.156 243.847 160.349 244.178C160.542 244.51 160.661 244.879 160.696 245.261C161.372 248.513 162.224 251.734 162.81 254.998C162.797 255.388 162.686 255.768 162.486 256.103C162.287 256.437 162.005 256.716 161.668 256.912C160.541 257.484 159.255 257.665 158.014 257.425C156.773 257.186 155.647 256.54 154.813 255.59L154.813 255.59ZM181.745 255.163C181.854 257.767 181.712 260.375 181.775 262.981C181.847 265.997 182.096 269.011 182.17 272.026C182.496 274.159 182.405 276.336 181.902 278.435C180.895 280.018 179.387 281.219 177.617 281.846C173.203 283.879 168.643 285.601 164.157 287.484C162.613 288.132 161.117 288.891 159.321 289.729C159.462 287.61 159.569 285.791 159.705 283.975C160.054 279.325 160.506 274.684 160.734 270.026C160.827 267.542 160.734 265.054 160.456 262.583C160.379 262.376 160.35 262.153 160.371 261.933C160.393 261.713 160.465 261.501 160.582 261.313C160.699 261.126 160.858 260.967 161.046 260.851C161.234 260.734 161.446 260.662 161.666 260.64C163.792 260.188 165.917 259.733 167.93 259.303C167.779 261.372 167.748 263.447 167.837 265.519C167.973 266.365 168.308 267.167 168.812 267.86C169.317 268.553 169.978 269.117 170.742 269.506C171.505 269.896 172.35 270.099 173.207 270.101C174.064 270.103 174.91 269.902 175.675 269.516C179.257 267.385 180.893 265.753 177.855 261.191C176.812 259.625 175.727 258.087 174.487 256.283C176.476 255.485 178.433 254.629 180.457 253.968C180.751 254.05 181.022 254.202 181.246 254.41C181.47 254.617 181.641 254.876 181.746 255.163L181.745 255.163ZM178.084 247.919C178.828 249.158 179.112 250.341 177.539 250.999C173.817 252.554 170.064 254.032 166.277 255.431C165.988 255.362 165.72 255.225 165.494 255.032C165.268 254.84 165.09 254.596 164.976 254.322C164.311 251 163.837 247.643 163.184 244.319C163.094 244.133 163.052 243.927 163.064 243.721C163.075 243.515 163.138 243.315 163.247 243.14C163.357 242.965 163.509 242.821 163.689 242.72C163.87 242.62 164.073 242.568 164.279 242.567C167.216 242.137 170.159 241.747 173.588 241.274C174.245 241.873 174.845 242.531 175.381 243.241C176.357 244.753 177.157 246.375 178.084 247.919L178.084 247.919ZM176.644 217.191C175.999 219.871 175.442 222.588 174.563 225.189C174.075 227.266 173.102 229.198 171.723 230.827C170.042 231.752 168.186 232.312 166.274 232.471L165.408 231.624C166.281 227.707 167.091 223.772 168.049 219.877C168.713 217.179 169.539 214.52 170.399 211.879C170.522 211.624 170.701 211.398 170.921 211.22C171.142 211.042 171.4 210.914 171.675 210.848C173.759 210.444 175.872 210.182 178.301 209.819C177.72 212.418 177.216 214.813 176.644 217.191H176.644ZM192.221 169.761C189.382 176.16 186.229 182.437 183.795 188.993C181.968 193.914 181.079 199.197 179.726 204.306C179.56 204.868 179.236 205.37 178.792 205.753C178.605 205.806 178.408 205.814 178.216 205.779C178.025 205.744 177.844 205.665 177.688 205.549C177.587 204.984 177.582 204.406 177.672 203.839C177.866 201.873 178.143 199.916 178.292 197.947C178.762 191.56 180.372 185.309 183.047 179.491C183.505 178.269 184.048 177.081 184.673 175.935C184.983 175.51 185.365 175.144 185.801 174.851C186.775 172.697 187.893 170.611 189.146 168.606C189.202 168.492 189.285 168.392 189.387 168.316C189.49 168.24 189.609 168.189 189.734 168.168C189.781 168.094 189.824 168.018 189.874 167.946C190.749 167.033 191.769 166.271 192.893 165.69L193.645 166.439C193.171 167.547 192.71 168.66 192.221 169.761H192.221ZM213.01 109.241C212.787 112.724 212.044 116.165 211.518 119.622C211.321 121.96 210.936 124.278 210.367 126.554C208.988 130.798 207.326 134.952 205.637 139.082C203.821 143.522 201.963 147.953 199.888 152.271C198.6 155.794 195.993 158.678 192.617 160.312C191.661 160.942 190.827 161.74 190.156 162.668L189.653 162.341C189.862 161.873 190.052 161.397 190.281 160.941C192.415 157.627 194.145 154.071 195.435 150.347C196.766 144.394 199.605 138.865 199.651 132.504C199.681 128.503 201.249 124.564 201.645 120.542C202.234 114.556 202.448 108.524 202.719 102.505C202.856 99.4806 202.826 96.4416 202.754 93.4099C202.718 91.9294 202.406 90.4514 202.234 88.9709C201.975 86.7359 201.807 84.4889 201.459 82.2666C200.826 78.2296 200.176 74.1914 199.369 70.1838C198.734 67.0312 197.969 63.8909 197.04 60.8086C196.403 58.6956 195.342 56.7072 194.543 54.6361C192.531 48.426 189.716 42.5049 186.172 37.0229C183.144 32.4139 179.378 28.3351 175.025 24.9503C172.761 23.3525 170.866 21.2318 168.755 19.4042C167.706 18.4959 166.53 17.7373 165.442 16.8719C162.827 14.7929 160.231 12.6907 157.628 10.5979C160.562 10.8301 163.366 11.9128 165.694 13.7136C170.013 16.8076 174.419 19.7775 178.912 22.6232C183.431 25.4494 187.445 29.0117 190.789 33.1627C195.043 38.2879 198.958 43.6847 202.51 49.319C204.995 53.6637 206.715 58.4025 207.597 63.3292C208.262 66.6359 209.4 69.8533 210.135 73.1501C211.119 77.5677 212.132 81.9986 212.728 86.4709C213.053 89.8849 213.172 93.3156 213.083 96.744C213.128 100.912 213.275 105.095 213.01 109.241ZM211.552 63.8361C214.419 63.8661 213.258 66.7521 215.018 67.6286C212.423 68.5566 211.655 67.6093 211.552 63.8362L211.552 63.8361ZM221.728 87.713C220.169 87.1644 218.586 86.6738 217.063 86.0338C216.558 85.7342 216.145 85.3016 215.869 84.7832C215.885 84.6274 215.934 84.4769 216.014 84.342C216.094 84.2071 216.201 84.0911 216.33 84.002C216.859 84.0245 217.372 84.182 217.822 84.4597C219.214 85.452 220.546 86.5292 221.901 87.5741L221.728 87.713Z" fill="#DDE7DC"/>
</svg>
