<svg width="300" height="300" viewBox="0 0 300 300" fill="none" xmlns="http://www.w3.org/2000/svg">
<path d="M76.4438 212.141C75.7665 211.133 75.3813 209.958 75.3306 208.744C75.28 207.531 75.5659 206.328 76.1568 205.267C77.3201 203.643 78.7757 202.25 80.4491 201.158C85.1085 198.321 90.6499 197.3 96.0144 198.291C96.3384 198.322 96.6641 198.332 96.9894 198.321C95.2158 191.986 93.0868 185.716 91.7924 179.278C91.0853 175.048 90.9123 170.747 91.2773 166.474C91.5745 161.129 92.4446 155.815 93.083 150.49C93.1131 149.978 93.2421 149.477 93.463 149.015C93.7544 148.655 94.102 148.344 94.4924 148.095C94.858 148.398 95.1407 148.789 95.3141 149.232C95.5927 152.972 96.9336 156.555 99.1791 159.559C101.114 162.838 103.46 165.875 105.626 169.018L106.334 168.63L104.774 163.266C104.848 161.928 104.831 160.248 105.051 158.599C105.974 151.673 107.02 144.764 107.91 137.834C108.337 134.515 108.666 131.17 108.77 127.828C108.893 124.346 108.82 120.86 108.551 117.386C108.027 112.352 105.892 107.622 102.463 103.9C101.799 103.125 101.07 102.399 100.482 101.572C100.354 101.389 100.271 101.179 100.24 100.959C100.208 100.738 100.228 100.514 100.299 100.303C100.688 100.021 101.166 99.8918 101.643 99.9395C102.01 99.9822 102.354 100.138 102.628 100.385C106.022 103.127 109.511 105.766 112.757 108.674C116.951 112.432 118.551 117.843 121.144 122.616C121.225 122.801 121.342 122.969 121.489 123.108C121.636 123.248 121.808 123.356 121.998 123.428C121.755 120.295 121.66 117.141 121.238 114.032C120.656 107.788 120.965 101.492 122.157 95.3353C123.009 88.6988 124.62 82.182 126.958 75.9133C129.152 71.3808 131.978 67.1831 135.352 63.4459C138.921 59.2819 143.057 55.6391 147.638 52.6241C152.727 48.9538 156.271 43.5236 157.583 37.3874C157.551 35.5999 157.219 33.8304 156.6 32.1531C156.529 31.3128 156.531 30.468 156.604 29.6279C157.364 29.933 158.059 30.3816 158.649 30.9492C161.473 35.2096 164.06 39.6319 166.975 43.8263C169.271 47.4414 170.842 51.4688 171.599 55.6839C173.205 61.9934 172.304 68.6798 169.085 74.3391C166.124 80.3663 164.058 86.7928 162.95 93.4161C162.595 96.0264 162.492 98.6649 162.643 101.295C162.759 107.853 164.273 114.312 167.083 120.238C168.045 122.595 168.669 122.908 170.425 121.022C172.383 118.768 174.174 116.374 175.783 113.859C179.708 108.34 181.585 101.624 181.09 94.8687C181.045 94.2291 180.804 93.6032 180.761 92.9636C180.758 92.389 180.797 91.8149 180.876 91.2458C181.454 91.426 181.99 91.7195 182.454 92.1093C184.492 94.85 186.516 97.6076 188.404 100.453C190.647 103.315 192.533 106.44 194.019 109.758C194.89 112.997 195.193 116.362 194.917 119.704C194.873 126.08 193.355 132.359 190.481 138.05C190.317 138.377 190.173 138.713 190.052 139.058C190.026 139.346 190.03 139.636 190.064 139.923C191.953 139.11 193.737 138.073 195.38 136.835C197.917 134.262 200.305 131.547 202.534 128.704C203.392 127.661 204.424 127.514 204.984 128.803C207.311 132.944 208.783 137.51 209.312 142.231C209.422 148.5 209.659 154.771 209.555 161.037C209.351 163.71 208.926 166.361 208.285 168.963C207.429 173.567 206.567 178.171 205.61 182.755C205.2 184.526 204.689 186.272 204.079 187.985C203.332 190.233 202.503 192.454 201.623 194.93C205.999 194.021 210.064 190.851 214.318 194.768C217.436 197.638 222.119 199.077 222.629 204.201C225.289 205.517 227.831 207.06 230.226 208.813C231.798 210.609 233.189 212.555 234.378 214.624C236.28 217.59 237.203 221.079 237.019 224.598C237.015 225.301 236.842 225.994 236.515 226.617C236.187 227.239 235.715 227.775 235.138 228.177C234.561 228.58 233.896 228.838 233.199 228.93C232.501 229.022 231.792 228.945 231.13 228.706C232.59 227.802 233.841 226.599 234.802 225.176C235.124 223.449 234.962 221.667 234.333 220.027C233.921 218.479 234.199 216.238 231.508 215.924C232.284 217.971 233.043 219.825 233.691 221.718C234.718 224.715 233.885 225.701 230.044 225.383L232.611 223.329C233.724 218.935 229.676 220.94 227.314 219.831L230.333 218.456L226.274 211.837L229.764 212.105L230.041 214.006L230.908 213.779C230.731 212.765 230.318 211.806 229.702 210.98C227.436 209.412 225.063 208.004 222.6 206.767C222.247 206.716 221.886 206.745 221.546 206.854C221.206 206.963 220.895 207.147 220.637 207.394C219.668 208.167 219.016 209.268 218.804 210.49C218.593 211.711 218.837 212.968 219.491 214.021C220.408 216.521 220.771 219.191 220.554 221.846C220.332 223.08 220.594 224.352 221.285 225.399C221.976 226.445 223.043 227.186 224.265 227.467C226.77 228.286 229.503 228.427 231.356 230.911C233.361 233.867 234.609 237.27 234.988 240.821C234.949 241.401 234.717 241.95 234.33 242.383C232.508 244.863 230.176 246.922 227.491 248.424C224.806 249.925 221.83 250.833 218.764 251.086C218.321 250.977 217.911 250.759 217.574 250.452C217.896 250.049 218.291 249.711 218.739 249.455C221.373 248.612 224.04 247.871 226.683 247.055C227.24 246.806 227.772 246.507 228.274 246.162L222.899 245.203L222.992 244.267C223.635 244.128 224.291 244.067 224.949 244.084C227.012 244.378 227.423 243.328 226.991 241.649C226.519 239.817 225.92 238.019 225.404 236.198C224.892 234.649 224.639 233.027 224.654 231.396L226.055 234.73L228.723 232.593L230.751 234.368L231.403 233.668C230.439 232.749 229.536 231.756 228.501 230.926C227.122 229.982 225.491 229.472 223.82 229.462C222.149 229.451 220.512 229.941 219.121 230.867C218.564 231.339 217.932 231.713 217.25 231.974C215.979 232.372 214.903 233.233 214.235 234.386C213.567 235.538 213.356 236.9 213.644 238.201C213.851 238.855 214.171 239.468 214.589 240.013C215.476 241.37 216.113 242.874 216.471 244.455C216.647 247.352 216.425 250.259 215.812 253.095C215.202 254.569 214.102 255.787 212.698 256.542C208.095 259.484 203.293 261.967 197.534 260.55C195.374 266.528 190.35 268.268 184.81 269.316C179.87 270.251 175.651 267.916 171.26 266.393C170.865 265.975 170.589 265.46 170.457 264.9C170.941 264.709 171.461 264.626 171.98 264.655C173.054 265.083 174.1 265.577 175.112 266.135L173.991 260.84C175.522 263.064 176.284 266.531 180.393 264.257C179.853 263.045 180.515 260.824 177.667 261.599L179.7 258.68C181.891 261.653 184.951 259.121 187.647 259.285C188.399 258.729 189.002 257.996 189.402 257.15C190.844 258.714 191.642 260.767 191.634 262.894C190.959 261.664 190.058 260.571 188.979 259.674C187.795 259.627 186.617 259.861 185.541 260.358C186.496 262.165 187.287 263.663 188.349 265.672C187.133 265.647 185.917 265.687 184.706 265.792C184.186 265.991 183.711 266.292 183.31 266.678C183.692 267.006 184.154 267.228 184.649 267.32C187.081 266.665 189.474 265.876 191.819 264.957C194.513 263.838 194.898 261.443 195.42 258.757C195.665 256.986 195.485 255.183 194.895 253.496C194.304 251.809 193.321 250.287 192.025 249.056C191.112 248.285 190.009 247.77 188.831 247.566C187.654 247.361 186.442 247.473 185.322 247.891C182.649 248.839 179.894 249.538 177.092 249.98C175.739 250.278 174.463 250.853 173.343 251.668C172.223 252.484 171.284 253.522 170.585 254.718C170.491 254.866 170.43 255.032 170.406 255.206C170.382 255.379 170.396 255.556 170.448 255.724C171.851 259.263 170.215 262.514 169.165 265.66C168.769 266.417 168.214 267.079 167.539 267.602C166.864 268.125 166.084 268.496 165.252 268.691C160.117 269.823 154.863 271.219 149.608 269.715C146.576 268.638 143.616 267.366 140.749 265.906C139.989 267.017 138.91 267.871 137.655 268.356C136.4 268.841 135.027 268.934 133.718 268.623C128.837 267.078 123.5 266.929 119.111 263.826C118.011 263.105 116.813 262.546 115.553 262.165C113.643 261.751 111.954 260.642 110.814 259.055C109.674 257.467 109.164 255.512 109.381 253.57C107.549 254.699 105.645 255.708 103.682 256.59C102.069 257.105 100.393 257.395 98.7 257.454C97.7114 257.537 96.6486 256.994 95.6921 257.158C93.9497 257.44 92.163 257.212 90.5468 256.503C88.9307 255.793 87.554 254.632 86.5823 253.158C85.3394 251.643 83.8068 250.361 82.5998 248.821C81.5789 247.684 80.8202 246.336 80.3774 244.873C80.3565 244.548 80.262 244.233 80.1011 243.95C79.9401 243.667 79.7169 243.424 79.4483 243.24C79.1797 243.057 78.8729 242.936 78.5509 242.888C78.2289 242.841 77.9003 242.867 77.59 242.965C76.4223 243.041 75.2517 242.871 74.1537 242.467C73.0556 242.062 72.0545 241.432 71.215 240.617C69.1485 238.879 66.9411 237.317 64.6154 235.945C63.8311 235.635 63.135 235.137 62.5886 234.495C62.0422 233.852 61.6623 233.085 61.4824 232.261C61.3025 231.437 61.3282 230.582 61.5571 229.77C61.786 228.959 62.2112 228.216 62.7951 227.607C63.3976 227.099 63.8011 226.394 63.9345 225.617C64.0678 224.84 63.9224 224.04 63.5239 223.36C63.1421 222.642 62.9229 221.849 62.8819 221.036C62.8409 220.224 62.9792 219.413 63.2867 218.66C63.5943 217.907 64.0638 217.231 64.6618 216.68C65.2598 216.128 65.9718 215.715 66.7472 215.47C68.9981 214.435 71.2046 213.291 73.5038 212.38C74.4726 212.151 75.4694 212.064 76.4633 212.121C76.0129 212.805 75.4386 213.4 74.7699 213.874C72.5769 214.827 70.2582 215.489 68.0564 216.424C67.1188 216.733 66.337 217.392 65.8748 218.265C65.4125 219.137 65.3056 220.154 65.5766 221.103L68.5798 218.851C68.3518 221.131 65.4641 221.522 65.9968 224.501L73.5887 218.801C72.7533 220.171 71.7295 221.416 70.5473 222.5C68.5058 224.576 66.3373 226.548 64.4816 228.78C64.066 229.2 63.7687 229.723 63.6195 230.296C63.4704 230.868 63.4748 231.469 63.6322 232.039C63.7896 232.609 64.0944 233.128 64.5161 233.542C64.9377 233.957 65.4613 234.253 66.0338 234.401C66.6185 234.661 67.2196 234.883 68.009 235.202C68.9268 232.324 64.9703 231.733 65.2378 230.026C66.1909 229.664 67.0979 229.191 67.94 228.616C68.5625 227.728 69.3625 226.979 70.2894 226.417C71.2163 225.854 72.2499 225.49 73.3248 225.348L70.2565 228.29L75.4636 233.112L77.484 230.674C77.1572 231.568 76.928 232.495 76.8003 233.439C77.428 234.198 78.2317 234.791 79.1413 235.169L82.2778 232.953L81.99 237.981L85.317 234.79C82.7563 232.474 80.9913 229.41 80.2733 226.033C79.4921 222.041 82.2792 219.761 84.4995 216.963C83.2089 216.329 81.9893 215.839 80.8836 215.162C79.3586 214.229 77.9196 213.155 76.4438 212.141ZM194.522 206.396C193.162 208.173 191.654 209.832 190.015 211.355C189.728 211.486 189.477 211.686 189.285 211.936C189.092 212.186 188.964 212.48 188.912 212.791C188.859 213.102 188.884 213.422 188.983 213.722C189.083 214.021 189.254 214.292 189.482 214.51C189.832 213.481 190.281 212.49 190.823 211.548C192.045 209.836 193.437 208.246 194.759 206.605C196.081 205.886 197.022 204.204 199.328 204.815L195.621 207.6C196.821 208.241 198.213 208.424 199.538 208.115C200.863 207.807 202.03 207.028 202.824 205.924L197.085 202.881C196.209 204.081 195.365 205.238 194.522 206.396H194.522ZM111.638 251.841C111.314 251.995 111.031 252.225 110.812 252.509C110.589 253.967 110.881 255.456 111.638 256.722C112.394 257.987 113.568 258.949 114.957 259.443C114.548 258.899 114.179 258.326 113.854 257.728C112.987 255.799 111.056 254.269 111.6 251.804C111.973 252.372 112.382 252.92 112.713 253.512C114.326 256.398 115.221 259.805 118.549 261.433C120.118 262.2 121.649 263.049 123.24 263.764C124.186 264.133 125.152 264.448 126.134 264.707C124.629 263.472 123.283 262.054 122.128 260.487C121.661 259.537 120.927 258.745 120.015 258.209C119.103 257.673 118.054 257.415 116.997 257.468L118.713 256.705L117.165 253.336L117.657 252.826C119.554 255.631 121.377 258.629 125.151 256.051C127.725 257.755 128.111 261.817 131.773 261.588C131.75 262.201 131.679 263.063 131.721 263.069C132.682 263.195 133.655 263.227 134.906 263.291L132.595 259.928L135.035 259.874L134.608 260.343C135.105 261.225 135.811 261.972 136.664 262.518C138.092 262.603 139.524 262.468 140.91 262.118C140.667 258.915 140.441 255.744 140.18 252.577C139.93 249.545 140.206 249.317 143.095 250.136C143.884 250.534 144.768 250.705 145.649 250.627C146.529 250.549 147.37 250.227 148.077 249.696L139.897 248.6L139.526 250.79C138.847 250.264 138.457 249.976 138.083 249.669C136.11 247.81 133.673 246.518 131.028 245.928C127.611 245.351 124.257 244.414 120.848 243.782C117.603 243.179 116.544 244.003 115.376 247.158C114.852 248.186 114.173 249.128 113.363 249.949C112.83 250.614 112.216 251.212 111.638 251.841ZM105.935 172.376C104.227 170.113 102.412 167.921 100.835 165.57C98.5041 162.097 96.3419 158.511 93.8338 154.539C93.4458 159.23 92.9736 163.603 92.7475 167.989C92.4348 174.487 93.3749 180.986 95.5165 187.129C96.4211 191.378 98.2143 195.387 100.779 198.894C102.287 201.718 104.036 204.408 106.006 206.931C109.54 210.788 113.526 214.236 117.393 217.778C118.184 218.423 119.101 218.895 120.085 219.165C122.216 219.916 124.399 220.511 126.617 220.947C128.7 221.169 130.795 221.262 132.89 221.224L131.912 218.593L132.386 218.037C133.19 219.004 134.246 219.729 135.438 220.131C136.629 220.533 137.909 220.597 139.135 220.315C142.108 220.032 145.102 220.033 148.075 220.32C154.607 221.142 161.237 220.683 167.593 218.968C171.943 217.813 176.225 216.366 180.469 214.859C182.6 214.135 184.631 213.144 186.514 211.91C192.443 207.667 197.016 201.796 199.679 195.009C202.384 187.883 204.534 180.558 206.11 173.1C206.855 169.394 207.373 165.645 207.662 161.876C208.361 154.265 208.013 146.594 206.628 139.077C205.995 136.466 205.116 133.922 204.003 131.477L203.16 131.454C200.735 134.085 198.372 136.776 195.867 139.329C193.429 141.812 190.845 144.153 188.325 146.557L187.367 145.571L191.904 141.707C190.126 142.445 188.408 143.323 186.767 144.331C186.182 144.412 185.585 144.347 185.031 144.143C185.142 143.499 185.337 142.873 185.612 142.281C186.681 140.584 188.036 139.047 188.948 137.277C191.073 132.489 192.421 127.393 192.94 122.181C194.681 111.441 189.604 103.737 182.788 96.4055C182.895 102.117 181.392 107.743 178.451 112.64C175.323 117.309 171.927 121.798 168.525 126.538C168.211 126.231 167.924 125.898 167.668 125.541C162.787 116.935 160.548 107.082 161.232 97.2119C162.007 88.7989 164.344 80.6041 168.123 73.0475C168.973 71.4392 169.583 69.7153 169.934 67.9304C170.746 62.8129 170.351 57.5765 168.781 52.6387C166.934 46.2479 162.597 41.4244 159.551 35.3729C158.859 41.7683 155.796 47.6722 150.965 51.9195C144.55 57.1079 137.809 61.9195 133.083 68.8547C131.239 71.3808 129.619 74.0637 128.243 76.8726C125.823 82.5002 124.326 88.481 123.808 94.585C122.907 100.116 122.475 105.713 122.516 111.317C123.055 118.992 124.788 126.582 125.953 134.217C125.99 135.09 125.93 135.963 125.773 136.823L125.095 136.814C123.572 132.967 122.189 129.056 120.488 125.289C118.921 121.44 117.007 117.741 114.768 114.239C112.202 110.979 109.417 107.897 106.434 105.014L105.796 105.54C106.191 106.296 106.585 107.051 106.98 107.807C108.271 110.276 109.751 112.666 110.815 115.228C113.145 120.842 115.273 126.54 117.468 132.209C119.226 136.747 120.982 141.287 122.7 145.84C124.696 150.144 127.73 153.885 131.53 156.726C131.226 155.384 130.901 154.046 130.621 152.698C129.574 147.656 128.421 142.63 127.568 137.555C127.502 135.665 127.569 133.774 127.768 131.894C127.125 119.848 127.763 107.768 129.67 95.8568C130.015 94.0686 130.243 92.2549 130.459 90.4451C130.711 85.4591 132.318 80.6364 135.107 76.4957C139.549 70.7125 144.186 65.0811 149.019 59.6015C153.501 54.5159 159.589 50.5858 160.189 42.907C160.434 42.5335 160.774 42.2317 161.174 42.0323C161.548 42.3299 161.847 42.7112 162.046 43.1453C161.974 43.9399 161.947 44.7381 161.966 45.5358C163.266 51.2383 163.596 57.119 162.942 62.9312C162.545 68.598 161.556 74.2076 159.989 79.668C157.237 87.3625 155.613 95.4148 155.168 103.575C154.947 113.484 158.16 123.166 164.261 130.977C165.347 132.359 166.168 133.947 167.334 135.792C169.336 132.899 171.029 130.363 172.812 127.893C177.719 121.093 184.339 115.327 185.703 106.387C185.99 105.959 186.384 105.612 186.846 105.382C187.142 105.817 187.369 106.294 187.522 106.797C187.685 107.938 187.532 109.142 187.807 110.246C189.688 118.992 189.175 128.082 186.32 136.56C185.047 140.939 183.402 145.211 181.925 149.531L182.473 150.088C190.63 148.853 198.017 144.575 203.148 138.114C203.597 139.191 203.893 140.325 204.029 141.484C203.853 143.566 203.368 145.621 203.069 147.695C202.177 153.882 201.198 160.059 200.472 166.266C199.654 172.539 198.108 178.696 195.864 184.611C193.705 189.849 190.988 194.839 187.76 199.495C184.703 204.81 179.727 208.753 173.854 210.513C172.901 210.88 171.97 211.301 171.066 211.774C168.232 213.058 165.331 214.188 162.375 215.158C159.747 215.771 157.076 216.18 154.386 216.383C151.22 216.89 148.028 217.21 144.825 217.344C137.48 217.047 130.189 215.952 123.082 214.077C119.389 213.382 116.062 211.399 113.694 208.481C110.227 203.988 105.118 202.019 100.747 198.925L100.258 196.319L107.126 201.803C104.98 198.78 103.109 195.571 101.534 192.215C100.053 188.175 99.6057 183.767 98.5193 179.568C97.5456 175.804 97.8959 171.679 95.5458 168.291C94.9821 167.529 94.6857 166.603 94.7027 165.656C94.7197 164.709 95.0491 163.794 95.6398 163.053C96.8165 164.994 97.9217 166.753 98.9644 168.548C102.144 174.023 105.51 179.295 112.284 181.176C111.749 177.531 110.976 173.895 110.727 170.223C110.426 163.376 111.086 156.521 112.688 149.858C114.372 143.801 114.592 137.431 113.33 131.272C112.784 129.222 112.578 127.096 112.719 124.979C112.883 122.461 112.158 119.965 110.672 117.926C110.503 121.888 110.316 126.209 110.134 130.531C109.982 134.124 109.081 137.763 111.166 141.178C111.711 142.301 112.142 143.476 112.451 144.686L111.933 144.911L109.401 140.339C106.624 145.251 108.971 149.771 109.976 154.339L109.429 154.499L107.382 150.614C106.947 156.493 104.959 161.927 109.182 166.938L107.612 166.566C107.603 168.751 109.21 171.327 105.886 172.343L105.935 172.376ZM116.236 133.82C115.602 139.152 115.237 144.516 114.277 149.772C112.36 157.773 111.826 166.043 112.696 174.225C113.08 176.656 113.712 179.047 114.164 181.47C114.348 182.109 114.31 182.792 114.057 183.408C113.798 183.564 113.505 183.656 113.203 183.675C112.902 183.695 112.599 183.642 112.322 183.52C110.275 182.581 108.311 181.469 106.452 180.197C103.911 178.314 101.591 176.133 99.2248 174.12C99.8968 178.031 100.423 182.134 101.352 186.144C101.812 189.014 102.801 191.775 104.267 194.285C107.555 198.758 111.086 203.046 114.844 207.132C116.039 208.607 117.545 209.8 119.253 210.628C126.323 213.156 133.685 214.776 141.163 215.448C143.109 215.77 145.087 215.86 147.054 215.716C149.867 215.38 152.661 214.9 155.424 214.279C159.264 213.5 163.149 212.844 166.889 211.718C169.593 210.84 172.188 209.655 174.623 208.187C177.802 206.628 180.758 204.648 183.41 202.302C192.497 192.997 196.128 181.14 198.107 168.658C199.075 162.558 199.883 156.431 200.702 150.308C200.964 148.354 201.03 146.374 201.208 144.128C193.998 147.391 187.876 152.181 179.602 151.867C179.821 150.896 179.929 150.205 180.133 149.544C181.936 143.702 184.065 137.938 185.472 132.003C186.428 127.379 187.021 122.688 187.245 117.972C187.198 115.93 186.936 113.898 186.465 111.91C182.447 119.294 168.844 137.087 166.286 137.758C164.958 135.595 163.693 133.39 162.28 131.285C161.186 130.114 160.195 128.851 159.32 127.509C156.57 121.717 154.661 115.561 153.653 109.229C152.91 100.841 153.994 92.3916 156.83 84.4626C160.198 74.4182 161.705 63.8434 161.275 53.2582C161.201 51.9424 160.884 50.6403 160.683 49.3561C158.972 51.4508 157.535 53.4593 155.848 55.2305C149.609 61.083 143.854 67.4309 138.639 74.212C135.555 78.1987 133.417 82.8329 132.384 87.7659C131.456 93.7174 130.567 99.69 130.055 105.687C129.528 111.857 129.463 118.067 129.221 124.261C129.11 127.098 128.901 129.944 129.017 132.775C129.044 136.625 129.372 140.468 129.998 144.268C131.039 149.449 132.704 154.503 134.032 159.629C134.086 160.413 134.025 161.2 133.851 161.965C123.973 154.678 119.272 144.683 116.236 133.82V133.82ZM102.758 220.087C103.71 221.246 104.367 222.008 104.983 222.801C105.917 223.845 106.542 225.129 106.786 226.508C107.03 227.887 106.884 229.307 106.365 230.607C105.853 231.896 105.016 233.03 103.934 233.898C102.852 234.766 101.564 235.337 100.194 235.557C98.7208 235.766 97.2197 235.666 95.7871 235.262C94.3544 234.859 93.0216 234.161 91.8736 233.214C90.8669 232.179 89.685 231.331 88.3827 230.709C87.3776 230.56 86.4476 230.09 85.7319 229.368C85.0161 228.647 84.5529 227.714 84.4115 226.707C84.083 225.819 84.0582 224.846 84.341 223.942C84.6237 223.038 85.198 222.253 85.9741 221.71C86.7862 220.647 87.3466 219.414 87.6132 218.104C86.3966 218.451 85.2886 219.103 84.3937 219.998C83.4988 220.892 82.8463 222 82.4979 223.216C82.1494 224.433 82.1164 225.718 82.402 226.95C82.6876 228.183 83.2823 229.323 84.1302 230.262C85.4843 231.876 86.9836 233.362 88.6093 234.702C91.1513 236.863 94.2375 238.285 97.5318 238.814C100.826 239.342 104.202 238.957 107.293 237.699C108.26 236.962 109.148 236.126 109.942 235.205C111.254 234.663 112.304 233.632 112.868 232.329C113.433 231.027 113.468 229.556 112.966 228.228C112.457 225.713 111.418 223.335 109.919 221.252C108.42 219.17 106.494 217.43 104.271 216.149C102.354 214.965 100.13 214.371 97.878 214.441C95.6256 214.511 93.4436 215.242 91.6037 216.543C90.6174 217.298 89.7986 218.25 89.199 219.337C88.5994 220.425 88.232 221.626 88.1202 222.863C88.0084 224.1 88.1546 225.347 88.5495 226.524C88.9443 227.702 89.5793 228.785 90.4142 229.704C91.4861 230.877 92.8151 231.785 94.2969 232.357C95.7787 232.929 97.373 233.15 98.9545 233.002C100.861 232.636 102.695 231.965 104.388 231.015C104.692 230.715 104.889 230.322 104.947 229.899C105.322 227.923 104.976 225.879 103.972 224.137C102.969 222.395 101.374 221.07 99.477 220.403C98.8916 220.253 98.2816 220.224 97.6846 220.319C97.0876 220.414 96.5164 220.63 96.0061 220.954C95.4959 221.278 95.0575 221.703 94.718 222.203C94.3784 222.703 94.145 223.267 94.032 223.861C93.9554 224.349 93.976 224.847 94.0926 225.326C94.2091 225.806 94.4193 226.258 94.7111 226.656C95.003 227.055 95.3706 227.391 95.7929 227.647C96.2153 227.902 96.684 228.072 97.1721 228.146C99.5251 228.414 99.0561 226.619 99.1579 225.261C99.2347 225.142 99.3439 225.047 99.4725 224.988C101.336 225.905 101.68 227.136 100.332 228.429C99.7929 229.145 99.007 229.634 98.1274 229.801C97.2477 229.968 96.3372 229.802 95.5737 229.334C93.6749 228.053 91.9548 226.525 90.4587 224.791C90.1697 224.453 89.9556 224.058 89.8305 223.632C89.7055 223.205 89.6722 222.757 89.7331 222.317C89.7939 221.876 89.9474 221.454 90.1835 221.077C90.4196 220.701 90.7328 220.379 91.1025 220.132C91.0806 220.95 91.1055 221.769 91.177 222.585C91.319 223.264 91.5093 223.931 91.7465 224.583C92.1105 224.128 92.3602 223.593 92.4746 223.021C94.5915 217.988 96.2288 215.75 101.693 218.339C102.203 218.613 102.752 218.81 103.321 218.922C104.287 219.004 105.223 219.299 106.062 219.786C106.9 220.273 107.62 220.939 108.17 221.738C108.721 222.536 109.087 223.446 109.244 224.403C109.4 225.36 109.343 226.34 109.075 227.272C107.622 224.487 107.582 220.603 102.758 220.087ZM178.805 221.99C178.558 222.029 177.919 222.167 177.273 222.226C174.189 222.54 171.299 223.877 169.063 226.023C166.669 228.159 164.02 230.257 164.215 233.63C164.17 235.516 164.658 237.376 165.624 238.997C166.59 240.618 167.994 241.932 169.675 242.789C175.591 245.508 181.509 246.478 187.637 242.798C189.479 241.636 190.941 239.961 191.842 237.979C192.744 235.997 193.046 233.794 192.711 231.643C191.062 225.731 185.07 222.532 178.805 221.99H178.805ZM146.798 247.469C147.675 247.45 148.557 247.474 149.431 247.404C152.187 247.181 156.318 244.065 156.526 241.655C156.893 239.527 156.697 237.339 155.958 235.31C155.218 233.28 153.961 231.48 152.311 230.086C151.086 229.052 149.653 228.294 148.11 227.863C144.288 226.849 140.385 226.17 136.445 225.833C133.38 225.867 130.439 227.045 128.197 229.136C127.547 229.593 127.026 230.209 126.682 230.925C126.339 231.641 126.186 232.434 126.237 233.226C126.094 235.937 128.11 237.328 129.571 239.107C131.552 241.791 134.154 243.954 137.154 245.41C140.155 246.867 143.464 247.573 146.798 247.469ZM219.026 219.131C218.347 215.494 217.665 211.151 213.012 209.342C210.14 208.225 207.09 207.004 204.072 209.181C202.629 210.223 201.633 212.222 199.28 211.387C198.871 211.519 198.521 211.791 198.293 212.156C196.739 213.794 195.348 215.579 194.136 217.484C193.279 218.973 192.84 220.666 192.867 222.384C192.894 224.101 193.385 225.78 194.289 227.241C195.193 228.702 196.475 229.892 198 230.683C199.524 231.474 201.235 231.838 202.95 231.736C203.827 231.686 204.707 231.688 205.584 231.742C207.328 231.953 209.098 231.778 210.768 231.231C212.438 230.684 213.968 229.778 215.249 228.575C216.531 227.373 217.533 225.904 218.186 224.273C218.838 222.641 219.125 220.886 219.026 219.131ZM142.59 263.343L142.674 262.891C143.556 262.872 144.443 262.908 145.318 262.822C147.126 262.838 148.926 262.587 150.66 262.077C150.87 261.909 151.117 261.793 151.381 261.738C151.645 261.683 151.918 261.69 152.178 261.76C152.438 261.83 152.679 261.96 152.88 262.139C153.081 262.319 153.236 262.543 153.335 262.794C153.974 263.919 155.029 264.749 156.274 265.104C157.518 265.458 158.852 265.31 159.989 264.691L159.324 262.097C161.079 263.568 162.409 263.817 163.387 262.156C164.428 263.751 164.474 263.746 166.823 261.951L162.953 259.362L163.33 258.737L168.387 260.763C169.578 258.291 169.566 258.264 168.375 256.353C167.997 255.736 167.654 255.098 167.349 254.442C166.097 252.048 164.027 250.182 161.516 249.185C159.005 248.188 156.219 248.124 153.665 249.007C150.063 250.495 146.687 253.55 142.088 251.869L142.355 264.087L145.209 266.164L145.699 265.488L142.59 263.343ZM85.5764 247.416L88.3677 241.93C87.8837 244.568 86.6965 246.937 87.3572 248.548C87.9294 249.441 88.7278 250.167 89.6712 250.653C90.6146 251.138 91.6696 251.366 92.7293 251.312C93.8597 249.157 92.9936 248.375 91.1097 247.915C90.0271 247.522 88.9933 247.006 88.0287 246.377L88.4474 245.509L93.2196 247.76L95.9469 242.009L96.5984 242.293C96.5295 242.619 96.4312 242.938 96.3046 243.246C93.9877 247.74 94.1791 248.191 99.0241 249.582C99.3084 249.651 99.5858 249.745 99.8528 249.864C102.101 250.997 104.169 251.326 105.547 248.387L105.955 248.814L104.069 252.649L103.765 251.867L99.134 251.438L99.0161 254.233L99.5632 254.343L98.2524 255.476C99.5494 255.664 100.87 255.611 102.148 255.32C105.047 253.793 107.846 252.083 110.528 250.199C111.756 249.295 112.759 248.119 113.458 246.763C113.693 245.358 113.569 243.917 113.098 242.573C112.628 241.229 111.825 240.025 110.766 239.073C110.183 238.896 109.556 238.937 109.001 239.189C107.62 239.997 106.115 240.57 104.546 240.884C99.8771 240.739 94.9881 241.531 90.7477 238.63C89.6192 237.858 88.4608 237.13 87.3005 236.371C85.942 237.676 84.5749 238.886 83.3321 240.213C82.6904 240.816 82.2711 241.618 82.142 242.489C82.0128 243.36 82.1814 244.249 82.6204 245.013C83.4884 245.856 84.4998 246.552 85.5764 247.416ZM214.139 244.665L214.861 244.282C214.423 243.272 213.844 242.328 213.14 241.48C211.67 240.073 210.029 238.857 208.255 237.86C207.024 237.266 205.639 237.069 204.292 237.296C201.944 237.763 199.638 238.422 197.398 239.268C196.524 239.686 195.749 240.284 195.122 241.023C194.496 241.762 194.033 242.624 193.763 243.555C193.494 244.485 193.424 245.462 193.559 246.421C193.694 247.38 194.03 248.3 194.545 249.12C196.491 251.406 197.602 254.286 197.694 257.287C197.746 257.61 197.879 257.914 198.081 258.171C198.284 258.428 198.548 258.628 198.85 258.754C200.991 258.803 203.133 258.717 205.263 258.496C205.497 258.375 205.696 258.195 205.84 257.974C205.983 257.753 206.068 257.498 206.084 257.235C205.968 256.988 205.801 256.768 205.594 256.591C205.387 256.414 205.145 256.282 204.883 256.205C204.162 256.023 203.425 255.912 202.682 255.872L202.606 255.029L206.404 254.392L205.588 250.369L206.258 246.113C207.343 250.827 209.825 252.902 214.09 252.466L214.874 246.184L210.659 244.516C210.83 245.502 211.097 246.468 211.456 247.402C212.069 248.292 212.771 249.119 213.549 249.868L209.293 248.716C209.564 247.394 209.739 246.054 209.814 244.706C209.683 243.296 209.461 241.897 209.148 240.517C210.822 241.362 210.181 244.972 212.885 242.667L214.139 244.665ZM169.62 253.697C171.896 249.37 175.91 248.258 180.667 247.805C177.67 247.193 175.248 246.782 172.87 246.198C171.115 245.872 169.448 245.18 167.979 244.166C166.509 243.153 165.269 241.842 164.34 240.318C163.411 238.794 162.813 237.091 162.586 235.321C162.359 233.55 162.507 231.752 163.021 230.042C163.494 227.758 163.691 225.424 163.607 223.093C163.497 222.817 163.331 222.566 163.12 222.356C162.909 222.147 162.656 221.983 162.379 221.875C160.511 222.922 157.09 220.983 156.597 223.678C156.259 226.868 156.469 230.092 157.22 233.21C158.03 237.891 159.554 242.557 155.163 246.382C155.125 246.556 155.126 246.737 155.166 246.91C161.598 245.297 165.776 248.689 169.62 253.697ZM129.413 222.956C126.638 222.56 124.378 222.234 122.116 221.924C122.043 221.917 121.969 221.927 121.899 221.951C121.83 221.975 121.766 222.013 121.712 222.064C119.267 224.233 117.177 226.771 115.516 229.585C114.669 231.94 113.59 234.204 112.297 236.346C112.153 236.573 112.063 236.829 112.032 237.095C112 237.362 112.029 237.632 112.116 237.886C112.855 239.276 113.767 240.567 114.831 241.727C115.61 242.13 116.489 242.301 117.362 242.218C119.2 242.378 121.064 242.338 122.88 242.621C125.611 243.045 128.309 243.675 131.021 244.218L131.227 243.578C128.713 240.556 125.006 238.359 124.341 234.05C123.652 229.587 126.225 226.478 129.413 222.956ZM99.8903 201.259C94.3392 199.603 89.5526 198.581 84.8615 200.968C85.7345 206.093 85.7345 206.093 87.9773 205.837C87.6501 204.953 87.2221 204.11 86.7017 203.324C85.9166 202.399 86.0218 201.876 87.1718 201.766C88.1665 201.75 89.1609 201.815 90.1453 201.958L90.8353 200.886L93.518 203.66L94.0437 203.276L93.9788 200.304C94.9225 201.439 95.541 202.808 95.7685 204.266C95.996 205.724 95.824 207.216 95.2708 208.584C95.0828 207.524 94.8146 206.48 94.4686 205.461C94.1112 204.875 93.675 204.341 93.1721 203.874C92.8673 204.461 92.5202 205.031 92.2742 205.642C92.1455 206.212 92.0712 206.794 92.0525 207.378L89.7386 203.883L89.0704 204.229L89.1482 207.793L86.1499 207.079L86.607 209.423C85.9725 209.007 85.322 208.612 84.7157 208.158C84.5804 208.057 84.6617 207.617 84.5375 207.559C84.0449 207.354 83.5405 207.178 83.0272 207.032C82.8673 207.506 82.8318 208.014 82.9241 208.506C83.2829 209.104 83.8305 209.567 84.4807 209.821C85.8527 210.166 87.2419 210.439 88.6425 210.639C87.2613 212.415 85.8198 212.146 79.9976 209.004L79.823 210.771L79.2554 210.885L77.862 206.404C77.6344 206.88 77.4587 207.379 77.338 207.893C77.1258 211.25 84.3119 216.195 87.7976 215.108C88.0054 215.043 88.2045 214.949 88.4145 214.894C90.7219 214.295 93.0407 213.737 95.3368 213.097C98.742 212.148 102.131 211.142 105.681 210.115L99.8903 201.259ZM217.001 208.517C217.581 207.768 218.64 206.485 219.579 205.119C219.751 204.694 219.749 204.219 219.574 203.795C217.148 203.167 215.55 200.268 212.536 201.21C211.898 201.077 211.292 200.821 210.751 200.457L213.975 199.156C211.755 195.265 208.71 198.229 205.667 198.606L206.73 196.716C202.328 196.945 199.252 197.692 198.315 201.47C201.365 202.993 204.375 204.774 207.594 206.018C210.681 207.025 213.821 207.859 217.001 208.517ZM212.393 233.374C205.8 234.141 199.322 235.448 194.018 229.816C195.802 236.313 193.608 241.227 188.105 245.326L191.664 246.342C191.587 244.5 192.069 242.677 193.047 241.113C194.026 239.549 195.454 238.318 197.145 237.582C199.065 236.749 201.181 236.379 203.183 235.721C204.623 235.154 206.196 235.015 207.714 235.32C209.231 235.625 210.628 236.361 211.737 237.44L212.393 233.374ZM189.687 224.207L189.975 223.709C189.029 220.522 188.083 217.339 187.139 214.159L180.852 216.665L189.687 224.207ZM157.449 267.806C155.655 266.442 153.829 264.972 151.901 263.65C151.307 263.395 150.644 263.353 150.023 263.53C148.923 263.735 147.854 264.103 146.561 264.462C147.846 266.028 149.564 267.181 151.501 267.775C153.437 268.37 155.506 268.381 157.449 267.806ZM141.141 221.835L141.189 222.306C144.042 222.676 146.905 222.982 149.744 223.434C150.889 223.591 151.936 224.164 152.686 225.044C153.435 225.923 153.835 227.048 153.807 228.204C153.958 228.816 154.21 229.399 154.553 229.929C154.876 228.379 155.007 226.796 154.946 225.215C155.05 224.822 155.049 224.408 154.943 224.015C154.836 223.623 154.628 223.265 154.339 222.979C154.05 222.692 153.69 222.488 153.297 222.385C152.903 222.282 152.489 222.285 152.097 222.393C151.155 222.384 150.215 222.315 149.282 222.184C146.569 222.054 143.855 221.949 141.141 221.835ZM226.327 236.085C227.167 238.728 228.011 241.381 229.048 244.643L232.38 241.796L227.764 239.38L229.928 238.872C229.142 235.18 228.939 235.018 226.327 236.085V236.085ZM102.971 213.356L111.562 215.763L107.166 211.121L102.971 213.356ZM186.017 264.482C185.307 260.393 183.768 259.647 180.997 261.925C182.132 265.036 182.172 265.057 186.017 264.482ZM80.7774 234.713L76.4878 241.085C77.5949 241.169 78.708 241.122 79.8043 240.946C80.142 240.824 80.4455 240.623 80.6897 240.359C80.9338 240.096 81.1115 239.778 81.2079 239.432C81.1851 237.85 81.0412 236.273 80.7774 234.713ZM121.863 258.025C122.262 259.217 123.101 260.212 124.208 260.807C125.316 261.401 126.608 261.552 127.823 261.227C125.684 257.484 125.684 257.484 121.863 258.025L121.863 258.025ZM83.6628 201.589C79.5816 203.325 78.665 204.033 79.9739 207.004L81.776 203.16L82.35 203.166C82.0896 204.595 81.6723 206.153 84.1821 205.54L83.6628 201.589ZM96.0548 254.63L87.7549 250.945C90.2425 254.718 92.752 256.285 96.0548 254.63V254.63ZM117.24 224.189L119.848 221.263L114.138 218.039L117.24 224.189ZM138.699 264.087L130.901 265.427C135.263 267.679 138.26 267.276 138.699 264.087V264.087ZM190.986 216.107C193.05 213.845 194.898 211.821 196.837 209.696C194.134 209.303 191.191 212.538 190.986 216.107ZM207.604 252.239C207.676 253.858 207.029 255.453 208.994 256.061C210.618 256.563 211.287 255.476 212.012 254.083L207.604 252.239ZM94.8436 248.963C94.1658 251.454 94.3624 252.912 96.491 252.909C97.2098 252.529 97.8145 251.965 98.2427 251.274L94.8436 248.963ZM165.16 226.373L166.021 226.873C167.251 224.982 168.481 223.092 169.711 221.201L169.028 220.753C167.141 222.137 165.778 224.117 165.16 226.373V226.373ZM74.2953 237.401L76.2663 238.551L78.4097 235.956C75.5446 235.057 75.5446 235.057 74.2953 237.402V237.401ZM69.5687 235.216C69.9364 236.499 70.6914 237.638 71.7306 238.476C72.7697 239.314 74.0423 239.811 75.3745 239.899L69.5687 235.216ZM114.691 227.239C115.943 225.817 114.275 222.446 112.024 221.217L114.691 227.239ZM74.5432 234.023C72.9427 232.067 72.0505 233.439 70.8857 234.625L72.7443 236.573L74.5432 234.023ZM68.7239 232.762C71.0005 230.72 71.0142 230.652 69.3449 229.189C68.9149 230.326 66.54 230.892 68.7239 232.762H68.7239ZM182.26 267.862C182.12 267.357 181.851 266.898 181.48 266.529C181.108 266.16 180.647 265.894 180.142 265.756C179.637 265.619 179.104 265.615 178.597 265.746C178.09 265.876 177.626 266.136 177.249 266.5L182.26 267.862ZM160.212 266.934L165.228 266.824C163.551 266.29 161.931 264.586 160.212 266.934ZM231.712 239.118C232.798 236.702 232.12 235.664 230.089 235.915L231.712 239.118ZM179.508 217.972L179.164 216.971L174.59 218.561L174.86 219.343L179.508 217.972ZM126.384 262.231L126.187 263.171L130.426 264.221L130.665 263.228L126.384 262.231ZM167.695 262.956L164.233 264.776C167.211 266.037 167.554 265.853 167.695 262.956H167.695ZM150.982 227.363L151.314 226.655L146.308 224.547L146.13 224.977L150.982 227.363ZM136.14 223.369L136.057 222.772L131.882 223.185L132 224.024L136.14 223.369Z" fill="#DDE7DC"/>
<path d="M118.425 191.036C118.5 190.394 118.538 189.749 118.54 189.103C118.235 184.221 117.655 179.341 117.651 174.46C117.646 169.003 118.155 163.546 118.443 158.089C118.505 156.925 118.504 155.752 118.669 154.603C118.836 153.952 119.076 153.322 119.384 152.725C119.977 153.014 120.51 153.414 120.953 153.903C123.71 158.907 127.42 163.324 131.872 166.904C133.811 168.259 135.829 169.495 137.917 170.605L138.464 170.117C138.319 169.303 138.18 168.487 138.028 167.674C137.127 162.828 135.864 158.017 135.405 153.129C134.706 146.37 134.42 139.575 134.549 132.781C134.808 123.756 135.629 114.741 136.417 105.739C137.702 95.6647 141.135 85.9836 146.486 77.3513C149.294 72.336 151.977 67.2503 154.753 62.2165C155.269 61.3889 155.834 60.5923 156.443 59.8308L157.104 59.997C157.246 60.7899 157.252 61.6015 157.119 62.3962C154.917 68.3936 154.707 74.8457 153.023 80.8879C151.19 87.5005 150.555 94.3876 151.147 101.224C151.924 110.867 152.329 120.621 155.645 129.854C157.254 134.769 159.638 139.396 162.706 143.559C162.82 143.806 162.993 144.021 163.211 144.183C163.429 144.346 163.684 144.452 163.953 144.49C164.222 144.529 164.496 144.5 164.751 144.405C165.006 144.31 165.233 144.153 165.411 143.947C170.914 139.659 176.111 135.135 178.371 128.172C178.675 127.748 179.073 127.401 179.533 127.157C179.957 127.51 180.286 127.964 180.489 128.478C180.506 129.715 180.378 130.949 180.106 132.156C179.101 136.554 177.998 140.929 176.961 145.319C175.581 151.155 174.228 156.998 172.737 163.381C176.452 161.612 179.916 160.034 183.312 158.321C186.024 156.953 188.579 155.239 191.372 154.087C191.962 154.13 192.535 154.305 193.048 154.599C193.562 154.892 194.004 155.296 194.341 155.782C194.67 156.732 194.66 157.766 194.312 158.709C193.725 161.454 193.091 164.195 192.322 166.894C191.312 170.437 190.149 173.935 189.063 177.456C188.101 180.575 187.278 183.744 186.175 186.811C184.503 192.676 181.096 197.898 176.403 201.792C173.295 204.176 169.92 206.19 166.346 207.793C163.219 208.981 159.935 209.704 156.598 209.939C148.491 210.946 140.272 210.553 132.298 208.778C128.372 207.718 124.508 206.442 120.722 204.956C119.323 204.398 118.199 203.313 117.591 201.936C116.126 199.948 114.503 198.082 112.739 196.355C110.975 194.07 109.428 191.611 107.898 189.158C107.82 188.881 107.807 188.589 107.862 188.306C107.917 188.023 108.037 187.757 108.213 187.529C108.457 187.445 108.717 187.422 108.972 187.461C109.227 187.5 109.469 187.601 109.677 187.754C112.012 190.369 115.282 190.209 118.425 191.036ZM167.78 145.034L164.282 147.63C157.426 141.156 154.78 132.228 151.894 123.35L151.759 126.991C151.454 126.561 151.221 126.085 151.069 125.58C151.093 122.576 151.388 119.559 151.188 116.573C150.881 111.998 150.066 107.455 149.799 102.88C149.43 98.2265 149.403 93.5526 149.719 88.8955C150.126 84.3488 151.382 79.8803 152.22 75.369C152.59 73.3776 152.847 71.3651 153.154 69.3621C151.65 71.4216 150.322 73.6048 149.185 75.8882C146.638 80.8945 143.82 85.7975 141.712 90.9863C137.162 102.19 136.747 114.147 136.299 126.012C136.004 133.809 136.035 141.64 136.417 149.431C136.828 154.126 137.566 158.785 138.625 163.377C139.101 165.863 139.988 168.268 140.627 170.727C141.032 172.289 140.218 173.606 139.159 173.139C136.779 172.269 134.517 171.105 132.425 169.675C129.567 167.303 126.88 164.732 124.384 161.981C122.961 160.31 121.633 158.561 120.406 156.741C119.276 163.701 118.928 170.766 119.37 177.804C119.428 178.96 119.518 180.113 119.638 181.265C120.18 186.382 118.891 192.08 124.182 195.706C124.228 195.852 124.25 196.005 124.248 196.158L111.154 190.762L110.564 191.623C113.561 194.878 116.499 198.189 119.582 201.36C120.765 202.765 122.233 203.903 123.889 204.698C127.162 205.906 130.534 206.823 133.968 207.438C137.702 208.112 141.477 208.531 145.268 208.693C150.66 208.766 156.045 208.306 161.346 207.318C167.335 206.333 172.852 203.457 177.089 199.111C179.699 196.386 181.794 193.212 183.275 189.741C184.941 185.631 186.39 181.435 187.618 177.173C188.6 174.284 189.821 171.46 190.568 168.513C191.383 165.296 191.791 161.973 192.338 158.69C192.555 158.066 192.553 157.388 192.333 156.766C192.03 156.594 191.691 156.493 191.343 156.473C190.995 156.452 190.646 156.512 190.325 156.647C188.046 157.754 185.886 159.103 183.614 160.224C180.105 161.955 176.544 163.58 172.992 165.222C172.641 165.33 172.27 165.366 171.904 165.326C170.439 165.322 169.96 164.908 170.607 163.305C171.639 160.748 172.488 158.121 173.149 155.444C174.173 151.291 174.951 147.079 175.869 142.899C176.482 140.107 177.158 137.328 177.805 134.543C175.062 137.113 172.481 139.849 170.074 142.737C169.363 143.549 168.523 144.248 167.742 144.999L167.78 145.034Z" fill="#DDE7DC"/>
<path d="M179.359 117.297L169.8 130.674L169.132 130.215L178.487 116.7L179.359 117.297Z" fill="#DDE7DC"/>
<path d="M127.985 88.4144C127.36 92.613 126.735 96.8115 126.109 101.01L125.26 100.882C125.49 96.6293 126.195 92.416 127.361 88.3202L127.985 88.4144Z" fill="#DDE7DC"/>
<path d="M115.4 210.609C117.59 213.364 118.729 216.888 123.257 217.215C122.294 217.378 121.308 217.329 120.365 217.073C119.423 216.816 118.548 216.358 117.801 215.729C117.054 215.101 116.452 214.318 116.037 213.434C115.623 212.549 115.405 211.586 115.4 210.609Z" fill="#DDE7DC"/>
<path d="M164.831 48.4911C166.87 49.3991 167.329 54.4241 165.818 58.9065C165.517 55.7259 165.169 52.0573 164.831 48.4911Z" fill="#DDE7DC"/>
<path d="M190.349 115.949L188.181 106.004C191.895 109.037 190.286 112.668 190.349 115.949Z" fill="#DDE7DC"/>
<path d="M159.047 95.5221C158.701 99.1341 158.355 102.746 158.005 106.393C157.418 104.607 157.207 102.719 157.386 100.848C157.566 98.977 158.131 97.1635 159.047 95.5221Z" fill="#DDE7DC"/>
<path d="M118.058 124.431C119.174 127.974 120.291 131.517 121.409 135.06L120.936 135.228L116.95 124.816L118.058 124.431Z" fill="#DDE7DC"/>
<path d="M191.794 124.406C190.943 127.725 190.093 131.044 189.242 134.364L188.595 134.208C189.331 130.861 190.066 127.514 190.802 124.166L191.794 124.406Z" fill="#DDE7DC"/>
<path d="M165.977 128.114L161.676 122.352L162.564 121.688L166.621 127.607L165.977 128.114Z" fill="#DDE7DC"/>
<path d="M205.001 143.463C204.723 141.167 204.444 138.871 204.166 136.575C206.232 138.653 205.479 141.075 205.001 143.463Z" fill="#DDE7DC"/>
<path d="M124.871 140.228C126.019 142.96 126.936 145.142 127.904 147.446C126.731 146.687 125.815 145.593 125.274 144.305C124.733 143.018 124.592 141.597 124.871 140.228Z" fill="#DDE7DC"/>
<path d="M162.598 76.6332L164.422 69.1593C164.773 70.4577 164.79 71.824 164.471 73.1308C164.152 74.4376 163.508 75.6425 162.598 76.6332Z" fill="#DDE7DC"/>
<path d="M125.239 117.687L125.09 110.891L125.599 110.866L125.747 117.646L125.239 117.687Z" fill="#DDE7DC"/>
<path d="M138.598 67.5701L141.219 63.2117L141.917 63.5994L139.507 68.0805L138.598 67.5701Z" fill="#DDE7DC"/>
<path d="M105.886 172.343L109.484 178.339C108.438 177.933 107.504 177.282 106.762 176.441C106.019 175.599 105.489 174.592 105.216 173.504C105.361 173.075 105.608 172.688 105.935 172.376L105.886 172.343Z" fill="#DDE7DC"/>
<path d="M106.772 234.897C106.924 235.238 106.982 235.614 106.94 235.985C106.899 236.356 106.759 236.71 106.535 237.009C106.311 237.308 106.011 237.542 105.667 237.686C105.322 237.831 104.945 237.881 104.575 237.831C102.863 237.927 101.153 238.073 99.4417 238.197L99.1686 237.68C99.5641 237.26 100.034 236.918 100.555 236.67C101.315 236.481 102.199 236.743 102.936 236.513C104.242 236.04 105.522 235.5 106.772 234.897Z" fill="#DDE7DC"/>
<path d="M176.405 238.114L178.85 240.724L178.263 241.332C176.789 240.3 175.492 239.035 174.422 237.588C174.276 236.923 174.282 236.234 174.44 235.573C174.598 234.911 174.903 234.293 175.333 233.765C175.762 233.304 176.287 232.942 176.872 232.708C177.456 232.473 178.086 232.37 178.715 232.407C180.707 232.696 180.421 234.288 179.492 235.802C179.872 235.875 180.264 235.861 180.638 235.761C181.012 235.662 181.359 235.48 181.653 235.229C181.947 234.977 182.181 234.663 182.337 234.309C182.493 233.955 182.568 233.57 182.555 233.183C182.626 232.856 182.621 232.517 182.541 232.192C182.461 231.866 182.308 231.564 182.093 231.306C181.879 231.049 181.609 230.844 181.304 230.706C180.998 230.569 180.666 230.502 180.331 230.513C177.822 230.53 175.331 230.93 172.943 231.697C172.082 232.142 171.392 232.86 170.98 233.738C170.569 234.615 170.459 235.604 170.667 236.551C170.773 237.658 171.223 238.704 171.956 239.541C172.688 240.378 173.664 240.964 174.747 241.216C179.871 242.775 184.497 241.619 186.469 235.798C186.641 234.879 186.615 233.933 186.394 233.024C186.173 232.115 185.762 231.263 185.188 230.525C184.966 230.046 184.663 229.605 184.397 229.147L184.773 228.667C185.383 228.818 185.958 229.084 186.467 229.452C187.474 230.621 188.102 232.068 188.268 233.602C188.434 235.136 188.13 236.684 187.396 238.042C186.712 239.376 185.749 240.547 184.573 241.478C183.397 242.408 182.035 243.075 180.579 243.433C179.123 243.792 177.608 243.835 176.134 243.558C174.661 243.28 173.264 242.69 172.038 241.827C170.937 241.106 170.052 240.1 169.476 238.917C168.9 237.734 168.655 236.417 168.765 235.106C169.083 233.709 169.824 232.444 170.888 231.484C171.952 230.524 173.287 229.916 174.709 229.744C176.676 229.361 178.676 229.176 180.679 229.193C181.606 229.271 182.474 229.675 183.13 230.334C183.786 230.993 184.187 231.863 184.261 232.79C184.325 233.78 184.057 234.764 183.499 235.585C182.941 236.406 182.125 237.018 181.181 237.324C179.609 237.698 178.014 237.962 176.405 238.114Z" fill="#DDE7DC"/>
<path d="M190.574 235.705C190.04 233.281 189.507 230.857 188.917 228.177C189.324 228.089 189.745 228.087 190.153 228.171C190.723 229.334 191.055 230.601 191.127 231.895C191.199 233.189 191.011 234.485 190.574 235.705Z" fill="#DDE7DC"/>
<path d="M145.541 237.836L145.854 241.582C146.836 241.794 147.861 241.669 148.763 241.227C149.665 240.786 150.392 240.054 150.827 239.149C151.045 238.661 151.164 238.135 151.178 237.601C151.191 237.067 151.098 236.536 150.904 236.038C150.71 235.54 150.419 235.086 150.048 234.701C149.678 234.317 149.234 234.01 148.744 233.798C146.004 232.303 143.13 231.07 140.159 230.115C138.733 229.582 137.166 229.565 135.729 230.068C134.292 230.571 133.078 231.562 132.296 232.868C131.692 234.552 131.417 236.337 131.485 238.124C128.319 236.406 127.759 232.917 130.536 228.547L130.21 231.662C135.382 226.737 140.633 227.913 145.953 230.618C148.004 231.552 150.001 232.601 151.933 233.761C152.724 234.559 153.341 235.512 153.745 236.56C153.754 236.575 153.335 236.842 152.899 237.137C152.356 241.224 150.578 242.96 145.866 243.33C142.868 243.565 139.696 243.78 137.489 241.214C136.457 239.783 135.619 238.223 134.994 236.573C134.66 235.685 134.391 234.773 134.19 233.846C135.897 233.481 137.583 233.012 139.301 232.801C140.18 232.749 141.058 232.914 141.858 233.28C142.619 233.4 143.312 233.786 143.814 234.37C144.317 234.954 144.595 235.697 144.6 236.468C144.061 237.187 143.326 237.735 142.484 238.048C141.641 238.361 140.727 238.424 139.849 238.231C138.983 237.917 138.141 237.534 137.173 237.135C137.64 240.576 140.136 242.116 144.532 241.761L144.756 237.861L145.541 237.836ZM140.437 234.32L139.669 235.037C140.073 235.745 140.585 236.385 141.187 236.935C141.784 236.74 142.332 236.42 142.796 235.997L140.437 234.32Z" fill="#DDE7DC"/>
<path d="M138.586 244.349C138.042 244.324 137.51 244.188 137.021 243.949C136.532 243.71 136.098 243.373 135.744 242.959C135.391 242.546 135.126 242.064 134.966 241.544C134.806 241.024 134.754 240.477 134.814 239.936L138.586 244.349Z" fill="#DDE7DC"/>
<path d="M210.784 218.212C209.066 220.917 207.641 221.351 205.385 220.463L207.444 219.169C207.127 218.686 206.881 218.161 206.714 217.608C206.393 216.746 206.343 215.806 206.572 214.914C206.8 214.022 207.296 213.222 207.993 212.62C209.018 212.262 210.106 212.116 211.189 212.192C212.273 212.268 213.329 212.564 214.295 213.062C214.963 213.489 215.534 214.052 215.971 214.713C216.409 215.375 216.703 216.12 216.836 216.902C216.968 217.684 216.936 218.485 216.741 219.254C216.545 220.022 216.191 220.742 215.702 221.365C213.657 224.418 211.402 227.325 208.952 230.063C208.181 230.549 207.309 230.85 206.403 230.943L206.211 230.339L210.957 227.174L210.536 226.481C209.586 227.028 208.587 227.505 207.698 228.137C207.051 228.783 206.257 229.262 205.383 229.531C204.51 229.8 203.584 229.852 202.686 229.682C201.736 229.251 200.934 228.549 200.381 227.665C201.955 227.799 203.213 229.603 204.959 228.126C199.722 227.033 197.004 223.096 198.884 218.688C200.095 216.463 201.666 214.454 203.532 212.743C204.301 212.539 205.11 212.545 205.876 212.759C205.547 213.287 205.151 213.771 204.698 214.198C203.435 215.004 202.392 216.111 201.662 217.42C200.932 218.728 200.538 220.198 200.516 221.696C200.503 222.32 200.626 222.938 200.878 223.509C201.129 224.08 201.502 224.589 201.971 225C202.44 225.412 202.993 225.716 203.591 225.892C204.19 226.067 204.819 226.109 205.436 226.016C207.183 225.889 208.881 225.385 210.415 224.54C211.949 223.694 213.281 222.527 214.321 221.118C214.722 220.557 214.993 219.913 215.114 219.234C215.236 218.555 215.204 217.858 215.021 217.192C214.839 216.527 214.51 215.911 214.059 215.389C213.609 214.867 213.047 214.452 212.416 214.174C212.111 213.971 211.769 213.833 211.409 213.766C211.05 213.7 210.68 213.708 210.324 213.79C209.968 213.871 209.631 214.024 209.336 214.24C209.041 214.456 208.793 214.73 208.607 215.045C207.996 216.313 208.653 217.181 210.784 218.212Z" fill="#DDE7DC"/>
<path d="M198.696 215.32L196.292 222.149C194.58 221.19 195.732 217.441 198.696 215.32Z" fill="#DDE7DC"/>
<path d="M145.812 107.684C146.269 108.624 146.607 109.617 146.815 110.641C147.016 113.195 146.755 115.799 147.104 118.324C148.291 126.894 148.16 135.635 150.833 144.025C152.15 148.159 152.713 152.533 153.629 156.796C153.727 157.292 154.008 157.734 154.416 158.033L155.281 152.72L155.998 152.784C155.691 155.561 155.281 158.331 155.121 161.116C155.04 162.572 155.205 164.032 155.611 165.433C156.2 167.435 157.104 169.344 157.972 171.54C162.272 162.876 166.431 154.495 170.59 146.115L171.194 146.321C169.711 155.572 168.228 164.822 166.651 174.654C168.802 172.952 171.143 171.503 173.626 170.337C174.867 169.779 175.985 168.982 176.918 167.992C177.85 167.001 178.579 165.837 179.06 164.564L179.415 166.019C180.344 165.947 181.276 166.113 182.122 166.501C182.47 167.517 182.484 168.617 182.161 169.64C181.139 173.719 180.174 177.83 178.829 181.807C177.219 187.126 174.465 192.029 170.761 196.172C169.881 197.282 169.195 198.532 168.73 199.869C168.633 200.122 168.486 200.353 168.298 200.548C168.11 200.743 167.884 200.898 167.635 201.004C167.385 201.11 167.117 201.164 166.846 201.164C166.575 201.164 166.307 201.11 166.058 201.004C165.208 200.92 164.351 201.044 163.559 201.364C161.872 201.976 160.269 202.819 158.578 203.417C153.786 204.843 148.809 205.547 143.81 205.506C135.904 206.087 128.04 203.919 121.549 199.367C120.971 198.811 120.451 198.196 119.998 197.534L126.633 197.815L125.169 192.864L125.592 192.714L127.881 197.308L132.892 197.198C131.371 193.577 129.872 190.069 128.435 186.536C128.105 185.803 127.934 185.008 127.931 184.204C128.133 179.991 124.539 177.986 122.692 174.969C122.31 174.243 121.979 173.49 121.703 172.717L122.42 172.361L125.947 177.72L126.559 177.487L126.061 172.867L126.638 172.382C131.491 179.275 139.422 180.449 146.779 184.149C146.383 181.162 146.133 178.803 145.747 176.467C144.295 170.169 143.267 163.78 142.67 157.345C142.39 147.289 143.096 137.196 143.623 127.131C143.959 120.736 144.727 114.364 145.301 107.982L145.812 107.684ZM145.8 118.608C145.607 119.548 145.469 120.499 145.387 121.455C145.053 129.032 144.744 136.61 144.463 144.19C144.388 146.156 144.505 148.134 144.344 150.091C143.701 155.679 143.934 161.332 145.032 166.847C146.074 171.377 147.046 175.926 147.918 180.491C148.283 182.404 148.308 184.381 148.531 186.802C141.593 182.986 134.217 181.568 128.058 176.992C128.225 180.38 128.801 183.735 129.774 186.985C131.202 190.947 132.496 195.225 136.742 197.423C137.019 197.719 137.22 198.077 137.329 198.467C136.912 198.776 136.438 199 135.935 199.128C132.869 199.204 129.8 199.19 126.733 199.211C125.969 199.216 125.204 199.242 124.44 199.259L124.317 199.844C125.348 200.486 126.418 201.062 127.522 201.567C130.57 202.754 134.081 201.938 137.02 203.693C137.233 203.751 137.457 203.755 137.672 203.704C142.9 203.446 148.188 203.59 153.338 202.819C159.046 202.161 164.403 199.728 168.654 195.863C173.011 191.624 176.212 186.342 177.951 180.517C179.248 176.494 179.965 172.285 181.037 167.752L165.123 177.142L164.298 176.597C166.254 169.489 167.452 162.194 167.872 154.834C163.577 161.513 160.391 168.842 158.439 176.539C157.073 173.714 155.943 170.782 155.061 167.771C152.678 158.479 150.172 149.198 148.349 139.79C146.98 132.728 146.591 125.477 145.8 118.608H145.8Z" fill="#DDE7DC"/>
<path d="M121.768 179.531C122.739 181.005 123.664 182.513 124.697 183.942C125.43 184.956 126.374 185.819 127.085 186.844C127.235 187.332 127.267 187.849 127.18 188.352C126.737 188.403 126.288 188.334 125.881 188.152C125.305 187.336 124.975 186.35 124.432 185.505C123.652 184.29 122.736 183.164 121.942 181.957C121.565 181.31 121.227 180.641 120.93 179.953L121.768 179.531Z" fill="#DDE7DC"/>
<path d="M183.622 178.073C182.428 181.516 181.234 184.959 180.04 188.401L179.245 188.688C179.037 188.4 178.909 188.062 178.873 187.709C180.151 184.361 181.488 181.036 182.81 177.705L183.622 178.073Z" fill="#DDE7DC"/>
<path d="M143.051 103.808C142.875 106.217 142.734 108.63 142.485 111.031C142.281 111.441 141.979 111.793 141.606 112.058C141.207 111.826 140.878 111.492 140.652 111.09C140.691 110.012 139.727 108.621 141.555 107.948C141.968 107.478 142.19 106.871 142.176 106.246C142.223 105.43 142.214 104.612 142.15 103.797L143.051 103.808Z" fill="#DDE7DC"/>
<path d="M167.742 144.999C166.706 147.619 165.67 150.238 164.634 152.858L163.891 152.515C164.599 149.757 165.93 147.198 167.781 145.035L167.742 144.999Z" fill="#DDE7DC"/>
<path d="M139.435 153.039C138.68 151.301 137.924 149.563 137.169 147.825L138.163 147.412L140.161 152.714L139.435 153.039Z" fill="#DDE7DC"/>
<path d="M139.76 178.424L135.871 173.521L136.538 172.98C137.827 174.62 139.117 176.26 140.406 177.899L139.76 178.424Z" fill="#DDE7DC"/>
<path d="M139.007 129.923L140.456 134.753L139.767 134.996L137.965 130.281L139.007 129.923Z" fill="#DDE7DC"/>
<path d="M140.697 201.624L148.051 198.318C145.483 197.495 143.136 196.1 141.187 194.237C139.238 192.375 137.738 190.093 136.8 187.566L137.378 186.868L151.461 194.134C151.64 193.192 151.726 192.234 151.719 191.276C150.811 184.501 149.831 177.737 148.899 170.966C148.481 167.933 148.109 164.893 147.749 161.852C147.744 161.401 147.788 160.952 147.88 160.511C148.401 160.623 148.899 160.825 149.35 161.109C149.751 161.532 150.047 162.044 150.215 162.602C151.864 167.26 153.507 171.921 155.102 176.598C156.129 179.61 157.073 182.65 158.329 185.696C159.675 182.22 159.793 178.277 163.476 175.708C163.344 178.634 163.212 181.56 163.055 185.033L170.144 180.645C170.855 183.844 170.273 187.193 168.524 189.964C166.635 193.1 164.111 195.806 161.113 197.908C158.116 200.01 154.712 201.461 151.12 202.168C147.755 202.639 144.35 202.753 140.962 202.51L140.697 201.624ZM150.907 178.385C151.43 181.83 151.952 185.276 152.475 188.722C152.76 190.597 153.659 190.062 154.624 189.269C156.592 193.271 156.016 195.658 152.799 196.801L152.628 198.907C152.248 197.639 151.592 196.471 150.708 195.487C147.265 193.476 143.621 191.808 140.053 190.012L139.716 190.488L142.883 194.258C143.151 193.896 143.497 193.6 143.895 193.392C144.981 193.551 146.015 193.962 146.914 194.592C147.813 195.223 148.552 196.054 149.072 197.021C149.763 198.339 150.195 199.501 148.013 199.806C147.223 200.142 146.493 200.603 145.849 201.172C146.581 201.279 147.324 201.293 148.059 201.212C153.492 199.832 158.647 197.525 163.296 194.393C166.318 191.972 167.148 188.344 168.886 185.217C169.028 184.384 169.022 183.533 168.868 182.702C167.077 184.128 165.848 185.199 164.525 186.137C163.014 187.21 162.068 186.742 161.98 184.93C161.901 183.317 161.9 181.7 161.865 180.085L161.139 180.027L159.375 189.599C160.236 189.656 161.074 189.9 161.83 190.316C162.456 190.623 163.096 190.9 163.945 191.289C163.503 193.332 161.976 192.324 160.632 191.708C160.409 192.3 160.146 192.877 159.845 193.433C159.463 193.974 159.051 194.493 158.611 194.988C158.221 194.474 157.942 193.885 157.791 193.258C157.839 190.147 157.308 187.054 156.225 184.138C154.099 178.414 152.148 172.625 150.124 166.863L149.58 167.041C149.705 168.039 149.834 169.035 149.952 170.033C150.285 172.833 150.615 175.633 150.943 178.434L150.907 178.385Z" fill="#DDE7DC"/>
<path d="M150.943 178.434L151.842 176.389L152.448 176.639C152.702 179.527 152.956 182.415 153.211 185.303L152.802 185.421C152.17 183.076 151.539 180.73 150.907 178.385L150.943 178.434Z" fill="#DDE7DC"/>
<path d="M183.58 59.2923C183.81 58.5453 183.985 58.0512 184.113 57.545C184.213 56.8477 184.488 56.1873 184.914 55.6261C185.34 55.0648 185.901 54.6212 186.546 54.3372C187.19 54.0531 187.896 53.9379 188.598 54.0024C189.299 54.067 189.973 54.3091 190.555 54.706C193.287 56.1373 196.113 57.4198 198.715 59.0574C199.8 59.709 200.697 60.6322 201.316 61.736C201.935 62.8399 202.256 64.0861 202.246 65.3516C202.177 66.1302 202.381 66.9085 202.823 67.5532C203.265 68.1978 203.917 68.6687 204.668 68.8851C212.056 71.9062 219.408 75.0114 226.726 78.2009C232.334 80.6579 237.805 83.4249 243.421 85.8621C248.777 88.1868 254.228 90.2964 259.663 92.4346C262.372 93.4999 265.14 94.4103 267.877 95.4046C268.236 95.5201 268.558 95.727 268.813 96.0049C269.068 96.2828 269.246 96.6221 269.33 96.9896C269.414 97.3571 269.401 97.7402 269.292 98.1011C269.183 98.4621 268.983 98.7885 268.71 99.0485C268.451 99.1693 268.169 99.2335 267.883 99.2366C267.597 99.2398 267.314 99.1818 267.053 99.0667C262.23 97.2326 257.429 95.3407 252.623 93.4616C252.025 93.2478 251.438 93.0039 250.865 92.7308C243.413 88.9052 236.069 84.8509 228.492 81.2931C220.843 77.7016 212.975 74.5731 205.181 71.2941C201.136 69.5921 201.257 69.741 198.795 73.3496C197.497 74.9065 196.006 76.2921 194.359 77.473C194.193 77.5619 194.008 77.6085 193.819 77.6087C193.631 77.6089 193.446 77.5626 193.28 77.4741C190.723 75.6522 188.288 73.6448 185.651 71.952C184.442 71.0742 183.513 69.8647 182.977 68.4699C182.442 67.0751 182.322 65.5548 182.632 64.0933C182.743 63.7744 182.785 63.4357 182.755 63.0995C182.725 62.7633 182.624 62.4373 182.459 62.143C182.293 61.8488 182.067 61.5931 181.796 61.3927C181.524 61.1924 181.213 61.0521 180.883 60.9811C179.509 60.4927 178.173 59.9062 176.884 59.2261C175.903 58.7689 175.802 57.9975 176.749 57.5863C177.606 57.2134 178.562 57.1323 179.47 57.3553C180.888 57.8955 182.261 58.543 183.58 59.2923ZM193.9 58.0443L194.056 61.5465L193.697 61.5241L191.821 57.0627L191.378 57.2641C191.388 62.2558 189.652 67.0936 186.47 70.9397C188.762 72.3608 191.011 73.7981 193.318 75.1352C193.553 75.2002 193.799 75.2155 194.041 75.1802C194.282 75.1448 194.513 75.0596 194.72 74.93C197.232 73.2001 199.137 70.7251 200.166 67.8544C200.498 66.5162 200.559 65.125 200.346 63.7627C200.271 63.633 200.161 63.5266 200.029 63.4552L199.039 64.5395C197.806 63.0617 199.699 60.5598 197.212 59.8592L196.705 62.1364L196.119 62.0839L195.742 58.8248L193.9 58.0443ZM184.775 69.0067L185.574 69.026C186.963 67.5997 188.047 65.9045 188.757 64.0444C189.468 62.1843 189.791 60.1986 189.706 58.2092C189.777 57.955 189.794 57.6886 189.757 57.4273C189.72 57.1659 189.628 56.9151 189.489 56.6909C189.349 56.4668 189.164 56.2741 188.946 56.1252C188.728 55.9763 188.482 55.8744 188.222 55.826C187.941 55.7349 187.644 55.7023 187.349 55.7303C187.055 55.7584 186.77 55.8464 186.511 55.9889C186.252 56.1315 186.024 56.3256 185.843 56.5593C185.662 56.793 185.531 57.0613 185.457 57.3477C184.78 59.5913 184.294 61.8881 184.004 64.2135C184.06 65.8373 184.319 67.4476 184.775 69.0069V69.0067Z" fill="#DDE7DC"/>
<path d="M206.185 111.98C206.415 111.233 206.59 110.739 206.718 110.232C206.818 109.535 207.094 108.875 207.519 108.314C207.945 107.752 208.506 107.309 209.151 107.025C209.795 106.741 210.502 106.625 211.203 106.69C211.904 106.754 212.578 106.997 213.16 107.394C215.892 108.825 218.718 110.107 221.321 111.745C222.406 112.396 223.302 113.32 223.921 114.424C224.54 115.527 224.861 116.774 224.851 118.039C224.782 118.818 224.986 119.596 225.428 120.241C225.87 120.885 226.523 121.356 227.274 121.573C234.661 124.594 242.014 127.699 249.332 130.888C254.939 133.345 260.411 136.112 266.026 138.55C271.382 140.874 276.833 142.984 282.268 145.122C284.977 146.187 287.746 147.098 290.482 148.092C290.841 148.208 291.164 148.414 291.418 148.692C291.673 148.97 291.851 149.31 291.935 149.677C292.019 150.045 292.006 150.428 291.897 150.789C291.789 151.15 291.588 151.476 291.315 151.736C291.056 151.857 290.774 151.921 290.488 151.924C290.203 151.927 289.919 151.869 289.658 151.754C284.835 149.92 280.034 148.028 275.228 146.149C274.63 145.935 274.044 145.691 273.47 145.418C266.018 141.593 258.674 137.538 251.097 133.981C243.448 130.389 235.581 127.261 227.787 123.982C223.741 122.28 223.863 122.429 221.4 126.037C220.102 127.594 218.611 128.98 216.964 130.16C216.798 130.249 216.613 130.296 216.425 130.296C216.236 130.296 216.051 130.25 215.885 130.162C213.328 128.34 210.894 126.332 208.256 124.64C207.047 123.762 206.118 122.552 205.583 121.157C205.047 119.763 204.927 118.242 205.237 116.781C205.348 116.462 205.39 116.123 205.36 115.787C205.33 115.451 205.229 115.125 205.064 114.831C204.898 114.536 204.672 114.281 204.401 114.08C204.129 113.88 203.818 113.74 203.488 113.669C202.115 113.18 200.778 112.594 199.489 111.914C198.508 111.456 198.407 110.685 199.354 110.274C200.212 109.901 201.168 109.82 202.076 110.043C203.493 110.583 204.867 111.231 206.185 111.98ZM216.505 110.732L216.661 114.234L216.303 114.212L214.426 109.75L213.983 109.952C213.993 114.943 212.257 119.781 209.075 123.627C211.368 125.048 213.616 126.486 215.923 127.823C216.158 127.888 216.405 127.903 216.646 127.868C216.887 127.832 217.119 127.747 217.325 127.618C219.837 125.888 221.742 123.413 222.771 120.542C223.103 119.204 223.165 117.812 222.951 116.45C222.876 116.32 222.766 116.214 222.634 116.143L221.644 117.227C220.411 115.749 222.304 113.247 219.818 112.547L219.31 114.824L218.725 114.771L218.347 111.512L216.505 110.732ZM207.381 121.694L208.179 121.714C209.569 120.287 210.652 118.592 211.363 116.732C212.073 114.872 212.396 112.886 212.311 110.897C212.382 110.642 212.4 110.376 212.362 110.115C212.325 109.853 212.233 109.603 212.094 109.378C211.954 109.154 211.77 108.962 211.552 108.813C211.334 108.664 211.087 108.562 210.827 108.514C210.546 108.422 210.249 108.39 209.955 108.418C209.66 108.446 209.375 108.534 209.116 108.676C208.857 108.819 208.63 109.013 208.449 109.247C208.267 109.481 208.136 109.749 208.062 110.035C207.386 112.279 206.899 114.576 206.609 116.901C206.665 118.525 206.924 120.135 207.381 121.694Z" fill="#DDE7DC"/>
<path d="M106.247 66.127C107.155 65.9041 108.111 65.9852 108.968 66.358C109.915 66.7693 109.814 67.5407 108.833 67.9979C107.544 68.6779 106.208 69.2645 104.834 69.7529C104.504 69.8239 104.193 69.9642 103.921 70.1645C103.65 70.3648 103.424 70.6206 103.258 70.9148C103.093 71.2091 102.992 71.5351 102.962 71.8713C102.932 72.2075 102.974 72.5462 103.085 72.865C103.395 74.3266 103.275 75.8469 102.74 77.2417C102.204 78.6365 101.275 79.8461 100.066 80.7239C97.4287 82.4167 94.9944 84.424 92.4373 86.2459C92.2712 86.3345 92.0859 86.3807 91.8977 86.3805C91.7096 86.3803 91.5243 86.3337 91.3585 86.2448C89.711 85.0639 88.2203 83.6783 86.9222 82.1214C84.4598 78.5129 84.5812 78.364 80.5356 80.0659C72.7416 83.3447 64.8741 86.4734 57.2252 90.0649C49.6479 93.6228 42.3039 97.6771 34.8518 101.503C34.2787 101.776 33.6921 102.02 33.0944 102.233C28.2884 104.112 23.4873 106.004 18.6644 107.839C18.4028 107.954 18.1197 108.012 17.8339 108.008C17.5481 108.005 17.2663 107.941 17.0074 107.82C16.7343 107.56 16.5336 107.234 16.4249 106.873C16.3161 106.512 16.3031 106.129 16.3871 105.761C16.4711 105.394 16.6492 105.055 16.9039 104.777C17.1587 104.499 17.4813 104.292 17.8401 104.176C20.5767 103.182 23.3456 102.272 26.0538 101.206C31.4891 99.0683 36.9401 96.9586 42.2963 94.6339C47.9117 92.1967 53.3835 89.4298 58.9907 86.9727C66.3008 83.7695 73.6535 80.6642 81.0487 77.657C81.7998 77.4406 82.4522 76.9697 82.8942 76.325C83.3361 75.6804 83.5401 74.9021 83.4712 74.1235C83.4615 72.8579 83.7821 71.6117 84.4012 70.5079C85.0203 69.4041 85.9166 68.4808 87.0017 67.8293C89.6043 66.1917 92.4306 64.9092 95.1626 63.4779C95.7444 63.081 96.4178 62.8388 97.1192 62.7743C97.8206 62.7097 98.5269 62.8249 99.1714 63.109C99.8159 63.3931 100.377 63.8367 100.803 64.3979C101.229 64.9591 101.504 65.6196 101.604 66.3168C101.732 66.823 101.907 67.3173 102.137 68.0642C103.456 67.3149 104.829 66.6673 106.247 66.127ZM89.9749 67.5967L89.5976 70.8558L89.0121 70.9083L88.5045 68.6309C86.0178 69.3314 87.9109 71.8334 86.678 73.3112L85.6882 72.2269C85.5562 72.2983 85.4464 72.4047 85.371 72.5344C85.1575 73.8967 85.2187 75.2879 85.551 76.6262C86.5803 79.4969 88.4853 81.9719 90.9969 83.7018C91.2035 83.8314 91.4349 83.9166 91.6762 83.952C91.9176 83.9873 92.1636 83.972 92.3987 83.907C94.7057 82.5699 96.9544 81.1326 99.2471 79.7115C96.0652 75.8655 94.3288 71.0276 94.3388 66.0359L93.8958 65.8345L92.0195 70.2961L91.6613 70.3184L91.8173 66.8163L89.9749 67.5967ZM101.713 72.9854C101.423 70.6599 100.937 68.3632 100.26 66.1195C100.186 65.8331 100.055 65.5648 99.8737 65.3311C99.6925 65.0974 99.4654 64.9033 99.2064 64.7608C98.9473 64.6182 98.6618 64.5302 98.3674 64.5022C98.0731 64.4742 97.7761 64.5067 97.4948 64.5979C97.2352 64.6463 96.9886 64.7482 96.7705 64.8971C96.5525 65.046 96.3678 65.2386 96.2282 65.4628C96.0887 65.687 95.9973 65.9377 95.96 66.1991C95.9226 66.4605 95.94 66.7268 96.0112 66.9811C95.9264 68.9705 96.2491 70.9562 96.9596 72.8163C97.6702 74.6764 98.7534 76.3716 100.143 77.7978L100.942 77.7787C101.398 76.2194 101.657 74.6091 101.713 72.9854Z" fill="#DDE7DC"/>
<path d="M97.9245 108.102C98.8324 107.879 99.7885 107.96 100.646 108.333C101.593 108.744 101.492 109.516 100.511 109.973C99.2219 110.653 97.8854 111.24 96.5121 111.728C96.1821 111.799 95.871 111.939 95.5993 112.14C95.3276 112.34 95.1016 112.596 94.9362 112.89C94.7708 113.184 94.6698 113.51 94.6399 113.846C94.61 114.183 94.6519 114.521 94.7627 114.84C95.0732 116.302 94.9533 117.822 94.4175 119.217C93.8817 120.612 92.9529 121.821 91.7438 122.699C89.1065 124.392 86.6721 126.399 84.115 128.221C83.949 128.31 83.7637 128.356 83.5755 128.356C83.3873 128.355 83.2021 128.309 83.0362 128.22C81.3887 127.039 79.8981 125.653 78.6 124.097C76.1376 120.488 76.259 120.339 72.2134 122.041C64.4194 125.32 56.5519 128.449 48.903 132.04C41.3257 135.598 33.9817 139.652 26.5296 143.478C25.9565 143.751 25.3699 143.995 24.7722 144.209C19.9662 146.088 15.1651 147.98 10.3422 149.814C10.0806 149.929 9.7974 149.987 9.51162 149.984C9.22583 149.98 8.94401 149.916 8.68502 149.795C8.41201 149.535 8.21128 149.209 8.10254 148.848C7.9938 148.487 7.98079 148.104 8.06478 147.737C8.14876 147.369 8.32687 147.03 8.58161 146.752C8.83634 146.474 9.15896 146.267 9.51779 146.152C12.2543 145.157 15.0233 144.247 17.7315 143.182C23.1668 141.043 28.6178 138.934 33.974 136.609C39.5894 134.172 45.0612 131.405 50.6684 128.948C57.9785 125.745 65.3312 122.639 72.7264 119.632C73.4774 119.416 74.1299 118.945 74.5718 118.3C75.0138 117.655 75.2178 116.877 75.1489 116.099C75.1392 114.833 75.4597 113.587 76.0789 112.483C76.698 111.379 77.5943 110.456 78.6793 109.804C81.2819 108.167 84.1082 106.884 86.8402 105.453C87.4221 105.056 88.0955 104.814 88.7969 104.749C89.4983 104.685 90.2046 104.8 90.8491 105.084C91.4936 105.368 92.0552 105.812 92.4807 106.373C92.9063 106.934 93.1819 107.595 93.2815 108.292C93.41 108.798 93.5852 109.292 93.8147 110.039C95.1334 109.29 96.5073 108.642 97.9245 108.102ZM81.6528 109.572L81.2755 112.831L80.69 112.883L80.1824 110.606C77.6957 111.307 79.5887 113.809 78.3559 115.286L77.3661 114.202C77.234 114.274 77.1243 114.38 77.0488 114.51C76.8354 115.872 76.8967 117.263 77.229 118.601C78.2583 121.472 80.1633 123.947 82.6749 125.677C82.8815 125.807 83.1129 125.892 83.3542 125.927C83.5956 125.962 83.8416 125.947 84.0767 125.882C86.3837 124.545 88.6324 123.108 90.9251 121.687C87.7432 117.841 86.0069 113.003 86.0168 108.011L85.5738 107.81L83.6974 112.271L83.3392 112.294L83.4952 108.791L81.6528 109.572ZM93.391 114.961C93.1007 112.635 92.6144 110.338 91.9376 108.095C91.8641 107.808 91.7327 107.54 91.5516 107.306C91.3704 107.073 91.1433 106.878 90.8842 106.736C90.6252 106.593 90.3397 106.505 90.0453 106.477C89.751 106.449 89.454 106.482 89.1727 106.573C88.9131 106.621 88.6665 106.723 88.4484 106.872C88.2303 107.021 88.0457 107.214 87.9061 107.438C87.7666 107.662 87.6752 107.913 87.6378 108.174C87.6005 108.436 87.6179 108.702 87.6891 108.956C87.6043 110.946 87.927 112.931 88.6375 114.791C89.348 116.651 90.4313 118.347 91.8208 119.773L92.6194 119.754C93.0757 118.195 93.335 116.584 93.391 114.96V114.961Z" fill="#DDE7DC"/>
</svg>
