<svg width="300" height="227" viewBox="0 0 300 227" fill="none" xmlns="http://www.w3.org/2000/svg">
<path d="M261.625 77.7739C262.805 77.0595 263.879 76.1097 265.002 75.2681L264.561 74.0225C263.412 74.2658 262.285 74.6365 261.197 75.1296C256.013 78.1357 250.968 81.4806 245.705 84.2782C239.343 87.66 232.776 90.5181 226.363 93.778C220.502 96.7576 214.728 99.9705 208.856 103.113C208.6 100.693 207.538 98.4839 205.898 96.9579C204.257 95.4319 202.167 94.7094 200.073 94.9444C199.076 91.8035 198.287 88.6344 197.092 85.6856C196.436 83.7096 195.414 81.924 194.1 80.4537C192.785 78.9834 191.209 77.8639 189.482 77.1738C187.755 76.4837 185.919 76.2395 184.102 76.4584C182.285 76.6773 180.531 77.354 178.964 78.4411C176.131 80.1243 173.476 82.2084 170.761 84.0955C169.375 82.7021 167.906 81.4226 166.366 80.2665C164.578 79.2351 162.736 78.3353 160.851 77.5725C162.599 71.9005 164.343 66.364 166.009 60.7966C167.679 55.2191 169.272 49.6106 171.02 43.6008C171.02 47.4252 170.967 50.7125 171.033 53.9964C171.118 58.2519 171.222 62.5118 171.502 66.7532C171.815 67.6834 172.307 68.5184 172.94 69.1948C173.607 68.7167 174.217 68.1401 174.755 67.4794C175.998 65.5001 177.112 63.4117 178.525 60.9299C178.545 64.2891 177.587 67.79 180.246 69.1678C183.747 70.9826 185.357 66.7317 187.816 64.5188C187.238 68.038 186.719 71.2018 186.2 74.3657L187.499 74.716C188.089 72.1672 188.616 69.5961 189.287 67.0764C189.976 64.4877 190.863 61.97 191.558 59.3833C192.228 56.8914 194.609 55.0296 193.687 51.2006C192.923 52.2769 192.465 52.8768 192.049 53.514C189.487 57.4458 187.012 61.4606 184.322 65.2708C183.406 66.1159 182.361 66.7524 181.242 67.1466C180.759 65.8641 180.505 64.482 180.494 63.083C181.212 59.4338 182.257 55.8661 183.269 52.3027C183.736 50.6577 184.482 49.1202 184.97 47.4811C184.917 46.9511 184.746 46.4464 184.472 46.0175C184.039 46.1346 183.636 46.3679 183.295 46.6984C182.716 47.7546 182.334 48.9528 181.792 50.0391C179.145 55.3419 176.471 60.6264 173.806 65.9172L173.106 65.6197C172.885 64.5196 172.737 63.4012 172.664 62.2747C172.638 47.9285 172.732 33.6217 176.714 19.7495C177.631 15.8243 178.253 11.8143 178.572 7.76448C178.444 7.0033 178.159 6.28928 177.742 5.68323C177.207 6.05571 176.744 6.55208 176.382 7.14133C175.726 8.92519 175.22 10.7787 174.873 12.6757C174.129 19.4852 173.083 26.2459 171.74 32.931C168.232 46.7645 164.06 60.3709 160.234 74.098C160.144 74.6392 159.96 75.1534 159.693 75.6099C159.427 76.0664 159.083 76.4556 158.683 76.754C158.283 77.0524 157.836 77.2539 157.367 77.3463C156.898 77.4387 156.418 77.4201 155.956 77.2916C151.267 76.8302 146.571 78.0627 142.511 80.8198C139.922 82.4717 137.534 84.5449 135.003 86.469C132.601 83.3034 130.182 80.101 127.748 76.9133C126.707 75.5222 125.389 74.4454 123.909 73.7757C122.428 73.1059 120.83 72.8633 119.25 73.0687C113.844 73.7623 108.642 75.8602 104.032 79.2064C103.637 79.5583 103.181 79.8059 102.695 79.9315C102.208 80.0572 101.705 80.058 101.218 79.9338C100.732 79.8096 100.275 79.5634 99.8793 79.2126C99.4838 78.8618 99.1593 78.4149 98.9287 77.9032C96.435 73.9269 94.1564 69.7679 91.8265 65.6556C90.6394 63.5605 89.5894 61.3579 88.3459 59.311C87.8415 58.9497 87.2654 58.7446 86.6729 58.7156C86.5624 59.3238 86.5678 59.9527 86.6888 60.5582C87.685 62.6821 88.7788 64.7467 89.8818 66.8006C92.1601 71.3868 93.6135 76.4605 94.1542 81.7156C92.8054 81.1246 91.5734 80.224 90.5321 79.0679C84.0277 70.8548 78.6485 61.5338 74.5822 51.43C73.9895 50.2494 73.3158 49.1259 72.5677 48.0705L71.7241 48.6493C72.1162 55.9093 75.3925 62.0703 77.7466 68.5823C80.0927 75.0726 82.443 81.5607 83.8879 85.5529C79.7588 81.2683 74.0346 75.6305 68.6185 69.6193C63.7882 64.2494 59.7036 58.0456 56.5096 51.228C55.4595 49.3654 54.2832 47.6027 52.9917 45.9565C52.7033 46.3012 52.4812 46.7129 52.34 47.1644C52.1989 47.6159 52.142 48.097 52.173 48.5758C52.204 49.0547 52.3222 49.5205 52.5199 49.9426C52.7175 50.3646 52.9902 50.7332 53.3197 51.0242C55.6608 54.3067 57.7446 57.8247 59.5464 61.5365C63.3578 71.9409 66.6251 82.614 70.0596 93.2018C70.2422 93.5344 70.3516 93.9139 70.3781 94.3069C70.4046 94.7 70.3473 95.0945 70.2115 95.4559C70.0756 95.8173 69.8652 96.1345 69.5987 96.3795C69.3323 96.6246 69.0181 96.79 68.6836 96.8613C64.9057 98.1712 61.6676 101.029 59.5732 104.902C56.843 109.032 55.1382 113.948 54.6427 119.119C54.1473 124.29 54.8802 129.519 56.7621 134.243C58.0654 137.821 58.1815 137.764 55.0094 139.383C52.6853 136.58 50.1751 133.994 47.5017 131.647C41.1339 126.865 34.4855 122.588 28.0023 118.007C25.6127 116.318 23.3691 114.353 21.0588 112.514C28.6033 115.053 36.3607 116.647 44.1982 117.27L44.6153 116.23C41.2567 113.097 37.8983 109.964 34.6792 106.961C35.9697 107.215 37.2139 107.461 38.458 107.707C38.4665 106.072 38.5459 104.432 38.4514 102.805C38.2886 102.056 38.0719 101.323 37.8036 100.616C37.6007 99.6843 37.4989 98.7231 37.2441 97.0613C43.1378 103.323 46.7658 111.034 53.2121 115.367C48.2099 107.916 43.1078 100.599 37.77 93.5213C32.2165 86.1575 31.9823 75.8544 27.2561 67.7522C26.6479 69.0409 26.3408 70.4916 26.3655 71.9603C26.3902 73.4291 26.7458 74.8648 27.3969 76.125C29.3703 81.5525 31.7089 86.8039 33.6234 92.257C35.0283 96.258 36.0028 100.462 37.3004 105.038C31.6181 101.678 29.5428 94.7879 24.3646 91.7341C25.6572 102.434 33.475 107.411 39.0579 114.405C30.4778 113.409 22.1289 110.591 14.4276 106.094C13.7977 105.517 13.0234 105.191 12.2205 105.166C11.4175 105.141 10.6292 105.418 9.97351 105.956C10.1955 106.304 10.4489 106.623 10.7295 106.908C16.8112 111.518 22.8798 116.151 28.9963 120.698C35.3873 125.45 41.8662 130.044 48.2027 134.89C49.1486 135.991 49.9121 137.283 50.4554 138.704L50.0615 138.995C51.1681 139.58 52.2747 140.165 53.6185 140.875C52.5452 142.447 51.6123 144.142 50.8342 145.933C49.6259 149.135 49.0863 152.623 49.2592 156.113C49.4322 159.603 50.3129 162.996 51.8297 166.017C53.4414 169.26 55.4358 172.226 57.7551 174.83C60.0726 177.323 60.3602 178.347 58.1167 181.024C53.1126 186.994 48.2157 193.085 43.281 199.133C41.8996 200.827 40.5392 202.543 39.1691 204.249L38.62 203.714C43.327 193.526 49.1222 184.065 55.8687 175.556C50.4371 177.862 45.4933 181.487 41.3686 186.189C37.0178 190.485 32.8723 195.061 28.3409 199.825C34.0827 192.165 39.6091 184.92 44.9985 177.539C46.9946 174.695 48.8566 171.727 50.5762 168.65C50.725 167.886 50.7066 167.091 50.5226 166.337C49.802 166.587 49.1334 167.006 48.5579 167.568C45.2926 172.79 42.4934 178.473 38.8298 183.274C34.0089 189.593 30.1388 197.082 23.5333 201.399L23.7436 201.668L25.005 201.338C22.1206 206.503 22.1206 206.503 22.7251 208.393C31.5375 199.342 39.1694 188.98 49.0589 181.713C43.6043 190.983 37.0537 199.518 35.9987 211.476C39.2692 207.438 42.0434 202.954 45.1425 198.796C48.3945 194.432 51.9579 190.38 55.3852 186.192L55.6744 186.458C54.3027 189.842 52.9312 193.226 51.5596 196.61L52.4762 197.293C53.3662 196.049 54.2246 194.773 55.1515 193.567C58.7568 188.877 62.3648 184.189 66.0171 179.548C66.1759 179.261 66.3886 179.018 66.6393 178.839C66.89 178.659 67.1724 178.547 67.4655 178.511C67.7586 178.476 68.0548 178.517 68.3324 178.632C68.6099 178.747 68.8615 178.932 69.0686 179.175C69.9963 180.028 71.098 180.59 72.2674 180.805C73.4368 181.021 74.6343 180.883 75.7445 180.406C78.7471 179.339 81.6395 177.855 84.7197 176.488C84.9487 177.099 85.1311 177.731 85.2648 178.378C85.7309 181.399 86.8073 184.249 88.406 186.695C90.0047 189.141 92.0803 191.114 94.463 192.451C101.66 197.707 110.314 199.588 118.665 197.711C123.541 196.415 127.746 194.521 129.598 188.556C129.857 187.902 130.185 187.288 130.574 186.726C135.796 188.744 140.781 190.67 145.942 192.665C146.916 192.799 147.853 193.173 148.691 193.762C153.789 191.495 159.296 190.533 163.108 185.603C164.909 188.615 167.528 190.843 170.547 191.931C173.566 193.019 176.813 192.905 179.77 191.608C186.169 189.495 193.111 187.347 193.955 177.332C198.62 178.611 202.627 180.631 203.905 186.684C204.255 187.874 204.704 189.022 205.245 190.111C209.569 200.774 213.876 211.447 218.239 222.089C218.947 223.623 219.724 225.114 220.566 226.555L221.357 226.123C219.213 218.056 217.069 209.99 214.924 201.923L215.554 201.63L223.748 206.933L224.603 206.011C223.396 201.745 222.188 197.479 220.839 192.712C224.226 194.408 226.993 195.793 229.76 197.178L230.434 196.482C230.155 195.157 229.803 193.853 229.38 192.579C228.276 189.446 226.995 186.402 225.546 183.464C222.69 178.142 219.512 173.054 216.576 167.787C216.125 166.743 215.889 165.592 215.887 164.424C215.654 161.214 215.742 157.952 215.286 154.792C214.78 152.706 214.08 150.691 213.196 148.782C218.938 145.756 220.238 139.822 220.601 133.456C220.783 130.206 220.387 126.946 219.438 123.88C218.488 120.815 217.005 118.008 215.08 115.634C219.925 114.101 224.186 112.597 228.513 111.419C234.92 109.674 241.386 108.22 247.796 106.491C248.901 105.985 249.937 105.295 250.872 104.445L250.497 102.989C243.372 103.698 236.247 104.408 229.122 105.117C229.816 104.24 230.727 103.633 231.731 103.381C236.193 102.141 240.679 101.019 245.124 99.7061C246.056 99.2548 246.926 98.6502 247.709 97.9109L247.314 97.0527C239.244 97.1479 231.214 98.3833 223.402 100.732C230.191 96.53 237.037 92.5752 243.891 88.6361C244.375 88.2593 244.932 88.0274 245.512 87.9614C246.925 88.2172 248.373 88.0089 249.689 87.3601C251.006 86.7113 252.139 85.6479 252.961 84.2905C251.049 85.3961 249.323 86.3943 247.596 87.3927L247.276 86.7398C247.644 86.3047 248.052 85.9167 248.491 85.5823C252.863 82.965 257.264 80.4136 261.625 77.7739ZM82.6159 77.1981C81.1257 73.1603 79.7541 69.0637 78.3297 64.9931L78.848 64.5701C79.9641 66.4472 80.9901 68.4077 82.2147 70.184C84.9642 74.1727 87.7753 78.1038 90.6479 81.9773C91.3407 82.8209 92.1716 83.4961 93.092 83.9633C93.4131 84.2559 93.8064 84.4218 94.2146 84.4368C94.6228 84.4518 95.0244 84.3151 95.3608 84.0467C95.6972 83.7782 95.9508 83.3922 96.0845 82.9449C96.2181 82.4975 96.2249 82.0124 96.1039 81.5603C95.9593 79.8696 95.5488 78.2094 95.1236 75.7701L99.7528 81.6206C96.7638 85.7396 93.8895 89.8182 90.8929 93.772C89.7043 95.3401 89.0245 94.0002 88.5596 92.7966C86.5558 87.6086 84.5445 82.4237 82.6159 77.1981H82.6159ZM66.9109 76.3432C66.1672 73.8458 65.2405 71.4215 64.3967 68.9641L65.1561 68.3806C71.8752 76.2662 78.5945 84.1518 85.5348 92.2969C81.0493 93.1743 77.3517 94.0435 73.6166 94.491C73.1183 94.2874 72.6659 93.9564 72.2931 93.5223C71.9203 93.0883 71.6366 92.5625 71.4631 91.984C69.8398 86.815 68.4595 81.5447 66.9109 76.3432ZM59.3628 184.529L58.8015 183.926L63.8524 177.778L64.4203 178.385C62.7344 180.433 61.0485 182.481 59.3627 184.529H59.3628ZM227.767 193.416L227.282 194.188C225.456 192.887 223.599 191.641 221.817 190.264C220.569 189.3 219.489 188.032 218.207 187.145C217.428 186.797 216.604 186.602 215.77 186.566C215.899 187.415 216.147 188.233 216.506 188.988C219.458 193.193 221.26 198.324 221.682 203.723C219.843 202.228 218.047 200.654 216.145 199.275C215.31 198.824 214.428 198.498 213.522 198.303C213.413 199.365 213.408 200.438 213.507 201.501C213.959 203.893 214.594 206.238 215.154 208.603L214.559 208.845C212.673 204.182 210.787 199.519 208.629 194.185C209.94 195.277 210.755 195.956 211.57 196.635L211.913 196.182C209.238 190.801 206.563 185.421 203.75 179.763C208.457 177.948 212.363 174.065 214.627 168.948C221.609 175.579 223.314 185.483 227.767 193.416ZM216.93 141.795C216.581 143.211 215.787 144.424 214.706 145.196C213.624 145.968 212.332 146.244 211.084 145.968C210.834 145.94 210.582 145.967 210.341 146.047C210.066 146.172 209.8 146.323 209.547 146.499C209.861 147.405 210.251 148.273 210.711 149.09C212.935 152.283 214.164 156.253 214.195 160.357C214.227 164.461 213.061 168.456 210.886 171.694C206.343 177.743 199.182 180.943 193.284 172.113C192.813 171.683 192.272 171.369 191.694 171.19C191.487 171.859 191.246 172.517 191.094 173.202C191.104 173.492 191.16 173.777 191.26 174.043C191.936 176.473 191.801 179.109 190.883 181.431C189.966 183.752 188.331 185.591 186.302 186.585C181.033 189.479 175.715 192.155 169.811 189.125C168.475 188.4 167.268 187.392 166.251 186.153C165.849 185.187 165.635 184.13 165.625 183.058C162.768 183.293 164.568 179.941 163.673 177.95C163.057 177.998 162.305 178.057 161.461 178.124C161.578 179.54 161.625 180.964 161.602 182.387C161.399 183.578 160.913 184.679 160.199 185.567C159.484 186.455 158.57 187.093 157.559 187.41C155.66 188.604 153.686 189.631 151.655 190.483C150.388 190.993 149.024 191.087 147.713 190.754C143.936 189.59 140.273 187.923 136.491 186.784C132.797 185.672 131.877 182.472 131.201 178.791C131.116 178.321 130.942 177.877 130.694 177.492C130.445 177.106 130.127 176.788 129.761 176.56C128.483 176.695 128.56 177.768 128.849 179.154C128.959 180.574 128.828 182.005 128.464 183.366C128.616 184.582 128.6 185.818 128.416 187.028C127.631 189.488 126.261 191.64 124.464 193.234C122.667 194.828 120.517 195.799 118.264 196.034C113.497 197.089 108.582 196.807 103.928 195.211C99.275 193.616 95.0184 190.753 91.5138 186.862C90.0213 185.374 88.8468 183.506 88.0826 181.403C87.3184 179.3 86.9853 177.021 87.1096 174.744C87.1737 173.777 87.1435 172.804 87.0197 171.845C86.9407 171.595 86.814 171.369 86.6492 171.184C86.4844 170.999 86.2857 170.86 86.0679 170.776C85.869 170.781 85.6747 170.846 85.5039 170.964C85.3331 171.082 85.1917 171.25 85.0935 171.45C84.1318 175.641 80.7022 176.17 78.0419 177.566C76.0172 178.316 73.9207 178.776 71.7996 178.934L71.5668 178.192L73.4449 176.565C71.8711 176.373 70.8807 176.176 69.8866 176.145C69.4581 176.258 69.0111 176.23 68.5954 176.065C68.1798 175.9 67.8116 175.605 67.532 175.213C67.2524 174.82 67.0723 174.345 67.0116 173.84C66.951 173.336 67.0123 172.822 67.1886 172.356C67.3928 170.904 67.402 169.425 67.2158 167.971C66.6982 170.986 66.5629 174.106 63.2834 175.414C61.59 175.022 59.9949 174.192 58.6176 172.985C57.2403 171.778 56.1163 170.225 55.3299 168.443C53.8484 164.853 51.8314 161.351 52.5522 157.175C52.0445 156.67 51.6534 156.025 51.4144 155.301C51.2868 150.155 52.5924 142.924 57.7774 140.381C58.8887 140.093 60.043 140.114 61.146 140.442C61.6123 140.645 62.0453 140.938 62.4259 141.31C63.9486 142.287 65.9255 143.294 66.8338 141.188C67.2635 139.309 67.0802 137.312 66.319 135.58C65.8447 135.23 65.3128 134.998 64.7569 134.898C64.2011 134.799 63.6335 134.834 63.0901 135.003C59.3591 136.015 59.3812 135.991 57.8051 131.903C54.6333 123.676 56.5759 108.332 64.6467 101.641C67.54 98.9801 70.8837 97.0548 74.4606 95.9898C78.0376 94.9249 81.7678 94.744 85.4089 95.4589C87.3565 95.8979 89.5414 96.1156 88.3955 99.905L89.1362 100.057C89.7991 99.2953 90.4146 98.4804 90.978 97.6181C94.0763 91.1572 98.436 85.6266 103.708 81.4688C108.467 77.8372 113.922 75.6129 119.594 74.9907C121.738 75.0561 123.802 75.9547 125.453 77.5424C127.84 79.968 130 82.6783 131.898 85.6284C132.735 87.1762 133.456 88.805 134.051 90.4966C134.294 91.0595 134.697 91.5077 135.192 91.7655C135.422 91.7252 135.639 91.6196 135.824 91.4579C136.01 91.2963 136.158 91.0838 136.255 90.8395C138.042 83.6164 143.596 82.0266 148.656 80.0764C151.412 79.3759 154.227 79.0332 157.049 79.0548L158.012 82.1055C160.646 78.8197 163.103 80.5819 165.477 82.1927C166.744 82.8662 167.8 83.9788 168.498 85.3771C169.197 86.7754 169.504 88.3906 169.378 89.9998C169.508 90.7655 169.784 91.4878 170.186 92.1139C170.753 91.6009 171.219 90.9532 171.553 90.2142C172.252 87.1084 173.76 84.3279 175.872 82.252C177.983 80.176 180.596 78.9056 183.353 78.614C185.774 78.1038 188.272 78.5984 190.41 80.011C192.547 81.4236 194.187 83.6639 195.041 86.3386C195.839 88.3651 196.547 90.4376 197.162 92.548C197.651 93.4537 197.842 94.5328 197.701 95.5883C197.559 96.6438 197.095 97.6052 196.393 98.297C195.955 99.1396 195.698 100.093 195.646 101.075L196.6 101.428C197.069 100.823 197.539 100.219 198.266 99.2814V102.557L198.818 102.826C199.226 101.965 199.562 101.061 199.821 100.126C200.337 97.4632 201.194 96.7766 203.24 98.0513C204.436 98.9779 205.547 100.046 206.553 101.237C205.532 102.417 204.521 103.608 203.483 104.767C202.987 105.224 202.47 105.649 201.934 106.039C202.694 106.554 203.481 107.016 204.288 107.421C207.309 108.649 210.362 109.773 213.351 111.094C213.472 111.444 213.529 111.82 213.518 112.196C213.507 112.573 213.428 112.943 213.287 113.283C211.408 114.734 212.118 115.764 213.404 117.077C219.86 123.672 219.62 135.188 216.93 141.795ZM61.9984 138.362L62.0165 137.704C62.771 137.346 63.5853 137.19 64.3991 137.246C64.8804 137.869 65.2066 138.632 65.3426 139.453L64.668 140.015L61.9984 138.362ZM234.297 100.699C231.514 101.461 228.73 102.222 225.947 102.983C228.67 101.972 231.393 100.962 234.116 99.9518L234.297 100.699ZM223.331 98.4833C221.999 99.206 220.937 100.462 220.34 102.021C221.058 104.409 223.142 103.017 224.707 103.04C225.028 103.045 225.349 103.064 225.67 103.077C225.364 103.973 225.059 104.868 224.753 105.765C225.836 106.408 226.995 106.859 228.193 107.104C230.933 107.177 233.68 106.867 236.425 106.714C236.551 106.697 236.679 106.71 236.8 106.753C236.921 106.796 237.033 106.868 237.129 106.965C230.36 108.895 223.592 110.825 217.229 112.639C216.094 111.205 214.851 109.892 213.514 108.715C211.861 107.726 210.143 106.89 208.376 106.214C216.714 100.607 225.451 95.8361 234.49 91.9521C230.759 94.1068 226.97 96.1397 223.331 98.4833H223.331Z" fill="#DDE7DC"/>
<path d="M267.877 96.2127C269.173 93.9267 270.611 91.7531 272.179 89.7093C273.268 89.0365 274.448 88.5832 275.668 88.3688C280.385 86.2113 285.041 83.8687 289.798 81.8417C292.384 80.8272 295.027 80.0159 297.707 79.4131C298.459 79.4185 299.202 79.5944 299.896 79.9307L300 80.7942C298.949 81.614 297.837 82.3256 296.679 82.9211C292.537 84.5964 288.367 86.1813 284.171 87.6759C278.837 89.2707 273.785 91.9347 269.243 95.5476C268.808 95.8221 268.351 96.0449 267.877 96.2127Z" fill="#DDE7DC"/>
<path d="M193.01 30.0922C192.713 29.2063 192.584 28.2566 192.632 27.3078C194.995 19.1923 197.333 11.058 200.042 3.09547C201.148 1.69326 202.536 0.629873 204.082 0C202.888 3.14957 201.761 5.80119 200.868 8.55507C199.584 12.5171 198.567 16.5968 197.253 20.5446C196.187 23.7478 194.852 26.8307 193.636 29.9669L193.01 30.0922Z" fill="#DDE7DC"/>
<path d="M14.9316 88.3448C14.0929 88.9382 13.1484 89.3019 12.1702 89.4083C7.55937 86.2664 3.72382 81.8017 1.03263 76.4439C0.559424 75.5326 0.228418 74.5318 0.0547873 73.4873C-0.0253804 73.0012 -0.0174928 72.5011 0.0779497 72.0186C0.173392 71.5362 0.354305 71.0821 0.609207 70.685C1.01345 70.5241 1.44623 70.4843 1.86731 70.5692C2.28839 70.6542 2.6841 70.8613 3.01763 71.1711C6.06851 74.8236 9.04505 78.5697 11.8866 82.4421C13.0304 84.3165 14.0483 86.2898 14.9316 88.3448ZM11.2434 85.9388L11.8239 85.2012L2.9974 73.2033L2.21 73.9934C3.77962 79.1766 7.01607 83.4563 11.2434 85.9388Z" fill="#DDE7DC"/>
<path d="M74.8056 17.5427C75.4097 17.8782 75.9405 18.3675 76.3586 18.9741C78.7945 26.0208 81.1648 33.0975 83.4694 40.2044C83.531 40.9784 83.4479 41.7588 83.2256 42.4922C82.6439 42.1012 82.1367 41.5774 81.7347 40.9526C79.3335 34.3855 76.9894 27.7906 74.7026 21.1679C74.4485 20.1064 74.2988 19.0151 74.2563 17.9146L74.8056 17.5427Z" fill="#DDE7DC"/>
<path d="M23.7431 201.668C19.9372 205.718 16.1697 209.817 12.3115 213.799C9.82236 216.368 7.23465 218.815 4.61322 221.202C3.88964 221.658 3.10764 221.977 2.29696 222.147L1.66431 221.162L8.28599 212.417L8.90031 212.976L6.43592 217.018L6.77749 217.438C9.42155 214.75 12.0124 211.986 14.7245 209.394C17.6005 206.644 20.5919 204.057 23.5329 201.399L23.7431 201.668Z" fill="#DDE7DC"/>
<path d="M248.26 208.836L242.557 197.732C243.148 198.051 243.711 198.437 244.236 198.885C246.906 201.696 248.692 205.458 249.313 209.576C249.382 209.932 249.38 210.301 249.308 210.656C249.236 211.011 249.095 211.342 248.897 211.625C248.251 211.92 247.532 211.913 246.889 211.607C243.469 210.164 242.149 206.439 240.375 203.24C240.32 202.713 240.385 202.179 240.564 201.691C241.082 201.744 241.582 201.941 242.02 202.265C242.693 203.234 243.092 204.455 243.754 205.436C244.786 206.966 245.945 208.382 247.051 209.847L248.26 208.836Z" fill="#DDE7DC"/>
<path d="M32.1755 108.416C31.3561 108.646 30.5084 108.708 29.6704 108.602C28.8978 108.234 28.2284 107.626 27.7366 106.843C27.4378 106.233 27.2323 105.568 27.129 104.876C27.7152 104.807 28.3075 104.87 28.8727 105.063C29.9276 105.808 30.9476 106.617 31.9285 107.488L32.1755 108.416Z" fill="#DDE7DC"/>
<path d="M17.912 201.57L12.2004 208.955L11.5315 208.32L16.8582 200.597L17.912 201.57Z" fill="#DDE7DC"/>
<path d="M188.674 119.794C185.572 123.347 181.257 124.286 177.555 126.544L176.984 126.028C177.616 124.019 178.372 122.066 179.245 120.182C180.227 118.631 180.656 116.701 180.443 114.793C180.23 112.885 179.391 111.146 178.101 109.935C176.376 108.223 175.329 105.945 173.57 104.413C172.632 103.698 171.499 103.409 170.389 103.603C169.279 103.796 168.269 104.457 167.554 105.46C167.132 105.747 166.68 105.969 166.209 106.119C166.092 105.035 166.184 103.935 166.479 102.897C166.807 102.575 167.056 102.158 167.201 101.688C167.346 101.219 167.382 100.714 167.306 100.223C167.23 99.7328 167.044 99.2739 166.767 98.8928C166.49 98.5116 166.131 98.2215 165.727 98.0514C163.577 96.8093 161.277 95.9529 158.905 95.5115C154.305 94.3287 149.506 94.7441 145.108 96.7058C141.655 98.53 138.304 100.594 138.12 105.866C138.134 106.644 137.947 107.408 137.582 108.062C137.016 108.665 136.375 109.167 135.681 109.552C135.338 108.784 135.069 107.975 134.879 107.139C134.787 106.459 134.911 105.763 135.228 105.181C137.037 102.366 135.921 100.161 134.347 97.8905C133.903 97.125 133.243 96.5625 132.48 96.2994C131.717 96.0363 130.899 96.089 130.166 96.4484C128.159 97.1965 128.753 98.9566 128.81 100.517C128.958 101.392 128.864 102.3 128.54 103.109L126.57 95.4989H130.485C129.55 94.5192 128.394 93.8695 127.151 93.6264C125.909 93.3833 124.632 93.557 123.472 94.1269C121.063 95.23 118.894 96.9354 117.119 99.1215C115.348 101.734 113.787 104.529 112.455 107.471C111.049 105.569 111.049 105.57 116.351 97.0914L110.172 99.6972L109.92 99.0492C110.576 98.6427 111.212 98.1852 111.89 97.8383C115.015 96.2399 118.155 94.6836 121.282 93.0913C124.251 91.456 127.657 91.2479 130.758 92.5124C133.859 93.777 136.402 96.4115 137.834 99.8414C140.031 98.0258 142.364 96.4421 144.805 95.1094C151.406 92.4524 158.604 92.5798 165.132 95.4695C166.599 96.478 167.892 97.7918 168.947 99.3448C169.328 99.8812 169.791 100.332 170.313 100.674C171.853 101.372 173.449 101.893 175.078 102.228C176.792 102.503 178.601 103.687 180.226 101.302C181.562 100.48 183.042 100.021 184.554 99.9613C182.772 103.626 179.569 103.086 177.454 105C179.578 109.385 183.654 112.922 181.48 119.257L188.343 118.728L188.674 119.794ZM187.197 119.763C181.495 119.582 179.879 120.662 179.502 124.587L187.197 119.763Z" fill="#DDE7DC"/>
<path d="M189.178 146.771L183.883 148.977L183.688 148.538C184.916 147.746 186.136 146.937 187.373 146.164C187.91 145.914 188.381 145.506 188.74 144.979C189.098 144.453 189.332 143.827 189.417 143.164C189.503 142.501 189.437 141.823 189.227 141.198C189.017 140.573 188.67 140.023 188.22 139.602C187.847 139.129 187.407 138.727 186.999 138.292L187.376 137.389C188.215 137.605 188.992 138.068 189.632 138.732C190.694 141.343 192.502 140.833 194.31 140.694C195.216 140.625 196.129 140.682 197.039 140.682L197.324 141.731C196.44 142.634 195.456 143.395 194.397 143.992C193.45 144.339 192.626 145.033 192.049 145.969C191.472 146.906 191.174 148.034 191.198 149.185C191.039 150.831 190.555 152.414 189.785 153.809C189.014 155.205 187.977 156.376 186.753 157.232C185.529 158.088 184.152 158.607 182.728 158.747C181.303 158.888 179.87 158.647 178.539 158.042C177.736 157.558 176.813 157.41 175.927 157.624C175.04 157.837 174.245 158.399 173.674 159.214C171.734 161.347 169.391 162.925 166.832 163.821C164.272 164.717 161.567 164.908 158.933 164.376C158.099 164.439 157.269 164.189 156.566 163.664C154.279 160.232 152.18 162.868 150.039 163.751C148.004 164.591 146.025 165.621 143.969 166.379C142.126 167.292 140.084 167.525 138.123 167.046C136.161 166.567 134.374 165.4 133.005 163.702C130.357 165.873 127.808 168.024 125.205 170.083C121.633 172.85 117.354 174.123 113.073 173.691C110.891 173.489 108.865 172.301 107.43 170.384C105.996 168.467 105.269 165.974 105.405 163.441C105.627 162.494 105.97 161.59 106.421 160.759C106.684 161.002 106.912 161.292 107.095 161.619C106.594 170.99 113.038 172.734 118.426 171.533C123.049 170.145 127.273 167.362 130.668 163.468C131.245 162.181 131.584 160.768 131.663 159.32C132.033 158.191 132.453 157.086 132.923 156.009C133.733 156.943 134.362 158.068 134.768 159.306C134.72 160.186 134.857 161.065 135.167 161.869C135.477 162.674 135.951 163.379 136.548 163.924C137.144 164.469 137.846 164.839 138.593 165C139.34 165.162 140.11 165.111 140.836 164.852C144.524 163.827 148.101 162.255 151.701 160.834C152.329 160.598 152.857 160.097 153.181 159.43C154.109 156.879 154.856 157.423 156.094 159.237C156.916 160.53 158.066 161.493 159.382 161.993C161.618 162.647 163.954 162.704 166.212 162.16C168.47 161.617 170.592 160.486 172.419 158.853C173.503 157.705 174.286 156.226 174.677 154.585C175.172 152.909 175.588 152.674 176.683 153.874C177.96 155.483 179.696 156.503 181.57 156.745C183.444 156.988 185.331 156.438 186.883 155.196C188.023 154.292 188.87 152.97 189.286 151.443C189.702 149.915 189.664 148.27 189.178 146.771Z" fill="#DDE7DC"/>
<path d="M83.9807 111.702C85.2635 111.519 86.559 111.413 87.8254 111.131C89.0933 110.848 90.3322 110.39 91.8045 109.942L90.8663 114.642L89.3744 111.801C87.4127 112.603 85.3783 113.384 83.387 114.293C83.1846 114.435 83.0097 114.624 82.8733 114.847C82.7369 115.071 82.6419 115.325 82.5943 115.594C82.4289 116.385 82.4072 117.207 82.5305 118.008C82.6539 118.809 82.9195 119.572 83.3107 120.248C83.7018 120.923 84.2099 121.498 84.8027 121.934C85.3954 122.37 86.0599 122.658 86.7539 122.781C87.5786 123.067 88.3731 123.46 89.1228 123.95L89.0847 124.988C88.1677 125.269 87.2238 125.415 86.2753 125.423C79.705 124.526 69.0925 134.761 72.7527 146.482C73.3187 148.225 74.3082 149.741 75.6014 150.845C76.8946 151.95 78.4363 152.597 80.0399 152.708C81.7168 152.165 83.2218 151.07 84.3724 149.556C84.7326 149.058 84.9883 148.471 85.1192 147.839L87.2798 149.618L85.9112 151.098L90.8836 150.216L90.9938 150.897L84.614 153.11L87.0418 155.118C85.6177 155.37 84.1821 155.526 82.7423 155.585C74.969 155.279 70.1415 150.442 69.991 141.246C70.1339 138.426 70.8699 135.689 72.1349 133.274C73.3999 130.859 75.1554 128.84 77.2482 127.392C78.9203 125.976 80.7989 124.888 82.5391 123.682L80.3303 115.532L75.439 117.228C75.1828 116.786 74.9778 116.306 74.8291 115.802C74.1087 111.842 74.0073 111.731 70.6971 112.019C70.2949 112.139 69.8775 112.176 69.4643 112.127C68.6779 111.778 67.9086 111.38 67.1597 110.935C67.6857 110.271 68.2957 109.704 68.9688 109.253C73.181 107.377 77.4304 105.613 81.6675 103.811L82.1381 105.168C78.4487 107.572 74.0156 108.02 69.7494 110.456C71.0766 110.365 72.4078 110.385 73.7325 110.517C74.4028 110.716 74.9887 111.189 75.3826 111.848C75.9402 112.893 76.4308 113.984 76.8504 115.112C78.4034 114.18 79.8668 113.059 81.2161 111.768C82.7184 110.022 83.6442 107.612 85.136 105.849C89.2969 100.932 92.0853 102.35 93.7475 108.616C93.0146 108.381 92.3226 107.999 91.7027 107.489C89.9685 104.993 88.6974 104.715 86.6322 106.876C85.5417 108.157 84.5235 109.518 83.584 110.951L83.9807 111.702Z" fill="#DDE7DC"/>
<path d="M115.348 146.822C112.231 145.833 109.203 145.179 106.378 143.915C99.8667 141.001 100.722 135.479 102.978 130.805C104.594 127.741 106.809 125.162 109.444 123.274C112.078 121.387 115.059 120.244 118.145 119.939C119.237 119.945 120.32 120.159 121.352 120.574L121.347 121.416C118.901 122.253 116.405 122.88 113.88 123.292C109.212 123.69 102.193 131.859 103.316 137.275C103.573 138.306 104.012 139.264 104.605 140.088C105.198 140.913 105.932 141.586 106.76 142.065C109.665 143.206 112.678 143.943 115.733 144.258C117.526 144.539 118.648 144.632 117.771 147.334C117.33 148.616 117.311 150.041 117.717 151.338C118.124 152.635 118.928 153.713 119.976 154.367C121.223 155.436 122.681 156.127 124.217 156.376C125.753 156.624 127.318 156.424 128.771 155.793C129.824 155.305 130.871 154.796 132.25 154.14C131.092 155.915 129.488 157.231 127.659 157.906C125.829 158.582 123.864 158.584 122.034 157.912C117.579 156.578 115.722 153.512 115.348 146.822Z" fill="#DDE7DC"/>
<path d="M158.449 125.632C163.58 123.894 165.496 128.258 167.703 131.558C168.635 132.778 169.187 134.325 169.271 135.952C169.354 137.578 168.965 139.191 168.164 140.53C167.123 142.24 165.689 143.577 164.026 144.39C162.362 145.203 160.536 145.459 158.753 145.129C159.276 144.836 159.794 144.528 160.325 144.252C161.796 143.587 163.236 142.833 164.639 141.994C165.29 141.654 165.864 141.144 166.315 140.503C166.767 139.863 167.084 139.109 167.242 138.303C167.4 137.496 167.394 136.657 167.225 135.854C167.057 135.05 166.729 134.302 166.269 133.67C165.863 132.939 165.429 132.228 165.005 131.511C162.554 127.372 161.652 127.058 157.558 128.857C156.892 129.077 156.217 129.255 155.534 129.391C156.013 126.998 156.355 125.022 156.809 123.081C157.226 121.96 157.296 120.706 157.008 119.532C156.72 118.358 156.091 117.335 155.228 116.636C154.329 115.995 153.271 115.721 152.222 115.859C151.173 115.997 150.195 116.539 149.443 117.398C147.655 119.08 145.776 120.631 143.937 122.24L144.127 122.998C144.075 122.126 144.211 121.253 144.523 120.457C146.279 118.281 148.22 116.316 150.315 114.589C151.184 113.807 152.244 113.362 153.344 113.319C154.444 113.276 155.528 113.635 156.441 114.347C157.416 115.194 158.163 116.346 158.595 117.667C159.026 118.988 159.125 120.424 158.879 121.808C158.782 123.002 158.614 124.189 158.449 125.632Z" fill="#DDE7DC"/>
<path d="M141.592 143.129C141.009 143.536 140.357 143.794 139.68 143.886C137.131 143.464 134.595 142.906 132.079 142.27C131.104 142.189 130.186 141.705 129.493 140.905C128.801 140.105 128.379 139.043 128.306 137.913C128.761 136.04 129.835 134.45 131.295 133.489C134.823 130.82 138.219 131.773 139.462 135.455C139.675 136.336 139.81 137.241 139.864 138.154L139.278 138.46C138.889 137.975 138.559 137.431 138.297 136.843C138.248 136.43 138.128 136.033 137.943 135.675C137.758 135.318 137.513 135.007 137.223 134.762C136.932 134.516 136.602 134.342 136.251 134.248C135.901 134.154 135.538 134.143 135.184 134.215C133.558 134.79 132.014 135.639 130.602 136.735C130.564 137.648 130.831 138.542 131.348 139.231C133.167 140.115 135.048 140.815 136.971 141.323C138.403 141.74 139.893 141.889 141.357 142.157L141.592 143.129Z" fill="#DDE7DC"/>
<path d="M202.936 141.768C203.61 139.701 204.089 138.054 204.678 136.463C205.37 134.386 205.593 132.139 205.326 129.935C205.059 127.73 204.311 125.641 203.153 123.865C202.578 123.355 201.914 122.994 201.208 122.807L200.229 115.632L201.125 115.378C203.067 119.968 205.278 124.438 206.869 129.186C207.363 131.499 207.253 133.93 206.552 136.17C205.852 138.411 204.593 140.359 202.936 141.768Z" fill="#DDE7DC"/>
<path d="M195.172 163.351L192.673 163.195L192.615 162.345C193.881 162.149 195.157 162.052 196.435 162.055C196.799 162.725 196.921 163.534 196.776 164.308C196.037 165.461 195.097 166.422 194.018 167.128C189.37 170.029 184.655 172.784 179.964 175.592L179.525 174.675L183.302 172.477L182.763 168.955L184.579 171.195C185.157 170.339 185.644 169.618 186.132 168.897C187.745 170.303 193.524 166.813 195.172 163.351Z" fill="#DDE7DC"/>
<path d="M121.835 185.396C118.862 187.133 115.548 187.939 112.223 187.734L111.915 186.563C112.683 185.996 113.554 185.645 114.459 185.536C117.576 186.285 118.483 185.903 119.566 182.719C119.605 182.48 119.694 182.255 119.826 182.064C119.957 181.873 120.127 181.722 120.32 181.625C120.542 183.242 118.662 185.319 121.835 185.396Z" fill="#DDE7DC"/>
<path d="M141.721 94.3242L151.368 88.1991L152.002 89.6044C149.292 92.7803 145.248 92.9806 142.093 95.1641L141.721 94.3242Z" fill="#DDE7DC"/>
<path d="M101.229 168.831L100.392 173.042C98.598 173.135 97.3566 173.085 96.1493 173.296C95.0069 173.496 93.915 174.088 92.7725 174.28C92.0019 174.304 91.2317 174.217 90.4797 174.02C90.4687 173.673 90.511 173.326 90.6048 172.995C91.2607 172.835 91.9682 172.922 92.6083 172.717C95.5096 171.787 99.3372 173.415 101.229 168.831Z" fill="#DDE7DC"/>
<path d="M154.03 138.99C152.149 137.608 150.258 136.243 148.406 134.811C148.337 134.657 148.297 134.489 148.287 134.316C148.278 134.143 148.3 133.97 148.351 133.808C148.744 133.542 149.208 133.454 149.654 133.56C151.376 134.9 153.027 136.363 154.701 137.785L154.03 138.99Z" fill="#DDE7DC"/>
<path d="M85.3705 133.036C82.8347 133.64 80.3077 134.309 77.7533 134.778C77.213 134.521 76.7416 134.102 76.3877 133.564C76.7417 133.107 77.1826 132.753 77.6755 132.528C79.8878 132.362 82.1089 132.354 84.3271 132.294C84.6346 132.285 84.9425 132.293 85.25 132.293L85.3705 133.036Z" fill="#DDE7DC"/>
<path d="M197.985 150.644L196.16 153.446L193.736 151.071L197.386 150.239L197.985 150.644Z" fill="#DDE7DC"/>
</svg>
