<svg width="202" height="202" viewBox="0 0 202 202" fill="none" xmlns="http://www.w3.org/2000/svg">
<path d="M40.6707 161.32C37.5443 154.848 34.5676 148.795 31.7004 142.691C30.6292 140.411 30.0773 137.856 28.8193 135.7C26.9513 132.499 24.6104 129.578 22.5867 126.462C21.8892 125.215 21.2826 123.918 20.7718 122.583C22.2375 121.823 23.8108 121.292 25.4371 121.007C30.1229 120.928 34.8693 121.742 39.4917 121.255C45.8099 120.589 52.0387 122.166 58.3098 121.357C60.3727 121.289 62.4277 121.068 64.4577 120.695C64.9567 120.397 65.3764 119.983 65.6811 119.489C65.9857 118.994 66.1662 118.433 66.2072 117.853C66.2223 113.522 65.8164 109.192 65.747 104.859C65.5765 94.2066 65.4304 83.5525 65.4214 72.899C65.414 64.1652 65.5834 55.4307 65.7388 46.6976C65.882 38.6443 66.0767 30.592 66.3228 22.5407C66.4128 19.6552 68.2224 18.5286 71.0963 19.0657C73.3917 19.4947 75.7399 19.6598 78.0705 19.8798C87.9706 20.8146 97.877 21.6855 107.773 22.6636C112.801 23.1605 117.82 23.7707 122.825 24.4599C124.969 24.7331 127.079 25.2233 129.124 25.9229C130.306 26.422 131.33 27.2323 132.089 28.2674C132.14 28.6623 132.095 29.0636 131.959 29.4377C131.823 29.8119 131.6 30.148 131.307 30.4179C122.838 32.3736 114.343 34.2175 105.837 36.0095C101.137 36.9996 96.4086 37.8522 91.7501 38.9804C101.137 41.687 110.117 45.6466 118.446 50.7522C127.87 56.118 135.076 64.662 138.776 74.8551C142.043 84.2042 146.297 93.2117 149.476 102.587C151.162 108.577 152.509 114.658 153.51 120.8C159.492 120.767 165.828 118.97 172.914 120.036C171.233 122.826 169.999 125.107 168.548 127.24C162.464 136.185 159.764 146.462 156.836 156.654C156.726 156.939 156.681 157.244 156.703 157.549C156.725 157.853 156.814 158.149 156.964 158.415C157.114 158.682 157.32 158.911 157.569 159.088C157.818 159.265 158.104 159.384 158.404 159.438C163.718 161.601 168.98 163.889 174.258 166.141C175.293 166.682 176.439 166.978 177.606 167.004C178.774 167.031 179.933 166.788 180.991 166.295C182.928 165.592 184.933 165.095 186.974 164.812L187.448 165.817C187.16 166.401 186.731 166.905 186.2 167.283C181.363 168.546 176.685 170.619 171.505 167.797C167.045 165.576 162.456 163.625 157.761 161.955C156.934 161.855 156.096 161.932 155.301 162.18C155.454 163.076 155.841 163.915 156.424 164.612C159.003 165.706 161.652 166.625 164.354 167.363C167.666 167.944 170.932 168.76 174.128 169.803C179.08 171.99 183.611 172.178 188.219 169.191C189.182 168.814 190.196 168.583 191.227 168.505C189.548 171.685 183.105 174.882 180.43 174.167C176.278 173.058 172.219 171.547 168.023 170.665C163.611 169.912 159.278 168.754 155.079 167.205C151.058 165.558 149.811 166.566 148.104 170.589C147.676 171.574 147.022 172.446 146.195 173.132C145.368 173.818 144.391 174.3 143.343 174.539C137.651 176.34 133.042 175.397 129.265 170.559C128.35 169.767 127.163 169.361 125.954 169.428C123.235 169.4 120.517 169.595 117.83 170.012C116.863 170.493 116.025 171.199 115.388 172.071C114.144 173.203 113.06 175.063 111.648 175.354C107.699 176.191 103.677 176.632 99.6415 176.669C94.3283 176.726 89.2021 174.709 85.3528 171.046C83.4439 169.209 80.9047 168.172 78.2556 168.146C75.6064 168.121 73.0478 169.11 71.1042 170.91C67.5825 174.337 63.0555 174.562 58.9398 174.267C52.8037 173.569 46.7249 172.436 40.7491 170.878C37.7386 170.223 34.8481 169.03 31.8478 168.312C26.8481 167.117 22.9255 169.272 19.3907 172.583C18.0019 173.842 16.5143 174.988 14.9422 176.009C14.3765 176.103 13.796 176.048 13.2579 175.85C13.2078 175.326 13.2976 174.798 13.5182 174.32C17.0384 171.438 20.7654 168.819 24.6692 166.483C26.9256 165.603 29.4091 165.49 31.7362 166.161C39.3794 167.944 46.836 170.692 54.5464 171.969C60.4008 172.938 66.7667 173.468 71.4722 167.863C72.8132 166.694 74.4813 165.966 76.2502 165.778C78.0268 165.534 79.8357 165.696 81.5407 166.252C83.2457 166.808 84.8025 167.743 86.0939 168.987C89.7426 172.1 94.2493 174.034 99.0195 174.533C103.188 174.623 107.354 174.267 111.447 173.47C111.802 173.398 112.136 173.244 112.423 173.021C112.709 172.798 112.94 172.512 113.098 172.186C114.487 167.761 116.205 166.714 120.818 167.68C121.361 167.841 121.927 167.908 122.492 167.876C124.662 167.49 126.895 167.652 128.986 168.35C131.078 169.048 132.961 170.258 134.464 171.87C136.849 174.209 143.168 173.298 145.365 170.726C145.88 169.902 146.276 169.009 146.54 168.073C146.255 167.951 145.954 167.868 145.646 167.827C141.666 172.836 136.329 170.968 130.799 168.176C127.3 166.409 124.146 163.945 120.615 162.261C119.524 161.831 118.359 161.624 117.187 161.651C116.015 161.678 114.861 161.938 113.791 162.417C112.721 162.897 111.758 163.585 110.958 164.442C110.158 165.298 109.537 166.306 109.132 167.406C107.897 170.99 105.15 172.253 99.9318 171.845C95.5767 171.505 92.4217 168.886 89.4423 166.206C86.2715 163.523 82.3425 161.896 78.2032 161.553C74.0639 161.21 69.9207 162.167 66.3513 164.291C65.8374 164.54 65.3974 164.919 65.0747 165.39C64.3413 166.982 63.1255 168.302 61.5995 169.165C60.0735 170.027 58.3148 170.387 56.5728 170.193C55.11 170.25 53.6479 170.064 52.2457 169.643C46.822 167.434 41.5801 164.749 36.0834 162.757C28.609 160.049 16.7311 165.024 13.218 172.496C12.6709 173.223 11.9946 173.843 11.223 174.325C10.8687 173.358 10.7641 172.317 10.919 171.299C13.4031 166.817 17.4078 163.371 22.21 161.583C28.1593 159.425 34.6622 159.332 40.6707 161.32ZM122.172 135.184L131.481 129.259L131.259 128.477C128.623 127.914 125.996 127.296 123.342 126.837C123.039 126.824 122.736 126.888 122.463 127.021C122.189 127.154 121.953 127.353 121.776 127.6C121.722 128.198 121.878 128.796 122.217 129.291C122.596 129.848 123.029 130.365 123.509 130.836C122.677 130.751 121.852 130.609 121.04 130.409C118.659 129.563 116.32 128.588 113.913 127.827C113.209 127.821 112.513 127.976 111.879 128.281C112.109 128.882 112.489 129.413 112.983 129.825C114.841 130.395 116.768 130.737 119.198 131.283L102.638 141.093L102.066 140.242L114.255 132.173C111.603 131.473 109.254 129.452 106.71 132.286C106.521 132.482 106.285 132.625 106.024 132.704C105.764 132.782 105.488 132.793 105.222 132.735C104.956 132.676 104.71 132.551 104.506 132.37C104.302 132.19 104.148 131.96 104.058 131.704C103.643 130.949 101.058 130.763 99.8012 131.234C97.3947 132.295 95.0818 133.558 92.8867 135.007C90.5367 136.379 88.2217 137.811 85.8913 139.217L85.3881 138.433L98.0388 129.597L98.0528 128.848L92.6157 127.765L92.922 132.163C90.1887 130.84 87.5156 129.593 84.8882 128.256C84.6089 128.017 84.2823 127.839 83.9297 127.735C83.5771 127.631 83.2066 127.602 82.8422 127.651C82.4778 127.7 82.1279 127.825 81.8152 128.018C81.5025 128.212 81.2341 128.469 81.0276 128.773L85.406 131.588L70.3757 141.95L69.8153 141.243L82.1589 131.108H76.9284C75.2271 127.935 73.6131 127.558 71.6654 129.847C74.8856 130.167 74.8856 130.167 75.1614 133.118C74.0919 133.097 73.0301 133.303 72.0461 133.723C66.0638 138.418 60.1573 143.209 54.3268 148.095C53.4265 149.233 52.7173 150.51 52.2271 151.876H55.1173C53.3782 153.415 52.0686 154.222 50.6968 152.191L51.8852 149.214L47.3119 150.007L46.6431 148.734C50.0524 145.621 53.3047 142.31 56.915 139.45C60.5284 136.589 64.4994 134.179 68.3587 131.54C64.5854 127.964 62.9425 128.029 59.9406 131.661C59.6101 132.106 59.2328 132.515 58.8151 132.88C56.2437 134.886 53.6574 136.873 51.0564 138.842C50.1363 139.541 49.1755 140.186 48.2332 140.855L47.6769 140.122L55.7653 132.46C51.8683 130.454 51.8683 130.454 53.6473 126.871C49.0566 128.739 46.2384 132.583 43.2595 136.249L43.5725 137.043L48.229 135.784C42.8255 139.294 43.1749 145.206 41.7835 150.388L45.5095 146.178L46.3882 146.792L44.8668 151.098L49.0934 153.439L50.7819 162.277L54.1203 164.38L53.838 165.211C53.0193 165.107 52.199 165.015 51.3824 164.897C50.5784 164.78 49.7781 164.638 48.9761 164.507L48.8275 165.241C50.1561 165.869 51.5166 166.438 52.807 167.137C54.2263 168.073 55.9593 168.408 57.6253 168.067C59.2912 167.727 60.7536 166.738 61.6911 165.32C62.2325 164.551 62.8776 163.86 63.608 163.268C67.5354 160.362 72.318 158.845 77.2025 158.956C82.087 159.067 86.7958 160.8 90.587 163.882C92.8626 165.845 95.3287 167.576 97.9484 169.049C102.362 171.186 105.729 169.839 107.149 165.352C107.499 164.196 108.144 163.151 109.019 162.32C109.895 161.489 110.972 160.899 112.144 160.61C115.281 159.487 119.394 160.574 120.978 156.29L123.434 159.133L122.427 159.779C124.733 161.402 126.793 163.049 129.039 164.381C131.427 165.88 133.954 167.146 136.583 168.162C140.548 169.575 142.555 168.638 143.468 164.709C143.669 163.152 144.374 161.705 145.476 160.589C146.578 159.472 148.016 158.748 149.57 158.528C148.433 158.615 147.421 159.046 146.38 159.131C145.224 159.166 144.068 159.076 142.93 158.865C142.812 158.563 142.765 158.238 142.793 157.915C143.706 157.581 144.65 157.341 145.611 157.197C148.677 156.881 149.16 155.987 147.381 153.54C146.277 152.02 145.041 150.596 143.58 148.776L147.833 148.337L146.919 144.97L152.369 147.743C151.548 142.524 147.332 145.477 145.079 143.423L149.154 142.123L148.938 139.263L153.556 141.761C152.215 138.582 151.5 135.942 147.84 138.07C149.123 134.417 149.743 134.155 155.082 134.766L154.768 131.148L155.538 130.828L158.225 133.858L159.016 133.352C158.615 132.192 157.944 131.143 157.059 130.292C155.315 129.381 153.38 128.899 151.413 128.886C148.152 129.272 144.848 128.716 141.893 127.282C138.198 128.646 135.147 130.04 131.949 130.879C128.599 131.758 126.79 135.943 122.172 135.184ZM104.143 51.8833L103.308 52.3592C101.884 50.523 100.361 48.7542 99.0624 46.8337C98.4545 45.6573 97.4761 44.714 96.2783 44.1494C95.0806 43.5849 93.7303 43.4306 92.436 43.7104C91.3233 43.929 90.1084 44.2032 89.8067 42.2524C89.7315 41.7661 87.5917 41.5284 86.3768 41.3949C86.0134 42.0935 85.8083 42.8634 85.776 43.6501C85.7453 48.1505 85.7899 52.6518 85.8414 57.1524C85.9092 63.0641 86.0173 68.9754 86.0899 74.8873C86.2248 85.8692 86.3514 96.8513 86.4696 107.833C86.4973 110.412 86.4737 112.992 86.4737 116.301C89.044 115.277 90.797 114.488 92.609 113.872C101.446 110.562 110.989 109.589 120.313 111.048C128.803 112.304 137.21 114.066 145.49 116.324C146.599 116.658 147.694 117.035 149.435 117.6C148.114 112.516 143.272 111.775 141.274 108.074L145.923 109.826C146.578 106.044 146.395 105.809 142.97 106.111C142.126 103.942 142.021 100.991 138.318 101.213C138.318 98.9859 138.396 97.014 138.278 95.0539C138.262 94.2626 137.948 93.5064 137.4 92.9357C136.003 91.9881 134.545 91.1323 133.037 90.3737C136.682 89.0355 135.902 86.038 135.361 84.2919C134.809 82.5077 132.403 81.2974 131.404 80.3824C131.713 78.2531 131.879 76.1057 131.902 73.9543C131.84 73.4451 131.655 72.9585 131.363 72.5366C131.071 72.1147 130.681 71.77 130.227 71.5321C127.184 70.8465 126.522 68.978 127.095 66.3102C127.237 65.91 127.28 65.4812 127.22 65.0608C127.159 64.6405 126.998 64.2411 126.748 63.8972C126.499 63.5534 126.17 63.2753 125.789 63.0871C125.408 62.8989 124.988 62.8062 124.563 62.817C123.751 62.5814 122.963 62.2696 122.21 61.886L122.405 61.0982L126.248 60.5652C124.367 58.9049 123.433 56.4004 120.44 57.3123L121.614 61.6351C118.753 61.1472 119.094 58.5373 117.83 57.5103C116.02 56.4883 114.075 55.7241 112.053 55.2397L115.508 54.109C114.8 50.1743 110.967 50.4351 108.929 48.4276L108.334 48.9045L112.45 56.6324L111.335 57.3025C109.905 55.2126 108.457 53.135 107.052 51.0281C106.176 49.7138 105.416 48.2498 103.375 49.1063L104.143 51.8833ZM74.1108 120.141C74.3564 117.673 74.7077 115.533 74.7595 113.385C74.9936 103.678 75.2788 93.9691 75.2859 84.2608C75.2933 74.0028 75.1067 63.7414 74.7813 53.4885C74.5517 50.7344 74.0146 48.0146 73.1801 45.3799C72.9873 45.0394 72.7124 44.7526 72.3803 44.5455C72.0483 44.3385 71.6697 44.2178 71.2791 44.1945C70.5778 44.7129 70.0577 45.4393 69.793 46.2703C69.8192 46.8044 69.8152 47.3394 69.7811 47.873C67.0446 50.0782 68.3655 53.0387 68.2482 55.7C68.0331 60.579 67.7749 65.4636 67.8048 70.3442C67.8784 82.3899 68.0733 94.4352 68.286 106.479C68.3663 111.03 68.6294 115.578 68.8098 120.141H74.1108V120.141ZM78.1646 42.5467C78.0555 42.9281 77.9803 43.3184 77.9401 43.713C77.8939 55.4627 77.855 67.2124 77.8234 78.9622C77.8007 85.4241 77.797 91.8863 77.719 98.3476C77.6394 104.948 77.4985 111.547 77.3406 118.146C77.2585 118.446 77.2586 118.762 77.3409 119.062C77.4232 119.361 77.5847 119.633 77.8083 119.849C78.032 120.065 78.3096 120.216 78.612 120.287C78.9144 120.359 79.2304 120.347 79.5269 120.255C80.349 120.164 81.1781 120.136 81.8956 120.088C82.7749 117.595 83.4145 115.024 83.8056 112.409C84.1763 105.752 84.3112 99.0701 84.2177 92.4024C84.122 85.584 83.5864 78.773 83.3456 71.9552C82.995 62.0249 82.7358 52.0913 82.4405 42.2549C82.2491 42.0949 82.0268 41.976 81.7875 41.9055C80.5944 42.0939 79.4074 42.3213 78.1646 42.5467ZM86.18 119.733C106.154 120.285 125.835 122.009 145.584 119.444C141.743 118.045 137.798 116.946 133.786 116.156C126.982 114.535 120.066 113.425 113.096 112.836C103.668 112.677 94.3701 115.059 86.18 119.733H86.18ZM125.444 28.9819L125.668 27.4531L80.3861 21.9325L79.1371 31.2182C81.1623 28.5382 79.1603 23.476 85.5988 23.8676L84.8209 31.6992C86.5007 30.2453 85.5608 26.8631 88.6479 27.7968C89.6149 26.4701 90.2941 24.6153 91.142 24.5345C94.8788 24.179 95.7861 25.6828 94.7262 29.6525C94.22 31.5481 94.194 33.2413 97.5079 33.6922L96.3451 28.9695C97.1747 28.1002 97.929 27.246 98.7576 26.4713C99.1694 26.1631 99.6152 25.9033 100.086 25.6969C100.383 26.1312 100.623 26.6013 100.801 27.0959C100.871 27.545 100.881 28.0016 100.829 28.4533L103.131 27.4242C103.277 28.1887 103.385 28.9603 103.454 29.7357C103.508 31.0016 103.468 32.2715 103.468 33.5397L104.435 33.612L105.802 27.3472L110.178 31.1155L107.952 32.5161L108.167 33.0191L115.395 31.7567C111.851 29.1587 111.851 29.1587 112.403 27.1231C113.66 28.1053 114.832 28.9728 115.95 29.9048C117.62 31.2976 117.604 31.3169 119.454 30.1301L116.673 28.2655L117.244 27.1075L125.444 28.9819ZM69.7757 22.8149V40.6931C73.3176 40.6349 73.6606 38.4988 73.7831 36.2511C73.9614 32.9771 74.1062 29.7012 74.2176 26.4236C74.3614 22.2425 74.1131 22.0431 69.7757 22.8148V22.8149ZM41.1607 136.18L45.8449 130.721C42.6133 131.305 43.1967 129.669 43.6635 127.813C42.3682 127.918 41.3661 127.974 40.3701 128.085C39.3189 128.203 38.2734 128.373 37.0249 128.548C36.2982 130.378 35.7069 132.143 38.4277 133.356C39.4929 134.135 40.4173 135.09 41.1607 136.18ZM68.8246 132.429L50.0646 146.559C53.6471 146.309 61.9758 139.974 68.8247 132.429L68.8246 132.429ZM96.5081 123.328C91.9796 121.621 90.2349 122.122 84.8473 126.27L89.3226 128.037L89.7472 125.184L96.5081 123.328ZM159.207 126.228L162.011 125.41C161.21 124.404 160.2 123.584 159.051 123.005C156.437 122.726 155.253 124.765 153.819 127.111L160.532 128.319L159.207 126.228ZM95.6581 125.007C99.5848 128.172 101.797 127.466 104.697 122.336L95.6581 125.007ZM139.272 88.4885L140.157 88.5127C140.159 89.323 140.273 90.1291 140.494 90.9086C141.075 91.897 141.749 92.827 142.509 93.6858C142.269 89.0946 139.754 84.7232 137.604 84.3951V90.3198L138.111 90.4503L139.272 88.4885ZM146.168 166.25C147.695 165.603 149.169 164.84 150.578 163.967C151.178 163.269 151.629 162.456 151.903 161.578C151.135 161.214 150.286 161.052 149.438 161.108C147.414 162.092 145.415 163.31 146.168 166.25V166.25ZM135.822 80.3969C136.194 77.7014 137.787 74.9514 134.239 73.2782C132.775 77.0113 133.242 79.2117 135.822 80.3969ZM138.28 124.492L141.783 123.638L141.424 122.332L133.346 124.795L133.619 125.751C135.105 125.336 137.358 128.284 138.28 124.492V124.492ZM130.019 64.2885L129.217 64.4686C129.217 65.8584 128.69 67.6616 129.365 68.5226C130.047 69.3928 131.92 69.3295 133.271 69.6752L133.593 69.0301L130.019 64.2885ZM86.5724 122.748H77.9889C81.2877 124.583 83.8724 125.877 86.5724 122.748ZM139.961 94.2383L141.416 100.531L143.636 95.7107L139.961 94.2383ZM41.9738 125.549C44.9217 127.567 45.92 127.255 47.2918 123.797L41.9738 125.549ZM104.931 126.338C106.812 127.495 108.485 128.554 110.267 126.122C108.42 125.115 106.743 123.856 104.931 126.338ZM65.0014 127.249C66.2825 127.724 67.2989 128.181 68.3623 128.455C68.5998 128.51 68.8469 128.507 69.0831 128.447C69.3194 128.388 69.538 128.272 69.721 128.112C69.8122 127.885 69.8447 127.639 69.8156 127.396C69.7865 127.154 69.6967 126.923 69.5545 126.724C68.0577 125.97 66.4165 124.689 65.0014 127.249H65.0014ZM69.5502 123.51C71.8772 126.157 73.4871 126.081 75.4639 123.51H69.5501H69.5502ZM61.2065 127.71C59.3655 126.943 55.5332 128.557 55.2037 130.725L61.2065 127.71ZM65.6148 123.019L60.4911 124.156C63.2487 127.361 64.275 124.549 65.6148 123.019H65.6148ZM155.359 151.703C154.11 150.754 154.022 148.155 151.318 149.693C152.448 151.088 152.746 153.298 155.359 151.703L155.359 151.703ZM119.306 128.089C119.315 125.116 118.349 124.737 115.51 126.284L119.306 128.089ZM79.5581 127.455L79.6084 126.194H75.6782L75.6617 127.223L79.5581 127.455ZM156.8 140.44L157.827 139.234L155.199 136.945L154.319 137.935L156.8 140.44ZM161.573 132.868L162.282 132.796L162.492 129.555L160.115 129.811L161.573 132.868Z" fill="#DDE7DC"/>
<path d="M169.359 177.633C168.909 178.382 168.198 178.937 167.364 179.192C166.529 179.448 165.629 179.385 164.838 179.016C162.677 178.296 160.452 176.006 157.721 177.919C157.053 177.937 156.392 177.777 155.806 177.456C156.054 176.864 156.455 176.347 156.967 175.96C159.527 175.528 162.135 173.43 164.664 176.502C165.39 177.383 167.399 177.207 169.359 177.633Z" fill="#DDE7DC"/>
<path d="M32.8509 180.234C32.2368 180.479 31.5922 180.64 30.9348 180.712C29.5237 180.455 28.0918 180.331 26.6577 180.341C25.3718 180.716 24.1457 181.271 23.016 181.991L22.2684 180.939C23.8467 179.685 25.4086 178.409 27.0253 177.207C27.2018 177.176 27.3828 177.18 27.5577 177.219C27.7327 177.258 27.8981 177.332 28.0444 177.435C29.543 178.277 31.0178 179.16 32.8509 180.234Z" fill="#DDE7DC"/>
<path d="M107.449 181.116C109.826 180.689 112.011 180.266 114.208 179.917C114.934 179.734 115.693 179.737 116.418 179.924C116.914 180.326 117.309 180.84 117.568 181.423C117.135 181.773 116.644 182.044 116.118 182.225C114.347 182.482 112.518 182.43 110.786 182.825C108.13 183.431 107.174 182.893 107.449 181.116Z" fill="#DDE7DC"/>
<path d="M137.2 178.561C135.194 181.291 129.056 182.117 126.878 180.099L137.2 178.561Z" fill="#DDE7DC"/>
<path d="M151.535 177.406C152.294 177.565 153.032 177.813 153.733 178.145C153.965 178.247 154.15 178.433 154.252 178.665C154.353 178.898 154.363 179.16 154.279 179.399C154.195 179.639 154.024 179.838 153.799 179.956C153.575 180.075 153.314 180.104 153.069 180.038C151.642 180.227 150.204 180.323 148.764 180.326C147.943 180.206 147.141 179.984 146.376 179.664C146.86 179.064 147.443 178.55 148.099 178.145C149.222 177.802 150.371 177.554 151.535 177.406Z" fill="#DDE7DC"/>
<path d="M80.1294 180L89.105 177.472C88.1908 178.934 86.7649 180.003 85.1054 180.47C83.446 180.937 81.6719 180.77 80.1294 180Z" fill="#DDE7DC"/>
<path d="M55.1321 181.054L61.3916 180.715L61.4843 182.158L55.2296 182.582L55.1321 181.054Z" fill="#DDE7DC"/>
<path d="M179.667 181C177.994 181.272 176.327 181.605 174.643 181.76C174.223 181.498 173.878 181.13 173.644 180.694C173.896 180.349 174.232 180.073 174.62 179.892C176.266 179.808 177.919 179.854 179.57 179.854L179.667 181Z" fill="#DDE7DC"/>
<path d="M128.206 157.191C130.854 155.91 133.327 154.296 135.565 152.388C136.776 151.119 137.01 150.794 138.646 152.304L132.628 158.607C133.869 160.185 135.067 161.709 136.656 163.73L132.898 164.301L132.479 161.353L128.206 161.874V157.191H128.206Z" fill="#DDE7DC"/>
<path d="M102.636 159.736C102.685 160.584 102.675 161.434 102.608 162.28C102.427 162.908 102.208 163.525 101.951 164.126C101.69 165.081 103.319 166.823 101.189 166.894C99.6598 166.722 98.1819 166.238 96.8471 165.472C96.0022 165 95.2028 164.451 94.4592 163.832L99.2085 161.227L99.7548 162.012L98.5069 164.407L99.3227 164.888L102.013 159.74L102.636 159.736Z" fill="#DDE7DC"/>
<path d="M97.6174 158.21L101.041 153.546L101.833 154.04L100.421 156.751L100.841 157.383L109.86 151.927L110.25 152.605C106.41 154.895 103.419 158.673 98.6504 159.337L97.6174 158.21Z" fill="#DDE7DC"/>
<path d="M136.926 160.178C138.544 158.194 140.161 156.211 141.958 154.008L139.717 153.031C139.76 152.832 139.827 152.639 139.917 152.457C140.931 152.45 141.941 152.584 142.917 152.856C143.106 153.132 143.225 153.45 143.264 153.781C143.303 154.113 143.261 154.45 143.142 154.762C141.449 156.903 139.587 158.91 137.782 160.963L136.926 160.178Z" fill="#DDE7DC"/>
<path d="M106.592 159.564L113.735 156.94C112.312 160.372 109.04 161.804 106.592 159.564Z" fill="#DDE7DC"/>
<path d="M79.7239 151.501L78.3298 153.874L82.9593 152.184L83.2441 152.662C81.9055 153.666 80.4952 154.57 79.0245 155.368C78.1571 155.501 77.2707 155.435 76.4325 155.175C76.607 154.343 76.9017 153.54 77.3074 152.793C77.9213 152.153 78.6189 151.598 79.3813 151.145L79.7239 151.501Z" fill="#DDE7DC"/>
<path d="M59.0437 152.782L57.7113 154.537C57.9209 155.268 57.9994 156.031 57.9434 156.79C57.1154 157.111 56.2466 157.314 55.3622 157.395C55.2251 156.696 55.2574 155.975 55.4565 155.292C56.3326 154.171 57.2877 153.115 58.3145 152.13L59.0437 152.782Z" fill="#DDE7DC"/>
<path d="M66.7419 158.461C64.1146 162.261 62.6554 162.94 60.3623 161.223L66.7419 158.461Z" fill="#DDE7DC"/>
</svg>
