<svg width="40" height="40" viewBox="0 0 40 40" fill="none" xmlns="http://www.w3.org/2000/svg">
<g clip-path="url(#clip0)">
<path fill-rule="evenodd" clip-rule="evenodd" d="M39.936 19.968C39.936 30.996 30.996 39.936 19.968 39.936C8.93998 39.936 0 30.996 0 19.968C0 8.93998 8.93998 0 19.968 0C30.996 0 39.936 8.93998 39.936 19.968ZM22.0373 6.12934H26.4607H26.4629V10.9029C26.2095 10.9044 25.4562 10.9038 24.7665 10.9033C24.4443 10.9031 24.136 10.9029 23.899 10.9029C23.8958 10.9029 23.8907 10.9028 23.8841 10.9026C23.6984 10.8988 22.2403 10.8688 22.2403 12.3204C22.2498 12.9346 22.2403 15.0494 22.2403 15.0494H26.4801L26.1365 19.8036H22.3394V33.807H16.5865V19.8954H13.4558V15.063H16.4925C16.4925 14.5765 16.494 14.1085 16.4955 13.6504C16.4983 12.763 16.501 11.9129 16.4925 11.0384C16.4925 7.23338 19.4123 6.12934 22.0373 6.12934Z" fill="#ED6B6A"/>
</g>
<defs>
<clipPath id="clip0">
<rect width="39.936" height="39.936" fill="white"/>
</clipPath>
</defs>
</svg>
