<svg width="15" height="15" viewBox="0 0 15 15" fill="none" xmlns="http://www.w3.org/2000/svg">
<g clip-path="url(#clip0)">
<path fill-rule="evenodd" clip-rule="evenodd" d="M15 7.5C15 11.6421 11.6421 15 7.5 15C3.35786 15 0 11.6421 0 7.5C0 3.35787 3.35786 0 7.5 0C11.6421 0 15 3.35787 15 7.5ZM8.27721 2.30208H9.93864H9.93946V4.09502C9.84431 4.09558 9.56137 4.09538 9.3023 4.09519C9.1813 4.0951 9.06551 4.09502 8.97648 4.09502C8.97525 4.09502 8.97337 4.09498 8.97087 4.09493C8.90113 4.0935 8.35346 4.08224 8.35346 4.62746C8.35702 4.85814 8.35346 5.65247 8.35346 5.65247H9.94593L9.81688 7.43814H8.39069V12.6978H6.2299V7.47262H5.05399V5.65757H6.1946C6.1946 5.47485 6.19516 5.29906 6.19571 5.12701C6.19676 4.79367 6.19778 4.47438 6.1946 4.14593C6.1946 2.71675 7.29126 2.30208 8.27721 2.30208Z" fill="#DDE7DC"/>
</g>
<defs>
<clipPath id="clip0">
<rect width="15" height="15" fill="white"/>
</clipPath>
</defs>
</svg>
