<svg width="41" height="40" viewBox="0 0 41 40" fill="none" xmlns="http://www.w3.org/2000/svg">
<g clip-path="url(#clip0)">
<path d="M14.1595 19.968C14.1595 16.2921 17.1386 13.3115 20.8144 13.3115C24.4903 13.3115 27.471 16.2921 27.471 19.968C27.471 23.6439 24.4903 26.6245 20.8144 26.6245C17.1386 26.6245 14.1595 23.6439 14.1595 19.968ZM10.5611 19.968C10.5611 25.631 15.1515 30.2214 20.8144 30.2214C26.4774 30.2214 31.0678 25.631 31.0678 19.968C31.0678 14.305 26.4774 9.71464 20.8144 9.71464C15.1515 9.71464 10.5611 14.305 10.5611 19.968ZM29.0774 9.30818C29.0774 10.6308 30.15 11.705 31.4743 11.705C32.7969 11.705 33.8711 10.6308 33.8711 9.30818C33.8711 7.98559 32.7985 6.91299 31.4743 6.91299C30.15 6.91299 29.0774 7.98559 29.0774 9.30818ZM12.7466 36.2214C10.7998 36.1327 9.74171 35.8085 9.03848 35.5343C8.10621 35.1714 7.44168 34.7392 6.74167 34.0408C6.04328 33.3424 5.6094 32.6778 5.24811 31.7456C4.97391 31.0423 4.64971 29.9843 4.561 28.0375C4.46422 25.9326 4.44487 25.3003 4.44487 19.968C4.44487 14.6357 4.46584 14.005 4.561 11.8985C4.64971 9.95174 4.97552 8.89528 5.24811 8.19043C5.61101 7.25816 6.04328 6.59363 6.74167 5.89362C7.44007 5.19523 8.10459 4.76135 9.03848 4.40006C9.74171 4.12586 10.7998 3.80166 12.7466 3.71295C14.8515 3.61618 15.4837 3.59682 20.8144 3.59682C26.1468 3.59682 26.7774 3.61779 28.8839 3.71295C30.8307 3.80166 31.8872 4.12747 32.592 4.40006C33.5243 4.76135 34.1888 5.19523 34.8888 5.89362C35.5872 6.59202 36.0195 7.25816 36.3824 8.19043C36.6566 8.89366 36.9808 9.95174 37.0695 11.8985C37.1663 14.005 37.1856 14.6357 37.1856 19.968C37.1856 25.2987 37.1663 25.931 37.0695 28.0375C36.9808 29.9843 36.655 31.0423 36.3824 31.7456C36.0195 32.6778 35.5872 33.3424 34.8888 34.0408C34.1904 34.7392 33.5243 35.1714 32.592 35.5343C31.8888 35.8085 30.8307 36.1327 28.8839 36.2214C26.779 36.3182 26.1468 36.3376 20.8144 36.3376C15.4837 36.3376 14.8515 36.3182 12.7466 36.2214ZM12.5821 0.120969C10.4562 0.217745 9.00461 0.554846 7.73524 1.0484C6.42231 1.55808 5.3094 2.24196 4.19809 3.35166C3.0884 4.46135 2.40452 5.57427 1.89484 6.8888C1.40128 8.15817 1.06418 9.6098 0.967405 11.7356C0.869016 13.8647 0.846436 14.5453 0.846436 19.968C0.846436 25.3906 0.869016 26.0713 0.967405 28.2004C1.06418 30.3262 1.40128 31.7778 1.89484 33.0472C2.40452 34.3601 3.08679 35.4747 4.19809 36.5843C5.30778 37.694 6.4207 38.3763 7.73524 38.8876C9.00622 39.3812 10.4562 39.7183 12.5821 39.815C14.7127 39.9118 15.3918 39.936 20.8144 39.936C26.2387 39.936 26.9177 39.9134 29.0468 39.815C31.1726 39.7183 32.6243 39.3812 33.8936 38.8876C35.2066 38.3763 36.3195 37.694 37.4308 36.5843C38.5405 35.4747 39.2227 34.3601 39.734 33.0472C40.2276 31.7778 40.5663 30.3262 40.6615 28.2004C40.7582 26.0697 40.7808 25.3906 40.7808 19.968C40.7808 14.5453 40.7582 13.8647 40.6615 11.7356C40.5647 9.6098 40.2276 8.15817 39.734 6.8888C39.2227 5.57588 38.5405 4.46296 37.4308 3.35166C36.3211 2.24196 35.2066 1.55808 33.8953 1.0484C32.6243 0.554846 31.1726 0.216132 29.0484 0.120969C26.9194 0.0241939 26.2387 0 20.816 0C15.3918 0 14.7127 0.0225809 12.5821 0.120969Z" fill="#ED6B6A"/>
</g>
<defs>
<clipPath id="clip0">
<rect width="39.936" height="39.936" fill="white" transform="translate(0.846436)"/>
</clipPath>
</defs>
</svg>
