<svg width="15" height="15" viewBox="0 0 15 15" fill="none" xmlns="http://www.w3.org/2000/svg">
<g clip-path="url(#clip0)">
<path d="M13.2143 0H1.78571C0.801071 0 0 0.801071 0 1.78571V13.2143C0 14.1989 0.801071 15 1.78571 15H13.2143C14.1989 15 15 14.1989 15 13.2143V1.78571C15 0.801071 14.1989 0 13.2143 0ZM11.7879 6.54393C11.706 6.55189 11.6237 6.55606 11.5414 6.55643C11.0971 6.55649 10.6598 6.44591 10.2689 6.23466C9.87801 6.02341 9.54589 5.71815 9.3025 5.34643V9.46678C9.3025 10.0691 9.12389 10.6579 8.78926 11.1587C8.45464 11.6595 7.97902 12.0498 7.42255 12.2803C6.86608 12.5108 6.25376 12.5711 5.66302 12.4536C5.07228 12.3361 4.52965 12.0461 4.10375 11.6202C3.67785 11.1943 3.38781 10.6516 3.2703 10.0609C3.1528 9.47016 3.2131 8.85784 3.4436 8.30138C3.6741 7.74491 4.06443 7.26929 4.56523 6.93466C5.06604 6.60003 5.65483 6.42143 6.25714 6.42143C6.32071 6.42143 6.38286 6.42714 6.44536 6.43107V7.93178C6.38286 7.92428 6.32143 7.91285 6.25714 7.91285C5.84492 7.91285 5.44958 8.07661 5.1581 8.36809C4.86661 8.65958 4.70286 9.05492 4.70286 9.46714C4.70286 9.87936 4.86661 10.2747 5.1581 10.5662C5.44958 10.8577 5.84492 11.0214 6.25714 11.0214C7.11571 11.0214 7.87393 10.345 7.87393 9.48643L7.88893 2.48857H9.32464C9.39024 3.11239 9.67303 3.6933 10.1236 4.12973C10.5741 4.56616 11.1637 4.83034 11.7893 4.87607V6.54393" fill="#DDE7DC"/>
</g>
<defs>
<clipPath id="clip0">
<rect width="15" height="15" fill="white"/>
</clipPath>
</defs>
</svg>
