<svg width="41" height="40" viewBox="0 0 41 40" fill="none" xmlns="http://www.w3.org/2000/svg">
<g clip-path="url(#clip0)">
<path d="M35.8745 0H5.44703C2.82552 0 0.692749 2.13277 0.692749 4.75428V35.1817C0.692749 37.8032 2.82552 39.936 5.44703 39.936H35.8745C38.496 39.936 40.6287 37.8032 40.6287 35.1817V4.75428C40.6287 2.13277 38.496 0 35.8745 0ZM32.0767 17.4226C31.8587 17.4437 31.6397 17.4548 31.4207 17.4558C30.2377 17.456 29.0733 17.1616 28.0327 16.5992C26.992 16.0367 26.1077 15.224 25.4597 14.2343V25.2044C25.4597 26.808 24.9842 28.3756 24.0933 29.7089C23.2024 31.0422 21.9361 32.0815 20.4545 32.6951C18.973 33.3088 17.3428 33.4694 15.77 33.1565C14.1972 32.8437 12.7525 32.0715 11.6186 30.9376C10.4847 29.8036 9.71245 28.3589 9.3996 26.7861C9.08675 25.2134 9.24732 23.5831 9.86099 22.1016C10.4747 20.62 11.5139 19.3538 12.8472 18.4628C14.1806 17.5719 15.7482 17.0964 17.3518 17.0964C17.521 17.0964 17.6865 17.1116 17.8529 17.1221V21.1176C17.6865 21.0976 17.5229 21.0672 17.3518 21.0672C16.2543 21.0672 15.2017 21.5032 14.4257 22.2792C13.6496 23.0553 13.2136 24.1078 13.2136 25.2053C13.2136 26.3028 13.6496 27.3554 14.4257 28.1314C15.2017 28.9075 16.2543 29.3434 17.3518 29.3434C19.6376 29.3434 21.6563 27.5425 21.6563 25.2567L21.6962 6.62557H25.5187C25.6933 8.28642 26.4462 9.83304 27.6457 10.995C28.8452 12.1569 30.415 12.8603 32.0805 12.982V17.4226" fill="#ED6B6A"/>
</g>
<defs>
<clipPath id="clip0">
<rect width="39.936" height="39.936" fill="white" transform="translate(0.69281)"/>
</clipPath>
</defs>
</svg>
