<svg width="41" height="40" viewBox="0 0 41 40" fill="none" xmlns="http://www.w3.org/2000/svg">
<g clip-path="url(#clip0)">
<path d="M21.3919 33.7648L13.1986 33.615C10.5458 33.5628 7.88639 33.667 5.28559 33.126C1.32917 32.3178 1.04889 28.3547 0.755598 25.0305C0.351474 20.3571 0.507922 15.5988 1.27056 10.9644C1.70109 8.36396 3.39541 6.81228 6.01561 6.64343C14.8607 6.03064 23.7647 6.10326 32.5902 6.38915C33.5223 6.41536 34.4608 6.5586 35.3798 6.72165C39.9166 7.5169 40.0273 12.0079 40.3214 15.7885C40.6147 19.608 40.4908 23.4472 39.9302 27.2408C39.4805 30.3818 38.62 33.0158 34.9887 33.2701C30.4389 33.6026 25.9936 33.8703 21.431 33.785C21.4312 33.7648 21.4049 33.7648 21.3919 33.7648ZM16.5751 25.8128C20.0037 23.8442 23.367 21.9084 26.776 19.9529C23.3409 17.9843 19.9841 16.0485 16.5751 14.0931V25.8128Z" fill="#ED6B6A"/>
</g>
<defs>
<clipPath id="clip0">
<rect width="39.936" height="40" fill="white" transform="translate(0.539185)"/>
</clipPath>
</defs>
</svg>
