<svg width="15" height="16" viewBox="0 0 15 16" fill="none" xmlns="http://www.w3.org/2000/svg">
<path d="M7.83232 12.6823L4.7549 12.626C3.7585 12.6064 2.75962 12.6455 1.78275 12.4424C0.296721 12.1388 0.191445 10.6503 0.081285 9.40168C-0.0705044 7.64633 -0.0117422 5.85912 0.274704 4.11842C0.436412 3.14171 1.0728 2.55889 2.05695 2.49547C5.37919 2.26531 8.72352 2.29259 12.0384 2.39997C12.3885 2.40981 12.741 2.46361 13.0862 2.52485C14.7902 2.82355 14.8318 4.51037 14.9422 5.93036C15.0524 7.36499 15.0059 8.807 14.7953 10.2319C14.6264 11.4116 14.3032 12.401 12.9393 12.4965C11.2304 12.6214 9.56069 12.7219 7.84697 12.6899C7.84704 12.6823 7.8372 12.6823 7.83232 12.6823ZM6.02309 9.69549C7.3109 8.95608 8.57413 8.22899 9.85457 7.49454C8.56436 6.75513 7.30353 6.02804 6.02309 5.29359V9.69549Z" fill="#DDE7DC"/>
</svg>
