<svg width="100" height="100" viewBox="0 0 100 100" fill="none" xmlns="http://www.w3.org/2000/svg">
<path d="M19.6607 62.3572C15.506 59.5498 11.2575 56.8833 7.1376 54.0255C5.67225 52.844 4.2898 51.5632 3 50.1922C7.20073 48.3374 22.4932 49.6555 26.34 49.9871C27.9574 50.1265 28.4461 48.9472 28.8951 47.8297C30.6827 43.3801 32.4158 38.907 34.1565 34.4374C35.2232 31.6984 38.4823 25.023 38.8959 25.1346C39.533 25.3065 42.5671 32.1786 43.9842 34.7301C46.1914 38.7039 48.6648 42.5512 51.2598 46.2942C52.0984 47.2702 53.2821 47.8838 54.563 48.0066C60.0091 48.4623 77.8864 50.9786 78.1278 51.8578C78.2676 52.3669 68.6588 57.9859 66.9869 58.7235C64.966 59.6152 62.9641 60.5479 60.9353 61.4221C58.4841 62.4784 59.0839 64.604 59.9331 66.1248C63.4802 72.4773 69.5646 88.8915 69.143 89.2143C68.8385 89.4475 63.8918 86.3031 61.8711 85.3218C57.7265 83.3095 53.4182 81.6564 49.2487 79.6944C46.6012 78.4485 44.0541 76.9632 41.5148 75.4905C40.6706 74.9274 39.6733 74.6383 38.6588 74.6626C37.6444 74.6869 36.6621 75.0235 35.8459 75.6264C30.8913 78.7731 25.841 81.7751 20.7956 84.7813C18.1057 86.384 11.0255 89.4439 10.2286 89.4573C10.2162 88.6646 16.0634 76.1015 18.9546 70.588C19.6003 69.3566 22.6593 64.3835 19.6607 62.3572ZM30.0846 54.5566C28.7429 55.6155 27.4623 56.7496 26.2489 57.9534C25.6172 58.837 25.1001 59.797 24.7098 60.8106C26.8805 60.8029 28.127 60.1231 28.6135 58.3477C29.0375 57.0618 29.5363 55.8018 30.1071 54.574C30.9835 53.2152 31.86 51.8564 32.8099 50.3838C32.296 49.8925 31.7971 49.4156 31.2109 48.8551C30.8092 50.8883 30.447 52.7225 30.0846 54.5566ZM37.7712 32.4859C36.8414 34.5736 35.8373 36.631 35.027 38.7675C34.7831 39.4105 33.8173 40.7627 35.2909 40.7615C35.9743 39.6953 36.3427 38.354 37.0603 38.1587C38.6096 37.7368 38.8727 39.3459 39.1672 40.4048C39.7323 42.4376 40.035 44.5356 40.6165 46.5633C40.9816 47.4223 41.4524 48.2323 42.0181 48.9748C42.3521 48.8225 42.686 48.6702 43.02 48.5179C42.3453 46.4245 41.7066 44.3197 40.9874 42.2402C39.8636 38.9911 37.2577 36.1882 37.7448 32.4556C38.6849 33.0562 39.625 33.6568 40.7093 34.3496C40.1298 33.0436 39.5699 31.782 38.8324 30.12C38.3779 31.1333 38.0745 31.8096 37.7712 32.4859ZM36.2202 55.1447C37.1477 53.9956 38.2101 52.9625 39.3847 52.0676C39.8517 51.8475 40.362 51.7347 40.8783 51.7374C41.3945 51.74 41.9036 51.858 42.3684 52.0828C42.7462 52.3903 43.0479 52.781 43.2499 53.2243C43.4518 53.6677 43.5486 54.1517 43.5327 54.6386C43.4323 56.0746 43.0161 57.4706 42.3138 58.7271C41.6116 59.9835 40.6406 61.0695 39.4702 61.9074C38.2922 62.7157 37.1984 63.6403 36.2053 64.6673C35.844 65.2462 35.6806 65.9267 35.7397 66.6064C35.7344 66.8049 36.3791 67.2288 36.7182 67.2322C38.7432 67.2527 41.5285 64.5956 41.858 62.5304C42.5427 58.2388 44.1047 54.4402 48.0448 51.865C46.8845 50.95 45.8237 50.1135 44.7477 49.265C44.1037 51.2707 42.818 51.5502 40.7985 50.1565C39.0902 48.9776 36.2871 48.7943 35.2983 49.797C37.0058 50.7905 37.5721 51.9353 37.0417 53.4328C36.8294 54.0323 36.5154 54.5926 36.2477 55.1712C34.5475 56.6736 32.8686 58.2009 31.1415 59.6723C28.8443 61.6293 29.0778 64.2423 29.5482 67.1475C31.1466 66.1575 32.9259 65.1544 33.6245 63.6278C34.8409 60.9702 35.3909 57.9898 36.2202 55.1447ZM57.9785 67.4433C55.3304 69.2188 52.9745 70.6726 50.7895 72.3454C50.1917 72.803 50.0302 73.8977 49.8369 74.744C49.7847 74.9725 50.5151 75.6742 50.6055 75.6285C51.4074 75.3096 52.1385 74.8357 52.757 74.2339C53.6576 73.1543 54.1653 71.7022 55.1769 70.7731C55.7985 70.2021 57.5467 69.8261 57.9236 70.21C58.9596 71.2653 58.6527 72.6382 57.5292 73.6107C56.7745 74.2639 55.8694 74.7567 55.1736 75.4615C54.8022 75.9804 54.5145 76.5542 54.3209 77.1622C54.9671 77.3847 55.7867 77.9566 56.2214 77.7528C56.9896 77.3926 57.4502 76.4556 58.1789 75.9588C58.752 75.5681 59.7517 75.0846 60.1811 75.3316C61.1822 75.9078 61.1017 76.9131 60.2748 77.6861C59.6954 78.2279 59.0452 78.6946 58.4267 79.1948L58.7903 79.6741C59.7835 79.1755 60.7766 78.6769 62.0467 78.0392C60.7463 74.6522 59.3902 71.1202 57.9785 67.4433ZM36.2336 72.1413C36.9327 71.8549 37.5742 71.3238 37.9503 71.48C41.2944 72.868 44.5914 74.3776 48.3604 76.0553C47.9424 75.045 47.844 73.988 47.2998 73.6303C44.6821 71.9466 42.5797 69.5733 41.2242 66.7717C39.6365 67.7032 38.0507 68.6336 36.4242 69.5878C36.369 70.3277 36.3068 71.1608 36.2336 72.1413V72.1413ZM35.7183 62.948C38.6807 60.8084 41.0302 58.8749 41.7042 55.6411C41.7098 54.8834 41.5813 54.1306 41.3247 53.4176C40.6736 53.5677 40.0554 53.8354 39.5005 54.2075C37.2831 56.4562 36.3874 59.352 35.7183 62.9481V62.948ZM19.9904 73.5627C24.1286 74.3107 22.8471 77.7121 23.6596 79.993C25.6177 79.2302 26.5675 77.5294 25.8412 76.2756C24.6159 74.161 23.3956 72.0437 22.0721 69.7522C21.4161 70.953 20.7293 72.2101 19.9904 73.5627ZM43.1819 62.1764C43.4751 62.4042 43.7683 62.632 44.0615 62.8598C45.8452 60.9738 47.7568 59.1885 49.3423 57.146C49.886 56.4456 49.6137 55.1014 49.7141 54.0513C48.7761 54.4178 47.4291 54.5091 46.9754 55.2019C45.532 57.4063 44.4212 59.8347 43.1819 62.1764ZM24.1422 66.1974C27.8537 67.7542 27.992 70.7559 28.2202 73.7838C28.2697 74.4413 28.8905 75.0756 29.2482 75.7205C29.6835 74.9871 30.5083 74.2413 30.4606 73.5232C30.3376 72.4281 29.903 71.3914 29.2083 70.536C27.463 68.2843 26.5433 65.5017 26.603 62.6534C25.8335 63.7616 25.064 64.8698 24.1422 66.1973V66.1974ZM47.2195 65.5391C47.4679 65.731 47.7163 65.923 47.9647 66.115C49.4537 64.6488 51.0228 63.2525 52.3823 61.6738C52.7844 61.2069 52.5952 60.226 52.6772 59.4807C51.9011 59.6259 50.7405 59.4985 50.4175 59.9651C49.2036 61.7181 48.2626 63.6648 47.2195 65.539V65.5391ZM56.3319 63.3382C53.0289 62.6805 46.3507 68.2986 46.7913 71.2886C48.7885 72.117 49.0475 70.4862 49.5734 69.3156C50.9103 66.3403 52.4673 63.6311 56.3319 63.3381V63.3382ZM18.2001 82.8279C21.8288 81.5638 21.5311 81.4581 18.1341 75.7375L18.2001 82.8279ZM34.2576 66.9472L33.3118 66.4722C32.6986 67.2133 31.5126 67.9964 31.5871 68.6872C31.9139 70.3306 32.4124 71.9351 33.0743 73.4744L33.4772 73.5103L34.2576 66.9472ZM46.553 62.3588C44.8727 63.6604 42.7442 64.2939 43.4989 66.8617C43.5872 67.0771 43.7175 67.2726 43.8823 67.4369C44.0471 67.6013 44.243 67.7311 44.4586 67.8187C44.6398 67.8881 45.2053 67.4019 45.3076 67.0697C45.7561 65.6135 46.0989 64.1215 46.553 62.3588ZM56.1418 66.8286C54.3054 65.2567 52.2695 66.7971 51.6176 69.9982L56.1418 66.8286ZM30.9705 56.7744C33.8742 55.95 35.0883 54.3511 34.799 51.7295C33.3364 53.6567 32.1534 55.2156 30.9705 56.7744ZM56.1931 51.1361C56.3002 52.8769 56.4002 54.4664 56.4949 56.0561C56.4697 56.6989 56.5179 57.3425 56.6385 57.9744C56.72 58.2445 57.5185 58.6215 57.6279 58.5283C57.9571 58.2478 58.3787 57.6884 58.2829 57.3645C57.6873 55.3502 56.9602 53.3706 56.1931 51.1361ZM25.6671 68.6128C25.2353 68.7313 24.8034 68.8497 24.3715 68.9682C24.9038 70.5742 25.436 72.1802 25.9682 73.7863C26.2953 73.6951 26.6225 73.604 26.9496 73.513L25.6671 68.6128ZM25.3587 52.7645L24.8037 52.327C23.6207 54.199 22.4379 56.071 21.1257 58.1475C24.902 57.8799 23.1578 53.8846 25.3587 52.7645ZM53.9751 57.153C53.3548 55.0277 52.9391 53.6038 52.5235 52.1799L51.8279 52.2098C51.9241 53.5546 51.9495 54.9089 52.1747 56.2363C52.2211 56.5098 53.0125 56.6823 53.9751 57.153ZM61.7067 56.2051C62.05 53.4439 61.1576 51.4407 59.8509 51.328L61.7067 56.2051ZM64.6845 83.6819C63.8469 82.3266 63.2466 81.3554 62.5548 80.2359C61.2343 82.5863 62.8562 82.9986 64.6845 83.6819ZM33.2266 44.3344L32.6092 44.4705C32.9202 45.7207 33.2312 46.9709 33.5421 48.2211L34.3977 48.02C34.0073 46.7914 33.617 45.5629 33.2266 44.3344ZM44.996 44.9563C45.3598 44.8407 45.7237 44.7252 46.0876 44.6097C45.612 43.5557 45.1365 42.5016 44.6609 41.4476L43.9425 41.7014C44.2936 42.7863 44.6448 43.8713 44.996 44.9563H44.996Z" fill="#ED6B6A"/>
<path d="M77.8937 72.4621C76.536 71.5447 75.1477 70.6734 73.8014 69.7395C73.3225 69.3534 72.8708 68.9349 72.4493 68.4869C73.822 67.8807 78.8193 68.3115 80.0763 68.4199C80.6048 68.4654 80.7645 68.08 80.9112 67.7149C81.4954 66.2609 82.0617 64.7991 82.6305 63.3385C83.0372 62.273 83.5564 61.2539 84.1793 60.2985C84.7963 61.3092 85.3516 62.3563 85.8421 63.4342C86.5633 64.7327 87.3716 65.9899 88.2196 67.2131C88.4936 67.532 88.8804 67.7325 89.299 67.7726C91.0787 67.9215 96.9206 68.7439 96.9995 69.0312C95.8537 69.8837 94.6355 70.6344 93.3589 71.2747C92.6985 71.5661 92.0443 71.8709 91.3813 72.1566C90.5803 72.5017 90.7763 73.1964 91.0538 73.6933C92.2858 76.111 93.2932 78.6366 94.0634 81.2385C93.9639 81.3147 92.3474 80.2871 91.6871 79.9665C90.3327 79.3089 88.9249 78.7687 87.5624 78.1276C86.6972 77.7204 85.8649 77.2351 85.0351 76.7538C84.7592 76.5698 84.4333 76.4753 84.1018 76.4833C83.7703 76.4912 83.4493 76.6012 83.1826 76.7982C81.5636 77.8265 79.9132 78.8075 78.2645 79.7899C77.1624 80.4033 76.0066 80.9148 74.8114 81.3179C74.8073 81.0589 76.7181 76.9535 77.6629 75.1518C77.8739 74.7494 78.8735 73.1243 77.8937 72.4621ZM81.3 69.9131C80.8616 70.2591 80.4431 70.6297 80.0466 71.0231C79.8402 71.3118 79.6712 71.6255 79.5436 71.9567C80.253 71.9542 80.6603 71.7321 80.8193 71.1519C80.9578 70.7317 81.1208 70.3199 81.3074 69.9187L82.1906 68.5494L81.668 68.0499C81.5368 68.7143 81.4184 69.3137 81.3 69.9131ZM83.8118 62.7008C83.508 63.383 83.1798 64.0553 82.9151 64.7535C82.8354 64.9636 82.5198 65.4055 83.0013 65.4051C83.2246 65.0567 83.345 64.6184 83.5795 64.5545C84.0858 64.4167 84.1718 64.9425 84.268 65.2885C84.4527 65.9528 84.5516 66.6384 84.7416 67.301C84.8609 67.5817 85.0148 67.8464 85.1996 68.089L85.527 67.9397C85.3065 67.2556 85.0978 66.5678 84.8628 65.8883C84.4955 64.8265 83.644 63.9106 83.8032 62.6909L84.7719 63.3098L84.1586 61.9276L83.8118 62.7008ZM83.305 70.1052C83.6081 69.7297 83.9553 69.3921 84.3391 69.0997C84.4917 69.0278 84.6585 68.9909 84.8272 68.9918C84.9959 68.9927 85.1622 69.0312 85.3141 69.1047C85.4376 69.2052 85.5361 69.3329 85.6021 69.4777C85.6682 69.6226 85.6998 69.7808 85.6946 69.9399C85.6618 70.4091 85.5257 70.8653 85.2962 71.2759C85.0668 71.6865 84.7495 72.0414 84.367 72.3152C83.982 72.5793 83.6246 72.8814 83.3001 73.217C83.182 73.4062 83.1286 73.6286 83.1479 73.8507C83.1462 73.9155 83.3569 74.0541 83.4677 74.0552C83.8641 73.9838 84.2323 73.8016 84.5295 73.5296C84.8267 73.2577 85.0409 72.9073 85.1473 72.5187C85.2068 71.8247 85.4188 71.1525 85.7683 70.55C86.1178 69.9475 86.5961 69.4296 87.169 69.0335L86.0916 68.1839C85.8811 68.8393 85.461 68.9306 84.8011 68.4752C84.5442 68.2854 84.2383 68.1735 83.9196 68.1527C83.601 68.1318 83.283 68.203 83.0037 68.3577C83.5617 68.6824 83.7467 69.0564 83.5734 69.5458C83.504 69.7417 83.4014 69.9248 83.3139 70.1139C82.7583 70.6049 82.2097 71.104 81.6453 71.5848C80.8946 72.2243 80.9709 73.0781 81.1247 74.0275C81.6665 73.7747 82.1276 73.3765 82.4567 72.8773C82.8055 71.9748 83.089 71.0484 83.305 70.1052ZM90.4152 74.1242C89.5498 74.7044 88.78 75.1794 88.066 75.7261C87.8706 75.8756 87.8178 76.2334 87.7546 76.5099C87.7376 76.5846 87.9763 76.8139 88.0058 76.7989C88.2679 76.6947 88.5068 76.5398 88.7089 76.3431C88.9485 75.95 89.2126 75.5722 89.4997 75.2122C89.7028 75.0257 90.2741 74.9028 90.3972 75.0282C90.4715 75.1052 90.5278 75.1977 90.562 75.2991C90.5963 75.4004 90.6077 75.5081 90.5954 75.6143C90.583 75.7206 90.5473 75.8228 90.4908 75.9136C90.4342 76.0044 90.3583 76.0816 90.2683 76.1395C90.0217 76.353 89.7259 76.514 89.4986 76.7443C89.3772 76.9139 89.2832 77.1014 89.2199 77.3001C89.4311 77.3728 89.6989 77.5597 89.841 77.4931C90.092 77.3754 90.2425 77.0692 90.4806 76.9068C90.6679 76.7792 90.9946 76.6212 91.1349 76.7019C91.4621 76.8902 91.4358 77.2187 91.1656 77.4713C90.9762 77.6483 90.7637 77.8008 90.5616 77.9643L90.6804 78.1209L91.7446 77.5867L90.4152 74.1242ZM83.3094 75.6594C83.5378 75.5658 83.7474 75.3923 83.8704 75.4433C84.9631 75.8969 86.0406 76.3902 87.2722 76.9384C87.1356 76.6083 87.1035 76.2629 86.9256 76.146C86.0702 75.5958 85.3832 74.8202 84.9402 73.9047L83.3717 74.825L83.3094 75.6594ZM83.141 72.6552C84.08 72.1455 84.7821 71.2884 85.097 70.2675C85.0989 70.0199 85.0569 69.7739 84.973 69.5409C84.7603 69.5899 84.5582 69.6774 84.3769 69.799C83.6807 70.6011 83.2491 71.5986 83.141 72.6552ZM78.0014 76.1238C79.3537 76.3683 78.9349 77.4798 79.2004 78.2252C79.8403 77.9759 80.1506 77.4201 79.9133 77.0104C79.5129 76.3194 79.1141 75.6275 78.6816 74.8787L78.0014 76.1238ZM85.5799 72.403L85.8673 72.6263C86.4502 72.01 87.0749 71.4266 87.593 70.7592C87.7707 70.5303 87.6817 70.091 87.7145 69.7479C87.408 69.8677 86.9678 69.8975 86.8195 70.1239C86.3479 70.8443 85.9849 71.6378 85.5799 72.403ZM79.3581 73.717C80.571 74.2258 80.6162 75.2066 80.6907 76.1961C80.7069 76.411 80.9097 76.6182 81.0266 76.829C81.1689 76.5893 81.4384 76.3456 81.4228 76.1109C81.3826 75.7531 81.2406 75.4143 81.0136 75.1348C80.4433 74.399 80.1427 73.4897 80.1622 72.5589L79.3581 73.717ZM86.8993 73.5019L87.1428 73.6901C87.6294 73.211 88.1422 72.7547 88.5864 72.2388C88.7178 72.0862 88.656 71.7657 88.6828 71.5221C88.4292 71.5696 88.0499 71.528 87.9444 71.6804C87.5477 72.2533 87.2402 72.8894 86.8993 73.5019V73.5019ZM89.8771 72.7827C88.7977 72.5678 86.6154 74.4037 86.7594 75.3807C87.412 75.6514 87.4967 75.1185 87.6685 74.736C88.1054 73.7637 88.6142 72.8784 89.8771 72.7827V72.7827ZM77.4164 79.1515C78.6022 78.7385 78.5049 78.7039 77.3948 76.8345L77.4164 79.1515ZM82.6636 73.962L82.3545 73.8068C82.1542 74.049 81.7666 74.3049 81.791 74.5306C81.8978 75.0677 82.0606 75.592 82.277 76.095L82.4086 76.1068L82.6636 73.962ZM86.6815 72.4627C86.1324 72.888 85.4369 73.095 85.6835 73.9341C85.7124 74.0045 85.755 74.0684 85.8088 74.1221C85.8627 74.1758 85.9267 74.2182 85.9971 74.2468C86.0564 74.2695 86.2411 74.1107 86.2746 74.0021C86.4211 73.5262 86.5331 73.0387 86.6815 72.4627ZM89.815 73.9233C89.2149 73.4096 88.5496 73.913 88.3366 74.9591L89.815 73.9233ZM81.5895 70.6378C82.5384 70.3684 82.9351 69.8459 82.8406 68.9892L81.5895 70.6378ZM89.8317 68.7953C89.8667 69.3642 89.8994 69.8836 89.9304 70.403C89.9221 70.6131 89.9379 70.8234 89.9773 71.0299C90.0039 71.1182 90.2649 71.2414 90.3006 71.2109C90.4082 71.1192 90.546 70.9364 90.5146 70.8306C90.32 70.1724 90.0824 69.5255 89.8317 68.7953H89.8317ZM79.8565 74.5063L79.4331 74.6224L79.9549 76.1969L80.2756 76.1076L79.8565 74.5063ZM79.7557 69.3274L79.5743 69.1844C79.1878 69.7961 78.8012 70.4079 78.3724 71.0864C79.6064 70.999 79.0364 69.6935 79.7556 69.3275L79.7557 69.3274ZM89.1069 70.7615C88.9042 70.067 88.7684 69.6017 88.6326 69.1364L88.4053 69.1461C88.4367 69.5856 88.445 70.0281 88.5186 70.4619C88.5337 70.5513 88.7923 70.6077 89.1069 70.7615L89.1069 70.7615ZM91.6335 70.4517C91.7457 69.5494 91.454 68.8948 91.027 68.858L91.6335 70.4517ZM92.6066 79.4306L91.9106 78.3045C91.4791 79.0726 92.0091 79.2073 92.6065 79.4306L92.6066 79.4306ZM82.3268 66.5726L82.125 66.617L82.4299 67.8427L82.7094 67.7769L82.3268 66.5726ZM86.1728 66.7758L86.5295 66.6625L86.0633 65.6292L85.8285 65.7122L86.1728 66.7758Z" fill="#ED6B6A"/>
<path d="M63.2839 29.8992C61.1234 28.4393 58.9141 27.0528 56.7719 25.5667C56.0099 24.9523 55.291 24.2863 54.6203 23.5734C56.8047 22.6089 64.7568 23.2943 66.7571 23.4667C67.5981 23.5392 67.8523 22.926 68.0857 22.3449C69.0153 20.0311 69.9165 17.7051 70.8217 15.3808C71.3764 13.9565 73.0711 10.4854 73.2862 10.5434C73.6175 10.6328 75.1951 14.2063 75.9321 15.533C77.0798 17.5994 78.3661 19.6 79.7155 21.5464C80.1515 22.0539 80.767 22.373 81.4331 22.4368C84.2651 22.6738 93.5613 23.9823 93.6868 24.4395C93.7595 24.7042 88.7629 27.6261 87.8935 28.0096C86.8426 28.4733 85.8017 28.9583 84.7467 29.4129C83.4721 29.9622 83.784 31.0675 84.2256 31.8583C86.07 35.1616 89.2338 43.697 89.0146 43.8649C88.8563 43.9861 86.284 42.351 85.2332 41.8408C83.078 40.7943 80.8377 39.9348 78.6696 38.9145C77.2929 38.2667 75.9684 37.4943 74.6479 36.7285C74.209 36.4357 73.6904 36.2853 73.1628 36.298C72.6353 36.3106 72.1245 36.4856 71.7001 36.7992C69.1238 38.4354 66.4976 39.9965 63.874 41.5597C62.1203 42.5359 60.281 43.3498 58.3792 43.9912C58.3727 43.579 61.4132 37.0462 62.9167 34.1792C63.2524 33.5389 64.8431 30.9528 63.2839 29.8992ZM68.7043 25.8429C68.0066 26.3935 67.3406 26.9832 66.7097 27.6092C66.3812 28.0686 66.1123 28.5679 65.9094 29.0949C67.0381 29.0909 67.6863 28.7374 67.9393 27.8142C68.1598 27.1456 68.4191 26.4903 68.716 25.8519C69.1717 25.1453 69.6275 24.4387 70.1214 23.673L69.2899 22.878C69.0811 23.9353 68.8927 24.8891 68.7043 25.8429ZM72.7013 14.3661C72.2178 15.4517 71.6956 16.5216 71.2743 17.6325C71.1474 17.9669 70.6453 18.67 71.4115 18.6694C71.7669 18.115 71.9585 17.4175 72.3316 17.3159C73.1372 17.0965 73.2741 17.9333 73.4272 18.4839C73.721 19.541 73.8785 20.6319 74.1808 21.6863C74.3707 22.133 74.6155 22.5543 74.9097 22.9403L75.4307 22.7028C75.0798 21.6142 74.7477 20.5197 74.3737 19.4384C73.7893 17.7488 72.4342 16.2914 72.6875 14.3504C73.1764 14.6627 73.6652 14.975 74.2291 15.3352C73.9277 14.6561 73.6366 14.0001 73.2531 13.1358C73.0168 13.6627 72.859 14.0144 72.7013 14.3661H72.7013ZM71.8948 26.1487C72.377 25.5512 72.9295 25.0139 73.5403 24.5485C73.7832 24.4341 74.0485 24.3755 74.3169 24.3769C74.5854 24.3782 74.8501 24.4396 75.0918 24.5565C75.2883 24.7164 75.4451 24.9195 75.5502 25.1501C75.6552 25.3806 75.7055 25.6323 75.6973 25.8855C75.645 26.6322 75.4286 27.3581 75.0634 28.0115C74.6983 28.6649 74.1934 29.2296 73.5848 29.6653C72.9722 30.0856 72.4034 30.5664 71.887 31.1004C71.6992 31.4014 71.6142 31.7553 71.6449 32.1088C71.6422 32.212 71.9774 32.4324 72.1537 32.4342C72.7846 32.3205 73.3704 32.0306 73.8433 31.5979C74.3163 31.1652 74.6571 30.6075 74.8264 29.9892C74.9211 28.8849 75.2585 27.8151 75.8147 26.8564C76.3708 25.8976 77.1319 25.0736 78.0436 24.4432C77.4402 23.9674 76.8886 23.5324 76.3291 23.0912C75.9942 24.1342 75.3256 24.2795 74.2755 23.5548C73.3872 22.9418 71.9296 22.8464 71.4153 23.3678C72.3033 23.8844 72.5978 24.4797 72.3219 25.2584C72.2115 25.5701 72.0482 25.8615 71.909 26.1624C71.0249 26.9437 70.1519 27.7379 69.2538 28.503C68.0593 29.5206 68.1807 30.8794 68.4253 32.3901C69.2875 31.9878 70.0213 31.3543 70.545 30.5599C71.1 29.1237 71.5511 27.6495 71.8948 26.1487H71.8948ZM83.2091 32.5439C81.8321 33.4672 80.607 34.2232 79.4708 35.093C79.1599 35.331 79.0759 35.9003 78.9754 36.3403C78.9483 36.4591 79.3281 36.824 79.3751 36.8003C79.7921 36.6344 80.1723 36.388 80.4939 36.075C80.8751 35.4494 81.2954 34.8483 81.7522 34.2754C82.0755 33.9785 82.9845 33.783 83.1805 33.9826C83.2987 34.1051 83.3882 34.2523 83.4427 34.4136C83.4973 34.5748 83.5154 34.7462 83.4958 34.9153C83.4761 35.0843 83.4193 35.247 83.3293 35.3915C83.2394 35.536 83.1185 35.6588 82.9754 35.751C82.583 36.0907 82.1123 36.3469 81.7505 36.7134C81.5574 36.9832 81.4078 37.2816 81.3071 37.5978C81.6431 37.7135 82.0693 38.0109 82.2953 37.9049C82.6948 37.7176 82.9343 37.2303 83.3133 36.972C83.6113 36.7689 84.1311 36.5174 84.3544 36.6459C84.875 36.9455 84.8331 37.4682 84.4031 37.8702C84.1018 38.1519 83.7638 38.3946 83.4421 38.6547L83.6312 38.904C84.1476 38.6447 84.6641 38.3854 85.3246 38.0538C84.6483 36.2926 83.9432 34.4559 83.2091 32.5439H83.2091ZM71.9017 34.9869C72.2652 34.838 72.5988 34.5619 72.7944 34.6431C74.5333 35.3648 76.2478 36.1498 78.2077 37.0222C77.9903 36.4968 77.9391 35.9472 77.6561 35.7612C76.2949 34.8857 75.2017 33.6516 74.4968 32.1947C73.6712 32.6791 72.8466 33.1629 72.0008 33.6591C71.9721 34.0438 71.9398 34.477 71.9017 34.9869L71.9017 34.9869ZM71.6338 30.2064C73.1742 29.0939 74.396 28.0884 74.7464 26.4069C74.7493 26.0128 74.6825 25.6214 74.5491 25.2506C74.2105 25.3287 73.8891 25.4679 73.6005 25.6614C72.4927 26.9378 71.8059 28.5251 71.6338 30.2064L71.6338 30.2064ZM63.4553 35.726C65.6071 36.115 64.9407 37.8837 65.3633 39.0698C66.3815 38.6732 66.8754 37.7887 66.4977 37.1367C65.8606 36.0371 65.226 34.9361 64.5378 33.7445L63.4553 35.726ZM75.5149 29.8051L75.9722 30.1605C76.8998 29.1798 77.8938 28.2515 78.7182 27.1893C79.001 26.8251 78.8593 26.1261 78.9116 25.5801C78.4238 25.7707 77.7234 25.8182 77.4874 26.1784C76.7369 27.3247 76.1593 28.5875 75.5149 29.8051ZM65.6142 31.896C67.5442 32.7056 67.6161 34.2665 67.7347 35.841C67.7605 36.1829 68.0833 36.5127 68.2693 36.8481C68.4957 36.4667 68.9246 36.0789 68.8997 35.7055C68.8358 35.1361 68.6098 34.597 68.2486 34.1522C67.341 32.9813 66.8628 31.5343 66.8938 30.0532C66.4937 30.6295 66.0935 31.2057 65.6142 31.896ZM77.6144 31.5537L78.0019 31.8532C78.7761 31.0908 79.5921 30.3647 80.299 29.5438C80.5081 29.301 80.4098 28.7909 80.4524 28.4034C80.0488 28.4789 79.4453 28.4126 79.2774 28.6553C78.6461 29.5668 78.1568 30.5791 77.6144 31.5537ZM82.3529 30.4093C80.6353 30.0673 77.1626 32.9887 77.3917 34.5435C78.4303 34.9743 78.5649 34.1262 78.8384 33.5175C79.5336 31.9704 80.3433 30.5616 82.3529 30.4093ZM62.5243 40.5439C64.4113 39.8866 64.2564 39.8316 62.49 36.8569L62.5243 40.5439ZM70.8742 32.2859L70.3824 32.0389C70.0635 32.4243 69.4468 32.8315 69.4856 33.1907C69.6555 34.0453 69.9147 34.8796 70.2589 35.68L70.4684 35.6987L70.8742 32.2859ZM77.2678 29.9C76.3941 30.5768 75.2873 30.9062 75.6797 32.2415C75.7256 32.3535 75.7934 32.4552 75.879 32.5406C75.9647 32.6261 76.0666 32.6936 76.1787 32.7392C76.2729 32.7752 76.567 32.5224 76.6202 32.3497C76.8534 31.5925 77.0317 30.8166 77.2678 29.9ZM82.254 32.2243C81.299 31.4069 80.2404 32.2079 79.9015 33.8725L82.254 32.2243ZM69.1649 26.9961C70.6749 26.5674 71.3062 25.736 71.1557 24.3727C70.3952 25.3749 69.78 26.1855 69.1649 26.9961ZM82.2807 24.0642C82.3364 24.9694 82.3884 25.796 82.4376 26.6226C82.4245 26.9568 82.4496 27.2915 82.5123 27.6201C82.5547 27.7606 82.9699 27.9566 83.0268 27.9081C83.1979 27.7622 83.4172 27.4713 83.3674 27.3029C83.0577 26.2556 82.6796 25.2262 82.2807 24.0642ZM66.4072 33.1521L65.7334 33.3369C66.0102 34.172 66.287 35.0071 66.5638 35.8423L67.0741 35.7002L66.4072 33.1521ZM66.2468 24.911L65.9582 24.6835C65.3431 25.6569 64.728 26.6303 64.0456 27.7102C66.0093 27.571 65.1023 25.4934 66.2468 24.911ZM81.1273 27.193C80.8047 26.0878 80.5886 25.3474 80.3725 24.607L80.0107 24.6225C80.0607 25.3218 80.074 26.0261 80.1911 26.7163C80.2152 26.8585 80.6267 26.9482 81.1273 27.193ZM85.1477 26.7001C85.3263 25.2642 84.8622 24.2226 84.1827 24.164L85.1477 26.7001ZM86.6962 40.988C86.2606 40.2833 85.9485 39.7782 85.5887 39.1961C84.9021 40.4183 85.7455 40.6327 86.6962 40.988ZM70.3381 20.5273L70.0171 20.5981C70.1789 21.2482 70.3406 21.8983 70.5022 22.5484L70.9471 22.4438L70.3381 20.5273ZM76.4582 20.8507L77.0258 20.6705C76.7785 20.1224 76.5312 19.5743 76.2839 19.0262L75.9104 19.1582C76.093 19.7223 76.2756 20.2865 76.4582 20.8507Z" fill="#ED6B6A"/>
</svg>
