<svg width="100" height="100" viewBox="0 0 100 100" fill="none" xmlns="http://www.w3.org/2000/svg">
<path d="M86.0907 40.0962C86.4724 39.8969 86.8198 39.632 87.1829 39.3972L87.0403 39.0497C86.6686 39.1176 86.3042 39.221 85.9523 39.3586C84.2762 40.1971 82.6448 41.1302 80.9429 41.9106C78.8856 42.8539 76.7619 43.6512 74.6884 44.5606C72.7929 45.3917 70.926 46.288 69.027 47.1646C68.9443 46.4894 68.601 45.8733 68.0705 45.4476C67.54 45.0219 66.8641 44.8204 66.1871 44.8859C65.8646 44.0098 65.6093 43.1257 65.2232 42.3032C65.0108 41.752 64.6805 41.2539 64.2554 40.8437C63.8303 40.4336 63.3207 40.1213 62.7623 39.9288C62.2038 39.7363 61.61 39.6682 61.0225 39.7292C60.435 39.7903 59.8679 39.9791 59.3609 40.2823C58.4451 40.7518 57.5865 41.3332 56.7085 41.8596C56.2602 41.4709 55.7853 41.114 55.2872 40.7915C54.7092 40.5038 54.1136 40.2528 53.504 40.04C54.0692 38.4578 54.633 36.9134 55.172 35.3603C55.712 33.8045 56.2271 32.24 56.7922 30.5635C56.7922 31.6303 56.7751 32.5473 56.7964 33.4634C56.824 34.6505 56.8575 35.8388 56.948 37.0219C57.0492 37.2814 57.2083 37.5143 57.4132 37.703C57.6288 37.5697 57.826 37.4088 58.0001 37.2245C58.402 36.6724 58.7621 36.0898 59.2191 35.3975C59.2257 36.3346 58.9157 37.3111 59.7755 37.6955C60.9078 38.2017 61.4284 37.0159 62.2234 36.3986C62.0367 37.3803 61.8688 38.2629 61.7009 39.1455L62.1211 39.2432C62.3119 38.5322 62.4821 37.815 62.699 37.1121C62.9219 36.39 63.2087 35.6876 63.4336 34.9661C63.6503 34.271 64.4202 33.7516 64.122 32.6835C63.8749 32.9837 63.7268 33.1511 63.5925 33.3288C62.7637 34.4256 61.9635 35.5456 61.0936 36.6084C60.7976 36.8442 60.4596 37.0217 60.0976 37.1317C59.9416 36.7739 59.8594 36.3884 59.856 35.9981C60.088 34.9802 60.4259 33.9849 60.7532 32.9909C60.9043 32.5321 61.1453 32.1032 61.3031 31.6459C61.2861 31.4981 61.2307 31.3573 61.1422 31.2377C61.0022 31.2703 60.8718 31.3354 60.7616 31.4276C60.5744 31.7222 60.4509 32.0565 60.2756 32.3595C59.4196 33.8387 58.5548 35.3129 57.6932 36.7887L57.4669 36.7057C57.3953 36.3989 57.3475 36.0869 57.3239 35.7726C57.3154 31.7707 57.346 27.7798 58.6334 23.9101C58.93 22.8152 59.1311 21.6966 59.2344 20.5669C59.193 20.3545 59.1008 20.1554 58.9659 19.9863C58.7929 20.0902 58.6432 20.2287 58.5261 20.3931C58.3139 20.8907 58.1504 21.4077 58.0381 21.9369C57.7975 23.8364 57.4594 25.7223 57.0252 27.5871C55.8906 31.446 54.5416 35.2416 53.3045 39.0708C53.2753 39.2217 53.2157 39.3652 53.1295 39.4925C53.0434 39.6199 52.9323 39.7284 52.803 39.8117C52.6737 39.8949 52.5289 39.9511 52.3773 39.9769C52.2257 40.0027 52.0705 39.9975 51.921 39.9617C50.4049 39.8329 48.8862 40.1767 47.5734 40.9458C46.7364 41.4067 45.9641 41.985 45.1457 42.5217C44.3689 41.6387 43.5866 40.7453 42.7997 39.8561C42.4628 39.4681 42.0367 39.1677 41.558 38.9809C41.0793 38.794 40.5624 38.7264 40.0517 38.7837C38.3035 38.9771 36.6214 39.5624 35.1306 40.4958C35.0029 40.594 34.8553 40.663 34.6981 40.6981C34.541 40.7331 34.378 40.7333 34.2207 40.6987C34.0635 40.664 33.9157 40.5954 33.7878 40.4975C33.6599 40.3997 33.555 40.275 33.4804 40.1322C32.674 39.0231 31.9372 37.8629 31.1838 36.7157C30.7999 36.1313 30.4604 35.5169 30.0583 34.9459C29.8952 34.8451 29.7089 34.7879 29.5173 34.7798C29.4815 34.9495 29.4833 35.1249 29.5224 35.2938C29.8446 35.8863 30.1983 36.4622 30.555 37.0352C31.2917 38.3145 31.7616 39.7298 31.9365 41.1957C31.5003 41.0309 31.102 40.7797 30.7652 40.4571C28.6619 38.1661 26.9225 35.566 25.6076 32.7475C25.4159 32.4181 25.1981 32.1048 24.9561 31.8104L24.6834 31.9718C24.8101 33.997 25.8696 35.7156 26.6308 37.5322C27.3895 39.3426 28.1495 41.1525 28.6167 42.2662C27.2815 41.071 25.4305 39.4983 23.6791 37.8215C22.1171 36.3235 20.7963 34.5929 19.7635 32.6911C19.424 32.1716 19.0436 31.6798 18.6259 31.2206C18.5327 31.3168 18.4608 31.4316 18.4152 31.5576C18.3696 31.6835 18.3512 31.8177 18.3612 31.9513C18.3712 32.0849 18.4094 32.2148 18.4734 32.3326C18.5373 32.4503 18.6254 32.5531 18.732 32.6343C19.489 33.55 20.1629 34.5313 20.7455 35.5667C21.978 38.4691 23.0345 41.4464 24.1451 44.3998C24.2042 44.4926 24.2395 44.5985 24.2481 44.7081C24.2567 44.8178 24.2382 44.9278 24.1942 45.0286C24.1503 45.1294 24.0822 45.2179 23.9961 45.2863C23.9099 45.3546 23.8083 45.4008 23.7002 45.4207C22.4785 45.7861 21.4314 46.5833 20.7542 47.6637C19.8713 48.8156 19.32 50.1869 19.1598 51.6294C18.9996 53.0719 19.2366 54.5307 19.8452 55.8483C20.2666 56.8465 20.3042 56.8307 19.2784 57.2821C18.5269 56.5003 17.7151 55.7788 16.8507 55.1242C14.7915 53.7902 12.6417 52.5971 10.5452 51.3193C9.77252 50.8483 9.047 50.3 8.29994 49.7869C10.7396 50.4952 13.248 50.94 15.7824 51.1138L15.9173 50.8237C14.8313 49.9497 13.7453 49.0757 12.7043 48.238C13.1216 48.309 13.524 48.3775 13.9262 48.4461C13.929 47.9901 13.9547 47.5325 13.9241 47.0787C13.8715 46.8697 13.8014 46.6654 13.7146 46.468C13.649 46.2081 13.6161 45.94 13.5337 45.4764C15.4395 47.2233 16.6127 49.3742 18.6972 50.5828C17.0797 48.5044 15.4298 46.4634 13.7038 44.489C11.9079 42.4348 11.8322 39.5607 10.3039 37.3006C10.1072 37.6601 10.008 38.0648 10.016 38.4745C10.0239 38.8842 10.1389 39.2847 10.3495 39.6362C10.9876 41.1502 11.7438 42.6151 12.3629 44.1363C12.8172 45.2524 13.1323 46.4251 13.5519 47.7016C11.7144 46.7643 11.0434 44.8423 9.3689 43.9904C9.7869 46.9752 12.3149 48.3636 14.1202 50.3146C11.3457 50.0366 8.64596 49.2507 6.15564 47.9962C5.95195 47.8351 5.70155 47.7442 5.44192 47.7372C5.18228 47.7303 4.92737 47.8076 4.71533 47.9576C4.7871 48.0546 4.86905 48.1436 4.95978 48.2232C6.92639 49.5091 8.88878 50.8016 10.8666 52.0701C12.9333 53.3955 15.0283 54.6772 17.0773 56.0289C17.3832 56.3359 17.6301 56.6965 17.8058 57.0927L17.6784 57.1738C18.0363 57.337 18.3941 57.5003 18.8286 57.6984C18.4815 58.137 18.1799 58.6097 17.9283 59.1093C17.5375 60.0026 17.3631 60.9756 17.419 61.9491C17.4749 62.9226 17.7597 63.8691 18.2502 64.7119C18.7713 65.6165 19.4163 66.4439 20.1663 67.1702C20.9157 67.8656 21.0087 68.1514 20.2832 68.8981C18.665 70.5635 17.0815 72.2625 15.4858 73.9497C15.0391 74.4221 14.5992 74.9008 14.1562 75.3767L13.9786 75.2274C15.5007 72.3854 17.3747 69.7464 19.5563 67.3727C17.7999 68.0161 16.2012 69.0273 14.8674 70.3388C13.4605 71.5372 12.12 72.8136 10.6547 74.1426C12.5114 72.0059 14.2985 69.9847 16.0412 67.926C16.6867 67.1325 17.2888 66.3047 17.8449 65.4462C17.893 65.2331 17.887 65.0114 17.8275 64.8011C17.5945 64.8709 17.3783 64.9877 17.1922 65.1443C16.1363 66.6011 15.2312 68.1863 14.0465 69.5258C12.4876 71.2883 11.2361 73.3774 9.10011 74.5818L9.16811 74.6568L9.57601 74.5647C8.64327 76.0055 8.64327 76.0055 8.83877 76.5327C11.6884 74.0078 14.1563 71.1175 17.3542 69.0902C15.5904 71.6762 13.4721 74.0571 13.131 77.3929C14.1886 76.2663 15.0857 75.0155 16.0878 73.8555C17.1394 72.6382 18.2917 71.508 19.3999 70.3396L19.4934 70.4139C19.0499 71.3579 18.6064 72.3019 18.1629 73.2459L18.4593 73.4363C18.747 73.0893 19.0246 72.7334 19.3244 72.397C20.4902 71.0887 21.6569 69.781 22.8379 68.4865C22.8893 68.4062 22.958 68.3385 23.0391 68.2884C23.1202 68.2383 23.2115 68.2071 23.3063 68.1971C23.401 68.1872 23.4968 68.1986 23.5866 68.2307C23.6763 68.2627 23.7577 68.3146 23.8247 68.3824C24.1246 68.6203 24.4809 68.7769 24.859 68.8371C25.2372 68.8972 25.6244 68.8588 25.9834 68.7257C26.9544 68.4281 27.8897 68.0141 28.8857 67.6328C28.9598 67.803 29.0187 67.9794 29.062 68.1599C29.2127 69.0026 29.5607 69.7977 30.0777 70.48C30.5947 71.1623 31.2659 71.7126 32.0363 72.0857C34.3637 73.5518 37.1621 74.0764 39.8625 73.553C41.4393 73.1915 42.7988 72.6632 43.3977 70.9992C43.4817 70.8168 43.5877 70.6454 43.7134 70.4887C45.4022 71.0517 47.014 71.589 48.683 72.1453C48.9977 72.1827 49.3008 72.2871 49.5718 72.4514C51.2203 71.8189 53.001 71.5507 54.2337 70.1754C54.8162 71.0157 55.663 71.637 56.6393 71.9405C57.6156 72.244 58.6654 72.2123 59.6216 71.8504C61.6909 71.261 63.9357 70.662 64.2087 67.8681C65.7172 68.2248 67.0127 68.7883 67.4263 70.4768C67.5393 70.8088 67.6844 71.1291 67.8596 71.4329C69.2577 74.4075 70.6506 77.3846 72.0612 80.3533C72.2903 80.7813 72.5414 81.1971 72.8137 81.599L73.0695 81.4786C72.3762 79.2284 71.6828 76.9781 70.9894 74.7279L71.1931 74.646L73.8427 76.1255L74.1191 75.8684C73.7287 74.6783 73.3383 73.4883 72.902 72.1585C73.9972 72.6314 74.892 73.0178 75.7869 73.4042L76.0048 73.2102C75.9144 72.8404 75.8006 72.4767 75.664 72.1213C75.3068 71.2475 74.8926 70.3981 74.4241 69.5786C73.5004 68.0941 72.4729 66.6747 71.5236 65.2055C71.3776 64.9143 71.3012 64.5932 71.3006 64.2675C71.2255 63.372 71.2537 62.4622 71.1063 61.5805C70.9429 60.9987 70.7163 60.4365 70.4305 59.9039C72.2872 59.0601 72.7077 57.4046 72.8249 55.6289C72.8839 54.7222 72.7559 53.8129 72.4488 52.9577C72.1417 52.1025 71.6621 51.3195 71.0397 50.6574C72.6066 50.2296 73.9844 49.8102 75.3837 49.4815C77.4554 48.9949 79.5461 48.5892 81.619 48.1069C81.9763 47.9657 82.3113 47.7734 82.6135 47.5361L82.4925 47.1299C80.1884 47.3279 77.8844 47.5258 75.5803 47.7237C75.8047 47.4789 76.0995 47.3096 76.4241 47.2392C77.8668 46.8934 79.3177 46.5805 80.755 46.2142C81.0563 46.0883 81.3378 45.9197 81.591 45.7134L81.4633 45.4741C78.8536 45.5006 76.257 45.8452 73.7308 46.5003C75.926 45.3283 78.14 44.225 80.3562 43.1262C80.5127 43.0211 80.6928 42.9564 80.8804 42.938C81.3375 43.0094 81.8054 42.9513 82.2312 42.7703C82.657 42.5893 83.0235 42.2927 83.2893 41.914C82.671 42.2224 82.1127 42.5009 81.5543 42.7794L81.4507 42.5972C81.5698 42.4759 81.7016 42.3676 81.8438 42.2744C83.2574 41.5443 84.6805 40.8325 86.0907 40.0962ZM28.2054 39.9356C27.7235 38.8092 27.28 37.6665 26.8194 36.531L26.987 36.413C27.3479 36.9366 27.6797 37.4835 28.0757 37.979C28.9648 39.0916 29.8738 40.1882 30.8027 41.2687C31.0267 41.5041 31.2954 41.6924 31.593 41.8227C31.6968 41.9044 31.824 41.9506 31.956 41.9548C32.088 41.959 32.2179 41.9209 32.3267 41.846C32.4354 41.7711 32.5174 41.6634 32.5607 41.5386C32.6039 41.4139 32.6061 41.2785 32.5669 41.1524C32.5202 40.6808 32.3874 40.2177 32.2499 39.5372L33.7469 41.1692C32.7803 42.3182 31.8509 43.456 30.8819 44.5589C30.4976 44.9963 30.2777 44.6225 30.1274 44.2868C29.4794 42.8396 28.829 41.3933 28.2054 39.9356H28.2054ZM23.1269 39.6971C22.8865 39.0004 22.5868 38.3242 22.3139 37.6387L22.5595 37.4759C24.7322 39.6756 26.905 41.8753 29.1493 44.1474C27.6988 44.3922 26.5031 44.6346 25.2953 44.7595C25.1342 44.7027 24.9879 44.6103 24.8674 44.4893C24.7468 44.3682 24.6551 44.2215 24.599 44.0601C24.074 42.6182 23.6277 41.1481 23.1269 39.6971ZM20.6861 69.8759L20.5046 69.7077L22.1379 67.9926L22.3216 68.1619C21.7764 68.7332 21.2312 69.3045 20.6861 69.8759H20.6861ZM75.1423 72.3549L74.9853 72.5703C74.3951 72.2072 73.7944 71.8598 73.2181 71.4757C72.8147 71.2068 72.4653 70.853 72.0509 70.6055C71.799 70.5085 71.5327 70.454 71.2629 70.444C71.3045 70.6808 71.3849 70.909 71.5007 71.1196C72.4554 72.2926 73.0383 73.7239 73.1746 75.2301C72.5801 74.8129 71.9992 74.3739 71.3843 73.9893C71.1141 73.8635 70.829 73.7724 70.5359 73.7181C70.5006 74.0143 70.499 74.3136 70.5311 74.6101C70.6773 75.2774 70.8825 75.9317 71.0638 76.5912L70.8712 76.6587C70.2613 75.358 69.6514 74.0573 68.9538 72.5694C69.3776 72.8741 69.6411 73.0634 69.9047 73.2529L70.0157 73.1265C69.1506 71.6255 68.2856 70.1245 67.376 68.5462C68.8982 68.04 70.161 66.9568 70.8931 65.5293C73.1511 67.3792 73.7025 70.1419 75.1423 72.3549ZM71.6379 57.9551C71.525 58.35 71.2684 58.6884 70.9187 58.9038C70.5689 59.1192 70.1512 59.196 69.7477 59.1191C69.6669 59.1114 69.5853 59.1189 69.5072 59.1412C69.4183 59.176 69.3325 59.2181 69.2507 59.2673C69.3522 59.5199 69.4782 59.762 69.6268 59.9901C70.3463 60.8806 70.7434 61.9882 70.7537 63.1329C70.764 64.2777 70.3869 65.3923 69.6835 66.2955C68.2144 67.9829 65.899 68.8754 63.9916 66.4124C63.8395 66.2924 63.6645 66.2048 63.4774 66.1549C63.4107 66.3414 63.3325 66.525 63.2835 66.716C63.2866 66.7969 63.3049 66.8764 63.3372 66.9506C63.5557 67.6287 63.5122 68.3639 63.2154 69.0115C62.9186 69.6591 62.3901 70.172 61.7338 70.4492C60.03 71.2567 58.3106 72.0031 56.4012 71.1577C55.9692 70.9555 55.5789 70.6743 55.2502 70.3287C55.12 70.0593 55.0508 69.7646 55.0476 69.4654C54.124 69.5309 54.7061 68.5959 54.4164 68.0404C54.2174 68.0539 53.9741 68.0704 53.7011 68.089C53.7391 68.4842 53.7544 68.8812 53.7469 69.2782C53.6813 69.6105 53.5241 69.9178 53.293 70.1654C53.062 70.413 52.7663 70.5911 52.4394 70.6796C51.8253 71.0124 51.1872 71.2989 50.5304 71.5368C50.1206 71.679 49.6794 71.7052 49.2557 71.6124C48.0342 71.2876 46.8497 70.8226 45.6267 70.5048C44.4324 70.1945 44.1347 69.3021 43.9163 68.2753C43.8886 68.1439 43.8325 68.0202 43.7521 67.9127C43.6717 67.8052 43.5687 67.7165 43.4505 67.6529C43.0374 67.6904 43.0621 67.9899 43.1557 68.3765C43.1912 68.7725 43.1488 69.1717 43.0311 69.5514C43.0803 69.8906 43.075 70.2354 43.0155 70.573C42.7617 71.2592 42.3186 71.8594 41.7376 72.3041C41.1566 72.7487 40.4614 73.0195 39.7327 73.0851C38.1913 73.3794 36.6019 73.3007 35.0972 72.8556C33.5924 72.4105 32.2159 71.6119 31.0827 70.5265C30.6001 70.1116 30.2203 69.5904 29.9731 69.0038C29.726 68.4173 29.6183 67.7814 29.6585 67.1462C29.6792 66.8764 29.6695 66.6051 29.6294 66.3375C29.6039 66.2678 29.5629 66.2048 29.5096 66.1532C29.4563 66.1016 29.3921 66.0627 29.3216 66.0393C29.2573 66.0408 29.1945 66.0588 29.1393 66.0918C29.0841 66.1248 29.0383 66.1716 29.0066 66.2275C28.6956 67.3963 27.5866 67.544 26.7263 67.9335C26.0716 68.1427 25.3937 68.2708 24.7078 68.315L24.6325 68.108L25.2398 67.6543C24.7309 67.6006 24.4106 67.5458 24.0892 67.5372C23.9506 67.5685 23.8061 67.5607 23.6717 67.5148C23.5372 67.4688 23.4182 67.3865 23.3278 67.2769C23.2374 67.1674 23.1791 67.0349 23.1595 66.8942C23.1399 66.7535 23.1597 66.6101 23.2167 66.48C23.2828 66.0752 23.2857 65.6626 23.2255 65.2569C23.0582 66.0978 23.0144 66.9684 21.9539 67.3331C21.4063 67.2239 20.8906 66.9922 20.4452 66.6555C19.9998 66.3187 19.6363 65.8856 19.382 65.3885C18.903 64.3872 18.2507 63.4103 18.4838 62.2454C18.3196 62.1044 18.1932 61.9247 18.1159 61.7225C18.0747 60.287 18.4968 58.27 20.1735 57.5607C20.5328 57.4803 20.9061 57.4861 21.2628 57.5777C21.4136 57.6341 21.5536 57.716 21.6766 57.8198C22.169 58.0924 22.8083 58.3732 23.102 57.7856C23.241 57.2615 23.1817 56.7046 22.9356 56.2214C22.7822 56.1237 22.6102 56.0589 22.4304 56.0312C22.2507 56.0034 22.0671 56.0133 21.8914 56.0602C20.6849 56.3427 20.6921 56.336 20.1824 55.1956C19.1568 52.9006 19.785 48.6204 22.3948 46.7538C23.3304 46.0117 24.4116 45.4746 25.5683 45.1776C26.7249 44.8805 27.9311 44.83 29.1086 45.0295C29.7383 45.1519 30.4449 45.2126 30.0743 46.2697L30.3138 46.312C30.5282 46.0996 30.7272 45.8723 30.9094 45.6318C31.9113 43.8295 33.3211 42.2867 35.026 41.1269C36.5649 40.1138 38.3286 39.4934 40.1628 39.3198C40.8563 39.338 41.5235 39.5887 42.0575 40.0316C42.8294 40.7082 43.5279 41.4643 44.1414 42.2872C44.4122 42.719 44.6452 43.1733 44.8378 43.6452C44.9163 43.8022 45.0467 43.9273 45.2068 43.9992C45.281 43.9879 45.3512 43.9585 45.4112 43.9134C45.4711 43.8683 45.519 43.809 45.5503 43.7409C46.1282 41.726 47.9243 41.2825 49.5605 40.7385C50.4518 40.5431 51.362 40.4475 52.2745 40.4535L52.5858 41.3045C53.4376 40.3879 54.2322 40.8795 54.9998 41.3288C55.4095 41.5167 55.7509 41.8271 55.9768 42.2171C56.2028 42.6072 56.3021 43.0577 56.2611 43.5066C56.3032 43.7202 56.3925 43.9217 56.5224 44.0964C56.7059 43.9533 56.8567 43.7726 56.9647 43.5664C57.1906 42.7001 57.6782 41.9244 58.3611 41.3454C59.0439 40.7663 59.8888 40.4119 60.7804 40.3305C61.5632 40.1882 62.3711 40.3262 63.0623 40.7202C63.7534 41.1143 64.2837 41.7392 64.56 42.4853C64.818 43.0506 65.0469 43.6288 65.2458 44.2175C65.4037 44.4701 65.4655 44.7711 65.4199 45.0656C65.3742 45.36 65.2242 45.6282 64.9972 45.8212C64.8552 46.0562 64.7723 46.3221 64.7555 46.5962L65.0639 46.6946C65.2157 46.5259 65.3675 46.3572 65.6028 46.0958V47.0096L65.7812 47.0846C65.9132 46.8445 66.0218 46.5923 66.1056 46.3314C66.2723 45.5886 66.5494 45.397 67.2112 45.7526C67.598 46.0111 67.9571 46.3089 68.2826 46.6413C67.9523 46.9703 67.6253 47.3028 67.2896 47.6261C67.1294 47.7536 66.9622 47.872 66.7888 47.9808C67.0347 48.1244 67.2889 48.2532 67.5501 48.3664C68.5269 48.7088 69.5142 49.0223 70.4807 49.391C70.5199 49.4886 70.5383 49.5933 70.5348 49.6984C70.5312 49.8036 70.5057 49.9068 70.4599 50.0015C69.8524 50.4064 70.082 50.6935 70.4978 51.0599C72.5853 52.8995 72.5077 56.1119 71.6379 57.9551ZM21.5384 56.9974L21.5443 56.8137C21.7882 56.7139 22.0516 56.6703 22.3147 56.6861C22.4703 56.8598 22.5758 57.0726 22.6198 57.3017L22.4017 57.4585L21.5384 56.9974ZM77.2538 46.4913C76.3538 46.7037 75.4538 46.916 74.5536 47.1283C75.4342 46.8464 76.3148 46.5646 77.1953 46.2828L77.2538 46.4913ZM73.7077 45.8731C73.277 46.0747 72.9336 46.4251 72.7407 46.8599C72.9729 47.5262 73.6467 47.1377 74.1529 47.1444C74.2567 47.1458 74.3604 47.1509 74.4642 47.1545C74.3653 47.4044 74.2665 47.6543 74.1678 47.9042C74.5178 48.0837 74.8927 48.2096 75.2801 48.2778C76.1661 48.2982 77.0545 48.2117 77.9419 48.1692C77.9827 48.1642 78.024 48.1679 78.0632 48.1799C78.1025 48.192 78.1387 48.2121 78.1697 48.2391C75.9809 48.7775 73.7921 49.3159 71.7347 49.8219C71.3677 49.422 70.9657 49.0557 70.5335 48.7274C69.9988 48.4514 69.4432 48.2181 68.8717 48.0296C71.5683 46.4657 74.3933 45.1347 77.3162 44.0512C76.1099 44.6523 74.8847 45.2194 73.7077 45.8731H73.7077Z" fill="#ED6B6A"/>
<path d="M88.1125 45.2398C88.5316 44.6021 88.9964 43.9958 89.5035 43.4256C89.8558 43.2379 90.2373 43.1115 90.6319 43.0517C92.157 42.4499 93.6627 41.7964 95.2009 41.2309C96.0373 40.9479 96.8918 40.7216 97.7586 40.5535C98.0016 40.555 98.242 40.604 98.4663 40.6979L98.4999 40.9387C98.1599 41.1674 97.8006 41.3659 97.4261 41.532C96.0865 41.9994 94.7383 42.4415 93.3813 42.8584C91.6565 43.3033 90.0229 44.0464 88.5542 45.0542C88.4136 45.1308 88.2656 45.193 88.1125 45.2398Z" fill="#ED6B6A"/>
<path d="M63.9029 26.7953C63.8069 26.5482 63.7652 26.2833 63.7808 26.0186C64.5449 23.7548 65.3009 21.4857 66.177 19.2645C66.5346 18.8734 66.9834 18.5767 67.4835 18.401C67.0973 19.2796 66.7327 20.0193 66.444 20.7875C66.0287 21.8927 65.6999 23.0307 65.275 24.132C64.9303 25.0255 64.4986 25.8855 64.1055 26.7604L63.9029 26.7953Z" fill="#ED6B6A"/>
<path d="M6.31859 43.045C6.04739 43.2105 5.74198 43.312 5.42564 43.3417C3.93467 42.4652 2.69439 41.2198 1.82415 39.7252C1.67113 39.471 1.5641 39.1918 1.50795 38.9005C1.48203 38.7649 1.48458 38.6254 1.51544 38.4908C1.5463 38.3562 1.6048 38.2295 1.68723 38.1188C1.81795 38.0739 1.9579 38.0628 2.09406 38.0865C2.23022 38.1102 2.35818 38.1679 2.46603 38.2544C3.45258 39.2732 4.41509 40.3182 5.33395 41.3985C5.7038 41.9213 6.03298 42.4718 6.31859 43.045ZM5.12595 42.3738L5.31366 42.1681L2.45949 38.8212L2.20487 39.0417C2.71243 40.4875 3.75899 41.6814 5.12595 42.3738Z" fill="#ED6B6A"/>
<path d="M25.6798 23.2946C25.8751 23.3882 26.0468 23.5247 26.182 23.6939C26.9697 25.6596 27.7362 27.6337 28.4814 29.6161C28.5013 29.8321 28.4744 30.0498 28.4025 30.2544C28.2145 30.1453 28.0504 29.9992 27.9204 29.8249C27.144 27.993 26.386 26.1533 25.6465 24.3059C25.5643 24.0098 25.5159 23.7053 25.5022 23.3984L25.6798 23.2946Z" fill="#ED6B6A"/>
<path d="M9.16798 74.6568C7.93727 75.7865 6.71898 76.93 5.4714 78.0408C4.66648 78.7575 3.8297 79.44 2.98202 80.1058C2.74804 80.2331 2.49517 80.3221 2.23302 80.3694L2.02844 80.0947L4.16967 77.6553L4.36832 77.8112L3.57142 78.9389L3.68187 79.0559C4.53687 78.306 5.37466 77.5352 6.25167 76.8119C7.18167 76.0449 8.149 75.3232 9.10001 74.5817L9.16798 74.6568Z" fill="#ED6B6A"/>
<path d="M81.7691 76.6564L79.9248 73.559C80.1161 73.6477 80.298 73.7554 80.4679 73.8804C81.3311 74.6647 81.9087 75.7139 82.1097 76.8627C82.1318 76.962 82.1312 77.065 82.1079 77.164C82.0846 77.263 82.0391 77.3555 81.975 77.4344C81.7661 77.5165 81.5335 77.5147 81.3258 77.4293C80.2197 77.0268 79.7929 75.9877 79.2192 75.0953C79.2015 74.9484 79.2226 74.7994 79.2805 74.6631C79.448 74.678 79.6094 74.733 79.7513 74.8234C79.9687 75.0935 80.0978 75.4341 80.3119 75.7078C80.6457 76.1348 81.0205 76.5298 81.3779 76.9384L81.7691 76.6564Z" fill="#ED6B6A"/>
<path d="M11.8947 48.6439C11.6297 48.7079 11.3556 48.7255 11.0846 48.6957C10.8348 48.5932 10.6183 48.4234 10.4593 48.2052C10.3627 48.035 10.2962 47.8494 10.2628 47.6566C10.4524 47.6371 10.6439 47.6547 10.8267 47.7086C11.1678 47.9164 11.4976 48.1422 11.8148 48.385L11.8947 48.6439Z" fill="#ED6B6A"/>
<path d="M7.28235 74.6294L5.43541 76.6896L5.21912 76.5124L6.9416 74.3581L7.28235 74.6294Z" fill="#ED6B6A"/>
<path d="M62.5011 51.8179C61.498 52.809 60.1027 53.0708 58.9054 53.7007L58.7209 53.5567C58.9252 52.9964 59.1696 52.4515 59.452 51.9262C59.7695 51.4935 59.9082 50.9551 59.8393 50.4229C59.7705 49.8907 59.4993 49.4054 59.0822 49.0677C58.5242 48.59 58.1857 47.9546 57.6168 47.5273C57.3135 47.3278 56.9472 47.2473 56.5882 47.3012C56.2292 47.3551 55.9027 47.5396 55.6714 47.8194C55.5352 47.8995 55.389 47.9613 55.2366 48.0031C55.1986 47.7008 55.2284 47.3938 55.3239 47.1045C55.4298 47.0144 55.5103 46.8981 55.5572 46.7672C55.6042 46.6363 55.6159 46.4954 55.5913 46.3585C55.5667 46.2217 55.5065 46.0937 55.4169 45.9874C55.3273 45.881 55.2113 45.8001 55.0806 45.7527C54.3854 45.4062 53.6416 45.1673 52.8746 45.0442C51.3871 44.7142 49.8353 44.8301 48.4132 45.3773C47.2967 45.8862 46.2132 46.4621 46.1535 47.9325C46.1581 48.1495 46.0976 48.3628 45.9796 48.545C45.7965 48.7133 45.5893 48.8534 45.365 48.9608C45.2539 48.7467 45.1669 48.521 45.1054 48.2878C45.0756 48.098 45.1158 47.9039 45.2184 47.7416C45.8034 46.9563 45.4426 46.3413 44.9335 45.7078C44.7899 45.4942 44.5764 45.3373 44.3298 45.2639C44.0831 45.1905 43.8186 45.2052 43.5815 45.3055C42.9325 45.5142 43.1245 46.0052 43.143 46.4405C43.1909 46.6847 43.1603 46.9378 43.0556 47.1635L42.4186 45.0406H43.6845C43.3823 44.7673 43.0083 44.5861 42.6066 44.5183C42.2048 44.4505 41.7921 44.4989 41.4169 44.6579C40.638 44.9656 39.9365 45.4414 39.3625 46.0512C38.7898 46.78 38.285 47.5595 37.8542 48.3802C37.3996 47.8499 37.3996 47.8499 39.1142 45.4849L37.1161 46.2118L37.0347 46.031C37.2467 45.9176 37.4524 45.79 37.6718 45.6932C38.6821 45.2474 39.6976 44.8132 40.7088 44.369C41.6688 43.9129 42.7703 43.8548 43.7729 44.2076C44.7756 44.5603 45.598 45.2952 46.061 46.252C46.7715 45.7455 47.526 45.3038 48.3153 44.932C50.4499 44.1908 52.7775 44.2264 54.8883 45.0324C55.3626 45.3138 55.7808 45.6803 56.122 46.1135C56.2452 46.2631 56.3949 46.3888 56.5637 46.4841C57.0617 46.679 57.5778 46.8242 58.1044 46.9178C58.6588 46.9945 59.2435 47.3247 59.7692 46.6595C60.2012 46.43 60.6799 46.3021 61.1687 46.2855C60.5924 47.3077 59.5567 47.1572 58.8728 47.6911C59.5596 48.9141 60.8776 49.9009 60.1746 51.668L62.3941 51.5205L62.5011 51.8179ZM62.0232 51.8091C60.1796 51.7588 59.657 52.06 59.5349 53.1547L62.0232 51.8091Z" fill="#ED6B6A"/>
<path d="M62.6638 59.3431L60.9516 59.9585L60.8886 59.836C61.2856 59.615 61.6803 59.3895 62.0802 59.1739C62.2538 59.1041 62.4062 58.9902 62.5221 58.8434C62.6381 58.6966 62.7136 58.522 62.7413 58.337C62.769 58.152 62.7478 57.9629 62.6798 57.7886C62.6119 57.6143 62.4996 57.4608 62.354 57.3433C62.2336 57.2113 62.0914 57.0992 61.9592 56.9779L62.0812 56.7261C62.3525 56.7864 62.6037 56.9154 62.8109 57.1007C63.154 57.8291 63.7389 57.6867 64.3234 57.648C64.6164 57.6286 64.9117 57.6446 65.206 57.6446L65.2981 57.9372C65.0123 58.1891 64.6939 58.4013 64.3514 58.5681C64.0453 58.6648 63.779 58.8583 63.5924 59.1196C63.4058 59.3808 63.3092 59.6955 63.317 60.0164C63.2656 60.4758 63.1093 60.9172 62.8601 61.3064C62.6108 61.6957 62.2754 62.0224 61.8797 62.2613C61.484 62.5002 61.0386 62.6448 60.578 62.684C60.1175 62.7232 59.6541 62.6559 59.2237 62.4874C58.964 62.3522 58.6655 62.311 58.3789 62.3705C58.0922 62.43 57.8349 62.5867 57.6505 62.8141C57.0232 63.4091 56.2655 63.8492 55.4379 64.0993C54.6102 64.3493 53.7356 64.4024 52.8838 64.2542C52.6139 64.2716 52.3456 64.2019 52.1183 64.0553C51.3787 63.0982 50.7 63.8333 50.0077 64.0798C49.3497 64.314 48.7096 64.6015 48.0449 64.8129C47.4488 65.0676 46.7887 65.1325 46.1544 64.9989C45.52 64.8653 44.9422 64.5397 44.4994 64.0662C43.6433 64.6717 42.819 65.2717 41.9773 65.8462C40.8221 66.618 39.4383 66.9729 38.0543 66.8524C37.3486 66.7961 36.6933 66.4649 36.2295 65.9301C35.7657 65.3953 35.5304 64.6998 35.5744 63.9933C35.6465 63.729 35.7573 63.4769 35.9032 63.2451C35.9882 63.3129 36.0618 63.3939 36.1212 63.485C35.959 66.099 38.0429 66.5855 39.785 66.2505C41.2801 65.8633 42.6459 65.0872 43.7437 64.0008C43.9304 63.6418 44.04 63.2476 44.0656 62.8437C44.1851 62.5289 44.3211 62.2206 44.4729 61.92C44.7349 62.1807 44.9383 62.4943 45.0695 62.8399C45.054 63.0852 45.0983 63.3305 45.1986 63.5549C45.2988 63.7792 45.452 63.9759 45.645 64.128C45.838 64.2802 46.065 64.3832 46.3066 64.4283C46.5481 64.4733 46.797 64.4591 47.0319 64.3868C48.2244 64.1011 49.3811 63.6624 50.5452 63.2662C50.7482 63.2003 50.919 63.0604 51.0236 62.8744C51.3239 62.1629 51.5652 62.3145 51.9655 62.8207C52.2315 63.1811 52.6032 63.4498 53.0289 63.5892C53.7521 63.7717 54.5072 63.7877 55.2374 63.6361C55.9676 63.4844 56.6538 63.1689 57.2444 62.7135C57.5951 62.3933 57.8483 61.9807 57.9749 61.523C58.1347 61.0554 58.2693 60.9898 58.6235 61.3245C59.0364 61.7733 59.5976 62.0578 60.2036 62.1255C60.8097 62.1933 61.4198 62.0398 61.9216 61.6933C62.2906 61.4411 62.5642 61.0725 62.6987 60.6464C62.8333 60.2203 62.821 59.7613 62.6638 59.3431Z" fill="#ED6B6A"/>
<path d="M28.6468 49.5606C29.0616 49.5095 29.4805 49.4798 29.89 49.4011C30.3 49.3223 30.7006 49.1946 31.1767 49.0695L30.8733 50.3807L30.3909 49.5881C29.7565 49.8118 29.0987 50.0299 28.4548 50.2834C28.3893 50.3229 28.3328 50.3755 28.2886 50.4379C28.2445 50.5004 28.2138 50.5712 28.1984 50.6461C28.145 50.8668 28.1379 51.0961 28.1778 51.3196C28.2177 51.5431 28.3036 51.7558 28.4301 51.9443C28.5566 52.1329 28.7209 52.293 28.9125 52.4147C29.1042 52.5363 29.3191 52.6168 29.5435 52.6509C29.8102 52.7309 30.0671 52.8403 30.3095 52.9772L30.2972 53.2666C30.0007 53.345 29.6955 53.3858 29.3887 53.388C27.2641 53.1377 23.8324 55.9929 25.016 59.2626C25.199 59.7488 25.519 60.1715 25.9372 60.4797C26.3554 60.7878 26.8539 60.9683 27.3724 60.9992C27.9147 60.8478 28.4014 60.5424 28.7734 60.1199C28.8899 59.9811 28.9726 59.8172 29.0149 59.641L29.7136 60.1374L29.271 60.5502L30.8789 60.304L30.9145 60.494L28.8515 61.1113L29.6366 61.6715C29.1761 61.7419 28.7119 61.7854 28.2463 61.8018C25.7327 61.7163 24.1716 60.3671 24.123 57.8019C24.1692 57.0152 24.4072 56.2517 24.8162 55.5781C25.2253 54.9045 25.7929 54.3412 26.4697 53.9373C27.0104 53.5423 27.6179 53.2388 28.1806 52.9023L27.4663 50.6289L25.8847 51.1019C25.8018 50.9786 25.7355 50.8449 25.6874 50.7043C25.4545 49.5996 25.4217 49.5687 24.3513 49.6489C24.2212 49.6825 24.0863 49.6927 23.9526 49.679C23.6984 49.5818 23.4496 49.4708 23.2074 49.3465C23.3775 49.1614 23.5747 49.0032 23.7924 48.8774C25.1545 48.354 26.5286 47.8619 27.8987 47.3594L28.0509 47.7378C26.8579 48.4085 25.4244 48.5335 24.0448 49.213C24.474 49.1874 24.9045 49.1931 25.3328 49.2299C25.5496 49.2855 25.739 49.4174 25.8664 49.6013C26.0467 49.8928 26.2054 50.1971 26.341 50.5119C26.8432 50.2516 27.3164 49.939 27.7528 49.5791C28.2386 49.0918 28.5379 48.4196 29.0203 47.9278C30.3658 46.5562 31.2675 46.9518 31.805 48.6997C31.568 48.6341 31.3442 48.5276 31.1438 48.3852C30.583 47.689 30.172 47.6115 29.5041 48.2142C29.1515 48.5716 28.8223 48.9514 28.5185 49.3511L28.6468 49.5606Z" fill="#ED6B6A"/>
<path d="M38.7898 59.3573C37.7817 59.0815 36.8026 58.8991 35.8892 58.5465C33.7837 57.7336 34.0603 56.1933 34.7898 54.8893C35.3123 54.0348 36.0285 53.3152 36.8805 52.7887C37.7325 52.2621 38.6965 51.9434 39.6944 51.8582C40.0474 51.8599 40.3977 51.9198 40.7312 52.0354L40.7296 52.2704C39.9387 52.5038 39.1317 52.6787 38.3151 52.7937C36.8055 52.9045 34.5358 55.1833 34.8989 56.6943C34.9822 56.9819 35.1241 57.2491 35.3159 57.479C35.5076 57.709 35.7448 57.8967 36.0127 58.0303C36.9522 58.3488 37.9263 58.5541 38.9144 58.6421C39.4942 58.7206 39.8568 58.7464 39.5734 59.5003C39.4307 59.8578 39.4244 60.2553 39.5559 60.6171C39.6873 60.9789 39.9473 61.2797 40.2863 61.4622C40.6896 61.7603 41.161 61.9529 41.6577 62.0223C42.1544 62.0918 42.6606 62.0359 43.1303 61.8598C43.471 61.7237 43.8094 61.5818 44.2555 61.3987C43.881 61.8939 43.3623 62.261 42.7707 62.4494C42.1791 62.6378 41.5437 62.6384 40.9518 62.451C39.5111 62.0789 38.9107 61.2236 38.7898 59.3573Z" fill="#ED6B6A"/>
<path d="M52.7272 53.4463C54.3864 52.9616 55.0061 54.179 55.7197 55.0995C56.0211 55.4398 56.1996 55.8713 56.2266 56.3251C56.2536 56.7789 56.1276 57.2286 55.8687 57.6022C55.5321 58.0791 55.0685 58.4521 54.5306 58.6789C53.9927 58.9057 53.402 58.9772 52.8255 58.8852C52.9948 58.8034 53.1623 58.7174 53.3337 58.6404C53.8095 58.4549 54.2752 58.2447 54.729 58.0106C54.9393 57.9158 55.1248 57.7734 55.2709 57.5947C55.4169 57.416 55.5195 57.2059 55.5706 56.9808C55.6217 56.7558 55.6198 56.522 55.5652 56.2977C55.5106 56.0735 55.4048 55.865 55.256 55.6886C55.1246 55.4847 54.9844 55.2864 54.8471 55.0863C54.0546 53.9316 53.7631 53.8442 52.4391 54.3461C52.2238 54.4074 52.0054 54.4571 51.7847 54.4948C51.9395 53.8274 52.0502 53.2761 52.197 52.7347C52.3317 52.4219 52.3544 52.0723 52.2612 51.7448C52.168 51.4173 51.9647 51.1319 51.6856 50.937C51.395 50.758 51.0527 50.6816 50.7136 50.7201C50.3745 50.7586 50.0581 50.9098 49.815 51.1493C49.237 51.6187 48.6292 52.0513 48.0345 52.5001L48.0959 52.7117C48.0791 52.4684 48.1231 52.2247 48.2239 52.0027C48.792 51.3959 49.4194 50.8476 50.0968 50.3659C50.378 50.1477 50.7208 50.0238 51.0765 50.0116C51.4321 49.9995 51.7826 50.0999 52.0779 50.2984C52.3932 50.5348 52.6348 50.856 52.7744 51.2245C52.914 51.593 52.9458 51.9936 52.8663 52.3795C52.8349 52.7127 52.7804 53.0437 52.7272 53.4463Z" fill="#ED6B6A"/>
<path d="M47.2764 58.3271C47.0876 58.4406 46.8767 58.5126 46.6579 58.5382C45.8338 58.4205 45.0137 58.2649 44.1999 58.0876C43.8846 58.065 43.5879 57.9298 43.364 57.7067C43.14 57.4836 43.0037 57.1875 42.98 56.8723C43.1271 56.3497 43.4743 55.9062 43.9464 55.6381C45.0875 54.8934 46.1855 55.1593 46.5873 56.1865C46.6565 56.4324 46.7001 56.6847 46.7173 56.9395L46.5279 57.0248C46.4021 56.8896 46.2955 56.7378 46.2109 56.5736C46.195 56.4585 46.156 56.3477 46.0963 56.248C46.0365 56.1482 45.9573 56.0615 45.8633 55.9931C45.7693 55.9247 45.6625 55.8759 45.5492 55.8497C45.436 55.8236 45.3186 55.8205 45.2041 55.8407C44.6783 56.0009 44.1791 56.2378 43.7224 56.5436C43.7102 56.7981 43.7966 57.0476 43.9636 57.2399C44.5518 57.4865 45.1601 57.6817 45.7819 57.8235C46.245 57.9397 46.7268 57.9812 47.2003 58.056L47.2764 58.3271Z" fill="#ED6B6A"/>
<path d="M67.1127 57.9477C67.3309 57.3709 67.4856 56.9117 67.676 56.4678C67.8998 55.8885 67.9719 55.2616 67.8856 54.6466C67.7993 54.0316 67.5575 53.4488 67.183 52.9533C66.9969 52.8111 66.7824 52.7104 66.5541 52.6582L66.2375 50.6568L66.527 50.5859C67.1552 51.8664 67.87 53.1133 68.3847 54.4379C68.5444 55.0831 68.5087 55.7612 68.2822 56.3861C68.0558 57.011 67.6487 57.5545 67.1127 57.9477Z" fill="#ED6B6A"/>
<path d="M64.6022 63.9682L63.794 63.9246L63.7753 63.6876C64.1848 63.6328 64.5975 63.6058 65.0106 63.6066C65.1281 63.7936 65.1677 64.0193 65.1209 64.2352C64.8818 64.5568 64.5779 64.8247 64.229 65.0219C62.7261 65.831 61.2014 66.5996 59.6845 67.3829L59.5424 67.1272L60.7637 66.5139L60.5897 65.5314L61.1767 66.1562C61.3636 65.9176 61.5212 65.7164 61.6791 65.5152C62.2006 65.9074 64.0693 64.934 64.6022 63.9682Z" fill="#ED6B6A"/>
<path d="M40.8876 70.1178C39.926 70.6023 38.8546 70.827 37.7795 70.7698L37.6798 70.4432C37.9281 70.2851 38.2097 70.1871 38.5024 70.1568C39.5103 70.3656 39.8037 70.2592 40.1538 69.371C40.1665 69.3042 40.1953 69.2414 40.2378 69.1882C40.2802 69.1349 40.3351 69.0929 40.3975 69.0657C40.4695 69.5169 39.8616 70.0963 40.8876 70.1178Z" fill="#ED6B6A"/>
<path d="M47.3179 44.713L50.4374 43.0044L50.6426 43.3964C49.7661 44.2823 48.4586 44.3382 47.4383 44.9473L47.3179 44.713Z" fill="#ED6B6A"/>
<path d="M34.2243 65.4967L33.9536 66.6715C33.3734 66.6975 32.972 66.6835 32.5816 66.7423C32.2122 66.798 31.8591 66.9632 31.4896 67.017C31.2404 67.0235 30.9914 66.9991 30.7482 66.9443C30.7447 66.8474 30.7584 66.7506 30.7887 66.6585C31.0008 66.6136 31.2295 66.638 31.4365 66.5807C32.3747 66.3213 33.6124 66.7755 34.2243 65.4967Z" fill="#ED6B6A"/>
<path d="M51.2982 57.1726C50.69 56.787 50.0785 56.4062 49.4795 56.0069C49.4573 55.964 49.4443 55.917 49.4412 55.8688C49.4382 55.8206 49.4452 55.7723 49.4618 55.727C49.589 55.6529 49.739 55.6284 49.8832 55.6579C50.44 56.0316 50.9738 56.4397 51.5152 56.8364L51.2982 57.1726Z" fill="#ED6B6A"/>
<path d="M29.0961 55.5118C28.2761 55.6802 27.459 55.8669 26.633 55.9976C26.4583 55.926 26.3059 55.8091 26.1914 55.6589C26.3059 55.5316 26.4485 55.4327 26.6078 55.3701C27.3232 55.3236 28.0415 55.3216 28.7587 55.3047C28.8582 55.3023 28.9577 55.3043 29.0572 55.3043L29.0961 55.5118Z" fill="#ED6B6A"/>
<path d="M65.5117 60.4234L64.9218 61.2051L64.1377 60.5427L65.318 60.3104L65.5117 60.4234Z" fill="#ED6B6A"/>
</svg>
