<svg width="100" height="100" viewBox="0 0 100 100" fill="none" xmlns="http://www.w3.org/2000/svg">
<path d="M95.4838 31.6155C94.5241 30.6156 93.4968 29.6829 92.409 28.8241C89.066 25.9423 85.3148 23.5712 81.2774 21.7879C78.3227 20.4557 75.3368 19.1903 72.3927 17.8359C68.4756 16.1999 64.3511 15.1134 60.1363 14.6074C57.2517 14.1396 54.3405 13.8534 51.42 13.7503C47.9525 13.6088 44.4795 13.6862 41.0218 13.9821C38.4356 14.3664 35.8783 14.9245 33.3673 15.6529C28.2668 16.7232 23.3441 18.5125 18.7468 20.9672C13.4634 23.8595 8.64387 27.5281 4.44919 31.8507C2.82094 33.5789 2.66182 34.1956 3.49012 35.3992C5.09065 37.9562 7.37209 40.0167 10.0784 41.3493C11.383 41.9444 12.4009 43.1341 13.6887 43.7837C16.2763 45.0889 19.0519 46.0477 21.5731 47.4587C23.3833 48.4718 25.4091 49.2655 26.5148 51.3704C27.2546 52.7786 28.6161 53.842 29.6262 55.118C30.8496 56.6636 32.0285 58.2443 33.1628 59.8602C33.9077 60.923 34.8635 61.8794 34.5461 63.4659C34.5707 64.1955 34.8011 64.9034 35.2107 65.5078C35.5159 65.9845 35.8703 66.4278 36.2681 66.8306C35.1299 66.8306 34.4071 66.8217 33.6843 66.8323C31.9967 66.8572 31.2161 67.4703 30.8881 69.0127C30.5688 70.5146 31.0033 71.1793 32.5189 71.9547C33.5803 72.4977 34.8814 72.4893 35.6339 73.7881C36.5014 75.5168 36.8969 77.444 36.7804 79.3747C36.7681 80.2113 36.9475 81.0396 37.3048 81.7961C37.6622 82.5526 38.188 83.2173 38.842 83.7392C41.0175 85.5919 43.7313 85.7823 46.3949 86.0522C48.3258 86.2561 50.2676 86.3383 52.2088 86.2982C54.4115 86.2427 56.616 86.0141 58.8131 85.7855C60.3818 85.6769 61.9379 85.4299 63.4631 85.0475C64.3643 84.7679 65.1398 84.1829 65.6564 83.3933C66.1561 82.3404 66.4958 81.2188 66.664 80.0656C67.1978 77.7159 66.5719 74.9601 69.1808 73.3577C69.7873 72.9852 70.3679 72.5643 70.995 72.2326C72.4326 71.4724 73.3579 69.8234 73.0041 68.5665C72.8405 67.9556 72.4786 67.4163 71.9752 67.0333C71.4718 66.6504 70.8555 66.4455 70.223 66.4509C69.469 66.4731 68.7313 66.675 68.071 67.0397C67.4108 67.4044 66.8471 67.9215 66.4269 68.5479C66.1345 68.929 65.8115 69.2857 65.4612 69.6144C65.7136 68.7245 65.9085 67.8193 66.0447 66.9044C66.1081 66.0736 66.3921 65.7801 67.2311 65.8774C67.4249 65.8941 67.6199 65.8707 67.8043 65.8087C67.9886 65.7467 68.1581 65.6475 68.3025 65.5171C69.0353 64.6926 68.5325 62.6292 67.4234 62.0479C68.4465 60.9598 69.3716 59.9703 70.303 58.9867C71.7122 57.4988 73.0805 55.9686 74.5492 54.5417C76.147 52.8769 77.8623 51.3289 79.6817 49.9096C82.5407 47.8396 85.7397 46.2271 88.5081 44.053C91.0838 41.9045 93.5091 39.5819 95.767 37.1015C96.4966 36.394 96.9347 35.439 96.995 34.4245C96.7799 33.3594 96.254 32.3819 95.4838 31.6155ZM85.5352 28.4949C85.0724 28.8058 84.2356 28.552 83.4081 28.552C84.5257 27.5289 85.3056 26.8149 86.1163 26.0727C86.2489 26.4911 86.2649 26.9378 86.1625 27.3646C86.0601 27.7914 85.8432 28.1822 85.5352 28.4949ZM37.9162 55.1446C37.7841 54.5961 38.2142 53.903 38.4263 53.127C39.7834 53.2934 41.1193 53.6014 42.4122 54.0459C42.7699 54.2692 43.0729 54.57 43.2987 54.9261C43.5245 55.2823 43.6673 55.6846 43.7167 56.1034C43.8601 58.1955 43.706 60.3133 43.6689 62.442H39.9524C39.26 60.017 38.5081 57.6014 37.9163 55.1446H37.9162ZM43.4642 65.7719C43.6261 68.2993 43.8069 70.7059 43.9177 73.1169C43.9494 73.8047 43.4618 74.2179 42.8607 73.7729C42.2001 73.3582 41.6766 72.758 41.3555 72.0472C40.7296 70.0172 40.3209 67.9168 39.8102 65.7719H43.4642ZM39.6202 71.047C39.4654 71.0789 39.3106 71.1108 39.1557 71.1427C38.3964 69.394 37.637 67.6454 36.848 65.8285C37.9998 65.3668 38.6436 65.2265 38.7488 66.7067C38.9405 68.1716 39.2316 69.6217 39.6202 71.047ZM18.0328 31.8412C17.8982 30.9824 18.1524 30.4638 18.8768 30.2754C19.1083 30.2338 19.346 30.2421 19.5741 30.2998C19.8021 30.3574 20.0152 30.4631 20.1992 30.6096C20.9517 31.2956 21.5285 32.172 22.2724 32.8695C22.4399 33.0008 22.5786 33.1653 22.6796 33.3526C22.7806 33.54 22.8418 33.7463 22.8593 33.9584C22.8768 34.1706 22.8503 34.384 22.7815 34.5855C22.7126 34.7869 22.6028 34.9719 22.4591 35.1289C22.1677 35.685 21.9116 36.2589 21.6921 36.8471C21.4282 37.4142 21.1363 37.9687 20.8398 38.5627C20.4527 38.4472 20.1622 38.36 19.8713 38.2741C17.4665 37.5644 17.5124 37.54 18.0064 35.0408C18.1991 33.9837 18.2081 32.9013 18.0328 31.8412ZM20.7778 29.4187C22.6095 28.9296 24.3149 28.4742 26.4336 27.9085C25.428 29.7053 24.6121 31.1634 23.719 32.7593C22.7204 31.6251 21.8247 30.6076 20.7779 29.4187H20.7778ZM23.7941 35.0332C25.4148 36.8319 26.9026 38.483 28.3904 40.1341C28.3031 40.2915 28.2158 40.4489 28.1285 40.6063C25.9855 40.679 24.1217 39.6009 21.9615 39.0039C22.5556 37.7167 23.0926 36.5532 23.7941 35.0332H23.7941ZM24.392 33.9847C25.3203 32.2715 26.2407 30.573 27.3467 28.5318C28.6942 30.1307 29.9138 31.5243 31.0513 32.9827C31.1246 33.1638 31.1578 33.3586 31.1485 33.5537C31.1393 33.7488 31.0878 33.9396 30.9977 34.1129C30.2963 35.5821 29.5246 37.0186 28.654 38.708C27.1531 37.0446 25.8087 35.5547 24.392 33.9847H24.392ZM35.3105 26.2792C34.0909 28.4231 33.0983 30.1679 32.0074 32.0856C30.6355 30.5566 29.395 29.1739 27.9879 27.6056L35.3105 26.2792ZM28.5957 26.2773C29.582 24.6655 30.4015 23.3262 31.3268 21.8138C32.4253 23.0433 33.3829 24.1152 34.5398 25.4101C32.4601 25.7135 30.6647 25.9755 28.5957 26.2773H28.5957ZM43.7399 25.8019C42.5575 27.9626 41.5122 29.8728 40.2537 32.1725C38.9471 30.083 37.8336 28.3027 36.5689 26.2803C39.0677 26.1136 41.2451 25.9683 43.7399 25.8019H43.7399ZM37.5957 24.9237C38.5582 23.6601 39.4224 22.5257 40.3817 21.2663C40.8398 21.891 41.2538 22.4474 41.6589 23.0103C42.0475 23.5505 42.4269 24.0974 43.0093 24.9237H37.5957ZM51.9719 25.4024C53.2443 25.4391 52.8196 26.4638 52.4423 27.1091C51.4869 28.7428 50.4371 30.3225 49.2421 32.2134C47.8037 29.9446 46.5306 27.9366 45.0746 25.64C47.6231 25.5369 49.8036 25.3397 51.972 25.4024H51.9719ZM45.9731 24.648C47.0806 22.9379 48.0879 21.3824 49.153 19.7378C50.1366 21.2852 51.0343 22.6974 52.0297 24.2633C49.9406 24.396 48.0759 24.5144 45.9731 24.648ZM55.3137 25.5732C56.765 25.5887 58.2171 25.5894 59.6672 25.6325C60.8549 25.6678 62.3893 28.0738 61.7632 29.0433C60.7612 30.5946 59.604 32.0471 58.4085 33.6835C57.0477 31.1076 55.8357 28.8344 54.6524 26.5461C54.5446 26.2374 54.48 25.9152 54.4606 25.5888C54.745 25.5832 55.0295 25.5702 55.3137 25.5732V25.5732ZM55.3031 24.3132C56.0419 23.1461 56.6726 22.1495 57.4009 20.999C58.2427 22.2725 58.9608 23.3586 59.7252 24.5149C58.235 24.447 56.8915 24.3857 55.3031 24.3133V24.3132ZM71.179 30.6857C71.9895 32.2775 72.7744 33.7787 73.5102 35.3043C73.579 35.4446 73.6158 35.5984 73.6179 35.7546C73.62 35.9108 73.5875 36.0656 73.5227 36.2077C72.236 37.8199 70.8973 39.391 69.4931 41.0712C68.7164 39.2166 68.0037 37.5497 67.3343 35.8651C67.3172 35.7445 67.3258 35.6217 67.3595 35.5047C67.3931 35.3876 67.4512 35.279 67.5297 35.1859C68.6905 33.7261 69.8758 32.2857 71.179 30.6857ZM70.2777 26.4125C71.1721 26.5682 71.8371 26.6839 72.5498 26.808C72.5454 27.0583 72.5796 27.1729 72.5367 27.2276C72.2064 27.6488 71.8612 28.0586 71.4379 28.5721C71.2122 28.1844 71.0205 27.8728 70.8465 27.5515C70.6848 27.2531 70.542 26.9443 70.2777 26.4125H70.2777ZM67.4187 42.8626C65.9978 43.0751 64.5728 43.2695 63.1442 43.4002C62.8686 43.4254 62.3465 43.1548 62.3233 42.9668C62.2198 42.4693 62.2903 41.9514 62.523 41.4997C63.6913 39.9442 64.9636 38.4658 66.3752 36.7436C67.0352 38.4191 67.6654 39.924 68.2154 41.459C68.2932 41.6008 68.3334 41.7602 68.3322 41.9219C68.3311 42.0837 68.2885 42.2424 68.2087 42.3831C68.1288 42.5238 68.0143 42.6417 67.876 42.7256C67.7378 42.8095 67.5803 42.8567 67.4187 42.8626H67.4187ZM69.0011 31.6349C68.264 32.5342 67.5832 33.4795 66.8175 34.4819C65.7569 32.5116 64.7905 30.7324 63.8484 28.94C63.7553 28.7628 63.7109 28.4111 63.815 28.2997C64.5848 27.4753 65.2729 26.318 66.2274 25.9835C67.6034 25.5012 68.7921 26.0045 69.4877 27.6629C70.3926 29.8205 70.5598 29.733 69.0011 31.6349ZM62.9268 27.6301C62.6468 26.939 62.4371 26.4215 62.1658 25.7517H64.3733C63.8365 26.4488 63.4466 26.9552 62.9268 27.6301ZM62.8384 29.4676C63.8238 31.5139 64.7797 33.3414 65.5568 35.2446C65.7134 35.6283 65.2958 36.3749 64.9637 36.8226C63.9177 38.2331 62.7865 39.5811 61.5761 41.0933C60.6 38.8605 59.7028 36.8085 58.8454 34.8472C60.1187 33.1317 61.3614 31.4575 62.8384 29.4676ZM56.2208 47.6843C55.9587 46.7511 55.7419 45.9791 55.484 45.061H58.3005C57.5911 45.9558 56.9685 46.741 56.2208 47.6843ZM56.4425 54.2803H52.996C53.7573 53.0211 54.4927 51.805 55.2281 50.5888L55.5546 50.7144C55.8382 51.8532 56.1218 52.9921 56.4425 54.2802V54.2803ZM57.8271 43.9311C56.992 43.9284 56.1567 43.9307 55.44 43.9307C53.4092 42.1434 54.3678 40.623 55.6364 39.0883C56.4147 38.1467 57.1161 37.142 58.0352 35.9223C58.9303 37.9726 59.8329 39.8305 60.545 41.7613C60.8916 42.7012 59.2503 43.9358 57.8271 43.9311V43.9311ZM57.1363 34.1487C57.202 34.3568 57.2224 34.5766 57.1963 34.7933C57.1702 35.01 57.0981 35.2186 56.9848 35.4051C55.8794 37.0704 54.6971 38.6854 53.4296 40.4761C52.3349 38.3273 51.3024 36.363 50.3423 34.3631C50.2306 34.1504 50.1624 33.9175 50.1418 33.6781C50.1211 33.4387 50.1483 33.1976 50.2219 32.9689C51.2566 31.0204 52.3966 29.1264 53.6673 26.9245C54.919 29.5054 56.0667 31.8087 57.1363 34.1487V34.1487ZM47.2044 44.6142C48.3374 44.7045 49.1972 44.7731 50.3416 44.8644C49.6093 45.9246 49.0841 46.685 48.456 47.5944C48.0395 46.6026 47.687 45.7632 47.2044 44.6142ZM49.3772 54.2302C48.2549 53.9507 47.3396 53.7228 46.3399 53.4738C46.9049 52.3277 47.3916 51.3406 48.0332 50.039C48.5237 51.5684 48.9064 52.762 49.3772 54.2302V54.2302ZM50.1335 43.838C49.1635 43.7146 48.1959 43.5744 47.2291 43.4303C46.3914 43.3055 45.2359 41.1961 45.6957 40.3891C46.7596 38.5221 47.9511 36.7263 49.2478 34.6503C50.4012 37.0427 51.4906 39.1662 52.4484 41.3494C52.896 42.3694 51.3217 43.989 50.1335 43.838ZM48.3689 32.809C48.4563 32.9772 48.5048 33.163 48.5106 33.3525C48.5164 33.542 48.4794 33.7304 48.4024 33.9036C47.3231 35.7764 46.1761 37.611 44.9068 39.6949C44.1429 38.0736 43.2579 36.5121 42.2591 35.0239C40.9839 33.3956 41.1711 32.0976 42.3814 30.5426C43.1494 29.39 43.8311 28.1821 44.4209 26.9288C45.8125 28.9847 47.1212 30.8768 48.3689 32.8089V32.809ZM39.8393 44.023H42.2328C41.7262 44.8627 41.4089 45.3887 41.013 46.0447C40.6079 45.3469 40.2657 44.7575 39.8393 44.023ZM42.9844 52.9324C41.507 52.6353 40.3184 52.3962 38.93 52.1169L40.8042 48.4848C41.5621 50.0309 42.2148 51.3624 42.9844 52.9324V52.9324ZM42.1989 42.8943C39.4927 43.0612 38.7274 42.6247 37.6886 40.1683C37.5839 39.7668 37.6288 39.3409 37.8149 38.97C38.1813 38.1467 38.6588 37.3718 39.0738 36.5686C39.4641 35.8132 39.8321 35.0466 40.4198 33.8617C41.7017 36.3125 42.8921 38.4902 43.9742 40.722C44.2677 41.3273 42.9239 42.8496 42.1989 42.8943V42.8943ZM39.3032 32.7306C39.5663 33.2324 39.0575 34.2482 38.7261 34.9468C38.1689 36.1213 37.4701 37.2304 36.7329 38.5413C35.4836 36.7625 34.3331 35.1884 33.2683 33.5576C33.1407 33.3597 33.0585 33.1359 33.0277 32.9024C32.9968 32.6689 33.0181 32.4315 33.09 32.2072C33.9709 30.6493 34.976 29.1601 35.9806 27.5779C37.1752 29.2377 38.2842 30.9575 39.3032 32.7306ZM29.7899 39.2617C30.4802 37.6061 31.266 35.989 32.1445 34.0658C33.5535 36.0816 34.8566 37.762 35.9157 39.5867C36.1895 40.0585 35.6987 40.9828 35.5242 41.8786C33.9534 41.7447 32.4848 41.6792 31.0382 41.4755C30.8008 41.4297 30.5763 41.3327 30.3801 41.1915C30.1838 41.0502 30.0207 40.8679 29.902 40.6573C29.7832 40.4467 29.7117 40.2128 29.6923 39.9718C29.673 39.7308 29.7063 39.4885 29.7899 39.2617ZM31.9916 42.7997C32.8565 42.888 33.7214 42.9764 34.7787 43.0844C34.5232 43.8807 34.2783 44.644 33.9259 45.7426C33.0894 44.7062 32.4308 43.8902 31.7722 43.0741L31.9916 42.7997ZM34.1715 48.236C34.8025 49.3178 35.3337 50.2283 36.076 51.5007C34.8707 51.1652 34.0414 50.9343 33.0493 50.6582C33.4398 49.8153 33.7408 49.1657 34.1715 48.236ZM35.3505 48.0147C35.0699 47.2998 34.9679 46.5272 35.0532 45.764C35.1384 45.0007 35.4085 44.2698 35.8398 43.6344C36.2201 43.3665 36.6823 43.2407 37.1459 43.279C37.6095 43.3172 38.0449 43.5171 38.376 43.8437C38.9616 44.7911 39.4851 45.7754 39.9433 46.7905C40.0753 47.1566 40.0572 47.56 39.8929 47.9127C39.229 49.2343 38.4881 50.5183 37.6973 51.9586C36.8312 50.5047 36.083 49.2643 35.3505 48.0146L35.3505 48.0147ZM43.4516 51.027C43.0876 50.3655 42.8476 49.6276 42.4366 49.0008C42.2126 48.7366 42.0428 48.4309 41.9371 48.101C41.8313 47.7712 41.7915 47.4238 41.8201 47.0786C41.8487 46.7334 41.945 46.3972 42.1036 46.0892C42.2621 45.7813 42.4799 45.5076 42.7443 45.2839C43.2288 44.8633 43.8153 44.5774 44.4451 44.455C45.5186 44.157 45.9565 44.7061 46.3849 45.5848C47.3333 47.5295 48.0191 49.364 46.1472 51.2398C45.6279 51.8573 45.1659 52.5208 44.7668 53.2221C44.3262 52.4917 43.8628 51.774 43.4516 51.027ZM45.8618 54.7602C46.8827 54.8447 47.8888 55.058 48.8562 55.3951C49.2293 55.5539 49.4432 56.427 49.4567 56.9864C49.5011 58.8336 49.4211 60.686 49.3886 62.547C48.5325 62.6084 47.6564 62.6636 46.7814 62.7358C45.687 62.8261 45.166 62.4846 45.1736 61.2374C45.1442 59.4459 45.0231 57.6571 44.8106 55.878C44.7282 55.0276 45.0449 54.6412 45.8618 54.7602V54.7602ZM49.2241 49.5186C49.3574 48.44 49.7669 47.414 50.4128 46.5399C50.9478 45.6485 51.544 44.6023 52.9801 44.9363C54.0908 44.7484 54.2499 45.4779 54.6519 46.4086C55.5324 48.4472 54.7589 49.894 53.5224 51.3957C53.012 52.0156 52.7254 52.8142 52.2454 53.4646C51.9814 53.8223 51.5239 54.2553 51.1593 54.2567C50.8498 54.2578 50.4025 53.7411 50.2699 53.3612C49.7238 52.1424 49.371 50.846 49.2241 49.5187V49.5186ZM50.6803 57.831C50.6462 57.3122 50.8106 56.7998 51.1402 56.3976C51.4698 55.9955 51.94 55.7337 52.4554 55.6653C53.884 55.402 55.3338 55.2716 56.7864 55.2758C56.7439 57.7131 56.704 59.9995 56.6599 62.5265H50.6299C50.6566 60.9974 50.7897 59.4036 50.6803 57.831ZM56.7763 49.618C56.77 49.5755 56.7317 49.5383 56.7251 49.4958C56.5866 48.5995 59.6866 44.6988 60.5879 44.7095C60.9428 44.7137 61.4924 44.8779 61.606 45.1302C62.0791 46.1818 62.42 47.2947 62.845 48.4852C62.7098 48.7937 62.5481 49.09 62.3619 49.3707C61.2192 50.8358 60.0723 52.2986 58.8827 53.7257C58.7618 53.8671 58.6139 53.9829 58.4477 54.0663C58.2814 54.1498 58.1002 54.1992 57.9146 54.2117C57.7068 54.2036 57.4073 53.7489 57.3531 53.4534C57.1201 52.1831 56.9631 50.8976 56.7763 49.618H56.7763ZM63.1349 49.872C63.4682 51.2452 63.7029 52.2123 63.982 53.3621L60.2643 54.0517L60.0331 53.8033C61.0008 52.5768 61.9685 51.3503 63.1349 49.872H63.1349ZM58.156 56.0289C58.177 55.679 59.084 55.1785 59.6366 55.0767C61 54.8254 62.3954 54.7654 63.9938 54.6072C63.5707 57.2038 63.1527 59.7693 62.715 62.4554H58.1153C58.1059 60.3397 58.0272 58.1799 58.1561 56.0289H58.156ZM63.8583 47.5044C63.7958 47.4416 63.7404 47.372 63.6932 47.297C62.4361 44.4286 62.8285 44.0002 66.7706 44.2081C65.7022 45.4174 64.7857 46.4546 63.8583 47.5044H63.8583ZM66.0758 46.4737C66.795 45.8639 67.3382 45.0496 68.0093 44.3761C68.2532 44.136 68.5749 43.991 68.9163 43.9675C69.056 43.9666 69.1916 44.447 69.3272 44.7101C69.7881 45.4433 69.9494 46.3255 69.7779 47.1743C69.6063 48.0231 69.115 48.7735 68.4055 49.2701C67.2005 50.5511 66.1031 51.9293 65.1245 53.3905C65.0679 52.7725 64.951 52.1615 64.7754 51.5663C63.8575 49.5281 64.389 47.9039 66.0759 46.4737H66.0758ZM70.4948 48.383C70.7581 48.9204 70.9533 49.4886 71.0759 50.0744C71.1463 52.0238 71.2913 52.3439 69.3563 52.4658C68.3857 52.6213 67.4298 52.8582 66.4989 53.174C67.9111 51.4808 69.1127 50.0401 70.4948 48.383V48.383ZM70.1998 43.7616L73.6716 43.2444L71.1905 45.9255C70.8475 45.1763 70.5558 44.5392 70.1998 43.7616H70.1998ZM72.4418 42.3268C71.5697 42.3988 70.6935 42.4052 69.8204 42.3459C71.3765 40.456 72.6904 38.8603 74.1565 37.0795C74.4118 37.8522 74.6233 38.405 74.7776 38.9742C75.6768 42.2902 75.2619 41.8382 72.4419 42.3268H72.4418ZM74.7074 35.0766C73.8703 33.3198 73.1025 31.8242 72.4586 30.2754C72.3767 30.0478 72.3495 29.8042 72.3794 29.5642C72.4092 29.3242 72.4952 29.0946 72.6304 28.8941C73.3304 28.2647 73.4524 26.8082 74.8935 27.1546C75.1565 27.2093 75.4236 27.2415 75.6919 27.251C76.4929 27.358 77.2247 27.7608 77.7435 28.3804C78.2622 28.9999 78.5303 29.7912 78.4948 30.5984C78.472 30.73 78.4198 30.8547 78.3421 30.9633C78.2553 31.0686 78.1617 31.168 78.0618 31.2611C76.991 32.4775 75.9215 33.6951 74.7074 35.0766H74.7074ZM75.5909 35.6001C76.6199 34.4021 77.7526 33.2927 78.9418 32.0523C79.0189 32.2551 79.0803 32.4636 79.1256 32.6758C79.312 34.2042 81.1862 35.4984 80.0674 37.1141C79.0117 38.3576 77.8283 39.4868 76.5367 40.4831C76.1174 39.2051 75.6937 38.077 75.395 36.9146C75.3363 36.6937 75.3235 36.4631 75.3572 36.2371C75.3909 36.011 75.4704 35.7943 75.5909 35.6001H75.5909ZM78.8905 28.2636C79.6616 28.3237 80.2149 28.3668 80.7682 28.4099C80.8074 28.5184 80.8465 28.6269 80.8855 28.7355C80.465 29.054 80.0444 29.3725 79.5061 29.7803C79.3041 29.2824 79.1496 28.9018 78.8905 28.2636H78.8905ZM81.1225 37.7602C81.3758 38.5544 81.5414 39.0735 81.7488 39.7235C80.4338 40.1411 79.2367 40.5213 78.0397 40.9015L77.946 40.7071C78.9449 39.7805 79.9437 38.8539 81.1225 37.7602H81.1225ZM81.5726 35.9038C80.9518 34.4952 80.4855 33.0234 80.1817 31.5143C80.2651 31.08 80.4585 30.6744 80.7433 30.3362C81.0282 29.998 81.3951 29.7385 81.8088 29.5825C82.9694 29.5844 84.0944 29.9831 84.9971 30.7124C85.5658 31.1959 85.0332 32.1295 84.2533 32.7772C83.2737 33.7425 82.377 34.7884 81.5726 35.9038H81.5726ZM83.9553 35.5631C84.425 35.1504 84.8317 34.6712 85.1626 34.1407C85.3763 35.1031 85.4949 36.0841 85.5165 37.0696C85.4928 37.5506 84.855 38.062 84.41 38.4646C83.9874 38.7871 83.5357 39.0696 83.0607 39.3083C81.8067 37.1759 81.9093 36.8955 83.9553 35.5631H83.9553ZM78.074 22.4542C78.2243 22.3513 78.3954 22.2829 78.5752 22.2536C78.7549 22.2244 78.9389 22.2351 79.1141 22.285C79.9648 22.5657 80.795 22.9055 81.5984 23.3018C82.6373 23.804 83.6441 24.3706 84.7066 24.9316C83.9796 25.7632 83.3587 26.5137 82.6872 27.216C82.5866 27.3289 82.4636 27.4197 82.3262 27.4827C82.1887 27.5457 82.0397 27.5796 81.8885 27.5821C80.8287 27.5058 79.797 27.2061 78.8612 26.7028C78.0436 25.9196 77.4361 24.9433 77.0945 23.8639C76.9759 23.5652 77.6487 22.8534 78.074 22.4542ZM77.1662 21.3098C76.8155 21.7143 76.5672 22.0008 76.2309 22.3888C75.8586 21.689 75.5471 21.1034 75.1694 20.3931C75.8796 20.7192 76.4605 20.9859 77.1662 21.3098H77.1662ZM73.7391 20.2369C74.1721 21.0644 74.5889 21.9031 74.9611 22.76C75.581 24.1866 74.4514 25.7867 72.544 25.7257C71.9622 25.6031 71.0356 25.4583 70.1406 25.2071C68.843 24.8427 68.1393 22.4615 68.9943 21.4204C69.4643 20.814 69.9689 20.2351 70.5057 19.6868C70.7191 19.4332 70.9951 19.2399 71.3063 19.1258C71.6175 19.0118 71.9531 18.981 72.2798 19.0366C72.6065 19.0922 72.9131 19.2322 73.169 19.4427C73.425 19.6533 73.6215 19.9271 73.7391 20.2369H73.7391ZM69.8275 18.0811C69.0311 19.2726 68.3651 20.2689 67.5516 21.4858L64.6046 16.6502L69.8275 18.0811ZM61.6235 16.2325C61.8865 16.1809 62.1581 16.1939 62.4149 16.2706C62.6717 16.3473 62.906 16.4853 63.0975 16.6727C64.1875 18.1904 65.2005 19.7621 66.1324 21.3817C66.3324 21.7212 66.4361 22.1087 66.4326 22.5027C66.4291 22.8967 66.3183 23.2823 66.1123 23.6181C65.9063 23.954 65.6127 24.2274 65.2631 24.4091C64.9135 24.5908 64.5211 24.6739 64.1278 24.6495C63.8118 24.6505 63.4958 24.6496 62.9458 24.6496C60.6974 25.3779 60.2702 23.1326 59.3854 21.85C58.0214 19.8724 58.233 19.1898 60.0173 17.393C60.4546 16.8859 61.0047 16.4884 61.6235 16.2325H61.6235ZM59.7275 15.6618C58.9095 16.7962 58.243 17.7207 57.4503 18.8202C56.6828 17.658 55.9687 16.5765 55.0427 15.1742C56.7005 15.3468 58.0557 15.4878 59.7275 15.6618H59.7275ZM53.1667 14.8592C54.319 16.4872 55.398 17.9824 56.4322 19.5082C56.5 19.6347 56.538 19.7749 56.5434 19.9183C56.5487 20.0617 56.5212 20.2044 56.463 20.3356C55.7592 21.5456 54.992 22.7193 54.2582 23.9126C53.8939 24.505 53.5355 24.5666 53.16 23.9587C52.2738 22.5235 51.4203 21.067 50.4994 19.655C50.2721 19.3776 50.1616 19.0227 50.191 18.6652C50.2205 18.3078 50.3877 17.9758 50.6574 17.7394C51.443 16.8756 52.1937 15.98 53.1666 14.8592H53.1667ZM51.2324 14.8796C50.5305 15.8452 50.0186 16.5494 49.4386 17.3471C48.5869 16.5524 47.8257 15.8424 46.7937 14.8796H51.2324ZM46.0637 15.5779C49.1628 18.8797 48.9852 17.714 46.6901 21.4976C46.0398 22.5696 45.3132 23.5962 44.5346 24.7752C43.4445 23.4008 42.4065 22.1354 41.4328 20.8218C41.3503 20.6768 41.3049 20.5138 41.3004 20.3471C41.2959 20.1803 41.3326 20.0151 41.4072 19.8659C42.7234 18.2744 44.0974 16.7304 45.4096 15.223C45.6387 15.3195 45.8578 15.4384 46.0636 15.5779H46.0637ZM44.0112 14.8724C42.628 16.4579 41.5269 17.72 40.198 19.2434C39.1923 18.0724 38.2786 17.0085 37.1676 15.715C39.4643 15.4323 41.5226 15.1788 44.0111 14.8724H44.0112ZM38.6322 19.1954C39.395 19.9017 39.6133 20.4636 38.9492 21.3332C38.0962 22.45 37.3227 23.6284 36.4369 24.7173C36.2904 24.8257 36.1191 24.8959 35.9387 24.9215C35.7582 24.947 35.5742 24.9272 35.4033 24.8637C34.4389 23.7597 33.5368 22.6028 32.7013 21.3982C32.6026 21.2082 32.5515 20.9971 32.5523 20.7829C32.5531 20.5688 32.6058 20.358 32.706 20.1687C33.7816 18.7788 34.9542 17.4632 36.0662 16.1532C36.8558 17.2209 37.7128 18.2371 38.6321 19.1954L38.6322 19.1954ZM33.3955 16.7394L33.5098 17.1247C32.7927 18.0374 32.0767 18.9486 31.3619 19.8583C30.6955 19.234 30.0942 18.6708 29.3083 17.9347C30.8082 17.496 32.1019 17.1177 33.3955 16.7394L33.3955 16.7394ZM28.0805 18.4346C28.2162 18.505 28.312 18.5258 28.3623 18.5852C29.0722 19.4241 30.2628 20.2196 30.3377 21.1255C30.4062 21.953 29.2176 22.874 28.6709 23.8044C28.1504 24.6901 27.7435 25.6413 27.4744 26.1847C25.4733 24.388 23.5006 22.6168 21.3711 20.7047C23.7487 19.9003 25.9362 19.1601 28.0805 18.4346L28.0805 18.4346ZM19.3715 21.9043C19.6866 21.8505 20.0098 21.8683 20.3172 21.9564C20.6245 22.0446 20.908 22.2008 21.1467 22.4134C22.7425 23.7724 24.2335 25.2534 25.858 26.7764C23.8421 27.3868 22.1341 27.9508 20.3971 28.3922C20.1703 28.4116 19.9419 28.3836 19.7265 28.3099C19.5112 28.2362 19.3135 28.1185 19.1462 27.9642C17.9059 26.8457 16.7329 25.653 15.4532 24.4082C16.712 23.5017 18.0201 22.6658 19.3714 21.9043L19.3715 21.9043ZM8.13769 38.4525C7.10723 37.6352 6.21578 36.6565 5.49786 35.5545C5.20948 34.9433 5.11581 34.2583 5.22952 33.5921C5.34323 32.9259 5.65883 32.3107 6.13362 31.8298C8.7218 29.6122 11.3357 27.4247 13.8688 25.2849C17.7477 27.481 17.407 38.7215 13.9401 42.0056C11.9293 40.7945 9.94187 39.7495 8.13769 38.4525ZM18.3298 44.3252C18.2275 44.4023 18.1084 44.454 17.9823 44.4761C17.8561 44.4981 17.7265 44.49 17.6041 44.4522C16.9191 44.0631 16.0366 43.7278 15.7058 43.1104C15.4639 42.6587 15.9548 41.7933 16.1468 41.1197C16.3415 40.4365 16.5701 39.7623 16.8683 38.8163C17.5964 39.5924 18.186 40.1368 18.6746 40.761C19.0308 41.3059 19.1907 41.9558 19.128 42.6037C19.0653 43.2515 18.7838 43.8587 18.3298 44.3252ZM22.9153 46.7091L19.2822 45.0495C19.6298 44.3062 19.9192 43.6877 20.2917 42.8912C21.3297 44.1992 22.2225 45.3243 23.1153 46.4494C23.0486 46.5359 22.9819 46.6225 22.9153 46.7091ZM25.3969 47.3986C24.01 45.6371 22.6802 44.0453 21.4838 42.3577C21.1993 41.9563 21.3612 41.2348 21.3178 40.6605C21.7917 40.5758 22.2749 40.5555 22.7542 40.6004C24.2682 40.9532 25.7608 41.3918 27.4442 41.8471C26.7659 43.6863 26.0997 45.4926 25.3969 47.3986ZM26.4147 47.9918C26.9801 46.4314 27.5074 44.899 28.0911 43.3874C28.6321 41.9865 29.5768 41.8375 30.4504 43.0166C31.3495 44.1828 32.1853 45.3965 32.9541 46.6525C33.135 47.17 33.1245 47.7352 32.9246 48.2457C32.6513 48.9866 32.3279 49.7081 31.9566 50.4051C30.2593 49.7241 28.608 49.0676 26.964 48.394C26.7657 48.2821 26.5813 48.147 26.4147 47.9918ZM35.5254 60.9125C34.4945 59.4032 33.3669 57.9622 32.1496 56.5986C31.3852 55.6092 30.6945 54.5625 29.9662 53.5447C29.2743 52.5779 28.5764 51.6155 27.6288 50.301C28.4536 50.4744 32.2025 51.6019 33.6538 52.0317C34.0471 52.1009 34.436 52.1927 34.8187 52.3068C35.3019 52.4292 35.7342 52.7011 36.0536 53.0838C36.3731 53.4665 36.5635 53.9403 36.5977 54.4376C36.9394 56.4235 37.415 58.3839 38.0213 60.3055C38.1596 60.8639 38.2188 61.4432 38.339 62.1599C37.7981 62.3109 37.2216 62.2691 36.7082 62.0415C36.1948 61.8139 35.7767 61.4148 35.5254 60.9125ZM67.2044 69.4914C68.3587 68.1136 69.5475 67.5006 70.6509 68.0296C70.9144 68.1093 71.1494 68.2629 71.3283 68.4722C71.5071 68.6814 71.6222 68.9376 71.6599 69.2103C71.6976 69.483 71.6563 69.7607 71.5409 70.0107C71.4255 70.2606 71.2409 70.4722 71.0089 70.6204C70.4138 71.0999 69.746 71.4814 69.0307 71.7504C66.8323 72.5941 66.3862 74.5313 65.9358 76.4671C65.478 78.434 65.1612 80.4382 64.5766 82.3669C64.4293 82.6992 64.2088 82.994 63.9314 83.229C63.6541 83.4641 63.3272 83.6333 62.9751 83.724C58.7903 84.3813 54.5856 84.8958 51.1004 85.3609C48.1388 85.0335 45.8799 85.0477 43.7929 84.4726C42.0079 83.9807 39.8209 83.7665 38.8937 81.7213C38.5079 80.7908 38.2438 79.8143 38.1079 78.8162C37.8326 77.157 37.9392 75.3729 37.3706 73.8397C37.1505 73.155 36.7444 72.545 36.1977 72.0777C35.6509 71.6104 34.9851 71.3042 34.2745 71.1933C32.6441 70.9659 32.0265 70.3545 32.3104 69.2489C32.3988 68.9944 32.5457 68.7642 32.7393 68.5768C32.9329 68.3894 33.1678 68.2501 33.425 68.17C34.0936 68.1475 34.7564 68.3003 35.3477 68.6133C35.7312 68.7854 35.9907 69.2321 36.2964 69.5644C36.7014 70.0047 37.1153 70.4386 37.4939 70.9012C39.293 73.0994 41.0589 75.2268 44.3507 75.2262C47.1767 75.2256 49.9948 75.6634 52.8211 75.6685C54.9344 75.5856 57.0417 75.389 59.1339 75.0796C59.8788 75.0115 60.6184 74.8939 61.3477 74.7274C64.214 74.0251 65.5118 71.5119 67.2044 69.4914H67.2044ZM49.1861 74.2035C48.1931 74.2967 47.1928 74.2754 46.2047 74.14C45.9216 74.0167 45.6722 73.8274 45.4774 73.5879C45.2826 73.3484 45.148 73.0657 45.085 72.7634C44.8277 70.6702 44.7322 68.5524 44.6497 66.4397C44.6427 66.2582 45.1596 65.905 45.4532 65.8758C46.2582 65.7628 47.0755 65.767 47.8794 65.8882C48.313 65.9739 48.9355 66.4665 48.9793 66.8416C49.1122 67.9824 48.976 69.1564 48.9993 70.3154C49.0235 71.5172 49.1116 72.7166 49.1861 74.2035ZM50.1583 66.7615C50.153 66.4932 50.6632 65.9893 50.9589 65.9644C52.132 65.8597 53.3119 65.8553 54.4857 65.951C54.6831 66.0227 54.8585 66.1443 54.9949 66.304C55.1314 66.4636 55.2242 66.6558 55.2643 66.862C55.2882 69.0754 55.2417 71.2901 55.1247 73.506C55.0799 73.7138 54.9839 73.9073 54.8456 74.0688C54.7073 74.2303 54.5309 74.3548 54.3324 74.4311C53.0997 74.536 51.8558 74.4753 50.4716 74.4753C50.3487 71.7791 50.2081 69.272 50.1583 66.7615V66.7615ZM60.5818 70.8699C60.5394 71.1337 60.4412 71.3893 60.3944 71.6528C60.0148 73.7936 59.4409 74.2887 57.3586 74.158C57.2207 74.1262 57.0932 74.0596 56.9884 73.9646C56.8836 73.8695 56.805 73.7491 56.76 73.615C56.6407 71.3053 56.5686 68.9923 56.504 66.6792C56.483 65.9224 56.8755 65.6896 57.6296 65.7377C58.7673 65.8102 59.9151 65.7566 61.3861 65.7566C61.1065 67.5407 60.8487 69.206 60.5818 70.8699ZM62.8058 65.6175C63.7265 65.6753 64.3767 65.716 65.2716 65.7721C64.7369 67.2525 62.7651 72.6532 61.5677 73.3706C61.4307 73.3263 61.2938 73.2821 61.157 73.2378C61.7014 70.7211 62.2461 68.2044 62.8058 65.6175H62.8058ZM67.1918 64.3389C58.0254 64.4693 40.6043 63.7123 41.107 63.7063C42.9417 63.6843 44.7758 63.7387 46.6106 63.7414C51.4103 63.7484 56.2101 63.7483 61.01 63.7412C62.7981 63.7392 64.5867 63.7115 66.3748 63.7122C66.659 63.7343 66.9409 63.7798 67.2176 63.8483L67.1918 64.3389ZM65.7301 62.0953C65.4534 62.389 64.9244 62.4454 64.2088 62.7349C64.4473 61.0345 64.599 59.323 64.6633 57.6071C64.6259 54.928 66.0588 54.064 68.4752 53.7472C70.6445 53.3556 72.7908 52.8463 74.9048 52.2215C71.801 55.574 68.7851 58.8531 65.7301 62.0953H65.7301ZM76.2659 50.2482C73.7556 51.8925 72.7846 51.4842 71.836 48.7861C71.0827 46.6434 72.8238 45.8248 73.7916 44.5971C74.3483 44.0539 74.9622 43.5726 75.6225 43.1616C76.039 45.3872 76.4467 47.4712 76.7915 49.5664C76.8234 49.76 76.4996 50.0951 76.2659 50.2482ZM78.303 48.7826C78.1646 48.7433 78.0262 48.7041 77.8878 48.6648C77.4938 46.6286 77.0997 44.5925 76.6713 42.3786C78.4413 41.9135 80.1915 41.4535 81.9877 40.9814C82.6347 42.3012 82.7774 43.334 81.5772 44.5246C80.3857 45.8641 79.2916 47.2871 78.303 48.7826ZM80.5922 47.5316C81.3756 46.6223 82.1591 45.713 82.9802 44.7598C83.3532 46.5383 83.2051 46.7269 80.5922 47.5317L80.5922 47.5316ZM83.1727 40.7111C83.9824 40.2536 84.7122 39.8413 85.4421 39.4289L85.644 39.6368C85.0497 40.3118 84.4555 40.987 83.7048 41.8398C83.4586 41.3176 83.3189 41.0211 83.1728 40.7111L83.1727 40.7111ZM84.8045 45.2665C83.6023 43.7472 87.0976 40.5831 87.1537 40.5614C87.5625 41.1726 87.9713 41.7837 88.5085 42.5868C87.2534 43.4949 86.0265 44.3825 84.8046 45.2665L84.8045 45.2665ZM93.7384 37.4356C93.0254 38.0619 92.3971 38.784 91.7094 39.4409C91.1285 39.9959 90.5159 40.5177 89.9408 41.0329C88.1223 40.2839 87.5578 38.6869 87.0593 37.1302C86.149 34.2879 86.5232 31.3682 86.9705 28.4709C87.1536 27.8479 87.393 27.2429 87.6858 26.6633C89.97 28.5841 92.0486 30.3194 94.1021 32.0838C94.2565 32.2163 94.4526 36.8084 93.7385 37.4357L93.7384 37.4356Z" fill="#ED6B6A"/>
<path d="M59.566 77.6501C59.5879 78.1169 60.5111 78.9813 60.7457 78.8919C61.4615 78.6381 62.0562 78.1252 62.4124 77.4545C62.5472 77.1186 61.7245 76.4127 61.5197 76.1303C59.9026 76.0321 59.5305 76.8948 59.566 77.6501Z" fill="#ED6B6A"/>
<path d="M55.1937 77.6501C55.2155 78.1169 56.1388 78.9813 56.3734 78.8919C57.0892 78.6381 57.6838 78.1252 58.0401 77.4545C58.1749 77.1186 57.3522 76.4127 57.1473 76.1303C55.5303 76.0321 55.1582 76.8948 55.1937 77.6501Z" fill="#ED6B6A"/>
<path d="M50.8211 77.6501C50.843 78.1169 51.7662 78.9813 52.0008 78.8919C52.7166 78.6381 53.3113 78.1252 53.6675 77.4545C53.8023 77.1186 52.9796 76.4127 52.7748 76.1303C51.1577 76.0321 50.7856 76.8948 50.8211 77.6501Z" fill="#ED6B6A"/>
<path d="M40.9832 77.6501C41.0051 78.1169 41.9283 78.9813 42.1629 78.8919C42.8787 78.6381 43.4734 78.1252 43.8297 77.4545C43.9644 77.1186 43.1417 76.4127 42.9369 76.1303C41.3198 76.0321 40.9477 76.8948 40.9832 77.6501Z" fill="#ED6B6A"/>
<path d="M45.3555 77.6501C45.3774 78.1169 46.3007 78.9813 46.5352 78.8919C47.251 78.6381 47.8457 78.1252 48.202 77.4545C48.3367 77.1186 47.514 76.4127 47.3092 76.1303C45.6921 76.0321 45.32 76.8948 45.3555 77.6501Z" fill="#ED6B6A"/>
</svg>
