<svg width="100" height="100" viewBox="0 0 100 100" fill="none" xmlns="http://www.w3.org/2000/svg">
<path d="M80.3794 52.633C80.3316 53.0108 80.4053 53.3939 80.5898 53.727C80.7743 54.0601 81.06 54.3258 81.4056 54.4857C82.2063 54.927 82.8479 55.6092 83.2393 56.4354C83.6308 57.2617 83.7523 58.1902 83.5867 59.0894C83.5536 59.5414 83.4929 59.991 83.4047 60.4356C83.331 60.6733 83.2052 60.8916 83.0364 61.0745C82.8857 61.2572 82.6618 61.3778 82.4997 61.5531C81.9573 62.1017 81.305 62.5294 80.5856 62.8081C79.8662 63.0867 79.096 63.2101 78.3256 63.17C77.5551 63.1299 76.8019 62.9274 76.1153 62.5756C75.4287 62.2238 74.8243 61.7307 74.3417 61.1288C73.8995 60.6065 73.6117 59.9712 73.5106 59.2943C73.4095 58.6174 73.4991 57.9257 73.7695 57.297C73.9965 56.7472 74.0707 56.1315 74.3192 55.5943C74.5562 55.1003 74.9197 54.6778 75.3728 54.3698C75.8259 54.0617 76.3524 53.8791 76.899 53.8404C77.8281 53.7146 78.2126 53.291 78.1051 52.3362C77.9682 51.1205 77.9132 49.8956 77.8229 48.6747L77.4504 48.4959C76.6994 49.1438 75.9256 49.7676 75.2042 50.447C74.5797 51.0225 73.9955 51.6402 73.4556 52.2958C72.0792 54.0061 70.7207 55.7323 69.4011 57.4867C67.785 59.6352 68.4213 62.0623 68.5071 64.4157L68.9485 64.7527C69.0229 64.5214 69.0358 64.1494 69.1832 64.0848C69.6428 63.8708 70.1361 63.7381 70.641 63.6928C71.1522 63.6622 71.2576 64.0524 71.013 64.4413C70.3448 65.5034 69.5848 66.5119 68.975 67.6051C68.697 68.1539 68.549 68.7593 68.5424 69.3744C68.514 70.2351 68.0743 70.6898 67.2695 70.6093C64.8744 70.3698 62.4775 70.05 60.076 69.9955C56.8797 69.9229 53.6754 70.0035 50.4801 70.1444C47.7368 70.2654 45.0003 70.5522 42.2627 70.7877C40.6695 70.9247 39.0795 71.0996 37.4891 71.2684C36.8619 71.3349 36.4799 71.1138 36.4818 70.4459C36.5392 69.8794 36.5546 69.3093 36.528 68.7405C36.3914 67.8285 36.1311 66.935 35.9204 66.0343C35.8241 65.6222 35.7218 65.2114 35.6222 64.8001C36.0136 64.7926 36.405 64.7774 36.7963 64.7811C36.9734 64.7827 37.1501 64.8217 37.4445 64.8583C37.371 60.1452 36.5435 55.4742 34.9933 51.0227C33.4705 52.8694 33.1659 55.1081 32.464 57.1825C33.4094 57.525 34.3196 57.9582 35.1816 58.476C35.4503 58.6791 35.6738 58.936 35.8377 59.2303C36.0016 59.5246 36.1024 59.8498 36.1336 60.1852C36.0493 63.111 34.732 65.492 31.3108 65.5725C30.6553 65.6098 30.0019 65.4707 29.4185 65.1698C28.835 64.8689 28.3428 64.4171 27.9931 63.8615C27.6144 63.2509 27.4192 62.5442 27.4307 61.8257C27.4422 61.1073 27.6599 60.4072 28.0579 59.8089C28.4835 59.1535 29.0342 58.5885 29.6786 58.1464C29.8715 58.0374 30.0268 57.8726 30.124 57.6735C30.2213 57.4745 30.2559 57.2507 30.2233 57.0316C30.0185 55.1392 29.84 53.2441 29.6407 51.3511C29.4942 49.7507 29.8084 48.1418 30.5463 46.7141C30.8848 46.0189 31.3817 45.4008 31.7183 44.7049C31.7815 44.5538 31.8106 44.3906 31.8036 44.2269C31.7965 44.0632 31.7534 43.9031 31.6773 43.758C31.2837 43.1492 30.8041 42.6005 30.2533 42.129C27.6016 40.0215 24.5057 38.544 21.1994 37.808C20.0162 37.4813 18.7654 37.4904 17.5871 37.8345C16.4089 38.1786 15.3497 38.844 14.5284 39.7562C13.5398 40.8064 12.7325 42.0134 12.1392 43.328C11.1593 45.4142 10.5046 47.6382 10.1977 49.9225C10.1935 50.053 10.2006 50.1835 10.2191 50.3126C10.5894 50.3628 12.8568 52.6806 13.7406 53.4382C15.2614 54.7418 14.8144 57.5506 13.8092 58.4896C12.6898 59.5212 11.2803 60.1838 9.77173 60.3874C7.30988 60.752 5.77939 59.5506 4.59873 57.6805C4.32493 57.2841 4.13595 56.8354 4.04362 56.3626C3.95129 55.8897 3.9576 55.4029 4.06216 54.9326C4.16671 54.4622 4.36726 54.0186 4.65124 53.6294C4.93522 53.2402 5.29651 52.9138 5.71249 52.6708C7.63477 51.6697 7.51848 50.1479 7.52441 48.544C7.53597 45.3978 7.56151 42.2289 8.76523 39.2828C10.2277 35.7036 12.4892 32.8364 16.4035 31.5732C18.2451 30.9789 19.9513 29.9688 21.7884 29.3554C23.0197 28.9721 24.3006 28.771 25.5902 28.7586C28.4491 28.5222 31.3273 28.7835 34.097 29.5308C36.8 30.4253 39.5815 31.1235 41.9966 32.8276C44.1992 34.5115 46.2358 36.4022 48.0784 38.4738C48.5359 38.857 48.9666 39.271 49.3676 39.713C49.5943 40.1005 49.7657 40.5179 49.8768 40.9529C50.783 40.0569 51.7367 39.2103 52.7338 38.4167C54.6906 37.0029 56.7148 35.6792 58.7504 34.3797C59.4122 34.0233 60.1052 33.7278 60.8206 33.497C62.5269 32.8092 64.2094 32.0485 65.9518 31.4684C67.5082 30.9105 69.1169 30.5107 70.7534 30.275C71.9607 30.1822 73.1746 30.3166 74.3324 30.6711C75.7649 30.9783 77.1361 31.5225 78.3894 32.2813C79.1361 32.7705 79.7753 33.4067 80.2681 34.151C80.7609 34.8954 81.0969 35.7323 81.2557 36.6107C81.4779 37.9523 81.4617 37.9342 82.8012 37.7505C83.4115 37.6238 84.0419 37.6287 84.6502 37.765C85.2584 37.9012 85.8307 38.1656 86.3286 38.5405C87.4928 39.5295 88.5558 40.6316 89.5023 41.8306C91.888 44.858 92.7917 48.5277 93.63 52.1787C93.8801 53.6398 94.0018 55.12 93.9937 56.6023C93.9693 57.077 94.039 57.5518 94.199 57.9993C94.359 58.4468 94.606 58.8582 94.9258 59.2098C95.3728 59.7092 95.6971 60.3061 95.8728 60.9529C96.0486 61.5996 96.0711 62.2785 95.9384 62.9355C95.9007 63.2047 95.8369 63.4722 95.8232 63.7425C95.7206 65.7662 91.5622 67.5024 91.2258 67.3681C90.4713 67.067 87.417 65.8672 87.2157 65.2531C86.7175 63.684 86.8081 61.9871 87.4706 60.48C87.6017 60.2191 87.8068 60.0027 88.0602 59.8579C88.779 59.4128 89.5445 59.0413 90.2498 58.5773C90.4916 58.4183 90.7829 58.0496 90.7541 57.8129C90.6765 56.6771 90.471 55.5537 90.1414 54.4639C89.4347 52.385 88.568 50.364 87.549 48.419C86.5953 46.6963 85.4582 45.9879 83.5307 46.5147C83.2555 46.5899 80.5755 50.9401 80.3794 52.633ZM71.5728 51.3329C71.39 51.5966 71.2256 51.8726 71.0808 52.1589C71.0227 52.3661 70.994 52.5803 70.9955 52.7955C71.2066 52.7671 71.4929 52.8149 71.6138 52.6953C71.9157 52.4028 72.1683 52.0635 72.3619 51.6903C72.562 51.2897 72.4563 50.9729 71.9067 51.0182L71.9807 49.8217L72.1826 49.7039L73.045 50.6858C74.2387 50.4124 73.4733 49.4409 73.6275 48.6671L74.3572 49.1635L76.1667 46.8703L77.6032 47.0671C77.6447 46.9255 77.6672 46.7791 77.6702 46.6316C77.3074 44.6151 76.9697 42.5932 76.5536 40.5876C76.3152 39.4381 74.8612 38.7059 74.1568 39.3291C71.9698 41.2638 70.8799 43.8623 70.0199 46.5438C69.6674 47.8872 69.4169 49.2554 69.2705 50.6366C69.0614 51.9493 68.8803 53.267 68.717 54.5862C68.6882 55.0132 68.6854 55.4415 68.7088 55.8689C69.4111 55.0481 70.3823 54.4977 70.6584 53.1811L69.5966 53.6871L69.7103 52.1677C70.4115 51.8533 70.9921 51.5931 71.5728 51.3328V51.3329ZM25.7179 37.5153C26.1139 37.6409 26.4595 37.7384 26.6292 37.1609C26.6875 36.9624 27.0269 36.8465 27.4173 36.5622C27.0144 38.4186 27.1295 38.6011 28.8418 39.2919L30.2648 37.983L30.5196 38.2363L29.3561 39.8721L30.5074 40.6486L30.6229 40.3832C30.925 40.4068 31.2208 40.4817 31.4977 40.6049C31.9527 40.9406 32.3848 41.3065 32.791 41.6999C32.9503 41.8477 33.0953 42.0101 33.224 42.1852C33.38 42.3909 33.4674 42.7192 33.6674 42.8084C34.427 43.1469 34.4023 43.5749 33.9528 44.1528C33.9108 44.2264 33.8841 44.3077 33.8744 44.3919C33.8647 44.476 33.8721 44.5613 33.8962 44.6425C33.9837 45.094 34.2219 45.5025 34.5717 45.801C34.9215 46.0995 35.3624 46.2704 35.822 46.2857C35.8511 46.288 35.8734 46.3811 35.9224 46.4786L35.2067 47.0843L36.031 48.886L36.4426 48.1665L37.3775 48.9496C36.4283 49.7481 37.5984 50.7014 37.2463 51.7322L36.7186 50.7617L36.9645 52.5914L38.8598 52.7115L38.8888 53.0086L37.1742 53.7369L37.8913 56.821L38.1167 56.78L38.2456 55.4756L38.4429 55.4793C38.6576 56.0637 38.8722 56.6481 39.1099 57.2952C38.4184 58.3397 39.3935 59.4203 39.1453 60.576L38.582 59.2667L38.4479 59.3029L38.7299 61.8454H40.4831L40.5211 62.1185C40.2267 62.2281 39.938 62.3579 39.6368 62.4435C38.6286 62.7298 38.5071 62.9738 38.8802 63.9262C39.0424 64.2138 39.1224 64.5404 39.1114 64.8704C38.9572 65.4832 39.2893 65.6796 39.7263 65.8893C39.9961 66.0244 40.2529 66.1841 40.4933 66.3665C41.3153 66.971 41.6983 66.8848 42.0934 65.928C42.2152 65.6328 42.1261 65.2407 42.273 64.968C42.4526 64.6346 42.7483 64.1955 43.0505 64.1456C43.3281 64.0997 43.7596 64.4472 43.9855 64.7311C44.5902 65.4911 45.121 66.31 45.6955 67.1258C46.4968 66.4242 46.9933 65.8979 46.8563 64.7765C46.7936 63.3064 46.8513 61.8337 47.0287 60.373C47.0826 59.1694 47.0675 57.9615 47.1549 56.7608C47.3739 53.7506 47.6174 50.7423 47.8854 47.7359C47.995 46.5072 48.2651 45.2902 48.3307 44.061C48.445 43.0783 48.3747 42.0829 48.1235 41.126C47.781 40.1315 46.9947 39.3465 45.8296 39.9627L44.8157 38.1618L45.0496 38.0049L46.0346 38.8941L46.206 38.6984L44.3375 36.6956L42.9061 37.437L42.724 37.1686C42.9823 36.9005 43.2178 36.6113 43.428 36.3041C43.6373 35.9433 42.6248 34.5958 41.9797 34.4525C41.7913 34.4107 41.5257 34.7172 41.2955 34.864C40.549 35.265 40.0014 34.828 40.04 34.0961C40.0919 33.1144 40.7922 34.331 41.2272 33.7545L38.4072 31.923C38.0807 33.2485 37.537 33.3769 36.6696 32.7244C36.2242 32.4714 35.7497 32.2735 35.2565 32.1352C34.859 31.9712 34.4661 31.7959 34.0711 31.6256L34.2659 31.129C34.7077 31.2539 35.1415 31.4057 35.5649 31.5835C36.1469 31.8657 36.6962 32.2154 37.2595 32.5362L37.511 32.3405C37.3859 32.1072 37.3128 31.7308 37.1275 31.6636C35.7727 31.1722 34.3863 30.7686 33.0291 30.2836C32.3057 30.025 32.0446 30.2343 32.2328 31.124L31.9242 31.1006L31.2175 30.1012C30.8019 30.5573 29.6711 29.4447 29.2707 30.6414L30.1916 31.3222C28.8659 31.1759 27.8039 31.0586 26.7418 30.9414L26.7462 30.6562L28.5451 30.3773L28.5073 30.007C27.9289 29.9185 27.342 29.8993 26.759 29.9498C26.2118 30.1308 25.6895 30.3799 25.2046 30.6914L24.988 29.9993C23.3037 29.9052 22.1913 30.4072 22.2611 31.2515C22.9976 31.2859 23.74 31.3207 24.4823 31.3554C23.8294 31.5471 23.17 31.6103 22.5309 31.7603C22.2474 31.8269 21.9267 32.2655 21.7567 32.1981C20.7634 31.8041 20.103 32.4861 19.3199 32.8075C19.0253 32.9284 18.4429 33.0075 18.3597 32.8748C17.8919 32.1296 17.3193 32.3681 16.8121 32.6715C16.3343 33.0088 15.8856 33.3852 15.4703 33.797C15.3499 33.7198 15.0226 33.3987 14.9163 33.4601C14.2613 33.8387 13.6563 34.3035 13.0346 34.7396L13.2006 35.1136C14.2015 34.7868 15.2024 34.46 16.2034 34.1331L16.2258 34.2771C14.9777 34.9899 13.7297 35.7028 12.4026 36.4608L12.6355 35.4258C10.3258 36.46 8.45483 42.2144 8.74458 45.5398C9.8079 45.9059 10.0022 45.8414 10.2862 44.8094C10.3076 44.4656 10.2543 44.1212 10.1299 43.8C10.0373 43.3696 9.76286 42.8985 10.5182 42.7751C10.7088 42.7462 10.8912 42.6772 11.0532 42.5726C11.2151 42.4679 11.353 42.33 11.4577 42.1681C11.5623 42.0061 11.6314 41.8238 11.6602 41.6331C11.6891 41.4425 11.6771 41.2479 11.6251 41.0622C11.5805 40.788 11.5565 40.5109 11.5532 40.2331L12.4814 40.402C12.7061 40.0647 12.9573 39.7459 13.2326 39.4485C13.7246 38.9838 14.2749 38.5875 13.7809 37.7946C13.7234 37.7023 13.8642 37.4866 13.9131 37.328C14.0957 37.3609 14.2723 37.421 14.4371 37.5061C14.5653 37.5976 14.628 37.7807 14.7794 38.0166L17.2902 35.9442C18.5879 36.661 19.6843 36.4491 20.4899 34.8754C20.6186 35.2595 20.5821 35.5293 20.6702 35.7492C20.7664 35.9889 20.9351 36.2989 21.1464 36.3768C22.4197 36.8461 23.7102 37.271 25.0063 37.674C25.2011 37.7345 25.4559 37.6019 25.6829 37.5586L25.7179 37.5153ZM56.2897 64.8878C56.3584 64.5327 56.408 64.3322 56.4348 64.1286C56.7343 61.8573 56.9551 59.5721 57.3526 57.3181C57.6389 55.6949 58.1698 54.1155 58.5709 52.5114C58.6926 51.7111 58.8726 50.9206 59.1093 50.1464C59.861 48.3395 60.6588 46.5446 61.5649 44.8111C62.4786 42.7085 63.8758 40.8514 65.6427 39.3907C66.6831 38.6337 67.4852 37.534 68.5571 36.8396C69.5525 36.0501 70.7484 35.5538 72.0103 35.4065C73.9317 35.4632 75.9862 35.8901 77.2419 37.6491C77.9683 38.7465 78.6031 39.9019 79.1396 41.1036C79.3942 41.7282 79.6022 42.3707 79.7622 43.026L79.9853 43.0027C79.9853 41.1667 79.9961 39.3305 79.9786 37.4947C79.9735 36.958 79.888 36.422 79.8335 35.8207L78.8837 36.2017C79.1986 34.537 78.9942 34.2004 77.9379 34.1976C77.7799 33.8126 77.5778 33.4471 77.3358 33.1085C76.051 31.7519 75.1778 32.7652 74.2571 33.9725V32.7661L75.1827 32.0206C74.4911 31.8212 73.7694 31.7474 73.0517 31.8026C72.5297 31.9715 72.1575 32.6036 71.556 33.1921L71.8012 31.6851C71.2276 31.5847 70.6474 31.5254 70.0653 31.5078C69.5398 31.5247 69.0425 31.7198 69.0604 32.4193C69.0729 32.9066 69.0628 33.3945 69.0628 34.2593C68.1035 32.7279 67.4236 34.0176 66.6096 34.0515C66.505 32.7641 68.5506 33.4522 68.3653 32.0471C67.6548 32.1409 66.9638 32.3471 66.3181 32.658C65.8512 33.1324 65.4725 33.6861 65.1997 34.2932L65.0142 34.2292V32.9285C64.3058 33.2015 63.6115 33.5101 62.9342 33.8531C62.8266 33.9517 62.7403 34.0712 62.6805 34.2043C62.6208 34.3374 62.5888 34.4813 62.5867 34.6272C62.5787 34.7267 62.9696 34.8581 63.3388 35.0645L60.195 36.6072L59.9904 36.2917C60.4347 36.0295 60.864 35.7425 61.2763 35.4323C61.4913 35.2012 61.6745 34.9423 61.8208 34.6627C61.5599 34.6092 61.292 34.5989 61.0278 34.6321C59.5199 35.0968 59.5236 35.1088 58.9485 36.5049L58.4956 35.6825C56.804 36.3643 56.495 36.9343 57.1629 38.0671C57.0619 38.1315 56.9613 38.1978 56.8587 38.2606C55.4816 39.1038 53.9733 39.7864 53.189 41.3476C53.1389 41.4474 52.7518 41.4877 52.6058 41.4056C52.3187 41.2023 52.0538 40.9692 51.8156 40.7102L50.4975 42.4544L51.7637 43.5198C51.5562 43.7832 51.3794 44.0693 51.2367 44.3727C51.0824 44.8557 51.0091 45.3647 50.9019 45.8627L49.436 45.4352C48.924 46.8154 48.9378 46.8522 50.0573 47.4071C50.3235 47.5391 50.582 47.6867 50.911 47.8629C50.7133 47.9919 50.6675 48.041 50.6139 48.0522C50.5265 48.0743 50.4356 48.0783 50.3467 48.064C49.0179 47.7729 49.0183 47.7717 48.8294 49.1416C48.7888 49.4365 48.7469 49.7311 48.7093 49.9986L50.3884 50.9764L50.3308 51.1609L48.5783 51.0505V52.6834L48.8238 51.614C49.014 52.1601 48.9178 52.721 49.1022 53.1655C49.2661 53.5608 49.741 53.8271 50.1974 54.2639L48.4845 54.1555C47.8019 55.4222 49.0484 55.3794 49.5452 55.8459C48.9949 56.1656 48.1878 55.8651 48.1236 56.802C48.0361 58.0796 47.9971 58.0769 49.6504 58.9634C49.148 59.1084 48.8445 59.1698 48.5636 59.2858C48.3616 59.3692 48.078 59.4919 48.0288 59.6563C47.9786 59.8915 47.9703 60.1336 48.0043 60.3717C48.7492 60.6119 49.3867 60.8177 50.1159 61.0529C49.6037 61.409 49.0073 61.695 49.0395 61.8238C49.2386 62.3845 49.498 62.9219 49.8132 63.4266C49.4549 64.0997 50.186 66.0703 51.9238 66.9623C52.6608 66.0116 53.434 65.0595 54.1543 64.0689C54.6242 63.4226 55.3971 63.2965 55.8103 63.8894C55.9936 64.2104 56.1538 64.5441 56.2897 64.8878ZM66.1337 66.5592C66.5251 66.4819 66.8711 66.2552 67.0982 65.9272C67.3252 65.5992 67.4156 65.1956 67.3502 64.802C67.2701 59.9074 67.6159 55.0152 68.3838 50.1805C68.66 47.2586 69.5346 44.4247 70.9532 41.8553C71.7373 40.5572 72.2888 38.9697 73.8703 38.3046C74.3835 38.1239 74.9069 37.9735 75.4378 37.8542C74.7707 37.3551 73.9891 37.0315 73.1644 36.9131C72.3398 36.7947 71.4987 36.8853 70.7182 37.1766V38.0833L69.5825 37.553C69.4488 37.8918 69.3454 38.1377 69.2545 38.3883C69.1685 38.6254 69.0956 38.8673 69.0087 39.1321C67.8476 38.4336 67.6055 38.5307 67.3912 39.6779C66.8596 39.8061 66.3888 40.1145 66.0588 40.5506C65.7289 40.9868 65.5602 41.5237 65.5814 42.0702C65.1699 42.1325 64.6243 42.0547 64.3614 42.2912C64.2331 42.3742 64.1244 42.4841 64.0429 42.6134C63.9614 42.7426 63.9091 42.8881 63.8895 43.0396C63.8699 43.1911 63.8836 43.3451 63.9296 43.4908C63.9755 43.6366 64.0527 43.7705 64.1557 43.8834C64.4541 44.2482 63.6098 46.2544 63.1546 46.4143C63.076 46.4419 62.9497 46.4636 62.8992 46.4223C62.0706 45.7446 62.0508 46.5013 61.7717 46.9896C61.5928 47.2661 61.5189 47.5975 61.5634 47.9237C61.6079 48.25 61.7678 48.5495 62.0142 48.768C60.7924 48.6117 60.5708 48.8871 60.4363 50.6615L61.1998 49.7723L60.949 51.7826C59.7381 52.167 60.5757 53.4182 60.3954 53.9569C59.7964 54.2469 59.2519 54.3313 59.1103 54.6161C58.8568 55.2501 58.6669 55.9077 58.5432 56.5792L60.3096 57.5569C58.8355 58.1398 58.6039 59.1772 59.5891 60.0373C59.301 60.2027 59.0586 60.4373 58.8841 60.72C58.7095 61.0027 58.6082 61.3245 58.5894 61.6562C58.5706 61.9879 58.6348 62.319 58.7762 62.6196C58.9177 62.9203 59.1319 63.1808 59.3995 63.3778C59.1524 63.4592 58.8897 63.4819 58.6323 63.4439C57.8311 63.2905 57.5107 63.5953 57.5599 64.4087C57.6039 65.135 57.5692 65.866 57.5692 66.5949L57.7624 66.764C58.5088 65.9599 59.2257 65.125 60.0174 64.3682C60.3372 64.1042 60.7298 63.9437 61.143 63.9081C61.2482 63.8956 61.4444 64.4438 61.5577 64.7498C61.7434 65.2513 61.8954 65.7652 62.1141 66.4347C62.4639 66.1649 62.7968 65.8741 63.1112 65.5637C63.9813 64.5567 64.7788 64.5278 65.6157 65.5454C65.8233 65.8643 65.9969 66.2041 66.1337 66.5592H66.1337ZM91.1921 51.0746L91.5295 51.0102C91.6597 51.4994 91.7467 51.9992 91.7896 52.5036C91.7043 53.3275 91.6639 54.1555 91.6687 54.9838C91.8368 55.8962 92.0726 56.7949 92.3742 57.6723L92.8508 57.5994C92.9413 56.556 92.9298 55.5063 92.8165 54.4652C92.3576 52.195 91.7658 49.9475 91.1336 47.7176C90.3405 44.9823 88.8651 42.4934 86.8461 40.4848C85.5136 39.1258 84.0372 38.3376 82.0756 39.2662C81.1474 39.7056 80.9749 39.9451 81.0496 41.0442C81.1085 41.9119 81.0157 42.7893 81.0036 43.6626C80.9932 44.4207 81.0014 45.179 81.0014 45.961C82.5266 45.7814 82.5044 45.7767 82.7572 44.5817C82.811 44.3274 83.0804 43.9323 83.2669 43.9227C84.4454 43.8622 85.6285 43.8921 86.8022 43.8921C86.9494 45.9565 86.9494 45.9565 87.8016 46.5837L88.0822 45.7152L88.8558 47.2666L90.3759 46.6651C89.4455 47.9558 89.4455 47.9558 89.7882 49.0684H89.3282L89.7582 49.8401C90.2973 49.7098 90.7781 49.5936 91.2588 49.4774L91.3862 49.7814L90.2254 50.8003L90.9733 52.8487L91.1922 52.7911L91.1921 51.0746ZM33.7303 50.452C33.8368 49.9161 33.7757 49.2922 34.0473 49.0635C34.5156 48.6692 34.3803 48.3392 34.2249 47.9572C33.9987 47.3719 33.7347 46.8018 33.4346 46.2506C33.2887 45.9682 33.0418 45.7512 32.7431 45.6426C32.5806 45.6076 32.273 45.955 32.1255 46.1901C31.0714 47.7997 30.6257 49.7323 30.8684 51.6409C30.9618 52.3843 30.9599 53.1395 31.0465 53.8841C31.1268 54.574 31.2673 55.2569 31.3812 55.9429L31.6195 55.9301C31.8862 54.9742 32.8073 54.1293 31.9883 52.9479C32.924 52.3498 33.6026 51.6472 32.6939 50.5021C32.6829 50.4881 32.9459 50.1569 33.0999 50.1393C33.2623 50.1207 33.4474 50.3011 33.7303 50.452ZM78.4808 55.3909L78.2811 55.4103C78.2811 56.6727 78.218 57.9396 78.3057 59.1959C78.394 59.9146 78.582 60.6174 78.8643 61.2841C78.9378 61.3912 79.0373 61.4778 79.1535 61.5357C79.2697 61.5936 79.3988 61.621 79.5285 61.6151C79.6461 61.5639 79.7496 61.4852 79.8305 61.3857C79.9114 61.2861 79.9673 61.1687 79.9935 61.0431C80.1126 60.5435 80.1199 60.0236 80.0148 59.5208C79.5636 58.1248 79.0004 56.7649 78.4808 55.3909ZM80.4251 55.3659C80.576 56.8125 80.6891 58.2648 80.9051 59.7015C80.9574 60.0494 81.3498 60.3461 81.6357 60.734C82.7531 58.8269 81.9813 55.8315 80.4251 55.3659V55.3659ZM77.4711 61.3449C77.9935 59.2149 76.2667 57.5918 76.6409 55.6072C75.8087 55.6435 75.5071 55.8163 75.6721 56.5559C75.8844 57.4445 75.9965 58.3541 76.0062 59.2676C75.9669 59.7309 76.0922 60.1932 76.3601 60.5732C76.6281 60.9532 77.0215 61.2264 77.4711 61.3449L77.4711 61.3449ZM9.46877 53.349L9.71585 53.2919C9.6328 53.0151 9.53005 52.7445 9.40841 52.4823C9.2732 52.447 9.12969 52.4632 9.00581 52.5279C8.93267 52.7992 8.89535 53.079 8.8948 53.36C8.89161 54.1104 8.92228 54.8609 8.92188 55.6114C8.92145 56.3938 8.84999 57.1804 8.91479 57.9565C8.93864 58.2421 9.26292 58.5027 9.45016 58.7747C9.64725 58.5517 9.97984 58.3477 10.0143 58.1019C10.0965 57.514 10.0979 56.9175 10.0186 56.3292C9.88135 55.3295 9.65672 54.3417 9.46877 53.349ZM32.3851 58.6923L32.1222 58.7187C32.1222 60.093 32.0975 61.468 32.1418 62.8407C32.1513 63.134 32.4108 63.4192 32.6093 63.8166C34.1706 61.8509 32.4473 60.3411 32.3851 58.6923V58.6923ZM91.7881 65.9435C91.2746 64.577 90.7937 63.2973 90.3129 62.0176C90.1125 62.7283 90.0069 63.4624 89.9988 64.2008C89.962 65.7335 89.975 65.7338 91.7881 65.9435L91.7881 65.9435ZM11.5277 57.7375C12.3679 56.5395 12.148 53.4684 11.3393 52.9921C11.2415 54.242 11.1109 55.5124 11.0661 56.7858C11.0559 57.0751 11.3429 57.3748 11.5276 57.7375L11.5277 57.7375ZM92.1608 61.0168L92.0008 61.0244C92.1179 62.202 92.223 63.3811 92.361 64.5563C92.4096 64.836 92.5074 65.1049 92.65 65.3504C92.6666 65.3825 93.0612 65.316 93.1018 65.2197C93.2563 64.9467 93.3225 64.6325 93.2915 64.3203C92.9571 63.2064 92.5447 62.1159 92.1607 61.0169L92.1608 61.0168ZM8.99135 46.4014L8.62429 46.5469V50.8646C9.02062 49.6825 9.32838 48.4725 9.545 47.2447C9.58612 47.0018 9.1873 46.6844 8.99135 46.4014ZM30.4943 60.7064C30.2074 61.7255 29.9003 62.5317 30.4159 63.3378C30.5506 63.5485 30.8457 63.6566 31.0672 63.8118C31.1502 63.541 31.3549 63.2382 31.2937 63.0053C31.1061 62.2918 30.8165 61.6053 30.4943 60.7064H30.4943ZM83.3761 45.1374C84.0288 45.0892 84.6843 45.0968 85.3356 45.1601C86.1019 45.2953 86.132 44.9116 86.1094 44.3723C84.4697 44.1593 83.3148 44.5295 83.3761 45.1374H83.3761ZM56.4339 37.3584L56.1243 37.1598C55.6364 37.4795 55.1657 37.8247 54.7142 38.194C54.6081 38.2879 54.7143 38.6218 54.7229 38.8454C55.2108 38.6492 55.6816 38.4128 56.1304 38.1386C56.3204 38.0039 56.338 37.626 56.4339 37.3585L56.4339 37.3584ZM8.06733 53.2352L7.64643 53.2569L7.79942 56.0379L8.14157 56.0202C8.17889 55.0887 8.6895 54.1336 8.06733 53.2352ZM62.6862 45.8585L62.9856 45.8473C63.2975 45.4576 63.579 45.0446 63.8279 44.612C63.8919 44.4838 63.6378 44.1966 63.5295 43.9823C63.1914 44.3047 62.8864 44.6603 62.6192 45.0437C62.5071 45.2376 62.6556 45.5822 62.6862 45.8585ZM21.5566 30.879C19.4922 31.2927 18.9184 31.6098 18.9301 32.5281C19.5874 31.5552 20.9165 32.067 21.5566 30.879ZM94.234 61.431L93.9758 61.4449C94.0304 62.4871 94.0851 63.5294 94.1398 64.5717L94.3967 64.5578C94.6346 63.5207 94.5783 62.4378 94.234 61.431ZM8.09 58.7523L7.35977 56.4616C6.72823 58.0252 6.882 58.5245 8.09 58.7523ZM57.8894 60.0082C57.7954 60.9622 57.7175 61.754 57.6395 62.5458C57.8429 62.4108 58.0137 62.2322 58.1396 62.0231C58.2655 61.8139 58.3432 61.5793 58.3671 61.3363C58.391 61.0934 58.3606 60.8481 58.278 60.6184C58.1954 60.3887 58.0626 60.1802 57.8894 60.0082H57.8894ZM49.5274 44.5385C50.5055 45.0833 50.8123 44.6335 50.9242 44.0169C50.9552 43.8465 50.6443 43.6139 50.4902 43.4098L49.5274 44.5385ZM77.5123 58.1378C77.7977 57.7361 77.9243 57.243 77.8676 56.7535C77.811 56.264 77.5751 55.8128 77.2054 55.487L77.5123 58.1378ZM52.7533 40.5743C52.9816 40.3278 53.1326 40.1476 53.3019 39.9867C53.4899 39.8411 53.6689 39.6841 53.8377 39.5167C53.9212 39.3886 53.9551 39.2346 53.9331 39.0834C53.9241 39.0067 53.7737 38.897 53.679 38.8881C53.168 38.84 52.4886 39.9632 52.7533 40.5743H52.7533ZM88.2788 62.2399C88.1299 62.7617 88.1387 63.3158 88.304 63.8326C88.4693 64.3494 88.7837 64.8057 89.2077 65.1443C88.8485 64.0212 88.5636 63.1306 88.2788 62.2399ZM80.0215 55.8663C79.3888 56.5116 79.4894 57.2666 80.3127 58.2313L80.0215 55.8663ZM34.1343 61.6276L34.6353 61.6133L34.5302 59.8848L34.1344 59.8987L34.1343 61.6276ZM60.3405 67.5788L60.9451 68.7324C61.4019 68.4915 61.3567 67.601 60.7785 66.9382L60.3405 67.5788ZM55.1895 65.8425C54.5477 65.3264 53.9916 65.6795 53.5105 66.9494L55.1895 65.8425ZM58.0852 59.5397C58.9683 58.9589 59.1283 58.2442 58.5668 57.4779L58.0852 59.5397ZM31.2362 61.1693L31.5489 61.1628C31.6827 60.5932 31.8833 60.0158 31.4207 59.5148L31.1096 59.544L31.2362 61.1693ZM6.24828 54.5958L5.90085 54.6132L5.99841 56.3878L6.24828 56.3666V54.5958ZM55.6517 67.3033L55.395 66.9107L53.8208 68.061L53.9778 68.291L55.6517 67.3033ZM91.3438 61.2103L90.9257 61.3019L91.4698 63.3521L91.7286 63.3012L91.3438 61.2103ZM12.7796 56.1399L12.3959 58.0274C13.2321 57.5538 13.3415 57.0343 12.7796 56.1399ZM59.3611 53.1789L59.6812 53.2526L60.2263 51.5622L59.9003 51.459L59.3611 53.1789ZM89.2929 60.9795L88.8954 61.0133L89.1275 62.9682L89.2929 62.9489V60.9795ZM48.0792 69.1122C47.2363 68.4907 46.9803 68.5344 46.5761 69.3656C47.0967 69.2778 47.5221 69.2061 48.0792 69.1122Z" fill="#ED6B6A"/>
<path d="M25.6828 37.5586C24.6256 37.21 23.5683 36.8614 22.3669 36.4653L24.2692 35.0952L24.4432 35.2247L24.1697 36.1569C24.6956 36.6185 25.2066 37.067 25.7177 37.5154L25.6828 37.5586Z" fill="#ED6B6A"/>
</svg>
