<svg width="100" height="100" viewBox="0 0 100 100" fill="none" xmlns="http://www.w3.org/2000/svg">
<path d="M62.5384 77.3777C62.4602 79.2915 63.0059 81.1788 64.0934 82.7555C65.331 84.8006 66.6433 86.8007 67.8693 88.8525C68.0221 89.2744 68.0997 89.7199 68.0984 90.1686C67.6278 90.3107 67.1353 90.3656 66.645 90.3307C63.8521 89.5862 61.2515 88.251 59.0189 86.4151C56.9044 84.6517 54.5905 83.1288 52.3894 81.4669C51.6767 80.9025 50.9938 80.3013 50.3435 79.6659C49.5911 78.9635 49.0303 79.2049 48.5483 79.9754C46.9287 82.5641 44.8133 82.9236 42.2769 81.0402C40.6949 79.8654 39.7945 80.0902 39.0812 81.9558C37.854 85.1857 37.0443 88.559 36.6717 91.994C36.6579 92.6141 36.5479 93.2283 36.3457 93.8146C36.0733 94.3781 35.6544 94.8578 35.1328 95.2036C35.004 95.288 34.2492 94.6977 34.0103 94.2852C33.0751 92.7807 32.2482 91.2115 31.5359 89.5895C30.3502 86.8275 29.3524 83.9886 28.5493 81.0922C27.8768 78.1266 27.4001 75.1201 27.122 72.0919C26.7255 69.0676 26.5023 66.0231 26.4534 62.9733C26.4545 59.35 26.8504 55.7283 26.9962 52.1028C27.1035 50.4542 27.0586 48.7992 26.8621 47.1588C26.5335 44.9135 25.0571 43.8676 22.6216 43.6582C21.3587 43.5211 20.1038 43.319 18.8618 43.0526C18.6226 43.0067 18.4266 42.7361 18.2106 42.5692C18.4062 42.332 18.5569 42.0165 18.8065 41.8734C19.3636 41.5539 19.97 41.3204 20.6405 41.0134C20.3602 40.703 20.0502 40.4208 19.7149 40.171C16.7025 38.2787 14.3781 35.4683 13.0848 32.1543C12.4621 30.7253 11.702 29.3555 11.0989 27.9192C10.9903 27.4209 10.9682 26.9076 11.0334 26.4018C11.5519 26.342 12.076 26.3511 12.5921 26.4291C15.7851 27.3562 18.9241 28.5022 22.1562 29.2516C24.8887 29.8851 27.7111 30.5509 30.5274 29.4103C32.5066 28.6087 32.9807 27.6021 32.4334 25.227C31.9918 23.3107 31.251 21.4655 30.7097 19.5696C29.9193 16.7772 29.9586 13.8152 30.823 11.0448C31.5547 8.61297 33.8898 7.69293 35.7794 6.41081C37.7955 5.17981 40.1472 4.61284 42.5028 4.78988C46.477 4.75559 50.3751 5.87994 53.7205 8.02548C57.5581 10.5107 59.1421 14.1017 59.0755 18.4897C58.9902 20.6504 58.7705 22.8038 58.4178 24.9372C58.1546 26.8056 59.8489 29.6883 62.0537 30.6751C65.201 32.1607 68.6926 32.7638 72.1558 32.4202C75.8271 32.1797 79.372 30.9847 82.4397 28.9535C83.0741 28.5056 83.7485 28.1174 84.4544 27.7937C84.6159 27.7318 84.7884 27.7037 84.9612 27.7112C85.134 27.7187 85.3034 27.7615 85.4589 27.8371C85.6406 27.938 85.7276 28.3889 85.6962 28.6649C85.3922 30.6118 84.335 32.3613 82.7527 33.5358C80.1202 35.7636 77.4723 37.9902 74.6762 40.0022C72.6266 41.3876 70.4893 42.6386 68.2778 43.7474C67.7953 43.9335 67.39 44.2773 67.1277 44.7229C66.8653 45.1686 66.7615 45.6898 66.8329 46.202C66.8694 48.9926 68.6402 51.0649 69.3602 53.5517C69.9143 55.4652 70.8739 57.2586 71.6076 59.1233C73.0495 62.5867 75.0341 65.7981 77.4868 68.6369C80.1285 71.8345 82.706 75.085 85.3319 78.2957C86.0389 79.1601 86.8762 79.9212 87.5501 80.8083C88.1191 81.5691 88.601 82.3911 88.987 83.2591C89.0752 83.4542 88.6947 84.0825 88.4103 84.1874C86.9072 84.7423 85.6769 84.1508 84.4512 83.2346C83.512 82.5967 82.503 82.0682 81.4437 81.6596C79.2084 80.7118 77.1044 79.4799 75.1839 77.9943C73.4121 76.8229 71.5448 75.8029 69.6018 74.945C69.7482 77.0472 68.6931 78.2072 67.017 78.2749C65.4937 78.1557 63.9901 77.8545 62.5384 77.3777ZM12.3278 27.7567C13.1438 29.32 13.7387 30.5271 14.3933 31.7008C16.2029 34.9456 17.948 38.2578 21.761 39.6537C22.0797 39.746 22.3756 39.9038 22.6298 40.117C22.9831 40.47 23.4725 40.9013 23.4865 41.3137C23.4983 41.6627 22.918 42.0319 22.6068 42.3843C22.5806 42.3688 22.6477 42.4352 22.7242 42.4487C23.0071 42.4987 23.2942 42.5242 23.5777 42.5712C25.8015 42.9398 27.6076 43.8193 28.0514 46.3087C28.2111 46.9923 28.2964 47.6911 28.3057 48.393C28.1644 51.6827 27.9132 54.968 27.7997 58.2583C27.7099 60.8605 27.6816 63.4707 27.7801 66.0715C27.8516 67.961 28.1641 69.8423 28.3887 71.725C28.5364 73.9049 28.8233 76.0732 29.2477 78.2165C30.0806 81.5101 31.1669 84.7455 32.274 87.9615C32.8433 89.9608 33.8347 91.8147 35.1813 93.3983C35.2764 93.1718 35.3575 92.9396 35.4241 92.7031C36.0709 89.4806 36.6 86.2285 37.4087 83.0474C37.8052 81.7999 38.4693 80.6541 39.3545 79.6899C40.2561 78.6203 41.3098 78.6962 42.4278 79.5383C42.9142 79.9223 43.4249 80.2745 43.9568 80.5926C45.2036 81.2996 47.0256 81.0306 47.3309 80.0657C48.2029 77.3087 50.1249 77.7743 51.6845 79.0333C54.7872 81.5379 57.8735 84.0724 61.1014 86.4081C62.7496 87.4421 64.4708 88.3548 66.2514 89.1392C65.3357 87.1457 64.1797 85.474 63.2649 83.6795C62.4877 82.0479 61.813 80.3696 61.2446 78.6541C61.0742 78.2261 61.051 77.7536 61.1787 77.311C61.3063 76.8684 61.5776 76.4808 61.9497 76.2093C62.6934 75.585 63.3307 75.9571 63.9914 76.3316C64.4163 76.6565 64.8917 76.9093 65.3986 77.0798C66.14 77.2541 66.9139 77.2334 67.6449 77.0198C68.0291 76.8663 68.353 75.9961 68.3202 75.4725C68.2293 74.0225 68.9665 73.3283 70.3048 73.9515C72.2233 74.7002 74.0473 75.6716 75.7393 76.8459C77.7676 78.4697 80.0247 79.7849 82.4375 80.7489C83.8767 81.3292 85.3257 81.8853 86.7702 82.4523L87.1582 81.946C86.1992 81.1697 85.2964 80.3263 84.4567 79.4222C81.3845 75.6459 78.3091 71.8666 75.4006 67.9649C73.7878 65.7309 72.322 63.3944 71.0125 60.9702C70.3521 59.5632 69.7741 58.119 69.2815 56.6449C68.0308 53.6221 66.3266 50.7098 65.5972 47.569C64.7949 44.1141 64.4004 44.4377 67.8709 42.426C70.0268 41.2916 72.1142 40.0314 74.1223 38.652C77.0605 36.4481 79.8139 33.9963 82.6174 31.6163C82.9796 31.2244 83.2925 30.7897 83.549 30.3217C83.4482 30.2755 83.3373 30.2554 83.2267 30.2633C83.1161 30.2712 83.0092 30.3069 82.9161 30.3671C78.6452 33.2184 73.7571 33.8605 68.8471 33.7899C65.8118 33.7608 62.8489 32.8596 60.3116 31.1936C59.0226 30.4244 58.0222 29.2529 57.4643 27.8595C56.9064 26.466 56.822 24.9277 57.2241 23.4816C57.5206 22.3231 57.6618 21.1303 57.6438 19.9346C57.6804 15.4715 55.5992 11.8683 52.4446 9.01664C50.9105 7.85955 49.1201 7.08925 47.2251 6.771C43.2849 5.85147 39.4833 5.67945 35.7025 8.07725C34.4537 8.78974 33.4217 9.82778 32.7165 11.0807C32.0112 12.3336 31.6593 13.7544 31.6981 15.1917C31.5661 18.6571 33.1386 21.6663 34.0075 24.8652C34.2052 25.4465 34.2812 26.0623 34.2306 26.6742C34.18 27.2861 34.004 27.8811 33.7135 28.422C32.4057 30.7923 30.1821 31.3922 27.8442 31.339C23.3146 31.0917 18.8554 30.1093 14.6413 28.4302C14.0095 28.2025 13.3502 28.0515 12.3278 27.7567V27.7567Z" fill="#ED6B6A"/>
<path d="M43.6985 17.723C43.6274 19.7438 42.5152 21.2764 41.1226 21.5447C40.3378 21.6271 39.5481 21.4441 38.8795 21.025C38.211 20.606 37.7021 19.9749 37.4342 19.2327C37.079 18.508 36.8961 17.7109 36.8997 16.9038C36.9033 16.0967 37.0933 15.3014 37.4549 14.5798C38.1645 13.1903 39.2133 12.5334 40.3508 12.7224C41.0868 12.8453 41.7722 13.1766 42.3257 13.677C42.8792 14.1774 43.2778 14.826 43.4742 15.5459C43.61 16.3569 43.6456 17.1846 43.6985 17.723Z" fill="#ED6B6A"/>
<path d="M49.5261 21.1336C48.7331 21.129 47.9702 20.8293 47.3862 20.2928C46.8023 19.7563 46.439 19.0216 46.3673 18.2318C46.2338 16.9685 46.3108 15.6917 46.5951 14.4535C46.6264 14.1622 46.7212 13.8814 46.8727 13.6307C47.0243 13.38 47.229 13.1656 47.4724 13.0026C47.7157 12.8395 47.9919 12.7318 48.2814 12.687C48.5709 12.6423 48.8667 12.6615 49.148 12.7434C49.8368 12.8257 50.5185 12.9779 51.1987 13.1205C52.5073 13.3948 52.8415 14.5062 52.9211 15.5421C53.0372 16.3398 52.9875 17.1528 52.7751 17.9304C52.5628 18.708 52.1923 19.4335 51.6868 20.0614C51.0496 20.7895 50.4836 21.6448 49.5261 21.1336Z" fill="#ED6B6A"/>
<path d="M44.4821 26.8668C43.9608 27.9114 43.5649 28.666 43.2037 29.437C42.6137 30.6965 42.1691 30.7635 41.3108 29.6435C40.9447 29.1657 40.6669 28.6203 40.2538 27.9518C40.0548 28.2935 39.8279 28.6182 39.5755 28.9226C39.3453 29.1072 39.0937 29.2633 38.8259 29.3874C38.7102 29.1009 38.4191 28.7292 38.5096 28.5431C38.8879 27.8369 39.3034 27.1513 39.7542 26.4891C40.378 26.8859 41.0165 27.262 41.6162 27.6922C41.7497 27.8264 41.8483 27.9912 41.9033 28.1723C42.666 27.3594 43.3508 26.0164 44.2147 25.8891C45.0075 25.7723 45.9934 26.9662 46.9327 27.6089C47.0141 27.4905 47.0854 27.3654 47.1457 27.2349C47.9124 25.5954 48.2105 25.5269 49.6155 26.7359C50.2413 27.2744 50.8342 27.8512 51.6007 28.5567C51.8017 27.6729 51.9686 26.902 52.1546 26.1357C52.2264 25.7458 52.3453 25.3662 52.5087 25.005C52.5752 24.9105 52.6645 24.8344 52.7683 24.7836C52.8721 24.7328 52.9871 24.7091 53.1025 24.7145C53.3467 24.7883 53.72 25.0591 53.715 25.237C53.7532 27.1974 53.2017 29.1241 52.1319 30.7673L48.5776 27.4847C48.1937 28.1853 47.9172 28.7747 47.5585 29.3087C47.378 29.5774 47.0492 29.9115 46.7852 29.9135C46.6169 29.8795 46.4575 29.8112 46.3167 29.713C46.1759 29.6148 46.0567 29.4887 45.9667 29.3426C45.4753 28.6186 45.0592 27.8434 44.4821 26.8668Z" fill="#ED6B6A"/>
</svg>
