<svg width="100" height="100" viewBox="0 0 100 100" fill="none" xmlns="http://www.w3.org/2000/svg">
<path d="M31.8318 9.38687C32.5018 8.94681 32.9636 8.67079 33.3963 8.35487C36.1347 6.35565 39.0217 7.16906 40.3439 10.3256C41.5664 13.2441 42.9608 16.1067 43.9461 19.1035C44.3772 20.3282 44.4815 21.6442 44.2486 22.9216C44.0157 24.1989 43.4537 25.3934 42.6181 26.3872C42.0542 26.9574 41.7062 27.7059 41.6337 28.5045C41.5612 29.3031 41.7687 30.102 42.2207 30.7644C46.0819 37.9849 49.8607 45.2492 53.557 52.5574C56.3805 58.1676 58.8943 63.934 61.7372 69.5338C64.449 74.8752 67.3764 80.1086 70.2727 85.3542C71.7159 87.9679 73.3084 90.4989 74.8204 93.075C75.0284 93.4011 75.148 93.7757 75.1675 94.1619C75.187 94.5482 75.1057 94.9329 74.9316 95.2783C74.7575 95.6236 74.4967 95.9178 74.1746 96.1319C73.8525 96.346 73.4803 96.4726 73.0944 96.4994C72.8107 96.4255 72.5461 96.2918 72.3182 96.1073C72.0903 95.9229 71.9045 95.6918 71.7731 95.4297C69.1616 90.8249 66.6054 86.1887 64.0369 81.5595C63.7044 80.9995 63.4005 80.423 63.1263 79.8323C59.7403 71.9337 56.5892 63.925 52.929 56.156C49.2342 48.3136 45.0639 40.6939 41.05 33.0037C38.9665 29.012 38.965 29.2091 34.6582 30.4497C32.7144 31.0095 30.5311 30.7657 28.4548 30.8057C28.2656 30.7675 28.0887 30.6831 27.9399 30.5602C27.7911 30.4372 27.6748 30.2794 27.6016 30.1008C26.7728 26.9881 26.1624 23.8092 25.1858 20.746C24.0701 17.2461 25.8871 14.7861 27.9417 12.5605C29.1037 11.3019 29.6187 10.4918 28.5953 8.95668C27.8297 7.67221 27.1573 6.33439 26.5834 4.95356C26.1072 3.95035 26.5325 3.27495 27.5498 3.56948C28.4713 3.83577 29.28 4.3971 29.8516 5.16732C30.6181 6.52142 31.28 7.93203 31.8318 9.38687ZM40.8032 15.1523C39.9386 16.2967 39.2869 17.1593 38.6352 18.0219L38.3667 17.7699C38.8455 16.1855 39.3242 14.601 39.8029 13.0166L39.3211 12.886C35.1306 17.1551 32.2511 19.3284 26.4952 20.4818C27.3772 23.1047 28.214 25.7118 29.1622 28.2777C29.3054 28.4829 29.4899 28.6559 29.7037 28.7859C29.9175 28.9159 30.1561 28.9999 30.4042 29.0326C33.6518 29.6263 36.5441 28.2751 39.337 27.0041C40.5091 26.4707 41.2442 24.9687 42.1563 23.8887C42.1816 23.7368 42.1644 23.5808 42.1067 23.4381L40.6152 23.6474C40.6078 21.673 43.7407 20.9343 42.2339 18.7538C41.5827 19.2592 40.9628 19.7403 40.3429 20.2213L39.9145 19.7967C40.4905 18.9104 41.0664 18.024 41.7486 16.9743C41.5339 16.5606 41.2151 15.9461 40.8032 15.1523ZM26.4208 17.8458L27.0394 18.3834C31.3932 18.0973 34.595 15.6977 37.3813 12.5387C38.1436 11.6744 38.6868 10.7365 37.768 9.68472C36.8939 8.68403 35.7573 8.23472 34.5875 9.07828C32.5848 10.4085 30.6979 11.9054 28.947 13.553C27.8185 14.7029 27.2434 16.3958 26.4208 17.8458Z" fill="#ED6B6A"/>
</svg>
